<svg width="266" height="285" viewBox="0 0 266 285" fill="none" xmlns="http://www.w3.org/2000/svg">
<path d="M261.994 36.5366V78.5931H201.58L199.403 36.8312L261.994 36.5366Z" fill="#E0E0E0"/>
<path d="M199.403 36.8247V78.5034H259.817V36.8247L199.403 36.8247Z" fill="#5F5F5F"/>
<path d="M260.099 78.7917H199.095V36.5303H260.08L260.099 78.7917ZM199.691 78.2218H259.529V37.1386H199.691V78.2218Z" fill="#E0E0E0"/>
<path d="M253.273 42.0049H205.947V73.3295H253.273V42.0049Z" fill="#5F5F5F"/>
<path d="M253.273 42.005H253.036H252.364H249.764L240.012 42.0434L205.947 42.1138L206.081 41.9729C206.081 51.5778 206.081 62.1496 206.081 73.2912L205.934 73.1439H253.26L253.139 73.2656C253.139 63.7312 253.19 55.9192 253.203 50.4764C253.203 47.7551 253.203 45.6292 253.235 44.1757C253.235 43.4521 253.235 42.895 253.235 42.5172C253.235 42.1394 253.235 41.9409 253.235 41.9409C253.235 41.9409 253.235 42.1266 253.235 42.4916C253.235 42.8566 253.235 43.4137 253.235 44.1244C253.235 45.578 253.235 47.691 253.267 50.3996C253.267 55.8616 253.299 63.6991 253.324 73.2656V73.3808H253.209L205.883 73.4129H205.735V73.2656C205.735 62.1239 205.735 51.4946 205.735 41.9473V41.8129H205.876L240.031 41.8769L249.751 41.9153H252.313H253.19L253.273 42.005Z" fill="#E0E0E0"/>
<path d="M199.403 36.7095C199.772 36.8819 200.12 37.0968 200.44 37.3498C201.08 37.798 201.9 38.4319 202.809 39.1555C203.718 39.8791 204.519 40.5706 205.082 41.0765C205.408 41.3321 205.698 41.6291 205.947 41.9601C204.797 41.1627 203.688 40.3078 202.624 39.3988C201.493 38.5733 200.417 37.6749 199.403 36.7095Z" fill="white"/>
<path d="M259.817 36.8311C258.815 37.8059 257.745 38.7089 256.616 39.5332C255.555 40.4351 254.431 41.261 253.254 42.0049C254.255 41.0288 255.325 40.1258 256.456 39.3027C257.512 38.3951 258.636 37.5689 259.817 36.8311Z" fill="white"/>
<path d="M259.766 78.5099L253.03 73.0543L259.766 78.5099Z" fill="white"/>
<path d="M253.03 73.0543C254.242 73.8465 255.399 74.7193 256.494 75.6668C257.646 76.541 258.739 77.4908 259.766 78.5099C258.552 77.7203 257.395 76.8474 256.302 75.8974C255.148 75.0254 254.054 74.0755 253.03 73.0543Z" fill="white"/>
<path d="M199.403 78.5098C200.383 77.5388 201.434 76.642 202.547 75.8268C203.597 74.935 204.71 74.1197 205.876 73.3872C204.893 74.3529 203.843 75.2473 202.732 76.0638C201.683 76.958 200.57 77.7755 199.403 78.5098Z" fill="white"/>
<path d="M215.558 51.7634V62.252H245.333V51.7634H215.558Z" fill="white"/>
<path d="M94.985 12.9599C94.985 12.9599 94.9338 12.9599 94.8378 12.915L94.4087 12.7486L92.7951 12.1082L86.8785 9.54694L67.4063 1.06264L66.7339 0.768095H66.8748L47.7931 8.92582L42.0302 11.3462L40.455 11.9866C40.2755 12.069 40.0891 12.1354 39.8979 12.1851C40.0687 12.0852 40.2463 11.9975 40.4294 11.9225L41.9726 11.2182L47.7355 8.65689L66.7724 0.403109L66.8428 0.371094L66.9132 0.403109L67.5856 0.697659L87.013 9.278L92.8912 11.9161L94.4792 12.6461L94.889 12.8446C94.9236 12.8808 94.9557 12.9193 94.985 12.9599Z" fill="#263238"/>
<path d="M125.356 10.1681H0.306641V103.803H125.356V10.1681Z" fill="#E0E0E0"/>
<path d="M121.456 14.5223H4.68005V99.9544H121.456V14.5223Z" fill="#5F5F5F"/>
<path d="M30.4723 51.8658C30.4723 51.8658 30.5939 66.2091 31.3239 70.5825L49.3106 69.7309C49.3106 69.7309 47.729 55.6438 48.3373 51.8658H30.4723Z" fill="#E0E0E0"/>
<path d="M39.328 53.8766C39.328 53.8766 39.328 53.8766 39.3985 53.8766H39.5906C39.8409 53.8673 40.0917 53.8801 40.3398 53.915C40.7357 53.9743 41.1215 54.0885 41.4859 54.2544C41.9641 54.4931 42.3872 54.829 42.7282 55.2405C43.1423 55.7471 43.4377 56.3401 43.5926 56.9758C43.7306 57.7202 43.6642 58.488 43.4005 59.1977C43.2652 59.5813 43.0959 59.952 42.8946 60.3055C42.6961 60.6705 42.4912 61.029 42.3184 61.426C41.9589 62.2419 41.7154 63.104 41.5948 63.9873V64.045H41.5372L39.7635 64.077H37.9001H37.8361V64.0322C37.7584 63.1541 37.4636 62.3091 36.9781 61.5733C36.7603 61.2083 36.5234 60.8626 36.2993 60.5104C36.0752 60.1582 35.8447 59.87 35.659 59.4795C35.3269 58.8003 35.2279 58.0306 35.3772 57.2895C35.4796 56.6501 35.7152 56.0392 36.0688 55.4966C36.3763 55.062 36.7765 54.7011 37.2406 54.4401C37.587 54.2503 37.9575 54.1081 38.3419 54.0175C38.5838 53.9577 38.83 53.917 39.0783 53.8958H39.2704C39.3152 53.8958 39.3344 53.8958 39.3344 53.8958H39.2704H39.0783C38.8341 53.9253 38.5922 53.9724 38.3548 54.0367C37.9761 54.1355 37.6122 54.2841 37.2726 54.4785C36.823 54.737 36.4378 55.0938 36.1456 55.5222C35.8124 56.0585 35.5943 56.6581 35.5053 57.2831C35.3656 58.0015 35.4645 58.7457 35.787 59.4026C35.9833 59.7525 36.197 60.0923 36.4274 60.4207C36.6451 60.7601 36.8884 61.1123 37.1061 61.4837C37.6068 62.2376 37.9106 63.105 37.9898 64.0065L37.9257 63.9361H39.7891H41.5628L41.4987 64.0001C41.6246 63.1054 41.8746 62.2325 42.2415 61.4068C42.4144 61.0098 42.6257 60.632 42.8242 60.2735C43.028 59.9289 43.1954 59.5641 43.3237 59.1849C43.5846 58.4832 43.6445 57.7225 43.4966 56.9886C43.3518 56.3682 43.0695 55.7883 42.6705 55.2917C42.341 54.8858 41.9312 54.5522 41.4667 54.312C41.1117 54.1424 40.7344 54.0239 40.3462 53.9599C40.1002 53.9222 39.8521 53.9008 39.6034 53.8958H39.3408L39.328 53.8766Z" fill="#373737"/>
<path d="M40.2566 63.8656C40.2552 63.8464 40.2552 63.8272 40.2566 63.808V63.6415C40.2566 63.4942 40.1989 63.2765 40.1541 63.0012C40.0773 62.4441 39.9556 61.6309 39.8724 60.6256C39.8724 60.3759 39.8724 60.1133 39.8275 59.838C39.7827 59.5627 39.8275 59.2745 39.8275 58.9736C39.8366 58.6642 39.9062 58.3597 40.0324 58.0771C40.1662 57.7704 40.4109 57.5257 40.7176 57.392C40.8811 57.3233 41.0612 57.3043 41.2354 57.3373C41.4096 57.3703 41.5703 57.4539 41.6973 57.5776C41.7633 57.6418 41.8159 57.7184 41.8522 57.8031C41.8885 57.8877 41.9076 57.9786 41.9086 58.0707C41.9026 58.2568 41.8376 58.4362 41.7229 58.583C41.6099 58.7353 41.4601 58.8565 41.2875 58.9351C41.1186 59.0156 40.9399 59.0737 40.756 59.108C40.3833 59.1882 40.0038 59.2332 39.6226 59.2425C39.2396 59.2556 38.8562 59.2363 38.4765 59.1849C38.2906 59.1602 38.1094 59.1084 37.9386 59.0312C37.7675 58.9553 37.613 58.8465 37.484 58.711C37.3553 58.5771 37.2646 58.4114 37.2214 58.2308C37.1841 58.0493 37.2066 57.8606 37.2855 57.6929C37.3612 57.5282 37.496 57.398 37.6632 57.3279C37.8273 57.2603 38.0114 57.2603 38.1755 57.3279C38.3307 57.4001 38.4635 57.5129 38.5597 57.6545C38.6496 57.7907 38.7126 57.9428 38.7454 58.1027C38.8052 58.4044 38.8373 58.7109 38.8414 59.0184C38.8414 59.6075 38.8991 60.1582 38.9247 60.664C38.9759 61.6693 39.0143 62.4825 39.0463 63.0524C39.0463 63.3278 39.0463 63.5455 39.0463 63.6927V63.8592C39.0477 63.8784 39.0477 63.8977 39.0463 63.9169C39.0435 63.8978 39.0435 63.8783 39.0463 63.8592C39.0463 63.8208 39.0463 63.7632 39.0463 63.6927C39.0463 63.6223 39.0463 63.3278 39.0015 63.0524C39.0015 62.4889 38.9247 61.6693 38.867 60.664C38.867 60.1646 38.8094 59.6139 38.771 59.0184C38.7659 58.7134 38.7359 58.4093 38.6814 58.1091C38.645 57.9564 38.5821 57.8112 38.4957 57.6801C38.403 57.5499 38.2799 57.4444 38.1371 57.3727C37.9849 57.3122 37.8154 57.3122 37.6632 57.3727C37.508 57.4362 37.3838 57.5581 37.3175 57.7121C37.2386 57.8661 37.216 58.0427 37.2534 58.2116C37.2952 58.3825 37.3813 58.5393 37.5032 58.6662C37.7656 58.9226 38.1056 59.0847 38.4701 59.1272C39.2207 59.2212 39.9815 59.1953 40.724 59.0504C40.9056 59.0151 41.082 58.957 41.2491 58.8775C41.4095 58.7995 41.5497 58.6856 41.6589 58.5445C41.7674 58.4076 41.8281 58.239 41.8318 58.0643C41.8337 57.9792 41.8176 57.8947 41.7844 57.8164C41.7513 57.738 41.702 57.6676 41.6397 57.6097C41.5196 57.4941 41.3687 57.4157 41.2051 57.3838C41.0415 57.352 40.8722 57.3682 40.7176 57.4304C40.4356 57.562 40.2089 57.7887 40.0773 58.0707C39.9534 58.3496 39.8839 58.6495 39.8724 58.9543C39.8724 59.2489 39.8724 59.537 39.8724 59.806C39.8724 60.0749 39.8724 60.3438 39.9108 60.6C39.9876 61.6053 40.1029 62.4121 40.1797 62.9692C40.1797 63.2509 40.2437 63.4622 40.263 63.6095V63.776C40.254 63.805 40.2518 63.8357 40.2566 63.8656Z" fill="#373737"/>
<path d="M37.8873 63.9615C37.8873 63.9615 37.8873 64.1856 37.9321 64.557C37.9769 64.9284 37.9833 65.5111 38.0153 66.113V66.0746L39.2255 67.4705H39.1679L40.5638 67.3937H40.5062L41.2041 66.542L41.5499 66.113V66.1706C41.5499 65.351 41.5115 64.5698 41.4923 63.8655L41.5691 63.9359H38.9566H37.9193C38.0023 63.9278 38.086 63.9278 38.169 63.9359L38.9054 63.8975L41.5691 63.795H41.6396V63.8719C41.6396 64.5826 41.6844 65.3574 41.7036 66.1771L41.3578 66.5997L40.6599 67.4513L39.2576 67.5217H39.2191L38.0345 66.1066C38.0345 65.4663 38.0345 64.954 38.0345 64.5058C37.971 64.3286 37.9217 64.1466 37.8873 63.9615Z" fill="#373737"/>
<path d="M41.4987 65.985L41.3642 65.9274C41.2456 65.873 41.1237 65.826 40.9993 65.7865C40.5883 65.6424 40.1538 65.5772 39.7186 65.5944C39.2895 65.6071 38.8663 65.6982 38.47 65.8634C38.3493 65.9117 38.2317 65.9673 38.1178 66.0298L37.9833 66.0939C38.018 66.0584 38.0594 66.0301 38.105 66.0106C38.2162 65.9414 38.3317 65.8794 38.4508 65.8249C38.8551 65.6474 39.29 65.5496 39.7314 65.5368C40.1677 65.5276 40.6019 65.5992 41.0121 65.7481C41.135 65.7935 41.2548 65.847 41.3707 65.9082C41.4156 65.9297 41.4585 65.9555 41.4987 65.985Z" fill="#373737"/>
<path d="M41.4987 65.4282L41.3643 65.3705C41.281 65.3321 41.1594 65.2809 40.9993 65.2233C40.1814 64.9408 39.2883 64.9681 38.4892 65.3001C38.3355 65.3641 38.2139 65.4218 38.1306 65.4666C38.0474 65.5114 38.009 65.537 38.0026 65.5306L38.1242 65.4474C38.235 65.3794 38.3506 65.3194 38.47 65.2681C38.8734 65.0875 39.3088 64.9895 39.7507 64.9799C40.1875 64.9622 40.6233 65.0341 41.0313 65.1912C41.1567 65.2356 41.2787 65.2891 41.3963 65.3513C41.4329 65.3734 41.4672 65.3992 41.4987 65.4282Z" fill="#373737"/>
<path d="M41.4667 64.89C41.4667 64.89 41.4155 64.89 41.3322 64.8387C41.249 64.7875 41.1273 64.7491 40.9673 64.6915C40.5553 64.5512 40.1216 64.4861 39.6866 64.4994C39.2466 64.5073 38.812 64.5986 38.406 64.7683C38.2523 64.8323 38.1306 64.89 38.0474 64.9348C38.0083 64.9627 37.9651 64.9843 37.9193 64.9988L38.041 64.9156C38.1503 64.8451 38.2661 64.785 38.3867 64.7363C38.7904 64.5556 39.2254 64.4555 39.6674 64.4417C40.1037 64.4316 40.5381 64.5033 40.948 64.653C41.0712 64.7003 41.1911 64.7559 41.3066 64.8195L41.4667 64.89Z" fill="#373737"/>
<path d="M10.4366 28.3979C10.4366 28.3979 10.5582 42.7412 11.2882 47.1146L29.2749 46.2694C29.2749 46.2694 27.6933 32.1823 28.3016 28.3979H10.4366Z" fill="#EBEBEB"/>
<path d="M25.5674 34.4236C23.5711 34.7199 21.5591 34.8995 19.5419 34.9614C17.5325 35.143 15.5142 35.2071 13.4973 35.1535C15.4932 34.8529 17.5052 34.6712 19.5227 34.6092C21.5324 34.4315 23.5506 34.3695 25.5674 34.4236Z" fill="#373737"/>
<path d="M25.5995 37.4647C23.6027 37.7569 21.5911 37.9365 19.5741 38.0026C17.5644 38.1803 15.5462 38.2423 13.5294 38.1883C15.5257 37.8919 17.5376 37.7123 19.5549 37.6504C21.5643 37.4688 23.5827 37.4068 25.5995 37.4647Z" fill="#373737"/>
<path d="M22.5387 40.4424C21.4133 40.6893 20.2651 40.818 19.113 40.8266C17.9655 40.9432 16.8091 40.9432 15.6616 40.8266C16.7898 40.5833 17.9397 40.4546 19.0938 40.4424C20.2391 40.3258 21.3933 40.3258 22.5387 40.4424Z" fill="#373737"/>
<path d="M9.55939 70.5953C9.55939 70.5953 9.68105 84.9322 10.411 89.312L28.3977 88.4604C28.3977 88.4604 26.8161 74.3733 27.4244 70.5953H9.55939Z" fill="#EBEBEB"/>
<path d="M24.7415 76.6208C22.7447 76.9134 20.7331 77.093 18.716 77.1587C16.7064 77.3364 14.6882 77.3984 12.6714 77.3444C14.6677 77.048 16.6796 76.8684 18.6968 76.8065C20.706 76.621 22.7247 76.559 24.7415 76.6208Z" fill="#373737"/>
<path d="M24.7478 79.6561C22.7515 79.9521 20.7396 80.1317 18.7224 80.194C16.713 80.3755 14.6945 80.4375 12.6777 80.3797C14.674 80.0833 16.6859 79.9037 18.7032 79.8418C20.7128 79.664 22.7311 79.602 24.7478 79.6561Z" fill="#373737"/>
<path d="M21.6871 82.6397C20.561 82.8827 19.4133 83.0115 18.2613 83.0239C17.1138 83.1388 15.9576 83.1388 14.81 83.0239C15.9381 82.7809 17.0882 82.6543 18.2421 82.6461C19.3873 82.5274 20.5415 82.5252 21.6871 82.6397Z" fill="#373737"/>
<path d="M58.7428 32.2014L60.5229 73.5664L112.165 74.1875L109.847 32.7457L58.7428 32.2014Z" fill="#EBEBEB"/>
<path d="M109.444 31.907H58.1472V70.6402H109.444V31.907Z" fill="white"/>
<path d="M109.45 70.6402C109.45 70.6402 109.45 70.3905 109.45 69.9166C109.45 69.4428 109.45 68.7512 109.45 67.8548C109.45 66.0363 109.45 63.3725 109.418 60.0172C109.418 53.2618 109.373 43.5993 109.341 31.907L109.482 32.0478H58.192L58.3649 31.875C58.3649 45.802 58.3649 58.9927 58.3649 70.6082L58.2048 70.4481L95.2027 70.5249L105.723 70.5697H108.521H109.245H109.495H109.264H108.56H105.794L95.3052 70.6082L58.2048 70.685H58.0447V70.5249C58.0447 58.9094 58.0447 45.7188 58.0447 31.7917V31.6124H58.224H109.514H109.661V31.7597C109.629 43.4904 109.604 53.1849 109.584 59.934C109.584 63.2957 109.584 65.9274 109.546 67.7395C109.546 68.6232 109.546 69.3019 109.546 69.7757C109.546 70.2496 109.45 70.6402 109.45 70.6402Z" fill="black"/>
<path d="M85.124 40.1096H64.3326V66.2797H85.124V40.1096Z" fill="white"/>
<path d="M85.1176 66.2796C85.1147 66.2349 85.1147 66.19 85.1176 66.1452V65.7738C85.1176 65.428 85.1176 64.9542 85.1176 64.3459C85.1176 63.0652 85.1175 61.2659 85.0727 58.9736C85.0727 54.3696 85.0279 47.8511 84.9959 40.1096L85.1496 40.2697H64.3582C64.3198 40.3081 64.6912 39.9367 64.5375 40.0968V41.8897C64.5375 42.4916 64.5375 43.0871 64.5375 43.6826V47.2108C64.5375 49.5352 64.5375 51.8019 64.5375 53.9982C64.5375 58.3973 64.5375 62.5145 64.5375 66.254L64.3903 66.1068L79.4443 66.1836L83.6704 66.222H84.791C85.0471 66.222 85.1816 66.222 85.1816 66.222C85.0622 66.2312 84.9424 66.2312 84.823 66.222H83.7281L79.5403 66.2604L64.3903 66.3373H64.243V66.19C64.243 62.4505 64.243 58.3332 64.243 53.9342C64.243 51.7379 64.243 49.4519 64.243 47.1468V40.1224L64.4223 39.9431H85.2136H85.3737V40.0968C85.3737 47.8831 85.3161 54.4337 85.2968 59.0632C85.2968 61.3427 85.2968 63.1421 85.252 64.3971C85.252 64.9947 85.252 65.4622 85.252 65.7994C85.252 65.9403 85.252 66.0619 85.252 66.1516C85.252 66.2412 85.1176 66.2861 85.1176 66.2796Z" fill="black"/>
<path d="M104.974 34.1227H65.1267V37.8942H104.974V34.1227Z" fill="white"/>
<path d="M104.968 37.894C104.958 37.8089 104.958 37.723 104.968 37.6379C104.968 37.4522 104.968 37.2088 104.968 36.9015C104.968 36.2612 104.968 35.3199 104.929 34.1225L105 34.1929C98.2762 34.257 82.9597 34.3018 65.1522 34.3018L65.3315 34.1225V37.8812L65.1522 37.7019L93.3777 37.7787L101.856 37.83H104.161H104.763H104.98H104.788H104.206H101.939L93.5058 37.8812L65.1266 37.9516H64.9537V34.1353L65.1266 33.9624C82.934 33.9624 98.2506 34.0008 104.974 34.0649H105.044V34.1353C105.044 35.3519 105.032 36.2932 105.006 36.9591C105.006 37.2601 105.006 37.4906 105.006 37.6763C105.006 37.862 104.968 37.9004 104.968 37.894Z" fill="black"/>
<path d="M104.98 40.1096H87.6724V55.8808H104.98V40.1096Z" fill="white"/>
<path d="M104.968 55.8806C104.96 55.7804 104.96 55.6798 104.968 55.5796V54.7216C104.968 53.9532 104.968 52.8711 104.929 51.52C104.929 48.7474 104.884 44.8286 104.852 40.1222L105.006 40.2759H87.7173L87.8902 40.103V48.4272C87.8902 51.0718 87.8902 53.5498 87.8902 55.8934L87.6789 55.7077L100.165 55.7845L103.706 55.8294H104.647H104.987C104.887 55.8386 104.786 55.8386 104.686 55.8294H103.77L100.261 55.8678L87.6789 55.951H87.5252V55.7909C87.5252 53.4794 87.5252 50.9693 87.5252 48.3248V44.3484C87.5252 43.6568 87.5252 42.9525 87.5252 42.2481V40.1158L87.7045 39.9365H104.993H105.141V40.0838C105.109 44.8286 105.083 48.7794 105.064 51.6096C105.064 52.9543 105.064 54.0237 105.025 54.8113C105.025 55.1528 105.025 55.4281 105.025 55.6373C105.015 55.7203 104.996 55.8019 104.968 55.8806Z" fill="black"/>
<path d="M104.98 58.3525H87.6724V66.2798H104.98V58.3525Z" fill="white"/>
<path d="M104.968 66.2796C104.953 66.0878 104.953 65.8951 104.968 65.7033V64.1153C104.968 62.713 104.923 60.76 104.897 58.3524L105.025 58.4804L87.7365 58.5317C87.5764 58.6918 87.9478 58.314 87.9093 58.3588V62.4248C87.9093 63.7503 87.9093 65.0374 87.9093 66.2668L87.7429 66.1003L100.12 66.1771L103.725 66.2284H104.699H105.051C104.946 66.2374 104.841 66.2374 104.737 66.2284H103.802L100.229 66.2732L87.7429 66.35H87.5764V66.1835C87.5764 64.9541 87.5764 63.6671 87.5764 62.3416C87.5764 61.7013 87.5764 61.0097 87.5764 60.3246V58.2755C87.538 58.2755 87.9157 57.9362 87.7557 58.0963L105.044 58.1411H105.172V58.2627C105.14 60.7024 105.121 62.6874 105.102 64.1025C105.102 64.7428 105.102 65.2743 105.07 65.6649C105.052 65.8722 105.018 66.0777 104.968 66.2796Z" fill="black"/>
<path d="M84.6117 40.1543C78.1765 49.0484 70.7679 57.3918 64.3326 66.2795L84.6117 40.1543Z" fill="#5F5F5F"/>
<path d="M64.3326 66.2795C64.3752 66.1751 64.4335 66.078 64.5055 65.9913L65.0434 65.1909C65.5236 64.4994 66.2344 63.5197 67.1245 62.3223C68.9174 59.9147 71.4723 56.6618 74.3345 53.108C77.1968 49.5542 79.7837 46.327 81.6214 43.9642L83.7857 41.166L84.3812 40.404C84.5221 40.2375 84.5989 40.1478 84.6117 40.1543C84.5687 40.2603 84.5105 40.3595 84.4388 40.4488C84.2915 40.6665 84.1187 40.929 83.901 41.2428C83.4207 41.9344 82.7099 42.9141 81.8199 44.1179C80.0334 46.5191 77.4721 49.7719 74.6098 53.3321C71.7476 56.8923 69.1607 60.1068 67.323 62.4695L65.1587 65.2742C64.9153 65.5751 64.7232 65.8248 64.5632 66.0297C64.4031 66.2347 64.3454 66.2859 64.3326 66.2795Z" fill="black"/>
<path d="M85.1176 66.2797C85.0407 66.3437 80.328 60.5168 74.5842 53.3067C68.8405 46.0967 64.2494 40.1737 64.3391 40.1097C64.4287 40.0456 69.1287 45.8726 74.8724 53.089C80.6161 60.3055 85.2008 66.2221 85.1176 66.2797Z" fill="black"/>
<path d="M60.5228 40.167C60.5228 40.8104 60.332 41.4393 59.9746 41.9742C59.6172 42.5091 59.1091 42.9261 58.5147 43.1723C57.9204 43.4185 57.2663 43.4829 56.6353 43.3574C56.0043 43.2319 55.4247 42.9221 54.9698 42.4671C54.5149 42.0122 54.2051 41.4326 54.0796 40.8016C53.9541 40.1706 54.0185 39.5166 54.2647 38.9222C54.5109 38.3278 54.9278 37.8198 55.4628 37.4624C55.9977 37.105 56.6266 36.9142 57.2699 36.9142C58.1326 36.9142 58.96 37.2569 59.57 37.8669C60.1801 38.4769 60.5228 39.3043 60.5228 40.167Z" fill="black"/>
<path d="M113.727 32.2719C113.727 32.9152 113.536 33.5441 113.179 34.0791C112.822 34.614 112.314 35.0309 111.719 35.2771C111.125 35.5233 110.471 35.5877 109.84 35.4622C109.209 35.3367 108.629 35.0269 108.174 34.572C107.719 34.1171 107.41 33.5375 107.284 32.9065C107.158 32.2755 107.223 31.6215 107.469 31.0271C107.715 30.4327 108.132 29.9247 108.667 29.5672C109.202 29.2098 109.831 29.019 110.474 29.019C111.337 29.019 112.164 29.3618 112.774 29.9718C113.384 30.5818 113.727 31.4092 113.727 32.2719Z" fill="black"/>
<path d="M208.124 257.832V272.412H205.69V274H208.124V283.759H253.632V274.878H250.263V272.957H253.632V270.056H255.13V268.737H253.35V257.851L208.124 257.832Z" fill="white"/>
<path d="M208.124 272.912H208.624V272.412V258.332L252.85 258.351V268.737V269.237H253.35H254.63V269.556H253.632H253.132V270.056V272.457H250.263H249.763V272.957V274.878V275.378H250.263H253.132V283.259H208.624V274V273.5H208.124H206.19V272.912H208.124Z" stroke="black" stroke-opacity="0.2"/>
<path d="M241.549 257.877V283.593H253.632V274.711H250.264V272.944L253.632 273.002V270.101H255.162L255.13 268.603L253.35 268.558V257.832L241.549 257.877Z" fill="#E0E0E0"/>
<path d="M254.651 269.601H253.632H253.132V270.101V272.493L250.272 272.444L249.764 272.435V272.944V274.711V275.211H250.264H253.132V283.093H242.049V258.375L252.85 258.334V268.558V269.045L253.337 269.058L254.64 269.09L254.651 269.601Z" stroke="black" stroke-opacity="0.2"/>
<mask id="path-50-inside-1_2_1533" fill="white">
<path d="M242.407 273.789C242.407 273.879 234.172 273.95 224.017 273.95C213.861 273.95 205.627 273.879 205.627 273.789C205.627 273.7 213.861 273.629 224.017 273.629C234.172 273.629 242.407 273.7 242.407 273.789Z"/>
</mask>
<path d="M242.407 273.789C242.407 273.879 234.172 273.95 224.017 273.95C213.861 273.95 205.627 273.879 205.627 273.789C205.627 273.7 213.861 273.629 224.017 273.629C234.172 273.629 242.407 273.7 242.407 273.789Z" fill="#E0E0E0"/>
<path d="M241.407 273.789C241.407 273.28 241.764 273.02 241.834 272.971C241.943 272.895 242.041 272.86 242.072 272.849C242.147 272.823 242.205 272.814 242.212 272.813C242.239 272.808 242.25 272.808 242.226 272.81C242.185 272.813 242.11 272.818 241.99 272.823C241.757 272.833 241.404 272.843 240.941 272.853C240.016 272.872 238.674 272.889 237.012 272.903C233.687 272.932 229.093 272.95 224.017 272.95V274.95C229.096 274.95 233.697 274.932 237.029 274.903C238.694 274.889 240.046 274.871 240.982 274.852C241.449 274.842 241.82 274.832 242.076 274.821C242.202 274.816 242.313 274.81 242.398 274.802C242.436 274.799 242.495 274.793 242.554 274.783C242.577 274.779 242.647 274.767 242.73 274.738C242.764 274.726 242.866 274.69 242.977 274.612C243.049 274.562 243.407 274.3 243.407 273.789H241.407ZM224.017 272.95C218.941 272.95 214.346 272.932 211.022 272.903C209.359 272.889 208.017 272.872 207.093 272.853C206.629 272.843 206.277 272.833 206.043 272.823C205.924 272.818 205.848 272.813 205.808 272.81C205.783 272.808 205.794 272.808 205.822 272.813C205.828 272.814 205.887 272.823 205.961 272.849C205.992 272.86 206.09 272.895 206.2 272.971C206.27 273.02 206.627 273.28 206.627 273.789H204.627C204.627 274.3 204.985 274.562 205.057 274.612C205.168 274.69 205.269 274.726 205.304 274.738C205.387 274.767 205.457 274.779 205.479 274.783C205.539 274.793 205.597 274.799 205.635 274.802C205.721 274.81 205.832 274.816 205.958 274.821C206.214 274.832 206.584 274.842 207.051 274.852C207.988 274.871 209.339 274.889 211.005 274.903C214.337 274.932 218.937 274.95 224.017 274.95V272.95ZM206.627 273.789C206.627 274.299 206.27 274.559 206.2 274.608C206.09 274.684 205.992 274.719 205.961 274.73C205.887 274.756 205.828 274.765 205.822 274.766C205.794 274.771 205.783 274.771 205.808 274.769C205.848 274.766 205.924 274.761 206.043 274.756C206.277 274.746 206.629 274.736 207.093 274.726C208.017 274.707 209.359 274.69 211.022 274.676C214.346 274.647 218.941 274.629 224.017 274.629V272.629C218.937 272.629 214.337 272.647 211.005 272.676C209.339 272.69 207.988 272.708 207.051 272.727C206.584 272.736 206.214 272.747 205.958 272.758C205.832 272.763 205.721 272.769 205.635 272.777C205.597 272.78 205.539 272.786 205.479 272.796C205.457 272.8 205.387 272.812 205.304 272.841C205.269 272.853 205.168 272.889 205.057 272.967C204.985 273.017 204.627 273.278 204.627 273.789H206.627ZM224.017 274.629C229.093 274.629 233.687 274.647 237.012 274.676C238.674 274.69 240.016 274.707 240.941 274.726C241.404 274.736 241.757 274.746 241.99 274.756C242.11 274.761 242.185 274.766 242.226 274.769C242.25 274.771 242.239 274.771 242.212 274.766C242.205 274.765 242.147 274.756 242.072 274.73C242.041 274.719 241.943 274.684 241.834 274.608C241.764 274.559 241.407 274.299 241.407 273.789H243.407C243.407 273.278 243.049 273.017 242.977 272.967C242.866 272.889 242.764 272.853 242.73 272.841C242.647 272.812 242.577 272.8 242.554 272.796C242.495 272.786 242.436 272.78 242.398 272.777C242.313 272.769 242.202 272.763 242.076 272.758C241.82 272.747 241.449 272.736 240.982 272.727C240.046 272.708 238.694 272.69 237.029 272.676C233.697 272.647 229.096 272.629 224.017 272.629V274.629Z" fill="black" fill-opacity="0.2" mask="url(#path-50-inside-1_2_1533)"/>
<mask id="path-52-inside-2_2_1533" fill="white">
<path d="M242.407 272.31C242.407 272.4 234.172 272.47 224.017 272.47C213.861 272.47 205.627 272.4 205.627 272.31C205.627 272.221 213.861 272.144 224.017 272.144C234.172 272.144 242.407 272.221 242.407 272.31Z"/>
</mask>
<path d="M242.407 272.31C242.407 272.4 234.172 272.47 224.017 272.47C213.861 272.47 205.627 272.4 205.627 272.31C205.627 272.221 213.861 272.144 224.017 272.144C234.172 272.144 242.407 272.221 242.407 272.31Z" fill="#E0E0E0"/>
<path d="M241.407 272.31C241.407 271.801 241.764 271.54 241.834 271.492C241.943 271.416 242.041 271.381 242.072 271.37C242.147 271.344 242.205 271.334 242.212 271.333C242.239 271.328 242.25 271.328 242.226 271.33C242.185 271.334 242.11 271.339 241.99 271.344C241.757 271.354 241.404 271.364 240.941 271.373C240.016 271.392 238.674 271.409 237.012 271.424C233.687 271.453 229.093 271.47 224.017 271.47V273.47C229.096 273.47 233.697 273.453 237.029 273.424C238.694 273.409 240.046 273.392 240.982 273.373C241.449 273.363 241.82 273.353 242.076 273.342C242.202 273.336 242.313 273.33 242.398 273.323C242.436 273.32 242.495 273.314 242.554 273.304C242.577 273.3 242.647 273.288 242.73 273.259C242.764 273.247 242.866 273.21 242.977 273.133C243.049 273.083 243.407 272.821 243.407 272.31H241.407ZM224.017 271.47C218.941 271.47 214.346 271.453 211.022 271.424C209.359 271.409 208.017 271.392 207.093 271.373C206.629 271.364 206.277 271.354 206.043 271.344C205.924 271.339 205.848 271.334 205.808 271.33C205.783 271.328 205.794 271.328 205.822 271.333C205.828 271.334 205.887 271.344 205.961 271.37C205.992 271.381 206.09 271.416 206.2 271.492C206.27 271.54 206.627 271.801 206.627 272.31H204.627C204.627 272.821 204.985 273.083 205.057 273.133C205.168 273.21 205.269 273.247 205.304 273.259C205.387 273.288 205.457 273.3 205.479 273.304C205.539 273.314 205.597 273.32 205.635 273.323C205.721 273.33 205.832 273.336 205.958 273.342C206.214 273.353 206.584 273.363 207.051 273.373C207.988 273.392 209.339 273.409 211.005 273.424C214.337 273.453 218.937 273.47 224.017 273.47V271.47ZM206.627 272.31C206.627 272.82 206.27 273.08 206.2 273.128C206.091 273.204 205.993 273.239 205.962 273.25C205.888 273.276 205.829 273.286 205.823 273.287C205.795 273.292 205.784 273.292 205.809 273.29C205.849 273.286 205.925 273.282 206.044 273.276C206.277 273.266 206.63 273.256 207.093 273.246C208.018 273.226 209.36 273.208 211.023 273.193C214.347 273.163 218.941 273.144 224.017 273.144V271.144C218.937 271.144 214.336 271.163 211.004 271.193C209.339 271.209 207.988 271.227 207.051 271.247C206.584 271.256 206.213 271.267 205.957 271.278C205.831 271.284 205.72 271.29 205.635 271.297C205.597 271.301 205.538 271.306 205.479 271.317C205.456 271.321 205.386 271.333 205.303 271.362C205.269 271.374 205.167 271.41 205.056 271.488C204.984 271.538 204.627 271.799 204.627 272.31H206.627ZM224.017 273.144C229.092 273.144 233.687 273.163 237.011 273.193C238.674 273.208 240.016 273.226 240.94 273.246C241.404 273.256 241.756 273.266 241.99 273.276C242.109 273.282 242.185 273.286 242.225 273.29C242.25 273.292 242.239 273.292 242.211 273.287C242.205 273.286 242.146 273.276 242.072 273.25C242.041 273.239 241.943 273.204 241.833 273.128C241.764 273.08 241.407 272.82 241.407 272.31H243.407C243.407 271.799 243.049 271.538 242.977 271.488C242.866 271.41 242.765 271.374 242.73 271.362C242.648 271.333 242.577 271.321 242.555 271.317C242.496 271.306 242.437 271.301 242.399 271.297C242.314 271.29 242.203 271.284 242.077 271.278C241.82 271.267 241.45 271.256 240.983 271.247C240.046 271.227 238.695 271.209 237.029 271.193C233.697 271.163 229.097 271.144 224.017 271.144V273.144Z" fill="black" fill-opacity="0.2" mask="url(#path-52-inside-2_2_1533)"/>
<mask id="path-54-inside-3_2_1533" fill="white">
<path d="M244.77 268.295C244.77 268.385 236.535 268.456 226.379 268.456C216.224 268.456 207.989 268.385 207.989 268.295C207.989 268.206 216.224 268.135 226.379 268.135C236.535 268.135 244.77 268.231 244.77 268.295Z"/>
</mask>
<path d="M244.77 268.295C244.77 268.385 236.535 268.456 226.379 268.456C216.224 268.456 207.989 268.385 207.989 268.295C207.989 268.206 216.224 268.135 226.379 268.135C236.535 268.135 244.77 268.231 244.77 268.295Z" fill="#E0E0E0"/>
<path d="M243.77 268.295C243.77 267.786 244.127 267.526 244.197 267.477C244.306 267.401 244.404 267.366 244.435 267.355C244.509 267.329 244.568 267.32 244.574 267.319C244.602 267.314 244.613 267.314 244.588 267.316C244.548 267.319 244.472 267.324 244.353 267.329C244.12 267.339 243.767 267.349 243.304 267.359C242.379 267.378 241.037 267.395 239.374 267.409C236.05 267.438 231.455 267.456 226.379 267.456V269.456C231.459 269.456 236.06 269.438 239.392 269.409C241.057 269.395 242.408 269.377 243.345 269.358C243.812 269.348 244.182 269.338 244.439 269.327C244.565 269.322 244.676 269.316 244.761 269.308C244.799 269.305 244.857 269.299 244.917 269.289C244.939 269.285 245.01 269.273 245.092 269.244C245.127 269.232 245.228 269.196 245.34 269.118C245.412 269.068 245.77 268.806 245.77 268.295H243.77ZM226.379 267.456C221.304 267.456 216.709 267.438 213.385 267.409C211.722 267.395 210.38 267.378 209.455 267.359C208.992 267.349 208.639 267.339 208.406 267.329C208.287 267.324 208.211 267.319 208.171 267.316C208.146 267.314 208.157 267.314 208.185 267.319C208.191 267.32 208.25 267.329 208.324 267.355C208.355 267.366 208.453 267.401 208.562 267.477C208.632 267.526 208.989 267.786 208.989 268.295H206.989C206.989 268.806 207.347 269.068 207.419 269.118C207.531 269.196 207.632 269.232 207.667 269.244C207.749 269.273 207.82 269.285 207.842 269.289C207.902 269.299 207.96 269.305 207.998 269.308C208.083 269.316 208.194 269.322 208.32 269.327C208.577 269.338 208.947 269.348 209.414 269.358C210.351 269.377 211.702 269.395 213.367 269.409C216.699 269.438 221.3 269.456 226.379 269.456V267.456ZM208.989 268.295C208.989 268.805 208.632 269.065 208.562 269.114C208.453 269.19 208.355 269.225 208.324 269.236C208.25 269.262 208.191 269.271 208.185 269.272C208.157 269.277 208.146 269.277 208.171 269.275C208.211 269.272 208.287 269.267 208.406 269.262C208.639 269.252 208.992 269.242 209.455 269.232C210.38 269.213 211.722 269.196 213.385 269.182C216.709 269.153 221.304 269.135 226.379 269.135V267.135C221.3 267.135 216.699 267.153 213.367 267.182C211.702 267.196 210.351 267.214 209.414 267.233C208.947 267.242 208.577 267.253 208.32 267.264C208.194 267.269 208.083 267.275 207.998 267.283C207.96 267.286 207.902 267.292 207.842 267.302C207.82 267.306 207.749 267.318 207.667 267.347C207.632 267.359 207.531 267.395 207.419 267.473C207.347 267.523 206.989 267.784 206.989 268.295H208.989ZM226.379 269.135C231.454 269.135 236.049 269.159 239.373 269.191C241.036 269.207 242.379 269.225 243.305 269.243C243.769 269.252 244.124 269.261 244.36 269.27C244.48 269.274 244.561 269.278 244.608 269.281C244.634 269.283 244.633 269.283 244.617 269.281C244.615 269.281 244.573 269.276 244.517 269.262C244.497 269.257 244.415 269.236 244.319 269.187C244.273 269.164 244.168 269.108 244.062 269.002C243.954 268.894 243.77 268.655 243.77 268.295H245.77C245.77 267.935 245.585 267.696 245.477 267.588C245.37 267.481 245.265 267.424 245.217 267.401C245.119 267.351 245.034 267.329 245.01 267.323C244.946 267.307 244.892 267.3 244.874 267.298C244.827 267.291 244.778 267.288 244.742 267.285C244.663 267.28 244.557 267.275 244.432 267.271C244.178 267.262 243.81 267.253 243.344 267.244C242.408 267.226 241.058 267.207 239.392 267.191C236.061 267.159 231.46 267.135 226.379 267.135V269.135Z" fill="black" fill-opacity="0.2" mask="url(#path-54-inside-3_2_1533)"/>
<mask id="path-56-inside-4_2_1533" fill="white">
<path d="M245 279.181C245 279.27 236.765 279.347 226.61 279.347C216.454 279.347 208.213 279.27 208.213 279.181C208.213 279.091 216.448 279.021 226.61 279.021C236.772 279.021 245 279.098 245 279.181Z"/>
</mask>
<path d="M245 279.181C245 279.27 236.765 279.347 226.61 279.347C216.454 279.347 208.213 279.27 208.213 279.181C208.213 279.091 216.448 279.021 226.61 279.021C236.772 279.021 245 279.098 245 279.181Z" fill="#E0E0E0"/>
<path d="M244 279.181C244 278.671 244.357 278.411 244.427 278.363C244.536 278.287 244.634 278.252 244.665 278.241C244.739 278.215 244.798 278.205 244.804 278.204C244.832 278.199 244.843 278.199 244.818 278.201C244.778 278.205 244.702 278.209 244.583 278.215C244.349 278.225 243.997 278.235 243.533 278.245C242.609 278.265 241.267 278.283 239.604 278.298C236.28 278.328 231.686 278.347 226.61 278.347V280.347C231.69 280.347 236.29 280.328 239.622 280.298C241.288 280.282 242.639 280.264 243.576 280.244C244.043 280.234 244.413 280.224 244.67 280.213C244.796 280.207 244.907 280.201 244.992 280.194C245.03 280.19 245.089 280.185 245.148 280.174C245.17 280.17 245.241 280.158 245.323 280.129C245.358 280.117 245.459 280.081 245.57 280.003C245.642 279.953 246 279.692 246 279.181H244ZM226.61 278.347C221.534 278.347 216.938 278.328 213.612 278.298C211.949 278.283 210.606 278.265 209.681 278.245C209.217 278.235 208.865 278.225 208.631 278.215C208.512 278.209 208.436 278.205 208.395 278.201C208.371 278.199 208.382 278.199 208.409 278.204C208.416 278.205 208.474 278.215 208.549 278.241C208.579 278.251 208.677 278.286 208.787 278.362C208.856 278.411 209.213 278.671 209.213 279.181H207.213C207.213 279.692 207.572 279.953 207.643 280.003C207.754 280.081 207.856 280.117 207.89 280.129C207.973 280.158 208.043 280.17 208.065 280.174C208.125 280.185 208.183 280.19 208.221 280.194C208.307 280.201 208.418 280.207 208.544 280.213C208.8 280.224 209.171 280.234 209.638 280.244C210.576 280.264 211.928 280.282 213.594 280.298C216.928 280.328 221.53 280.347 226.61 280.347V278.347ZM209.213 279.181C209.213 279.69 208.856 279.951 208.786 279.999C208.677 280.075 208.579 280.11 208.548 280.121C208.474 280.147 208.415 280.157 208.409 280.158C208.381 280.163 208.37 280.163 208.395 280.161C208.435 280.157 208.511 280.152 208.63 280.147C208.863 280.137 209.216 280.127 209.679 280.118C210.604 280.099 211.946 280.082 213.61 280.067C216.935 280.038 221.531 280.021 226.61 280.021V278.021C221.527 278.021 216.925 278.038 213.592 278.067C211.927 278.082 210.575 278.099 209.638 278.118C209.171 278.128 208.801 278.138 208.544 278.149C208.418 278.155 208.307 278.161 208.222 278.168C208.184 278.171 208.126 278.177 208.066 278.187C208.044 278.191 207.973 278.203 207.891 278.232C207.856 278.244 207.755 278.281 207.643 278.358C207.571 278.408 207.213 278.67 207.213 279.181H209.213ZM226.61 280.021C231.689 280.021 236.283 280.04 239.607 280.07C241.269 280.084 242.611 280.102 243.535 280.12C243.999 280.13 244.351 280.14 244.586 280.149C244.705 280.154 244.782 280.159 244.824 280.162C244.849 280.164 244.84 280.164 244.815 280.16C244.81 280.159 244.755 280.151 244.685 280.128C244.657 280.119 244.562 280.088 244.454 280.018C244.403 279.985 244 279.725 244 279.181H246C246 278.636 245.596 278.375 245.543 278.34C245.433 278.269 245.335 278.236 245.303 278.226C245.225 278.2 245.158 278.19 245.137 278.186C245.08 278.177 245.024 278.172 244.987 278.169C244.903 278.162 244.793 278.156 244.668 278.151C244.412 278.14 244.043 278.13 243.576 278.121C242.64 278.102 241.29 278.084 239.625 278.07C236.294 278.04 231.693 278.021 226.61 278.021V280.021Z" fill="black" fill-opacity="0.2" mask="url(#path-56-inside-4_2_1533)"/>
<path d="M70.7231 211.569H105.441C106.613 211.569 107.737 211.103 108.566 210.275C109.394 209.446 109.86 208.323 109.86 207.151V196.451C109.86 195.472 109.667 194.503 109.292 193.599C108.918 192.694 108.369 191.873 107.677 191.181C106.985 190.488 106.163 189.939 105.259 189.565C104.354 189.19 103.385 188.998 102.406 188.998H70.4606L70.7231 211.569Z" fill="#EBEBEB"/>
<path d="M105.441 211.069H71.2173L70.9664 189.498H102.406C103.319 189.498 104.224 189.677 105.067 190.027C105.911 190.376 106.677 190.888 107.323 191.534C107.969 192.18 108.481 192.946 108.83 193.79C109.18 194.634 109.36 195.538 109.36 196.451V207.151C109.36 208.19 108.947 209.187 108.212 209.921C107.477 210.656 106.481 211.069 105.441 211.069Z" stroke="black" stroke-opacity="0.2"/>
<path d="M104.859 218.299H36.5938C35.7061 218.292 34.857 217.935 34.231 217.306C33.6051 216.676 33.253 215.825 33.2513 214.937C33.253 214.044 33.6084 213.189 34.2397 212.557C34.871 211.926 35.7267 211.571 36.6194 211.569H104.859C105.751 211.571 106.606 211.926 107.236 212.558C107.867 213.189 108.221 214.045 108.221 214.937C108.221 215.829 107.866 216.684 107.236 217.314C106.605 217.945 105.75 218.299 104.859 218.299Z" fill="#EBEBEB"/>
<path d="M104.859 217.799H36.5958C35.8405 217.793 35.1182 217.489 34.5856 216.953C34.0528 216.417 33.753 215.693 33.7513 214.937C33.753 214.177 34.0557 213.449 34.5933 212.911C35.1309 212.373 35.8596 212.071 36.6199 212.069H104.858C105.618 212.071 106.346 212.373 106.882 212.911C107.419 213.449 107.721 214.177 107.721 214.937C107.721 215.696 107.419 216.424 106.882 216.961C106.346 217.497 105.618 217.799 104.859 217.799Z" stroke="black" stroke-opacity="0.2"/>
<path d="M22.6797 121.943L60.2347 121.303L84.074 211.403L33.2514 211.883L14.0417 132.905C13.723 131.599 13.7058 130.237 13.9915 128.923C14.2771 127.608 14.8582 126.376 15.6905 125.32C16.5229 124.264 17.5848 123.411 18.7957 122.826C20.0066 122.24 21.3348 121.939 22.6797 121.943Z" fill="#EBEBEB"/>
<path d="M22.6781 122.443L22.6781 122.443L22.6882 122.443L59.8515 121.809L83.4261 210.909L33.6435 211.379L14.5276 132.787L14.5275 132.787C14.2267 131.554 14.2105 130.269 14.4801 129.029C14.7496 127.789 15.2979 126.626 16.0833 125.63C16.8687 124.633 17.8706 123.828 19.0132 123.276C20.1558 122.724 21.4091 122.439 22.6781 122.443Z" stroke="black" stroke-opacity="0.2"/>
<path d="M41.3898 218.299L30.1522 283.599H33.2321L48.0044 218.299H41.3898Z" fill="#EBEBEB"/>
<path d="M47.3787 218.799L32.8326 283.099H30.7456L41.8112 218.799H47.3787Z" stroke="black" stroke-opacity="0.2"/>
<path d="M67.88 218.299L55.938 283.599H59.018L74.4946 218.299H67.88Z" fill="#E0E0E0"/>
<path d="M73.8622 218.799L58.6226 283.099H56.5377L68.2969 218.799H73.8622Z" stroke="black" stroke-opacity="0.2"/>
<path d="M97.1813 218.299L110.5 283.599H107.42L90.5604 218.299H97.1813Z" fill="#EBEBEB"/>
<path d="M91.2059 218.799H96.773L109.888 283.099H107.807L91.2059 218.799Z" stroke="black" stroke-opacity="0.2"/>
<path d="M55.938 121.277L74.5074 211.473H88.761L73.8735 131.779C73.3275 128.83 71.7665 126.165 69.4611 124.247C67.1558 122.329 64.2517 121.278 61.2527 121.277H55.938Z" fill="#EBEBEB"/>
<path d="M73.3818 131.87L73.382 131.87L88.159 210.973H74.9149L56.5514 121.777L61.2526 121.777C61.2526 121.777 61.2526 121.777 61.2527 121.777C64.1348 121.778 66.9258 122.788 69.1413 124.631C71.3569 126.475 72.8571 129.036 73.3818 131.87Z" stroke="black" stroke-opacity="0.2"/>
<path d="M265.446 283.958C265.446 284.047 206.209 284.124 133.148 284.124C60.0874 284.124 0.838196 284.047 0.838196 283.958C0.838196 283.868 60.0618 283.791 133.148 283.791C206.235 283.791 265.446 283.862 265.446 283.958Z" fill="#263238"/>
<path d="M97.6231 284.143H48.6639L52.365 248.503L97.6231 248.208V284.143Z" fill="#D79300"/>
<g opacity="0.4">
<path d="M97.6231 284.143H48.6639L52.365 248.503L97.6231 248.208V284.143Z" fill="black"/>
</g>
<path d="M104.763 248.208H55.8035V284.137H104.763V248.208Z" fill="#D79300"/>
<g opacity="0.2">
<path d="M104.763 248.208H55.8035V284.137H104.763V248.208Z" fill="black"/>
</g>
<path d="M105.173 265.606C105.173 265.696 94.159 265.773 80.5778 265.773C66.9965 265.773 55.9701 265.696 55.9701 265.606C55.9701 265.517 66.9837 265.433 80.5778 265.433C94.1718 265.433 105.173 265.51 105.173 265.606Z" fill="#263238"/>
<path d="M64.5248 269.064C64.3028 267.276 64.3028 265.467 64.5248 263.679C64.7468 265.467 64.7468 267.276 64.5248 269.064Z" fill="#263238"/>
<path d="M98.5644 268.872C98.3425 267.276 98.3425 265.658 98.5644 264.063C98.7863 265.658 98.7863 267.276 98.5644 268.872Z" fill="#263238"/>
<path d="M87.7815 248.394C87.7815 248.394 87.7815 248.004 87.6662 247.331C87.4955 246.379 87.1245 245.473 86.5776 244.674C85.7706 243.488 84.6515 242.549 83.344 241.959C81.7327 241.25 79.9804 240.919 78.2214 240.992C76.4519 241.007 74.7057 241.397 73.0988 242.138C71.798 242.746 70.6724 243.674 69.8268 244.834C69.2599 245.618 68.853 246.506 68.6294 247.447C68.4757 248.119 68.4693 248.503 68.4373 248.503C68.4275 248.409 68.4275 248.315 68.4373 248.221C68.4381 247.953 68.4639 247.685 68.5141 247.421C68.6936 246.443 69.0801 245.516 69.6475 244.7C70.4915 243.48 71.6392 242.503 72.9772 241.863C74.6092 241.089 76.3897 240.678 78.1958 240.659C80.0042 240.584 81.8049 240.935 83.4529 241.684C84.7989 242.309 85.9417 243.301 86.7505 244.546C87.2983 245.377 87.6467 246.324 87.7686 247.312C87.7921 247.578 87.7921 247.846 87.7686 248.113C87.789 248.205 87.7934 248.3 87.7815 248.394Z" fill="#263238"/>
<path d="M69.4169 109.623C71.7566 108.524 74.3872 108.205 76.9215 108.714C78.2854 108.938 79.7069 109.354 80.629 110.366C81.5511 111.377 81.7304 113.19 80.6674 114.067C79.9814 114.531 79.1549 114.742 78.3302 114.662C76.3452 114.662 74.1489 114.291 72.5673 115.482C71.6645 116.161 71.0626 117.294 70.006 117.627C69.4655 117.751 68.8991 117.697 68.3922 117.472C67.8853 117.246 67.4652 116.863 67.195 116.378C66.6821 115.392 66.5675 114.246 66.8748 113.177C66.9965 112.429 67.2892 111.719 67.7301 111.102C68.171 110.486 68.7483 109.98 69.4169 109.623Z" fill="#D79300"/>
<path d="M64.1918 99.5253C65.5877 101.523 68.2963 100.864 69.5577 99.647C70.8192 98.4304 71.3442 96.6631 71.8309 94.9854C72.9322 91.1435 74.0464 87.1095 73.2268 83.1971C73.0277 82.0123 72.5072 80.9048 71.722 79.9955C71.3236 79.548 70.8145 79.2131 70.2459 79.0243C69.6772 78.8355 69.069 78.7994 68.482 78.9197C67.1117 79.2783 66.2601 80.6166 65.6453 81.8972C63.8358 85.66 62.8885 89.7792 62.8727 93.9545C62.8727 95.8755 63.0905 97.9309 64.1918 99.5317" fill="#D79300"/>
<path d="M60.3562 102.388C61.0741 101.452 61.5521 100.354 61.7486 99.1914C61.945 98.0284 61.8539 96.835 61.4832 95.7153C60.7241 93.4662 59.3565 91.4714 57.5324 89.9524C55.4647 88.1211 53.0589 86.7116 50.4504 85.8031C49.436 85.3892 48.343 85.2034 47.2488 85.2589C46.7052 85.29 46.1775 85.4539 45.712 85.7364C45.2465 86.0188 44.8573 86.4111 44.5786 86.8789C43.8295 88.3004 44.5786 90.0229 45.315 91.4252C46.6788 93.9041 48.2353 96.2721 49.9702 98.5072C51.3597 100.306 52.9605 102.08 55.0928 102.887C57.2251 103.694 59.4278 103.604 60.5547 102.131" fill="#D79300"/>
<path d="M64.0958 129.601C64.1668 129.303 64.2096 128.998 64.2238 128.692C64.2879 128.052 64.3647 127.206 64.4608 126.22C64.5851 125.004 64.7711 123.794 65.0178 122.596C65.3402 121.137 65.7813 119.706 66.3369 118.319C66.8773 116.93 67.6125 115.626 68.5204 114.445C69.2603 113.483 70.2052 112.697 71.2866 112.146C72.0121 111.784 72.7899 111.537 73.5918 111.416C73.8964 111.405 74.1989 111.362 74.4946 111.288C74.1882 111.255 73.879 111.255 73.5726 111.288C72.7346 111.359 71.9155 111.576 71.1521 111.928C70.0131 112.465 69.0138 113.259 68.2323 114.246C67.2859 115.443 66.524 116.775 65.9719 118.197C65.4207 119.607 64.9923 121.062 64.6913 122.545C64.4571 123.759 64.2967 124.987 64.211 126.22C64.1342 127.271 64.1022 128.141 64.0894 128.705C64.0599 129.003 64.062 129.304 64.0958 129.601Z" fill="#263238"/>
<path d="M64.2623 127.699C64.2814 127.559 64.2814 127.417 64.2623 127.277V126.073C64.2623 125.036 64.2623 123.512 64.3135 121.661C64.4031 117.928 64.7297 113.92 65.3444 108.259C65.9335 102.945 66.7211 96.7334 67.5535 92.725C67.7328 91.8093 67.9121 90.9897 68.0786 90.2661C68.2451 89.5426 68.3796 88.9214 68.514 88.4156C68.6485 87.9097 68.7189 87.5575 68.7958 87.2502C68.8356 87.1147 68.8592 86.975 68.8662 86.834C68.8003 86.9595 68.7508 87.0929 68.7189 87.231L68.3732 88.3772C68.2195 88.8766 68.0594 89.4977 67.8801 90.2213C67.7008 90.9449 67.4895 91.7581 67.2974 92.6737C66.2643 97.4331 65.4883 102.245 64.973 107.087C64.3327 112.754 64.0766 117.915 64.051 121.655C64.051 123.525 64.051 125.036 64.115 126.079C64.115 126.566 64.1662 126.963 64.1854 127.283C64.1979 127.424 64.2236 127.563 64.2623 127.699Z" fill="#263238"/>
<path d="M64.2878 117.742C64.3241 117.316 64.3241 116.888 64.2878 116.462C64.243 115.655 64.1277 114.49 63.9036 113.062C63.6287 111.39 63.2588 109.735 62.7958 108.106C62.2557 106.1 61.5621 104.139 60.7212 102.24C59.2858 98.738 57.2244 95.5267 54.6381 92.7634C54.1903 92.2879 53.7111 91.8429 53.2038 91.4315C52.9861 91.2458 52.794 91.0601 52.5634 90.9128L52.0064 90.5286C51.6728 90.2859 51.3193 90.0717 50.9498 89.8883C52.1692 90.8422 53.3263 91.873 54.414 92.9747C56.9155 95.7623 58.9229 98.9564 60.3498 102.419C61.1721 104.309 61.8673 106.251 62.4308 108.234C62.9073 109.847 63.3006 111.484 63.609 113.138C63.8716 114.554 64.0188 115.7 64.1085 116.507C64.1378 116.922 64.1978 117.335 64.2878 117.742Z" fill="#263238"/>
<path d="M54.6702 135.306L55.6627 148.971H73.2204L74.2193 135.306H54.6702Z" fill="#263238"/>
<path d="M76.3131 129.915H52.9733V135.3H76.3131V129.915Z" fill="#263238"/>
<path d="M52.9733 148.446V149.938H54.0683H75.9289V148.446H52.9733Z" fill="#455A64"/>
<path d="M55.144 152.57L54.0683 149.938H75.0901L73.8351 152.57H55.144Z" fill="#455A64"/>
<path d="M73.8928 139.77C73.8928 139.77 73.8928 139.814 73.8095 139.898L73.547 140.243L72.5289 141.524L72.4776 141.588L72.4392 141.524L69.9228 138.047H70.07L67.592 141.55L67.5151 141.665L67.4319 141.556C66.5162 140.474 65.5109 139.296 64.4992 138.066H64.6657L64.5056 138.271L61.8803 141.556L61.7906 141.665L61.7138 141.55L59.2357 138.054H59.383L56.3351 141.524L56.2774 141.588L56.239 141.518L55.2849 139.91L55.0416 139.488C55.0092 139.44 54.9834 139.389 54.9648 139.334C55.0032 139.376 55.0375 139.421 55.0672 139.469L55.3362 139.878L56.3415 141.454H56.2454L59.2421 137.938L59.319 137.849L59.3894 137.945C60.145 139.001 60.9838 140.179 61.8867 141.428H61.7138L64.3327 138.13L64.4928 137.932L64.576 137.823L64.6657 137.925C65.6902 139.155 66.6763 140.339 67.592 141.428H67.4255L69.9228 137.938L69.9996 137.836L70.07 137.938L72.5289 141.454H72.4392C72.8875 140.922 73.246 140.493 73.5022 140.173L73.7903 139.846C73.8213 139.817 73.8557 139.791 73.8928 139.77Z" fill="#E0E0E0"/>
<path d="M74.4627 135.217C74.4627 135.275 70.0637 135.326 64.6401 135.326C59.2166 135.326 54.8112 135.275 54.8112 135.217C54.8112 135.159 59.2102 135.108 64.6273 135.108C70.0445 135.108 74.4627 135.153 74.4627 135.217Z" fill="#455A64"/>
<path d="M75.3526 150.085C75.3526 150.149 70.5693 150.194 64.6719 150.194C58.7746 150.194 53.9977 150.149 53.9977 150.085C53.9977 150.021 58.7746 149.976 64.6719 149.976C70.5693 149.976 75.3526 150.028 75.3526 150.085Z" fill="#263238"/>
<path d="M166.182 152.87H217.588V150.373H166.182V152.87Z" fill="#263238"/>
<path d="M225.554 152.87L235.197 116.743H195.055L186.327 152.87H225.554Z" fill="#263238"/>
<path d="M188.735 150.136H224.587L232.937 118.415H196.893L188.735 150.136Z" fill="#455A64"/>
<path d="M224.836 150.476H188.338L196.662 118.108H233.365L224.836 150.476ZM189.145 149.836H224.362L232.539 118.748H197.174L189.145 149.836Z" fill="#263238"/>
<path d="M62.8342 159.889H60.2409V283.83H62.8342V159.889Z" fill="#455A64"/>
<path d="M65.434 160.24H62.8407V283.823H65.434V160.24Z" fill="#263238"/>
<path d="M222.768 159.889H220.175V283.83H222.768V159.889Z" fill="#455A64"/>
<path d="M225.361 160.24H222.768V283.823H225.361V160.24Z" fill="#263238"/>
<path d="M261.584 152.685H30.1522V162.853H261.584V152.685Z" fill="#455A64"/>
<path d="M221.475 162.853H134.666V179.681H221.475V162.853Z" fill="#455A64"/>
<path d="M181.941 170.102C181.941 170.482 181.828 170.853 181.617 171.169C181.406 171.485 181.106 171.731 180.755 171.877C180.404 172.022 180.018 172.06 179.645 171.986C179.273 171.912 178.93 171.729 178.662 171.46C178.393 171.191 178.21 170.849 178.136 170.477C178.062 170.104 178.1 169.718 178.245 169.367C178.391 169.016 178.637 168.716 178.953 168.505C179.269 168.293 179.64 168.181 180.02 168.181C180.53 168.181 181.018 168.383 181.378 168.743C181.739 169.104 181.941 169.592 181.941 170.102Z" fill="#263238"/>
<path d="M240.383 162.853C240.383 162.943 210.288 163.02 173.213 163.02C136.139 163.02 106.043 162.943 106.043 162.853C106.043 162.764 136.139 162.687 173.213 162.687C210.288 162.687 240.383 162.764 240.383 162.853Z" fill="#263238"/>
<path d="M160.279 43.2341C160.625 43.2341 165.305 44.0153 165.305 44.0153L171.638 51.9938L172.592 53.5049L164.05 58.9669L160.279 53.3833L157.077 51.3022C157.554 50.9381 158.122 50.7126 158.718 50.6505C159.315 50.5883 159.917 50.692 160.458 50.95C161.72 51.4808 163.078 51.7466 164.447 51.7312L163.32 48.5296L159.85 47.8381L160.279 43.2341Z" fill="#EB996E"/>
<path d="M160.676 37.6507C160.809 37.6159 160.947 37.6095 161.083 37.6318C161.218 37.654 161.348 37.7045 161.462 37.78C161.577 37.8555 161.675 37.9542 161.749 38.0698C161.823 38.1855 161.872 38.3154 161.892 38.4511C162.411 41.7232 163.98 51.5713 164.454 54.4592C164.494 54.6891 164.446 54.9257 164.32 55.1224C164.195 55.3191 164 55.4617 163.775 55.5221L156.238 57.6288C156.108 57.6659 155.972 57.6743 155.838 57.6535C155.704 57.6327 155.577 57.5832 155.464 57.5083C155.352 57.4334 155.257 57.335 155.186 57.2198C155.115 57.1047 155.07 56.9755 155.054 56.8412L152.992 40.4937C152.961 40.2545 153.019 40.0123 153.155 39.8129C153.29 39.6135 153.494 39.4707 153.728 39.4116L160.676 37.6507Z" fill="#263238"/>
<path d="M155.617 55.6117L163.301 53.4666L161.265 39.8661C161.238 39.6829 161.172 39.5075 161.073 39.3514C160.973 39.1954 160.842 39.0622 160.687 38.9606C160.532 38.859 160.357 38.7913 160.174 38.7619C159.992 38.7326 159.805 38.7423 159.626 38.7903L153.472 40.4232L155.617 55.6117Z" fill="#EBEBEB"/>
<path d="M163.141 45.6608L159.69 48.2221C159.69 48.2221 159.978 49.1313 160.503 49.1954C161.621 49.0491 162.726 48.8136 163.807 48.491L163.141 45.6608Z" fill="#EB996E"/>
<path d="M162.725 43.593L159.107 45.181C159.107 45.181 158.877 46.3592 160.228 46.1927L159.017 47.0636C159.017 47.0636 159.318 47.5886 160.83 47.6527C162.341 47.7167 163.807 45.6164 163.807 45.6164L162.725 43.593Z" fill="#EB996E"/>
<path d="M166.317 47.6207C166.317 47.6655 165.875 47.5822 165.395 47.134C165.13 46.8863 164.853 46.6533 164.563 46.436C164.4 46.3162 164.209 46.2402 164.008 46.2156C163.807 46.1909 163.603 46.2183 163.416 46.2952C162.412 46.8736 161.363 47.3704 160.279 47.7807C161.215 47.0693 162.229 46.4658 163.301 45.9814C163.546 45.8815 163.814 45.8505 164.076 45.8918C164.307 45.9461 164.525 46.0463 164.716 46.1863C165.016 46.4174 165.291 46.6792 165.536 46.9675C165.781 47.2031 166.042 47.4213 166.317 47.6207Z" fill="#D1734A"/>
<path d="M165.606 56.6363C164.986 55.8873 164.601 54.972 164.498 54.005C164.396 53.0381 164.581 52.0623 165.03 51.2C164.855 52.1109 164.788 53.0395 164.832 53.9662C164.982 54.884 165.242 55.7804 165.606 56.6363Z" fill="#D1734A"/>
<path d="M165.158 45.1874C165.113 45.2258 164.921 44.9505 164.46 44.8032C163.844 44.6311 163.184 44.7069 162.622 45.0145C161.944 45.3411 161.342 45.7573 160.862 45.9558C160.381 46.1543 160.042 46.1991 160.036 46.1607C160.029 46.1223 160.317 46.007 160.753 45.7445C161.188 45.482 161.752 45.0594 162.488 44.7136C162.835 44.5397 163.214 44.4373 163.602 44.4126C163.925 44.3937 164.248 44.453 164.543 44.5855C165.024 44.8224 165.158 45.1746 165.158 45.1874Z" fill="#D1734A"/>
<path d="M164.857 67.8739L183.676 79.9568L178.688 94.2232C178.688 94.2232 165.811 90.2468 166.048 89.8306C166.285 89.4144 164.857 67.8739 164.857 67.8739Z" fill="#D79300"/>
<path d="M159.991 260.983L157.026 274.616C157.026 274.616 169.89 282.203 169.589 284.771L142.952 279.981L146.691 258.55L159.991 260.983Z" fill="#263238"/>
<path d="M142.952 279.982L143.413 277.836L168.782 283.234C168.782 283.234 169.871 283.964 169.589 284.771L142.952 279.982Z" fill="#455A64"/>
<path d="M129.691 262.481L129.249 276.421C129.249 276.421 143.278 281.544 143.445 284.137L116.378 284.259L116.173 262.488L129.691 262.481Z" fill="#263238"/>
<g opacity="0.6">
<path d="M116.378 284.259L116.442 282.063L142.369 282.773C142.369 282.773 143.579 283.292 143.445 284.137L116.378 284.259Z" fill="#455A64"/>
</g>
<path d="M133.616 33.8473L136.376 65.8635L152.384 64.5829C152.48 62.7132 152.345 55.4775 152.345 55.4775C152.345 55.4775 159.011 54.4402 159.094 47.7936C159.133 44.5536 158.672 37.8686 158.185 31.8431C157.934 28.6266 156.432 25.6365 154.002 23.5141C151.572 21.3918 148.407 20.3062 145.186 20.4902C143.542 20.586 141.933 21.0103 140.456 21.738C138.978 22.4657 137.661 23.4821 136.582 24.7271C135.504 25.9721 134.686 27.4206 134.176 28.987C133.667 30.5534 133.476 32.2061 133.616 33.8473Z" fill="#EB996E"/>
<path d="M152.352 55.3556C149.274 55.4114 146.25 54.5511 143.662 52.8839C143.662 52.8839 145.718 57.6799 152.364 57.078L152.352 55.3556Z" fill="#D1734A"/>
<path d="M155.617 36.4984C155.619 36.7471 155.524 36.9867 155.352 37.1661C155.179 37.3455 154.944 37.4506 154.695 37.4589C154.574 37.4685 154.453 37.4538 154.337 37.4156C154.222 37.3774 154.116 37.3165 154.024 37.2365C153.933 37.1565 153.859 37.0591 153.806 36.9499C153.753 36.8408 153.722 36.7221 153.716 36.6009C153.714 36.3533 153.808 36.1146 153.979 35.9354C154.15 35.7562 154.384 35.6504 154.631 35.6404C154.753 35.6308 154.875 35.6455 154.99 35.6837C155.106 35.7218 155.213 35.7826 155.304 35.8625C155.396 35.9424 155.471 36.0397 155.525 36.1489C155.579 36.2581 155.61 36.377 155.617 36.4984Z" fill="#263238"/>
<path d="M156.77 35.1535C156.655 35.2815 155.931 34.7437 154.907 34.7501C153.882 34.7565 153.133 35.2623 153.024 35.1407C152.915 35.019 153.088 34.8589 153.415 34.622C153.859 34.3157 154.386 34.1525 154.926 34.1546C155.459 34.1527 155.98 34.3209 156.411 34.6348C156.725 34.8717 156.834 35.1022 156.77 35.1535Z" fill="#263238"/>
<path d="M145.782 36.4983C145.785 36.7464 145.691 36.986 145.52 37.1656C145.349 37.3452 145.114 37.4505 144.866 37.4588C144.745 37.4684 144.623 37.4537 144.507 37.4156C144.392 37.3774 144.285 37.3167 144.193 37.2368C144.101 37.1569 144.026 37.0595 143.973 36.9503C143.919 36.8411 143.887 36.7223 143.88 36.6008C143.88 36.3526 143.976 36.1139 144.148 35.9348C144.32 35.7558 144.554 35.6502 144.802 35.6403C144.923 35.6316 145.044 35.647 145.159 35.6855C145.274 35.724 145.38 35.785 145.471 35.8648C145.562 35.9446 145.637 36.0417 145.69 36.1504C145.743 36.2592 145.775 36.3774 145.782 36.4983Z" fill="#263238"/>
<path d="M146.704 35.3456C146.589 35.4672 145.865 34.9358 144.841 34.9422C143.816 34.9486 143.067 35.4544 142.958 35.3264C142.849 35.1983 143.022 35.051 143.349 34.8141C143.79 34.5028 144.319 34.3392 144.86 34.3467C145.394 34.3425 145.915 34.511 146.345 34.8269C146.659 35.0638 146.762 35.288 146.704 35.3456Z" fill="#263238"/>
<path d="M150.431 42.9396C150.971 42.771 151.53 42.6699 152.096 42.6387C152.352 42.6387 152.601 42.5618 152.646 42.3826C152.667 42.1128 152.607 41.843 152.473 41.6078C152.224 40.9674 151.967 40.3271 151.699 39.6164C150.623 36.7797 149.848 34.4489 149.963 34.4105C150.079 34.3721 151.039 36.6324 152.115 39.4627C152.371 40.167 152.621 40.833 152.851 41.4669C153.017 41.7837 153.066 42.1482 152.992 42.4978C152.954 42.5904 152.895 42.6729 152.819 42.7385C152.744 42.8041 152.654 42.8511 152.557 42.8756C152.413 42.9162 152.264 42.9377 152.115 42.9396C151.556 43.0128 150.99 43.0128 150.431 42.9396Z" fill="#263238"/>
<path d="M147.408 43.6507C147.575 43.6507 147.575 44.7521 148.529 45.5717C149.483 46.3913 150.661 46.212 150.674 46.3977C150.687 46.5834 150.411 46.609 149.906 46.6218C149.253 46.6258 148.62 46.399 148.119 45.9815C147.622 45.5869 147.302 45.0112 147.229 44.3807C147.229 43.9197 147.331 43.6443 147.408 43.6507Z" fill="#263238"/>
<path d="M146.973 31.3307C146.87 31.6124 145.846 31.4779 144.642 31.6252C143.438 31.7725 142.471 32.0991 142.311 31.8493C142.241 31.7277 142.407 31.4651 142.804 31.209C143.326 30.8766 143.918 30.6685 144.533 30.6008C145.148 30.5331 145.77 30.6075 146.352 30.8184C146.794 30.9785 147.011 31.2026 146.973 31.3307Z" fill="#263238"/>
<path d="M156.399 32.1888C156.219 32.4257 155.508 32.1888 154.663 32.1888C153.818 32.1888 153.094 32.3489 152.928 32.1056C152.858 31.9839 152.973 31.7534 153.287 31.5293C153.709 31.2668 154.199 31.1352 154.696 31.1512C155.193 31.1672 155.674 31.3299 156.078 31.6189C156.379 31.8366 156.475 32.08 156.399 32.1888Z" fill="#263238"/>
<path d="M140.826 26.5411H140.787C139.735 27.3833 139.047 28.5987 138.867 29.9348V30.0693C138.604 31.9902 138.655 33.9112 138.373 35.8322C138.092 37.7532 137.439 39.6741 136.03 40.9548C135.454 41.4926 134.435 41.864 133.962 41.2365C133.799 40.9756 133.717 40.6729 133.725 40.3657C133.366 35.7746 132.111 31.7021 132.124 26.9189C132.117 26.2758 132.264 25.6404 132.552 25.0657C132.841 24.4909 133.263 23.9935 133.782 23.6148C134.788 22.8976 136.011 22.1485 137.131 22.6799C138.252 23.2114 139.693 25.2988 140.557 26.1825" fill="#263238"/>
<path d="M135.863 36.8633C135.748 36.812 131.285 35.5058 131.426 40.0649C131.567 44.624 136.119 43.5354 136.119 43.4074C136.119 43.2793 135.863 36.8633 135.863 36.8633Z" fill="#EB996E"/>
<path d="M134.672 41.723C134.672 41.723 134.595 41.7807 134.467 41.8447C134.281 41.9323 134.067 41.9438 133.872 41.8767C133.572 41.6999 133.325 41.4467 133.155 41.143C132.985 40.8392 132.899 40.4958 132.905 40.1478C132.881 39.7568 132.945 39.3653 133.091 39.0017C133.127 38.8561 133.199 38.7217 133.299 38.6101C133.4 38.4985 133.526 38.4131 133.667 38.3613C133.758 38.335 133.855 38.3404 133.942 38.3764C134.029 38.4125 134.102 38.4772 134.147 38.5598C134.211 38.6879 134.186 38.7775 134.211 38.784C134.237 38.7904 134.301 38.7071 134.262 38.5214C134.233 38.4081 134.165 38.3085 134.07 38.2397C133.941 38.1528 133.783 38.1163 133.629 38.1372C133.443 38.1826 133.272 38.2738 133.131 38.4025C132.99 38.5311 132.884 38.6931 132.822 38.8736C132.64 39.2749 132.561 39.7149 132.591 40.1542C132.649 41.0763 133.148 41.9151 133.808 42.0752C133.932 42.1065 134.061 42.1096 134.186 42.0841C134.312 42.0586 134.43 42.0052 134.531 41.9279C134.672 41.8319 134.691 41.7294 134.672 41.723Z" fill="#D1734A"/>
<path d="M136.984 23.3843C135.863 21.5593 138.937 18.9404 141.184 18.2617C143.432 17.5829 146.397 18.6459 148.631 19.3886C150.046 19.8561 151.449 20.5092 152.941 20.4516C153.934 20.3458 154.906 20.0978 155.829 19.7152C156.75 19.3255 157.742 19.1293 158.742 19.1389C159.242 19.1495 159.729 19.2965 160.151 19.564C160.573 19.8314 160.914 20.2092 161.137 20.6565C161.515 21.5786 160.977 22.8464 159.984 22.9809C160.301 22.8089 160.654 22.716 161.014 22.71C161.374 22.704 161.73 22.7851 162.052 22.9464C162.374 23.1077 162.653 23.3445 162.863 23.6365C163.074 23.9285 163.211 24.2672 163.263 24.6236C163.315 24.98 163.279 25.3436 163.16 25.6835C163.041 26.0233 162.842 26.3294 162.579 26.5756C162.316 26.8217 161.997 27.0007 161.651 27.0973C161.304 27.1938 160.938 27.2051 160.586 27.1302C161.226 26.6371 162.225 27.4503 162.142 28.2571C162.055 28.6556 161.866 29.0245 161.593 29.3276C161.32 29.6307 160.973 29.8576 160.586 29.986C158.665 30.8184 156.469 30.5495 154.503 29.89C152.537 29.2304 150.712 28.1995 148.74 27.4887C146.768 26.778 143.522 25.4973 141.569 26.2081C140.128 26.7204 139.123 28.4556 138.309 28.0714C137.926 27.8665 137.595 27.5743 137.345 27.2184C137.095 26.8626 136.932 26.4529 136.869 26.0224C136.761 25.1694 136.791 24.3046 136.958 23.4611" fill="#263238"/>
<path d="M160.529 22.8336C160.49 22.8336 160.298 23.1666 159.805 23.698C159.108 24.4405 158.239 25.001 157.276 25.3309C155.859 25.8402 154.3 25.7782 152.928 25.158C151.378 24.46 150.053 23.0513 148.51 21.7707C147.095 20.445 145.306 19.5866 143.387 19.3118C142.595 19.2146 141.791 19.2997 141.036 19.5605C140.281 19.8212 139.596 20.2509 139.033 20.8166C138.67 21.2117 138.39 21.6765 138.212 22.1829C138.034 22.6892 137.96 23.2264 137.996 23.7621C138.021 24.0498 138.088 24.3324 138.194 24.6009C138.277 24.7802 138.329 24.8698 138.341 24.8634C138.255 24.4992 138.197 24.1288 138.168 23.7557C138.169 22.7414 138.562 21.7665 139.263 21.0343C139.808 20.5195 140.461 20.1337 141.175 19.9054C141.889 19.677 142.645 19.6121 143.387 19.7152C145.212 20.0054 146.908 20.8375 148.254 22.1036C149.752 23.3843 151.122 24.8122 152.781 25.5358C154.003 26.0583 155.362 26.1729 156.655 25.8627C157.948 25.5524 159.106 24.8338 159.959 23.8133C160.141 23.5957 160.3 23.3596 160.433 23.1089C160.503 22.936 160.541 22.84 160.529 22.8336Z" fill="#455A64"/>
<path d="M134.698 36.6647C134.698 36.6647 134.896 36.5366 135.069 36.178C135.294 35.6583 135.374 35.0874 135.3 34.526C135.197 33.0596 133.897 31.4844 133.731 29.4546C133.615 28.517 133.792 27.5666 134.237 26.7332C134.626 26.0748 135.219 25.562 135.927 25.2733C136.408 25.0706 136.934 24.9977 137.451 25.062C137.816 25.126 138.015 25.2093 138.034 25.1708C137.881 25.0305 137.693 24.9352 137.49 24.8955C136.938 24.7517 136.355 24.7785 135.818 24.9723C135.02 25.2539 134.342 25.8008 133.897 26.5219C133.386 27.4255 133.178 28.4688 133.302 29.4994C133.42 30.5004 133.717 31.4721 134.179 32.3681C134.545 33.0647 134.814 33.8079 134.98 34.5772C135.106 35.2854 135.007 36.0152 134.698 36.6647Z" fill="#455A64"/>
<path d="M161.444 272.675C161.444 272.675 175.32 204.609 175.333 203.251L150.546 190.176L140.941 270.056L161.444 272.675Z" fill="#263238"/>
<path d="M130.235 274.955L149.4 156.988V131.541L121.648 133.526C121.315 134.519 114.316 275.109 114.316 275.109L117.019 274.955H130.235Z" fill="#263238"/>
<path d="M164.467 129.742L175.333 203.251L151.039 197.36L141.14 132.137L164.467 129.742Z" fill="#263238"/>
<path d="M168.654 161.406C168.654 161.406 172.88 157.776 173.297 155.041C173.713 152.307 168.232 108.298 168.232 108.298L165.433 71.9146C165.433 72.5549 165.51 67.3298 164.665 67.0161C162.104 66.0492 156.84 64.2947 156.84 64.2947L153.831 61.5925C153.831 61.5925 159.235 84.6954 160.285 91.009L168.654 161.406Z" fill="#D79300"/>
<path d="M133.955 59.0823L129.409 62.111L112.357 68.8152L119.932 97.3801L118.914 113.977L117.947 124.511C117.947 124.511 112.869 150.591 108.387 166.439C108.387 166.439 113.388 175.916 117.499 177.235L119.208 178.253L125.304 133.616L130.536 126.572C131.042 125.894 131.509 125.196 131.951 124.479C133.231 122.385 136.164 117.627 138.501 113.958C141.588 109.111 145.545 98.0972 144.373 93.3973C143.201 88.6973 133.955 59.0823 133.955 59.0823Z" fill="#D79300"/>
<path d="M122.372 157.558C126.364 154.327 129.68 150.341 132.13 145.827L122.372 157.558Z" fill="#263238"/>
<path d="M133.955 59.0822L138.06 85.4188C137.948 88.7859 137.39 92.1233 136.401 95.3438L129.076 119.036C129.076 119.036 123.313 131.951 125.304 133.603C127.296 135.255 142.785 133.603 142.785 133.603L163.749 130.562C164.217 130.493 164.641 130.248 164.933 129.876C165.225 129.504 165.363 129.034 165.318 128.564L162.206 96.4067C161.156 94.1848 160.727 89.6385 160.285 88.0249L153.831 61.5987L152.512 61.4258L149.643 63.3916L148.132 63.5133L135.447 57.3726L133.955 59.0822Z" fill="#EBEBEB"/>
<path d="M130.132 115.597C133.52 105.039 137.906 87.8715 137.906 87.8715C139.27 96.836 137.778 106.025 134.442 114.477C131.714 121.367 128.416 126.579 126.15 133.642L126.079 133.93C126.079 133.93 124.798 134 124.888 132.111C124.978 130.223 126.809 124.6 128.032 121.488C129.255 118.377 130.132 115.597 130.132 115.597Z" fill="#E0E0E0"/>
<path d="M150.373 65.6265H147.523L146.672 69.526L149.163 72.542L151.673 72.2922L152.492 69.494L151.82 67.9316L150.373 65.6265Z" fill="#D79300"/>
<path d="M166.989 88.3964C167.886 88.5756 177.785 95.235 181.384 94.5179C184.983 93.8007 187.896 90.407 188.28 89.9523C190.323 87.5319 189.042 82.5054 188.453 80.61C188.31 80.1476 188.114 79.7029 187.87 79.2845L172.586 53.0312L163.576 58.506L172.925 75.5579L166.989 88.3964Z" fill="#D79300"/>
<path d="M93.269 120.137C92.6767 118.588 92.4195 116.931 92.5144 115.276C92.6093 113.62 93.0542 112.003 93.8197 110.532C95.8943 106.428 99.1856 99.8005 99.8772 97.6234C100.902 94.3898 110.481 69.5772 112.357 68.8088L120.681 96.9127L111.012 117.275L122.346 138.63L112.901 148.811C112.901 148.811 95.0299 123.89 93.5571 120.81C93.4547 120.588 93.3586 120.363 93.269 120.137Z" fill="#D79300"/>
<path d="M122.794 155.291C124.582 153.618 126.169 151.745 127.526 149.707C127.514 149.68 127.507 149.651 127.507 149.621C127.507 149.591 127.514 149.562 127.526 149.534C127.548 149.503 127.577 149.476 127.61 149.456C127.643 149.436 127.68 149.423 127.718 149.419C128.261 148.578 128.757 147.708 129.204 146.813C127.622 145.782 125.554 144.252 127.802 143.906C130.574 143.509 132.553 142.164 132.835 141.428C133.116 140.692 132.194 140.032 131.464 140.499C130.624 140.93 129.727 141.241 128.8 141.422C128.06 141.596 127.296 141.644 126.54 141.562C125.663 141.466 122.058 139.904 121.418 139.789L114.675 146.883C114.675 146.883 119.855 152.397 122.794 155.291Z" fill="#EB996E"/>
<path d="M166.925 89.1777C166.815 88.9257 166.735 88.6612 166.688 88.3901C166.554 87.8778 166.388 87.1094 166.202 86.1938C165.728 83.7695 165.379 81.3224 165.158 78.8621C164.938 76.4012 164.848 73.9303 164.889 71.4599C164.889 70.5122 164.94 69.7503 164.979 69.2188C164.984 68.9435 165.014 68.6692 165.068 68.3992C165.114 68.672 165.127 68.9493 165.107 69.2252C165.107 69.8207 165.107 70.5699 165.107 71.4599C165.107 73.3809 165.216 75.9422 165.472 78.8364C165.728 81.7307 166.112 84.292 166.42 86.1554C166.567 87.0326 166.695 87.7754 166.797 88.3645C166.866 88.6309 166.908 88.9032 166.925 89.1777Z" fill="#263238"/>
<path d="M174.763 90.6952C174.763 90.6952 174.686 90.6952 174.545 90.6439C174.348 90.5718 174.157 90.4818 173.975 90.375C173.309 89.9624 172.751 89.3958 172.349 88.723C171.786 87.7274 171.393 86.6456 171.184 85.5213C170.856 84.1636 170.602 82.7892 170.422 81.4041C170.153 78.4458 169.929 75.7884 169.781 73.8546C169.717 72.939 169.666 72.1706 169.621 71.5623C169.591 71.2814 169.591 70.9979 169.621 70.717C169.693 70.9897 169.74 71.2683 169.762 71.5495C169.826 72.1898 169.916 72.9198 170.018 73.829C170.23 75.75 170.492 78.433 170.755 81.3656C170.94 82.8256 171.216 84.2087 171.491 85.4509C171.676 86.567 172.035 87.6473 172.554 88.6525C172.927 89.3094 173.438 89.8774 174.052 90.3174C174.513 90.5671 174.795 90.6695 174.763 90.6952Z" fill="#263238"/>
<g opacity="0.3">
<path d="M169.602 70.7427C168.822 73.693 168.282 76.7017 167.988 79.7392C167.719 81.552 167.814 83.4004 168.27 85.1756C168.821 86.9173 170.108 88.5245 171.875 89.0175C171.068 83.0753 170.358 77.1224 169.743 71.1589" fill="black"/>
</g>
<g opacity="0.3">
<path d="M117.172 128.314C117.172 128.314 120.169 134.455 121.827 137.669C125.285 123.384 120.899 108.349 122.327 93.7239L119.83 98.7632L119.125 110.424L118.587 117.262C118.587 117.262 118.075 124.62 117.172 128.314Z" fill="black"/>
</g>
<path d="M119.593 69.0778C119.786 69.3257 119.956 69.5916 120.098 69.8718C120.259 70.1343 120.438 70.4609 120.63 70.8451C120.822 71.2292 121.059 71.6711 121.27 72.1705C121.792 73.3375 122.244 74.535 122.621 75.7563C123.532 78.7579 123.99 81.8787 123.979 85.0154C123.975 86.3004 123.888 87.5838 123.716 88.8574C123.665 89.4016 123.563 89.8883 123.486 90.3109C123.409 90.7335 123.332 91.1049 123.262 91.3995C123.204 91.7105 123.117 92.0151 122.999 92.3087C123.016 91.9937 123.061 91.6809 123.134 91.3738C123.185 91.0729 123.249 90.7335 123.306 90.2789C123.364 89.8243 123.441 89.3696 123.486 88.8318C123.617 87.5704 123.679 86.3028 123.671 85.0346C123.652 83.4856 123.534 81.9393 123.319 80.4051C123.083 78.8727 122.751 77.3565 122.327 75.8652C121.969 74.6485 121.541 73.4534 121.046 72.2858C120.854 71.7799 120.63 71.3445 120.457 70.9475C120.284 70.5505 120.118 70.2239 119.977 69.955C119.82 69.6762 119.691 69.3823 119.593 69.0778Z" fill="#263238"/>
<path d="M110.923 117.448C110.878 117.48 110.449 116.808 109.642 115.751C108.566 114.42 107.289 113.264 105.858 112.325C105.091 111.807 104.165 111.58 103.245 111.685C102.499 111.823 101.792 112.124 101.177 112.569C100.095 113.311 99.5057 113.894 99.4609 113.849C99.5649 113.683 99.6946 113.534 99.8451 113.407C100.219 113.034 100.619 112.687 101.042 112.37C101.672 111.894 102.401 111.568 103.175 111.416C104.165 111.275 105.172 111.503 106.005 112.056C107.473 113.01 108.758 114.218 109.802 115.623C110.118 116.045 110.409 116.485 110.673 116.942C110.782 117.097 110.866 117.267 110.923 117.448Z" fill="#263238"/>
<path d="M108.81 110.718C110.08 112.657 110.81 114.901 110.923 117.217C110.82 117.217 110.57 115.719 109.981 113.932C109.392 112.146 108.739 110.776 108.81 110.718Z" fill="#263238"/>
<path d="M116.974 127.917C117.158 128.176 117.318 128.45 117.454 128.737L118.671 131.036C119.689 132.989 121.078 135.71 122.621 138.764L122.679 138.873L122.596 138.956L121.955 139.597C119.439 142.216 117.153 144.578 115.482 146.269L113.49 148.267C113.256 148.522 113.001 148.758 112.728 148.971C112.919 148.689 113.134 148.424 113.369 148.177L115.29 146.109C116.916 144.367 119.183 141.985 121.693 139.366L122.333 138.726V138.918C120.796 135.857 119.439 133.155 118.491 131.138L117.371 128.794C117.21 128.516 117.077 128.222 116.974 127.917Z" fill="#263238"/>
<path d="M129.447 115.034C129.43 114.848 129.43 114.662 129.447 114.477C129.447 114.086 129.447 113.561 129.447 112.895C129.479 111.493 129.524 109.508 129.582 107.074C129.639 104.641 129.703 101.696 129.838 98.4493C129.919 94.9103 130.401 91.3918 131.272 87.9608C131.756 86.2025 132.435 84.5037 133.296 82.8958L133.417 83.1391C132.62 83.0028 131.896 82.593 131.368 81.9801C130.865 81.406 130.5 80.725 130.299 79.9887C130.006 78.6263 129.894 77.2312 129.966 75.8394C129.966 73.2333 129.966 70.9025 129.966 68.956C129.966 67.0094 129.966 65.4918 129.966 64.3904C129.966 63.8782 129.966 63.4684 129.966 63.161C129.951 63.0205 129.951 62.8789 129.966 62.7384C129.99 62.8779 130.001 63.0194 129.998 63.161C129.998 63.4684 129.998 63.8782 130.03 64.3904C130.03 65.4918 130.068 67.035 130.1 68.9495C130.132 70.8641 130.145 73.2269 130.171 75.8394C130.107 77.2041 130.223 78.5712 130.517 79.9055C130.708 80.5921 131.052 81.2268 131.522 81.7624C131.999 82.3186 132.656 82.6902 133.379 82.8126L133.609 82.851L133.5 83.0559C132.652 84.6411 131.984 86.3164 131.509 88.0504C130.647 91.4576 130.162 94.949 130.062 98.4621C129.915 101.702 129.831 104.628 129.729 107.087C129.626 109.546 129.55 111.493 129.492 112.901L129.415 114.483C129.435 114.666 129.446 114.85 129.447 115.034Z" fill="#263238"/>
<path d="M156.885 64.6724C156.949 64.7838 157.001 64.9019 157.039 65.0245C157.129 65.2935 157.257 65.6649 157.404 66.0555L158.729 69.8974C159.28 71.543 159.94 73.496 160.65 75.6603C161.003 76.7681 161.438 77.8951 161.765 79.1437C161.94 79.793 161.969 80.4734 161.848 81.1351C161.785 81.4882 161.652 81.825 161.456 82.1254C161.26 82.4258 161.006 82.6835 160.708 82.8832L160.759 82.6463C161.297 83.4467 161.867 84.2983 162.398 85.2076C163.197 86.4947 163.802 87.893 164.191 89.3569C164.491 90.7356 164.588 92.1506 164.48 93.5574C164.326 96.2147 164.153 98.6031 164.012 100.601C163.871 102.599 163.75 104.2 163.66 105.359C163.615 105.89 163.577 106.319 163.551 106.639C163.544 106.79 163.523 106.94 163.487 107.087C163.472 106.936 163.472 106.784 163.487 106.633C163.487 106.306 163.519 105.871 163.538 105.352C163.596 104.187 163.679 102.567 163.782 100.588C163.884 98.6095 164.031 96.1763 164.185 93.5446C164.274 92.1691 164.172 90.7879 163.884 89.4401C163.495 88.0103 162.9 86.6448 162.117 85.3869C161.592 84.5032 161.028 83.658 160.49 82.8256L160.394 82.6847L160.542 82.595C160.802 82.4201 161.024 82.1943 161.194 81.9313C161.365 81.6683 161.48 81.3735 161.534 81.0647C161.648 80.4481 161.624 79.8138 161.464 79.2077C161.156 78.0039 160.721 76.8449 160.375 75.75C159.671 73.5537 159.037 71.5943 158.499 69.9422C157.961 68.2902 157.57 67.0159 157.276 66.1003C157.141 65.6713 157.039 65.3191 156.956 65.0502C156.923 64.9261 156.899 64.7998 156.885 64.6724Z" fill="#263238"/>
<path d="M131.964 144.239C131.893 144.428 131.794 144.605 131.669 144.764C131.464 145.091 131.157 145.552 130.766 146.115C129.979 147.242 128.845 148.773 127.565 150.425C126.284 152.077 125.042 153.524 124.133 154.548C123.678 155.061 123.3 155.47 123.031 155.746C122.762 156.021 122.609 156.168 122.589 156.156C123.005 155.539 123.46 154.951 123.953 154.395C124.818 153.332 126.009 151.833 127.302 150.22C128.596 148.606 129.742 147.069 130.574 145.974C130.999 145.366 131.463 144.787 131.964 144.239Z" fill="#455A64"/>
<path d="M141.998 135.979C141.998 135.979 141.998 136.101 141.998 136.338C141.998 136.575 141.934 136.939 141.882 137.394C141.78 138.329 141.62 139.693 141.421 141.441C141.005 144.956 140.384 150.047 139.564 156.322C137.944 168.879 135.485 186.2 132.841 205.333C131.522 214.905 130.28 224.024 129.281 232.335C129.018 234.41 128.807 236.439 128.512 238.405C128.218 240.371 127.917 242.247 127.635 244.104L126.085 254.349C125.144 260.612 124.401 265.677 123.915 269.186C123.671 270.934 123.492 272.298 123.383 273.226C123.332 273.687 123.294 274.039 123.281 274.276C123.275 274.366 123.275 274.456 123.281 274.545C123.281 274.622 123.326 274.545 123.326 274.545C123.326 274.545 123.274 274.545 123.281 274.513C123.269 274.424 123.269 274.333 123.281 274.244C123.281 274.007 123.313 273.649 123.358 273.188C123.441 272.259 123.601 270.889 123.825 269.134C124.273 265.619 124.978 260.548 125.887 254.285C126.354 251.148 126.86 247.722 127.398 244.04C127.68 242.196 127.962 240.294 128.256 238.335C128.551 236.375 128.756 234.346 129.018 232.271C130.03 223.947 131.234 214.835 132.546 205.262C135.191 186.123 137.669 168.815 139.372 156.264C140.198 150.002 140.864 144.924 141.332 141.403C141.556 139.654 141.735 138.297 141.857 137.356C141.921 136.907 141.966 136.555 141.998 136.306C142.03 136.056 141.998 135.979 141.998 135.979Z" fill="#455A64"/>
<path d="M156.61 272.041C156.618 271.925 156.633 271.81 156.654 271.696C156.693 271.452 156.744 271.113 156.815 270.671C156.975 269.762 157.199 268.449 157.455 266.759C158.05 263.346 158.915 258.434 159.978 252.371L168.456 204.903C168.702 203.777 168.771 202.619 168.661 201.471C168.513 200.331 168.321 199.179 168.155 198.052C167.809 195.785 167.465 193.555 167.124 191.361C166.432 186.981 165.747 182.755 165.081 178.733C163.743 170.691 162.449 163.462 161.297 157.404C160.144 151.347 159.126 146.461 158.358 143.099C157.993 141.415 157.66 140.115 157.455 139.257C157.359 138.828 157.282 138.489 157.224 138.252C157.167 138.015 157.154 137.906 157.154 137.906C157.194 138.017 157.228 138.131 157.256 138.246L157.525 139.245C157.749 140.122 158.102 141.415 158.486 143.086C159.293 146.435 160.343 151.321 161.527 157.372C162.712 163.423 164.025 170.652 165.369 178.695C166.048 182.716 166.733 186.942 167.431 191.322C167.773 193.521 168.118 195.751 168.468 198.013C168.641 199.153 168.827 200.28 168.981 201.446C169.093 202.63 169.022 203.824 168.769 204.987C165.433 223.498 162.417 240.262 160.227 252.409C159.12 258.466 158.223 263.371 157.602 266.778C157.288 268.468 157.039 269.781 156.872 270.684C156.789 271.119 156.718 271.459 156.674 271.696C156.629 271.933 156.61 272.041 156.61 272.041Z" fill="#455A64"/>
<path d="M149.4 156.155C149.496 156.155 148.362 163.788 146.87 173.175C145.378 182.562 144.104 190.176 144.027 190.176C143.951 190.176 145.071 182.543 146.557 173.156C148.042 163.769 149.31 156.143 149.4 156.155Z" fill="#455A64"/>
<path d="M130.465 274.743C130.257 274.804 130.042 274.841 129.825 274.852C129.422 274.897 128.833 274.955 128.103 275.012C126.649 275.128 124.632 275.237 122.404 275.269C120.175 275.301 118.152 275.269 116.692 275.198C115.962 275.198 115.373 275.134 114.969 275.096C114.753 275.099 114.537 275.069 114.329 275.006C115.115 274.946 115.904 274.933 116.692 274.968C118.152 274.968 120.163 274.968 122.391 274.936C124.619 274.904 126.623 274.833 128.083 274.775C128.876 274.711 129.672 274.701 130.465 274.743Z" fill="#455A64"/>
<path d="M161.444 272.675C161.172 272.688 160.9 272.673 160.631 272.631L158.428 272.4C156.571 272.189 154.01 271.869 151.18 271.504C148.35 271.139 145.788 270.786 143.938 270.518L141.748 270.185C141.477 270.152 141.21 270.099 140.947 270.024C141.221 269.999 141.497 270.009 141.767 270.056C142.286 270.101 143.048 270.178 143.97 270.281C145.827 270.492 148.394 270.806 151.225 271.171C154.055 271.536 156.61 271.894 158.46 272.163L160.65 272.503C160.921 272.529 161.187 272.587 161.444 272.675Z" fill="#455A64"/>
<path d="M134.422 63.3405C134.671 63.4689 134.907 63.6211 135.127 63.7951L137.009 65.0757C138.61 66.1707 140.851 67.637 143.413 69.097C144.373 69.6477 145.334 70.1599 146.179 70.6209L145.948 70.7234C146.486 68.5975 146.96 66.7726 147.306 65.4855C147.472 64.8836 147.613 64.3842 147.728 63.9744C147.769 63.7905 147.832 63.6121 147.914 63.4429C147.91 63.6313 147.882 63.8185 147.831 64C147.741 64.4162 147.632 64.9221 147.504 65.5304C147.203 66.811 146.774 68.668 146.224 70.8002L146.179 70.9923L146 70.9027C145.122 70.4481 144.175 69.9358 143.214 69.3851C141.018 68.1313 138.893 66.7568 136.849 65.2678C136.068 64.6979 135.447 64.2113 135.024 63.8719C134.805 63.7174 134.603 63.5392 134.422 63.3405Z" fill="#263238"/>
<path d="M155.553 68.0533C154.662 68.7669 153.715 69.4092 152.723 69.9743L152.582 70.0639L152.505 69.9102L151.641 68.2262C151 66.9456 150.392 65.7289 149.989 64.8581C149.737 64.4006 149.536 63.9176 149.387 63.4174C149.704 63.8328 149.974 64.2815 150.194 64.7556C150.655 65.5945 151.276 66.7663 151.935 68.0725L152.8 69.795L152.582 69.731C153.531 69.1006 154.524 68.54 155.553 68.0533Z" fill="#263238"/>
<path d="M151.378 67.4257C151.208 67.5935 151.019 67.7417 150.815 67.8675C150.463 68.13 149.963 68.5078 149.406 68.86C148.849 69.2122 148.343 69.5771 147.972 69.8205C147.769 69.9604 147.555 70.0825 147.331 70.1855C147.503 70.0162 147.692 69.866 147.895 69.7372C148.253 69.4811 148.753 69.1289 149.304 68.7511L150.738 67.7906C150.94 67.6507 151.155 67.5286 151.378 67.4257Z" fill="#263238"/>
<path d="M149.457 68.7512C149.001 68.3923 148.572 67.9984 148.177 67.573C147.763 67.1756 147.38 66.7475 147.031 66.2924C147.475 66.6517 147.89 67.0457 148.273 67.4706C148.7 67.8663 149.096 68.2945 149.457 68.7512Z" fill="#263238"/>
<path d="M137.394 125.555C137.583 127.155 138.03 128.714 138.719 130.171C139.501 131.579 140.509 132.849 141.703 133.93C141.264 133.725 140.867 133.44 140.531 133.091C138.792 131.498 137.679 129.336 137.394 126.995C137.308 126.519 137.308 126.031 137.394 125.555Z" fill="#263238"/>
<path d="M141.12 133.994C138.989 133.812 136.992 132.874 135.492 131.35C135.556 131.273 136.657 132.15 138.207 132.874C139.756 133.597 141.14 133.892 141.12 133.994Z" fill="#263238"/>
<path d="M153.632 113.497C153.743 113.714 153.822 113.944 153.869 114.182C154.004 114.631 154.177 115.284 154.369 116.103C154.766 117.723 155.233 119.984 155.604 122.507C155.976 125.029 156.187 127.322 156.283 128.993C156.328 129.825 156.354 130.498 156.354 130.965C156.385 131.205 156.385 131.449 156.354 131.689C156.294 131.454 156.26 131.214 156.251 130.972C156.2 130.434 156.142 129.781 156.072 129.006C155.918 127.354 155.675 125.068 155.303 122.558C154.932 120.048 154.497 117.787 154.164 116.155C154.01 115.393 153.876 114.746 153.767 114.234C153.695 113.994 153.65 113.747 153.632 113.497Z" fill="#263238"/>
<path d="M149.368 73.1951C148.535 79.848 147.921 94.3258 147.69 101.043C147.498 106.652 147.517 112.268 147.536 117.883C147.536 119.695 147.536 121.565 148.311 123.211C149.649 126.175 152.921 127.693 155.925 128.897L149.368 73.1951Z" fill="#E0E0E0"/>
<path d="M156.834 127.936L160.272 119.51L151.673 72.2922L149.163 72.542C149.163 72.542 149.515 121.616 149.4 122.058L156.834 127.936Z" fill="#D79300"/>
<path d="M151.583 72.2922C151.195 72.415 150.792 72.4818 150.386 72.4907C149.986 72.5434 149.581 72.5434 149.182 72.4907C149.578 72.4222 149.978 72.3837 150.379 72.3755C150.778 72.3225 151.181 72.2947 151.583 72.2922Z" fill="#263238"/>
</svg>
