<svg width="53" height="40" viewBox="0 0 53 40" fill="none" xmlns="http://www.w3.org/2000/svg">
<path d="M44.687 18.3006C44.6334 18.3933 44.5453 18.461 44.4417 18.4886L40.0515 19.6595C40.7009 21.4463 42.41 22.6626 44.3387 22.6627C44.3389 22.6627 44.3389 22.6627 44.3391 22.6627C44.7365 22.6627 45.1351 22.6103 45.5236 22.5067C46.7008 22.1918 47.6854 21.4345 48.2955 20.3745C48.9043 19.3169 49.0641 18.0885 48.746 16.9156C48.2142 14.9188 46.4015 13.5254 44.3374 13.5254C44.0734 13.5254 43.809 13.5485 43.5478 13.5943L44.7274 17.9943C44.755 18.0977 44.7406 18.208 44.687 18.3006Z" fill="white"/>
<path d="M34.2327 0.895305C34.2327 0.401645 33.8355 0 33.3471 0C32.8591 0 32.462 0.401645 32.462 0.895305V2.32388H34.2328V0.895305H34.2327Z" fill="white"/>
<path d="M8.76753 11.5023C10.8486 11.5023 12.5416 9.80927 12.5416 7.72822C12.5416 7.53201 12.5264 7.33937 12.4972 7.15116C12.3088 7.17072 12.1214 7.18179 11.937 7.18179C10.9154 7.18179 9.95315 6.91091 9.19218 6.41589C8.48288 6.8419 7.57244 7.09469 6.56716 7.09469C6.05468 7.09469 5.56163 7.02925 5.09553 6.90107C5.03562 7.16739 5.0029 7.44393 5.0029 7.7281C5.00302 9.80939 6.69178 11.5023 8.76753 11.5023Z" fill="white"/>
<path d="M22.1272 18.8224H21.4514V21.1167H22.1272V18.8224Z" fill="white"/>
<path d="M31.8194 14.4027H31.1529V21.1169H31.8194V14.4027Z" fill="white"/>
<path d="M13.8693 36.3824V28.5475V27.3322H3.52036V36.3824H8.29618V31.0675C8.29618 30.8446 8.47676 30.664 8.69967 30.664C8.92257 30.664 9.10316 30.8447 9.10316 31.0675V36.3824H13.8693Z" fill="white"/>
<path d="M24.5498 17.5043H23.8739V21.1169H24.5498V17.5043Z" fill="white"/>
<path d="M6.49596 14.3256L6.35007 15.9221H7.85614H8.15593L6.49596 14.3256Z" fill="white"/>
<path d="M9.16933 18.6674H8.21092L7.46201 24.4804H9.7646L9.16933 18.6674Z" fill="white"/>
<path d="M2.71334 17.9242C2.71334 17.7014 2.89392 17.5207 3.11683 17.5207C3.33973 17.5207 3.52032 17.7014 3.52032 17.9242V26.5251H13.8693V17.9242C13.8693 17.7014 14.05 17.5207 14.2728 17.5207C14.4956 17.5207 14.6763 17.7014 14.6763 17.9242V26.5251H16.7089V26.2502V15.9029L14.5618 15.0629C14.5411 15.0548 14.5214 15.0449 14.5029 15.0337L11.7621 13.9548L11.8845 16.3045C11.8903 16.4149 11.8504 16.5229 11.7743 16.6033C11.698 16.6835 11.5923 16.7289 11.4816 16.7289H9.93716V18.2431L10.613 24.8427C10.6246 24.9564 10.5875 25.0694 10.511 25.1542C10.4345 25.2388 10.3258 25.2873 10.2115 25.2873H7.00312C6.88712 25.2873 6.77678 25.2373 6.70014 25.1502C6.6235 25.0632 6.58807 24.9474 6.60295 24.8323L7.45262 18.238V16.7289H5.90816C5.79487 16.7289 5.68661 16.6811 5.61022 16.5975C5.53371 16.5137 5.49606 16.4015 5.5064 16.2887L5.7229 13.9174L0.680756 15.9022V26.5251H2.71334V17.9242Z" fill="white"/>
<path d="M10.9674 14.2135L9.06253 15.9219H9.53356H11.0564L10.9674 14.2135Z" fill="white"/>
<path d="M29.3958 15.3427H28.7295V21.1169H29.3958V15.3427Z" fill="white"/>
<path d="M26.9733 16.2441H26.2975V21.1168H26.9733V16.2441Z" fill="white"/>
<path d="M9.13007 16.7289H8.25961V17.8604H9.13007V16.7289Z" fill="white"/>
<path d="M9.89142 4.13449C9.53628 4.02377 9.15887 3.96399 8.76768 3.96399C7.26074 3.96399 5.95838 4.85437 5.35745 6.13632C5.73991 6.23682 6.14524 6.28787 6.56743 6.28787C8.35324 6.28787 9.81466 5.33069 9.89142 4.13449Z" fill="white"/>
<path d="M35.1851 34.1534H37.9888L35.1851 29.8817V34.1534Z" fill="white"/>
<path d="M35.5583 28.9796L42.0648 38.8923H43.9691L37.4712 28.9796H35.5583Z" fill="white"/>
<path d="M29.2617 28.9796L22.7639 38.8923H24.6682L31.1745 28.9796H29.2617Z" fill="white"/>
<path d="M34.3781 28.9796H32.3161V38.8923H34.3781V28.9796Z" fill="white"/>
<path d="M14.5536 4.6501H14.7087H51.975H52.1406C52.5594 4.6501 52.9 4.30934 52.9 3.8906C52.9 3.47173 52.5594 3.13098 52.1406 3.13098H34.636H32.0583H14.5536C14.1347 3.13098 13.7939 3.47173 13.7939 3.8906C13.7941 4.30934 14.1348 4.6501 14.5536 4.6501Z" fill="white"/>
<path d="M52.1407 26.6537H51.9751H17.5157V26.9285C17.5157 27.1515 17.3352 27.332 17.1122 27.332H14.6762V28.1727H29.0436H31.9125H31.9219H34.7813H34.8105H37.6888H52.1405C52.5592 28.1727 52.8998 27.832 52.8998 27.4132C52.8998 26.9943 52.5595 26.6537 52.1407 26.6537Z" fill="white"/>
<path d="M31.5092 34.1533V29.9407L28.744 34.1533H31.5092Z" fill="white"/>
<path d="M51.5717 25.8467V5.45691H15.1122V14.4064L17.2602 15.252C17.2729 15.257 17.2848 15.2636 17.2967 15.2698C17.3027 15.2729 17.3092 15.2752 17.315 15.2786C17.3252 15.2846 17.3345 15.2917 17.3439 15.2985C17.3508 15.3034 17.3583 15.3076 17.3648 15.3128C17.3727 15.3192 17.3796 15.3267 17.3871 15.3334C17.3942 15.3402 17.402 15.3463 17.4086 15.3536C17.4145 15.36 17.4193 15.3671 17.4249 15.3739C17.4319 15.3826 17.4395 15.391 17.4458 15.4002C17.4498 15.4063 17.4529 15.4129 17.4566 15.4191C17.4631 15.4298 17.47 15.4403 17.4756 15.4518C17.4786 15.4582 17.4807 15.4651 17.4833 15.4717C17.4883 15.4835 17.4936 15.4951 17.4974 15.5074C17.4993 15.513 17.5 15.5192 17.5015 15.525C17.5051 15.5387 17.5089 15.5523 17.511 15.5663C17.5141 15.5864 17.5157 15.6069 17.5157 15.6276V25.8468H51.5717V25.8467ZM33.2403 22.9802H20.0399C19.817 22.9802 19.6364 22.7995 19.6364 22.5767C19.6364 22.3539 19.8171 22.1733 20.0399 22.1733H33.2404C33.4635 22.1733 33.6439 22.3539 33.6439 22.5767C33.6439 22.7995 33.4633 22.9802 33.2403 22.9802ZM27.9516 12.6479C27.7267 12.6571 27.5423 12.4805 27.5352 12.2577C27.528 12.035 27.7027 11.8487 27.9254 11.8414L29.1271 11.8025C29.1375 11.802 29.1476 11.8041 29.1581 11.8045C29.1706 11.805 29.1833 11.8051 29.1958 11.8068C29.2121 11.8092 29.2276 11.813 29.2432 11.8172C29.2533 11.8197 29.2631 11.8221 29.2731 11.8255C29.288 11.8307 29.3019 11.8372 29.3159 11.8441C29.3266 11.8493 29.3372 11.8543 29.3473 11.8605C29.3598 11.8682 29.3715 11.8768 29.3833 11.8858C29.3901 11.8909 29.3974 11.8945 29.404 11.9002C29.4075 11.9034 29.4102 11.9073 29.4136 11.9107C29.4174 11.914 29.4219 11.9166 29.4256 11.9203C29.4316 11.9264 29.436 11.9337 29.4419 11.9402C29.4513 11.951 29.4604 11.9617 29.4687 11.9733C29.4759 11.9834 29.4818 11.9937 29.488 12.0043C29.4957 12.0171 29.5026 12.0301 29.5085 12.0435C29.5132 12.0543 29.5171 12.0654 29.5211 12.0766C29.5259 12.0908 29.5299 12.1047 29.5331 12.119C29.5357 12.1307 29.5377 12.1424 29.5392 12.1545C29.5414 12.1691 29.5421 12.1836 29.5424 12.1984C29.5425 12.2049 29.5442 12.2113 29.544 12.2179L29.5053 13.478C29.4986 13.6965 29.3193 13.8691 29.1021 13.8691C29.098 13.8691 29.0938 13.8691 29.0894 13.8689C28.8666 13.862 28.6918 13.676 28.6985 13.4533L28.7055 13.2299C25.9796 15.7449 21.4063 17.4131 21.1945 17.4894C21.1493 17.5058 21.1031 17.5134 21.0578 17.5134C20.8924 17.5134 20.7374 17.411 20.6783 17.2467C20.6026 17.0371 20.7113 16.8059 20.9208 16.7303C20.971 16.7122 25.5403 15.0446 28.1528 12.6411L27.9516 12.6479ZM29.7995 14.5357C30.0224 14.5357 30.203 14.7164 30.203 14.9392V21.5204C30.203 21.7433 30.0222 21.9237 29.7995 21.9237H28.326C28.1032 21.9237 27.9226 21.7431 27.9226 21.5204V14.9392C27.9226 14.7164 28.1033 14.5357 28.326 14.5357H29.7995ZM27.7802 15.8406V21.5202C27.7802 21.7431 27.5993 21.9236 27.3767 21.9236H25.894C25.6711 21.9236 25.4905 21.743 25.4905 21.5202V15.8406C25.4905 15.6177 25.6711 15.4371 25.894 15.4371H27.3767C27.5995 15.4373 27.7802 15.6177 27.7802 15.8406ZM25.3566 17.1008V21.5204C25.3566 21.7433 25.1761 21.9237 24.9532 21.9237H23.4705C23.2475 21.9237 23.067 21.7431 23.067 21.5204V17.1008C23.067 16.8779 23.2475 16.6973 23.4705 16.6973H24.9532C25.1761 16.6973 25.3566 16.8779 25.3566 17.1008ZM21.0479 18.0154H22.5306C22.7535 18.0154 22.9341 18.196 22.9341 18.4189V21.5202C22.9341 21.7431 22.7535 21.9236 22.5306 21.9236H21.0479C20.825 21.9236 20.6444 21.743 20.6444 21.5202V18.4189C20.6444 18.196 20.825 18.0154 21.0479 18.0154ZM30.3461 21.5202V13.9991C30.3461 13.7763 30.5266 13.5956 30.7495 13.5956H32.223C32.4456 13.5956 32.6265 13.7763 32.6265 13.9991V21.5202C32.6265 21.7431 32.4455 21.9236 32.223 21.9236H30.7495C30.5266 21.9237 30.3461 21.7431 30.3461 21.5202ZM43.6399 6.78191H49.6982C49.9209 6.78191 50.1015 6.96249 50.1015 7.1854C50.1015 7.40818 49.9208 7.58889 49.6982 7.58889H43.6399C43.4169 7.58889 43.2364 7.40818 43.2364 7.1854C43.2364 6.96249 43.417 6.78191 43.6399 6.78191ZM43.6399 8.10998H49.6982C49.9209 8.10998 50.1015 8.29069 50.1015 8.51347C50.1015 8.73637 49.9208 8.91696 49.6982 8.91696H43.6399C43.4169 8.91696 43.2364 8.73637 43.2364 8.51347C43.2364 8.29056 43.417 8.10998 43.6399 8.10998ZM42.6996 13.0895C42.7532 12.9968 42.8415 12.9292 42.9451 12.9017C43.4011 12.7803 43.8698 12.7185 44.3374 12.7185C46.7667 12.7185 48.9 14.3583 49.5252 16.7062C49.8998 18.0859 49.7114 19.5323 48.9948 20.7771C48.277 22.0245 47.1179 22.9156 45.7317 23.2865C45.2749 23.408 44.8066 23.4695 44.3391 23.4695C44.3389 23.4695 44.3389 23.4695 44.3388 23.4695C41.9093 23.4693 39.776 21.8296 39.1508 19.482C39.0934 19.2667 39.2214 19.0457 39.4367 18.9882L43.8434 17.8129L42.6591 13.3958C42.6314 13.2925 42.6457 13.1823 42.6996 13.0895ZM38.8784 14.5791C39.5038 13.5343 40.4992 12.797 41.6815 12.5029C41.7853 12.477 41.8951 12.4934 41.9869 12.5487C42.0786 12.604 42.1445 12.6933 42.1704 12.7972L43.1689 16.8192C43.2198 17.0246 43.1034 17.2346 42.9022 17.3001L38.9677 18.5796C38.9268 18.5927 38.8848 18.5992 38.8427 18.5992C38.7783 18.5992 38.7141 18.5839 38.6557 18.5534C38.5596 18.503 38.4878 18.4161 38.4565 18.3124L38.4402 18.2597C38.4157 18.1803 38.3905 18.0982 38.3713 18.0038C38.0775 16.8325 38.2574 15.6167 38.8784 14.5791ZM17.4843 10.7908V7.86395C17.4843 7.64104 17.665 7.46046 17.8878 7.46046H33.26C33.4828 7.46046 33.6634 7.64104 33.6634 7.86395V10.7908C33.6634 11.0138 33.4827 11.1943 33.26 11.1943H17.8878C17.665 11.1942 17.4843 11.0138 17.4843 10.7908Z" fill="white"/>
<path d="M32.8564 8.26746H18.2913V10.3875H32.8564V8.26746Z" fill="white"/>
<path d="M42.2952 16.6489L41.4897 13.4042C40.6875 13.6968 40.0154 14.2508 39.5709 14.9937C39.083 15.8086 38.9263 16.7573 39.1244 17.6799L42.2952 16.6489Z" fill="white"/>
<path d="M11.9371 6.37495C12.0509 6.37495 12.1666 6.36954 12.2828 6.36081C11.9702 5.56453 11.3938 4.89988 10.6607 4.474C10.5623 5.00247 10.2887 5.48371 9.88205 5.88535C10.4703 6.20187 11.1807 6.37495 11.9371 6.37495Z" fill="white"/>
<path d="M1.22165 38.3267C1.22165 38.5495 1.40224 38.7301 1.62514 38.7301H15.7654C15.9883 38.7301 16.1689 38.5494 16.1689 38.3267C16.1689 38.1038 15.9881 37.9232 15.7654 37.9232H1.62514C1.40236 37.9231 1.22165 38.1038 1.22165 38.3267Z" fill="white"/>
<path d="M16.987 39.193H0.40349C0.180586 39.193 0 39.3737 0 39.5965C0 39.8193 0.180586 40 0.40349 40H16.9872C17.2101 40 17.3907 39.8193 17.3907 39.5965C17.3907 39.3737 17.21 39.193 16.987 39.193Z" fill="white"/>
</svg>
