<svg width="26" height="28" viewBox="0 0 26 28" fill="none" xmlns="http://www.w3.org/2000/svg">
<g clip-path="url(#clip0_2_447)">
<path d="M25.0383 14.4007H19.0774C19.1793 9.62802 20.4115 9.08624 21.959 8.93161L22.5558 8.85033L22.5558 3.60224L21.8679 3.64274C19.8471 3.76765 17.6128 4.16788 16.1222 6.18947C14.8156 7.96165 14.2395 10.8569 14.2395 15.3014L14.2395 23.5371H25.0383V14.4007Z" fill="#6A6A6A"/>
<path d="M11.2605 23.5371L11.2605 14.4007H5.37911C5.48101 9.62802 6.67335 9.08624 8.22094 8.93161L8.77801 8.85033V3.60224L8.12983 3.64274C6.10896 3.76765 3.85473 4.16788 2.36412 6.18947C1.05759 7.96165 0.461664 10.8569 0.461664 15.3014L0.461664 23.5371H11.2605Z" fill="#6A6A6A"/>
</g>
<defs>
<clipPath id="clip0_2_447">
<rect width="24.5767" height="27" fill="white" transform="translate(25.0383 27.0693) rotate(180)"/>
</clipPath>
</defs>
</svg>
