<svg width="81" height="24" viewBox="0 0 81 24" fill="none" xmlns="http://www.w3.org/2000/svg">
<path fill-rule="evenodd" clip-rule="evenodd" d="M50.2084 18.6127C45.5595 22.0239 38.8211 23.844 33.0195 23.844C24.8848 23.844 17.5614 20.8487 12.021 15.8671C11.5857 15.4753 11.9757 14.9415 12.498 15.2465C18.4772 18.7098 25.8703 20.7933 33.5071 20.7933C38.6575 20.7933 44.3232 19.7324 49.5328 17.5311C50.3199 17.1983 50.978 18.0442 50.2084 18.6127ZM52.3964 16.7236C51.8044 15.9679 48.4684 16.3665 46.9709 16.5433C46.5148 16.5988 46.4451 16.2036 46.856 15.9193C49.5131 14.0577 53.8729 14.5951 54.3814 15.2191C54.8898 15.8465 54.249 20.1973 51.7522 22.2738C51.3691 22.5927 51.0035 22.4229 51.1741 21.9999C51.7348 20.6063 52.9919 17.4828 52.3964 16.7236ZM47.0754 2.77707V0.967449C47.0754 0.693579 47.2844 0.509844 47.5351 0.509844H55.6733C55.9345 0.509844 56.1435 0.697046 56.1435 0.967449V2.51707C56.14 2.77707 55.9206 3.1168 55.5306 3.65414L51.3134 9.64807C52.8805 9.60994 54.5346 9.84221 55.9554 10.6396C56.2758 10.8198 56.3629 11.0833 56.3872 11.3433V13.2742C56.3872 13.5377 56.0947 13.8462 55.7883 13.6868C53.2845 12.3798 49.9588 12.2377 47.1903 13.7006C46.9083 13.8532 46.6123 13.5481 46.6123 13.2846V11.4508C46.6123 11.1561 46.6158 10.6534 46.9118 10.2062L51.7975 3.23121H47.5455C47.2844 3.23121 47.0754 3.04747 47.0754 2.77707ZM17.3884 14.0681H14.9124C14.6756 14.0508 14.4876 13.874 14.4702 13.6487V0.998685C14.4702 0.745616 14.6826 0.544545 14.9473 0.544545H17.2561C17.4963 0.554938 17.6879 0.73868 17.7053 0.967482V2.6211H17.7506C18.353 1.02295 19.4848 0.277609 21.01 0.277609C22.5597 0.277609 23.5278 1.02295 24.2242 2.6211C24.8232 1.02295 26.1848 0.277609 27.6439 0.277609C28.6817 0.277609 29.8169 0.704013 30.5099 1.66082C31.2934 2.7251 31.1332 4.27125 31.1332 5.62673L31.1298 13.6105C31.1298 13.8636 30.9173 14.0681 30.6527 14.0681H28.1802C27.933 14.0508 27.7345 13.8532 27.7345 13.6105V6.90594C27.7345 6.37207 27.7832 5.04086 27.6648 4.53472C27.4803 3.68538 26.9266 3.44617 26.2092 3.44617C25.6102 3.44617 24.9834 3.84484 24.7292 4.48272C24.475 5.12059 24.4994 6.18833 24.4994 6.90594V13.6105C24.4994 13.8636 24.2869 14.0681 24.0223 14.0681H21.5498C21.2991 14.0508 21.1041 13.8532 21.1041 13.6105L21.1006 6.90594C21.1006 5.495 21.3339 3.41844 19.5753 3.41844C17.7958 3.41844 17.8655 5.44299 17.8655 6.90594V13.6105C17.8655 13.8636 17.6531 14.0681 17.3884 14.0681ZM63.1499 0.277609C66.8238 0.277609 68.8122 3.41844 68.8122 7.41208C68.8122 11.2705 66.6149 14.3316 63.1499 14.3316C59.5422 14.3316 57.5782 11.1908 57.5782 7.27688C57.5782 3.33871 59.5666 0.277609 63.1499 0.277609ZM63.1708 2.8603C61.3461 2.8603 61.2312 5.33553 61.2312 6.87821C61.2312 8.42436 61.2068 11.7247 63.1499 11.7247C65.0687 11.7247 65.1593 9.06223 65.1593 7.43981C65.1593 6.37207 65.114 5.09632 64.7901 4.08405C64.5115 3.20351 63.9578 2.8603 63.1708 2.8603ZM73.5761 14.0681H71.1106C70.8633 14.0508 70.6648 13.8532 70.6648 13.6105L70.6614 0.957082C70.6823 0.724813 70.8877 0.544545 71.1384 0.544545H73.4333C73.6492 0.554938 73.8268 0.700547 73.8756 0.898149V2.83257H73.9208C74.6138 1.10268 75.5854 0.277609 77.2952 0.277609C78.4061 0.277609 79.4891 0.67628 80.1856 1.76829C80.8333 2.78057 80.8333 4.48272 80.8333 5.70646V13.6695C80.8055 13.8913 80.6 14.0681 80.3562 14.0681H77.8733C77.647 14.0508 77.4589 13.8844 77.4345 13.6695V6.79847C77.4345 5.41526 77.5947 3.39071 75.8849 3.39071C75.2824 3.39071 74.7288 3.79285 74.4536 4.40298C74.1054 5.17606 74.0601 5.94567 74.0601 6.79847V13.6105C74.0567 13.8636 73.8407 14.0681 73.5761 14.0681ZM40.5878 8.02567C40.5878 8.98594 40.6122 9.78675 40.1246 10.6396C39.7311 11.3329 39.1043 11.7593 38.4113 11.7593C37.4607 11.7593 36.9035 11.0382 36.9035 9.97395C36.9035 7.87313 38.7944 7.49179 40.5878 7.49179V8.02567ZM43.0846 14.0335C42.921 14.1791 42.6842 14.1895 42.4996 14.0924C41.6778 13.4129 41.528 13.0975 41.0788 12.4492C39.7207 13.8289 38.7561 14.2415 36.9975 14.2415C34.9116 14.2415 33.2923 12.9622 33.2923 10.4004C33.2923 8.40007 34.3788 7.03766 35.9319 6.37205C37.2761 5.78271 39.1531 5.67871 40.5878 5.51577V5.19684C40.5878 4.61096 40.6331 3.91762 40.2848 3.41149C39.9854 2.95735 39.4073 2.77014 38.8954 2.77014C37.9517 2.77014 37.1124 3.25202 36.907 4.25043C36.8652 4.4723 36.7015 4.6907 36.4751 4.7011L34.0758 4.44456C33.8738 4.3995 33.6475 4.23656 33.7067 3.92802C34.2569 1.02986 36.8895 0.15625 39.2436 0.15625C40.4485 0.15625 42.0225 0.475187 42.9732 1.38346C44.1781 2.50321 44.0632 3.99736 44.0632 5.62324V9.46435C44.0632 10.6188 44.5437 11.1249 44.9964 11.7489C45.1532 11.9708 45.188 12.2377 44.986 12.4041C44.4811 12.8236 43.5826 13.6036 43.0881 14.0404L43.0846 14.0335ZM8.12883 8.02585C8.12883 8.98613 8.15321 9.78694 7.66568 10.6397C7.27217 11.3331 6.64883 11.7595 5.95236 11.7595C5.00168 11.7595 4.44799 11.0384 4.44799 9.97414C4.44799 7.87332 6.3389 7.49198 8.12883 7.49198V8.02585ZM10.6257 14.0336C10.462 14.1793 10.2252 14.1897 10.0406 14.0926C9.21881 13.4131 9.07255 13.0976 8.61984 12.4494C7.26173 13.8291 6.3006 14.2417 4.53853 14.2417C2.45608 14.2417 0.833313 12.9624 0.833313 10.4005C0.833313 8.40026 1.92329 7.03784 3.47293 6.37224C4.81712 5.7829 6.6941 5.6789 8.12883 5.51596V5.19702C8.12883 4.61115 8.1741 3.91781 7.82935 3.41167C7.52639 2.95753 6.94832 2.77033 6.43989 2.77033C5.49618 2.77033 4.65345 3.2522 4.44799 4.25061C4.4062 4.47248 4.24253 4.69089 4.01966 4.70129L1.61684 4.44475C1.41486 4.39968 1.19199 4.23675 1.24771 3.92821C1.80141 1.03005 4.43058 0.156436 6.78465 0.156436C7.98954 0.156436 9.56356 0.475374 10.5142 1.38365C11.7191 2.50339 11.6042 3.99754 11.6042 5.62343V9.46453C11.6042 10.6189 12.0848 11.1251 12.5375 11.7491C12.6977 11.971 12.7325 12.2379 12.5305 12.4043C12.0256 12.8238 11.1271 13.6038 10.6326 14.0406L10.6257 14.0336Z" fill="#6A6A6A"/>
<path fill-rule="evenodd" clip-rule="evenodd" d="M50.2084 18.6127C45.5595 22.0239 38.8211 23.844 33.0195 23.844C24.8848 23.844 17.5614 20.8487 12.021 15.8671C11.5857 15.4753 11.9757 14.9415 12.498 15.2465C18.4772 18.7098 25.8703 20.7933 33.5071 20.7933C38.6575 20.7933 44.3232 19.7324 49.5328 17.5311C50.3199 17.1983 50.978 18.0442 50.2084 18.6127ZM52.3964 16.7236C51.8044 15.9679 48.4684 16.3665 46.9709 16.5433C46.5148 16.5988 46.4451 16.2036 46.856 15.9193C49.5131 14.0577 53.8729 14.5951 54.3814 15.2191C54.8898 15.8465 54.249 20.1973 51.7522 22.2738C51.3691 22.5927 51.0035 22.4229 51.1741 21.9999C51.7348 20.6063 52.9919 17.4828 52.3964 16.7236ZM47.0754 2.77707V0.967449C47.0754 0.693579 47.2844 0.509844 47.5351 0.509844H55.6733C55.9345 0.509844 56.1435 0.697046 56.1435 0.967449V2.51707C56.14 2.77707 55.9206 3.1168 55.5306 3.65414L51.3134 9.64807C52.8805 9.60994 54.5346 9.84221 55.9554 10.6396C56.2758 10.8198 56.3629 11.0833 56.3872 11.3433V13.2742C56.3872 13.5377 56.0947 13.8462 55.7883 13.6868C53.2845 12.3798 49.9588 12.2377 47.1903 13.7006C46.9083 13.8532 46.6123 13.5481 46.6123 13.2846V11.4508C46.6123 11.1561 46.6158 10.6534 46.9118 10.2062L51.7975 3.23121H47.5455C47.2844 3.23121 47.0754 3.04747 47.0754 2.77707ZM17.3884 14.0681H14.9124C14.6756 14.0508 14.4876 13.874 14.4702 13.6487V0.998685C14.4702 0.745616 14.6826 0.544545 14.9473 0.544545H17.2561C17.4963 0.554938 17.6879 0.73868 17.7053 0.967482V2.6211H17.7506C18.353 1.02295 19.4848 0.277609 21.01 0.277609C22.5597 0.277609 23.5278 1.02295 24.2242 2.6211C24.8232 1.02295 26.1848 0.277609 27.6439 0.277609C28.6817 0.277609 29.8169 0.704013 30.5099 1.66082C31.2934 2.7251 31.1332 4.27125 31.1332 5.62673L31.1298 13.6105C31.1298 13.8636 30.9173 14.0681 30.6527 14.0681H28.1802C27.933 14.0508 27.7345 13.8532 27.7345 13.6105V6.90594C27.7345 6.37207 27.7832 5.04086 27.6648 4.53472C27.4803 3.68538 26.9266 3.44617 26.2092 3.44617C25.6102 3.44617 24.9834 3.84484 24.7292 4.48272C24.475 5.12059 24.4994 6.18833 24.4994 6.90594V13.6105C24.4994 13.8636 24.2869 14.0681 24.0223 14.0681H21.5498C21.2991 14.0508 21.1041 13.8532 21.1041 13.6105L21.1006 6.90594C21.1006 5.495 21.3339 3.41844 19.5753 3.41844C17.7958 3.41844 17.8655 5.44299 17.8655 6.90594V13.6105C17.8655 13.8636 17.6531 14.0681 17.3884 14.0681ZM63.1499 0.277609C66.8238 0.277609 68.8122 3.41844 68.8122 7.41208C68.8122 11.2705 66.6149 14.3316 63.1499 14.3316C59.5422 14.3316 57.5782 11.1908 57.5782 7.27688C57.5782 3.33871 59.5666 0.277609 63.1499 0.277609ZM63.1708 2.8603C61.3461 2.8603 61.2312 5.33553 61.2312 6.87821C61.2312 8.42436 61.2068 11.7247 63.1499 11.7247C65.0687 11.7247 65.1593 9.06223 65.1593 7.43981C65.1593 6.37207 65.114 5.09632 64.7901 4.08405C64.5115 3.20351 63.9578 2.8603 63.1708 2.8603ZM73.5761 14.0681H71.1106C70.8633 14.0508 70.6648 13.8532 70.6648 13.6105L70.6614 0.957082C70.6823 0.724813 70.8877 0.544545 71.1384 0.544545H73.4333C73.6492 0.554938 73.8268 0.700547 73.8756 0.898149V2.83257H73.9208C74.6138 1.10268 75.5854 0.277609 77.2952 0.277609C78.4061 0.277609 79.4891 0.67628 80.1856 1.76829C80.8333 2.78057 80.8333 4.48272 80.8333 5.70646V13.6695C80.8055 13.8913 80.6 14.0681 80.3562 14.0681H77.8733C77.647 14.0508 77.4589 13.8844 77.4345 13.6695V6.79847C77.4345 5.41526 77.5947 3.39071 75.8849 3.39071C75.2824 3.39071 74.7288 3.79285 74.4536 4.40298C74.1054 5.17606 74.0601 5.94567 74.0601 6.79847V13.6105C74.0567 13.8636 73.8407 14.0681 73.5761 14.0681ZM40.5878 8.02567C40.5878 8.98594 40.6122 9.78675 40.1246 10.6396C39.7311 11.3329 39.1043 11.7593 38.4113 11.7593C37.4607 11.7593 36.9035 11.0382 36.9035 9.97395C36.9035 7.87313 38.7944 7.49179 40.5878 7.49179V8.02567ZM43.0846 14.0335C42.921 14.1791 42.6842 14.1895 42.4996 14.0924C41.6778 13.4129 41.528 13.0975 41.0788 12.4492C39.7207 13.8289 38.7561 14.2415 36.9975 14.2415C34.9116 14.2415 33.2923 12.9622 33.2923 10.4004C33.2923 8.40007 34.3788 7.03766 35.9319 6.37205C37.2761 5.78271 39.1531 5.67871 40.5878 5.51577V5.19684C40.5878 4.61096 40.6331 3.91762 40.2848 3.41149C39.9854 2.95735 39.4073 2.77014 38.8954 2.77014C37.9517 2.77014 37.1124 3.25202 36.907 4.25043C36.8652 4.4723 36.7015 4.6907 36.4751 4.7011L34.0758 4.44456C33.8738 4.3995 33.6475 4.23656 33.7067 3.92802C34.2569 1.02986 36.8895 0.15625 39.2436 0.15625C40.4485 0.15625 42.0225 0.475187 42.9732 1.38346C44.1781 2.50321 44.0632 3.99736 44.0632 5.62324V9.46435C44.0632 10.6188 44.5437 11.1249 44.9964 11.7489C45.1532 11.9708 45.188 12.2377 44.986 12.4041C44.4811 12.8236 43.5826 13.6036 43.0881 14.0404L43.0846 14.0335ZM8.12883 8.02585C8.12883 8.98613 8.15321 9.78694 7.66568 10.6397C7.27217 11.3331 6.64883 11.7595 5.95236 11.7595C5.00168 11.7595 4.44799 11.0384 4.44799 9.97414C4.44799 7.87332 6.3389 7.49198 8.12883 7.49198V8.02585ZM10.6257 14.0336C10.462 14.1793 10.2252 14.1897 10.0406 14.0926C9.21881 13.4131 9.07255 13.0976 8.61984 12.4494C7.26173 13.8291 6.3006 14.2417 4.53853 14.2417C2.45608 14.2417 0.833313 12.9624 0.833313 10.4005C0.833313 8.40026 1.92329 7.03784 3.47293 6.37224C4.81712 5.7829 6.6941 5.6789 8.12883 5.51596V5.19702C8.12883 4.61115 8.1741 3.91781 7.82935 3.41167C7.52639 2.95753 6.94832 2.77033 6.43989 2.77033C5.49618 2.77033 4.65345 3.2522 4.44799 4.25061C4.4062 4.47248 4.24253 4.69089 4.01966 4.70129L1.61684 4.44475C1.41486 4.39968 1.19199 4.23675 1.24771 3.92821C1.80141 1.03005 4.43058 0.156436 6.78465 0.156436C7.98954 0.156436 9.56356 0.475374 10.5142 1.38365C11.7191 2.50339 11.6042 3.99754 11.6042 5.62343V9.46453C11.6042 10.6189 12.0848 11.1251 12.5375 11.7491C12.6977 11.971 12.7325 12.2379 12.5305 12.4043C12.0256 12.8238 11.1271 13.6038 10.6326 14.0406L10.6257 14.0336Z" fill="#6A6A6A"/>
<path fill-rule="evenodd" clip-rule="evenodd" d="M50.2084 18.6127C45.5595 22.0239 38.8211 23.844 33.0195 23.844C24.8848 23.844 17.5614 20.8487 12.021 15.8671C11.5857 15.4753 11.9757 14.9415 12.498 15.2465C18.4772 18.7098 25.8703 20.7933 33.5071 20.7933C38.6575 20.7933 44.3232 19.7324 49.5328 17.5311C50.3199 17.1983 50.978 18.0442 50.2084 18.6127ZM52.3964 16.7236C51.8044 15.9679 48.4684 16.3665 46.9709 16.5433C46.5148 16.5988 46.4451 16.2036 46.856 15.9193C49.5131 14.0577 53.8729 14.5951 54.3814 15.2191C54.8898 15.8465 54.249 20.1973 51.7522 22.2738C51.3691 22.5927 51.0035 22.4229 51.1741 21.9999C51.7348 20.6063 52.9919 17.4828 52.3964 16.7236ZM47.0754 2.77707V0.967449C47.0754 0.693579 47.2844 0.509844 47.5351 0.509844H55.6733C55.9345 0.509844 56.1435 0.697046 56.1435 0.967449V2.51707C56.14 2.77707 55.9206 3.1168 55.5306 3.65414L51.3134 9.64807C52.8805 9.60994 54.5346 9.84221 55.9554 10.6396C56.2758 10.8198 56.3629 11.0833 56.3872 11.3433V13.2742C56.3872 13.5377 56.0947 13.8462 55.7883 13.6868C53.2845 12.3798 49.9588 12.2377 47.1903 13.7006C46.9083 13.8532 46.6123 13.5481 46.6123 13.2846V11.4508C46.6123 11.1561 46.6158 10.6534 46.9118 10.2062L51.7975 3.23121H47.5455C47.2844 3.23121 47.0754 3.04747 47.0754 2.77707ZM17.3884 14.0681H14.9124C14.6756 14.0508 14.4876 13.874 14.4702 13.6487V0.998685C14.4702 0.745616 14.6826 0.544545 14.9473 0.544545H17.2561C17.4963 0.554938 17.6879 0.73868 17.7053 0.967482V2.6211H17.7506C18.353 1.02295 19.4848 0.277609 21.01 0.277609C22.5597 0.277609 23.5278 1.02295 24.2242 2.6211C24.8232 1.02295 26.1848 0.277609 27.6439 0.277609C28.6817 0.277609 29.8169 0.704013 30.5099 1.66082C31.2934 2.7251 31.1332 4.27125 31.1332 5.62673L31.1298 13.6105C31.1298 13.8636 30.9173 14.0681 30.6527 14.0681H28.1802C27.933 14.0508 27.7345 13.8532 27.7345 13.6105V6.90594C27.7345 6.37207 27.7832 5.04086 27.6648 4.53472C27.4803 3.68538 26.9266 3.44617 26.2092 3.44617C25.6102 3.44617 24.9834 3.84484 24.7292 4.48272C24.475 5.12059 24.4994 6.18833 24.4994 6.90594V13.6105C24.4994 13.8636 24.2869 14.0681 24.0223 14.0681H21.5498C21.2991 14.0508 21.1041 13.8532 21.1041 13.6105L21.1006 6.90594C21.1006 5.495 21.3339 3.41844 19.5753 3.41844C17.7958 3.41844 17.8655 5.44299 17.8655 6.90594V13.6105C17.8655 13.8636 17.6531 14.0681 17.3884 14.0681ZM63.1499 0.277609C66.8238 0.277609 68.8122 3.41844 68.8122 7.41208C68.8122 11.2705 66.6149 14.3316 63.1499 14.3316C59.5422 14.3316 57.5782 11.1908 57.5782 7.27688C57.5782 3.33871 59.5666 0.277609 63.1499 0.277609ZM63.1708 2.8603C61.3461 2.8603 61.2312 5.33553 61.2312 6.87821C61.2312 8.42436 61.2068 11.7247 63.1499 11.7247C65.0687 11.7247 65.1593 9.06223 65.1593 7.43981C65.1593 6.37207 65.114 5.09632 64.7901 4.08405C64.5115 3.20351 63.9578 2.8603 63.1708 2.8603ZM73.5761 14.0681H71.1106C70.8633 14.0508 70.6648 13.8532 70.6648 13.6105L70.6614 0.957082C70.6823 0.724813 70.8877 0.544545 71.1384 0.544545H73.4333C73.6492 0.554938 73.8268 0.700547 73.8756 0.898149V2.83257H73.9208C74.6138 1.10268 75.5854 0.277609 77.2952 0.277609C78.4061 0.277609 79.4891 0.67628 80.1856 1.76829C80.8333 2.78057 80.8333 4.48272 80.8333 5.70646V13.6695C80.8055 13.8913 80.6 14.0681 80.3562 14.0681H77.8733C77.647 14.0508 77.4589 13.8844 77.4345 13.6695V6.79847C77.4345 5.41526 77.5947 3.39071 75.8849 3.39071C75.2824 3.39071 74.7288 3.79285 74.4536 4.40298C74.1054 5.17606 74.0601 5.94567 74.0601 6.79847V13.6105C74.0567 13.8636 73.8407 14.0681 73.5761 14.0681ZM40.5878 8.02567C40.5878 8.98594 40.6122 9.78675 40.1246 10.6396C39.7311 11.3329 39.1043 11.7593 38.4113 11.7593C37.4607 11.7593 36.9035 11.0382 36.9035 9.97395C36.9035 7.87313 38.7944 7.49179 40.5878 7.49179V8.02567ZM43.0846 14.0335C42.921 14.1791 42.6842 14.1895 42.4996 14.0924C41.6778 13.4129 41.528 13.0975 41.0788 12.4492C39.7207 13.8289 38.7561 14.2415 36.9975 14.2415C34.9116 14.2415 33.2923 12.9622 33.2923 10.4004C33.2923 8.40007 34.3788 7.03766 35.9319 6.37205C37.2761 5.78271 39.1531 5.67871 40.5878 5.51577V5.19684C40.5878 4.61096 40.6331 3.91762 40.2848 3.41149C39.9854 2.95735 39.4073 2.77014 38.8954 2.77014C37.9517 2.77014 37.1124 3.25202 36.907 4.25043C36.8652 4.4723 36.7015 4.6907 36.4751 4.7011L34.0758 4.44456C33.8738 4.3995 33.6475 4.23656 33.7067 3.92802C34.2569 1.02986 36.8895 0.15625 39.2436 0.15625C40.4485 0.15625 42.0225 0.475187 42.9732 1.38346C44.1781 2.50321 44.0632 3.99736 44.0632 5.62324V9.46435C44.0632 10.6188 44.5437 11.1249 44.9964 11.7489C45.1532 11.9708 45.188 12.2377 44.986 12.4041C44.4811 12.8236 43.5826 13.6036 43.0881 14.0404L43.0846 14.0335ZM8.12883 8.02585C8.12883 8.98613 8.15321 9.78694 7.66568 10.6397C7.27217 11.3331 6.64883 11.7595 5.95236 11.7595C5.00168 11.7595 4.44799 11.0384 4.44799 9.97414C4.44799 7.87332 6.3389 7.49198 8.12883 7.49198V8.02585ZM10.6257 14.0336C10.462 14.1793 10.2252 14.1897 10.0406 14.0926C9.21881 13.4131 9.07255 13.0976 8.61984 12.4494C7.26173 13.8291 6.3006 14.2417 4.53853 14.2417C2.45608 14.2417 0.833313 12.9624 0.833313 10.4005C0.833313 8.40026 1.92329 7.03784 3.47293 6.37224C4.81712 5.7829 6.6941 5.6789 8.12883 5.51596V5.19702C8.12883 4.61115 8.1741 3.91781 7.82935 3.41167C7.52639 2.95753 6.94832 2.77033 6.43989 2.77033C5.49618 2.77033 4.65345 3.2522 4.44799 4.25061C4.4062 4.47248 4.24253 4.69089 4.01966 4.70129L1.61684 4.44475C1.41486 4.39968 1.19199 4.23675 1.24771 3.92821C1.80141 1.03005 4.43058 0.156436 6.78465 0.156436C7.98954 0.156436 9.56356 0.475374 10.5142 1.38365C11.7191 2.50339 11.6042 3.99754 11.6042 5.62343V9.46453C11.6042 10.6189 12.0848 11.1251 12.5375 11.7491C12.6977 11.971 12.7325 12.2379 12.5305 12.4043C12.0256 12.8238 11.1271 13.6038 10.6326 14.0406L10.6257 14.0336Z" fill="#6A6A6A"/>
<path fill-rule="evenodd" clip-rule="evenodd" d="M50.2084 18.6127C45.5595 22.0239 38.8211 23.844 33.0195 23.844C24.8848 23.844 17.5614 20.8487 12.021 15.8671C11.5857 15.4753 11.9757 14.9415 12.498 15.2465C18.4772 18.7098 25.8703 20.7933 33.5071 20.7933C38.6575 20.7933 44.3232 19.7324 49.5328 17.5311C50.3199 17.1983 50.978 18.0442 50.2084 18.6127ZM52.3964 16.7236C51.8044 15.9679 48.4684 16.3665 46.9709 16.5433C46.5148 16.5988 46.4451 16.2036 46.856 15.9193C49.5131 14.0577 53.8729 14.5951 54.3814 15.2191C54.8898 15.8465 54.249 20.1973 51.7522 22.2738C51.3691 22.5927 51.0035 22.4229 51.1741 21.9999C51.7348 20.6063 52.9919 17.4828 52.3964 16.7236ZM47.0754 2.77707V0.967449C47.0754 0.693579 47.2844 0.509844 47.5351 0.509844H55.6733C55.9345 0.509844 56.1435 0.697046 56.1435 0.967449V2.51707C56.14 2.77707 55.9206 3.1168 55.5306 3.65414L51.3134 9.64807C52.8805 9.60994 54.5346 9.84221 55.9554 10.6396C56.2758 10.8198 56.3629 11.0833 56.3872 11.3433V13.2742C56.3872 13.5377 56.0947 13.8462 55.7883 13.6868C53.2845 12.3798 49.9588 12.2377 47.1903 13.7006C46.9083 13.8532 46.6123 13.5481 46.6123 13.2846V11.4508C46.6123 11.1561 46.6158 10.6534 46.9118 10.2062L51.7975 3.23121H47.5455C47.2844 3.23121 47.0754 3.04747 47.0754 2.77707ZM17.3884 14.0681H14.9124C14.6756 14.0508 14.4876 13.874 14.4702 13.6487V0.998685C14.4702 0.745616 14.6826 0.544545 14.9473 0.544545H17.2561C17.4963 0.554938 17.6879 0.73868 17.7053 0.967482V2.6211H17.7506C18.353 1.02295 19.4848 0.277609 21.01 0.277609C22.5597 0.277609 23.5278 1.02295 24.2242 2.6211C24.8232 1.02295 26.1848 0.277609 27.6439 0.277609C28.6817 0.277609 29.8169 0.704013 30.5099 1.66082C31.2934 2.7251 31.1332 4.27125 31.1332 5.62673L31.1298 13.6105C31.1298 13.8636 30.9173 14.0681 30.6527 14.0681H28.1802C27.933 14.0508 27.7345 13.8532 27.7345 13.6105V6.90594C27.7345 6.37207 27.7832 5.04086 27.6648 4.53472C27.4803 3.68538 26.9266 3.44617 26.2092 3.44617C25.6102 3.44617 24.9834 3.84484 24.7292 4.48272C24.475 5.12059 24.4994 6.18833 24.4994 6.90594V13.6105C24.4994 13.8636 24.2869 14.0681 24.0223 14.0681H21.5498C21.2991 14.0508 21.1041 13.8532 21.1041 13.6105L21.1006 6.90594C21.1006 5.495 21.3339 3.41844 19.5753 3.41844C17.7958 3.41844 17.8655 5.44299 17.8655 6.90594V13.6105C17.8655 13.8636 17.6531 14.0681 17.3884 14.0681ZM63.1499 0.277609C66.8238 0.277609 68.8122 3.41844 68.8122 7.41208C68.8122 11.2705 66.6149 14.3316 63.1499 14.3316C59.5422 14.3316 57.5782 11.1908 57.5782 7.27688C57.5782 3.33871 59.5666 0.277609 63.1499 0.277609ZM63.1708 2.8603C61.3461 2.8603 61.2312 5.33553 61.2312 6.87821C61.2312 8.42436 61.2068 11.7247 63.1499 11.7247C65.0687 11.7247 65.1593 9.06223 65.1593 7.43981C65.1593 6.37207 65.114 5.09632 64.7901 4.08405C64.5115 3.20351 63.9578 2.8603 63.1708 2.8603ZM73.5761 14.0681H71.1106C70.8633 14.0508 70.6648 13.8532 70.6648 13.6105L70.6614 0.957082C70.6823 0.724813 70.8877 0.544545 71.1384 0.544545H73.4333C73.6492 0.554938 73.8268 0.700547 73.8756 0.898149V2.83257H73.9208C74.6138 1.10268 75.5854 0.277609 77.2952 0.277609C78.4061 0.277609 79.4891 0.67628 80.1856 1.76829C80.8333 2.78057 80.8333 4.48272 80.8333 5.70646V13.6695C80.8055 13.8913 80.6 14.0681 80.3562 14.0681H77.8733C77.647 14.0508 77.4589 13.8844 77.4345 13.6695V6.79847C77.4345 5.41526 77.5947 3.39071 75.8849 3.39071C75.2824 3.39071 74.7288 3.79285 74.4536 4.40298C74.1054 5.17606 74.0601 5.94567 74.0601 6.79847V13.6105C74.0567 13.8636 73.8407 14.0681 73.5761 14.0681ZM40.5878 8.02567C40.5878 8.98594 40.6122 9.78675 40.1246 10.6396C39.7311 11.3329 39.1043 11.7593 38.4113 11.7593C37.4607 11.7593 36.9035 11.0382 36.9035 9.97395C36.9035 7.87313 38.7944 7.49179 40.5878 7.49179V8.02567ZM43.0846 14.0335C42.921 14.1791 42.6842 14.1895 42.4996 14.0924C41.6778 13.4129 41.528 13.0975 41.0788 12.4492C39.7207 13.8289 38.7561 14.2415 36.9975 14.2415C34.9116 14.2415 33.2923 12.9622 33.2923 10.4004C33.2923 8.40007 34.3788 7.03766 35.9319 6.37205C37.2761 5.78271 39.1531 5.67871 40.5878 5.51577V5.19684C40.5878 4.61096 40.6331 3.91762 40.2848 3.41149C39.9854 2.95735 39.4073 2.77014 38.8954 2.77014C37.9517 2.77014 37.1124 3.25202 36.907 4.25043C36.8652 4.4723 36.7015 4.6907 36.4751 4.7011L34.0758 4.44456C33.8738 4.3995 33.6475 4.23656 33.7067 3.92802C34.2569 1.02986 36.8895 0.15625 39.2436 0.15625C40.4485 0.15625 42.0225 0.475187 42.9732 1.38346C44.1781 2.50321 44.0632 3.99736 44.0632 5.62324V9.46435C44.0632 10.6188 44.5437 11.1249 44.9964 11.7489C45.1532 11.9708 45.188 12.2377 44.986 12.4041C44.4811 12.8236 43.5826 13.6036 43.0881 14.0404L43.0846 14.0335ZM8.12883 8.02585C8.12883 8.98613 8.15321 9.78694 7.66568 10.6397C7.27217 11.3331 6.64883 11.7595 5.95236 11.7595C5.00168 11.7595 4.44799 11.0384 4.44799 9.97414C4.44799 7.87332 6.3389 7.49198 8.12883 7.49198V8.02585ZM10.6257 14.0336C10.462 14.1793 10.2252 14.1897 10.0406 14.0926C9.21881 13.4131 9.07255 13.0976 8.61984 12.4494C7.26173 13.8291 6.3006 14.2417 4.53853 14.2417C2.45608 14.2417 0.833313 12.9624 0.833313 10.4005C0.833313 8.40026 1.92329 7.03784 3.47293 6.37224C4.81712 5.7829 6.6941 5.6789 8.12883 5.51596V5.19702C8.12883 4.61115 8.1741 3.91781 7.82935 3.41167C7.52639 2.95753 6.94832 2.77033 6.43989 2.77033C5.49618 2.77033 4.65345 3.2522 4.44799 4.25061C4.4062 4.47248 4.24253 4.69089 4.01966 4.70129L1.61684 4.44475C1.41486 4.39968 1.19199 4.23675 1.24771 3.92821C1.80141 1.03005 4.43058 0.156436 6.78465 0.156436C7.98954 0.156436 9.56356 0.475374 10.5142 1.38365C11.7191 2.50339 11.6042 3.99754 11.6042 5.62343V9.46453C11.6042 10.6189 12.0848 11.1251 12.5375 11.7491C12.6977 11.971 12.7325 12.2379 12.5305 12.4043C12.0256 12.8238 11.1271 13.6038 10.6326 14.0406L10.6257 14.0336Z" fill="#6A6A6A"/>
<path fill-rule="evenodd" clip-rule="evenodd" d="M50.2084 18.6127C45.5595 22.0239 38.8211 23.844 33.0195 23.844C24.8848 23.844 17.5614 20.8487 12.021 15.8671C11.5857 15.4753 11.9757 14.9415 12.498 15.2465C18.4772 18.7098 25.8703 20.7933 33.5071 20.7933C38.6575 20.7933 44.3232 19.7324 49.5328 17.5311C50.3199 17.1983 50.978 18.0442 50.2084 18.6127ZM52.3964 16.7236C51.8044 15.9679 48.4684 16.3665 46.9709 16.5433C46.5148 16.5988 46.4451 16.2036 46.856 15.9193C49.5131 14.0577 53.8729 14.5951 54.3814 15.2191C54.8898 15.8465 54.249 20.1973 51.7522 22.2738C51.3691 22.5927 51.0035 22.4229 51.1741 21.9999C51.7348 20.6063 52.9919 17.4828 52.3964 16.7236ZM47.0754 2.77707V0.967449C47.0754 0.693579 47.2844 0.509844 47.5351 0.509844H55.6733C55.9345 0.509844 56.1435 0.697046 56.1435 0.967449V2.51707C56.14 2.77707 55.9206 3.1168 55.5306 3.65414L51.3134 9.64807C52.8805 9.60994 54.5346 9.84221 55.9554 10.6396C56.2758 10.8198 56.3629 11.0833 56.3872 11.3433V13.2742C56.3872 13.5377 56.0947 13.8462 55.7883 13.6868C53.2845 12.3798 49.9588 12.2377 47.1903 13.7006C46.9083 13.8532 46.6123 13.5481 46.6123 13.2846V11.4508C46.6123 11.1561 46.6158 10.6534 46.9118 10.2062L51.7975 3.23121H47.5455C47.2844 3.23121 47.0754 3.04747 47.0754 2.77707ZM17.3884 14.0681H14.9124C14.6756 14.0508 14.4876 13.874 14.4702 13.6487V0.998685C14.4702 0.745616 14.6826 0.544545 14.9473 0.544545H17.2561C17.4963 0.554938 17.6879 0.73868 17.7053 0.967482V2.6211H17.7506C18.353 1.02295 19.4848 0.277609 21.01 0.277609C22.5597 0.277609 23.5278 1.02295 24.2242 2.6211C24.8232 1.02295 26.1848 0.277609 27.6439 0.277609C28.6817 0.277609 29.8169 0.704013 30.5099 1.66082C31.2934 2.7251 31.1332 4.27125 31.1332 5.62673L31.1298 13.6105C31.1298 13.8636 30.9173 14.0681 30.6527 14.0681H28.1802C27.933 14.0508 27.7345 13.8532 27.7345 13.6105V6.90594C27.7345 6.37207 27.7832 5.04086 27.6648 4.53472C27.4803 3.68538 26.9266 3.44617 26.2092 3.44617C25.6102 3.44617 24.9834 3.84484 24.7292 4.48272C24.475 5.12059 24.4994 6.18833 24.4994 6.90594V13.6105C24.4994 13.8636 24.2869 14.0681 24.0223 14.0681H21.5498C21.2991 14.0508 21.1041 13.8532 21.1041 13.6105L21.1006 6.90594C21.1006 5.495 21.3339 3.41844 19.5753 3.41844C17.7958 3.41844 17.8655 5.44299 17.8655 6.90594V13.6105C17.8655 13.8636 17.6531 14.0681 17.3884 14.0681ZM63.1499 0.277609C66.8238 0.277609 68.8122 3.41844 68.8122 7.41208C68.8122 11.2705 66.6149 14.3316 63.1499 14.3316C59.5422 14.3316 57.5782 11.1908 57.5782 7.27688C57.5782 3.33871 59.5666 0.277609 63.1499 0.277609ZM63.1708 2.8603C61.3461 2.8603 61.2312 5.33553 61.2312 6.87821C61.2312 8.42436 61.2068 11.7247 63.1499 11.7247C65.0687 11.7247 65.1593 9.06223 65.1593 7.43981C65.1593 6.37207 65.114 5.09632 64.7901 4.08405C64.5115 3.20351 63.9578 2.8603 63.1708 2.8603ZM73.5761 14.0681H71.1106C70.8633 14.0508 70.6648 13.8532 70.6648 13.6105L70.6614 0.957082C70.6823 0.724813 70.8877 0.544545 71.1384 0.544545H73.4333C73.6492 0.554938 73.8268 0.700547 73.8756 0.898149V2.83257H73.9208C74.6138 1.10268 75.5854 0.277609 77.2952 0.277609C78.4061 0.277609 79.4891 0.67628 80.1856 1.76829C80.8333 2.78057 80.8333 4.48272 80.8333 5.70646V13.6695C80.8055 13.8913 80.6 14.0681 80.3562 14.0681H77.8733C77.647 14.0508 77.4589 13.8844 77.4345 13.6695V6.79847C77.4345 5.41526 77.5947 3.39071 75.8849 3.39071C75.2824 3.39071 74.7288 3.79285 74.4536 4.40298C74.1054 5.17606 74.0601 5.94567 74.0601 6.79847V13.6105C74.0567 13.8636 73.8407 14.0681 73.5761 14.0681ZM40.5878 8.02567C40.5878 8.98594 40.6122 9.78675 40.1246 10.6396C39.7311 11.3329 39.1043 11.7593 38.4113 11.7593C37.4607 11.7593 36.9035 11.0382 36.9035 9.97395C36.9035 7.87313 38.7944 7.49179 40.5878 7.49179V8.02567ZM43.0846 14.0335C42.921 14.1791 42.6842 14.1895 42.4996 14.0924C41.6778 13.4129 41.528 13.0975 41.0788 12.4492C39.7207 13.8289 38.7561 14.2415 36.9975 14.2415C34.9116 14.2415 33.2923 12.9622 33.2923 10.4004C33.2923 8.40007 34.3788 7.03766 35.9319 6.37205C37.2761 5.78271 39.1531 5.67871 40.5878 5.51577V5.19684C40.5878 4.61096 40.6331 3.91762 40.2848 3.41149C39.9854 2.95735 39.4073 2.77014 38.8954 2.77014C37.9517 2.77014 37.1124 3.25202 36.907 4.25043C36.8652 4.4723 36.7015 4.6907 36.4751 4.7011L34.0758 4.44456C33.8738 4.3995 33.6475 4.23656 33.7067 3.92802C34.2569 1.02986 36.8895 0.15625 39.2436 0.15625C40.4485 0.15625 42.0225 0.475187 42.9732 1.38346C44.1781 2.50321 44.0632 3.99736 44.0632 5.62324V9.46435C44.0632 10.6188 44.5437 11.1249 44.9964 11.7489C45.1532 11.9708 45.188 12.2377 44.986 12.4041C44.4811 12.8236 43.5826 13.6036 43.0881 14.0404L43.0846 14.0335ZM8.12883 8.02585C8.12883 8.98613 8.15321 9.78694 7.66568 10.6397C7.27217 11.3331 6.64883 11.7595 5.95236 11.7595C5.00168 11.7595 4.44799 11.0384 4.44799 9.97414C4.44799 7.87332 6.3389 7.49198 8.12883 7.49198V8.02585ZM10.6257 14.0336C10.462 14.1793 10.2252 14.1897 10.0406 14.0926C9.21881 13.4131 9.07255 13.0976 8.61984 12.4494C7.26173 13.8291 6.3006 14.2417 4.53853 14.2417C2.45608 14.2417 0.833313 12.9624 0.833313 10.4005C0.833313 8.40026 1.92329 7.03784 3.47293 6.37224C4.81712 5.7829 6.6941 5.6789 8.12883 5.51596V5.19702C8.12883 4.61115 8.1741 3.91781 7.82935 3.41167C7.52639 2.95753 6.94832 2.77033 6.43989 2.77033C5.49618 2.77033 4.65345 3.2522 4.44799 4.25061C4.4062 4.47248 4.24253 4.69089 4.01966 4.70129L1.61684 4.44475C1.41486 4.39968 1.19199 4.23675 1.24771 3.92821C1.80141 1.03005 4.43058 0.156436 6.78465 0.156436C7.98954 0.156436 9.56356 0.475374 10.5142 1.38365C11.7191 2.50339 11.6042 3.99754 11.6042 5.62343V9.46453C11.6042 10.6189 12.0848 11.1251 12.5375 11.7491C12.6977 11.971 12.7325 12.2379 12.5305 12.4043C12.0256 12.8238 11.1271 13.6038 10.6326 14.0406L10.6257 14.0336Z" fill="#6A6A6A"/>
<path fill-rule="evenodd" clip-rule="evenodd" d="M50.2084 18.6127C45.5595 22.0239 38.8211 23.844 33.0195 23.844C24.8848 23.844 17.5614 20.8487 12.021 15.8671C11.5857 15.4753 11.9757 14.9415 12.498 15.2465C18.4772 18.7098 25.8703 20.7933 33.5071 20.7933C38.6575 20.7933 44.3232 19.7324 49.5328 17.5311C50.3199 17.1983 50.978 18.0442 50.2084 18.6127ZM52.3964 16.7236C51.8044 15.9679 48.4684 16.3665 46.9709 16.5433C46.5148 16.5988 46.4451 16.2036 46.856 15.9193C49.5131 14.0577 53.8729 14.5951 54.3814 15.2191C54.8898 15.8465 54.249 20.1973 51.7522 22.2738C51.3691 22.5927 51.0035 22.4229 51.1741 21.9999C51.7348 20.6063 52.9919 17.4828 52.3964 16.7236ZM47.0754 2.77707V0.967449C47.0754 0.693579 47.2844 0.509844 47.5351 0.509844H55.6733C55.9345 0.509844 56.1435 0.697046 56.1435 0.967449V2.51707C56.14 2.77707 55.9206 3.1168 55.5306 3.65414L51.3134 9.64807C52.8805 9.60994 54.5346 9.84221 55.9554 10.6396C56.2758 10.8198 56.3629 11.0833 56.3872 11.3433V13.2742C56.3872 13.5377 56.0947 13.8462 55.7883 13.6868C53.2845 12.3798 49.9588 12.2377 47.1903 13.7006C46.9083 13.8532 46.6123 13.5481 46.6123 13.2846V11.4508C46.6123 11.1561 46.6158 10.6534 46.9118 10.2062L51.7975 3.23121H47.5455C47.2844 3.23121 47.0754 3.04747 47.0754 2.77707ZM17.3884 14.0681H14.9124C14.6756 14.0508 14.4876 13.874 14.4702 13.6487V0.998685C14.4702 0.745616 14.6826 0.544545 14.9473 0.544545H17.2561C17.4963 0.554938 17.6879 0.73868 17.7053 0.967482V2.6211H17.7506C18.353 1.02295 19.4848 0.277609 21.01 0.277609C22.5597 0.277609 23.5278 1.02295 24.2242 2.6211C24.8232 1.02295 26.1848 0.277609 27.6439 0.277609C28.6817 0.277609 29.8169 0.704013 30.5099 1.66082C31.2934 2.7251 31.1332 4.27125 31.1332 5.62673L31.1298 13.6105C31.1298 13.8636 30.9173 14.0681 30.6527 14.0681H28.1802C27.933 14.0508 27.7345 13.8532 27.7345 13.6105V6.90594C27.7345 6.37207 27.7832 5.04086 27.6648 4.53472C27.4803 3.68538 26.9266 3.44617 26.2092 3.44617C25.6102 3.44617 24.9834 3.84484 24.7292 4.48272C24.475 5.12059 24.4994 6.18833 24.4994 6.90594V13.6105C24.4994 13.8636 24.2869 14.0681 24.0223 14.0681H21.5498C21.2991 14.0508 21.1041 13.8532 21.1041 13.6105L21.1006 6.90594C21.1006 5.495 21.3339 3.41844 19.5753 3.41844C17.7958 3.41844 17.8655 5.44299 17.8655 6.90594V13.6105C17.8655 13.8636 17.6531 14.0681 17.3884 14.0681ZM63.1499 0.277609C66.8238 0.277609 68.8122 3.41844 68.8122 7.41208C68.8122 11.2705 66.6149 14.3316 63.1499 14.3316C59.5422 14.3316 57.5782 11.1908 57.5782 7.27688C57.5782 3.33871 59.5666 0.277609 63.1499 0.277609ZM63.1708 2.8603C61.3461 2.8603 61.2312 5.33553 61.2312 6.87821C61.2312 8.42436 61.2068 11.7247 63.1499 11.7247C65.0687 11.7247 65.1593 9.06223 65.1593 7.43981C65.1593 6.37207 65.114 5.09632 64.7901 4.08405C64.5115 3.20351 63.9578 2.8603 63.1708 2.8603ZM73.5761 14.0681H71.1106C70.8633 14.0508 70.6648 13.8532 70.6648 13.6105L70.6614 0.957082C70.6823 0.724813 70.8877 0.544545 71.1384 0.544545H73.4333C73.6492 0.554938 73.8268 0.700547 73.8756 0.898149V2.83257H73.9208C74.6138 1.10268 75.5854 0.277609 77.2952 0.277609C78.4061 0.277609 79.4891 0.67628 80.1856 1.76829C80.8333 2.78057 80.8333 4.48272 80.8333 5.70646V13.6695C80.8055 13.8913 80.6 14.0681 80.3562 14.0681H77.8733C77.647 14.0508 77.4589 13.8844 77.4345 13.6695V6.79847C77.4345 5.41526 77.5947 3.39071 75.8849 3.39071C75.2824 3.39071 74.7288 3.79285 74.4536 4.40298C74.1054 5.17606 74.0601 5.94567 74.0601 6.79847V13.6105C74.0567 13.8636 73.8407 14.0681 73.5761 14.0681ZM40.5878 8.02567C40.5878 8.98594 40.6122 9.78675 40.1246 10.6396C39.7311 11.3329 39.1043 11.7593 38.4113 11.7593C37.4607 11.7593 36.9035 11.0382 36.9035 9.97395C36.9035 7.87313 38.7944 7.49179 40.5878 7.49179V8.02567ZM43.0846 14.0335C42.921 14.1791 42.6842 14.1895 42.4996 14.0924C41.6778 13.4129 41.528 13.0975 41.0788 12.4492C39.7207 13.8289 38.7561 14.2415 36.9975 14.2415C34.9116 14.2415 33.2923 12.9622 33.2923 10.4004C33.2923 8.40007 34.3788 7.03766 35.9319 6.37205C37.2761 5.78271 39.1531 5.67871 40.5878 5.51577V5.19684C40.5878 4.61096 40.6331 3.91762 40.2848 3.41149C39.9854 2.95735 39.4073 2.77014 38.8954 2.77014C37.9517 2.77014 37.1124 3.25202 36.907 4.25043C36.8652 4.4723 36.7015 4.6907 36.4751 4.7011L34.0758 4.44456C33.8738 4.3995 33.6475 4.23656 33.7067 3.92802C34.2569 1.02986 36.8895 0.15625 39.2436 0.15625C40.4485 0.15625 42.0225 0.475187 42.9732 1.38346C44.1781 2.50321 44.0632 3.99736 44.0632 5.62324V9.46435C44.0632 10.6188 44.5437 11.1249 44.9964 11.7489C45.1532 11.9708 45.188 12.2377 44.986 12.4041C44.4811 12.8236 43.5826 13.6036 43.0881 14.0404L43.0846 14.0335ZM8.12883 8.02585C8.12883 8.98613 8.15321 9.78694 7.66568 10.6397C7.27217 11.3331 6.64883 11.7595 5.95236 11.7595C5.00168 11.7595 4.44799 11.0384 4.44799 9.97414C4.44799 7.87332 6.3389 7.49198 8.12883 7.49198V8.02585ZM10.6257 14.0336C10.462 14.1793 10.2252 14.1897 10.0406 14.0926C9.21881 13.4131 9.07255 13.0976 8.61984 12.4494C7.26173 13.8291 6.3006 14.2417 4.53853 14.2417C2.45608 14.2417 0.833313 12.9624 0.833313 10.4005C0.833313 8.40026 1.92329 7.03784 3.47293 6.37224C4.81712 5.7829 6.6941 5.6789 8.12883 5.51596V5.19702C8.12883 4.61115 8.1741 3.91781 7.82935 3.41167C7.52639 2.95753 6.94832 2.77033 6.43989 2.77033C5.49618 2.77033 4.65345 3.2522 4.44799 4.25061C4.4062 4.47248 4.24253 4.69089 4.01966 4.70129L1.61684 4.44475C1.41486 4.39968 1.19199 4.23675 1.24771 3.92821C1.80141 1.03005 4.43058 0.156436 6.78465 0.156436C7.98954 0.156436 9.56356 0.475374 10.5142 1.38365C11.7191 2.50339 11.6042 3.99754 11.6042 5.62343V9.46453C11.6042 10.6189 12.0848 11.1251 12.5375 11.7491C12.6977 11.971 12.7325 12.2379 12.5305 12.4043C12.0256 12.8238 11.1271 13.6038 10.6326 14.0406L10.6257 14.0336Z" fill="#6A6A6A"/>
<path fill-rule="evenodd" clip-rule="evenodd" d="M50.2084 18.6127C45.5595 22.0239 38.8211 23.844 33.0195 23.844C24.8848 23.844 17.5614 20.8487 12.021 15.8671C11.5857 15.4753 11.9757 14.9415 12.498 15.2465C18.4772 18.7098 25.8703 20.7933 33.5071 20.7933C38.6575 20.7933 44.3232 19.7324 49.5328 17.5311C50.3199 17.1983 50.978 18.0442 50.2084 18.6127ZM52.3964 16.7236C51.8044 15.9679 48.4684 16.3665 46.9709 16.5433C46.5148 16.5988 46.4451 16.2036 46.856 15.9193C49.5131 14.0577 53.8729 14.5951 54.3814 15.2191C54.8898 15.8465 54.249 20.1973 51.7522 22.2738C51.3691 22.5927 51.0035 22.4229 51.1741 21.9999C51.7348 20.6063 52.9919 17.4828 52.3964 16.7236ZM47.0754 2.77707V0.967449C47.0754 0.693579 47.2844 0.509844 47.5351 0.509844H55.6733C55.9345 0.509844 56.1435 0.697046 56.1435 0.967449V2.51707C56.14 2.77707 55.9206 3.1168 55.5306 3.65414L51.3134 9.64807C52.8805 9.60994 54.5346 9.84221 55.9554 10.6396C56.2758 10.8198 56.3629 11.0833 56.3872 11.3433V13.2742C56.3872 13.5377 56.0947 13.8462 55.7883 13.6868C53.2845 12.3798 49.9588 12.2377 47.1903 13.7006C46.9083 13.8532 46.6123 13.5481 46.6123 13.2846V11.4508C46.6123 11.1561 46.6158 10.6534 46.9118 10.2062L51.7975 3.23121H47.5455C47.2844 3.23121 47.0754 3.04747 47.0754 2.77707ZM17.3884 14.0681H14.9124C14.6756 14.0508 14.4876 13.874 14.4702 13.6487V0.998685C14.4702 0.745616 14.6826 0.544545 14.9473 0.544545H17.2561C17.4963 0.554938 17.6879 0.73868 17.7053 0.967482V2.6211H17.7506C18.353 1.02295 19.4848 0.277609 21.01 0.277609C22.5597 0.277609 23.5278 1.02295 24.2242 2.6211C24.8232 1.02295 26.1848 0.277609 27.6439 0.277609C28.6817 0.277609 29.8169 0.704013 30.5099 1.66082C31.2934 2.7251 31.1332 4.27125 31.1332 5.62673L31.1298 13.6105C31.1298 13.8636 30.9173 14.0681 30.6527 14.0681H28.1802C27.933 14.0508 27.7345 13.8532 27.7345 13.6105V6.90594C27.7345 6.37207 27.7832 5.04086 27.6648 4.53472C27.4803 3.68538 26.9266 3.44617 26.2092 3.44617C25.6102 3.44617 24.9834 3.84484 24.7292 4.48272C24.475 5.12059 24.4994 6.18833 24.4994 6.90594V13.6105C24.4994 13.8636 24.2869 14.0681 24.0223 14.0681H21.5498C21.2991 14.0508 21.1041 13.8532 21.1041 13.6105L21.1006 6.90594C21.1006 5.495 21.3339 3.41844 19.5753 3.41844C17.7958 3.41844 17.8655 5.44299 17.8655 6.90594V13.6105C17.8655 13.8636 17.6531 14.0681 17.3884 14.0681ZM63.1499 0.277609C66.8238 0.277609 68.8122 3.41844 68.8122 7.41208C68.8122 11.2705 66.6149 14.3316 63.1499 14.3316C59.5422 14.3316 57.5782 11.1908 57.5782 7.27688C57.5782 3.33871 59.5666 0.277609 63.1499 0.277609ZM63.1708 2.8603C61.3461 2.8603 61.2312 5.33553 61.2312 6.87821C61.2312 8.42436 61.2068 11.7247 63.1499 11.7247C65.0687 11.7247 65.1593 9.06223 65.1593 7.43981C65.1593 6.37207 65.114 5.09632 64.7901 4.08405C64.5115 3.20351 63.9578 2.8603 63.1708 2.8603ZM73.5761 14.0681H71.1106C70.8633 14.0508 70.6648 13.8532 70.6648 13.6105L70.6614 0.957082C70.6823 0.724813 70.8877 0.544545 71.1384 0.544545H73.4333C73.6492 0.554938 73.8268 0.700547 73.8756 0.898149V2.83257H73.9208C74.6138 1.10268 75.5854 0.277609 77.2952 0.277609C78.4061 0.277609 79.4891 0.67628 80.1856 1.76829C80.8333 2.78057 80.8333 4.48272 80.8333 5.70646V13.6695C80.8055 13.8913 80.6 14.0681 80.3562 14.0681H77.8733C77.647 14.0508 77.4589 13.8844 77.4345 13.6695V6.79847C77.4345 5.41526 77.5947 3.39071 75.8849 3.39071C75.2824 3.39071 74.7288 3.79285 74.4536 4.40298C74.1054 5.17606 74.0601 5.94567 74.0601 6.79847V13.6105C74.0567 13.8636 73.8407 14.0681 73.5761 14.0681ZM40.5878 8.02567C40.5878 8.98594 40.6122 9.78675 40.1246 10.6396C39.7311 11.3329 39.1043 11.7593 38.4113 11.7593C37.4607 11.7593 36.9035 11.0382 36.9035 9.97395C36.9035 7.87313 38.7944 7.49179 40.5878 7.49179V8.02567ZM43.0846 14.0335C42.921 14.1791 42.6842 14.1895 42.4996 14.0924C41.6778 13.4129 41.528 13.0975 41.0788 12.4492C39.7207 13.8289 38.7561 14.2415 36.9975 14.2415C34.9116 14.2415 33.2923 12.9622 33.2923 10.4004C33.2923 8.40007 34.3788 7.03766 35.9319 6.37205C37.2761 5.78271 39.1531 5.67871 40.5878 5.51577V5.19684C40.5878 4.61096 40.6331 3.91762 40.2848 3.41149C39.9854 2.95735 39.4073 2.77014 38.8954 2.77014C37.9517 2.77014 37.1124 3.25202 36.907 4.25043C36.8652 4.4723 36.7015 4.6907 36.4751 4.7011L34.0758 4.44456C33.8738 4.3995 33.6475 4.23656 33.7067 3.92802C34.2569 1.02986 36.8895 0.15625 39.2436 0.15625C40.4485 0.15625 42.0225 0.475187 42.9732 1.38346C44.1781 2.50321 44.0632 3.99736 44.0632 5.62324V9.46435C44.0632 10.6188 44.5437 11.1249 44.9964 11.7489C45.1532 11.9708 45.188 12.2377 44.986 12.4041C44.4811 12.8236 43.5826 13.6036 43.0881 14.0404L43.0846 14.0335ZM8.12883 8.02585C8.12883 8.98613 8.15321 9.78694 7.66568 10.6397C7.27217 11.3331 6.64883 11.7595 5.95236 11.7595C5.00168 11.7595 4.44799 11.0384 4.44799 9.97414C4.44799 7.87332 6.3389 7.49198 8.12883 7.49198V8.02585ZM10.6257 14.0336C10.462 14.1793 10.2252 14.1897 10.0406 14.0926C9.21881 13.4131 9.07255 13.0976 8.61984 12.4494C7.26173 13.8291 6.3006 14.2417 4.53853 14.2417C2.45608 14.2417 0.833313 12.9624 0.833313 10.4005C0.833313 8.40026 1.92329 7.03784 3.47293 6.37224C4.81712 5.7829 6.6941 5.6789 8.12883 5.51596V5.19702C8.12883 4.61115 8.1741 3.91781 7.82935 3.41167C7.52639 2.95753 6.94832 2.77033 6.43989 2.77033C5.49618 2.77033 4.65345 3.2522 4.44799 4.25061C4.4062 4.47248 4.24253 4.69089 4.01966 4.70129L1.61684 4.44475C1.41486 4.39968 1.19199 4.23675 1.24771 3.92821C1.80141 1.03005 4.43058 0.156436 6.78465 0.156436C7.98954 0.156436 9.56356 0.475374 10.5142 1.38365C11.7191 2.50339 11.6042 3.99754 11.6042 5.62343V9.46453C11.6042 10.6189 12.0848 11.1251 12.5375 11.7491C12.6977 11.971 12.7325 12.2379 12.5305 12.4043C12.0256 12.8238 11.1271 13.6038 10.6326 14.0406L10.6257 14.0336Z" fill="#6A6A6A"/>
<path fill-rule="evenodd" clip-rule="evenodd" d="M50.2084 18.6127C45.5595 22.0239 38.8211 23.844 33.0195 23.844C24.8848 23.844 17.5614 20.8487 12.021 15.8671C11.5857 15.4753 11.9757 14.9415 12.498 15.2465C18.4772 18.7098 25.8703 20.7933 33.5071 20.7933C38.6575 20.7933 44.3232 19.7324 49.5328 17.5311C50.3199 17.1983 50.978 18.0442 50.2084 18.6127ZM52.3964 16.7236C51.8044 15.9679 48.4684 16.3665 46.9709 16.5433C46.5148 16.5988 46.4451 16.2036 46.856 15.9193C49.5131 14.0577 53.8729 14.5951 54.3814 15.2191C54.8898 15.8465 54.249 20.1973 51.7522 22.2738C51.3691 22.5927 51.0035 22.4229 51.1741 21.9999C51.7348 20.6063 52.9919 17.4828 52.3964 16.7236ZM47.0754 2.77707V0.967449C47.0754 0.693579 47.2844 0.509844 47.5351 0.509844H55.6733C55.9345 0.509844 56.1435 0.697046 56.1435 0.967449V2.51707C56.14 2.77707 55.9206 3.1168 55.5306 3.65414L51.3134 9.64807C52.8805 9.60994 54.5346 9.84221 55.9554 10.6396C56.2758 10.8198 56.3629 11.0833 56.3872 11.3433V13.2742C56.3872 13.5377 56.0947 13.8462 55.7883 13.6868C53.2845 12.3798 49.9588 12.2377 47.1903 13.7006C46.9083 13.8532 46.6123 13.5481 46.6123 13.2846V11.4508C46.6123 11.1561 46.6158 10.6534 46.9118 10.2062L51.7975 3.23121H47.5455C47.2844 3.23121 47.0754 3.04747 47.0754 2.77707ZM17.3884 14.0681H14.9124C14.6756 14.0508 14.4876 13.874 14.4702 13.6487V0.998685C14.4702 0.745616 14.6826 0.544545 14.9473 0.544545H17.2561C17.4963 0.554938 17.6879 0.73868 17.7053 0.967482V2.6211H17.7506C18.353 1.02295 19.4848 0.277609 21.01 0.277609C22.5597 0.277609 23.5278 1.02295 24.2242 2.6211C24.8232 1.02295 26.1848 0.277609 27.6439 0.277609C28.6817 0.277609 29.8169 0.704013 30.5099 1.66082C31.2934 2.7251 31.1332 4.27125 31.1332 5.62673L31.1298 13.6105C31.1298 13.8636 30.9173 14.0681 30.6527 14.0681H28.1802C27.933 14.0508 27.7345 13.8532 27.7345 13.6105V6.90594C27.7345 6.37207 27.7832 5.04086 27.6648 4.53472C27.4803 3.68538 26.9266 3.44617 26.2092 3.44617C25.6102 3.44617 24.9834 3.84484 24.7292 4.48272C24.475 5.12059 24.4994 6.18833 24.4994 6.90594V13.6105C24.4994 13.8636 24.2869 14.0681 24.0223 14.0681H21.5498C21.2991 14.0508 21.1041 13.8532 21.1041 13.6105L21.1006 6.90594C21.1006 5.495 21.3339 3.41844 19.5753 3.41844C17.7958 3.41844 17.8655 5.44299 17.8655 6.90594V13.6105C17.8655 13.8636 17.6531 14.0681 17.3884 14.0681ZM63.1499 0.277609C66.8238 0.277609 68.8122 3.41844 68.8122 7.41208C68.8122 11.2705 66.6149 14.3316 63.1499 14.3316C59.5422 14.3316 57.5782 11.1908 57.5782 7.27688C57.5782 3.33871 59.5666 0.277609 63.1499 0.277609ZM63.1708 2.8603C61.3461 2.8603 61.2312 5.33553 61.2312 6.87821C61.2312 8.42436 61.2068 11.7247 63.1499 11.7247C65.0687 11.7247 65.1593 9.06223 65.1593 7.43981C65.1593 6.37207 65.114 5.09632 64.7901 4.08405C64.5115 3.20351 63.9578 2.8603 63.1708 2.8603ZM73.5761 14.0681H71.1106C70.8633 14.0508 70.6648 13.8532 70.6648 13.6105L70.6614 0.957082C70.6823 0.724813 70.8877 0.544545 71.1384 0.544545H73.4333C73.6492 0.554938 73.8268 0.700547 73.8756 0.898149V2.83257H73.9208C74.6138 1.10268 75.5854 0.277609 77.2952 0.277609C78.4061 0.277609 79.4891 0.67628 80.1856 1.76829C80.8333 2.78057 80.8333 4.48272 80.8333 5.70646V13.6695C80.8055 13.8913 80.6 14.0681 80.3562 14.0681H77.8733C77.647 14.0508 77.4589 13.8844 77.4345 13.6695V6.79847C77.4345 5.41526 77.5947 3.39071 75.8849 3.39071C75.2824 3.39071 74.7288 3.79285 74.4536 4.40298C74.1054 5.17606 74.0601 5.94567 74.0601 6.79847V13.6105C74.0567 13.8636 73.8407 14.0681 73.5761 14.0681ZM40.5878 8.02567C40.5878 8.98594 40.6122 9.78675 40.1246 10.6396C39.7311 11.3329 39.1043 11.7593 38.4113 11.7593C37.4607 11.7593 36.9035 11.0382 36.9035 9.97395C36.9035 7.87313 38.7944 7.49179 40.5878 7.49179V8.02567ZM43.0846 14.0335C42.921 14.1791 42.6842 14.1895 42.4996 14.0924C41.6778 13.4129 41.528 13.0975 41.0788 12.4492C39.7207 13.8289 38.7561 14.2415 36.9975 14.2415C34.9116 14.2415 33.2923 12.9622 33.2923 10.4004C33.2923 8.40007 34.3788 7.03766 35.9319 6.37205C37.2761 5.78271 39.1531 5.67871 40.5878 5.51577V5.19684C40.5878 4.61096 40.6331 3.91762 40.2848 3.41149C39.9854 2.95735 39.4073 2.77014 38.8954 2.77014C37.9517 2.77014 37.1124 3.25202 36.907 4.25043C36.8652 4.4723 36.7015 4.6907 36.4751 4.7011L34.0758 4.44456C33.8738 4.3995 33.6475 4.23656 33.7067 3.92802C34.2569 1.02986 36.8895 0.15625 39.2436 0.15625C40.4485 0.15625 42.0225 0.475187 42.9732 1.38346C44.1781 2.50321 44.0632 3.99736 44.0632 5.62324V9.46435C44.0632 10.6188 44.5437 11.1249 44.9964 11.7489C45.1532 11.9708 45.188 12.2377 44.986 12.4041C44.4811 12.8236 43.5826 13.6036 43.0881 14.0404L43.0846 14.0335ZM8.12883 8.02585C8.12883 8.98613 8.15321 9.78694 7.66568 10.6397C7.27217 11.3331 6.64883 11.7595 5.95236 11.7595C5.00168 11.7595 4.44799 11.0384 4.44799 9.97414C4.44799 7.87332 6.3389 7.49198 8.12883 7.49198V8.02585ZM10.6257 14.0336C10.462 14.1793 10.2252 14.1897 10.0406 14.0926C9.21881 13.4131 9.07255 13.0976 8.61984 12.4494C7.26173 13.8291 6.3006 14.2417 4.53853 14.2417C2.45608 14.2417 0.833313 12.9624 0.833313 10.4005C0.833313 8.40026 1.92329 7.03784 3.47293 6.37224C4.81712 5.7829 6.6941 5.6789 8.12883 5.51596V5.19702C8.12883 4.61115 8.1741 3.91781 7.82935 3.41167C7.52639 2.95753 6.94832 2.77033 6.43989 2.77033C5.49618 2.77033 4.65345 3.2522 4.44799 4.25061C4.4062 4.47248 4.24253 4.69089 4.01966 4.70129L1.61684 4.44475C1.41486 4.39968 1.19199 4.23675 1.24771 3.92821C1.80141 1.03005 4.43058 0.156436 6.78465 0.156436C7.98954 0.156436 9.56356 0.475374 10.5142 1.38365C11.7191 2.50339 11.6042 3.99754 11.6042 5.62343V9.46453C11.6042 10.6189 12.0848 11.1251 12.5375 11.7491C12.6977 11.971 12.7325 12.2379 12.5305 12.4043C12.0256 12.8238 11.1271 13.6038 10.6326 14.0406L10.6257 14.0336Z" fill="#6A6A6A"/>
</svg>
