<svg width="99" height="24" viewBox="0 0 99 24" fill="none" xmlns="http://www.w3.org/2000/svg">
<path fill-rule="evenodd" clip-rule="evenodd" d="M97.4649 16.6199C97.1611 16.3994 96.9202 16.3679 96.7213 16.7878C93.3072 24.1884 87.5577 20.4934 88.1338 20.8188C89.4114 20.231 92.7627 17.5436 92.2599 13.8171C91.9563 11.5391 90.0083 10.5314 87.9348 10.8988C84.3218 11.5286 83.0023 15.4337 83.6725 18.8873C83.7877 19.4857 83.9972 19.9685 84.2172 20.4514C80.1433 23.7791 78.5202 17.4806 78.3315 16.7248C78.3212 16.6828 81.4838 14.048 82.3635 7.76009C83.2851 1.17823 81.1905 -0.0289627 79.0438 0.0130267C75.0747 0.0865083 74.0064 8.38992 75.4411 15.3077C75.3259 15.3392 74.7604 15.6541 73.8599 15.6856C73.2105 13.6386 70.4353 11.8436 69.7127 12.5364C67.9009 14.2685 70.1525 17.6486 71.7445 17.911C70.7913 23.8001 64.8221 22.3409 65.9321 14.9613C67.8695 11.3502 69.3566 5.96503 69.0844 2.72134C68.9901 1.57713 68.1418 0.0340214 66.2254 0.107503C62.5391 0.254467 62.1411 8.55787 62.5704 14.4574C62.5496 14.3104 62.3401 15.1712 60.8319 15.6016C60.4759 13.6176 57.2819 11.6126 56.5279 12.5784C55.1246 14.3734 57.5646 17.5751 58.7166 17.7956C57.7636 23.6846 51.7943 22.2254 52.9044 14.8458C54.8524 11.2347 56.3289 5.86006 56.067 2.61638C55.9729 1.47216 55.1246 -0.0709522 53.208 0.00252936C49.5217 0.149492 49.1237 8.4529 49.5533 14.3524C49.5322 14.2055 49.3227 15.0978 47.7518 15.5176C47.6996 12.9353 44.495 11.7596 43.72 12.5784C42.3481 14.048 44.0341 17.0607 45.5945 17.7956C44.6416 23.6846 38.6723 22.2254 39.7823 14.8458C41.7198 11.2347 43.2069 5.84957 42.9347 2.60587C42.8509 1.47216 42.0026 -0.0709522 40.0859 0.00252936C36.3996 0.149492 36.1066 8.8728 36.5359 14.7723C35.321 19.9895 31.2473 26.4979 31.7812 13.4497C31.8337 12.5364 31.8861 12.19 31.4357 11.8436C31.0902 11.5811 30.3152 11.7071 29.8962 11.7176C29.3831 11.7386 29.2471 12.043 29.1422 12.4944C28.8805 13.6701 28.8281 14.8143 28.7862 16.3784C28.7654 17.1132 28.7024 17.4492 28.4196 18.4464C28.1369 19.4437 26.5451 21.2597 25.6654 20.9553C24.4506 20.5354 24.8485 17.1027 25.0788 14.7408C25.2675 12.8723 24.6601 12.043 23.1101 11.7386C22.199 11.5496 21.644 11.5811 20.7015 11.2767C19.8008 10.9933 19.6018 9.29271 17.6958 9.85956C16.6486 10.1745 17.3188 12.3894 17.0675 14.0375C15.8317 22.131 13.266 22.3514 12.0721 18.4254C17.434 5.24071 13.6116 0.0445188 11.3809 0.0445188C9.05603 0.0445188 6.39602 1.65061 7.51656 11.938C6.972 11.7806 6.80445 11.6966 6.19703 11.6966C2.81442 11.6861 0.5 14.4364 0.5 17.8271C0.5 21.2177 2.81442 23.968 6.20752 23.968C8.20775 23.968 9.61106 23.0547 10.6793 21.6481C11.3705 22.6454 12.2187 23.989 13.7686 23.926C18.3765 23.7476 19.717 14.2685 19.8741 13.7331C20.3663 13.8066 20.8376 13.9535 21.2879 14.027C22.0419 14.1425 22.1048 14.4469 22.0838 15.2027C21.8848 21.6481 23.0682 23.905 25.7598 23.905C27.2572 23.905 28.5978 22.4249 29.5193 21.3752C30.2106 22.8028 31.2995 23.863 32.7763 23.905C36.3369 23.989 37.7088 18.2994 37.5831 19.0448C37.4888 19.6326 38.735 23.863 42.411 23.884C46.9559 23.905 47.8042 18.8978 47.8986 18.058C47.9091 17.89 47.9194 17.911 47.8986 18.058C47.8986 18.0685 47.8986 18.0895 47.8986 18.1105C49.3438 17.8375 50.0872 17.0713 50.0872 17.0713C50.0872 17.0713 51.2496 23.968 55.5331 23.8946C59.9839 23.8106 60.8319 19.2862 60.9368 18.4044C60.9473 18.1945 60.9576 18.2155 60.9368 18.4044C60.9368 18.4149 60.9368 18.4254 60.9368 18.4254C62.6542 17.7956 63.1046 17.1762 63.1046 17.1762C63.1046 17.1762 64.0262 23.9365 68.5502 23.9995C72.5823 24.0521 74.0797 19.9055 74.0902 18.1735C74.7709 18.184 76.0277 17.7641 75.9963 17.7431C75.9963 17.7431 77.4729 23.6531 81.599 23.9575C83.5365 24.1044 84.992 22.8658 85.8195 22.2989C87.7673 23.884 94.2498 25.8996 98.3446 18.9398C98.931 17.953 97.6847 16.7668 97.4649 16.6199ZM6.03994 21.6691C4.06066 21.6691 2.79348 19.8321 2.79348 17.8585C2.79348 15.8851 3.95593 14.048 5.93524 14.048C6.8254 14.048 7.31759 14.1425 8.01925 14.7513C8.14493 15.2447 8.50098 16.3889 8.67902 16.9138C8.90941 17.6066 9.19217 18.205 9.46446 18.8453C9.05603 20.5039 7.75743 21.6691 6.03994 21.6691ZM10.8573 14.8038C10.7735 14.6674 10.7945 14.7513 10.7002 14.6254C10.3442 13.6386 9.6425 11.4342 9.55872 8.92529C9.46446 6.09101 9.93573 2.76334 11.3285 2.76334C12.2711 2.76334 13.2764 9.50266 10.8573 14.8038ZM38.7245 11.8541C38.5047 10.1745 38.4942 2.66887 40.2851 2.8788C41.28 3.2777 39.6566 10.3529 38.7245 11.8541ZM51.8465 11.8541C51.6267 10.1745 51.6162 2.66887 53.4072 2.8788C54.402 3.2777 52.7787 10.3529 51.8465 11.8541ZM64.864 11.959C64.6439 10.2794 64.6336 2.77382 66.4243 2.98378C67.4192 3.37219 65.7961 10.4579 64.864 11.959ZM79.2322 2.42743C80.8764 2.25946 80.8031 9.45017 77.5148 13.985C77.0853 12.3474 76.4361 2.99429 79.2322 2.42743ZM86.1441 17.911C85.6205 15.2342 86.9819 13.4811 88.3852 13.2922C88.8775 13.2187 89.5896 13.5336 89.7256 14.132C89.9561 15.2552 89.6942 16.9243 86.5421 19.0343C86.5526 19.0448 86.2593 18.4989 86.1441 17.911ZM30.4409 9.6601C31.5614 9.6601 32.4725 8.74683 32.4725 7.62363C32.4725 6.5004 31.5614 5.58713 30.4409 5.58713C29.3204 5.58713 28.4091 6.5004 28.4091 7.62363C28.4091 8.74683 29.3204 9.6601 30.4409 9.6601Z" fill="#6A6A6A"/>
</svg>
