<svg width="74" height="24" viewBox="0 0 74 24" fill="none" xmlns="http://www.w3.org/2000/svg">
<path d="M71.4065 14.6519L73.4315 16.0046C72.7743 16.9746 71.2022 18.6388 68.4843 18.6388C65.1092 18.6388 62.5956 16.0224 62.5956 12.6941C62.5956 9.15216 65.1358 6.74935 68.2001 6.74935C71.2821 6.74935 72.792 9.20555 73.2805 10.5316L73.547 11.2079L65.6066 14.5006C66.2105 15.6931 67.152 16.2983 68.4843 16.2983C69.8166 16.2983 70.7403 15.6398 71.4065 14.6519ZM65.1802 12.5072L70.4827 10.3002C70.1896 9.56153 69.3192 9.03647 68.28 9.03647C66.9566 9.03647 65.1181 10.2112 65.1802 12.5072ZM58.7675 0.688974H61.3255V18.096H58.7675V0.688974ZM54.7351 7.21214H57.2043V17.7845C57.2043 22.1719 54.6196 23.9784 51.5643 23.9784C48.6865 23.9784 46.9546 22.0384 46.3062 20.4632L48.5711 19.5199C48.9796 20.4899 49.9655 21.6379 51.5643 21.6379C53.5272 21.6379 54.7351 20.4187 54.7351 18.1405V17.2861H54.6463C54.0601 17.9981 52.941 18.6388 51.5199 18.6388C48.5533 18.6388 45.8354 16.0491 45.8354 12.7119C45.8354 9.35687 48.5533 6.74047 51.5199 6.74047C52.9321 6.74047 54.0601 7.37232 54.6463 8.06647H54.7351V7.21214ZM54.9128 12.7119C54.9128 10.6117 53.5183 9.08099 51.7419 9.08099C49.9478 9.08099 48.4378 10.6117 48.4378 12.7119C48.4378 14.7854 49.9478 16.2894 51.7419 16.2894C53.5183 16.2983 54.9128 14.7854 54.9128 12.7119ZM31.7931 12.6674C31.7931 16.0936 29.1285 18.6121 25.86 18.6121C22.5914 18.6121 19.9269 16.0847 19.9269 12.6674C19.9269 9.22335 22.5914 6.71375 25.86 6.71375C29.1285 6.71375 31.7931 9.22335 31.7931 12.6674ZM29.1996 12.6674C29.1996 10.5316 27.6541 9.06317 25.86 9.06317C24.0658 9.06317 22.5204 10.5316 22.5204 12.6674C22.5204 14.7854 24.0658 16.2716 25.86 16.2716C27.6541 16.2716 29.1996 14.7854 29.1996 12.6674ZM44.7519 12.6941C44.7519 16.1203 42.0873 18.6388 38.8188 18.6388C35.5502 18.6388 32.8856 16.1203 32.8856 12.6941C32.8856 9.25005 35.5502 6.74935 38.8188 6.74935C42.0873 6.74935 44.7519 9.24115 44.7519 12.6941ZM42.1495 12.6941C42.1495 10.5583 40.604 9.08986 38.8099 9.08986C37.0157 9.08986 35.4703 10.5583 35.4703 12.6941C35.4703 14.8121 37.0157 16.2983 38.8099 16.2983C40.6129 16.2983 42.1495 14.8032 42.1495 12.6941ZM10.1745 16.0313C6.45301 16.0313 3.53974 13.0234 3.53974 9.29456C3.53974 5.56575 6.45301 2.55779 10.1745 2.55779C12.1818 2.55779 13.6474 3.34982 14.731 4.36434L16.5162 2.57558C15.0063 1.125 12.9901 0.0214844 10.1745 0.0214844C5.07631 0.0214844 0.786346 4.18636 0.786346 9.29456C0.786346 14.4028 5.07631 18.5676 10.1745 18.5676C12.9279 18.5676 15.0063 17.6599 16.6317 15.969C18.3015 14.296 18.8166 11.9465 18.8166 10.0421C18.8166 9.44584 18.7456 8.83179 18.6656 8.37793H10.1745V10.8519H16.2231C16.0455 12.4004 15.557 13.4594 14.8375 14.1803C13.9671 15.0613 12.5904 16.0313 10.1745 16.0313Z" fill="#6A6A6A"/>
<path d="M71.4065 14.6519L73.4315 16.0046C72.7743 16.9746 71.2022 18.6388 68.4843 18.6388C65.1092 18.6388 62.5956 16.0224 62.5956 12.6941C62.5956 9.15216 65.1358 6.74935 68.2001 6.74935C71.2821 6.74935 72.792 9.20555 73.2805 10.5316L73.547 11.2079L65.6066 14.5006C66.2105 15.6931 67.152 16.2983 68.4843 16.2983C69.8166 16.2983 70.7403 15.6398 71.4065 14.6519ZM65.1802 12.5072L70.4827 10.3002C70.1896 9.56153 69.3192 9.03647 68.28 9.03647C66.9566 9.03647 65.1181 10.2112 65.1802 12.5072ZM58.7675 0.688974H61.3255V18.096H58.7675V0.688974ZM54.7351 7.21214H57.2043V17.7845C57.2043 22.1719 54.6196 23.9784 51.5643 23.9784C48.6865 23.9784 46.9546 22.0384 46.3062 20.4632L48.5711 19.5199C48.9796 20.4899 49.9655 21.6379 51.5643 21.6379C53.5272 21.6379 54.7351 20.4187 54.7351 18.1405V17.2861H54.6463C54.0601 17.9981 52.941 18.6388 51.5199 18.6388C48.5533 18.6388 45.8354 16.0491 45.8354 12.7119C45.8354 9.35687 48.5533 6.74047 51.5199 6.74047C52.9321 6.74047 54.0601 7.37232 54.6463 8.06647H54.7351V7.21214ZM54.9128 12.7119C54.9128 10.6117 53.5183 9.08099 51.7419 9.08099C49.9478 9.08099 48.4378 10.6117 48.4378 12.7119C48.4378 14.7854 49.9478 16.2894 51.7419 16.2894C53.5183 16.2983 54.9128 14.7854 54.9128 12.7119ZM31.7931 12.6674C31.7931 16.0936 29.1285 18.6121 25.86 18.6121C22.5914 18.6121 19.9269 16.0847 19.9269 12.6674C19.9269 9.22335 22.5914 6.71375 25.86 6.71375C29.1285 6.71375 31.7931 9.22335 31.7931 12.6674ZM29.1996 12.6674C29.1996 10.5316 27.6541 9.06317 25.86 9.06317C24.0658 9.06317 22.5204 10.5316 22.5204 12.6674C22.5204 14.7854 24.0658 16.2716 25.86 16.2716C27.6541 16.2716 29.1996 14.7854 29.1996 12.6674ZM44.7519 12.6941C44.7519 16.1203 42.0873 18.6388 38.8188 18.6388C35.5502 18.6388 32.8856 16.1203 32.8856 12.6941C32.8856 9.25005 35.5502 6.74935 38.8188 6.74935C42.0873 6.74935 44.7519 9.24115 44.7519 12.6941ZM42.1495 12.6941C42.1495 10.5583 40.604 9.08986 38.8099 9.08986C37.0157 9.08986 35.4703 10.5583 35.4703 12.6941C35.4703 14.8121 37.0157 16.2983 38.8099 16.2983C40.6129 16.2983 42.1495 14.8032 42.1495 12.6941ZM10.1745 16.0313C6.45301 16.0313 3.53974 13.0234 3.53974 9.29456C3.53974 5.56575 6.45301 2.55779 10.1745 2.55779C12.1818 2.55779 13.6474 3.34982 14.731 4.36434L16.5162 2.57558C15.0063 1.125 12.9901 0.0214844 10.1745 0.0214844C5.07631 0.0214844 0.786346 4.18636 0.786346 9.29456C0.786346 14.4028 5.07631 18.5676 10.1745 18.5676C12.9279 18.5676 15.0063 17.6599 16.6317 15.969C18.3015 14.296 18.8166 11.9465 18.8166 10.0421C18.8166 9.44584 18.7456 8.83179 18.6656 8.37793H10.1745V10.8519H16.2231C16.0455 12.4004 15.557 13.4594 14.8375 14.1803C13.9671 15.0613 12.5904 16.0313 10.1745 16.0313Z" fill="#6A6A6A"/>
<path d="M71.4065 14.6519L73.4315 16.0046C72.7743 16.9746 71.2022 18.6388 68.4843 18.6388C65.1092 18.6388 62.5956 16.0224 62.5956 12.6941C62.5956 9.15216 65.1358 6.74935 68.2001 6.74935C71.2821 6.74935 72.792 9.20555 73.2805 10.5316L73.547 11.2079L65.6066 14.5006C66.2105 15.6931 67.152 16.2983 68.4843 16.2983C69.8166 16.2983 70.7403 15.6398 71.4065 14.6519ZM65.1802 12.5072L70.4827 10.3002C70.1896 9.56153 69.3192 9.03647 68.28 9.03647C66.9566 9.03647 65.1181 10.2112 65.1802 12.5072ZM58.7675 0.688974H61.3255V18.096H58.7675V0.688974ZM54.7351 7.21214H57.2043V17.7845C57.2043 22.1719 54.6196 23.9784 51.5643 23.9784C48.6865 23.9784 46.9546 22.0384 46.3062 20.4632L48.5711 19.5199C48.9796 20.4899 49.9655 21.6379 51.5643 21.6379C53.5272 21.6379 54.7351 20.4187 54.7351 18.1405V17.2861H54.6463C54.0601 17.9981 52.941 18.6388 51.5199 18.6388C48.5533 18.6388 45.8354 16.0491 45.8354 12.7119C45.8354 9.35687 48.5533 6.74047 51.5199 6.74047C52.9321 6.74047 54.0601 7.37232 54.6463 8.06647H54.7351V7.21214ZM54.9128 12.7119C54.9128 10.6117 53.5183 9.08099 51.7419 9.08099C49.9478 9.08099 48.4378 10.6117 48.4378 12.7119C48.4378 14.7854 49.9478 16.2894 51.7419 16.2894C53.5183 16.2983 54.9128 14.7854 54.9128 12.7119ZM31.7931 12.6674C31.7931 16.0936 29.1285 18.6121 25.86 18.6121C22.5914 18.6121 19.9269 16.0847 19.9269 12.6674C19.9269 9.22335 22.5914 6.71375 25.86 6.71375C29.1285 6.71375 31.7931 9.22335 31.7931 12.6674ZM29.1996 12.6674C29.1996 10.5316 27.6541 9.06317 25.86 9.06317C24.0658 9.06317 22.5204 10.5316 22.5204 12.6674C22.5204 14.7854 24.0658 16.2716 25.86 16.2716C27.6541 16.2716 29.1996 14.7854 29.1996 12.6674ZM44.7519 12.6941C44.7519 16.1203 42.0873 18.6388 38.8188 18.6388C35.5502 18.6388 32.8856 16.1203 32.8856 12.6941C32.8856 9.25005 35.5502 6.74935 38.8188 6.74935C42.0873 6.74935 44.7519 9.24115 44.7519 12.6941ZM42.1495 12.6941C42.1495 10.5583 40.604 9.08986 38.8099 9.08986C37.0157 9.08986 35.4703 10.5583 35.4703 12.6941C35.4703 14.8121 37.0157 16.2983 38.8099 16.2983C40.6129 16.2983 42.1495 14.8032 42.1495 12.6941ZM10.1745 16.0313C6.45301 16.0313 3.53974 13.0234 3.53974 9.29456C3.53974 5.56575 6.45301 2.55779 10.1745 2.55779C12.1818 2.55779 13.6474 3.34982 14.731 4.36434L16.5162 2.57558C15.0063 1.125 12.9901 0.0214844 10.1745 0.0214844C5.07631 0.0214844 0.786346 4.18636 0.786346 9.29456C0.786346 14.4028 5.07631 18.5676 10.1745 18.5676C12.9279 18.5676 15.0063 17.6599 16.6317 15.969C18.3015 14.296 18.8166 11.9465 18.8166 10.0421C18.8166 9.44584 18.7456 8.83179 18.6656 8.37793H10.1745V10.8519H16.2231C16.0455 12.4004 15.557 13.4594 14.8375 14.1803C13.9671 15.0613 12.5904 16.0313 10.1745 16.0313Z" fill="#6A6A6A"/>
<path d="M71.4065 14.6519L73.4315 16.0046C72.7743 16.9746 71.2022 18.6388 68.4843 18.6388C65.1092 18.6388 62.5956 16.0224 62.5956 12.6941C62.5956 9.15216 65.1358 6.74935 68.2001 6.74935C71.2821 6.74935 72.792 9.20555 73.2805 10.5316L73.547 11.2079L65.6066 14.5006C66.2105 15.6931 67.152 16.2983 68.4843 16.2983C69.8166 16.2983 70.7403 15.6398 71.4065 14.6519ZM65.1802 12.5072L70.4827 10.3002C70.1896 9.56153 69.3192 9.03647 68.28 9.03647C66.9566 9.03647 65.1181 10.2112 65.1802 12.5072ZM58.7675 0.688974H61.3255V18.096H58.7675V0.688974ZM54.7351 7.21214H57.2043V17.7845C57.2043 22.1719 54.6196 23.9784 51.5643 23.9784C48.6865 23.9784 46.9546 22.0384 46.3062 20.4632L48.5711 19.5199C48.9796 20.4899 49.9655 21.6379 51.5643 21.6379C53.5272 21.6379 54.7351 20.4187 54.7351 18.1405V17.2861H54.6463C54.0601 17.9981 52.941 18.6388 51.5199 18.6388C48.5533 18.6388 45.8354 16.0491 45.8354 12.7119C45.8354 9.35687 48.5533 6.74047 51.5199 6.74047C52.9321 6.74047 54.0601 7.37232 54.6463 8.06647H54.7351V7.21214ZM54.9128 12.7119C54.9128 10.6117 53.5183 9.08099 51.7419 9.08099C49.9478 9.08099 48.4378 10.6117 48.4378 12.7119C48.4378 14.7854 49.9478 16.2894 51.7419 16.2894C53.5183 16.2983 54.9128 14.7854 54.9128 12.7119ZM31.7931 12.6674C31.7931 16.0936 29.1285 18.6121 25.86 18.6121C22.5914 18.6121 19.9269 16.0847 19.9269 12.6674C19.9269 9.22335 22.5914 6.71375 25.86 6.71375C29.1285 6.71375 31.7931 9.22335 31.7931 12.6674ZM29.1996 12.6674C29.1996 10.5316 27.6541 9.06317 25.86 9.06317C24.0658 9.06317 22.5204 10.5316 22.5204 12.6674C22.5204 14.7854 24.0658 16.2716 25.86 16.2716C27.6541 16.2716 29.1996 14.7854 29.1996 12.6674ZM44.7519 12.6941C44.7519 16.1203 42.0873 18.6388 38.8188 18.6388C35.5502 18.6388 32.8856 16.1203 32.8856 12.6941C32.8856 9.25005 35.5502 6.74935 38.8188 6.74935C42.0873 6.74935 44.7519 9.24115 44.7519 12.6941ZM42.1495 12.6941C42.1495 10.5583 40.604 9.08986 38.8099 9.08986C37.0157 9.08986 35.4703 10.5583 35.4703 12.6941C35.4703 14.8121 37.0157 16.2983 38.8099 16.2983C40.6129 16.2983 42.1495 14.8032 42.1495 12.6941ZM10.1745 16.0313C6.45301 16.0313 3.53974 13.0234 3.53974 9.29456C3.53974 5.56575 6.45301 2.55779 10.1745 2.55779C12.1818 2.55779 13.6474 3.34982 14.731 4.36434L16.5162 2.57558C15.0063 1.125 12.9901 0.0214844 10.1745 0.0214844C5.07631 0.0214844 0.786346 4.18636 0.786346 9.29456C0.786346 14.4028 5.07631 18.5676 10.1745 18.5676C12.9279 18.5676 15.0063 17.6599 16.6317 15.969C18.3015 14.296 18.8166 11.9465 18.8166 10.0421C18.8166 9.44584 18.7456 8.83179 18.6656 8.37793H10.1745V10.8519H16.2231C16.0455 12.4004 15.557 13.4594 14.8375 14.1803C13.9671 15.0613 12.5904 16.0313 10.1745 16.0313Z" fill="#6A6A6A"/>
<path d="M71.4065 14.6519L73.4315 16.0046C72.7743 16.9746 71.2022 18.6388 68.4843 18.6388C65.1092 18.6388 62.5956 16.0224 62.5956 12.6941C62.5956 9.15216 65.1358 6.74935 68.2001 6.74935C71.2821 6.74935 72.792 9.20555 73.2805 10.5316L73.547 11.2079L65.6066 14.5006C66.2105 15.6931 67.152 16.2983 68.4843 16.2983C69.8166 16.2983 70.7403 15.6398 71.4065 14.6519ZM65.1802 12.5072L70.4827 10.3002C70.1896 9.56153 69.3192 9.03647 68.28 9.03647C66.9566 9.03647 65.1181 10.2112 65.1802 12.5072ZM58.7675 0.688974H61.3255V18.096H58.7675V0.688974ZM54.7351 7.21214H57.2043V17.7845C57.2043 22.1719 54.6196 23.9784 51.5643 23.9784C48.6865 23.9784 46.9546 22.0384 46.3062 20.4632L48.5711 19.5199C48.9796 20.4899 49.9655 21.6379 51.5643 21.6379C53.5272 21.6379 54.7351 20.4187 54.7351 18.1405V17.2861H54.6463C54.0601 17.9981 52.941 18.6388 51.5199 18.6388C48.5533 18.6388 45.8354 16.0491 45.8354 12.7119C45.8354 9.35687 48.5533 6.74047 51.5199 6.74047C52.9321 6.74047 54.0601 7.37232 54.6463 8.06647H54.7351V7.21214ZM54.9128 12.7119C54.9128 10.6117 53.5183 9.08099 51.7419 9.08099C49.9478 9.08099 48.4378 10.6117 48.4378 12.7119C48.4378 14.7854 49.9478 16.2894 51.7419 16.2894C53.5183 16.2983 54.9128 14.7854 54.9128 12.7119ZM31.7931 12.6674C31.7931 16.0936 29.1285 18.6121 25.86 18.6121C22.5914 18.6121 19.9269 16.0847 19.9269 12.6674C19.9269 9.22335 22.5914 6.71375 25.86 6.71375C29.1285 6.71375 31.7931 9.22335 31.7931 12.6674ZM29.1996 12.6674C29.1996 10.5316 27.6541 9.06317 25.86 9.06317C24.0658 9.06317 22.5204 10.5316 22.5204 12.6674C22.5204 14.7854 24.0658 16.2716 25.86 16.2716C27.6541 16.2716 29.1996 14.7854 29.1996 12.6674ZM44.7519 12.6941C44.7519 16.1203 42.0873 18.6388 38.8188 18.6388C35.5502 18.6388 32.8856 16.1203 32.8856 12.6941C32.8856 9.25005 35.5502 6.74935 38.8188 6.74935C42.0873 6.74935 44.7519 9.24115 44.7519 12.6941ZM42.1495 12.6941C42.1495 10.5583 40.604 9.08986 38.8099 9.08986C37.0157 9.08986 35.4703 10.5583 35.4703 12.6941C35.4703 14.8121 37.0157 16.2983 38.8099 16.2983C40.6129 16.2983 42.1495 14.8032 42.1495 12.6941ZM10.1745 16.0313C6.45301 16.0313 3.53974 13.0234 3.53974 9.29456C3.53974 5.56575 6.45301 2.55779 10.1745 2.55779C12.1818 2.55779 13.6474 3.34982 14.731 4.36434L16.5162 2.57558C15.0063 1.125 12.9901 0.0214844 10.1745 0.0214844C5.07631 0.0214844 0.786346 4.18636 0.786346 9.29456C0.786346 14.4028 5.07631 18.5676 10.1745 18.5676C12.9279 18.5676 15.0063 17.6599 16.6317 15.969C18.3015 14.296 18.8166 11.9465 18.8166 10.0421C18.8166 9.44584 18.7456 8.83179 18.6656 8.37793H10.1745V10.8519H16.2231C16.0455 12.4004 15.557 13.4594 14.8375 14.1803C13.9671 15.0613 12.5904 16.0313 10.1745 16.0313Z" fill="#6A6A6A"/>
<path d="M71.4065 14.6519L73.4315 16.0046C72.7743 16.9746 71.2022 18.6388 68.4843 18.6388C65.1092 18.6388 62.5956 16.0224 62.5956 12.6941C62.5956 9.15216 65.1358 6.74935 68.2001 6.74935C71.2821 6.74935 72.792 9.20555 73.2805 10.5316L73.547 11.2079L65.6066 14.5006C66.2105 15.6931 67.152 16.2983 68.4843 16.2983C69.8166 16.2983 70.7403 15.6398 71.4065 14.6519ZM65.1802 12.5072L70.4827 10.3002C70.1896 9.56153 69.3192 9.03647 68.28 9.03647C66.9566 9.03647 65.1181 10.2112 65.1802 12.5072ZM58.7675 0.688974H61.3255V18.096H58.7675V0.688974ZM54.7351 7.21214H57.2043V17.7845C57.2043 22.1719 54.6196 23.9784 51.5643 23.9784C48.6865 23.9784 46.9546 22.0384 46.3062 20.4632L48.5711 19.5199C48.9796 20.4899 49.9655 21.6379 51.5643 21.6379C53.5272 21.6379 54.7351 20.4187 54.7351 18.1405V17.2861H54.6463C54.0601 17.9981 52.941 18.6388 51.5199 18.6388C48.5533 18.6388 45.8354 16.0491 45.8354 12.7119C45.8354 9.35687 48.5533 6.74047 51.5199 6.74047C52.9321 6.74047 54.0601 7.37232 54.6463 8.06647H54.7351V7.21214ZM54.9128 12.7119C54.9128 10.6117 53.5183 9.08099 51.7419 9.08099C49.9478 9.08099 48.4378 10.6117 48.4378 12.7119C48.4378 14.7854 49.9478 16.2894 51.7419 16.2894C53.5183 16.2983 54.9128 14.7854 54.9128 12.7119ZM31.7931 12.6674C31.7931 16.0936 29.1285 18.6121 25.86 18.6121C22.5914 18.6121 19.9269 16.0847 19.9269 12.6674C19.9269 9.22335 22.5914 6.71375 25.86 6.71375C29.1285 6.71375 31.7931 9.22335 31.7931 12.6674ZM29.1996 12.6674C29.1996 10.5316 27.6541 9.06317 25.86 9.06317C24.0658 9.06317 22.5204 10.5316 22.5204 12.6674C22.5204 14.7854 24.0658 16.2716 25.86 16.2716C27.6541 16.2716 29.1996 14.7854 29.1996 12.6674ZM44.7519 12.6941C44.7519 16.1203 42.0873 18.6388 38.8188 18.6388C35.5502 18.6388 32.8856 16.1203 32.8856 12.6941C32.8856 9.25005 35.5502 6.74935 38.8188 6.74935C42.0873 6.74935 44.7519 9.24115 44.7519 12.6941ZM42.1495 12.6941C42.1495 10.5583 40.604 9.08986 38.8099 9.08986C37.0157 9.08986 35.4703 10.5583 35.4703 12.6941C35.4703 14.8121 37.0157 16.2983 38.8099 16.2983C40.6129 16.2983 42.1495 14.8032 42.1495 12.6941ZM10.1745 16.0313C6.45301 16.0313 3.53974 13.0234 3.53974 9.29456C3.53974 5.56575 6.45301 2.55779 10.1745 2.55779C12.1818 2.55779 13.6474 3.34982 14.731 4.36434L16.5162 2.57558C15.0063 1.125 12.9901 0.0214844 10.1745 0.0214844C5.07631 0.0214844 0.786346 4.18636 0.786346 9.29456C0.786346 14.4028 5.07631 18.5676 10.1745 18.5676C12.9279 18.5676 15.0063 17.6599 16.6317 15.969C18.3015 14.296 18.8166 11.9465 18.8166 10.0421C18.8166 9.44584 18.7456 8.83179 18.6656 8.37793H10.1745V10.8519H16.2231C16.0455 12.4004 15.557 13.4594 14.8375 14.1803C13.9671 15.0613 12.5904 16.0313 10.1745 16.0313Z" fill="#6A6A6A"/>
</svg>
