<svg width="94" height="24" viewBox="0 0 94 24" fill="none" xmlns="http://www.w3.org/2000/svg">
<path d="M0.812256 3.62091H4.43583V16.9938H11.1441V20.3819H0.812256V3.62091ZM12.7462 9.01748H16.2273V20.3757H12.7462V9.01748ZM14.4868 3.37073C14.8862 3.3708 15.2766 3.49086 15.6086 3.71572C15.9406 3.94058 16.1994 4.26014 16.3522 4.634C16.505 5.00786 16.5449 5.41923 16.467 5.81609C16.389 6.21295 16.1966 6.57747 15.9142 6.86357C15.6318 7.14967 15.272 7.3445 14.8803 7.42341C14.4885 7.50233 14.0825 7.46179 13.7136 7.30692C13.3446 7.15205 13.0292 6.88981 12.8073 6.55336C12.5855 6.21691 12.467 5.82135 12.467 5.41671C12.467 5.148 12.5193 4.88192 12.6208 4.63366C12.7223 4.38541 12.8711 4.15984 13.0586 3.96985C13.2462 3.77986 13.4688 3.62916 13.7139 3.52636C13.9589 3.42357 14.2216 3.37068 14.4868 3.37073ZM30.7888 3.61841H34.2699V13.6352L38.2151 9.0124H42.483L37.9141 14.2708L42.3869 20.3805H38.0117L34.3163 14.7661H34.2706V20.3798H30.7895L30.7888 3.61841ZM18.1575 9.01862H21.5004V10.5708H21.5479C21.8818 9.99124 22.3648 9.51441 22.9453 9.19127C23.5259 8.86813 24.1821 8.7108 24.844 8.73609C28.374 8.73609 29.0238 11.0892 29.0238 14.1463V20.375H25.5428V14.8527C25.5428 13.5346 25.5188 11.8402 23.7297 11.8402C21.9203 11.8402 21.6411 13.2755 21.6411 14.7569V20.3735H18.16L18.1575 9.01862ZM49.8143 13.3756C49.821 13.0894 49.7702 12.8049 49.6652 12.5392C49.5601 12.2735 49.4029 12.0322 49.2031 11.8299C49.0033 11.6276 48.765 11.4685 48.5027 11.3622C48.2404 11.2559 47.9595 11.2047 47.6771 11.2116C47.0689 11.1733 46.4701 11.3787 46.01 11.7834C45.5498 12.1882 45.2651 12.76 45.2171 13.3756H49.8143ZM52.7631 18.4088C52.1846 19.1195 51.4574 19.691 50.6341 20.0818C49.8107 20.4726 48.9119 20.6731 48.0027 20.6686C44.5217 20.6686 41.7346 18.3144 41.7346 14.6688C41.7346 11.0232 44.5213 8.67004 48.0027 8.67004C51.2564 8.67004 53.2968 11.0213 53.2968 14.6688V15.7746H45.2171C45.3177 16.4018 45.6386 16.9709 46.1208 17.3773C46.6029 17.7837 47.2137 17.9998 47.8406 17.9859C48.3361 17.9828 48.8229 17.8542 49.2568 17.6118C49.6907 17.3693 50.0579 17.0208 50.3249 16.5979L52.7631 18.4088ZM60.5523 11.763C58.8117 11.763 57.7674 12.9405 57.7674 14.6562C57.7674 16.3719 58.8114 17.5505 60.5523 17.5505C62.2932 17.5505 63.3397 16.3749 63.3397 14.6562C63.3397 12.9376 62.295 11.763 60.5523 11.763ZM66.5444 20.3735H63.3397V18.8672H63.2922C62.8901 19.4151 62.3686 19.8616 61.7684 20.1718C61.1681 20.482 60.5052 20.6476 59.8314 20.6557C56.4867 20.6557 54.2834 18.21 54.2834 14.7514C54.2834 11.5749 56.2332 8.65824 59.4383 8.65824C60.879 8.65824 62.2246 9.05759 63.014 10.1645H63.0597V3.61731H66.5441L66.5444 20.3735ZM90.045 20.3801H86.564V14.8568C86.564 13.5397 86.5408 11.8442 84.7535 11.8442C82.9404 11.8442 82.663 13.2792 82.663 14.7609V20.3797H79.1819V9.02154H82.5238V10.5738H82.5705C82.905 9.9944 83.3883 9.5178 83.9689 9.1947C84.5495 8.87161 85.2058 8.71412 85.8678 8.73902C89.396 8.73902 90.0465 11.0903 90.0465 14.1492L90.045 20.3801ZM75.2541 7.46896C74.8546 7.46903 74.464 7.34907 74.1318 7.12423C73.7995 6.89939 73.5405 6.57979 73.3876 6.20582C73.2346 5.83186 73.1945 5.42034 73.2724 5.0233C73.3503 4.62627 73.5426 4.26154 73.8251 3.97525C74.1076 3.68896 74.4675 3.49396 74.8593 3.41492C75.2512 3.33587 75.6573 3.37633 76.0265 3.53118C76.3957 3.68602 76.7112 3.9483 76.9332 4.28484C77.1553 4.62138 77.2738 5.01707 77.2739 5.42187C77.2739 5.69065 77.2217 5.95681 77.1202 6.20515C77.0188 6.45348 76.87 6.67914 76.6825 6.86923C76.4949 7.05932 76.2722 7.21012 76.0272 7.31302C75.7821 7.41592 75.5194 7.46891 75.2541 7.46896ZM76.9947 20.3801H73.51V9.02154H76.9947V20.3801ZM91.7805 0.100255H71.7607C71.3064 0.0950592 70.8685 0.272852 70.5434 0.594563C70.2183 0.916274 70.0326 1.35558 70.0271 1.81596V22.1836C70.0325 22.6442 70.218 23.0838 70.5431 23.4058C70.8682 23.7279 71.3061 23.906 71.7607 23.9011H91.7805C92.236 23.9069 92.6752 23.7293 93.0015 23.4073C93.3279 23.0852 93.5147 22.6451 93.521 22.1836V1.81449C93.5145 1.3532 93.3276 0.913392 93.0012 0.591689C92.6749 0.269985 92.2358 0.0927006 91.7805 0.0987844" fill="#6A6A6A"/>
<path d="M0.812256 3.62091H4.43583V16.9938H11.1441V20.3819H0.812256V3.62091ZM12.7462 9.01748H16.2273V20.3757H12.7462V9.01748ZM14.4868 3.37073C14.8862 3.3708 15.2766 3.49086 15.6086 3.71572C15.9406 3.94058 16.1994 4.26014 16.3522 4.634C16.505 5.00786 16.5449 5.41923 16.467 5.81609C16.389 6.21295 16.1966 6.57747 15.9142 6.86357C15.6318 7.14967 15.272 7.3445 14.8803 7.42341C14.4885 7.50233 14.0825 7.46179 13.7136 7.30692C13.3446 7.15205 13.0292 6.88981 12.8073 6.55336C12.5855 6.21691 12.467 5.82135 12.467 5.41671C12.467 5.148 12.5193 4.88192 12.6208 4.63366C12.7223 4.38541 12.8711 4.15984 13.0586 3.96985C13.2462 3.77986 13.4688 3.62916 13.7139 3.52636C13.9589 3.42357 14.2216 3.37068 14.4868 3.37073ZM30.7888 3.61841H34.2699V13.6352L38.2151 9.0124H42.483L37.9141 14.2708L42.3869 20.3805H38.0117L34.3163 14.7661H34.2706V20.3798H30.7895L30.7888 3.61841ZM18.1575 9.01862H21.5004V10.5708H21.5479C21.8818 9.99124 22.3648 9.51441 22.9453 9.19127C23.5259 8.86813 24.1821 8.7108 24.844 8.73609C28.374 8.73609 29.0238 11.0892 29.0238 14.1463V20.375H25.5428V14.8527C25.5428 13.5346 25.5188 11.8402 23.7297 11.8402C21.9203 11.8402 21.6411 13.2755 21.6411 14.7569V20.3735H18.16L18.1575 9.01862ZM49.8143 13.3756C49.821 13.0894 49.7702 12.8049 49.6652 12.5392C49.5601 12.2735 49.4029 12.0322 49.2031 11.8299C49.0033 11.6276 48.765 11.4685 48.5027 11.3622C48.2404 11.2559 47.9595 11.2047 47.6771 11.2116C47.0689 11.1733 46.4701 11.3787 46.01 11.7834C45.5498 12.1882 45.2651 12.76 45.2171 13.3756H49.8143ZM52.7631 18.4088C52.1846 19.1195 51.4574 19.691 50.6341 20.0818C49.8107 20.4726 48.9119 20.6731 48.0027 20.6686C44.5217 20.6686 41.7346 18.3144 41.7346 14.6688C41.7346 11.0232 44.5213 8.67004 48.0027 8.67004C51.2564 8.67004 53.2968 11.0213 53.2968 14.6688V15.7746H45.2171C45.3177 16.4018 45.6386 16.9709 46.1208 17.3773C46.6029 17.7837 47.2137 17.9998 47.8406 17.9859C48.3361 17.9828 48.8229 17.8542 49.2568 17.6118C49.6907 17.3693 50.0579 17.0208 50.3249 16.5979L52.7631 18.4088ZM60.5523 11.763C58.8117 11.763 57.7674 12.9405 57.7674 14.6562C57.7674 16.3719 58.8114 17.5505 60.5523 17.5505C62.2932 17.5505 63.3397 16.3749 63.3397 14.6562C63.3397 12.9376 62.295 11.763 60.5523 11.763ZM66.5444 20.3735H63.3397V18.8672H63.2922C62.8901 19.4151 62.3686 19.8616 61.7684 20.1718C61.1681 20.482 60.5052 20.6476 59.8314 20.6557C56.4867 20.6557 54.2834 18.21 54.2834 14.7514C54.2834 11.5749 56.2332 8.65824 59.4383 8.65824C60.879 8.65824 62.2246 9.05759 63.014 10.1645H63.0597V3.61731H66.5441L66.5444 20.3735ZM90.045 20.3801H86.564V14.8568C86.564 13.5397 86.5408 11.8442 84.7535 11.8442C82.9404 11.8442 82.663 13.2792 82.663 14.7609V20.3797H79.1819V9.02154H82.5238V10.5738H82.5705C82.905 9.9944 83.3883 9.5178 83.9689 9.1947C84.5495 8.87161 85.2058 8.71412 85.8678 8.73902C89.396 8.73902 90.0465 11.0903 90.0465 14.1492L90.045 20.3801ZM75.2541 7.46896C74.8546 7.46903 74.464 7.34907 74.1318 7.12423C73.7995 6.89939 73.5405 6.57979 73.3876 6.20582C73.2346 5.83186 73.1945 5.42034 73.2724 5.0233C73.3503 4.62627 73.5426 4.26154 73.8251 3.97525C74.1076 3.68896 74.4675 3.49396 74.8593 3.41492C75.2512 3.33587 75.6573 3.37633 76.0265 3.53118C76.3957 3.68602 76.7112 3.9483 76.9332 4.28484C77.1553 4.62138 77.2738 5.01707 77.2739 5.42187C77.2739 5.69065 77.2217 5.95681 77.1202 6.20515C77.0188 6.45348 76.87 6.67914 76.6825 6.86923C76.4949 7.05932 76.2722 7.21012 76.0272 7.31302C75.7821 7.41592 75.5194 7.46891 75.2541 7.46896ZM76.9947 20.3801H73.51V9.02154H76.9947V20.3801ZM91.7805 0.100255H71.7607C71.3064 0.0950592 70.8685 0.272852 70.5434 0.594563C70.2183 0.916274 70.0326 1.35558 70.0271 1.81596V22.1836C70.0325 22.6442 70.218 23.0838 70.5431 23.4058C70.8682 23.7279 71.3061 23.906 71.7607 23.9011H91.7805C92.236 23.9069 92.6752 23.7293 93.0015 23.4073C93.3279 23.0852 93.5147 22.6451 93.521 22.1836V1.81449C93.5145 1.3532 93.3276 0.913392 93.0012 0.591689C92.6749 0.269985 92.2358 0.0927006 91.7805 0.0987844" fill="#6A6A6A"/>
<path d="M0.812256 3.62091H4.43583V16.9938H11.1441V20.3819H0.812256V3.62091ZM12.7462 9.01748H16.2273V20.3757H12.7462V9.01748ZM14.4868 3.37073C14.8862 3.3708 15.2766 3.49086 15.6086 3.71572C15.9406 3.94058 16.1994 4.26014 16.3522 4.634C16.505 5.00786 16.5449 5.41923 16.467 5.81609C16.389 6.21295 16.1966 6.57747 15.9142 6.86357C15.6318 7.14967 15.272 7.3445 14.8803 7.42341C14.4885 7.50233 14.0825 7.46179 13.7136 7.30692C13.3446 7.15205 13.0292 6.88981 12.8073 6.55336C12.5855 6.21691 12.467 5.82135 12.467 5.41671C12.467 5.148 12.5193 4.88192 12.6208 4.63366C12.7223 4.38541 12.8711 4.15984 13.0586 3.96985C13.2462 3.77986 13.4688 3.62916 13.7139 3.52636C13.9589 3.42357 14.2216 3.37068 14.4868 3.37073ZM30.7888 3.61841H34.2699V13.6352L38.2151 9.0124H42.483L37.9141 14.2708L42.3869 20.3805H38.0117L34.3163 14.7661H34.2706V20.3798H30.7895L30.7888 3.61841ZM18.1575 9.01862H21.5004V10.5708H21.5479C21.8818 9.99124 22.3648 9.51441 22.9453 9.19127C23.5259 8.86813 24.1821 8.7108 24.844 8.73609C28.374 8.73609 29.0238 11.0892 29.0238 14.1463V20.375H25.5428V14.8527C25.5428 13.5346 25.5188 11.8402 23.7297 11.8402C21.9203 11.8402 21.6411 13.2755 21.6411 14.7569V20.3735H18.16L18.1575 9.01862ZM49.8143 13.3756C49.821 13.0894 49.7702 12.8049 49.6652 12.5392C49.5601 12.2735 49.4029 12.0322 49.2031 11.8299C49.0033 11.6276 48.765 11.4685 48.5027 11.3622C48.2404 11.2559 47.9595 11.2047 47.6771 11.2116C47.0689 11.1733 46.4701 11.3787 46.01 11.7834C45.5498 12.1882 45.2651 12.76 45.2171 13.3756H49.8143ZM52.7631 18.4088C52.1846 19.1195 51.4574 19.691 50.6341 20.0818C49.8107 20.4726 48.9119 20.6731 48.0027 20.6686C44.5217 20.6686 41.7346 18.3144 41.7346 14.6688C41.7346 11.0232 44.5213 8.67004 48.0027 8.67004C51.2564 8.67004 53.2968 11.0213 53.2968 14.6688V15.7746H45.2171C45.3177 16.4018 45.6386 16.9709 46.1208 17.3773C46.6029 17.7837 47.2137 17.9998 47.8406 17.9859C48.3361 17.9828 48.8229 17.8542 49.2568 17.6118C49.6907 17.3693 50.0579 17.0208 50.3249 16.5979L52.7631 18.4088ZM60.5523 11.763C58.8117 11.763 57.7674 12.9405 57.7674 14.6562C57.7674 16.3719 58.8114 17.5505 60.5523 17.5505C62.2932 17.5505 63.3397 16.3749 63.3397 14.6562C63.3397 12.9376 62.295 11.763 60.5523 11.763ZM66.5444 20.3735H63.3397V18.8672H63.2922C62.8901 19.4151 62.3686 19.8616 61.7684 20.1718C61.1681 20.482 60.5052 20.6476 59.8314 20.6557C56.4867 20.6557 54.2834 18.21 54.2834 14.7514C54.2834 11.5749 56.2332 8.65824 59.4383 8.65824C60.879 8.65824 62.2246 9.05759 63.014 10.1645H63.0597V3.61731H66.5441L66.5444 20.3735ZM90.045 20.3801H86.564V14.8568C86.564 13.5397 86.5408 11.8442 84.7535 11.8442C82.9404 11.8442 82.663 13.2792 82.663 14.7609V20.3797H79.1819V9.02154H82.5238V10.5738H82.5705C82.905 9.9944 83.3883 9.5178 83.9689 9.1947C84.5495 8.87161 85.2058 8.71412 85.8678 8.73902C89.396 8.73902 90.0465 11.0903 90.0465 14.1492L90.045 20.3801ZM75.2541 7.46896C74.8546 7.46903 74.464 7.34907 74.1318 7.12423C73.7995 6.89939 73.5405 6.57979 73.3876 6.20582C73.2346 5.83186 73.1945 5.42034 73.2724 5.0233C73.3503 4.62627 73.5426 4.26154 73.8251 3.97525C74.1076 3.68896 74.4675 3.49396 74.8593 3.41492C75.2512 3.33587 75.6573 3.37633 76.0265 3.53118C76.3957 3.68602 76.7112 3.9483 76.9332 4.28484C77.1553 4.62138 77.2738 5.01707 77.2739 5.42187C77.2739 5.69065 77.2217 5.95681 77.1202 6.20515C77.0188 6.45348 76.87 6.67914 76.6825 6.86923C76.4949 7.05932 76.2722 7.21012 76.0272 7.31302C75.7821 7.41592 75.5194 7.46891 75.2541 7.46896ZM76.9947 20.3801H73.51V9.02154H76.9947V20.3801ZM91.7805 0.100255H71.7607C71.3064 0.0950592 70.8685 0.272852 70.5434 0.594563C70.2183 0.916274 70.0326 1.35558 70.0271 1.81596V22.1836C70.0325 22.6442 70.218 23.0838 70.5431 23.4058C70.8682 23.7279 71.3061 23.906 71.7607 23.9011H91.7805C92.236 23.9069 92.6752 23.7293 93.0015 23.4073C93.3279 23.0852 93.5147 22.6451 93.521 22.1836V1.81449C93.5145 1.3532 93.3276 0.913392 93.0012 0.591689C92.6749 0.269985 92.2358 0.0927006 91.7805 0.0987844" fill="#6A6A6A"/>
<path d="M0.812256 3.62091H4.43583V16.9938H11.1441V20.3819H0.812256V3.62091ZM12.7462 9.01748H16.2273V20.3757H12.7462V9.01748ZM14.4868 3.37073C14.8862 3.3708 15.2766 3.49086 15.6086 3.71572C15.9406 3.94058 16.1994 4.26014 16.3522 4.634C16.505 5.00786 16.5449 5.41923 16.467 5.81609C16.389 6.21295 16.1966 6.57747 15.9142 6.86357C15.6318 7.14967 15.272 7.3445 14.8803 7.42341C14.4885 7.50233 14.0825 7.46179 13.7136 7.30692C13.3446 7.15205 13.0292 6.88981 12.8073 6.55336C12.5855 6.21691 12.467 5.82135 12.467 5.41671C12.467 5.148 12.5193 4.88192 12.6208 4.63366C12.7223 4.38541 12.8711 4.15984 13.0586 3.96985C13.2462 3.77986 13.4688 3.62916 13.7139 3.52636C13.9589 3.42357 14.2216 3.37068 14.4868 3.37073ZM30.7888 3.61841H34.2699V13.6352L38.2151 9.0124H42.483L37.9141 14.2708L42.3869 20.3805H38.0117L34.3163 14.7661H34.2706V20.3798H30.7895L30.7888 3.61841ZM18.1575 9.01862H21.5004V10.5708H21.5479C21.8818 9.99124 22.3648 9.51441 22.9453 9.19127C23.5259 8.86813 24.1821 8.7108 24.844 8.73609C28.374 8.73609 29.0238 11.0892 29.0238 14.1463V20.375H25.5428V14.8527C25.5428 13.5346 25.5188 11.8402 23.7297 11.8402C21.9203 11.8402 21.6411 13.2755 21.6411 14.7569V20.3735H18.16L18.1575 9.01862ZM49.8143 13.3756C49.821 13.0894 49.7702 12.8049 49.6652 12.5392C49.5601 12.2735 49.4029 12.0322 49.2031 11.8299C49.0033 11.6276 48.765 11.4685 48.5027 11.3622C48.2404 11.2559 47.9595 11.2047 47.6771 11.2116C47.0689 11.1733 46.4701 11.3787 46.01 11.7834C45.5498 12.1882 45.2651 12.76 45.2171 13.3756H49.8143ZM52.7631 18.4088C52.1846 19.1195 51.4574 19.691 50.6341 20.0818C49.8107 20.4726 48.9119 20.6731 48.0027 20.6686C44.5217 20.6686 41.7346 18.3144 41.7346 14.6688C41.7346 11.0232 44.5213 8.67004 48.0027 8.67004C51.2564 8.67004 53.2968 11.0213 53.2968 14.6688V15.7746H45.2171C45.3177 16.4018 45.6386 16.9709 46.1208 17.3773C46.6029 17.7837 47.2137 17.9998 47.8406 17.9859C48.3361 17.9828 48.8229 17.8542 49.2568 17.6118C49.6907 17.3693 50.0579 17.0208 50.3249 16.5979L52.7631 18.4088ZM60.5523 11.763C58.8117 11.763 57.7674 12.9405 57.7674 14.6562C57.7674 16.3719 58.8114 17.5505 60.5523 17.5505C62.2932 17.5505 63.3397 16.3749 63.3397 14.6562C63.3397 12.9376 62.295 11.763 60.5523 11.763ZM66.5444 20.3735H63.3397V18.8672H63.2922C62.8901 19.4151 62.3686 19.8616 61.7684 20.1718C61.1681 20.482 60.5052 20.6476 59.8314 20.6557C56.4867 20.6557 54.2834 18.21 54.2834 14.7514C54.2834 11.5749 56.2332 8.65824 59.4383 8.65824C60.879 8.65824 62.2246 9.05759 63.014 10.1645H63.0597V3.61731H66.5441L66.5444 20.3735ZM90.045 20.3801H86.564V14.8568C86.564 13.5397 86.5408 11.8442 84.7535 11.8442C82.9404 11.8442 82.663 13.2792 82.663 14.7609V20.3797H79.1819V9.02154H82.5238V10.5738H82.5705C82.905 9.9944 83.3883 9.5178 83.9689 9.1947C84.5495 8.87161 85.2058 8.71412 85.8678 8.73902C89.396 8.73902 90.0465 11.0903 90.0465 14.1492L90.045 20.3801ZM75.2541 7.46896C74.8546 7.46903 74.464 7.34907 74.1318 7.12423C73.7995 6.89939 73.5405 6.57979 73.3876 6.20582C73.2346 5.83186 73.1945 5.42034 73.2724 5.0233C73.3503 4.62627 73.5426 4.26154 73.8251 3.97525C74.1076 3.68896 74.4675 3.49396 74.8593 3.41492C75.2512 3.33587 75.6573 3.37633 76.0265 3.53118C76.3957 3.68602 76.7112 3.9483 76.9332 4.28484C77.1553 4.62138 77.2738 5.01707 77.2739 5.42187C77.2739 5.69065 77.2217 5.95681 77.1202 6.20515C77.0188 6.45348 76.87 6.67914 76.6825 6.86923C76.4949 7.05932 76.2722 7.21012 76.0272 7.31302C75.7821 7.41592 75.5194 7.46891 75.2541 7.46896ZM76.9947 20.3801H73.51V9.02154H76.9947V20.3801ZM91.7805 0.100255H71.7607C71.3064 0.0950592 70.8685 0.272852 70.5434 0.594563C70.2183 0.916274 70.0326 1.35558 70.0271 1.81596V22.1836C70.0325 22.6442 70.218 23.0838 70.5431 23.4058C70.8682 23.7279 71.3061 23.906 71.7607 23.9011H91.7805C92.236 23.9069 92.6752 23.7293 93.0015 23.4073C93.3279 23.0852 93.5147 22.6451 93.521 22.1836V1.81449C93.5145 1.3532 93.3276 0.913392 93.0012 0.591689C92.6749 0.269985 92.2358 0.0927006 91.7805 0.0987844" fill="#6A6A6A"/>
<path d="M0.812256 3.62091H4.43583V16.9938H11.1441V20.3819H0.812256V3.62091ZM12.7462 9.01748H16.2273V20.3757H12.7462V9.01748ZM14.4868 3.37073C14.8862 3.3708 15.2766 3.49086 15.6086 3.71572C15.9406 3.94058 16.1994 4.26014 16.3522 4.634C16.505 5.00786 16.5449 5.41923 16.467 5.81609C16.389 6.21295 16.1966 6.57747 15.9142 6.86357C15.6318 7.14967 15.272 7.3445 14.8803 7.42341C14.4885 7.50233 14.0825 7.46179 13.7136 7.30692C13.3446 7.15205 13.0292 6.88981 12.8073 6.55336C12.5855 6.21691 12.467 5.82135 12.467 5.41671C12.467 5.148 12.5193 4.88192 12.6208 4.63366C12.7223 4.38541 12.8711 4.15984 13.0586 3.96985C13.2462 3.77986 13.4688 3.62916 13.7139 3.52636C13.9589 3.42357 14.2216 3.37068 14.4868 3.37073ZM30.7888 3.61841H34.2699V13.6352L38.2151 9.0124H42.483L37.9141 14.2708L42.3869 20.3805H38.0117L34.3163 14.7661H34.2706V20.3798H30.7895L30.7888 3.61841ZM18.1575 9.01862H21.5004V10.5708H21.5479C21.8818 9.99124 22.3648 9.51441 22.9453 9.19127C23.5259 8.86813 24.1821 8.7108 24.844 8.73609C28.374 8.73609 29.0238 11.0892 29.0238 14.1463V20.375H25.5428V14.8527C25.5428 13.5346 25.5188 11.8402 23.7297 11.8402C21.9203 11.8402 21.6411 13.2755 21.6411 14.7569V20.3735H18.16L18.1575 9.01862ZM49.8143 13.3756C49.821 13.0894 49.7702 12.8049 49.6652 12.5392C49.5601 12.2735 49.4029 12.0322 49.2031 11.8299C49.0033 11.6276 48.765 11.4685 48.5027 11.3622C48.2404 11.2559 47.9595 11.2047 47.6771 11.2116C47.0689 11.1733 46.4701 11.3787 46.01 11.7834C45.5498 12.1882 45.2651 12.76 45.2171 13.3756H49.8143ZM52.7631 18.4088C52.1846 19.1195 51.4574 19.691 50.6341 20.0818C49.8107 20.4726 48.9119 20.6731 48.0027 20.6686C44.5217 20.6686 41.7346 18.3144 41.7346 14.6688C41.7346 11.0232 44.5213 8.67004 48.0027 8.67004C51.2564 8.67004 53.2968 11.0213 53.2968 14.6688V15.7746H45.2171C45.3177 16.4018 45.6386 16.9709 46.1208 17.3773C46.6029 17.7837 47.2137 17.9998 47.8406 17.9859C48.3361 17.9828 48.8229 17.8542 49.2568 17.6118C49.6907 17.3693 50.0579 17.0208 50.3249 16.5979L52.7631 18.4088ZM60.5523 11.763C58.8117 11.763 57.7674 12.9405 57.7674 14.6562C57.7674 16.3719 58.8114 17.5505 60.5523 17.5505C62.2932 17.5505 63.3397 16.3749 63.3397 14.6562C63.3397 12.9376 62.295 11.763 60.5523 11.763ZM66.5444 20.3735H63.3397V18.8672H63.2922C62.8901 19.4151 62.3686 19.8616 61.7684 20.1718C61.1681 20.482 60.5052 20.6476 59.8314 20.6557C56.4867 20.6557 54.2834 18.21 54.2834 14.7514C54.2834 11.5749 56.2332 8.65824 59.4383 8.65824C60.879 8.65824 62.2246 9.05759 63.014 10.1645H63.0597V3.61731H66.5441L66.5444 20.3735ZM90.045 20.3801H86.564V14.8568C86.564 13.5397 86.5408 11.8442 84.7535 11.8442C82.9404 11.8442 82.663 13.2792 82.663 14.7609V20.3797H79.1819V9.02154H82.5238V10.5738H82.5705C82.905 9.9944 83.3883 9.5178 83.9689 9.1947C84.5495 8.87161 85.2058 8.71412 85.8678 8.73902C89.396 8.73902 90.0465 11.0903 90.0465 14.1492L90.045 20.3801ZM75.2541 7.46896C74.8546 7.46903 74.464 7.34907 74.1318 7.12423C73.7995 6.89939 73.5405 6.57979 73.3876 6.20582C73.2346 5.83186 73.1945 5.42034 73.2724 5.0233C73.3503 4.62627 73.5426 4.26154 73.8251 3.97525C74.1076 3.68896 74.4675 3.49396 74.8593 3.41492C75.2512 3.33587 75.6573 3.37633 76.0265 3.53118C76.3957 3.68602 76.7112 3.9483 76.9332 4.28484C77.1553 4.62138 77.2738 5.01707 77.2739 5.42187C77.2739 5.69065 77.2217 5.95681 77.1202 6.20515C77.0188 6.45348 76.87 6.67914 76.6825 6.86923C76.4949 7.05932 76.2722 7.21012 76.0272 7.31302C75.7821 7.41592 75.5194 7.46891 75.2541 7.46896ZM76.9947 20.3801H73.51V9.02154H76.9947V20.3801ZM91.7805 0.100255H71.7607C71.3064 0.0950592 70.8685 0.272852 70.5434 0.594563C70.2183 0.916274 70.0326 1.35558 70.0271 1.81596V22.1836C70.0325 22.6442 70.218 23.0838 70.5431 23.4058C70.8682 23.7279 71.3061 23.906 71.7607 23.9011H91.7805C92.236 23.9069 92.6752 23.7293 93.0015 23.4073C93.3279 23.0852 93.5147 22.6451 93.521 22.1836V1.81449C93.5145 1.3532 93.3276 0.913392 93.0012 0.591689C92.6749 0.269985 92.2358 0.0927006 91.7805 0.0987844" fill="#6A6A6A"/>
<path d="M0.812256 3.62091H4.43583V16.9938H11.1441V20.3819H0.812256V3.62091ZM12.7462 9.01748H16.2273V20.3757H12.7462V9.01748ZM14.4868 3.37073C14.8862 3.3708 15.2766 3.49086 15.6086 3.71572C15.9406 3.94058 16.1994 4.26014 16.3522 4.634C16.505 5.00786 16.5449 5.41923 16.467 5.81609C16.389 6.21295 16.1966 6.57747 15.9142 6.86357C15.6318 7.14967 15.272 7.3445 14.8803 7.42341C14.4885 7.50233 14.0825 7.46179 13.7136 7.30692C13.3446 7.15205 13.0292 6.88981 12.8073 6.55336C12.5855 6.21691 12.467 5.82135 12.467 5.41671C12.467 5.148 12.5193 4.88192 12.6208 4.63366C12.7223 4.38541 12.8711 4.15984 13.0586 3.96985C13.2462 3.77986 13.4688 3.62916 13.7139 3.52636C13.9589 3.42357 14.2216 3.37068 14.4868 3.37073ZM30.7888 3.61841H34.2699V13.6352L38.2151 9.0124H42.483L37.9141 14.2708L42.3869 20.3805H38.0117L34.3163 14.7661H34.2706V20.3798H30.7895L30.7888 3.61841ZM18.1575 9.01862H21.5004V10.5708H21.5479C21.8818 9.99124 22.3648 9.51441 22.9453 9.19127C23.5259 8.86813 24.1821 8.7108 24.844 8.73609C28.374 8.73609 29.0238 11.0892 29.0238 14.1463V20.375H25.5428V14.8527C25.5428 13.5346 25.5188 11.8402 23.7297 11.8402C21.9203 11.8402 21.6411 13.2755 21.6411 14.7569V20.3735H18.16L18.1575 9.01862ZM49.8143 13.3756C49.821 13.0894 49.7702 12.8049 49.6652 12.5392C49.5601 12.2735 49.4029 12.0322 49.2031 11.8299C49.0033 11.6276 48.765 11.4685 48.5027 11.3622C48.2404 11.2559 47.9595 11.2047 47.6771 11.2116C47.0689 11.1733 46.4701 11.3787 46.01 11.7834C45.5498 12.1882 45.2651 12.76 45.2171 13.3756H49.8143ZM52.7631 18.4088C52.1846 19.1195 51.4574 19.691 50.6341 20.0818C49.8107 20.4726 48.9119 20.6731 48.0027 20.6686C44.5217 20.6686 41.7346 18.3144 41.7346 14.6688C41.7346 11.0232 44.5213 8.67004 48.0027 8.67004C51.2564 8.67004 53.2968 11.0213 53.2968 14.6688V15.7746H45.2171C45.3177 16.4018 45.6386 16.9709 46.1208 17.3773C46.6029 17.7837 47.2137 17.9998 47.8406 17.9859C48.3361 17.9828 48.8229 17.8542 49.2568 17.6118C49.6907 17.3693 50.0579 17.0208 50.3249 16.5979L52.7631 18.4088ZM60.5523 11.763C58.8117 11.763 57.7674 12.9405 57.7674 14.6562C57.7674 16.3719 58.8114 17.5505 60.5523 17.5505C62.2932 17.5505 63.3397 16.3749 63.3397 14.6562C63.3397 12.9376 62.295 11.763 60.5523 11.763ZM66.5444 20.3735H63.3397V18.8672H63.2922C62.8901 19.4151 62.3686 19.8616 61.7684 20.1718C61.1681 20.482 60.5052 20.6476 59.8314 20.6557C56.4867 20.6557 54.2834 18.21 54.2834 14.7514C54.2834 11.5749 56.2332 8.65824 59.4383 8.65824C60.879 8.65824 62.2246 9.05759 63.014 10.1645H63.0597V3.61731H66.5441L66.5444 20.3735ZM90.045 20.3801H86.564V14.8568C86.564 13.5397 86.5408 11.8442 84.7535 11.8442C82.9404 11.8442 82.663 13.2792 82.663 14.7609V20.3797H79.1819V9.02154H82.5238V10.5738H82.5705C82.905 9.9944 83.3883 9.5178 83.9689 9.1947C84.5495 8.87161 85.2058 8.71412 85.8678 8.73902C89.396 8.73902 90.0465 11.0903 90.0465 14.1492L90.045 20.3801ZM75.2541 7.46896C74.8546 7.46903 74.464 7.34907 74.1318 7.12423C73.7995 6.89939 73.5405 6.57979 73.3876 6.20582C73.2346 5.83186 73.1945 5.42034 73.2724 5.0233C73.3503 4.62627 73.5426 4.26154 73.8251 3.97525C74.1076 3.68896 74.4675 3.49396 74.8593 3.41492C75.2512 3.33587 75.6573 3.37633 76.0265 3.53118C76.3957 3.68602 76.7112 3.9483 76.9332 4.28484C77.1553 4.62138 77.2738 5.01707 77.2739 5.42187C77.2739 5.69065 77.2217 5.95681 77.1202 6.20515C77.0188 6.45348 76.87 6.67914 76.6825 6.86923C76.4949 7.05932 76.2722 7.21012 76.0272 7.31302C75.7821 7.41592 75.5194 7.46891 75.2541 7.46896ZM76.9947 20.3801H73.51V9.02154H76.9947V20.3801ZM91.7805 0.100255H71.7607C71.3064 0.0950592 70.8685 0.272852 70.5434 0.594563C70.2183 0.916274 70.0326 1.35558 70.0271 1.81596V22.1836C70.0325 22.6442 70.218 23.0838 70.5431 23.4058C70.8682 23.7279 71.3061 23.906 71.7607 23.9011H91.7805C92.236 23.9069 92.6752 23.7293 93.0015 23.4073C93.3279 23.0852 93.5147 22.6451 93.521 22.1836V1.81449C93.5145 1.3532 93.3276 0.913392 93.0012 0.591689C92.6749 0.269985 92.2358 0.0927006 91.7805 0.0987844" fill="#6A6A6A"/>
<path d="M0.812256 3.62091H4.43583V16.9938H11.1441V20.3819H0.812256V3.62091ZM12.7462 9.01748H16.2273V20.3757H12.7462V9.01748ZM14.4868 3.37073C14.8862 3.3708 15.2766 3.49086 15.6086 3.71572C15.9406 3.94058 16.1994 4.26014 16.3522 4.634C16.505 5.00786 16.5449 5.41923 16.467 5.81609C16.389 6.21295 16.1966 6.57747 15.9142 6.86357C15.6318 7.14967 15.272 7.3445 14.8803 7.42341C14.4885 7.50233 14.0825 7.46179 13.7136 7.30692C13.3446 7.15205 13.0292 6.88981 12.8073 6.55336C12.5855 6.21691 12.467 5.82135 12.467 5.41671C12.467 5.148 12.5193 4.88192 12.6208 4.63366C12.7223 4.38541 12.8711 4.15984 13.0586 3.96985C13.2462 3.77986 13.4688 3.62916 13.7139 3.52636C13.9589 3.42357 14.2216 3.37068 14.4868 3.37073ZM30.7888 3.61841H34.2699V13.6352L38.2151 9.0124H42.483L37.9141 14.2708L42.3869 20.3805H38.0117L34.3163 14.7661H34.2706V20.3798H30.7895L30.7888 3.61841ZM18.1575 9.01862H21.5004V10.5708H21.5479C21.8818 9.99124 22.3648 9.51441 22.9453 9.19127C23.5259 8.86813 24.1821 8.7108 24.844 8.73609C28.374 8.73609 29.0238 11.0892 29.0238 14.1463V20.375H25.5428V14.8527C25.5428 13.5346 25.5188 11.8402 23.7297 11.8402C21.9203 11.8402 21.6411 13.2755 21.6411 14.7569V20.3735H18.16L18.1575 9.01862ZM49.8143 13.3756C49.821 13.0894 49.7702 12.8049 49.6652 12.5392C49.5601 12.2735 49.4029 12.0322 49.2031 11.8299C49.0033 11.6276 48.765 11.4685 48.5027 11.3622C48.2404 11.2559 47.9595 11.2047 47.6771 11.2116C47.0689 11.1733 46.4701 11.3787 46.01 11.7834C45.5498 12.1882 45.2651 12.76 45.2171 13.3756H49.8143ZM52.7631 18.4088C52.1846 19.1195 51.4574 19.691 50.6341 20.0818C49.8107 20.4726 48.9119 20.6731 48.0027 20.6686C44.5217 20.6686 41.7346 18.3144 41.7346 14.6688C41.7346 11.0232 44.5213 8.67004 48.0027 8.67004C51.2564 8.67004 53.2968 11.0213 53.2968 14.6688V15.7746H45.2171C45.3177 16.4018 45.6386 16.9709 46.1208 17.3773C46.6029 17.7837 47.2137 17.9998 47.8406 17.9859C48.3361 17.9828 48.8229 17.8542 49.2568 17.6118C49.6907 17.3693 50.0579 17.0208 50.3249 16.5979L52.7631 18.4088ZM60.5523 11.763C58.8117 11.763 57.7674 12.9405 57.7674 14.6562C57.7674 16.3719 58.8114 17.5505 60.5523 17.5505C62.2932 17.5505 63.3397 16.3749 63.3397 14.6562C63.3397 12.9376 62.295 11.763 60.5523 11.763ZM66.5444 20.3735H63.3397V18.8672H63.2922C62.8901 19.4151 62.3686 19.8616 61.7684 20.1718C61.1681 20.482 60.5052 20.6476 59.8314 20.6557C56.4867 20.6557 54.2834 18.21 54.2834 14.7514C54.2834 11.5749 56.2332 8.65824 59.4383 8.65824C60.879 8.65824 62.2246 9.05759 63.014 10.1645H63.0597V3.61731H66.5441L66.5444 20.3735ZM90.045 20.3801H86.564V14.8568C86.564 13.5397 86.5408 11.8442 84.7535 11.8442C82.9404 11.8442 82.663 13.2792 82.663 14.7609V20.3797H79.1819V9.02154H82.5238V10.5738H82.5705C82.905 9.9944 83.3883 9.5178 83.9689 9.1947C84.5495 8.87161 85.2058 8.71412 85.8678 8.73902C89.396 8.73902 90.0465 11.0903 90.0465 14.1492L90.045 20.3801ZM75.2541 7.46896C74.8546 7.46903 74.464 7.34907 74.1318 7.12423C73.7995 6.89939 73.5405 6.57979 73.3876 6.20582C73.2346 5.83186 73.1945 5.42034 73.2724 5.0233C73.3503 4.62627 73.5426 4.26154 73.8251 3.97525C74.1076 3.68896 74.4675 3.49396 74.8593 3.41492C75.2512 3.33587 75.6573 3.37633 76.0265 3.53118C76.3957 3.68602 76.7112 3.9483 76.9332 4.28484C77.1553 4.62138 77.2738 5.01707 77.2739 5.42187C77.2739 5.69065 77.2217 5.95681 77.1202 6.20515C77.0188 6.45348 76.87 6.67914 76.6825 6.86923C76.4949 7.05932 76.2722 7.21012 76.0272 7.31302C75.7821 7.41592 75.5194 7.46891 75.2541 7.46896ZM76.9947 20.3801H73.51V9.02154H76.9947V20.3801ZM91.7805 0.100255H71.7607C71.3064 0.0950592 70.8685 0.272852 70.5434 0.594563C70.2183 0.916274 70.0326 1.35558 70.0271 1.81596V22.1836C70.0325 22.6442 70.218 23.0838 70.5431 23.4058C70.8682 23.7279 71.3061 23.906 71.7607 23.9011H91.7805C92.236 23.9069 92.6752 23.7293 93.0015 23.4073C93.3279 23.0852 93.5147 22.6451 93.521 22.1836V1.81449C93.5145 1.3532 93.3276 0.913392 93.0012 0.591689C92.6749 0.269985 92.2358 0.0927006 91.7805 0.0987844" fill="#6A6A6A"/>
</svg>
