<svg width="114" height="24" viewBox="0 0 114 24" fill="none" xmlns="http://www.w3.org/2000/svg">
<path d="M113.013 10.8577V8.88169H110.559V5.80974L110.477 5.83517L108.172 6.54036L108.126 6.55417V8.8818H104.489V7.58511C104.489 6.98132 104.624 6.51928 104.89 6.21114C105.154 5.90669 105.532 5.75191 106.014 5.75191C106.36 5.75191 106.719 5.83354 107.08 5.99451L107.171 6.03495V3.95394L107.128 3.93828C106.791 3.8172 106.333 3.75623 105.765 3.75623C105.049 3.75623 104.399 3.91198 103.832 4.22067C103.265 4.52978 102.818 4.97107 102.505 5.53214C102.194 6.09255 102.036 6.73981 102.036 7.45609V8.88169H100.327V10.8577H102.036V19.1823H104.489V10.8577H108.126V16.1478C108.126 18.3266 109.154 19.4306 111.181 19.4306C111.514 19.4306 111.864 19.3916 112.222 19.3152C112.587 19.2367 112.835 19.1584 112.981 19.0747L113.013 19.0556V17.0613L112.913 17.1273C112.78 17.2159 112.614 17.2884 112.42 17.3424C112.225 17.3972 112.062 17.4247 111.936 17.4247C111.461 17.4247 111.109 17.2968 110.892 17.0443C110.671 16.7895 110.559 16.344 110.559 15.7208V10.8577H113.013ZM94.8494 17.4251C93.9591 17.4251 93.2572 17.1299 92.7626 16.5484C92.2649 15.9639 92.0127 15.1307 92.0127 14.072C92.0127 12.9798 92.2649 12.1249 92.7628 11.5302C93.2578 10.9393 93.9529 10.6395 94.8294 10.6395C95.6799 10.6395 96.357 10.9259 96.842 11.4912C97.3293 12.0594 97.5767 12.9074 97.5767 14.0124C97.5767 15.1309 97.3441 15.9901 96.8854 16.5649C96.4299 17.1353 95.7449 17.4251 94.8494 17.4251ZM94.9585 8.63355C93.2599 8.63355 91.9108 9.13124 90.9489 10.1128C89.9877 11.0945 89.5003 12.4531 89.5003 14.1511C89.5003 15.7638 89.976 17.0611 90.9145 18.0061C91.8529 18.9515 93.1301 19.4304 94.7101 19.4304C96.3566 19.4304 97.6788 18.9258 98.6403 17.9306C99.6016 16.9365 100.089 15.5908 100.089 13.9325C100.089 12.2945 99.6316 10.9876 98.7298 10.0488C97.8276 9.10962 96.5585 8.63355 94.9585 8.63355ZM85.5455 8.63355C84.3902 8.63355 83.4344 8.92908 82.7044 9.51177C81.9698 10.0979 81.5972 10.8667 81.5972 11.797C81.5972 12.2806 81.6777 12.7101 81.8359 13.0745C81.9951 13.44 82.2415 13.7618 82.5689 14.0319C82.8938 14.2999 83.3953 14.5805 84.0598 14.866C84.6185 15.0959 85.0351 15.2904 85.2998 15.4436C85.5585 15.5938 85.7421 15.7448 85.8457 15.8919C85.9465 16.0358 85.9976 16.2327 85.9976 16.4758C85.9976 17.1678 85.4794 17.5045 84.413 17.5045C84.0175 17.5045 83.5663 17.4219 83.0721 17.2591C82.5813 17.0987 82.1182 16.8639 81.6989 16.5628L81.597 16.4898V18.8513L81.6344 18.8687C81.9815 19.0289 82.419 19.164 82.9348 19.2703C83.4495 19.3767 83.9172 19.4309 84.3235 19.4309C85.5773 19.4309 86.5869 19.1339 87.3236 18.5477C88.065 17.9576 88.4408 17.1706 88.4408 16.2082C88.4408 15.5138 88.2385 14.9184 87.8398 14.4382C87.4438 13.9619 86.7566 13.5247 85.798 13.1382C85.0344 12.8317 84.5452 12.5772 84.3433 12.3819C84.1488 12.1932 84.05 11.9264 84.05 11.5884C84.05 11.2889 84.1719 11.0489 84.4222 10.8546C84.6745 10.6592 85.0257 10.5599 85.4661 10.5599C85.8748 10.5599 86.2929 10.6245 86.7088 10.751C87.1243 10.8775 87.4893 11.0469 87.7939 11.2542L87.8941 11.3227V9.08255L87.8557 9.06603C87.5746 8.94549 87.204 8.84234 86.7538 8.75865C86.3056 8.6755 85.8991 8.63355 85.5455 8.63355ZM75.2028 17.4251C74.3127 17.4251 73.6106 17.1299 73.116 16.5484C72.6182 15.9639 72.3665 15.1309 72.3665 14.072C72.3665 12.9798 72.6185 12.1249 73.1166 11.5302C73.6111 10.9393 74.3062 10.6395 75.1831 10.6395C76.0333 10.6395 76.7103 10.9259 77.1954 11.4912C77.6829 12.0594 77.9302 12.9074 77.9302 14.0124C77.9302 15.1309 77.6975 15.9901 77.2388 16.5649C76.7833 17.1353 76.0986 17.4251 75.2028 17.4251ZM75.3121 8.63355C73.6132 8.63355 72.264 9.13124 71.3026 10.1128C70.3413 11.0945 69.8537 12.4531 69.8537 14.1511C69.8537 15.7645 70.3297 17.0611 71.2682 18.0061C72.2066 18.9515 73.4836 19.4304 75.0637 19.4304C76.7099 19.4304 78.0325 18.9258 78.9939 17.9306C79.9551 16.9365 80.4424 15.5908 80.4424 13.9325C80.4424 12.2945 79.9852 10.9876 79.0832 10.0488C78.1807 9.10962 76.9119 8.63355 75.3121 8.63355ZM66.1303 10.6655V8.88169H63.7074V19.1821H66.1303V13.913C66.1303 13.0171 66.3335 12.281 66.7343 11.7251C67.1301 11.1757 67.6574 10.8974 68.3013 10.8974C68.5196 10.8974 68.7646 10.9334 69.0299 11.0045C69.2925 11.0753 69.4827 11.1521 69.5949 11.233L69.6967 11.3068V8.86408L69.6575 8.84723C69.4318 8.75137 69.1126 8.703 68.7087 8.703C68.0998 8.703 67.5549 8.89864 67.0882 9.28385C66.6786 9.62242 66.3825 10.0866 66.1561 10.6655H66.1303ZM59.3683 8.63355C58.2567 8.63355 57.2652 8.87191 56.4219 9.34178C55.5768 9.81274 54.9232 10.4851 54.4786 11.3401C54.0359 12.193 53.8111 13.1892 53.8111 14.3003C53.8111 15.2735 54.029 16.1666 54.4598 16.9538C54.8907 17.7422 55.5007 18.3591 56.2729 18.7869C57.0439 19.2141 57.9351 19.4308 58.9218 19.4308C60.0733 19.4308 61.0564 19.2006 61.8446 18.7465L61.8765 18.7283V16.5085L61.7746 16.5828C61.4176 16.8429 61.0186 17.0505 60.5892 17.2001C60.161 17.3495 59.7706 17.4251 59.4282 17.4251C58.4775 17.4251 57.7142 17.1276 57.1602 16.5411C56.605 15.9538 56.3235 15.1292 56.3235 14.0915C56.3235 13.0473 56.6171 12.2015 57.1957 11.5774C57.7725 10.9551 58.5371 10.6395 59.4682 10.6395C60.2646 10.6395 61.0406 10.9091 61.7748 11.4417L61.8765 11.5155V9.17657L61.8436 9.15809C61.5673 9.00342 61.1905 8.87571 60.7227 8.77887C60.2568 8.68224 59.8012 8.63355 59.3683 8.63355ZM52.1424 8.8818H49.7194V19.1821H52.1424V8.8818ZM50.9557 4.49381C50.5569 4.49381 50.2091 4.62956 49.9233 4.89857C49.6364 5.16835 49.4908 5.50801 49.4908 5.90886C49.4908 6.30341 49.6346 6.63688 49.9189 6.89948C50.2013 7.16132 50.5502 7.29403 50.9558 7.29403C51.3613 7.29403 51.7115 7.16132 51.9973 6.89991C52.2849 6.63688 52.4307 6.30352 52.4307 5.90886C52.4307 5.52203 52.2888 5.18585 52.0091 4.90944C51.7297 4.63358 51.3751 4.49381 50.9557 4.49381ZM44.9103 8.12183V19.1821H47.383V4.80912H43.9606L39.6106 15.4849L35.3891 4.80912H31.8274V19.182H34.1511V8.12074H34.2309L38.6887 19.1821H40.4423L44.8305 8.12183H44.9103ZM12.0518 11.4044H0.653564V0.00610352H12.0518V11.4044ZM24.6366 11.4044H13.2385V0.00610352H24.6366V11.4044ZM12.0515 23.9938H0.653564V12.5956H12.0515V23.9938ZM24.6366 23.9938H13.2385V12.5956H24.6366V23.9938Z" fill="#6A6A6A"/>
<path d="M113.013 10.8577V8.88169H110.559V5.80974L110.477 5.83517L108.172 6.54036L108.126 6.55417V8.8818H104.489V7.58511C104.489 6.98132 104.624 6.51928 104.89 6.21114C105.154 5.90669 105.532 5.75191 106.014 5.75191C106.36 5.75191 106.719 5.83354 107.08 5.99451L107.171 6.03495V3.95394L107.128 3.93828C106.791 3.8172 106.333 3.75623 105.765 3.75623C105.049 3.75623 104.399 3.91198 103.832 4.22067C103.265 4.52978 102.818 4.97107 102.505 5.53214C102.194 6.09255 102.036 6.73981 102.036 7.45609V8.88169H100.327V10.8577H102.036V19.1823H104.489V10.8577H108.126V16.1478C108.126 18.3266 109.154 19.4306 111.181 19.4306C111.514 19.4306 111.864 19.3916 112.222 19.3152C112.587 19.2367 112.835 19.1584 112.981 19.0747L113.013 19.0556V17.0613L112.913 17.1273C112.78 17.2159 112.614 17.2884 112.42 17.3424C112.225 17.3972 112.062 17.4247 111.936 17.4247C111.461 17.4247 111.109 17.2968 110.892 17.0443C110.671 16.7895 110.559 16.344 110.559 15.7208V10.8577H113.013ZM94.8494 17.4251C93.9591 17.4251 93.2572 17.1299 92.7626 16.5484C92.2649 15.9639 92.0127 15.1307 92.0127 14.072C92.0127 12.9798 92.2649 12.1249 92.7628 11.5302C93.2578 10.9393 93.9529 10.6395 94.8294 10.6395C95.6799 10.6395 96.357 10.9259 96.842 11.4912C97.3293 12.0594 97.5767 12.9074 97.5767 14.0124C97.5767 15.1309 97.3441 15.9901 96.8854 16.5649C96.4299 17.1353 95.7449 17.4251 94.8494 17.4251ZM94.9585 8.63355C93.2599 8.63355 91.9108 9.13124 90.9489 10.1128C89.9877 11.0945 89.5003 12.4531 89.5003 14.1511C89.5003 15.7638 89.976 17.0611 90.9145 18.0061C91.8529 18.9515 93.1301 19.4304 94.7101 19.4304C96.3566 19.4304 97.6788 18.9258 98.6403 17.9306C99.6016 16.9365 100.089 15.5908 100.089 13.9325C100.089 12.2945 99.6316 10.9876 98.7298 10.0488C97.8276 9.10962 96.5585 8.63355 94.9585 8.63355ZM85.5455 8.63355C84.3902 8.63355 83.4344 8.92908 82.7044 9.51177C81.9698 10.0979 81.5972 10.8667 81.5972 11.797C81.5972 12.2806 81.6777 12.7101 81.8359 13.0745C81.9951 13.44 82.2415 13.7618 82.5689 14.0319C82.8938 14.2999 83.3953 14.5805 84.0598 14.866C84.6185 15.0959 85.0351 15.2904 85.2998 15.4436C85.5585 15.5938 85.7421 15.7448 85.8457 15.8919C85.9465 16.0358 85.9976 16.2327 85.9976 16.4758C85.9976 17.1678 85.4794 17.5045 84.413 17.5045C84.0175 17.5045 83.5663 17.4219 83.0721 17.2591C82.5813 17.0987 82.1182 16.8639 81.6989 16.5628L81.597 16.4898V18.8513L81.6344 18.8687C81.9815 19.0289 82.419 19.164 82.9348 19.2703C83.4495 19.3767 83.9172 19.4309 84.3235 19.4309C85.5773 19.4309 86.5869 19.1339 87.3236 18.5477C88.065 17.9576 88.4408 17.1706 88.4408 16.2082C88.4408 15.5138 88.2385 14.9184 87.8398 14.4382C87.4438 13.9619 86.7566 13.5247 85.798 13.1382C85.0344 12.8317 84.5452 12.5772 84.3433 12.3819C84.1488 12.1932 84.05 11.9264 84.05 11.5884C84.05 11.2889 84.1719 11.0489 84.4222 10.8546C84.6745 10.6592 85.0257 10.5599 85.4661 10.5599C85.8748 10.5599 86.2929 10.6245 86.7088 10.751C87.1243 10.8775 87.4893 11.0469 87.7939 11.2542L87.8941 11.3227V9.08255L87.8557 9.06603C87.5746 8.94549 87.204 8.84234 86.7538 8.75865C86.3056 8.6755 85.8991 8.63355 85.5455 8.63355ZM75.2028 17.4251C74.3127 17.4251 73.6106 17.1299 73.116 16.5484C72.6182 15.9639 72.3665 15.1309 72.3665 14.072C72.3665 12.9798 72.6185 12.1249 73.1166 11.5302C73.6111 10.9393 74.3062 10.6395 75.1831 10.6395C76.0333 10.6395 76.7103 10.9259 77.1954 11.4912C77.6829 12.0594 77.9302 12.9074 77.9302 14.0124C77.9302 15.1309 77.6975 15.9901 77.2388 16.5649C76.7833 17.1353 76.0986 17.4251 75.2028 17.4251ZM75.3121 8.63355C73.6132 8.63355 72.264 9.13124 71.3026 10.1128C70.3413 11.0945 69.8537 12.4531 69.8537 14.1511C69.8537 15.7645 70.3297 17.0611 71.2682 18.0061C72.2066 18.9515 73.4836 19.4304 75.0637 19.4304C76.7099 19.4304 78.0325 18.9258 78.9939 17.9306C79.9551 16.9365 80.4424 15.5908 80.4424 13.9325C80.4424 12.2945 79.9852 10.9876 79.0832 10.0488C78.1807 9.10962 76.9119 8.63355 75.3121 8.63355ZM66.1303 10.6655V8.88169H63.7074V19.1821H66.1303V13.913C66.1303 13.0171 66.3335 12.281 66.7343 11.7251C67.1301 11.1757 67.6574 10.8974 68.3013 10.8974C68.5196 10.8974 68.7646 10.9334 69.0299 11.0045C69.2925 11.0753 69.4827 11.1521 69.5949 11.233L69.6967 11.3068V8.86408L69.6575 8.84723C69.4318 8.75137 69.1126 8.703 68.7087 8.703C68.0998 8.703 67.5549 8.89864 67.0882 9.28385C66.6786 9.62242 66.3825 10.0866 66.1561 10.6655H66.1303ZM59.3683 8.63355C58.2567 8.63355 57.2652 8.87191 56.4219 9.34178C55.5768 9.81274 54.9232 10.4851 54.4786 11.3401C54.0359 12.193 53.8111 13.1892 53.8111 14.3003C53.8111 15.2735 54.029 16.1666 54.4598 16.9538C54.8907 17.7422 55.5007 18.3591 56.2729 18.7869C57.0439 19.2141 57.9351 19.4308 58.9218 19.4308C60.0733 19.4308 61.0564 19.2006 61.8446 18.7465L61.8765 18.7283V16.5085L61.7746 16.5828C61.4176 16.8429 61.0186 17.0505 60.5892 17.2001C60.161 17.3495 59.7706 17.4251 59.4282 17.4251C58.4775 17.4251 57.7142 17.1276 57.1602 16.5411C56.605 15.9538 56.3235 15.1292 56.3235 14.0915C56.3235 13.0473 56.6171 12.2015 57.1957 11.5774C57.7725 10.9551 58.5371 10.6395 59.4682 10.6395C60.2646 10.6395 61.0406 10.9091 61.7748 11.4417L61.8765 11.5155V9.17657L61.8436 9.15809C61.5673 9.00342 61.1905 8.87571 60.7227 8.77887C60.2568 8.68224 59.8012 8.63355 59.3683 8.63355ZM52.1424 8.8818H49.7194V19.1821H52.1424V8.8818ZM50.9557 4.49381C50.5569 4.49381 50.2091 4.62956 49.9233 4.89857C49.6364 5.16835 49.4908 5.50801 49.4908 5.90886C49.4908 6.30341 49.6346 6.63688 49.9189 6.89948C50.2013 7.16132 50.5502 7.29403 50.9558 7.29403C51.3613 7.29403 51.7115 7.16132 51.9973 6.89991C52.2849 6.63688 52.4307 6.30352 52.4307 5.90886C52.4307 5.52203 52.2888 5.18585 52.0091 4.90944C51.7297 4.63358 51.3751 4.49381 50.9557 4.49381ZM44.9103 8.12183V19.1821H47.383V4.80912H43.9606L39.6106 15.4849L35.3891 4.80912H31.8274V19.182H34.1511V8.12074H34.2309L38.6887 19.1821H40.4423L44.8305 8.12183H44.9103ZM12.0518 11.4044H0.653564V0.00610352H12.0518V11.4044ZM24.6366 11.4044H13.2385V0.00610352H24.6366V11.4044ZM12.0515 23.9938H0.653564V12.5956H12.0515V23.9938ZM24.6366 23.9938H13.2385V12.5956H24.6366V23.9938Z" fill="#6A6A6A"/>
<path d="M113.013 10.8577V8.88169H110.559V5.80974L110.477 5.83517L108.172 6.54036L108.126 6.55417V8.8818H104.489V7.58511C104.489 6.98132 104.624 6.51928 104.89 6.21114C105.154 5.90669 105.532 5.75191 106.014 5.75191C106.36 5.75191 106.719 5.83354 107.08 5.99451L107.171 6.03495V3.95394L107.128 3.93828C106.791 3.8172 106.333 3.75623 105.765 3.75623C105.049 3.75623 104.399 3.91198 103.832 4.22067C103.265 4.52978 102.818 4.97107 102.505 5.53214C102.194 6.09255 102.036 6.73981 102.036 7.45609V8.88169H100.327V10.8577H102.036V19.1823H104.489V10.8577H108.126V16.1478C108.126 18.3266 109.154 19.4306 111.181 19.4306C111.514 19.4306 111.864 19.3916 112.222 19.3152C112.587 19.2367 112.835 19.1584 112.981 19.0747L113.013 19.0556V17.0613L112.913 17.1273C112.78 17.2159 112.614 17.2884 112.42 17.3424C112.225 17.3972 112.062 17.4247 111.936 17.4247C111.461 17.4247 111.109 17.2968 110.892 17.0443C110.671 16.7895 110.559 16.344 110.559 15.7208V10.8577H113.013ZM94.8494 17.4251C93.9591 17.4251 93.2572 17.1299 92.7626 16.5484C92.2649 15.9639 92.0127 15.1307 92.0127 14.072C92.0127 12.9798 92.2649 12.1249 92.7628 11.5302C93.2578 10.9393 93.9529 10.6395 94.8294 10.6395C95.6799 10.6395 96.357 10.9259 96.842 11.4912C97.3293 12.0594 97.5767 12.9074 97.5767 14.0124C97.5767 15.1309 97.3441 15.9901 96.8854 16.5649C96.4299 17.1353 95.7449 17.4251 94.8494 17.4251ZM94.9585 8.63355C93.2599 8.63355 91.9108 9.13124 90.9489 10.1128C89.9877 11.0945 89.5003 12.4531 89.5003 14.1511C89.5003 15.7638 89.976 17.0611 90.9145 18.0061C91.8529 18.9515 93.1301 19.4304 94.7101 19.4304C96.3566 19.4304 97.6788 18.9258 98.6403 17.9306C99.6016 16.9365 100.089 15.5908 100.089 13.9325C100.089 12.2945 99.6316 10.9876 98.7298 10.0488C97.8276 9.10962 96.5585 8.63355 94.9585 8.63355ZM85.5455 8.63355C84.3902 8.63355 83.4344 8.92908 82.7044 9.51177C81.9698 10.0979 81.5972 10.8667 81.5972 11.797C81.5972 12.2806 81.6777 12.7101 81.8359 13.0745C81.9951 13.44 82.2415 13.7618 82.5689 14.0319C82.8938 14.2999 83.3953 14.5805 84.0598 14.866C84.6185 15.0959 85.0351 15.2904 85.2998 15.4436C85.5585 15.5938 85.7421 15.7448 85.8457 15.8919C85.9465 16.0358 85.9976 16.2327 85.9976 16.4758C85.9976 17.1678 85.4794 17.5045 84.413 17.5045C84.0175 17.5045 83.5663 17.4219 83.0721 17.2591C82.5813 17.0987 82.1182 16.8639 81.6989 16.5628L81.597 16.4898V18.8513L81.6344 18.8687C81.9815 19.0289 82.419 19.164 82.9348 19.2703C83.4495 19.3767 83.9172 19.4309 84.3235 19.4309C85.5773 19.4309 86.5869 19.1339 87.3236 18.5477C88.065 17.9576 88.4408 17.1706 88.4408 16.2082C88.4408 15.5138 88.2385 14.9184 87.8398 14.4382C87.4438 13.9619 86.7566 13.5247 85.798 13.1382C85.0344 12.8317 84.5452 12.5772 84.3433 12.3819C84.1488 12.1932 84.05 11.9264 84.05 11.5884C84.05 11.2889 84.1719 11.0489 84.4222 10.8546C84.6745 10.6592 85.0257 10.5599 85.4661 10.5599C85.8748 10.5599 86.2929 10.6245 86.7088 10.751C87.1243 10.8775 87.4893 11.0469 87.7939 11.2542L87.8941 11.3227V9.08255L87.8557 9.06603C87.5746 8.94549 87.204 8.84234 86.7538 8.75865C86.3056 8.6755 85.8991 8.63355 85.5455 8.63355ZM75.2028 17.4251C74.3127 17.4251 73.6106 17.1299 73.116 16.5484C72.6182 15.9639 72.3665 15.1309 72.3665 14.072C72.3665 12.9798 72.6185 12.1249 73.1166 11.5302C73.6111 10.9393 74.3062 10.6395 75.1831 10.6395C76.0333 10.6395 76.7103 10.9259 77.1954 11.4912C77.6829 12.0594 77.9302 12.9074 77.9302 14.0124C77.9302 15.1309 77.6975 15.9901 77.2388 16.5649C76.7833 17.1353 76.0986 17.4251 75.2028 17.4251ZM75.3121 8.63355C73.6132 8.63355 72.264 9.13124 71.3026 10.1128C70.3413 11.0945 69.8537 12.4531 69.8537 14.1511C69.8537 15.7645 70.3297 17.0611 71.2682 18.0061C72.2066 18.9515 73.4836 19.4304 75.0637 19.4304C76.7099 19.4304 78.0325 18.9258 78.9939 17.9306C79.9551 16.9365 80.4424 15.5908 80.4424 13.9325C80.4424 12.2945 79.9852 10.9876 79.0832 10.0488C78.1807 9.10962 76.9119 8.63355 75.3121 8.63355ZM66.1303 10.6655V8.88169H63.7074V19.1821H66.1303V13.913C66.1303 13.0171 66.3335 12.281 66.7343 11.7251C67.1301 11.1757 67.6574 10.8974 68.3013 10.8974C68.5196 10.8974 68.7646 10.9334 69.0299 11.0045C69.2925 11.0753 69.4827 11.1521 69.5949 11.233L69.6967 11.3068V8.86408L69.6575 8.84723C69.4318 8.75137 69.1126 8.703 68.7087 8.703C68.0998 8.703 67.5549 8.89864 67.0882 9.28385C66.6786 9.62242 66.3825 10.0866 66.1561 10.6655H66.1303ZM59.3683 8.63355C58.2567 8.63355 57.2652 8.87191 56.4219 9.34178C55.5768 9.81274 54.9232 10.4851 54.4786 11.3401C54.0359 12.193 53.8111 13.1892 53.8111 14.3003C53.8111 15.2735 54.029 16.1666 54.4598 16.9538C54.8907 17.7422 55.5007 18.3591 56.2729 18.7869C57.0439 19.2141 57.9351 19.4308 58.9218 19.4308C60.0733 19.4308 61.0564 19.2006 61.8446 18.7465L61.8765 18.7283V16.5085L61.7746 16.5828C61.4176 16.8429 61.0186 17.0505 60.5892 17.2001C60.161 17.3495 59.7706 17.4251 59.4282 17.4251C58.4775 17.4251 57.7142 17.1276 57.1602 16.5411C56.605 15.9538 56.3235 15.1292 56.3235 14.0915C56.3235 13.0473 56.6171 12.2015 57.1957 11.5774C57.7725 10.9551 58.5371 10.6395 59.4682 10.6395C60.2646 10.6395 61.0406 10.9091 61.7748 11.4417L61.8765 11.5155V9.17657L61.8436 9.15809C61.5673 9.00342 61.1905 8.87571 60.7227 8.77887C60.2568 8.68224 59.8012 8.63355 59.3683 8.63355ZM52.1424 8.8818H49.7194V19.1821H52.1424V8.8818ZM50.9557 4.49381C50.5569 4.49381 50.2091 4.62956 49.9233 4.89857C49.6364 5.16835 49.4908 5.50801 49.4908 5.90886C49.4908 6.30341 49.6346 6.63688 49.9189 6.89948C50.2013 7.16132 50.5502 7.29403 50.9558 7.29403C51.3613 7.29403 51.7115 7.16132 51.9973 6.89991C52.2849 6.63688 52.4307 6.30352 52.4307 5.90886C52.4307 5.52203 52.2888 5.18585 52.0091 4.90944C51.7297 4.63358 51.3751 4.49381 50.9557 4.49381ZM44.9103 8.12183V19.1821H47.383V4.80912H43.9606L39.6106 15.4849L35.3891 4.80912H31.8274V19.182H34.1511V8.12074H34.2309L38.6887 19.1821H40.4423L44.8305 8.12183H44.9103ZM12.0518 11.4044H0.653564V0.00610352H12.0518V11.4044ZM24.6366 11.4044H13.2385V0.00610352H24.6366V11.4044ZM12.0515 23.9938H0.653564V12.5956H12.0515V23.9938ZM24.6366 23.9938H13.2385V12.5956H24.6366V23.9938Z" fill="#6A6A6A"/>
<path d="M113.013 10.8577V8.88169H110.559V5.80974L110.477 5.83517L108.172 6.54036L108.126 6.55417V8.8818H104.489V7.58511C104.489 6.98132 104.624 6.51928 104.89 6.21114C105.154 5.90669 105.532 5.75191 106.014 5.75191C106.36 5.75191 106.719 5.83354 107.08 5.99451L107.171 6.03495V3.95394L107.128 3.93828C106.791 3.8172 106.333 3.75623 105.765 3.75623C105.049 3.75623 104.399 3.91198 103.832 4.22067C103.265 4.52978 102.818 4.97107 102.505 5.53214C102.194 6.09255 102.036 6.73981 102.036 7.45609V8.88169H100.327V10.8577H102.036V19.1823H104.489V10.8577H108.126V16.1478C108.126 18.3266 109.154 19.4306 111.181 19.4306C111.514 19.4306 111.864 19.3916 112.222 19.3152C112.587 19.2367 112.835 19.1584 112.981 19.0747L113.013 19.0556V17.0613L112.913 17.1273C112.78 17.2159 112.614 17.2884 112.42 17.3424C112.225 17.3972 112.062 17.4247 111.936 17.4247C111.461 17.4247 111.109 17.2968 110.892 17.0443C110.671 16.7895 110.559 16.344 110.559 15.7208V10.8577H113.013ZM94.8494 17.4251C93.9591 17.4251 93.2572 17.1299 92.7626 16.5484C92.2649 15.9639 92.0127 15.1307 92.0127 14.072C92.0127 12.9798 92.2649 12.1249 92.7628 11.5302C93.2578 10.9393 93.9529 10.6395 94.8294 10.6395C95.6799 10.6395 96.357 10.9259 96.842 11.4912C97.3293 12.0594 97.5767 12.9074 97.5767 14.0124C97.5767 15.1309 97.3441 15.9901 96.8854 16.5649C96.4299 17.1353 95.7449 17.4251 94.8494 17.4251ZM94.9585 8.63355C93.2599 8.63355 91.9108 9.13124 90.9489 10.1128C89.9877 11.0945 89.5003 12.4531 89.5003 14.1511C89.5003 15.7638 89.976 17.0611 90.9145 18.0061C91.8529 18.9515 93.1301 19.4304 94.7101 19.4304C96.3566 19.4304 97.6788 18.9258 98.6403 17.9306C99.6016 16.9365 100.089 15.5908 100.089 13.9325C100.089 12.2945 99.6316 10.9876 98.7298 10.0488C97.8276 9.10962 96.5585 8.63355 94.9585 8.63355ZM85.5455 8.63355C84.3902 8.63355 83.4344 8.92908 82.7044 9.51177C81.9698 10.0979 81.5972 10.8667 81.5972 11.797C81.5972 12.2806 81.6777 12.7101 81.8359 13.0745C81.9951 13.44 82.2415 13.7618 82.5689 14.0319C82.8938 14.2999 83.3953 14.5805 84.0598 14.866C84.6185 15.0959 85.0351 15.2904 85.2998 15.4436C85.5585 15.5938 85.7421 15.7448 85.8457 15.8919C85.9465 16.0358 85.9976 16.2327 85.9976 16.4758C85.9976 17.1678 85.4794 17.5045 84.413 17.5045C84.0175 17.5045 83.5663 17.4219 83.0721 17.2591C82.5813 17.0987 82.1182 16.8639 81.6989 16.5628L81.597 16.4898V18.8513L81.6344 18.8687C81.9815 19.0289 82.419 19.164 82.9348 19.2703C83.4495 19.3767 83.9172 19.4309 84.3235 19.4309C85.5773 19.4309 86.5869 19.1339 87.3236 18.5477C88.065 17.9576 88.4408 17.1706 88.4408 16.2082C88.4408 15.5138 88.2385 14.9184 87.8398 14.4382C87.4438 13.9619 86.7566 13.5247 85.798 13.1382C85.0344 12.8317 84.5452 12.5772 84.3433 12.3819C84.1488 12.1932 84.05 11.9264 84.05 11.5884C84.05 11.2889 84.1719 11.0489 84.4222 10.8546C84.6745 10.6592 85.0257 10.5599 85.4661 10.5599C85.8748 10.5599 86.2929 10.6245 86.7088 10.751C87.1243 10.8775 87.4893 11.0469 87.7939 11.2542L87.8941 11.3227V9.08255L87.8557 9.06603C87.5746 8.94549 87.204 8.84234 86.7538 8.75865C86.3056 8.6755 85.8991 8.63355 85.5455 8.63355ZM75.2028 17.4251C74.3127 17.4251 73.6106 17.1299 73.116 16.5484C72.6182 15.9639 72.3665 15.1309 72.3665 14.072C72.3665 12.9798 72.6185 12.1249 73.1166 11.5302C73.6111 10.9393 74.3062 10.6395 75.1831 10.6395C76.0333 10.6395 76.7103 10.9259 77.1954 11.4912C77.6829 12.0594 77.9302 12.9074 77.9302 14.0124C77.9302 15.1309 77.6975 15.9901 77.2388 16.5649C76.7833 17.1353 76.0986 17.4251 75.2028 17.4251ZM75.3121 8.63355C73.6132 8.63355 72.264 9.13124 71.3026 10.1128C70.3413 11.0945 69.8537 12.4531 69.8537 14.1511C69.8537 15.7645 70.3297 17.0611 71.2682 18.0061C72.2066 18.9515 73.4836 19.4304 75.0637 19.4304C76.7099 19.4304 78.0325 18.9258 78.9939 17.9306C79.9551 16.9365 80.4424 15.5908 80.4424 13.9325C80.4424 12.2945 79.9852 10.9876 79.0832 10.0488C78.1807 9.10962 76.9119 8.63355 75.3121 8.63355ZM66.1303 10.6655V8.88169H63.7074V19.1821H66.1303V13.913C66.1303 13.0171 66.3335 12.281 66.7343 11.7251C67.1301 11.1757 67.6574 10.8974 68.3013 10.8974C68.5196 10.8974 68.7646 10.9334 69.0299 11.0045C69.2925 11.0753 69.4827 11.1521 69.5949 11.233L69.6967 11.3068V8.86408L69.6575 8.84723C69.4318 8.75137 69.1126 8.703 68.7087 8.703C68.0998 8.703 67.5549 8.89864 67.0882 9.28385C66.6786 9.62242 66.3825 10.0866 66.1561 10.6655H66.1303ZM59.3683 8.63355C58.2567 8.63355 57.2652 8.87191 56.4219 9.34178C55.5768 9.81274 54.9232 10.4851 54.4786 11.3401C54.0359 12.193 53.8111 13.1892 53.8111 14.3003C53.8111 15.2735 54.029 16.1666 54.4598 16.9538C54.8907 17.7422 55.5007 18.3591 56.2729 18.7869C57.0439 19.2141 57.9351 19.4308 58.9218 19.4308C60.0733 19.4308 61.0564 19.2006 61.8446 18.7465L61.8765 18.7283V16.5085L61.7746 16.5828C61.4176 16.8429 61.0186 17.0505 60.5892 17.2001C60.161 17.3495 59.7706 17.4251 59.4282 17.4251C58.4775 17.4251 57.7142 17.1276 57.1602 16.5411C56.605 15.9538 56.3235 15.1292 56.3235 14.0915C56.3235 13.0473 56.6171 12.2015 57.1957 11.5774C57.7725 10.9551 58.5371 10.6395 59.4682 10.6395C60.2646 10.6395 61.0406 10.9091 61.7748 11.4417L61.8765 11.5155V9.17657L61.8436 9.15809C61.5673 9.00342 61.1905 8.87571 60.7227 8.77887C60.2568 8.68224 59.8012 8.63355 59.3683 8.63355ZM52.1424 8.8818H49.7194V19.1821H52.1424V8.8818ZM50.9557 4.49381C50.5569 4.49381 50.2091 4.62956 49.9233 4.89857C49.6364 5.16835 49.4908 5.50801 49.4908 5.90886C49.4908 6.30341 49.6346 6.63688 49.9189 6.89948C50.2013 7.16132 50.5502 7.29403 50.9558 7.29403C51.3613 7.29403 51.7115 7.16132 51.9973 6.89991C52.2849 6.63688 52.4307 6.30352 52.4307 5.90886C52.4307 5.52203 52.2888 5.18585 52.0091 4.90944C51.7297 4.63358 51.3751 4.49381 50.9557 4.49381ZM44.9103 8.12183V19.1821H47.383V4.80912H43.9606L39.6106 15.4849L35.3891 4.80912H31.8274V19.182H34.1511V8.12074H34.2309L38.6887 19.1821H40.4423L44.8305 8.12183H44.9103ZM12.0518 11.4044H0.653564V0.00610352H12.0518V11.4044ZM24.6366 11.4044H13.2385V0.00610352H24.6366V11.4044ZM12.0515 23.9938H0.653564V12.5956H12.0515V23.9938ZM24.6366 23.9938H13.2385V12.5956H24.6366V23.9938Z" fill="#6A6A6A"/>
<path d="M113.013 10.8577V8.88169H110.559V5.80974L110.477 5.83517L108.172 6.54036L108.126 6.55417V8.8818H104.489V7.58511C104.489 6.98132 104.624 6.51928 104.89 6.21114C105.154 5.90669 105.532 5.75191 106.014 5.75191C106.36 5.75191 106.719 5.83354 107.08 5.99451L107.171 6.03495V3.95394L107.128 3.93828C106.791 3.8172 106.333 3.75623 105.765 3.75623C105.049 3.75623 104.399 3.91198 103.832 4.22067C103.265 4.52978 102.818 4.97107 102.505 5.53214C102.194 6.09255 102.036 6.73981 102.036 7.45609V8.88169H100.327V10.8577H102.036V19.1823H104.489V10.8577H108.126V16.1478C108.126 18.3266 109.154 19.4306 111.181 19.4306C111.514 19.4306 111.864 19.3916 112.222 19.3152C112.587 19.2367 112.835 19.1584 112.981 19.0747L113.013 19.0556V17.0613L112.913 17.1273C112.78 17.2159 112.614 17.2884 112.42 17.3424C112.225 17.3972 112.062 17.4247 111.936 17.4247C111.461 17.4247 111.109 17.2968 110.892 17.0443C110.671 16.7895 110.559 16.344 110.559 15.7208V10.8577H113.013ZM94.8494 17.4251C93.9591 17.4251 93.2572 17.1299 92.7626 16.5484C92.2649 15.9639 92.0127 15.1307 92.0127 14.072C92.0127 12.9798 92.2649 12.1249 92.7628 11.5302C93.2578 10.9393 93.9529 10.6395 94.8294 10.6395C95.6799 10.6395 96.357 10.9259 96.842 11.4912C97.3293 12.0594 97.5767 12.9074 97.5767 14.0124C97.5767 15.1309 97.3441 15.9901 96.8854 16.5649C96.4299 17.1353 95.7449 17.4251 94.8494 17.4251ZM94.9585 8.63355C93.2599 8.63355 91.9108 9.13124 90.9489 10.1128C89.9877 11.0945 89.5003 12.4531 89.5003 14.1511C89.5003 15.7638 89.976 17.0611 90.9145 18.0061C91.8529 18.9515 93.1301 19.4304 94.7101 19.4304C96.3566 19.4304 97.6788 18.9258 98.6403 17.9306C99.6016 16.9365 100.089 15.5908 100.089 13.9325C100.089 12.2945 99.6316 10.9876 98.7298 10.0488C97.8276 9.10962 96.5585 8.63355 94.9585 8.63355ZM85.5455 8.63355C84.3902 8.63355 83.4344 8.92908 82.7044 9.51177C81.9698 10.0979 81.5972 10.8667 81.5972 11.797C81.5972 12.2806 81.6777 12.7101 81.8359 13.0745C81.9951 13.44 82.2415 13.7618 82.5689 14.0319C82.8938 14.2999 83.3953 14.5805 84.0598 14.866C84.6185 15.0959 85.0351 15.2904 85.2998 15.4436C85.5585 15.5938 85.7421 15.7448 85.8457 15.8919C85.9465 16.0358 85.9976 16.2327 85.9976 16.4758C85.9976 17.1678 85.4794 17.5045 84.413 17.5045C84.0175 17.5045 83.5663 17.4219 83.0721 17.2591C82.5813 17.0987 82.1182 16.8639 81.6989 16.5628L81.597 16.4898V18.8513L81.6344 18.8687C81.9815 19.0289 82.419 19.164 82.9348 19.2703C83.4495 19.3767 83.9172 19.4309 84.3235 19.4309C85.5773 19.4309 86.5869 19.1339 87.3236 18.5477C88.065 17.9576 88.4408 17.1706 88.4408 16.2082C88.4408 15.5138 88.2385 14.9184 87.8398 14.4382C87.4438 13.9619 86.7566 13.5247 85.798 13.1382C85.0344 12.8317 84.5452 12.5772 84.3433 12.3819C84.1488 12.1932 84.05 11.9264 84.05 11.5884C84.05 11.2889 84.1719 11.0489 84.4222 10.8546C84.6745 10.6592 85.0257 10.5599 85.4661 10.5599C85.8748 10.5599 86.2929 10.6245 86.7088 10.751C87.1243 10.8775 87.4893 11.0469 87.7939 11.2542L87.8941 11.3227V9.08255L87.8557 9.06603C87.5746 8.94549 87.204 8.84234 86.7538 8.75865C86.3056 8.6755 85.8991 8.63355 85.5455 8.63355ZM75.2028 17.4251C74.3127 17.4251 73.6106 17.1299 73.116 16.5484C72.6182 15.9639 72.3665 15.1309 72.3665 14.072C72.3665 12.9798 72.6185 12.1249 73.1166 11.5302C73.6111 10.9393 74.3062 10.6395 75.1831 10.6395C76.0333 10.6395 76.7103 10.9259 77.1954 11.4912C77.6829 12.0594 77.9302 12.9074 77.9302 14.0124C77.9302 15.1309 77.6975 15.9901 77.2388 16.5649C76.7833 17.1353 76.0986 17.4251 75.2028 17.4251ZM75.3121 8.63355C73.6132 8.63355 72.264 9.13124 71.3026 10.1128C70.3413 11.0945 69.8537 12.4531 69.8537 14.1511C69.8537 15.7645 70.3297 17.0611 71.2682 18.0061C72.2066 18.9515 73.4836 19.4304 75.0637 19.4304C76.7099 19.4304 78.0325 18.9258 78.9939 17.9306C79.9551 16.9365 80.4424 15.5908 80.4424 13.9325C80.4424 12.2945 79.9852 10.9876 79.0832 10.0488C78.1807 9.10962 76.9119 8.63355 75.3121 8.63355ZM66.1303 10.6655V8.88169H63.7074V19.1821H66.1303V13.913C66.1303 13.0171 66.3335 12.281 66.7343 11.7251C67.1301 11.1757 67.6574 10.8974 68.3013 10.8974C68.5196 10.8974 68.7646 10.9334 69.0299 11.0045C69.2925 11.0753 69.4827 11.1521 69.5949 11.233L69.6967 11.3068V8.86408L69.6575 8.84723C69.4318 8.75137 69.1126 8.703 68.7087 8.703C68.0998 8.703 67.5549 8.89864 67.0882 9.28385C66.6786 9.62242 66.3825 10.0866 66.1561 10.6655H66.1303ZM59.3683 8.63355C58.2567 8.63355 57.2652 8.87191 56.4219 9.34178C55.5768 9.81274 54.9232 10.4851 54.4786 11.3401C54.0359 12.193 53.8111 13.1892 53.8111 14.3003C53.8111 15.2735 54.029 16.1666 54.4598 16.9538C54.8907 17.7422 55.5007 18.3591 56.2729 18.7869C57.0439 19.2141 57.9351 19.4308 58.9218 19.4308C60.0733 19.4308 61.0564 19.2006 61.8446 18.7465L61.8765 18.7283V16.5085L61.7746 16.5828C61.4176 16.8429 61.0186 17.0505 60.5892 17.2001C60.161 17.3495 59.7706 17.4251 59.4282 17.4251C58.4775 17.4251 57.7142 17.1276 57.1602 16.5411C56.605 15.9538 56.3235 15.1292 56.3235 14.0915C56.3235 13.0473 56.6171 12.2015 57.1957 11.5774C57.7725 10.9551 58.5371 10.6395 59.4682 10.6395C60.2646 10.6395 61.0406 10.9091 61.7748 11.4417L61.8765 11.5155V9.17657L61.8436 9.15809C61.5673 9.00342 61.1905 8.87571 60.7227 8.77887C60.2568 8.68224 59.8012 8.63355 59.3683 8.63355ZM52.1424 8.8818H49.7194V19.1821H52.1424V8.8818ZM50.9557 4.49381C50.5569 4.49381 50.2091 4.62956 49.9233 4.89857C49.6364 5.16835 49.4908 5.50801 49.4908 5.90886C49.4908 6.30341 49.6346 6.63688 49.9189 6.89948C50.2013 7.16132 50.5502 7.29403 50.9558 7.29403C51.3613 7.29403 51.7115 7.16132 51.9973 6.89991C52.2849 6.63688 52.4307 6.30352 52.4307 5.90886C52.4307 5.52203 52.2888 5.18585 52.0091 4.90944C51.7297 4.63358 51.3751 4.49381 50.9557 4.49381ZM44.9103 8.12183V19.1821H47.383V4.80912H43.9606L39.6106 15.4849L35.3891 4.80912H31.8274V19.182H34.1511V8.12074H34.2309L38.6887 19.1821H40.4423L44.8305 8.12183H44.9103ZM12.0518 11.4044H0.653564V0.00610352H12.0518V11.4044ZM24.6366 11.4044H13.2385V0.00610352H24.6366V11.4044ZM12.0515 23.9938H0.653564V12.5956H12.0515V23.9938ZM24.6366 23.9938H13.2385V12.5956H24.6366V23.9938Z" fill="#6A6A6A"/>
</svg>
