<svg width="259" height="207" viewBox="0 0 259 207" fill="none" xmlns="http://www.w3.org/2000/svg">
<path d="M242.834 181.512C244.658 174.84 250.599 152.445 254.634 129.763C259.444 102.682 263.655 65.3822 244.402 49.7337C225.149 34.0853 199.874 52.7447 186.637 46.729C173.4 40.7132 172.8 10.622 137.287 1.60147C101.773 -7.41903 81.9267 23.8591 66.2845 40.707C50.6423 57.5548 33.1761 46.123 10.325 64.1765C-12.2888 82.0301 6.88918 162.877 23.6121 181.512H242.834Z" fill="#C29603"/>
<path opacity="0.7" d="M242.834 181.512C244.658 174.84 250.599 152.445 254.634 129.763C259.444 102.682 263.655 65.3822 244.402 49.7337C225.149 34.0853 199.874 52.7447 186.637 46.729C173.4 40.7132 172.8 10.622 137.287 1.60147C101.773 -7.41903 81.9267 23.8591 66.2845 40.707C50.6423 57.5548 33.1761 46.123 10.325 64.1765C-12.2888 82.0301 6.88918 162.877 23.6121 181.512H242.834Z" fill="white"/>
<path d="M257.811 61.0444H203.172C202.907 61.0463 202.653 61.1524 202.466 61.34C202.278 61.5276 202.172 61.7814 202.17 62.0467V202.645C202.17 202.911 202.275 203.167 202.463 203.356C202.651 203.545 202.906 203.652 203.172 203.654H257.811C258.078 203.654 258.335 203.548 258.524 203.358C258.713 203.169 258.82 202.912 258.82 202.645V62.0467C258.818 61.7802 258.711 61.5253 258.522 61.3376C258.333 61.1498 258.077 61.0444 257.811 61.0444ZM256.808 201.642H204.181V63.056H256.808V201.642Z" fill="white"/>
<path d="M207.995 91.9824H252.994C253.126 91.9824 253.257 91.9562 253.379 91.9054C253.501 91.8546 253.612 91.7802 253.705 91.6864C253.798 91.5925 253.872 91.4812 253.922 91.3588C253.972 91.2364 253.997 91.1053 253.996 90.9731V67.2176C253.997 67.0858 253.972 66.955 253.922 66.833C253.871 66.711 253.798 66.6001 253.704 66.5069C253.611 66.4136 253.5 66.3398 253.378 66.2898C253.256 66.2397 253.126 66.2144 252.994 66.2154H207.995C207.863 66.2144 207.732 66.2397 207.61 66.2896C207.487 66.3396 207.376 66.4133 207.282 66.5064C207.188 66.5996 207.114 66.7104 207.063 66.8325C207.012 66.9545 206.986 67.0854 206.986 67.2176V90.9731C206.986 91.2408 207.092 91.4975 207.282 91.6868C207.471 91.876 207.728 91.9824 207.995 91.9824ZM208.998 68.206H251.984V89.95H208.998V68.206Z" fill="white"/>
<path d="M207.995 125.726H252.994C253.126 125.727 253.256 125.702 253.378 125.652C253.5 125.602 253.611 125.528 253.704 125.435C253.798 125.341 253.871 125.231 253.922 125.109C253.972 124.987 253.997 124.856 253.996 124.724V100.968C253.997 100.836 253.972 100.705 253.922 100.583C253.872 100.46 253.798 100.349 253.705 100.255C253.612 100.161 253.501 100.087 253.379 100.036C253.257 99.9854 253.126 99.9592 252.994 99.9592H207.995C207.728 99.9592 207.471 100.066 207.282 100.255C207.092 100.444 206.986 100.701 206.986 100.968V124.724C206.986 124.856 207.012 124.987 207.063 125.109C207.114 125.231 207.188 125.342 207.282 125.435C207.376 125.528 207.487 125.602 207.61 125.652C207.732 125.702 207.863 125.727 207.995 125.726ZM208.998 101.971H251.984V123.722H208.998V101.971Z" fill="white"/>
<path d="M207.995 159.477H252.994C253.259 159.477 253.514 159.371 253.702 159.183C253.89 158.995 253.996 158.74 253.996 158.475V134.712C253.996 134.446 253.89 134.191 253.702 134.003C253.514 133.815 253.259 133.71 252.994 133.71H207.995C207.729 133.71 207.473 133.815 207.284 134.003C207.095 134.191 206.988 134.446 206.986 134.712V158.475C206.988 158.741 207.095 158.996 207.284 159.184C207.473 159.371 207.729 159.477 207.995 159.477ZM208.998 135.721H251.984V157.465H208.998V135.721Z" fill="white"/>
<path d="M207.995 193.227H252.994C253.126 193.227 253.257 193.201 253.379 193.151C253.501 193.1 253.612 193.025 253.705 192.931C253.798 192.838 253.872 192.726 253.922 192.604C253.971 192.482 253.997 192.35 253.996 192.218V168.435C253.997 168.303 253.971 168.172 253.921 168.05C253.871 167.928 253.798 167.817 253.704 167.724C253.611 167.631 253.5 167.557 253.378 167.507C253.256 167.457 253.125 167.432 252.994 167.433H207.995C207.863 167.432 207.732 167.457 207.61 167.507C207.487 167.557 207.376 167.631 207.282 167.724C207.188 167.817 207.114 167.928 207.063 168.05C207.012 168.172 206.986 168.303 206.986 168.435V192.19C206.982 192.325 207.006 192.46 207.055 192.585C207.104 192.711 207.177 192.825 207.272 192.922C207.366 193.019 207.478 193.096 207.602 193.148C207.727 193.201 207.86 193.228 207.995 193.227ZM208.997 169.472H251.984V191.216H208.997V169.472Z" fill="white"/>
<path d="M189.37 11.1325H42.202C41.9409 11.1324 41.6901 11.2341 41.5029 11.4161C41.3158 11.5981 41.207 11.8459 41.1997 12.1069V85.4128C41.1997 85.545 41.2259 85.6759 41.2767 85.7979C41.3275 85.92 41.4019 86.0308 41.4957 86.124C41.5895 86.2171 41.7008 86.2908 41.8233 86.3408C41.9457 86.3907 42.0767 86.416 42.2089 86.415H189.37C189.502 86.416 189.633 86.3907 189.755 86.3406C189.877 86.2906 189.988 86.2168 190.081 86.1236C190.174 86.0303 190.248 85.9194 190.298 85.7974C190.348 85.6754 190.374 85.5446 190.373 85.4128V12.1069C190.367 11.8454 190.259 11.5965 190.071 11.4141C189.884 11.2318 189.632 11.1306 189.37 11.1325ZM188.361 13.144V81.16H43.2043V13.1162L188.361 13.144Z" fill="white"/>
<path d="M212.619 156.101L209.452 203.932C209.435 204.175 209.326 204.403 209.148 204.569C208.97 204.736 208.735 204.829 208.492 204.83C208.363 204.83 208.236 204.804 208.118 204.754C208 204.704 207.894 204.631 207.805 204.539C207.716 204.446 207.646 204.337 207.6 204.217C207.555 204.098 207.533 203.97 207.538 203.842L208.84 156.101H212.619Z" fill="#263238" stroke="#263238" stroke-linecap="round" stroke-linejoin="round"/>
<path d="M220.72 156.101L223.887 203.932C223.903 204.175 224.01 204.402 224.187 204.569C224.364 204.736 224.598 204.829 224.841 204.83C224.969 204.83 225.097 204.804 225.215 204.754C225.333 204.704 225.441 204.631 225.53 204.539C225.62 204.447 225.69 204.338 225.737 204.218C225.783 204.098 225.805 203.97 225.801 203.842L224.486 156.129L220.72 156.101Z" fill="#263238" stroke="#263238" stroke-linecap="round" stroke-linejoin="round"/>
<path d="M188.966 156.101L192.133 203.932C192.149 204.175 192.256 204.402 192.433 204.569C192.61 204.736 192.844 204.829 193.087 204.83C193.215 204.83 193.343 204.804 193.461 204.754C193.579 204.704 193.686 204.631 193.776 204.539C193.866 204.447 193.936 204.338 193.982 204.218C194.029 204.098 194.051 203.97 194.047 203.842L192.725 156.129L188.966 156.101Z" fill="#263238" stroke="#263238" stroke-linecap="round" stroke-linejoin="round"/>
<path d="M176.028 156.101L172.861 203.932C172.844 204.175 172.735 204.403 172.557 204.569C172.379 204.736 172.144 204.829 171.901 204.83C171.772 204.829 171.646 204.803 171.528 204.752C171.41 204.702 171.303 204.629 171.214 204.537C171.124 204.445 171.054 204.336 171.007 204.217C170.96 204.097 170.937 203.97 170.94 203.842L172.263 156.129L176.028 156.101Z" fill="#263238" stroke="#263238" stroke-linecap="round" stroke-linejoin="round"/>
<path d="M231.203 107.88C231.203 107.88 199.603 106.697 196.93 106.697C194.257 106.697 193.638 107.88 193.638 107.88L189.128 139.682C189.128 139.682 175.103 135.679 172.353 136.201C169.604 136.723 173.711 156.679 173.711 156.679H189.58L189.865 155.481H225.697L235.212 110.156C234.634 108.082 231.203 107.88 231.203 107.88Z" fill="white" stroke="#263238" stroke-linecap="round" stroke-linejoin="round"/>
<path d="M219.175 127.773C219.175 127.773 222.391 148.654 218.702 151.09C218.131 151.466 215.034 153.248 212.138 152.955C209.814 152.719 193.387 152.955 193.387 152.955C193.387 152.955 191.104 148.612 190.645 145.41C190.186 142.209 193.777 128.469 193.777 128.469L219.175 127.773Z" fill="white" stroke="#263238" stroke-linecap="round" stroke-linejoin="round"/>
<path d="M192.273 138.958C192.273 138.958 168.497 141.429 167.376 142.097C166.255 142.765 161.112 147.255 161.996 150.171C162.88 153.087 160.652 153.31 162.692 153.763C164.731 154.215 193.637 154.208 193.637 154.208" fill="#C29603"/>
<path d="M192.273 138.958C192.273 138.958 168.497 141.429 167.376 142.097C166.255 142.765 161.112 147.255 161.996 150.171C162.88 153.087 160.652 153.31 162.692 153.763C164.731 154.215 193.637 154.208 193.637 154.208" stroke="#263238" stroke-linecap="round" stroke-linejoin="round"/>
<path d="M170.648 156.644H227.145V152.426H170.648V156.644Z" fill="white" stroke="#263238" stroke-linecap="round" stroke-linejoin="round"/>
<path d="M213.802 139.856H179.766C179.766 139.856 177.977 141.874 177.748 146.12C177.518 150.366 177.977 151.278 181.117 152.384C184.256 153.491 212.139 152.927 212.139 152.927" fill="#C29603"/>
<path d="M213.802 139.856H179.766C179.766 139.856 177.977 141.874 177.748 146.12C177.518 150.366 177.977 151.278 181.117 152.384C184.256 153.491 212.139 152.927 212.139 152.927" stroke="#263238" stroke-linecap="round" stroke-linejoin="round"/>
<path d="M186.984 193.868L183.42 185.425L177.58 186.531L182.049 194.063L179.474 199.22L173.905 202.86C173.905 202.86 173.258 203.501 176.042 203.285C178.826 203.069 184.603 203.285 184.603 203.285L188.244 199.004C188.244 199.004 189.566 196.826 186.984 193.868Z" fill="white" stroke="#263238" stroke-linecap="round" stroke-linejoin="round"/>
<path d="M188.543 197.557L188.689 203.076H187.819L186.657 200.32L188.543 197.557Z" fill="#263238" stroke="#263238" stroke-linecap="round" stroke-linejoin="round"/>
<path d="M184.61 203.312L188.25 199.032C188.25 199.032 189.19 197.438 187.895 195.141C185.306 199.568 181.861 200.897 181.861 200.897L178.269 200.034L173.912 202.888C173.912 202.888 173.265 203.528 176.049 203.312C178.833 203.097 184.61 203.312 184.61 203.312Z" fill="#263238" stroke="#263238" stroke-linecap="round" stroke-linejoin="round"/>
<path d="M172.987 150.846L184.924 186.935L176.453 188.439L159.748 150.853C159.748 150.853 158.405 145.243 161.989 143.454C165.574 141.665 176.119 140.76 176.119 140.76" fill="#C29603"/>
<path d="M172.987 150.846L184.924 186.935L176.453 188.439L159.748 150.853C159.748 150.853 158.405 145.243 161.989 143.454C165.574 141.665 176.119 140.76 176.119 140.76" stroke="#263238" stroke-linecap="round" stroke-linejoin="round"/>
<path d="M211.275 156.637C211.275 156.637 207.162 136.654 209.918 136.16C212.674 135.666 226.692 139.64 226.692 139.64L231.203 107.881C231.203 107.881 235.963 107.129 236.465 111.361C236.966 115.593 227.145 156.637 227.145 156.637H211.275Z" fill="#263238" stroke="#263238" stroke-linecap="round" stroke-linejoin="round"/>
<path d="M162.839 97.8013L160.716 94.3211C160.511 93.9878 160.223 93.7135 159.88 93.5256C159.537 93.3376 159.151 93.2423 158.76 93.2492L156.762 93.2841L153.345 92.2609C153.128 92.1976 152.897 92.2001 152.681 92.2683C152.466 92.3364 152.275 92.4671 152.134 92.6437L152.009 92.8038L155.155 94.1958L152.016 95.3513L148.682 93.6599C148.55 93.5925 148.399 93.5737 148.255 93.6069C148.111 93.64 147.984 93.7228 147.895 93.8409C147.794 93.9721 147.749 94.138 147.77 94.3024C147.791 94.4667 147.876 94.6161 148.006 94.7179L152.67 98.3163C152.816 98.43 152.985 98.5111 153.165 98.5543C153.345 98.5975 153.532 98.6018 153.714 98.5669L158.871 97.5298L160.312 99.1029L162.839 97.8013Z" fill="white" stroke="#263238" stroke-linecap="round" stroke-linejoin="round"/>
<path d="M198.795 90.66L179.675 110.657L161.425 95.9081L158.906 97.7387L178.986 120.492L196.394 111.116L198.795 90.66Z" fill="white" stroke="#263238" stroke-linecap="round" stroke-linejoin="round"/>
<path d="M227.402 95.7692L237.425 126.568L228.78 126.819L220.184 112.363C220.184 112.363 225.015 97.7807 227.402 95.7692Z" fill="white" stroke="#263238" stroke-linecap="round" stroke-linejoin="round"/>
<path d="M216.496 90.4794L227.402 95.804L218.27 121.341L219.349 128.462L193.777 128.503L196.826 117.033L194.738 109.683C194.467 108.729 194.452 107.721 194.696 106.76L198.789 90.6951L209.535 88.969L216.496 90.4794Z" fill="white" stroke="#263238" stroke-linecap="round" stroke-linejoin="round"/>
<path d="M215.973 88.9829C215.973 88.9829 218.117 90.4306 218.186 91.7183C218.221 92.477 218.186 93.8064 218.117 94.8226C218.079 95.6166 217.897 96.3971 217.581 97.1264L213.718 101.79L209.249 98.261L205.54 100.154C205.54 100.154 204.844 94.4676 206.465 90.5002C208.087 86.5329 215.145 87.9876 215.973 88.9829Z" fill="white" stroke="#263238" stroke-linecap="round" stroke-linejoin="round"/>
<path d="M219.042 77.9508C219.042 77.9508 218.165 81.1038 217.755 83.1919C217.344 85.28 216.516 89.4562 216.592 91.0223C216.669 92.5883 210.078 99.2563 209.249 98.261C208.421 97.2656 207.551 91.4816 207.551 91.4816L208.372 82.127C208.372 82.127 216.961 72.6123 219.042 77.9508Z" fill="white" stroke="#263238" stroke-linecap="round" stroke-linejoin="round"/>
<path d="M205.269 73.0786C205.269 73.0786 204.093 75.0205 204.093 75.8627C204.093 76.7049 204.503 78.3545 204.434 78.8348C204.364 79.315 203.195 80.9229 203.042 81.4658C202.965 81.6867 202.971 81.9281 203.06 82.1447C203.148 82.3612 203.312 82.5381 203.522 82.642C203.806 82.7876 204.083 82.9479 204.35 83.1223C204.35 83.1223 204.698 87.4098 205.255 88.5165C205.812 89.6232 206.292 90.1104 207.949 90.2496C209.605 90.3889 213.552 88.6557 214.102 87.2706C214.651 85.8855 214.728 84.229 214.798 82.2244C214.867 80.2199 213.482 77.3522 212.445 74.6168C211.408 71.8814 207.065 70.378 205.269 73.0786Z" fill="white" stroke="#263238" stroke-linecap="round" stroke-linejoin="round"/>
<path d="M223.122 87.2359C226.055 87.2359 228.433 84.8582 228.433 81.9252C228.433 78.9922 226.055 76.6145 223.122 76.6145C220.189 76.6145 217.811 78.9922 217.811 81.9252C217.811 84.8582 220.189 87.2359 223.122 87.2359Z" fill="#263238" stroke="#263238" stroke-linecap="round" stroke-linejoin="round"/>
<path d="M205.24 72.7793C205.24 72.7793 207.377 70.9348 211.219 74.6029C215.061 78.271 213.6 83.5747 216.168 84.6744C218.736 85.7742 223.49 80.2755 224.04 77.5332C224.59 74.7908 222.94 69.1043 217.811 68.0045C212.681 66.9048 206.396 67.6565 205.24 72.7793Z" fill="#263238" stroke="#263238" stroke-linecap="round" stroke-linejoin="round"/>
<path d="M205.24 72.7796C205.194 72.3483 205.248 71.9122 205.396 71.5046C205.544 71.097 205.784 70.7286 206.096 70.4273C206.408 70.126 206.784 69.8998 207.197 69.7659C207.609 69.632 208.047 69.5939 208.476 69.6544C211.957 69.8424 212.319 75.334 214.149 77.5335C215.98 79.7329 216.898 79.364 216.898 79.364C216.898 79.364 213.787 80.2758 211.769 79.1761C209.75 78.0764 208.776 71.8748 205.24 72.7796Z" fill="#263238" stroke="#263238" stroke-linecap="round" stroke-linejoin="round"/>
<path d="M210.928 69.0142C212.759 70.1453 214.212 71.7951 215.104 73.7541C216.684 77.102 216.684 79.8653 220.435 79.6704C220.435 79.6704 218.66 80.0671 215.897 78.682C213.134 77.2969 212.542 73.3574 210.768 71.7774C209.799 70.861 208.547 70.3034 207.218 70.1974" stroke="white" stroke-width="0.5" stroke-linecap="round" stroke-linejoin="round"/>
<path d="M224.04 77.5331C224.04 77.5331 223.88 82.5584 220.024 83.6164" stroke="white" stroke-width="0.5" stroke-linecap="round" stroke-linejoin="round"/>
<path d="M213.28 82.663C213.28 82.663 216.955 77.8534 217.818 81.4449C218.681 85.0364 215.73 85.9134 214.338 85.5028C212.946 85.0921 213.141 84.3474 213.141 84.3474" fill="white"/>
<path d="M213.28 82.663C213.28 82.663 216.955 77.8534 217.818 81.4449C218.681 85.0364 215.73 85.9134 214.338 85.5028C212.946 85.0921 213.141 84.3474 213.141 84.3474" stroke="#263238" stroke-linecap="round" stroke-linejoin="round"/>
<path d="M205.101 123.819C205.101 123.819 198.085 124.794 196.915 124.794C195.746 124.794 192.823 128.496 192.823 128.496H205.685L205.101 123.819Z" fill="white" stroke="#263238" stroke-linecap="round" stroke-linejoin="round"/>
<path d="M234.905 119.1L237.425 124.78C237.538 125.114 237.57 125.47 237.519 125.819C237.468 126.169 237.336 126.501 237.132 126.789C236.929 127.078 236.66 127.314 236.348 127.479C236.036 127.643 235.69 127.732 235.337 127.738L204.92 127.912L205.115 123.819L228.697 120.088" fill="white"/>
<path d="M234.905 119.1L237.425 124.78C237.538 125.114 237.57 125.47 237.519 125.819C237.468 126.169 237.336 126.501 237.132 126.789C236.929 127.078 236.66 127.314 236.348 127.479C236.036 127.643 235.69 127.732 235.337 127.738L204.92 127.912L205.115 123.819L228.697 120.088" stroke="#263238" stroke-linecap="round" stroke-linejoin="round"/>
<path d="M194.195 197.557L194.341 203.076H193.471L192.309 200.32L194.195 197.557Z" fill="#263238" stroke="#263238" stroke-linecap="round" stroke-linejoin="round"/>
<path d="M192.635 193.868L191.515 185.836L185.682 186.211L187.701 194.118L185.125 199.276L179.557 202.916C179.557 202.916 178.917 203.556 181.701 203.341C184.485 203.125 190.262 203.341 190.262 203.341L193.902 199.06C193.902 199.06 195.218 196.826 192.635 193.868Z" fill="white" stroke="#263238" stroke-linecap="round" stroke-linejoin="round"/>
<path d="M190.262 203.312L193.902 199.032C193.902 199.032 194.842 197.438 193.54 195.141C190.951 199.568 187.506 200.897 187.506 200.897L183.921 200.034L179.557 202.888C179.557 202.888 178.917 203.528 181.701 203.312C184.485 203.097 190.262 203.312 190.262 203.312Z" fill="#263238" stroke="#263238" stroke-linecap="round" stroke-linejoin="round"/>
<path d="M189.963 144.631L192.462 187.311L184.548 187.499L176.822 148.723C176.822 148.723 176.968 141.338 179.327 140.489C181.687 139.64 187.951 140.552 187.951 140.552" fill="#C29603"/>
<path d="M189.963 144.631L192.462 187.311L184.548 187.499L176.822 148.723C176.822 148.723 176.968 141.338 179.327 140.489C181.687 139.64 187.951 140.552 187.951 140.552" stroke="#263238" stroke-linecap="round" stroke-linejoin="round"/>
<path d="M165.217 52.7614L175.038 80.2893C175.038 80.2893 173.744 86.5188 169.846 86.2613C165.948 86.0037 164.911 80.5469 163.874 79.7673C162.837 78.9877 161.278 73.0158 161.278 73.0158L165.217 52.7614Z" fill="white" stroke="#263238" stroke-linecap="round" stroke-linejoin="round"/>
<path d="M139.812 47.2419L123.845 53.0051L129.97 97.2795H158.779L165.217 52.7615L147.984 47.3672L139.812 47.2419Z" fill="white" stroke="#263238" stroke-linecap="round" stroke-linejoin="round"/>
<path d="M141.351 54.829L143.655 58.3022L141.657 87.7582L144.595 95.4284L147.608 87.967L145.026 58.7407L147.1 53.7223L144.226 49.9429L141.351 54.829Z" fill="#C29603" stroke="#263238" stroke-linecap="round" stroke-linejoin="round"/>
<path d="M144.539 53.3952L140.426 56.4786L137.718 48.4395L139.604 44.3677L148.019 44.1659L150.073 46.0104L149.662 56.2698L144.539 53.3952Z" fill="white" stroke="#263238" stroke-linecap="round" stroke-linejoin="round"/>
<path d="M148.888 42.2796L148.247 47.4511L143.64 53.3952L140.194 47.3676V37.6719C140.194 37.6719 146.229 39.1823 148.888 42.2796Z" fill="white" stroke="#263238" stroke-linecap="round" stroke-linejoin="round"/>
<path d="M137.828 31.5328C137.828 26.8346 141.253 23.0273 145.484 23.0273C149.716 23.0273 152.062 27.0434 152.062 31.7416C152.062 33.259 151.749 35.8621 151.623 37.2472C151.408 39.6137 150.691 40.616 149.292 42.7389C144.705 49.6992 140.939 39.4884 139.011 36.057C138.231 34.6772 137.823 33.118 137.828 31.5328Z" fill="white" stroke="#263238" stroke-linecap="round" stroke-linejoin="round"/>
<path d="M148.812 33.0082L149.459 37.8595L147.183 37.7969" fill="white"/>
<path d="M148.812 33.0082L149.459 37.8595L147.183 37.7969" stroke="#263238" stroke-linecap="round" stroke-linejoin="round"/>
<path d="M153.894 32.1663L142.952 32.215C142.818 32.6405 142.797 33.0938 142.892 33.5298C142.988 33.9657 143.195 34.3691 143.495 34.6998C144.191 35.3958 147.024 35.1522 147.476 34.9713C147.929 34.7903 148.172 32.7996 148.172 32.7996H148.987C148.987 32.7996 149.077 34.8877 150.247 35.0617C151.416 35.2358 152.94 35.1801 153.233 34.9713C154.527 34.1012 153.894 32.1663 153.894 32.1663Z" fill="white" stroke="#263238" stroke-linecap="round" stroke-linejoin="round"/>
<path d="M139.179 36.8433C139.179 36.8433 141.643 41.8895 142.228 43.6365C142.813 45.3836 145.708 46.7478 148.638 45.7733C151.569 44.7989 150.775 40.4626 150.775 40.4626C150.775 40.4626 147.664 37.8038 147.086 38.3745C146.509 38.9453 143.39 41.4858 143.196 40.9011C143.001 40.3165 141.643 36.8224 141.643 36.8224L141.01 34.3445L142.312 33.5093C142.499 33.3528 142.622 33.1314 142.654 32.889C142.686 32.6466 142.626 32.4009 142.486 32.2008L141.873 31.3168C141.798 31.2085 141.744 31.0863 141.717 30.9571C141.689 30.828 141.688 30.6947 141.713 30.5651C141.873 29.8064 142.312 28.2334 143.328 27.781C144.72 27.2033 146.411 28.0455 147.97 28.4352C149.529 28.825 151.221 27.419 151.221 27.419L151.917 29.7299C153.46 28.2816 154.557 26.4219 155.077 24.3704C155.856 21.0643 147.887 19.707 145.332 19.707C142.778 19.707 138.727 21.0991 137.558 24.7602C136.388 28.4213 138.49 36.189 139.179 36.8433Z" fill="#263238" stroke="#263238" stroke-linecap="round" stroke-linejoin="round"/>
<path d="M145.485 24.3916C145.485 24.3916 146.932 26.5632 145.032 27.0156C143.132 27.4681 139.429 25.8393 137.801 26.4727" stroke="white" stroke-width="0.5" stroke-linecap="round" stroke-linejoin="round"/>
<path d="M142.228 29.1798C142.228 29.1798 139.249 28.8179 138.052 30.0847" stroke="white" stroke-width="0.5" stroke-linecap="round" stroke-linejoin="round"/>
<path d="M149.397 40.1563C149.397 40.1563 147.205 41.2978 146.119 39.9406" stroke="white" stroke-width="0.5" stroke-linecap="round" stroke-linejoin="round"/>
<path d="M139.548 35.3056C139.548 35.3056 137.397 32.9391 137.397 35.5214C137.397 38.1036 138.045 38.1036 139.332 39.0015C140.62 39.8994 141.058 38.7857 141.058 38.7857" fill="white"/>
<path d="M139.548 35.3056C139.548 35.3056 137.397 32.9391 137.397 35.5214C137.397 38.1036 138.045 38.1036 139.332 39.0015C140.62 39.8994 141.058 38.7857 141.058 38.7857" stroke="#263238" stroke-linecap="round" stroke-linejoin="round"/>
<path d="M168.267 195.747H168.364L168.176 194.8L158.78 97.2867H129.971L120.498 195.74H120.602L126.714 196.262C126.714 196.262 133.493 173.502 133.493 171.804C133.493 170.105 135.428 154.403 135.428 154.403L145.04 120.611L153.539 154.403C153.539 154.403 155.474 170.14 155.474 171.804C155.474 173.467 162.26 196.276 162.26 196.276L168.009 195.782H168.267V195.747Z" fill="#263238" stroke="#263238" stroke-linecap="round" stroke-linejoin="round"/>
<path d="M156.629 103.022L150.218 112.174" stroke="white" stroke-width="0.5" stroke-linecap="round" stroke-linejoin="round"/>
<path d="M153.197 105.082L149.306 111.493" stroke="white" stroke-width="0.5" stroke-linecap="round" stroke-linejoin="round"/>
<path d="M134.891 104.63L140.605 110.803" stroke="white" stroke-width="0.5" stroke-linecap="round" stroke-linejoin="round"/>
<path d="M134.433 106.913L142.667 115.154" stroke="white" stroke-width="0.5" stroke-linecap="round" stroke-linejoin="round"/>
<path d="M131.683 98.2192H157.088" stroke="white" stroke-width="0.5" stroke-linecap="round" stroke-linejoin="round"/>
<path d="M120.603 195.74C120.603 195.74 116.935 198.628 114.819 199.422C112.703 200.215 108.749 202.324 108.749 202.324C108.749 202.324 108.749 203.647 112.181 203.647H125.649L125.419 195.74H120.603Z" fill="#263238" stroke="#263238" stroke-linecap="round" stroke-linejoin="round"/>
<path d="M125.6 202.206C120.222 202.452 114.834 202.366 109.466 201.949L108.77 202.325C108.77 202.325 108.77 203.647 112.202 203.647H125.67L125.6 202.206Z" fill="white" stroke="#263238" stroke-linecap="round" stroke-linejoin="round"/>
<path d="M167.71 195.74C167.71 195.74 171.385 198.628 173.494 199.422C175.603 200.215 179.57 202.324 179.57 202.324C179.57 202.324 179.57 203.647 176.132 203.647H162.67L162.914 195.74H167.71Z" fill="#263238" stroke="#263238" stroke-linecap="round" stroke-linejoin="round"/>
<path d="M162.712 202.206C168.09 202.452 173.479 202.366 178.846 201.949L179.542 202.325C179.542 202.325 179.542 203.647 176.104 203.647H162.67L162.712 202.206Z" fill="white" stroke="#263238" stroke-linecap="round" stroke-linejoin="round"/>
<path d="M123.845 53.0049L113.238 81.3263H123.414L127.214 73.6004L123.845 53.0049Z" fill="white" stroke="#263238" stroke-linecap="round" stroke-linejoin="round"/>
<path d="M170.25 76.9413C166.004 75.1873 152.383 74.3172 151.673 74.3172C150.963 74.3172 128.822 72.4936 127.005 72.2291C125.189 71.9646 123.108 76.1269 123.108 76.1269L132.713 75.8624L144.399 78.2011C144.399 78.2011 168.064 86.7692 169.846 86.2541C170.089 86.1732 170.309 86.0347 170.486 85.8504" fill="white"/>
<path d="M170.25 76.9413C166.004 75.1873 152.383 74.3172 151.673 74.3172C150.963 74.3172 128.822 72.4936 127.005 72.2291C125.189 71.9646 123.108 76.1269 123.108 76.1269L132.713 75.8624L144.399 78.2011C144.399 78.2011 168.064 86.7692 169.846 86.2541C170.089 86.1732 170.309 86.0347 170.486 85.8504" stroke="#263238" stroke-linecap="round" stroke-linejoin="round"/>
<path d="M120.769 75.6122L157.38 71.9789L157.645 75.0901L125.961 84.7023C125.961 84.7023 120.254 85.9969 115.834 85.2174C111.414 84.4378 113.503 80.025 114.54 77.4288" fill="white"/>
<path d="M120.769 75.6122L157.38 71.9789L157.645 75.0901L125.961 84.7023C125.961 84.7023 120.254 85.9969 115.834 85.2174C111.414 84.4378 113.503 80.025 114.54 77.4288" stroke="#263238" stroke-linecap="round" stroke-linejoin="round"/>
<path d="M157.387 71.9787L164.396 71.7142L166.47 75.8695L157.644 75.0969L157.387 71.9787Z" fill="white" stroke="#263238" stroke-linecap="round" stroke-linejoin="round"/>
<path d="M204.07 133.048L210.049 204.231C210.064 204.337 210.102 204.439 210.158 204.53C210.215 204.622 210.289 204.7 210.377 204.761C210.465 204.823 210.565 204.865 210.67 204.887C210.775 204.908 210.883 204.908 210.988 204.886C211.167 204.841 211.325 204.734 211.431 204.583C211.537 204.432 211.585 204.248 211.566 204.064L207.494 133.069L204.07 133.048Z" fill="#263238" stroke="#263238" stroke-linecap="round" stroke-linejoin="round"/>
<path d="M244.251 133.048L250.251 204.468C250.266 204.575 250.303 204.677 250.359 204.769C250.415 204.86 250.49 204.939 250.578 205.001C250.666 205.062 250.766 205.105 250.872 205.126C250.977 205.147 251.086 205.145 251.191 205.122C251.37 205.078 251.527 204.971 251.633 204.82C251.739 204.669 251.787 204.485 251.769 204.301L247.683 133.048H244.251Z" fill="#263238" stroke="#263238" stroke-linecap="round" stroke-linejoin="round"/>
<path d="M78.4291 133.048L75.3039 203.612C75.2866 203.797 75.336 203.982 75.4432 204.134C75.5504 204.286 75.7084 204.395 75.8886 204.44C75.992 204.467 76.0999 204.471 76.205 204.452C76.31 204.433 76.4099 204.392 76.4977 204.331C76.5854 204.271 76.6592 204.192 76.7138 204.1C76.7684 204.008 76.8027 203.906 76.8143 203.8L81.8744 133.048H78.4291Z" fill="#263238" stroke="#263238" stroke-linecap="round" stroke-linejoin="round"/>
<path d="M41.3942 133.048L38.2481 203.347C38.2326 203.533 38.2835 203.718 38.3919 203.87C38.5002 204.022 38.659 204.13 38.8397 204.176C38.9431 204.201 39.0506 204.204 39.1552 204.185C39.2599 204.166 39.3592 204.124 39.4467 204.064C39.5342 204.003 39.6079 203.925 39.6628 203.834C39.7178 203.743 39.7528 203.641 39.7655 203.535L44.8047 133.021L41.3942 133.048Z" fill="#263238" stroke="#263238" stroke-linecap="round" stroke-linejoin="round"/>
<path d="M252.076 129.102H39.1672V135.213H252.076V129.102Z" fill="#C29603" stroke="#263238" stroke-linecap="round" stroke-linejoin="round"/>
<path d="M252.076 129.102H39.1672V131.197H252.076V129.102Z" fill="#263238" stroke="#263238" stroke-linecap="round" stroke-linejoin="round"/>
<path d="M252.068 129.102H198.794V135.213H252.068V129.102Z" fill="#263238" stroke="#263238" stroke-linecap="round" stroke-linejoin="round"/>
<path d="M253.968 127.07H37.2661V129.401H253.968V127.07Z" fill="#C29603" stroke="#263238" stroke-linecap="round" stroke-linejoin="round"/>
<path d="M253.961 127.07H201.014V129.401H253.961V127.07Z" fill="#263238" stroke="#263238" stroke-linecap="round" stroke-linejoin="round"/>
<path d="M85.5362 126.861H114.616C114.727 126.862 114.836 126.83 114.929 126.769C115.022 126.708 115.094 126.622 115.138 126.52L123.191 108.159C123.228 108.073 123.243 107.979 123.235 107.885C123.227 107.792 123.195 107.702 123.143 107.624C123.091 107.546 123.021 107.482 122.938 107.438C122.855 107.394 122.763 107.371 122.669 107.372H93.5892C93.4803 107.372 93.3737 107.404 93.2822 107.463C93.1908 107.522 93.1186 107.607 93.0742 107.706L85.049 126.067C85.0115 126.151 84.995 126.243 85.0009 126.334C85.0069 126.426 85.0351 126.515 85.0831 126.593C85.1311 126.671 85.1975 126.736 85.2764 126.783C85.3554 126.83 85.4445 126.856 85.5362 126.861Z" fill="white" stroke="#263238" stroke-linecap="round" stroke-linejoin="round"/>
<path d="M88.2649 125.427H113.078C113.171 125.427 113.262 125.4 113.34 125.349C113.418 125.298 113.479 125.226 113.517 125.141L120.387 109.474C120.424 109.4 120.441 109.318 120.437 109.235C120.433 109.152 120.408 109.072 120.364 109.002C120.32 108.932 120.258 108.875 120.186 108.835C120.113 108.796 120.031 108.776 119.948 108.778H95.1347C95.0399 108.777 94.947 108.805 94.8677 108.857C94.7884 108.909 94.7263 108.983 94.6892 109.07L87.8333 124.752C87.8011 124.824 87.7874 124.904 87.7934 124.983C87.7993 125.062 87.8248 125.138 87.8676 125.205C87.9103 125.272 87.969 125.327 88.0383 125.366C88.1077 125.405 88.1855 125.426 88.2649 125.427Z" fill="#C29603" stroke="#263238" stroke-linecap="round" stroke-linejoin="round"/>
<path d="M115.02 125.642H71.3298V127.069H115.02V125.642Z" fill="white" stroke="#263238" stroke-linecap="round" stroke-linejoin="round"/>
<path d="M115.027 125.642H93.8469V127.069H115.027V125.642Z" fill="white" stroke="#263238" stroke-linecap="round" stroke-linejoin="round"/>
<path d="M129.059 115.711H121.354V127.098H129.059V115.711Z" fill="white" stroke="#263238" stroke-linecap="round" stroke-linejoin="round"/>
<path d="M128.718 125.545H127.91C127.742 125.545 127.581 125.479 127.462 125.36C127.344 125.241 127.277 125.08 127.277 124.912C127.277 124.744 127.344 124.583 127.462 124.464C127.581 124.345 127.742 124.279 127.91 124.279H128.718C129.036 124.277 129.342 124.149 129.567 123.924C129.792 123.698 129.92 123.393 129.922 123.074V120.29C129.92 119.972 129.792 119.666 129.567 119.441C129.342 119.216 129.036 119.088 128.718 119.086H127.681C127.597 119.086 127.515 119.07 127.438 119.038C127.361 119.006 127.291 118.96 127.233 118.901C127.174 118.842 127.127 118.772 127.095 118.695C127.064 118.618 127.047 118.536 127.047 118.453C127.047 118.37 127.064 118.287 127.095 118.21C127.127 118.134 127.174 118.064 127.233 118.005C127.291 117.946 127.361 117.9 127.438 117.868C127.515 117.836 127.597 117.819 127.681 117.819H128.718C129.042 117.819 129.363 117.883 129.663 118.008C129.963 118.132 130.235 118.314 130.465 118.543C130.694 118.773 130.876 119.045 131 119.345C131.125 119.645 131.189 119.966 131.189 120.29V123.074C131.189 123.399 131.125 123.72 131 124.02C130.876 124.32 130.694 124.592 130.465 124.822C130.235 125.051 129.963 125.233 129.663 125.357C129.363 125.481 129.042 125.545 128.718 125.545Z" fill="white" stroke="#263238" stroke-linecap="round" stroke-linejoin="round"/>
<path d="M179.411 126.861H150.331C150.221 126.86 150.114 126.828 150.022 126.767C149.931 126.707 149.859 126.621 149.815 126.52L141.762 108.159C141.726 108.073 141.711 107.98 141.719 107.887C141.727 107.794 141.758 107.705 141.809 107.627C141.86 107.549 141.929 107.485 142.011 107.441C142.093 107.396 142.184 107.373 142.277 107.372H171.358C171.468 107.372 171.575 107.403 171.668 107.462C171.76 107.521 171.834 107.606 171.88 107.706L179.933 126.067C179.969 126.154 179.984 126.248 179.976 126.342C179.967 126.435 179.936 126.525 179.884 126.604C179.832 126.682 179.762 126.747 179.68 126.792C179.597 126.837 179.505 126.86 179.411 126.861Z" fill="white" stroke="#263238" stroke-linecap="round" stroke-linejoin="round"/>
<path d="M159.775 127.07H203.465V125.643H159.775V127.07Z" fill="white" stroke="#263238" stroke-linecap="round" stroke-linejoin="round"/>
<path d="M159.775 127.07H189.899V125.643H159.775V127.07Z" fill="white" stroke="#263238" stroke-linecap="round" stroke-linejoin="round"/>
<path d="M161.328 114.993C161.485 115.291 161.552 115.629 161.518 115.965C161.484 116.3 161.352 116.618 161.139 116.879C160.925 117.14 160.639 117.332 160.317 117.431C159.995 117.53 159.65 117.531 159.327 117.435C159.004 117.339 158.716 117.15 158.5 116.892C158.284 116.633 158.149 116.316 158.112 115.981C158.075 115.646 158.138 115.307 158.293 115.008C158.448 114.708 158.688 114.461 158.982 114.297C159.386 114.079 159.859 114.03 160.299 114.161C160.739 114.291 161.109 114.591 161.328 114.993Z" fill="white" stroke="#263238" stroke-linecap="round" stroke-linejoin="round"/>
<path d="M45.0397 60.9469L47.1834 82.1271L56.9279 110.337L53.5939 112.244L42.1511 86.4216L36.4367 64.2531C36.4367 64.2531 35.9565 57.5851 38.3439 56.5967C40.7312 55.6084 44.0861 56.6594 45.0397 60.9469Z" fill="white" stroke="#263238" stroke-linecap="round" stroke-linejoin="round"/>
<path d="M56.9563 110.365C56.9563 110.365 59.1001 114.896 59.3437 116.086C59.5873 117.277 59.8309 119.706 58.8913 120.791C57.7567 122.1 56.7196 121.091 56.7196 121.091C56.7196 121.091 53.859 120.395 53.859 117.993C53.859 115.592 53.6223 112.272 53.6223 112.272L56.9563 110.365Z" fill="white" stroke="#263238" stroke-linecap="round" stroke-linejoin="round"/>
<path d="M54.6172 117.471L58.6333 118.515" stroke="#263238" stroke-linecap="round" stroke-linejoin="round"/>
<path d="M55.5777 114.764L56.7192 116.56C56.7192 116.56 54.0604 121.105 55.4873 119.915C56.9141 118.724 59.5799 117.277 59.3433 116.087C58.9402 114.838 58.4084 113.634 57.7563 112.495" fill="white"/>
<path d="M55.5777 114.764L56.7192 116.56C56.7192 116.56 54.0604 121.105 55.4873 119.915C56.9141 118.724 59.5799 117.277 59.3433 116.087C58.9402 114.838 58.4084 113.634 57.7563 112.495" stroke="#263238" stroke-linecap="round" stroke-linejoin="round"/>
<path d="M33.6464 35.4933C33.6464 35.4933 31.1963 32.8484 25.5446 34.5467C19.8928 36.245 18.5843 45.2934 18.7583 49.8107C18.9323 54.3279 23.2825 59.4228 21.967 61.6849C20.6515 63.947 15.7445 69.2229 16.1203 74.9095C16.4962 80.5961 21.2083 85.0854 27.9946 83.0113C34.7809 80.9371 33.6463 72.6335 32.2961 69.5988C30.9458 66.5641 33.8064 65.2625 34.7461 58.6642C35.6857 52.0658 29.6581 46.602 29.6581 41.8899C29.6581 37.1777 34.5303 37.9364 34.5303 37.9364L33.6464 35.4933Z" fill="#263238" stroke="#263238" stroke-linecap="round" stroke-linejoin="round"/>
<path d="M25.1551 53.3807C26.0461 55.2183 27.0831 57.1811 28.1133 59.297C31.5516 66.313 28.865 68.8465 23.6378 72.7304C18.4106 76.6142 19.6078 81.389 20.9511 82.1268" stroke="white" stroke-width="0.5" stroke-linecap="round" stroke-linejoin="round"/>
<path d="M31.8507 37.3513C31.8507 37.3513 24.8347 37.9499 23.039 42.4254C21.9532 45.1469 22.7884 48.1955 24.3893 51.7452" stroke="white" stroke-width="0.5" stroke-linecap="round" stroke-linejoin="round"/>
<path d="M26.7209 80.38C27.2607 80.5829 27.8364 80.6729 28.4123 80.6445" stroke="white" stroke-width="0.5" stroke-linecap="round" stroke-linejoin="round"/>
<path d="M33.6468 36.8853C33.6468 36.8853 27.0763 38.0755 25.5868 42.8502C24.0973 47.625 32.902 54.6827 33.3475 59.8751C33.793 65.0675 27.5217 68.1022 25.2944 72.1322C23.7284 74.9581 23.9024 78.0693 25.552 79.6354" stroke="white" stroke-width="0.5" stroke-linecap="round" stroke-linejoin="round"/>
<path d="M50.5042 132.986C50.5042 132.986 48.8824 146.99 47.2537 151.459C45.625 155.927 41.9778 191.042 41.776 193.074C41.5741 195.107 47.0519 199.77 49.2861 201.197C51.5204 202.624 50.5042 203.021 48.0681 203.223C45.632 203.424 42.7922 203.021 41.5741 200.786C40.3561 198.552 37.5093 197.947 37.5093 197.947L37.1056 202.819H36.2913L35.6857 196.729C35.4787 195.346 35.6896 193.933 36.2913 192.671C37.3075 190.436 37.6833 185.766 37.6833 179.446C37.6833 173.126 36.4653 162.999 37.0708 158.127C37.6764 153.255 40.1194 149.6 40.1194 145.543C40.1194 141.485 40.3213 135.394 40.3213 135.394L50.5042 132.986Z" fill="white" stroke="#263238" stroke-linecap="round" stroke-linejoin="round"/>
<path d="M35.6859 196.728C35.5242 195.681 35.6124 194.61 35.9434 193.603C37.2032 195.733 40.8156 198.622 43.5997 199.77C45.1093 200.424 46.755 200.701 48.3954 200.577C48.7225 200.821 49.0287 201.03 49.2863 201.197C51.5205 202.589 50.5043 203.021 48.0682 203.222C45.6321 203.424 42.7923 203.021 41.5743 200.786C40.3562 198.552 37.5095 197.946 37.5095 197.946L37.1058 202.819H36.2914L35.6859 196.728Z" fill="#263238" stroke="#263238" stroke-linecap="round" stroke-linejoin="round"/>
<path d="M38.727 135.22C38.727 135.22 35.2469 145.57 32.0312 154.5C28.8156 163.43 21.0688 183.935 20.2544 187.59C19.4401 191.244 19.0364 197.946 16.7743 201.399C14.5122 204.851 12.3058 206.473 12.7095 200.383C13.1132 194.292 16.7743 189.824 17.5817 185.153C18.3891 180.483 18.7997 163.639 21.6395 156.129C24.4793 148.619 27.5279 142.529 27.9038 140.294C28.1814 138.071 28.3162 135.832 28.3075 133.592L38.727 135.22Z" fill="white" stroke="#263238" stroke-linecap="round" stroke-linejoin="round"/>
<path d="M13.1271 197.772C13.1571 198.92 13.5145 200.036 14.1572 200.988C15.3265 202.296 17.2128 199.756 18.1942 198.204C17.8731 199.323 17.405 200.395 16.8021 201.392C14.5678 204.837 12.3336 206.466 12.7373 200.375C12.8044 199.499 12.9347 198.629 13.1271 197.772Z" fill="#263238" stroke="#263238" stroke-linecap="round" stroke-linejoin="round"/>
<path d="M37.1262 53.5204C37.1262 53.5204 35.9081 54.5366 35.0938 61.4412C34.2794 68.3458 39.3604 89.8601 39.3604 89.8601C39.3604 89.8601 30.6322 104.157 28.5998 111.263C26.5674 118.369 25.3494 144.993 25.3494 144.993C25.3494 144.993 29.616 146.621 38.3442 147.227C47.0724 147.832 51.7428 145.605 51.7428 145.605C51.7428 145.605 52.1465 107.609 52.1465 101.755C52.1465 95.9016 52.5572 82.5866 53.1627 80.9648C53.7682 79.3431 55.5988 75.0764 55.5988 73.4547C55.5988 71.8329 43.3904 54.5366 43.3904 54.5366L37.1262 53.5204Z" fill="white" stroke="#263238" stroke-linecap="round" stroke-linejoin="round"/>
<path d="M28.5781 111.263C30.179 105.695 36.8052 90.8832 39.1717 88.3357C42.7701 89.5329 49.3337 90.7161 52.264 89.8391C52.1735 91.9272 52.1248 99.7227 52.1248 101.72C52.1248 107.609 51.7211 145.57 51.7211 145.57C51.7211 145.57 47.0507 147.804 38.3225 147.192C29.5943 146.579 25.3276 144.958 25.3276 144.958C25.3276 144.958 26.5457 118.369 28.5781 111.263Z" fill="#263238" stroke="#263238" stroke-linecap="round" stroke-linejoin="round"/>
<path d="M41.6289 29.591C41.6289 29.591 43.8075 24.8441 48.1159 24.8441C52.4243 24.8441 54.3384 28.6723 53.3848 32.0202C52.4313 35.3681 56.2525 34.4145 56.7327 36.5722C57.213 38.7299 53.6215 40.1568 51.7074 40.1568C49.7933 40.1568 41.6289 29.591 41.6289 29.591Z" fill="#263238" stroke="#263238" stroke-linecap="round" stroke-linejoin="round"/>
<path d="M47.9229 29.1032C49.2035 28.4071 50.707 27.906 51.403 28.9918C52.7463 31.0799 48.5702 32.7225 49.9135 34.9637C51.2568 37.2049 54.5421 36.6064 54.389 37.3511C54.2358 38.0959 52.1547 38.5413 52.1547 38.5413" stroke="white" stroke-width="0.5" stroke-linecap="round" stroke-linejoin="round"/>
<path d="M45.7292 30.6209C45.7292 30.6209 46.1399 30.2659 46.7524 29.8344" stroke="white" stroke-width="0.5" stroke-linecap="round" stroke-linejoin="round"/>
<path d="M52.6748 40.6368C52.3701 40.4103 52.1301 40.108 51.9787 39.7598C51.6307 37.1915 50.879 34.6649 49.4591 33.245C47.3111 31.2229 44.5717 29.9423 41.6427 29.5908C40.7754 29.463 39.8901 29.5441 39.0604 29.8275C35.3645 31.1221 32.1906 33.6765 32.8727 39.8364C33.6244 46.6227 38.9073 48.321 38.9073 48.321L39.2832 52.4972L44.5591 54.9472L44.747 50.423C44.747 50.423 48.3246 51.9264 49.6192 51.7385C50.9138 51.5506 51.3175 49.8522 51.8813 47.4022C52.0883 46.2843 52.1908 45.1495 52.1875 44.0126L53.7675 42.4395C54.6654 41.5277 53.7815 41.305 52.6748 40.6368Z" fill="white" stroke="#263238" stroke-linecap="round" stroke-linejoin="round"/>
<path d="M32.8596 39.8364C32.1635 33.6765 35.3513 31.1221 39.0473 29.8275C39.8769 29.5441 40.7622 29.463 41.6295 29.5908C43.6264 29.8578 45.5488 30.5254 47.2813 31.5536C46.2233 31.3379 48.026 34.4491 46.3695 36.4258C44.9189 38.2609 43.0694 39.7414 40.9613 40.7551C40.9613 40.7551 39.0821 39.2448 38.5113 41.3189C37.9406 43.3931 38.1355 44.8965 39.6459 45.2793C41.1562 45.6621 41.7339 45.2793 41.7339 45.2793C41.7339 45.2793 40.7317 47.6528 38.9498 48.6342V48.2931C38.9498 48.2931 33.6461 46.6296 32.8596 39.8364Z" fill="#263238" stroke="#263238" stroke-linecap="round" stroke-linejoin="round"/>
<path d="M47.2537 53.7219L46.2445 59.2067L35.4839 53.5201L36.5001 48.446L47.2537 53.7219Z" fill="white" stroke="#263238" stroke-linecap="round" stroke-linejoin="round"/>
<path d="M42.0548 99.9662C43.1692 100.205 44.3 100.358 45.4375 100.426C46.3215 100.37 47.5256 99.3746 48.4165 99.7992C49.3074 100.224 50.5533 102.903 50.5533 102.903C50.5533 102.903 51.7366 103.502 51.3955 104.135C51.0545 104.769 49.5928 105.353 49.5928 105.353C49.5928 105.353 48.2008 106.669 47.3934 106.801C46.586 106.933 41.665 103.321 41.665 103.321L42.0548 99.9662Z" fill="white" stroke="#263238" stroke-linecap="round" stroke-linejoin="round"/>
<path d="M42.5758 102.569C42.7387 102.373 42.8557 102.144 42.9183 101.897C42.9808 101.65 42.9873 101.392 42.9373 101.143C42.8872 100.893 42.7819 100.658 42.629 100.454C42.4761 100.251 42.2795 100.084 42.0538 99.966L28.5299 87.2982L43.2579 64.3989C43.915 63.1881 44.0746 61.7689 43.7027 60.4425C43.3309 59.116 42.4568 57.9866 41.2661 57.2938C40.0753 56.6011 38.6615 56.3996 37.3245 56.7319C35.9876 57.0643 34.8328 57.9045 34.1051 59.0743L21.3399 84.4445C20.6762 85.0886 20.2925 85.968 20.2716 86.8926C20.2508 87.8173 20.5945 88.713 21.2286 89.3863L21.2773 89.4351C22.558 91.4118 36.6456 101.748 40.7661 103.098C41.0862 103.2 41.4292 103.203 41.7515 103.109C42.0738 103.015 42.3607 102.827 42.5758 102.569Z" fill="white" stroke="#263238" stroke-linecap="round" stroke-linejoin="round"/>
<path d="M86.2395 67.5104C86.2395 67.5104 87.9866 72.9185 87.9866 73.9695C87.9737 74.7287 87.9156 75.4864 87.8126 76.2386L89.3508 78.626C89.441 78.7795 89.4688 78.9618 89.4287 79.1353C89.3886 79.3088 89.2835 79.4603 89.135 79.5586L86.7616 80.9507C86.7616 80.9507 86.4136 86.5189 86.0655 87.215C85.7175 87.911 79.8013 87.7439 79.8013 87.7439L77.8802 91.4051L67.927 87.5699L70.5441 80.4078L70.0012 69.5985C70.0012 69.5985 76.1123 64.1973 86.2395 67.5104Z" fill="white" stroke="#263238" stroke-linecap="round" stroke-linejoin="round"/>
<path d="M79.4256 80.6655C79.4256 80.6655 77.6925 82.2942 76.3909 82.4055C75.0894 82.5169 70.8575 81.5355 70.5304 81.104C70.2032 80.6724 67.2799 74.5961 67.3843 71.6658C67.4887 68.7355 67.6071 64.3993 70.7461 62.9933C73.8852 61.5873 78.8827 62.0119 81.4859 60.3901C84.089 58.7684 88.2095 57.4599 90.3811 60.2788C92.5528 63.0977 90.924 67.0024 89.1909 68.6311C87.4578 70.2598 85.2862 70.7192 85.502 71.4152C85.7177 72.1113 87.0193 72.9326 86.2606 74.0184C85.502 75.1042 82.7805 76.1065 82.7805 76.5102C82.7805 76.9139 83.4348 78.466 82.6761 78.6818C81.9174 78.8976 81.1518 77.1644 80.3931 77.1644C79.6344 77.1644 78.0197 79.2595 79.4256 80.6655Z" fill="#263238" stroke="#263238" stroke-linecap="round" stroke-linejoin="round"/>
<path d="M74.8936 75.6887C74.5809 76.0385 74.3143 76.4268 74.1001 76.8441" stroke="white" stroke-width="0.5" stroke-linecap="round" stroke-linejoin="round"/>
<path d="M89.1487 64.4478C89.0109 65.6423 88.5756 66.7832 87.8824 67.7658C87.1892 68.7484 86.2605 69.5413 85.1813 70.0717C82.3972 71.5124 78.6873 72.6887 76.2234 74.4984" stroke="white" stroke-width="0.5" stroke-linecap="round" stroke-linejoin="round"/>
<path d="M85.5009 71.45C85.5009 71.45 83.0301 73.538 80.3851 75.6888C78.5803 77.0858 76.5737 78.2006 74.4341 78.9949" stroke="white" stroke-width="0.5" stroke-linecap="round" stroke-linejoin="round"/>
<path d="M79.2515 80.9578L80.6435 81.3058C80.5592 81.9565 80.609 82.6177 80.7897 83.2485C80.9705 83.8793 81.2784 84.4665 81.6945 84.9738" fill="white"/>
<path d="M79.2515 80.9578L80.6435 81.3058C80.5592 81.9565 80.609 82.6177 80.7897 83.2485C80.9705 83.8793 81.2784 84.4665 81.6945 84.9738" stroke="#263238" stroke-linecap="round" stroke-linejoin="round"/>
<path d="M80.8655 77.2199L90.6934 74.7838" stroke="#263238" stroke-linecap="round" stroke-linejoin="round"/>
<path d="M88.167 74.5891L90.4082 74.6866C90.4082 74.6866 91.1808 77.2201 88.8491 77.5124" stroke="#263238" stroke-linecap="round" stroke-linejoin="round"/>
<path d="M78.2561 194.925C78.2561 194.925 87.3045 200.64 88.8984 200.64C90.4923 200.64 91.2858 202.074 90.4923 202.234C89.6988 202.394 84.771 202.547 81.4439 202.707C78.1169 202.867 75.8757 202.547 73.9755 202.547C72.0754 202.547 69.8411 202.707 68.8876 202.234C67.934 201.76 69.5279 196.352 69.5279 195.399C69.5279 194.445 77.1425 194.285 78.2561 194.925Z" fill="#263238" stroke="#263238" stroke-linecap="round" stroke-linejoin="round"/>
<path d="M89.9217 200.876C86.4068 202.032 80.7063 201.273 77.2818 200.96C74.5743 200.716 70.3215 200.661 68.5884 200.647C68.5188 201.461 68.5884 202.081 68.8599 202.234C69.8134 202.707 72.0407 202.547 73.9479 202.547C75.855 202.547 78.0753 202.867 81.4162 202.707C84.7572 202.547 89.6781 202.387 90.4646 202.234C91.0841 202.108 90.7918 201.287 89.9217 200.876Z" fill="white" stroke="#263238" stroke-linecap="round" stroke-linejoin="round"/>
<path d="M85.4035 155.669L78.2623 191.48L79.7518 195.197C78.6828 196.745 77.07 197.833 75.2345 198.246C73.1934 198.647 71.1199 198.861 69.0399 198.886C69.0399 198.886 68.2464 194.912 68.7267 194.431C69.2069 193.951 69.3601 192.051 69.3601 192.051L73.4875 155.983L85.4035 155.669Z" fill="#C29603" stroke="#263238" stroke-linecap="round" stroke-linejoin="round"/>
<path d="M107.168 193.714C107.168 193.714 112.736 198.322 115.277 199.115C117.817 199.909 120.518 200.702 120.518 201.496C120.518 202.289 114.484 203.083 109.876 202.609C105.268 202.136 98.273 200.069 96.686 200.069C95.0991 200.069 95.4123 195.934 95.4123 195.301C95.4123 194.668 103.201 189.58 107.168 193.714Z" fill="#263238" stroke="#263238" stroke-linecap="round" stroke-linejoin="round"/>
<path d="M120.546 201.496C120.546 201.21 120.191 200.925 119.628 200.64C115.079 201.248 110.469 201.215 105.93 200.542C101.357 199.888 97.5286 199.011 95.5728 198.524C95.7398 199.38 96.0669 200.069 96.7142 200.069C98.3012 200.069 105.296 202.157 109.904 202.609C114.512 203.062 120.546 202.289 120.546 201.496Z" fill="white" stroke="#263238" stroke-linecap="round" stroke-linejoin="round"/>
<path d="M79.5288 139.619C84.2932 139.254 89.0819 139.362 93.8252 139.939C101.927 140.893 120.031 142.027 120.344 144.074C120.657 146.12 106.298 189.128 106.298 190.234C106.298 191.341 107.565 192.462 107.885 193.095C108.087 193.547 108.196 194.034 108.205 194.529C108.205 194.529 104.314 198.705 101.294 199.84C98.2728 200.974 95.7254 199.909 95.0989 199.909C94.4725 199.909 94.4656 195.622 94.9458 193.554C95.4261 191.487 96.2126 186.246 96.3727 185.773C96.5328 185.299 105.233 154.716 105.233 154.716C105.233 154.716 81.5681 158.53 67.4318 156.936C53.2954 155.342 51.8616 153.129 51.0681 149.788C50.2746 146.447 51.8616 139.779 51.8616 139.779L79.5288 139.619Z" fill="#C29603" stroke="#263238" stroke-linecap="round" stroke-linejoin="round"/>
<path d="M77.7403 149.913C77.4192 150.378 77.0607 150.815 76.6685 151.222" stroke="#263238" stroke-linecap="round" stroke-linejoin="round"/>
<path d="M82.0705 141.366C81.1572 143.654 80.1042 145.883 78.9175 148.041" stroke="#263238" stroke-linecap="round" stroke-linejoin="round"/>
<path d="M80.1767 142.96C78.2596 146.122 75.3569 148.568 71.9148 149.92" stroke="#263238" stroke-linecap="round" stroke-linejoin="round"/>
<path d="M116.245 151.73C116.788 151.521 117.31 151.305 117.804 151.083L116.245 151.73Z" fill="white"/>
<path d="M116.245 151.73C116.788 151.521 117.31 151.305 117.804 151.083" stroke="#263238" stroke-linecap="round" stroke-linejoin="round"/>
<path d="M105.234 154.716C108.291 154.126 111.312 153.361 114.282 152.426L105.234 154.716Z" fill="white"/>
<path d="M105.234 154.716C108.291 154.126 111.312 153.361 114.282 152.426" stroke="#263238" stroke-linecap="round" stroke-linejoin="round"/>
<path d="M123.602 101.95C123.936 100.62 124.493 100.725 124.047 100.286C123.435 99.6736 122.941 100.398 121.166 101.393C119.391 102.388 117.623 103.606 117.623 103.606C117.662 103.237 117.815 102.889 118.062 102.611C118.51 101.877 118.751 101.035 118.758 100.175C118.758 99.4788 118.201 99.618 117.978 100.286C117.755 100.954 115.765 102.165 115.653 102.722C115.542 103.279 115.145 105.465 115.145 105.465C114.512 106.418 114.512 110.866 114.512 110.866L101.614 120.555L95.0996 128.211C95.0996 128.211 97.9603 132.819 99.5472 132.185C101.134 131.552 101.928 130.911 105.742 127.731C108.971 125.037 117.066 112.613 117.066 112.613C118.476 111.727 119.81 110.726 121.055 109.62C122.49 107.996 123.338 105.937 123.463 103.773C123.433 103.162 123.48 102.549 123.602 101.95Z" fill="white" stroke="#263238" stroke-linecap="round" stroke-linejoin="round"/>
<path d="M63.9242 87.25C63.9242 87.25 65.1492 82.6562 70.3555 83.575C75.5618 84.4937 79.5431 88.7813 80.4618 90.3125C81.3806 91.8438 63.6179 89.7 63.6179 89.7L63.9242 87.25Z" fill="white" stroke="#263238" stroke-linecap="round" stroke-linejoin="round"/>
<path d="M93.9372 127.369C93.9372 127.369 92.7261 128.678 93.9372 130.738C94.7655 132.165 96.2271 133.257 99.0252 132.777C101.642 132.318 105.575 125.817 105.575 121.244C105.575 116.671 102.206 116.372 100.981 117.263C99.756 118.154 93.9372 127.369 93.9372 127.369Z" fill="white" stroke="#263238" stroke-linecap="round" stroke-linejoin="round"/>
<path d="M66.1797 86.7141C66.1797 86.7141 53.7903 92.5956 52.0433 93.6744C50.2963 94.7533 49.1826 108.604 49.1826 110.992C49.1826 113.379 50.9297 136.745 51.403 140.698C51.8763 144.652 67.1332 147.373 72.2212 145.939C77.3092 144.505 82.2649 140.893 82.2649 139.619C82.2649 138.346 81.7846 127.55 82.1048 125.483C82.425 123.416 85.2787 114.681 85.2787 114.681L93.9512 128.518C93.9512 128.518 94.863 130.216 98.0856 128.88C102.693 126.972 103.076 119.602 103.076 119.602C103.076 119.602 97.9952 110.706 96.5613 106.259C95.1275 101.811 94.4733 98.4701 93.8608 97.6766C93.2482 96.8831 78.924 90.2082 76.3835 88.4612C74.945 87.3778 73.2684 86.6539 71.4935 86.35C69.7185 86.0461 67.8966 86.171 66.1797 86.7141Z" fill="white" stroke="#263238" stroke-linecap="round" stroke-linejoin="round"/>
<path d="M85.2446 114.68L81.1172 108.639" stroke="#263238" stroke-linecap="round" stroke-linejoin="round"/>
<path d="M84.576 113.817L77.3025 110.233" stroke="#263238" stroke-linecap="round" stroke-linejoin="round"/>
<path d="M63.0205 159.386L69.3683 204.503C69.3829 204.608 69.4192 204.708 69.4748 204.798C69.5304 204.888 69.6041 204.965 69.6913 205.024C69.7784 205.084 69.877 205.125 69.9808 205.144C70.0846 205.163 70.1913 205.161 70.294 205.136C70.4724 205.092 70.6292 204.986 70.7364 204.837C70.8435 204.688 70.894 204.505 70.8787 204.322L66.4032 158.642L63.0205 159.386Z" fill="#263238" stroke="#263238" stroke-linecap="round" stroke-linejoin="round"/>
<path d="M44.7833 159.741L34.1758 204.051C34.1516 204.153 34.149 204.26 34.1683 204.364C34.1877 204.468 34.2284 204.566 34.2881 204.653C34.3477 204.741 34.4248 204.814 34.5146 204.87C34.6043 204.926 34.7046 204.962 34.8092 204.976C34.9907 205.003 35.1758 204.963 35.3297 204.863C35.4835 204.763 35.5955 204.61 35.6444 204.433L47.9642 161.433L44.7833 159.741Z" fill="#263238" stroke="#263238" stroke-linecap="round" stroke-linejoin="round"/>
<path d="M64.0498 159.191L57.2983 204.245C57.2827 204.349 57.2886 204.455 57.3157 204.557C57.3428 204.658 57.3904 204.753 57.4557 204.835C57.521 204.917 57.6025 204.985 57.6952 205.035C57.7878 205.084 57.8897 205.114 57.9943 205.122C58.1773 205.132 58.3577 205.076 58.5023 204.963C58.6469 204.851 58.7458 204.69 58.7808 204.51L67.349 160.604L64.0498 159.191Z" fill="#263238" stroke="#263238" stroke-linecap="round" stroke-linejoin="round"/>
<path d="M87.9512 159.386L94.299 204.503C94.3136 204.608 94.3498 204.708 94.4054 204.798C94.4611 204.888 94.5348 204.965 94.6219 205.024C94.7091 205.084 94.8077 205.125 94.9115 205.144C95.0152 205.163 95.1219 205.161 95.2247 205.137C95.403 205.092 95.5599 204.986 95.667 204.837C95.7742 204.688 95.8246 204.505 95.8093 204.322L91.313 158.628L87.9512 159.386Z" fill="#263238" stroke="#263238" stroke-linecap="round" stroke-linejoin="round"/>
<path d="M34.7403 112.564L42.4662 162.797H97.4108C97.4108 162.797 98.2251 148.319 95.8029 143.204C93.3807 138.088 63.4724 149.057 62.3935 148.772C61.5931 148.57 62.7763 122.636 64.245 112.502C64.3478 111.788 64.296 111.061 64.093 110.37C63.89 109.678 63.5407 109.038 63.0686 108.494C62.5966 107.949 62.0129 107.512 61.3572 107.213C60.7015 106.914 59.9891 106.759 59.2684 106.76H39.7099C38.9836 106.759 38.2658 106.915 37.6059 107.219C36.946 107.522 36.3597 107.965 35.8873 108.517C35.415 109.068 35.0678 109.716 34.8698 110.415C34.6718 111.114 34.6276 111.847 34.7403 112.564Z" fill="#C29603" stroke="#263238" stroke-linecap="round" stroke-linejoin="round"/>
<path d="M95.8025 143.204C93.3803 138.088 63.472 149.057 62.3931 148.772C61.5927 148.57 62.7759 122.636 64.2446 112.502C64.3729 111.797 64.3445 111.074 64.1613 110.381C63.9781 109.689 63.6447 109.046 63.1847 108.498C62.7247 107.949 62.1494 107.509 61.4999 107.208C60.8503 106.907 60.1424 106.752 59.4265 106.756C58.7106 106.76 58.0043 106.921 57.3579 107.229C56.7114 107.536 56.1407 107.983 55.6863 108.536C55.2319 109.089 54.905 109.736 54.7289 110.429C54.5527 111.123 54.5317 111.848 54.6672 112.55L62.3931 162.783H97.4104C97.4104 162.783 98.2247 148.319 95.8025 143.204Z" fill="#263238" stroke="#263238" stroke-linecap="round" stroke-linejoin="round"/>
<path d="M123.603 101.95C123.603 101.95 122.719 102.834 121.389 104.386L123.603 101.95Z" fill="white"/>
<path d="M123.603 101.95C123.603 101.95 122.719 102.834 121.389 104.386" stroke="#263238" stroke-linecap="round" stroke-linejoin="round"/>
<path d="M123.463 103.745C123.463 103.745 122.384 105.938 121.723 106.933L123.463 103.745Z" fill="white"/>
<path d="M123.463 103.745C123.463 103.745 122.384 105.938 121.723 106.933" stroke="#263238" stroke-linecap="round" stroke-linejoin="round"/>
<path d="M3.61874 145.897C4.51232 146.284 6.69246 146.236 6.69784 146.236C6.70323 146.236 6.22952 144.809 6.18645 144.723C5.70736 143.717 4.18934 142.064 2.95662 142.231C2.75256 142.264 2.55781 142.34 2.38509 142.454C2.21238 142.567 2.0656 142.716 1.95433 142.891C1.84307 143.065 1.76982 143.261 1.73939 143.465C1.70896 143.67 1.72203 143.878 1.77773 144.077C1.98229 144.928 2.85434 145.563 3.61874 145.897Z" fill="#263238"/>
<path d="M32.2289 138.463C30.9908 138.328 29.5373 140.024 29.069 141.041C29.0313 141.127 28.5792 142.57 28.6007 142.57C28.3638 142.834 28.1162 143.108 27.8524 143.442C27.368 144.034 26.8297 144.712 26.286 145.488C25.7004 146.318 25.1612 147.181 24.6711 148.071C24.1185 149.07 23.6539 150.115 23.2822 151.194C23.2846 151.206 23.2846 151.219 23.2822 151.231C23.2822 150.871 23.2822 149.848 23.2822 149.772C23.1369 148.669 22.2056 146.623 20.9891 146.397C20.7864 146.365 20.5791 146.375 20.3806 146.427C20.182 146.479 19.9967 146.573 19.8364 146.701C19.6762 146.829 19.5446 146.99 19.4501 147.172C19.3556 147.354 19.3004 147.554 19.288 147.759C19.2127 148.637 19.8263 149.514 20.4669 150.063C21.1667 150.688 23.1046 151.29 23.2607 151.339C22.9087 152.458 22.6353 153.6 22.4425 154.757C22.3187 155.425 22.2218 156.097 22.1303 156.776C22.1303 156.458 22.1303 156.178 22.1303 156.141C21.9903 155.037 21.0537 152.991 19.8425 152.765C19.6382 152.733 19.4295 152.745 19.2299 152.799C19.0303 152.853 18.8443 152.948 18.6839 153.078C18.5235 153.209 18.3923 153.371 18.2989 153.556C18.2054 153.74 18.1518 153.942 18.1414 154.149C18.0714 155.026 18.6797 155.904 19.3257 156.458C19.9717 157.013 21.592 157.567 22.0172 157.702C21.9849 157.965 21.9472 158.24 21.9149 158.482C21.7696 159.731 21.6243 160.98 21.4466 162.196C21.382 162.627 21.3067 163.047 21.2313 163.467C21.2313 163.187 21.2313 162.956 21.2313 162.929C21.086 161.825 20.1547 159.78 18.9381 159.553C18.7338 159.522 18.5253 159.534 18.326 159.589C18.1267 159.644 17.9411 159.74 17.7812 159.87C17.6213 160.001 17.4907 160.164 17.3979 160.349C17.3051 160.534 17.2522 160.736 17.2425 160.942C17.1725 161.814 17.7808 162.692 18.4267 163.246C19.2305 163.777 20.111 164.182 21.0375 164.447C20.946 164.877 20.8545 165.303 20.7468 165.717C20.6661 165.997 20.6122 166.255 20.5153 166.546C20.4185 166.837 20.3377 167.084 20.2516 167.364C20.0632 167.876 19.8748 168.409 19.681 168.904C19.5464 169.254 19.4118 169.582 19.2826 169.91C19.3472 169.485 19.4603 168.645 19.4657 168.575C19.4505 167.597 19.1855 166.639 18.6959 165.792C18.7092 165.685 18.7092 165.577 18.6959 165.469C18.6715 165.262 18.6032 165.063 18.4957 164.884C18.3881 164.705 18.2438 164.551 18.0721 164.432C17.9005 164.314 17.7056 164.233 17.5004 164.196C17.2951 164.158 17.0843 164.165 16.8818 164.215C15.676 164.533 14.917 166.643 14.8578 167.752C14.8578 167.816 14.9008 168.532 14.9331 168.985C14.8739 168.721 14.8147 168.446 14.7501 168.199C14.6263 167.66 14.4809 167.122 14.3356 166.584C14.2495 166.309 14.1687 166.045 14.0826 165.76C13.9965 165.475 13.8888 165.222 13.7919 164.92C13.5551 164.269 13.2859 163.623 12.9952 162.977C13.4582 162.864 15.1054 162.439 15.7675 161.938C16.4296 161.437 17.124 160.603 17.1186 159.726C17.125 159.517 17.0868 159.309 17.0064 159.116C16.926 158.923 16.8053 158.749 16.6525 158.606C16.4996 158.464 16.3181 158.355 16.12 158.288C15.9219 158.221 15.7118 158.198 15.5037 158.218C14.2656 158.353 13.189 160.323 12.9683 161.411C12.9683 161.481 12.8768 162.277 12.8445 162.719C12.6722 162.331 12.4946 161.943 12.3062 161.556C11.7679 160.447 11.1542 159.333 10.5675 158.224L10.0292 157.201C10.196 157.163 12.1824 156.711 12.9037 156.124C13.625 155.538 14.2602 154.795 14.2549 153.912C14.2604 153.703 14.2215 153.496 14.1408 153.303C14.0601 153.11 13.9395 152.937 13.7868 152.795C13.6341 152.652 13.453 152.544 13.2553 152.477C13.0575 152.409 12.8478 152.385 12.6399 152.405C11.4018 152.539 10.3306 154.509 10.1045 155.597C10.1045 155.683 9.98072 156.83 9.96995 157.126C9.58237 156.377 9.20017 155.624 8.85566 154.87C8.38269 153.851 7.97632 152.803 7.63909 151.732C7.71445 151.732 9.79231 151.247 10.5352 150.655C11.1919 150.149 11.8917 149.32 11.8809 148.443C11.8873 148.234 11.8491 148.026 11.7687 147.833C11.6883 147.64 11.5676 147.466 11.4148 147.324C11.2619 147.181 11.0804 147.072 10.8823 147.006C10.6842 146.939 10.4741 146.915 10.266 146.936C9.02792 147.07 7.95669 149.04 7.7306 150.128C7.7306 150.214 7.60141 151.452 7.59602 151.678C7.59602 151.613 7.55296 151.554 7.53143 151.49C7.22549 150.407 7.01475 149.299 6.90161 148.179C6.83701 147.56 6.80472 146.968 6.78319 146.386C7.17615 146.338 8.9364 146.101 9.70618 145.654C10.476 145.208 11.2027 144.475 11.3211 143.603C11.3491 143.399 11.3338 143.19 11.276 142.992C11.2183 142.793 11.1195 142.609 10.986 142.451C10.8525 142.293 10.6873 142.165 10.5011 142.075C10.315 141.985 10.112 141.936 9.90535 141.929C8.65649 141.929 7.37532 143.77 7.03081 144.825C7.03081 144.885 6.89084 145.488 6.80472 145.929C6.80472 145.671 6.80472 145.391 6.80472 145.148C6.80472 144.206 6.86393 143.345 6.92314 142.586C6.96082 142.15 7.00389 141.757 7.04695 141.391C7.40762 141.143 8.84489 140.131 9.2863 139.405C9.72771 138.678 10.0722 137.671 9.74925 136.853C9.6799 136.659 9.57041 136.481 9.42791 136.332C9.28541 136.183 9.11309 136.065 8.92216 135.987C8.73123 135.909 8.52597 135.872 8.31975 135.878C8.11352 135.885 7.91095 135.934 7.72522 136.024C6.61631 136.595 6.32562 138.818 6.50865 139.916C6.50865 140.008 6.94468 141.461 6.96082 141.45C6.91238 141.8 6.86393 142.177 6.82087 142.591C6.7455 143.356 6.67014 144.206 6.64322 145.165C6.61078 146.181 6.63594 147.198 6.71859 148.211C6.79788 149.348 6.97802 150.476 7.25689 151.581C7.25923 151.594 7.25923 151.606 7.25689 151.619C7.0631 151.312 6.48712 150.472 6.43329 150.413C5.70657 149.573 3.80636 148.373 2.66515 148.863C2.47699 148.948 2.30893 149.072 2.17195 149.227C2.03496 149.381 1.93213 149.563 1.87016 149.76C1.80819 149.957 1.78847 150.165 1.81229 150.371C1.83612 150.576 1.90294 150.774 2.00842 150.951C2.43368 151.721 3.44569 152.103 4.2693 152.222C5.19518 152.356 7.14385 151.791 7.29996 151.748C7.62014 152.864 8.01397 153.957 8.47885 155.021C8.748 155.64 9.01715 156.259 9.33475 156.873C9.15711 156.609 8.99562 156.377 8.97409 156.334C8.24738 155.495 6.34716 154.294 5.20595 154.784C5.02097 154.878 4.85805 155.011 4.72794 155.172C4.59782 155.334 4.50347 155.522 4.45108 155.723C4.3987 155.924 4.38947 156.133 4.42402 156.338C4.45856 156.543 4.53609 156.738 4.6515 156.91C5.07137 157.68 6.08877 158.062 6.907 158.181C7.72522 158.299 9.41011 157.858 9.85152 157.729C9.96995 157.965 10.083 158.202 10.2014 158.434C10.7397 159.559 11.3372 160.678 11.8594 161.793C12.0424 162.186 12.2093 162.579 12.3977 162.972L12.0801 162.519C11.3534 161.68 9.45318 160.485 8.31197 160.969C8.1241 161.056 7.95649 161.181 7.82003 161.336C7.68358 161.491 7.58132 161.674 7.5199 161.871C7.45848 162.069 7.43926 162.277 7.46351 162.482C7.48775 162.687 7.55491 162.885 7.66062 163.063C8.08588 163.833 9.0979 164.215 9.91612 164.334C10.8889 164.337 11.8565 164.192 12.7853 163.903C12.9468 164.312 13.1083 164.721 13.2428 165.119C13.3344 165.399 13.4366 165.658 13.5066 165.943C13.5766 166.228 13.6627 166.481 13.7381 166.772C13.8673 167.31 14.0019 167.849 14.1149 168.387C14.1956 168.748 14.2656 169.098 14.3356 169.464C14.1526 169.071 13.7973 168.306 13.7489 168.247C13.1567 167.305 11.4611 165.835 10.2553 166.142C10.0568 166.2 9.87265 166.298 9.71464 166.431C9.55663 166.564 9.4283 166.729 9.33798 166.914C9.24765 167.1 9.19734 167.303 9.19029 167.509C9.18324 167.715 9.21962 167.921 9.29707 168.112C9.59852 168.936 10.5406 169.469 11.3319 169.727C12.2093 169.991 14.1418 169.727 14.3841 169.727C14.5025 170.303 14.6048 170.869 14.7017 171.402C15.0246 173.248 15.24 174.804 15.353 175.886C15.353 176.079 15.3961 176.252 15.4122 176.424H11.6441L13.0114 203.108H19.3957L20.763 176.424H17.2694L17.3501 176.268C17.8292 175.267 18.4913 173.835 19.2073 172.08C19.4387 171.541 19.6702 170.933 19.9017 170.32C20.1385 170.368 22.0549 170.756 22.9431 170.551C23.7559 170.368 24.7357 169.91 25.0963 169.114C25.1884 168.929 25.2403 168.726 25.2487 168.519C25.2571 168.313 25.2218 168.107 25.145 167.915C25.0683 167.722 24.9519 167.549 24.8034 167.405C24.655 167.261 24.4778 167.15 24.2835 167.079C23.1046 166.681 21.3067 168.021 20.6445 168.915C20.6069 168.968 20.2462 169.587 20.0255 169.991L20.3108 169.238C20.4992 168.726 20.6715 168.204 20.8491 167.65L21.0913 166.826C21.1828 166.551 21.2421 166.255 21.3174 165.965C21.4735 165.292 21.6027 164.603 21.7212 163.903C22.1679 164.064 23.7775 164.624 24.6065 164.565C25.4355 164.506 26.4744 164.204 26.9535 163.488C27.0749 163.318 27.1589 163.125 27.1998 162.92C27.2407 162.715 27.2377 162.504 27.1909 162.3C27.144 162.097 27.0545 161.905 26.9282 161.739C26.8019 161.573 26.6417 161.435 26.4582 161.335C25.3816 160.797 23.3684 161.82 22.5824 162.6C22.534 162.654 22.0441 163.278 21.7642 163.628C21.8288 163.209 21.8934 162.789 21.9472 162.358C22.1033 161.125 22.2164 159.871 22.3402 158.622C22.3779 158.24 22.4209 157.858 22.4586 157.476C22.6201 157.535 24.515 158.24 25.4462 158.175C26.2698 158.116 27.3088 157.815 27.7879 157.099C27.9093 156.929 27.9933 156.735 28.0342 156.53C28.0751 156.325 28.0721 156.114 28.0252 155.911C27.9784 155.707 27.8889 155.516 27.7626 155.349C27.6363 155.183 27.4761 155.045 27.2926 154.946C26.216 154.38 24.2081 155.43 23.4168 156.211C23.3576 156.27 22.6363 157.174 22.464 157.411C22.5555 156.571 22.6524 155.737 22.7816 154.913C22.9474 153.804 23.1865 152.707 23.4976 151.63C23.5729 151.63 25.5431 152.399 26.5013 152.335C27.3249 152.276 28.3638 151.969 28.8429 151.258C28.9652 151.088 29.0499 150.895 29.0913 150.69C29.1327 150.485 29.1299 150.273 29.083 150.069C29.0361 149.866 28.9463 149.674 28.8195 149.508C28.6927 149.341 28.5318 149.204 28.3477 149.105C27.2711 148.534 25.2632 149.584 24.4719 150.37C24.4127 150.429 23.6375 151.403 23.5083 151.586L23.5568 151.398C23.8986 150.325 24.3345 149.283 24.8595 148.287C25.1448 147.748 25.4462 147.21 25.7477 146.726C26.103 146.903 27.7286 147.695 28.5899 147.727C29.4512 147.759 30.4848 147.571 31.0446 146.892C31.1776 146.738 31.277 146.557 31.3364 146.362C31.3958 146.167 31.414 145.961 31.3897 145.759C31.3654 145.556 31.2992 145.361 31.1953 145.186C31.0914 145.01 30.9521 144.858 30.7862 144.739C29.7473 144.05 27.664 144.874 26.7974 145.568C26.7489 145.606 26.3075 146.042 25.9953 146.365C26.1353 146.144 26.2752 145.913 26.4152 145.708C26.9535 144.922 27.4595 144.239 27.9332 143.63C28.2023 143.291 28.4715 142.99 28.6922 142.71C29.1282 142.71 30.8885 142.645 31.6583 142.285C32.428 141.924 33.2732 141.273 33.4508 140.417C33.5253 140.208 33.5515 139.985 33.5276 139.764C33.5036 139.544 33.4301 139.332 33.3126 139.144C33.195 138.956 33.0365 138.797 32.8488 138.679C32.6611 138.561 32.4492 138.487 32.2289 138.463ZM18.529 171.703C17.7808 173.426 17.0917 174.831 16.6019 175.805L16.3273 176.343H16.2466C16.2466 176.155 16.1928 175.945 16.1605 175.713C16.0097 174.637 15.7729 173.054 15.4014 171.197C15.2884 170.61 15.1538 169.986 15.0085 169.345C15.5903 169.11 16.1582 168.843 16.7095 168.543C17.4584 169.193 18.2935 169.737 19.1911 170.158C18.9704 170.68 18.7443 171.208 18.529 171.703Z" fill="#263238"/>
<path d="M25.7108 146.376C25.7108 146.376 26.1091 144.928 26.1199 144.831C26.276 143.727 25.9261 141.515 24.8011 140.971C24.6141 140.887 24.4118 140.844 24.207 140.843C24.0022 140.841 23.7994 140.883 23.6116 140.964C23.4237 141.046 23.2549 141.166 23.1158 141.316C22.9768 141.466 22.8706 141.644 22.8039 141.838C22.5025 142.661 22.8847 143.673 23.3423 144.373C23.8806 145.213 25.7108 146.376 25.7108 146.376Z" fill="#263238"/>
<path d="M257.394 202.944H5.79541V206.41H257.394V202.944Z" fill="#263238"/>
</svg>
