<svg width="251" height="253" viewBox="0 0 251 253" fill="none" xmlns="http://www.w3.org/2000/svg">
<path d="M234.166 65.1035C243.107 60.9928 247.023 50.4121 242.913 41.4708C238.802 32.5295 228.221 28.6135 219.28 32.7241C210.339 36.8348 206.423 47.4155 210.533 56.3568C214.644 65.2981 225.225 69.2141 234.166 65.1035Z" fill="#939393"/>
<path d="M234.811 49.4553C234.606 49.5037 234.394 49.5236 234.183 49.5145L232.448 49.5619C230.98 49.5619 228.937 49.6034 226.621 49.6093H226.467V48.3183C226.467 45.7364 226.467 43.4032 226.515 41.7096C226.515 40.9161 226.55 40.241 226.562 39.7081C226.557 39.4619 226.577 39.2159 226.621 38.9738C226.669 39.2154 226.689 39.4618 226.68 39.7081C226.68 40.241 226.71 40.8924 226.734 41.7096C226.734 43.4032 226.775 45.7364 226.775 48.3183V49.5027L226.621 49.3546C228.937 49.3546 230.98 49.3546 232.448 49.402L234.183 49.4494C234.392 49.4291 234.603 49.4311 234.811 49.4553Z" fill="#E4E4E4"/>
<path d="M226.676 34.0162C226.83 34.4998 226.882 35.0098 226.83 35.5144C226.882 36.0172 226.83 36.5252 226.676 37.0067C226.526 36.5245 226.474 36.0172 226.522 35.5144C226.474 35.0098 226.526 34.5005 226.676 34.0162Z" fill="#E4E4E4"/>
<path d="M234.802 36.421C234.861 36.4802 234.441 37.0132 233.866 37.5698C233.292 38.1265 232.771 38.5647 232.712 38.5055C232.652 38.4463 233.073 37.9133 233.647 37.3567C234.222 36.8 234.737 36.3618 234.802 36.421Z" fill="#E4E4E4"/>
<path d="M239.545 41.608C239.586 41.685 239.029 42.0403 238.36 42.4608C237.965 42.7575 237.522 42.9857 237.052 43.1359C236.998 43.0707 237.496 42.6207 238.2 42.1943C238.596 41.8955 239.056 41.6946 239.545 41.608Z" fill="#E4E4E4"/>
<path d="M242.328 49.3003C240.976 49.5051 239.6 49.5051 238.248 49.3003C239.6 49.0954 240.976 49.0954 242.328 49.3003Z" fill="#E4E4E4"/>
<path d="M214.021 49.0281C212.744 49.2333 211.442 49.2333 210.166 49.0281C211.442 48.8228 212.744 48.8228 214.021 49.0281Z" fill="#E4E4E4"/>
<path d="M216.021 54.7605C215.621 55.2843 215.139 55.7402 214.594 56.1107C214.109 56.553 213.56 56.9203 212.966 57.2003C213.369 56.6775 213.853 56.2218 214.399 55.8501C214.881 55.4058 215.428 55.0383 216.021 54.7605Z" fill="#E4E4E4"/>
<path d="M220.962 59.1909C220.712 59.8058 220.392 60.3899 220.009 60.9319C219.71 61.5248 219.345 62.0812 218.919 62.59C219.078 61.9381 219.357 61.3216 219.742 60.772C220.045 60.1728 220.459 59.6364 220.962 59.1909Z" fill="#E4E4E4"/>
<path d="M226.676 64.8992C226.525 64.2314 226.473 63.545 226.523 62.8621C226.473 62.1772 226.525 61.4888 226.676 60.8191C226.831 61.4883 226.883 62.1772 226.83 62.8621C226.883 63.545 226.831 64.232 226.676 64.8992Z" fill="#E4E4E4"/>
<path d="M235.476 62.186C234.237 61.5882 233.181 60.6677 232.42 59.5212C232.975 59.9105 233.495 60.3484 233.972 60.83C234.512 61.2374 235.015 61.6912 235.476 62.186Z" fill="#E4E4E4"/>
<path d="M239.612 57.7398C239.087 57.427 238.621 57.0263 238.232 56.5554C237.758 56.1697 237.357 55.7025 237.048 55.1757C238.031 55.8744 238.889 56.7331 239.588 57.7161L239.612 57.7398Z" fill="#E4E4E4"/>
<path d="M215.839 43.5388C215.779 43.6039 215.246 43.1539 214.619 42.538C213.991 41.9221 213.553 41.3536 213.612 41.3181C213.671 41.2826 214.204 41.7089 214.832 42.3189C215.46 42.9288 215.898 43.4796 215.839 43.5388Z" fill="#E4E4E4"/>
<path d="M220.933 38.1744C220.874 38.2337 220.341 37.7954 219.749 37.1973C219.156 36.5992 218.706 36.0604 218.765 36.013C218.825 35.9656 219.358 36.392 219.95 36.9901C220.542 37.5882 220.992 38.1152 220.933 38.1744Z" fill="#E4E4E4"/>
<path d="M68 3H5V118H68V3Z" fill="#C8C4C4"/>
<path d="M65 6H7V114H65V6Z" fill="#E4E4E4"/>
<path d="M65 7.28493L7 82V6H65V7.28493Z" fill="#F5F5F5"/>
<path d="M67 37H7V39H67V37Z" fill="#C8C4C4"/>
<path d="M67 63H7V64H67V63Z" fill="#C8C4C4"/>
<path d="M67 89H7V90H67V89Z" fill="#C8C4C4"/>
<path d="M35 38L35 117H38L38 38H35Z" fill="#C8C4C4"/>
<path d="M20 6H19V38H20V6Z" fill="#C8C4C4"/>
<path d="M31 6H30V38H31V6Z" fill="#C8C4C4"/>
<path d="M43 6H41V38H43V6Z" fill="#C8C4C4"/>
<path d="M54 6H53V38H54V6Z" fill="#C8C4C4"/>
<path d="M5 1H2V118H5V1Z" fill="#F5F5F5"/>
<path d="M71 119L68 117.967V1H71V119Z" fill="#939393"/>
<path d="M71 0H2V3H71V0Z" fill="#939393"/>
<path d="M73 119H0V122H73V119Z" fill="#939393"/>
<path d="M68.4665 118L73 119H0L4.61356 118H68.4665Z" fill="#C8C4C4"/>
<path d="M192.472 25.2693H80.6099V127.728H192.472V25.2693Z" fill="#E4E4E4"/>
<path d="M192.767 128.026H80.312V24.9867H192.767V128.026ZM80.9042 127.433H192.174V25.5789H80.9042V127.433Z" fill="#263238"/>
<path d="M194.495 19.1056H78.02V25.6373H194.495V19.1056Z" fill="#263238"/>
<path d="M80.8638 25.6373L192.223 36.5689L192.164 25.6373H80.8638Z" fill="#939393"/>
<path d="M101.763 59.812H98.0088V101.732H101.763V59.812Z" fill="#8E6E00"/>
<path d="M109.012 74.0477H105.258V101.732H109.012V74.0477Z" fill="#8E6E00"/>
<path d="M116.26 65.0231H112.505V101.945H116.26V65.0231Z" fill="#8E6E00"/>
<path d="M123.501 61.4286H119.747V101.726H123.501V61.4286Z" fill="#8E6E00"/>
<path d="M130.748 74.9015H126.994V101.733H130.748V74.9015Z" fill="#8E6E00"/>
<path d="M137.996 80.1644H134.241V101.732H137.996V80.1644Z" fill="#8E6E00"/>
<path d="M145.238 64.1168H141.484V101.732H145.238V64.1168Z" fill="#8E6E00"/>
<path d="M152.487 70.897H148.733V101.732H152.487V70.897Z" fill="#8E6E00"/>
<path d="M159.736 65.4784H155.982V101.732H159.736V65.4784Z" fill="#8E6E00"/>
<path d="M166.979 77.032H163.225V101.732H166.979V77.032Z" fill="#8E6E00"/>
<path d="M174.228 72.3307H170.474V101.732H174.228V72.3307Z" fill="#8E6E00"/>
<path d="M171.906 69.3168C171.823 69.313 171.742 69.2991 171.663 69.2754L170.958 69.1332C170.579 69.0512 170.195 68.99 169.809 68.9497C169.287 68.8768 168.761 68.8333 168.234 68.8194C166.785 68.771 165.336 68.8963 163.917 69.1924C162.049 69.5963 160.252 70.279 158.587 71.2177C156.564 72.3602 154.735 73.8174 153.169 75.5347C151.435 77.5592 149.904 79.7489 148.597 82.0723C147.123 84.4766 145.637 87.094 143.463 89.3265C142.379 90.4865 141.098 91.4448 139.679 92.1571C138.942 92.5126 138.156 92.7542 137.346 92.8736C136.524 92.9803 135.689 92.9503 134.877 92.7848C133.278 92.3989 131.799 91.6238 130.572 90.5286C129.374 89.4996 128.303 88.3328 127.38 87.0525C125.532 84.5595 124.217 81.871 122.808 79.4253C121.567 77.0704 120.032 74.8817 118.242 72.9113C117.415 72.0362 116.463 71.288 115.418 70.6907C114.927 70.4072 114.416 70.1598 113.89 69.9504C113.382 69.7613 112.861 69.6069 112.332 69.4885C110.464 69.0593 108.518 69.1143 106.677 69.6484C105.285 70.0443 103.972 70.6752 102.792 71.5138C102.055 72.0574 101.371 72.6701 100.749 73.3436L100.276 73.8766C100.169 74.0009 100.11 74.0602 100.104 74.0542C100.098 74.0483 100.151 73.9832 100.252 73.8588L100.708 73.3022C101.311 72.605 101.986 71.9738 102.721 71.419C103.902 70.5521 105.225 69.8969 106.63 69.4826C108.499 68.9222 110.481 68.8509 112.386 69.2754C114.699 69.7995 116.803 71.004 118.426 72.7337C120.244 74.7201 121.8 76.9311 123.057 79.3128C124.472 81.7585 125.793 84.4351 127.622 86.8926C128.532 88.1554 129.587 89.3062 130.767 90.3214C131.953 91.3732 133.375 92.1247 134.912 92.5124C136.473 92.8316 138.096 92.6233 139.525 91.9202C140.909 91.2244 142.16 90.2903 143.22 89.1607C145.358 86.9637 146.85 84.37 148.325 81.9657C149.648 79.6269 151.197 77.4233 152.95 75.3866C154.542 73.6561 156.401 72.1925 158.457 71.0519C160.151 70.1106 161.978 69.4336 163.876 69.0444C165.31 68.7602 166.774 68.6528 168.234 68.7246C168.766 68.7472 169.296 68.8006 169.821 68.8845C170.206 68.9328 170.588 69.004 170.964 69.0977L171.663 69.2694C171.745 69.2787 171.826 69.2946 171.906 69.3168Z" fill="#263238"/>
<path d="M93.8799 104.651C93.791 104.651 93.72 92.6954 93.72 77.9561C93.72 63.2168 93.791 51.2548 93.8799 51.2548C93.9687 51.2548 94.0338 63.2108 94.0338 77.9561C94.0338 92.7013 93.9628 104.651 93.8799 104.651Z" fill="#263238"/>
<path d="M175.761 104.651C175.761 104.734 157.954 104.805 135.996 104.805C114.038 104.805 96.2314 104.734 96.2314 104.651C96.2314 104.568 114.032 104.497 135.996 104.497C157.96 104.497 175.761 104.574 175.761 104.651Z" fill="#263238"/>
<path d="M103.359 107.95C102.44 108.102 101.507 108.154 100.576 108.104C99.6456 108.154 98.7124 108.102 97.793 107.95C98.7124 107.798 99.6456 107.746 100.576 107.796C101.507 107.746 102.44 107.798 103.359 107.95Z" fill="#263238"/>
<path d="M112.607 108.128C111.505 108.283 110.39 108.335 109.279 108.282C108.171 108.334 107.061 108.283 105.962 108.128C107.067 107.976 108.183 107.924 109.296 107.974C110.402 107.925 111.51 107.977 112.607 108.128Z" fill="#263238"/>
<path d="M120.482 108.128C119.38 108.284 118.266 108.335 117.154 108.282C116.042 108.335 114.928 108.283 113.826 108.128C114.929 107.976 116.042 107.924 117.154 107.974C118.266 107.924 119.38 107.975 120.482 108.128Z" fill="#263238"/>
<path d="M128.361 108.128C127.259 108.284 126.145 108.335 125.033 108.282C123.922 108.335 122.807 108.283 121.705 108.128C122.808 107.976 123.922 107.924 125.033 107.974C126.145 107.924 127.259 107.975 128.361 108.128Z" fill="#263238"/>
<path d="M136.244 108.128C135.142 108.283 134.028 108.335 132.916 108.282C131.805 108.335 130.69 108.284 129.588 108.128C130.691 107.975 131.805 107.924 132.916 107.974C134.028 107.924 135.142 107.976 136.244 108.128Z" fill="#263238"/>
<path d="M144.128 108.127C143.026 108.282 141.912 108.334 140.8 108.281C139.688 108.334 138.574 108.283 137.472 108.127C139.686 107.922 141.914 107.922 144.128 108.127Z" fill="#263238"/>
<path d="M152.009 108.127C149.793 108.332 147.563 108.332 145.347 108.127C147.563 107.922 149.793 107.922 152.009 108.127Z" fill="#263238"/>
<path d="M159.889 108.127C157.673 108.332 155.443 108.332 153.227 108.127C155.443 107.922 157.673 107.922 159.889 108.127Z" fill="#263238"/>
<path d="M167.767 108.127C165.553 108.333 163.325 108.333 161.111 108.127C163.325 107.922 165.553 107.922 167.767 108.127Z" fill="#263238"/>
<path d="M175.649 108.127C173.435 108.332 171.207 108.332 168.993 108.127C171.207 107.922 173.435 107.922 175.649 108.127Z" fill="#263238"/>
<path d="M123.661 79.7024C123.661 79.6609 123.998 79.7735 124.105 80.2356C124.178 80.5032 124.148 80.7884 124.022 81.0353C123.937 81.196 123.792 81.3171 123.619 81.373C123.527 81.3994 123.43 81.4073 123.334 81.3961C123.239 81.3849 123.146 81.3549 123.062 81.3078C122.907 81.221 122.78 81.092 122.695 80.9358C122.61 80.7796 122.571 80.6026 122.583 80.4251C122.592 80.2868 122.631 80.1521 122.698 80.0304C122.764 79.9087 122.856 79.8029 122.968 79.7202C123.039 79.658 123.124 79.6137 123.215 79.591C123.307 79.5684 123.403 79.568 123.495 79.5899C123.619 79.6254 123.667 79.6906 123.655 79.7024C123.643 79.7143 123.376 79.6195 123.104 79.8861C122.957 80.0324 122.872 80.2297 122.867 80.437C122.866 80.5567 122.897 80.6745 122.956 80.7785C123.016 80.8825 123.101 80.969 123.205 81.0294C123.252 81.0612 123.306 81.0828 123.362 81.0929C123.418 81.103 123.476 81.1013 123.532 81.0879C123.587 81.0746 123.64 81.0498 123.685 81.0153C123.731 80.9808 123.769 80.9371 123.797 80.8872C123.891 80.7048 123.93 80.499 123.909 80.2948C123.856 79.9098 123.637 79.7617 123.661 79.7024Z" fill="#263238"/>
<path d="M159.937 69.6363C159.937 69.6363 160.026 69.5889 160.18 69.6363C160.39 69.7136 160.565 69.8653 160.671 70.0626C160.758 70.206 160.814 70.3662 160.834 70.5326C160.854 70.6989 160.839 70.8678 160.79 71.0279C160.734 71.2376 160.612 71.4238 160.443 71.5592C160.273 71.6946 160.065 71.772 159.848 71.78C159.733 71.7729 159.62 71.7412 159.518 71.687C159.416 71.6329 159.326 71.5576 159.256 71.4661C159.131 71.3104 159.044 71.128 159.001 70.9332C158.962 70.7711 158.955 70.6027 158.981 70.4379C159.008 70.2731 159.067 70.1153 159.155 69.9738C159.493 69.4942 159.913 69.5178 159.901 69.5534C159.889 69.5889 159.57 69.6659 159.345 70.0804C159.228 70.3087 159.196 70.5712 159.256 70.8206C159.333 71.1049 159.552 71.4128 159.848 71.4128C159.999 71.3998 160.143 71.3421 160.261 71.2472C160.379 71.1523 160.466 71.0244 160.511 70.8799C160.593 70.6245 160.576 70.3476 160.464 70.1041C160.349 69.8911 160.162 69.7254 159.937 69.6363Z" fill="#263238"/>
<path d="M160.529 49.799C160.44 49.799 160.375 49.5976 160.375 49.3547C160.375 49.1118 160.44 48.9104 160.529 48.9104C160.617 48.9104 160.683 49.1059 160.683 49.3547C160.683 49.6035 160.611 49.799 160.529 49.799Z" fill="#263238"/>
<path d="M160.529 53.6948C160.44 53.6948 160.375 53.2565 160.375 52.7233C160.375 52.1902 160.44 51.7458 160.529 51.7458C160.617 51.7458 160.683 52.1842 160.683 52.7233C160.683 53.2624 160.611 53.6948 160.529 53.6948Z" fill="#263238"/>
<path d="M160.529 57.5917C160.44 57.5917 160.375 57.1592 160.375 56.6202C160.375 56.0811 160.44 55.6427 160.529 55.6427C160.617 55.6427 160.683 56.0811 160.683 56.6202C160.683 57.1592 160.611 57.5917 160.529 57.5917Z" fill="#263238"/>
<path d="M160.529 61.495C160.44 61.495 160.375 61.0566 160.375 60.5176C160.375 59.9785 160.44 59.546 160.529 59.546C160.617 59.546 160.683 59.9785 160.683 60.5176C160.683 61.0566 160.611 61.495 160.529 61.495Z" fill="#263238"/>
<path d="M160.529 65.39C160.44 65.39 160.375 64.9517 160.375 64.4185C160.375 63.8853 160.44 63.441 160.529 63.441C160.617 63.441 160.683 63.8794 160.683 64.4185C160.683 64.9576 160.611 65.39 160.529 65.39Z" fill="#263238"/>
<path d="M160.529 68.2269C160.44 68.2269 160.375 68.0314 160.375 67.7826C160.375 67.5337 160.44 67.3383 160.529 67.3383C160.617 67.3383 160.683 67.5397 160.683 67.7826C160.683 68.0254 160.611 68.2269 160.529 68.2269Z" fill="#263238"/>
<path d="M187.232 42.2952C187.232 42.384 181.079 42.4492 173.482 42.4492C165.884 42.4492 159.731 42.384 159.731 42.2952C159.731 42.2064 165.884 42.1412 173.482 42.1412C181.079 42.1412 187.232 42.2123 187.232 42.2952Z" fill="#263238"/>
<path d="M177.84 38.4453C177.84 38.5283 173.879 38.5993 168.993 38.5993C164.108 38.5993 160.146 38.5283 160.146 38.4453C160.146 38.3624 164.108 38.2914 168.993 38.2914C173.879 38.2914 177.84 38.3624 177.84 38.4453Z" fill="#263238"/>
<g opacity="0.3">
<path d="M101.763 59.812H98.0088V101.732H101.763V59.812Z" fill="#B4B3B3"/>
</g>
<g opacity="0.3">
<path d="M109.012 74.0477H105.258V101.732H109.012V74.0477Z" fill="#B4B3B3"/>
</g>
<g opacity="0.3">
<path d="M116.26 65.0231H112.505V101.945H116.26V65.0231Z" fill="#B4B3B3"/>
</g>
<g opacity="0.3">
<path d="M123.501 61.4286H119.747V101.726H123.501V61.4286Z" fill="#B4B3B3"/>
</g>
<g opacity="0.3">
<path d="M130.748 74.9015H126.994V101.733H130.748V74.9015Z" fill="#B4B3B3"/>
</g>
<g opacity="0.3">
<path d="M137.996 80.1644H134.241V101.732H137.996V80.1644Z" fill="#B4B3B3"/>
</g>
<g opacity="0.3">
<path d="M145.238 64.1168H141.484V101.732H145.238V64.1168Z" fill="#B4B3B3"/>
</g>
<g opacity="0.3">
<path d="M152.487 70.897H148.733V101.732H152.487V70.897Z" fill="#B4B3B3"/>
</g>
<g opacity="0.3">
<path d="M159.736 65.4784H155.982V101.732H159.736V65.4784Z" fill="#B4B3B3"/>
</g>
<g opacity="0.3">
<path d="M166.979 77.032H163.225V101.732H166.979V77.032Z" fill="#B4B3B3"/>
</g>
<g opacity="0.3">
<path d="M174.228 72.3307H170.474V101.732H174.228V72.3307Z" fill="#B4B3B3"/>
</g>
<path d="M216.117 242.143H220.215V193.046H216.117V242.143Z" fill="#455A64"/>
<path d="M189.174 195.267H247.799C247.799 193.58 247.129 191.963 245.937 190.77C244.744 189.577 243.126 188.907 241.439 188.907H195.534C193.847 188.907 192.229 189.577 191.037 190.77C189.844 191.963 189.174 193.58 189.174 195.267Z" fill="#455A64"/>
<path d="M214.19 195.397C216.582 195.595 218.986 195.595 221.379 195.397C218.987 195.192 216.582 195.192 214.19 195.397Z" fill="#263238"/>
<path d="M200.243 246.592H200.835C200.919 242.023 202.793 237.67 206.054 234.469C209.315 231.267 213.702 229.474 218.272 229.474C222.841 229.474 227.228 231.267 230.489 234.469C233.75 237.67 235.624 242.023 235.708 246.592H236.301C236.215 241.87 234.279 237.371 230.91 234.062C227.54 230.753 223.006 228.899 218.284 228.899C213.561 228.899 209.027 230.753 205.658 234.062C202.288 237.371 200.352 241.87 200.267 246.592H200.243Z" fill="#455A64"/>
<path d="M233.278 247.484C233.278 248.018 233.437 248.54 233.733 248.984C234.03 249.429 234.452 249.775 234.945 249.979C235.439 250.183 235.982 250.237 236.505 250.133C237.029 250.029 237.51 249.771 237.888 249.394C238.266 249.016 238.523 248.535 238.627 248.011C238.731 247.487 238.678 246.944 238.473 246.451C238.269 245.957 237.923 245.536 237.479 245.239C237.035 244.942 236.513 244.784 235.979 244.784C235.263 244.785 234.577 245.071 234.071 245.577C233.565 246.083 233.28 246.769 233.278 247.484Z" fill="#263238"/>
<path d="M197.697 247.119C197.698 247.652 197.857 248.174 198.154 248.617C198.452 249.06 198.874 249.406 199.368 249.609C199.861 249.813 200.404 249.865 200.927 249.76C201.451 249.656 201.931 249.398 202.308 249.02C202.685 248.642 202.942 248.161 203.046 247.637C203.149 247.114 203.096 246.571 202.891 246.078C202.687 245.585 202.34 245.163 201.896 244.867C201.453 244.571 200.931 244.412 200.397 244.412C200.042 244.412 199.69 244.482 199.362 244.618C199.034 244.755 198.736 244.954 198.485 245.205C198.235 245.457 198.036 245.755 197.9 246.083C197.765 246.412 197.696 246.763 197.697 247.119Z" fill="#455A64"/>
<path d="M200.416 242.144C200.416 242.227 208.256 242.298 217.926 242.298C227.596 242.298 235.437 242.227 235.437 242.144C235.437 242.061 227.596 241.996 217.926 241.996C208.256 241.996 200.416 242.061 200.416 242.144Z" fill="#455A64"/>
<path d="M249.504 144.44V180.563C249.504 182.84 248.6 185.024 246.989 186.634C245.379 188.245 243.195 189.149 240.918 189.149H213.085L216.869 144.422C216.869 143.407 217.273 142.434 217.99 141.717C218.707 141 219.68 140.597 220.695 140.597H245.697C246.199 140.599 246.696 140.7 247.159 140.895C247.623 141.089 248.043 141.373 248.397 141.73C248.75 142.086 249.03 142.509 249.22 142.975C249.41 143.44 249.507 143.937 249.504 144.44Z" fill="#455A64"/>
<path d="M239.657 188.907C239.673 188.869 239.695 188.833 239.722 188.801L239.923 188.505C240.113 188.25 240.373 187.865 240.693 187.356C241.583 185.917 242.276 184.366 242.754 182.743C243.092 181.628 243.324 180.484 243.447 179.326C243.559 177.991 243.594 176.65 243.553 175.311C243.553 172.469 243.553 169.348 243.553 166.073C243.553 159.529 243.589 153.608 243.601 149.285C243.601 147.159 243.63 145.43 243.642 144.198C243.642 143.606 243.642 143.156 243.672 142.818C243.669 142.656 243.679 142.493 243.701 142.333C243.714 142.494 243.714 142.657 243.701 142.818C243.701 143.156 243.701 143.618 243.731 144.198C243.731 145.43 243.731 147.159 243.772 149.285C243.772 153.608 243.802 159.529 243.82 166.073C243.82 169.348 243.82 172.469 243.82 175.311C243.849 176.659 243.802 178.007 243.678 179.35C243.345 182.225 242.35 184.984 240.77 187.409C240.438 187.907 240.178 188.286 239.953 188.528C239.868 188.665 239.768 188.792 239.657 188.907Z" fill="#263238"/>
<path d="M224.492 188.925C224.787 188.886 225.084 188.87 225.38 188.878L227.791 188.848C229.828 188.848 232.646 188.848 235.755 188.848C237.313 188.848 238.793 188.848 240.138 188.902C241.334 188.879 242.528 189.011 243.691 189.293C244.482 189.503 245.216 189.888 245.84 190.418C246.011 190.558 246.168 190.715 246.308 190.885C246.365 190.939 246.413 191.001 246.45 191.069C246.45 191.069 246.219 190.844 245.769 190.506C245.135 190.026 244.41 189.679 243.637 189.488C242.47 189.242 241.277 189.135 240.084 189.168L235.702 189.139C232.593 189.139 229.78 189.085 227.743 189.044L225.333 188.979C225.052 188.985 224.77 188.967 224.492 188.925Z" fill="#263238"/>
<path d="M198.852 106.18C198.029 108.708 197.2 111.29 197.259 113.949C197.259 115.175 197.484 116.495 196.88 117.561C196.46 118.307 195.696 118.799 195.133 119.421C194.413 120.207 193.938 121.185 193.766 122.237C193.593 123.289 193.731 124.368 194.162 125.342C194.451 126.028 194.94 126.61 195.565 127.012C196.323 127.403 197.164 127.606 198.017 127.605C200.842 127.767 203.675 127.638 206.473 127.22C207.812 127.018 209.257 126.687 210.08 125.615C210.82 124.661 210.873 123.353 210.832 122.145C210.657 117.546 209.526 113.034 207.51 108.898" fill="#263238"/>
<path d="M217.793 103.438C218.118 103.336 218.463 103.314 218.798 103.375C219.134 103.436 219.449 103.579 219.717 103.79C219.984 104.001 220.196 104.274 220.334 104.586C220.472 104.897 220.532 105.238 220.508 105.578C220.484 105.918 220.377 106.247 220.197 106.536C220.017 106.826 219.769 107.067 219.474 107.238C219.18 107.41 218.848 107.506 218.507 107.52C218.167 107.534 217.828 107.464 217.52 107.317C218.876 107.08 220.179 108.111 220.813 109.336C221.446 110.562 221.589 111.972 221.914 113.31C222.24 114.648 222.82 116.04 223.999 116.756C225.177 117.473 226.711 117.467 227.433 118.563C228.156 119.658 227.528 121.251 227.842 122.577C228.156 123.904 229.37 124.774 230.442 125.609C231.513 126.444 232.615 127.546 232.556 128.902C232.496 129.445 232.293 129.963 231.967 130.402C231.641 130.841 231.205 131.186 230.702 131.401C229.693 131.811 228.611 132.013 227.522 131.993C222.144 132.23 216.765 131.537 211.622 129.944C210.785 129.764 210.021 129.34 209.425 128.724C208.608 127.718 208.803 126.255 209.034 124.982C209.683 120.917 210.627 116.906 211.859 112.978C213.186 109.088 215.11 105.339 217.959 102.366" fill="#263238"/>
<path d="M225.825 142.433H232.149L229.905 131.152C228.247 121.926 215.308 121.293 215.308 121.293L205.152 121.156C205.152 121.156 197.625 120.144 192.983 125.379C192.029 126.456 191.028 127.57 190.022 128.665L179.007 140.189L177.823 125.734L168.389 127.214L169.704 145.365C169.82 146.806 170.354 148.182 171.239 149.325C172.124 150.468 173.324 151.329 174.69 151.802C176.733 152.447 178.806 151.879 180.878 150.848C186.374 148.112 196.672 139.395 197.459 138.726C196.623 140.367 196.139 142.164 196.038 144.003C196.038 147.011 199.123 149.261 199.123 149.261L200.118 158.381L196.932 173.155L230.094 171.823C229.542 166.863 227.871 162.093 225.209 157.871L225.825 142.433ZM197.525 138.649C197.479 138.581 197.443 138.508 197.418 138.43L197.773 138.176C197.773 138.176 197.673 138.329 197.525 138.649Z" fill="#8E6E00"/>
<path d="M210.985 168.033C209.257 169.215 207.466 170.302 205.62 171.29C203.252 172.409 203.157 172.202 203.068 171.882C202.819 171.095 207.124 169.756 206.029 169.514C204.933 169.271 200.972 171.752 200.753 170.917C200.462 169.827 204.993 168.513 205.372 168.371C205.751 168.229 205.543 167.69 205.212 167.838C204.732 168.045 199.681 170.088 199.385 169.022C199.219 168.43 200.32 168.264 200.32 168.264C200.32 168.264 205.206 166.695 205.058 166.191C204.91 165.688 202.002 166.511 201.049 166.861C200.095 167.21 199.545 166.896 199.728 166.357C199.852 165.99 202.754 164.859 203.708 164.533C204.661 164.208 207.296 163.349 205.638 162.757C203.98 162.165 202.932 161.028 202.855 160.542C202.778 160.057 203.447 159.784 203.826 160.175C204.29 160.555 204.804 160.869 205.354 161.111C205.785 161.325 206.25 161.463 206.728 161.519C207.142 161.572 207.509 161.602 207.841 161.626L211.364 161.886L213.141 166.553L210.985 168.033Z" fill="#FFBE9D"/>
<path d="M226.428 125.491C228.429 127.091 229.888 129.271 230.603 131.732C231.384 134.296 233.629 142.983 235.281 149.415C235.797 151.445 235.524 153.595 234.519 155.433C233.514 157.271 231.85 158.66 229.863 159.322L211.203 169.389L208.153 161.501L224.527 150.765L220.571 136.108C219.92 133.876 219.642 131.608 220.453 129.434C221.264 127.261 222.987 125.076 226.428 125.491Z" fill="#8E6E00"/>
<path d="M169.05 127.706L167.919 124.082C167.392 121.488 169.441 121.068 169.785 120.683C170.279 120.063 170.904 119.56 171.614 119.208L171.449 118.16C171.171 117.043 170.973 115.907 170.856 114.761C170.856 114.133 171.999 114.092 172.159 114.696C172.526 116.064 173.172 118.385 173.515 119.244C173.971 120.369 174.978 123.312 176.038 121.488C177.098 119.664 176.985 118.587 177.169 118.018C177.353 117.45 178.691 117.307 178.43 118.551C178.324 119.072 178.259 119.99 177.933 121.24C177.785 121.796 177.477 122.477 177.341 123.016C177.157 123.662 177.08 126.066 176.979 126.569L169.05 127.706Z" fill="#FFBE9D"/>
<path d="M169.643 121.382C169.76 121.733 169.855 122.091 169.928 122.454C170.037 122.833 170.176 123.203 170.342 123.561C170.461 123.786 170.539 124.031 170.573 124.283C170.593 124.442 170.563 124.603 170.487 124.743C170.41 124.884 170.291 124.996 170.147 125.065C170.001 125.111 169.845 125.119 169.695 125.089C169.545 125.059 169.405 124.992 169.288 124.893C169.08 124.743 168.903 124.554 168.767 124.337C168.54 123.976 168.387 123.573 168.317 123.152C168.22 122.788 168.195 122.407 168.246 122.033C168.37 122.382 168.465 122.74 168.53 123.105C168.626 123.479 168.786 123.834 169.004 124.153C169.126 124.337 169.28 124.498 169.46 124.627C169.541 124.694 169.637 124.741 169.74 124.764C169.843 124.786 169.95 124.784 170.052 124.757C170.136 124.711 170.203 124.64 170.246 124.554C170.288 124.469 170.303 124.372 170.289 124.277C170.259 124.06 170.195 123.848 170.099 123.65C169.937 123.269 169.814 122.872 169.732 122.465C169.627 122.114 169.597 121.745 169.643 121.382Z" fill="#EB996E"/>
<path d="M171.274 120.179C171.501 120.617 171.682 121.078 171.813 121.553C171.967 122.021 172.133 122.53 172.316 123.075C172.399 123.365 172.512 123.667 172.589 123.993C172.646 124.186 172.646 124.392 172.589 124.585C172.513 124.784 172.368 124.948 172.18 125.047C172.007 125.139 171.811 125.182 171.615 125.172C171.419 125.161 171.23 125.098 171.067 124.988C170.778 124.8 170.549 124.533 170.41 124.218C170.214 123.715 170.054 123.198 169.93 122.672C169.772 122.204 169.665 121.719 169.61 121.227C169.833 121.668 170.01 122.13 170.137 122.607C170.297 123.034 170.421 123.578 170.664 124.088C170.79 124.35 170.984 124.573 171.227 124.733C171.345 124.812 171.482 124.857 171.624 124.865C171.765 124.872 171.907 124.841 172.032 124.775C172.155 124.709 172.25 124.603 172.302 124.474C172.354 124.345 172.359 124.202 172.316 124.07C172.257 123.78 172.145 123.478 172.068 123.182L171.624 121.642C171.455 121.168 171.338 120.678 171.274 120.179Z" fill="#EB996E"/>
<path d="M177.615 143.529C177.716 142.909 177.916 142.31 178.207 141.753C178.405 141.155 178.699 140.592 179.077 140.089C178.976 140.709 178.776 141.308 178.485 141.865C178.287 142.464 177.993 143.026 177.615 143.529Z" fill="#263238"/>
<path d="M192.419 141.349C191.855 141.266 191.298 141.135 190.755 140.958L188.979 140.455C188.24 140.253 187.527 139.967 186.853 139.602C186.165 139.225 185.583 138.681 185.159 138.021C184.823 137.475 184.649 136.845 184.656 136.203C184.665 135.79 184.651 135.377 184.614 134.966C184.581 134.817 184.559 134.667 184.549 134.516C184.549 134.516 184.656 134.652 184.733 134.942C184.82 135.353 184.868 135.771 184.875 136.191C184.891 136.789 185.072 137.371 185.396 137.873C185.81 138.481 186.362 138.982 187.007 139.336C187.663 139.686 188.351 139.972 189.062 140.189L190.838 140.751C191.382 140.903 191.911 141.103 192.419 141.349Z" fill="#939393"/>
<path d="M220.17 164.302C220.117 164.302 220.17 163.769 220.022 162.946C219.785 161.883 219.34 160.876 218.714 159.985C218.358 159.446 217.991 158.961 217.648 158.511C217.368 158.11 217.055 157.733 216.712 157.385C216.479 157.166 216.178 157.033 215.859 157.006C215.634 157.006 215.51 157.042 215.504 157.006C215.498 156.971 215.605 156.894 215.859 156.87C216.219 156.855 216.571 156.973 216.848 157.202C217.227 157.541 217.571 157.918 217.873 158.327C218.228 158.765 218.607 159.257 218.974 159.802C219.623 160.727 220.055 161.788 220.236 162.905C220.332 163.368 220.309 163.849 220.17 164.302Z" fill="#939393"/>
<path d="M230.318 132.129C230.16 132.1 230.005 132.057 229.856 131.998L228.553 131.584C226.974 131.042 225.319 130.752 223.65 130.725C222.505 130.737 221.376 131.002 220.345 131.501C219.17 132.103 218.074 132.849 217.082 133.722C215.985 134.705 214.83 135.622 213.624 136.469C212.3 137.393 210.756 137.951 209.147 138.086C208.319 138.12 207.495 137.955 206.743 137.606C206.024 137.259 205.379 136.776 204.842 136.185C203.782 135.048 203.03 133.763 202.177 132.662C200.696 130.668 198.538 129.284 196.108 128.771C194.476 128.41 192.783 128.435 191.163 128.842C190.02 129.15 189.44 129.476 189.428 129.434C189.964 129.127 190.537 128.89 191.133 128.729C192.768 128.264 194.492 128.205 196.155 128.558C197.304 128.792 198.406 129.214 199.418 129.807C200.575 130.491 201.582 131.402 202.379 132.484C203.249 133.603 204.007 134.882 205.038 135.978C205.544 136.556 206.171 137.015 206.876 137.322C207.58 137.629 208.344 137.777 209.112 137.754C210.665 137.622 212.156 137.082 213.435 136.191C214.634 135.353 215.784 134.447 216.881 133.479C217.892 132.598 219.011 131.848 220.209 131.246C221.276 130.743 222.441 130.482 223.62 130.482C225.311 130.527 226.982 130.853 228.565 131.448C229.127 131.637 229.56 131.803 229.856 131.915C230.152 132.028 230.318 132.123 230.318 132.129Z" fill="#939393"/>
<path d="M222.946 147.633C222.599 147.522 222.242 147.441 221.88 147.39C220.88 147.365 219.89 147.593 219.002 148.054C217.671 148.736 216.296 149.33 214.887 149.83C213.123 150.392 211.278 150.662 209.427 150.63C207.574 150.595 205.739 150.247 204.003 149.599C202.589 149.074 201.252 148.361 200.029 147.479C199.206 146.894 198.443 146.229 197.749 145.496C197.558 145.298 197.378 145.091 197.21 144.874C197.144 144.802 197.087 144.722 197.039 144.637C197.039 144.637 197.323 144.921 197.838 145.413C198.558 146.111 199.332 146.75 200.153 147.325C201.377 148.17 202.705 148.852 204.103 149.357C205.813 149.978 207.614 150.311 209.433 150.34C211.25 150.378 213.061 150.124 214.798 149.587C216.204 149.093 217.578 148.513 218.914 147.852C219.832 147.401 220.853 147.196 221.875 147.26C222.256 147.299 222.623 147.427 222.946 147.633Z" fill="#939393"/>
<path d="M234.15 145.133C234.133 145.291 234.083 145.445 234.002 145.583C233.828 145.973 233.607 146.341 233.345 146.678C232.481 147.826 231.236 148.628 229.833 148.94C228.441 149.194 227.012 149.158 225.635 148.834C225.061 148.749 224.498 148.598 223.959 148.384C224.534 148.427 225.105 148.507 225.67 148.621C227.023 148.867 228.409 148.867 229.762 148.621C231.101 148.318 232.303 147.581 233.179 146.524C233.872 145.737 234.097 145.109 234.15 145.133Z" fill="#939393"/>
<path d="M220.25 134.847C220.287 134.939 220.315 135.034 220.333 135.131C220.386 135.339 220.451 135.617 220.54 135.966L221.316 139.152C221.997 141.888 222.998 145.796 224.277 150.481V150.569L224.2 150.623L210.402 160.139L208.217 161.643L208.27 161.459C209.36 164.189 210.402 166.789 211.373 169.253L211.178 169.176C216.898 166.351 221.719 163.769 225.112 161.904L229.068 159.713L230.122 159.12C230.239 159.046 230.364 158.984 230.495 158.937C230.383 159.019 230.267 159.095 230.145 159.162L229.133 159.795C228.227 160.334 226.9 161.11 225.219 162.064C221.849 163.97 217.041 166.588 211.32 169.436L211.184 169.507L211.125 169.359L208.004 161.572L207.957 161.459L208.063 161.388L210.242 159.89L224.07 150.415L224.016 150.558C222.785 145.867 221.819 141.947 221.186 139.2C220.866 137.82 220.629 136.736 220.475 135.996C220.404 135.641 220.351 135.362 220.309 135.149C220.279 135.051 220.26 134.949 220.25 134.847Z" fill="#263238"/>
<path d="M228.656 151.879C227.964 151.486 227.241 151.149 226.495 150.872C225.965 150.7 225.416 150.594 224.86 150.558C224.428 150.558 224.162 150.558 224.15 150.511C224.138 150.464 224.404 150.369 224.854 150.339C225.442 150.311 226.031 150.392 226.59 150.576C227.404 150.768 228.132 151.227 228.656 151.879Z" fill="#263238"/>
<path d="M159.513 215.72L161.965 210.634L171.523 215.164L168.011 222.649L167.419 222.406C164.713 221.299 153.74 216.603 152.23 215.229C150.524 213.701 159.513 215.72 159.513 215.72Z" fill="#8E6E00"/>
<g opacity="0.5">
<path d="M164.588 220.927C165.114 220.191 165.892 219.673 166.773 219.47C167.643 219.264 168.559 219.393 169.337 219.832L168.076 222.508L164.588 220.927Z" fill="#B4B3B3"/>
</g>
<g opacity="0.4">
<path d="M155.052 214.879C155.052 214.879 151.818 214.346 151.949 214.986C152.079 215.626 162.999 220.789 168.009 222.649L168.097 222.424L155.312 216.502C155.312 216.502 155.596 215.164 155.052 214.879Z" fill="#B4B3B3"/>
</g>
<path d="M168.253 222.489C168.193 222.476 168.135 222.456 168.081 222.429L167.595 222.234L165.819 221.488C164.326 220.848 162.266 219.931 160.033 218.871C157.801 217.811 155.787 216.81 154.342 216.064L152.637 215.169L152.181 214.921L152.021 214.826C152.082 214.84 152.14 214.864 152.193 214.897L152.661 215.128L154.384 215.987C155.835 216.709 157.848 217.698 160.092 218.758C162.337 219.818 164.374 220.742 165.854 221.405L167.631 222.187L168.105 222.406L168.253 222.489Z" fill="#263238"/>
<path d="M155.25 216.656C155.31 216.332 155.332 216.002 155.315 215.673C155.26 215.35 155.168 215.034 155.042 214.731C155.268 214.993 155.409 215.318 155.446 215.662C155.483 216.005 155.414 216.352 155.25 216.656Z" fill="#263238"/>
<path d="M158.747 216.561C158.711 216.561 158.652 216.336 158.616 216.052C158.574 215.879 158.574 215.698 158.616 215.525C158.699 215.682 158.744 215.856 158.747 216.034C158.789 216.207 158.789 216.388 158.747 216.561Z" fill="#263238"/>
<path d="M159.713 216.498C159.713 216.498 159.577 216.338 159.482 216.113C159.387 215.888 159.34 215.692 159.369 215.68C159.399 215.668 159.506 215.834 159.6 216.065C159.695 216.296 159.748 216.498 159.713 216.498Z" fill="#263238"/>
<path d="M160.633 215.852C160.446 215.833 160.266 215.772 160.105 215.675C159.927 215.615 159.763 215.518 159.625 215.39C159.625 215.355 159.88 215.432 160.159 215.562C160.437 215.692 160.644 215.817 160.633 215.852Z" fill="#263238"/>
<path d="M161.099 215.313C160.882 215.339 160.662 215.302 160.466 215.206C160.256 215.148 160.068 215.029 159.927 214.863C159.927 214.827 160.193 214.969 160.519 215.088C160.72 215.141 160.915 215.217 161.099 215.313Z" fill="#263238"/>
<path d="M158.821 215.573C158.607 215.515 158.405 215.416 158.228 215.283C158.018 215.148 157.82 214.995 157.636 214.827C157.523 214.727 157.422 214.616 157.334 214.495C157.28 214.419 157.259 214.325 157.275 214.234C157.286 214.184 157.312 214.139 157.349 214.103C157.385 214.067 157.432 214.043 157.482 214.033C157.771 214.027 158.054 214.123 158.28 214.303C158.506 214.484 158.662 214.738 158.72 215.022C158.756 215.188 158.756 215.36 158.72 215.526C158.72 215.644 158.667 215.703 158.661 215.697C158.684 215.478 158.672 215.256 158.625 215.04C158.562 214.812 158.437 214.607 158.264 214.447C158.163 214.35 158.045 214.274 157.914 214.223C157.784 214.172 157.645 214.148 157.506 214.151C157.375 214.151 157.357 214.305 157.434 214.424C157.518 214.537 157.611 214.642 157.713 214.738C157.885 214.907 158.072 215.061 158.27 215.2C158.596 215.443 158.827 215.555 158.821 215.573Z" fill="#263238"/>
<path d="M158.664 215.532C158.648 215.367 158.694 215.202 158.794 215.07C158.89 214.918 159.022 214.792 159.179 214.703C159.273 214.634 159.383 214.592 159.498 214.579C159.614 214.567 159.73 214.585 159.837 214.632C159.893 214.674 159.931 214.737 159.941 214.807C159.951 214.877 159.932 214.948 159.89 215.005C159.83 215.095 159.751 215.172 159.659 215.23C159.513 215.326 159.356 215.403 159.191 215.461C159.045 215.53 158.884 215.559 158.723 215.544C158.723 215.544 158.895 215.49 159.155 215.378C159.308 215.311 159.453 215.228 159.588 215.129C159.736 215.04 159.902 214.833 159.76 214.732C159.672 214.705 159.579 214.697 159.488 214.709C159.397 214.721 159.31 214.754 159.232 214.803C159.09 214.883 158.967 214.992 158.871 215.123C158.79 215.253 158.72 215.39 158.664 215.532Z" fill="#263238"/>
<path d="M169.325 219.783C169.325 219.783 169.065 219.629 168.609 219.475C168.015 219.276 167.378 219.243 166.767 219.38C166.156 219.526 165.598 219.84 165.156 220.286C164.819 220.624 164.677 220.878 164.653 220.878C164.675 220.811 164.707 220.747 164.748 220.689C164.844 220.52 164.959 220.364 165.091 220.221C165.53 219.74 166.104 219.404 166.737 219.256C167.37 219.11 168.031 219.155 168.638 219.386C168.821 219.456 168.996 219.545 169.159 219.652C169.242 219.724 169.325 219.777 169.325 219.783Z" fill="#263238"/>
<path d="M170.19 215.312C169.944 215.994 169.661 216.662 169.343 217.313C169.058 217.98 168.735 218.631 168.377 219.262C168.623 218.58 168.906 217.911 169.224 217.26C169.504 216.59 169.826 215.94 170.19 215.312Z" fill="#263238"/>
<path d="M163.823 219.457C163.315 219.347 162.823 219.171 162.36 218.936C161.88 218.738 161.428 218.477 161.016 218.16C161.016 218.131 161.608 218.462 162.413 218.818C163.219 219.173 163.834 219.392 163.823 219.457Z" fill="#263238"/>
<path d="M165.696 220.31C165.696 220.345 165.583 220.416 165.453 220.535C165.322 220.653 165.228 220.754 165.192 220.736C165.157 220.718 165.192 220.564 165.37 220.434C165.548 220.304 165.69 220.28 165.696 220.31Z" fill="#263238"/>
<path d="M166.818 219.765C166.818 219.8 166.717 219.872 166.575 219.925C166.433 219.978 166.297 219.996 166.285 219.96C166.273 219.925 166.386 219.854 166.528 219.8C166.67 219.747 166.806 219.735 166.818 219.765Z" fill="#263238"/>
<path d="M168.017 219.842C168.017 219.872 167.869 219.842 167.709 219.795C167.549 219.747 167.407 219.795 167.389 219.795C167.371 219.795 167.519 219.664 167.721 219.688C167.922 219.712 168.041 219.818 168.017 219.842Z" fill="#263238"/>
<path d="M168.826 219.997C168.826 220.033 168.744 220.056 168.655 220.044C168.566 220.033 168.483 220.003 168.489 219.973C168.495 219.944 168.566 219.914 168.661 219.92C168.755 219.926 168.826 219.961 168.826 219.997Z" fill="#263238"/>
<path d="M187.959 246.519L187.847 240.876L198.417 240.592L198.672 248.847L198.02 248.906C195.107 249.149 183.216 249.924 181.226 249.385C179.029 248.787 187.959 246.519 187.959 246.519Z" fill="#8E6E00"/>
<g opacity="0.5">
<path d="M194.842 248.871C194.971 247.974 195.429 247.157 196.127 246.579C196.81 246.002 197.686 245.704 198.579 245.744L198.662 248.705L194.842 248.871Z" fill="#B4B3B3"/>
</g>
<g opacity="0.4">
<path d="M183.601 247.781C183.601 247.781 180.48 248.776 180.883 249.285C181.285 249.795 193.36 249.463 198.648 248.847V248.61L184.572 249.119C184.572 249.119 184.217 247.793 183.601 247.781Z" fill="#B4B3B3"/>
</g>
<path d="M198.814 248.605H198.637L198.116 248.647L196.197 248.783C194.575 248.889 192.33 249.002 189.855 249.073C187.38 249.144 185.117 249.156 183.507 249.144L181.582 249.114H181.061C181 249.122 180.938 249.122 180.877 249.114H181.061H181.582H183.507C185.129 249.114 187.374 249.073 189.849 249.002C192.324 248.931 194.586 248.836 196.191 248.753L198.11 248.659H198.637C198.694 248.634 198.753 248.616 198.814 248.605Z" fill="#263238"/>
<path d="M184.585 249.285C184.49 248.97 184.361 248.666 184.2 248.379C184 248.115 183.774 247.873 183.524 247.656C183.845 247.789 184.117 248.016 184.306 248.307C184.495 248.597 184.592 248.938 184.585 249.285Z" fill="#263238"/>
<path d="M187.684 247.615C187.684 247.615 187.5 247.455 187.34 247.218C187.18 246.981 187.073 246.768 187.103 246.75C187.133 246.733 187.287 246.91 187.447 247.147C187.607 247.384 187.684 247.597 187.684 247.615Z" fill="#263238"/>
<path d="M188.5 247.142C188.5 247.142 188.31 247.059 188.121 246.899C187.931 246.739 187.801 246.591 187.825 246.568C187.848 246.544 188.02 246.645 188.204 246.805C188.387 246.965 188.524 247.113 188.5 247.142Z" fill="#263238"/>
<path d="M189.014 246.105C188.838 246.173 188.65 246.202 188.463 246.188C188.278 246.216 188.09 246.202 187.912 246.147C188.27 246.042 188.649 246.028 189.014 246.105Z" fill="#263238"/>
<path d="M189.181 245.419C189.007 245.541 188.801 245.609 188.589 245.614C188.373 245.652 188.152 245.629 187.949 245.549C188.155 245.507 188.366 245.485 188.577 245.484C188.776 245.445 188.978 245.423 189.181 245.419Z" fill="#263238"/>
<path d="M187.272 246.699C187.046 246.737 186.816 246.737 186.591 246.699C186.346 246.677 186.104 246.631 185.868 246.563C185.722 246.527 185.581 246.473 185.448 246.403C185.364 246.359 185.301 246.285 185.27 246.195C185.259 246.145 185.262 246.093 185.28 246.044C185.298 245.996 185.33 245.954 185.371 245.923C185.626 245.789 185.919 245.748 186.201 245.806C186.483 245.865 186.736 246.019 186.916 246.243C187.029 246.372 187.11 246.526 187.153 246.693C187.167 246.753 187.167 246.816 187.153 246.876C187.081 246.661 186.971 246.461 186.828 246.284C186.667 246.112 186.462 245.987 186.235 245.923C185.967 245.841 185.678 245.869 185.43 246C185.324 246.083 185.365 246.207 185.489 246.278C185.612 246.342 185.741 246.393 185.874 246.432C186.104 246.505 186.34 246.558 186.579 246.592C187.011 246.699 187.272 246.699 187.272 246.699Z" fill="#263238"/>
<path d="M187.089 246.745C186.999 246.605 186.965 246.435 186.994 246.271C187.012 246.094 187.071 245.924 187.166 245.774C187.221 245.671 187.301 245.584 187.398 245.52C187.496 245.456 187.607 245.417 187.723 245.406C187.792 245.419 187.854 245.459 187.895 245.516C187.936 245.574 187.953 245.645 187.942 245.714C187.929 245.823 187.893 245.929 187.836 246.022C187.751 246.175 187.647 246.316 187.528 246.443C187.424 246.568 187.292 246.665 187.142 246.727C187.142 246.727 187.273 246.603 187.456 246.384C187.562 246.255 187.653 246.116 187.729 245.969C187.818 245.821 187.877 245.56 187.729 245.537C187.581 245.513 187.391 245.697 187.291 245.839C187.197 245.971 187.134 246.123 187.107 246.283C187.084 246.436 187.078 246.591 187.089 246.745Z" fill="#263238"/>
<path d="M198.525 245.715C198.525 245.715 198.217 245.715 197.743 245.762C197.122 245.853 196.538 246.113 196.056 246.514C195.582 246.924 195.228 247.454 195.031 248.048C194.883 248.504 194.877 248.812 194.854 248.806C194.843 248.735 194.843 248.664 194.854 248.593C194.866 248.392 194.899 248.194 194.954 248.001C195.121 247.369 195.477 246.804 195.975 246.381C196.472 245.957 197.087 245.696 197.737 245.632C197.934 245.61 198.133 245.61 198.33 245.632C198.398 245.651 198.464 245.679 198.525 245.715Z" fill="#263238"/>
<path d="M197.305 241.369C197.397 242.088 197.448 242.812 197.459 243.536C197.501 244.262 197.501 244.99 197.459 245.715C197.364 244.995 197.312 244.269 197.305 243.542C197.263 242.818 197.263 242.093 197.305 241.369Z" fill="#263238"/>
<path d="M193.478 247.883C192.975 248.013 192.458 248.079 191.938 248.078C191.422 248.118 190.902 248.09 190.393 247.995C190.393 247.96 191.085 247.995 191.932 247.948C192.779 247.901 193.472 247.841 193.478 247.883Z" fill="#263238"/>
<path d="M195.552 247.817C195.552 247.817 195.499 247.965 195.434 248.125C195.368 248.285 195.333 248.427 195.297 248.421C195.262 248.415 195.238 248.255 195.297 248.072C195.357 247.888 195.528 247.787 195.552 247.817Z" fill="#263238"/>
<path d="M196.306 246.823C196.335 246.823 196.27 246.959 196.163 247.072C196.057 247.184 195.95 247.261 195.921 247.238C195.891 247.214 195.962 247.101 196.069 246.983C196.175 246.864 196.282 246.799 196.306 246.823Z" fill="#263238"/>
<path d="M197.412 246.348C197.412 246.384 197.264 246.384 197.11 246.443C196.956 246.502 196.849 246.591 196.82 246.568C196.79 246.544 196.873 246.396 197.068 246.325C197.264 246.254 197.424 246.313 197.412 246.348Z" fill="#263238"/>
<path d="M198.2 246.105C198.2 246.135 198.158 246.194 198.069 246.23C197.981 246.265 197.904 246.265 197.886 246.23C197.868 246.194 197.933 246.141 198.022 246.105C198.111 246.07 198.188 246.105 198.2 246.105Z" fill="#263238"/>
<path d="M196.276 142.754C196.364 142.233 196.498 141.722 196.679 141.226C196.815 140.764 196.986 140.207 197.2 139.597C197.306 139.295 197.425 138.976 197.561 138.65C197.632 138.472 197.727 138.324 197.774 138.176C197.821 138.019 197.841 137.855 197.833 137.69C197.803 137.34 197.75 136.992 197.673 136.648C197.608 136.311 197.549 135.979 197.49 135.659C197.383 135.067 197.289 134.475 197.2 133.978C197.079 133.465 197.016 132.941 197.01 132.414C197.198 132.907 197.336 133.416 197.425 133.936C197.537 134.445 197.656 135.002 197.786 135.6C197.851 135.92 197.916 136.251 197.987 136.589C198.076 136.949 198.133 137.315 198.159 137.685C198.168 137.885 198.142 138.085 198.082 138.277C198.014 138.447 197.937 138.613 197.851 138.774C197.715 139.094 197.596 139.402 197.484 139.704C197.271 140.296 197.075 140.811 196.892 141.303C196.74 141.808 196.534 142.294 196.276 142.754Z" fill="#263238"/>
<g opacity="0.3">
<path d="M219.712 133.189C220.127 139.478 220.761 146.542 220.897 152.843C221.868 152.411 224.166 150.747 224.166 150.51C224.148 150.51 221.145 139.969 219.712 133.189Z" fill="black"/>
</g>
<path d="M230.194 170.342C230.194 170.342 186.835 161.258 182.636 163.236C178.438 165.214 159.08 213.074 159.08 213.074L172.137 217.87L189.867 178.194C189.867 178.194 221.797 190.239 227.103 189.138C232.409 188.036 230.194 170.342 230.194 170.342Z" fill="#263238"/>
<path d="M210.817 172.894C210.154 173.113 185.069 183.423 183.305 186.739C181.54 190.055 185.904 245.08 185.904 245.08H200.17L199.282 196.172L227.114 189.119L210.817 172.894Z" fill="#263238"/>
<path d="M227.246 189.256C227.108 189.254 226.971 189.236 226.838 189.203L225.653 188.995C224.641 188.812 223.178 188.522 221.378 188.143C217.777 187.379 212.821 186.23 207.42 184.684C204.72 183.903 202.173 183.085 199.87 182.316C197.566 181.546 195.517 180.74 193.824 180.012C192.971 179.669 192.213 179.325 191.544 179.023C190.875 178.721 190.306 178.46 189.85 178.224L188.79 177.691C188.662 177.637 188.54 177.567 188.429 177.483C188.563 177.521 188.694 177.571 188.82 177.631L189.903 178.111C190.365 178.324 190.946 178.573 191.621 178.857C192.296 179.142 193.054 179.449 193.913 179.799C195.612 180.498 197.673 181.232 199.965 182.031C202.256 182.831 204.815 183.612 207.509 184.4C212.904 185.946 217.842 187.124 221.431 187.953L225.677 188.912L226.832 189.179C226.972 189.188 227.112 189.213 227.246 189.256Z" fill="#455A64"/>
<path d="M183.311 199.377C183.236 199.108 183.192 198.832 183.181 198.554C183.116 197.962 183.033 197.204 182.938 196.298C182.843 195.392 182.743 194.189 182.63 192.946C182.437 191.571 182.437 190.176 182.63 188.801C182.909 187.408 183.64 186.147 184.709 185.212C185.56 184.456 186.522 183.837 187.563 183.376C188.255 183.063 188.963 182.784 189.683 182.541C189.94 182.434 190.208 182.356 190.482 182.31C190.482 182.37 189.381 182.76 187.664 183.583C186.663 184.062 185.737 184.685 184.916 185.431C183.907 186.332 183.218 187.535 182.95 188.86C182.775 190.208 182.775 191.574 182.95 192.922C183.045 194.172 183.122 195.291 183.193 196.28C183.264 197.269 183.293 197.944 183.329 198.542C183.351 198.82 183.345 199.1 183.311 199.377Z" fill="#455A64"/>
<path d="M195.826 194.651C197.03 194.941 198.174 195.445 199.201 196.137C198.579 196.046 197.977 195.846 197.425 195.545C196.844 195.343 196.302 195.04 195.826 194.651Z" fill="#263238"/>
<path d="M197.08 193.147C197.486 193.664 197.865 194.202 198.217 194.758C198.656 195.247 199.069 195.759 199.454 196.291C198.282 195.596 197.431 194.466 197.086 193.147H197.08Z" fill="#263238"/>
<path d="M202.558 195.403C202.558 195.403 202.516 195.521 202.339 195.628C202.084 195.764 201.798 195.831 201.51 195.823C201.115 195.81 200.719 195.82 200.325 195.853C200.112 195.884 199.919 195.996 199.787 196.166C199.654 196.336 199.593 196.55 199.615 196.765C199.664 198.037 199.604 199.31 199.437 200.572C199.278 199.304 199.228 198.024 199.289 196.747C199.289 196.454 199.384 196.169 199.561 195.936C199.743 195.723 200 195.587 200.278 195.557C200.691 195.533 201.105 195.545 201.516 195.592C201.874 195.624 202.234 195.559 202.558 195.403Z" fill="#263238"/>
<path d="M199.898 94.697C197.731 95.4017 195.214 96.8407 196.464 103.621C197.008 106.582 197.707 109.65 199.709 111.912C199.792 112.097 199.924 112.256 200.092 112.371C200.259 112.486 200.455 112.552 200.658 112.562C200.861 112.573 201.063 112.527 201.241 112.43C201.419 112.333 201.568 112.188 201.669 112.012C203.943 109.531 205.879 106.606 206.495 103.295C207.111 99.9852 206.187 96.2604 203.588 94.1285" fill="#263238"/>
<path d="M204.057 124.158C203.986 121.037 203.85 117.691 203.85 117.691C203.85 117.691 199.112 117.099 198.899 112.243C198.686 107.387 198.645 98.9073 198.645 98.9073L207.918 92.0439L214.432 101.004L214.592 123.998C214.6 124.695 214.469 125.387 214.208 126.033C213.946 126.679 213.559 127.267 213.069 127.763C212.579 128.259 211.995 128.652 211.352 128.921C210.709 129.189 210.019 129.327 209.321 129.327C207.942 129.328 206.617 128.786 205.632 127.819C204.647 126.852 204.082 125.537 204.057 124.158Z" fill="#FFBE9D"/>
<path d="M203.85 117.692C206.102 117.632 208.287 116.915 210.139 115.631C210.139 115.631 208.664 119.184 203.933 118.882L203.85 117.692Z" fill="#EB996E"/>
<path d="M204.262 112.043C204.218 111.948 204.2 111.844 204.209 111.74C204.218 111.636 204.255 111.536 204.315 111.451C204.376 111.37 204.456 111.305 204.548 111.264C204.64 111.222 204.742 111.205 204.842 111.214C204.867 110.993 204.974 110.79 205.142 110.644C205.31 110.498 205.526 110.421 205.748 110.426C205.971 110.443 206.182 110.532 206.348 110.681C206.514 110.83 206.626 111.03 206.666 111.25C206.697 111.47 206.665 111.695 206.574 111.898C206.483 112.101 206.336 112.275 206.151 112.398C205.961 112.515 205.746 112.585 205.523 112.601C205.3 112.618 205.077 112.581 204.872 112.493C204.706 112.434 204.56 112.332 204.446 112.198C204.333 112.064 204.257 111.902 204.226 111.729" fill="#EB996E"/>
<path d="M199.622 104.788C199.621 104.962 199.689 105.128 199.809 105.253C199.93 105.378 200.094 105.451 200.267 105.457C200.351 105.464 200.436 105.454 200.516 105.427C200.596 105.401 200.67 105.359 200.734 105.304C200.798 105.249 200.85 105.182 200.888 105.107C200.926 105.031 200.948 104.949 200.954 104.865C200.955 104.692 200.887 104.525 200.767 104.4C200.646 104.275 200.482 104.202 200.309 104.196C200.225 104.189 200.14 104.199 200.06 104.226C199.98 104.252 199.906 104.294 199.842 104.349C199.778 104.404 199.726 104.471 199.688 104.546C199.65 104.622 199.628 104.704 199.622 104.788Z" fill="#263238"/>
<path d="M199.657 104.244C199.74 104.327 200.249 103.953 200.96 103.959C201.67 103.965 202.197 104.315 202.274 104.232C202.351 104.149 202.227 104.036 202.002 103.865C201.692 103.651 201.324 103.537 200.948 103.539C200.575 103.54 200.213 103.658 199.911 103.877C199.686 104.048 199.615 104.202 199.657 104.244Z" fill="#263238"/>
<path d="M206.808 104.854C206.806 105.028 206.872 105.195 206.991 105.321C207.11 105.447 207.274 105.522 207.447 105.529C207.532 105.536 207.616 105.526 207.696 105.499C207.776 105.473 207.85 105.431 207.914 105.376C207.978 105.321 208.03 105.254 208.068 105.179C208.106 105.103 208.129 105.021 208.135 104.937C208.136 104.764 208.07 104.597 207.951 104.472C207.831 104.347 207.668 104.274 207.495 104.268C207.326 104.255 207.159 104.309 207.03 104.419C206.901 104.529 206.821 104.685 206.808 104.854Z" fill="#263238"/>
<path d="M206.692 104.374C206.775 104.463 207.284 104.09 207.994 104.09C208.705 104.09 209.232 104.451 209.309 104.362C209.386 104.274 209.268 104.167 209.037 104.001C208.727 103.788 208.359 103.674 207.983 103.676C207.609 103.671 207.245 103.789 206.946 104.013C206.727 104.179 206.632 104.339 206.692 104.374Z" fill="#263238"/>
<path d="M204.091 109.68C203.706 109.566 203.308 109.497 202.907 109.473C202.723 109.473 202.552 109.419 202.516 109.295C202.502 109.105 202.545 108.915 202.64 108.75L203.179 107.359C203.684 106.18 204.09 104.962 204.393 103.717C203.801 104.86 203.298 106.048 202.889 107.27C202.712 107.761 202.54 108.223 202.374 108.673C202.257 108.893 202.224 109.147 202.279 109.39C202.305 109.455 202.346 109.512 202.399 109.559C202.451 109.605 202.514 109.638 202.581 109.656C202.682 109.683 202.785 109.697 202.889 109.698C203.289 109.747 203.693 109.741 204.091 109.68Z" fill="#263238"/>
<path d="M206.199 110.177C206.081 110.177 206.081 110.947 205.418 111.497C204.755 112.048 203.925 111.965 203.92 112.089C203.914 112.214 204.103 112.243 204.453 112.249C204.907 112.257 205.35 112.104 205.702 111.817C206.035 111.539 206.248 111.142 206.294 110.71C206.336 110.366 206.253 110.171 206.199 110.177Z" fill="#263238"/>
<path d="M206.367 102.799C206.438 102.994 207.154 102.905 207.995 103.006C208.836 103.107 209.511 103.332 209.624 103.16C209.671 103.077 209.559 102.893 209.28 102.704C208.914 102.474 208.501 102.331 208.071 102.283C207.641 102.236 207.207 102.287 206.799 102.431C206.491 102.532 206.337 102.686 206.367 102.799Z" fill="#263238"/>
<path d="M199.916 102.171C200.041 102.331 200.509 102.171 201.101 102.171C201.693 102.171 202.196 102.284 202.285 102.112C202.374 101.94 202.256 101.869 202.036 101.715C201.741 101.534 201.4 101.443 201.053 101.454C200.707 101.464 200.372 101.576 200.088 101.775C199.928 101.923 199.863 102.088 199.916 102.171Z" fill="#263238"/>
<path d="M210.126 102.384C210.99 102.39 211.828 102.092 212.495 101.544C212.921 102.686 212.915 103.954 213.306 105.097C213.697 106.24 214.088 117.396 215.296 117.219C216.403 117.047 217.73 105.866 218.014 104.783C218.796 101.786 217.813 98.482 215.823 96.1074C213.454 93.2945 209.51 90.8903 205.845 91.1508C204.204 91.2194 202.62 91.7761 201.297 92.7497C201.297 92.7497 199.319 94.2775 199.479 96.2258C199.71 98.938 203.666 100.685 206.39 100.602L206.775 100.981C207.213 101.424 207.735 101.776 208.311 102.017C208.886 102.258 209.503 102.383 210.126 102.384Z" fill="#263238"/>
<path d="M198.62 101.495C199.293 100.935 199.766 100.173 199.97 99.3214C200.169 98.477 200.274 97.613 200.284 96.7454C200.284 96.4908 200.284 96.1532 200.017 96.1059C199.751 96.0585 199.585 96.2835 199.472 96.4967C198.623 98.1055 198.321 99.9477 198.614 101.743L198.507 101.832" fill="#263238"/>
<path d="M46.059 128.32H18.8662V183.162H46.059V128.32Z" fill="#455A64"/>
<path d="M20.1272 183.038C19.0021 183.036 17.9237 182.588 17.1287 181.792C16.3337 180.996 15.8872 179.917 15.8872 178.792V132.566C15.8872 131.441 16.3337 130.362 17.1287 129.566C17.9237 128.77 19.0021 128.322 20.1272 128.32C20.6873 128.316 21.2426 128.423 21.7611 128.635C22.2797 128.847 22.7513 129.159 23.1487 129.553C23.5461 129.948 23.8615 130.417 24.0767 130.934C24.2919 131.452 24.4027 132.006 24.4027 132.566V178.792C24.4027 179.352 24.2919 179.906 24.0767 180.423C23.8615 180.94 23.5461 181.41 23.1487 181.804C22.7513 182.199 22.2797 182.511 21.7611 182.723C21.2426 182.935 20.6873 183.041 20.1272 183.038Z" fill="#455A64"/>
<path d="M22.3482 130.529C22.355 130.574 22.355 130.62 22.3482 130.665L22.3896 131.062C22.3896 131.447 22.4607 131.962 22.514 132.614C22.6146 133.982 22.7508 135.918 22.9226 138.299C23.2423 143.131 23.6746 149.757 24.1543 157.077C24.634 164.396 25.0366 171.046 25.2735 175.86C25.4106 177.773 25.1712 179.695 24.5688 181.516C24.3869 182.003 24.1568 182.471 23.8819 182.913L23.645 183.245C23.62 183.284 23.5901 183.32 23.5562 183.351C23.9186 182.758 24.2202 182.129 24.4563 181.474C25.0059 179.659 25.2068 177.756 25.0485 175.866C24.7406 171.04 24.3142 164.414 23.8641 157.094C23.4141 149.775 23.0232 143.143 22.7272 138.328C22.5969 135.959 22.4962 134.011 22.4192 132.637C22.4192 131.986 22.3659 131.453 22.3482 131.086C22.3482 130.926 22.3482 130.79 22.3482 130.683C22.3351 130.633 22.3351 130.58 22.3482 130.529Z" fill="#263238"/>
<path d="M47.9996 189.972H43.6174V242.492H47.9996V189.972Z" fill="#455A64"/>
<path d="M76.4139 189.973H13.7437C13.7452 188.168 14.4634 186.437 15.7404 185.161C17.0173 183.885 18.7486 183.169 20.5537 183.169H69.6334C71.438 183.169 73.1687 183.886 74.4447 185.162C75.7207 186.438 76.4376 188.168 76.4376 189.973H76.4139Z" fill="#455A64"/>
<path d="M49.6577 190.109C48.3833 190.269 47.0978 190.322 45.8145 190.269C44.5292 190.322 43.2417 190.269 41.9653 190.109C43.2417 189.949 44.5292 189.896 45.8145 189.949C47.0978 189.896 48.3833 189.949 49.6577 190.109Z" fill="#263238"/>
<path d="M64.9835 247.248H64.3913C64.3913 242.3 62.426 237.556 58.9278 234.058C55.4296 230.559 50.685 228.594 45.7377 228.594C40.7905 228.594 36.0459 230.559 32.5476 234.058C29.0494 237.556 27.0841 242.3 27.0841 247.248H26.4919C26.4919 242.137 28.5221 237.236 32.1358 233.622C35.7496 230.008 40.6508 227.978 45.7614 227.978C50.872 227.978 55.7732 230.008 59.387 233.622C63.0007 237.236 65.0309 242.137 65.0309 247.248H64.9835Z" fill="#455A64"/>
<path d="M26.7516 249.789C28.3477 249.789 29.6415 248.495 29.6415 246.899C29.6415 245.303 28.3477 244.01 26.7516 244.01C25.1556 244.01 23.8618 245.303 23.8618 246.899C23.8618 248.495 25.1556 249.789 26.7516 249.789Z" fill="#263238"/>
<path d="M67.6893 247.036C67.6893 247.607 67.5198 248.166 67.2023 248.641C66.8848 249.116 66.4334 249.487 65.9054 249.705C65.3773 249.924 64.7963 249.981 64.2357 249.87C63.6751 249.758 63.1602 249.483 62.7561 249.079C62.3519 248.675 62.0767 248.16 61.9652 247.599C61.8537 247.039 61.9109 246.458 62.1296 245.93C62.3484 245.402 62.7188 244.95 63.194 244.633C63.6692 244.315 64.2279 244.146 64.7995 244.146C65.5654 244.147 66.2996 244.452 66.8412 244.994C67.3828 245.535 67.6878 246.27 67.6893 247.036Z" fill="#455A64"/>
<path d="M64.8003 242.494C64.8003 242.582 56.415 242.654 46.0697 242.654C35.7243 242.654 27.3628 242.582 27.3628 242.494C27.3628 242.405 35.748 242.334 46.0934 242.334C56.4387 242.334 64.8003 242.405 64.8003 242.494Z" fill="#455A64"/>
<path d="M39.048 183.056C38.7342 183.101 38.4175 183.122 38.1005 183.121L35.5186 183.186C33.3394 183.233 30.3312 183.269 27.009 183.292L22.319 183.328C21.0526 183.289 19.7862 183.403 18.5468 183.665C17.7191 183.871 16.9415 184.241 16.261 184.755C15.7813 185.116 15.5622 185.383 15.5385 185.347C15.5149 185.312 15.58 185.27 15.6866 185.146C15.8385 184.967 16.0048 184.8 16.184 184.648C16.8566 184.091 17.6427 183.687 18.4876 183.464C19.7402 183.165 21.0255 183.026 22.3131 183.05C23.7461 183.014 25.3391 183.008 26.9972 182.996C30.3252 182.996 33.3394 182.967 35.5186 182.996L38.1005 183.026C38.4166 183.007 38.7337 183.017 39.048 183.056Z" fill="#263238"/>
<path d="M37.1977 125.697C40.4606 125.697 43.1668 123.565 43.2142 113.652C43.2142 111.657 43.155 109.927 43.155 109.927C43.155 109.927 47.8924 109.501 48.2122 104.935C48.5319 100.37 48.2951 89.7756 48.2951 89.7756C45.7237 88.5067 42.8632 87.9383 40.0021 88.1275C37.1409 88.3167 34.3802 89.2569 31.9983 90.8534L31.2759 91.333L31.5068 113.771C31.5068 116.921 33.9821 125.697 37.1977 125.697Z" fill="#B78876"/>
<path d="M43.1674 109.862C41.0189 109.774 38.9434 109.058 37.1982 107.801C37.1982 107.801 38.4241 111.177 43.12 111.047L43.1674 109.862Z" fill="#AA6550"/>
<path d="M47.1788 97.1424C47.1788 97.3106 47.1132 97.4722 46.996 97.5928C46.8787 97.7134 46.719 97.7835 46.5508 97.7881C46.4672 97.7954 46.383 97.7857 46.3032 97.7596C46.2235 97.7334 46.1498 97.6914 46.0867 97.6361C46.0236 97.5807 45.9724 97.5132 45.9361 97.4375C45.8998 97.3618 45.8792 97.2796 45.8755 97.1957C45.8754 97.0275 45.941 96.8659 46.0583 96.7453C46.1756 96.6247 46.3353 96.5547 46.5034 96.55C46.5879 96.5381 46.6739 96.5445 46.7557 96.5689C46.8374 96.5933 46.9129 96.635 46.977 96.6912C47.0412 96.7475 47.0924 96.8169 47.1272 96.8948C47.162 96.9727 47.1796 97.0571 47.1788 97.1424Z" fill="#263238"/>
<path d="M47.3178 96.4201C47.2408 96.503 46.7256 96.1418 46.0387 96.1477C45.3518 96.1536 44.8188 96.4912 44.7477 96.4083C44.6767 96.3254 44.7892 96.2188 45.0142 96.0589C45.3204 95.8528 45.6814 95.7434 46.0505 95.745C46.4154 95.7464 46.7711 95.8601 47.0691 96.0707C47.2882 96.2306 47.3592 96.3846 47.3178 96.4201Z" fill="#263238"/>
<path d="M40.2916 97.3036C40.2917 97.4718 40.2261 97.6334 40.1088 97.754C39.9915 97.8746 39.8318 97.9447 39.6636 97.9493C39.5792 97.9613 39.4931 97.9548 39.4114 97.9305C39.3297 97.9061 39.2542 97.8643 39.19 97.8081C39.1259 97.7518 39.0747 97.6824 39.0399 97.6045C39.0051 97.5267 38.9875 97.4422 38.9883 97.3569C38.9882 97.1887 39.0538 97.0271 39.1711 96.9065C39.2884 96.7859 39.4481 96.7158 39.6163 96.7112C39.6999 96.7039 39.7841 96.7137 39.8638 96.7398C39.9436 96.7659 40.0173 96.8079 40.0803 96.8633C40.1434 96.9186 40.1947 96.9862 40.231 97.0618C40.2673 97.1375 40.2879 97.2198 40.2916 97.3036Z" fill="#263238"/>
<path d="M40.391 96.5506C40.3081 96.6335 39.7989 96.2723 39.1119 96.2723C38.425 96.2723 37.8921 96.6217 37.8151 96.5388C37.7381 96.4559 37.8624 96.3493 38.0875 96.1894C38.3932 95.9823 38.7545 95.8728 39.1238 95.8755C39.4881 95.8752 39.8436 95.9868 40.1423 96.1953C40.391 96.3611 40.4503 96.5092 40.391 96.5506Z" fill="#263238"/>
<path d="M42.9598 101.661C43.3307 101.546 43.7148 101.478 44.1028 101.46C44.2804 101.46 44.4521 101.407 44.4818 101.282C44.4945 101.101 44.4533 100.92 44.3633 100.761C44.1916 100.335 44.0139 99.8909 43.8304 99.423C43.3391 98.2893 42.9429 97.1167 42.646 95.9174C43.2286 97.0107 43.7217 98.1494 44.1205 99.3224L44.6298 100.667C44.7432 100.879 44.7768 101.125 44.7245 101.359C44.6975 101.421 44.6568 101.476 44.6056 101.521C44.5543 101.565 44.4938 101.597 44.4285 101.614C44.3286 101.644 44.2247 101.658 44.1205 101.656C43.7353 101.705 43.3455 101.707 42.9598 101.661Z" fill="#263238"/>
<path d="M40.8872 102.135C41.0056 102.135 41.0056 102.875 41.657 103.408C42.3084 103.941 43.1256 103.859 43.1315 103.959C43.1374 104.06 42.948 104.107 42.6045 104.119C42.1598 104.123 41.7271 103.975 41.3787 103.699C41.0502 103.434 40.8378 103.051 40.7865 102.633C40.751 102.319 40.8398 102.129 40.8872 102.135Z" fill="#263238"/>
<path d="M40.5938 93.851C40.5228 94.0346 39.8181 93.9458 38.9949 94.0465C38.1718 94.1471 37.5027 94.3603 37.3901 94.1945C37.2776 94.0287 37.4612 93.9399 37.7277 93.7563C38.0888 93.5326 38.4955 93.393 38.9179 93.3479C39.3402 93.3028 39.7673 93.3533 40.1675 93.4957C40.4695 93.6142 40.6234 93.7622 40.5938 93.851Z" fill="#263238"/>
<path d="M47.0633 94.4255C46.939 94.5853 46.4712 94.4255 45.879 94.4255C45.2868 94.4255 44.8012 94.532 44.6946 94.3662C44.6413 94.2893 44.6946 94.1294 44.9374 93.9813C45.2293 93.8064 45.5653 93.719 45.9054 93.7295C46.2456 93.74 46.5755 93.848 46.8561 94.0405C47.0515 94.1886 47.1166 94.3485 47.0633 94.4255Z" fill="#263238"/>
<path d="M48.4389 88.8879C48.3588 88.1787 48.1155 87.4977 47.7283 86.8982C47.881 86.5675 47.9391 86.2011 47.8963 85.8394C47.8534 85.4777 47.7113 85.135 47.4855 84.8492C47.1305 84.4784 46.6477 84.2567 46.135 84.2292C45.6224 84.2017 45.1186 84.3705 44.726 84.7012H44.6905C44.7895 84.4793 44.8106 84.2304 44.7504 83.995C44.6902 83.7596 44.5522 83.5514 44.3588 83.4043C43.8811 83.0974 43.3126 82.9636 42.7481 83.0253C41.694 83.0253 39.195 83.8721 37.3178 84.5827L36.9566 84.6479C35.3808 84.9152 33.8922 85.5569 32.616 86.5192C31.2475 87.8093 30.302 89.4837 29.9038 91.3217C29.4182 93.1338 29.4064 95.0406 29.7794 98.1259C30.3716 97.6225 32.3554 96.3493 32.6515 97.054C32.7692 97.4698 32.8211 97.9013 32.8055 98.3331C32.8005 98.5499 32.8597 98.7633 32.9756 98.9466C33.0915 99.1299 33.2589 99.275 33.4568 99.3635C33.6294 99.3967 33.808 99.3765 33.9688 99.3056C34.1296 99.2347 34.265 99.1165 34.357 98.9668C34.5399 98.6666 34.64 98.3233 34.6471 97.9719C34.7596 96.5507 34.4043 95.1117 34.6471 93.7023C34.7585 93.0055 35.0095 92.3384 35.385 91.7409C35.7604 91.1435 36.2527 90.628 36.8323 90.2254C37.4118 89.8228 38.0667 89.5414 38.7576 89.3981C39.4485 89.2547 40.1613 89.2524 40.8531 89.3912C41.7059 89.563 42.5349 89.9479 43.3995 89.9123C44.649 89.865 45.9281 88.9649 47.0592 89.5037C47.2783 89.6103 47.5033 89.7169 47.7165 89.8413C48.1428 90.09 48.356 90.3387 48.4567 90.1137C48.5126 89.7065 48.5066 89.2933 48.4389 88.8879Z" fill="#263238"/>
<path d="M32.4794 96.3787C32.3906 96.3787 29.5185 95.9819 29.7968 99.2981C30.0751 102.614 33.3973 101.246 33.3913 101.152C33.3854 101.057 32.4794 96.3787 32.4794 96.3787Z" fill="#B78876"/>
<path d="M32.2593 100.068C32.2593 100.068 32.2061 100.115 32.1113 100.169C31.9743 100.24 31.815 100.255 31.6672 100.21C31.4449 100.09 31.2583 99.9138 31.1262 99.6985C30.9942 99.4832 30.9213 99.2369 30.9151 98.9844C30.8814 98.7006 30.9139 98.4128 31.0099 98.1435C31.0347 98.0368 31.0848 97.9375 31.1559 97.8541C31.227 97.7706 31.317 97.7054 31.4185 97.6639C31.4845 97.6415 31.5562 97.6421 31.6219 97.6658C31.6875 97.6895 31.7431 97.7347 31.7797 97.7942C31.833 97.883 31.8152 97.954 31.833 97.96C31.8507 97.9659 31.904 97.8948 31.8626 97.7586C31.8355 97.6793 31.7836 97.6108 31.7145 97.5632C31.6161 97.5007 31.497 97.4794 31.3829 97.504C31.2441 97.5387 31.1165 97.6087 31.0127 97.7073C30.909 97.8059 30.8325 97.9296 30.7907 98.0666C30.6707 98.365 30.626 98.6883 30.6605 99.0081C30.6714 99.3061 30.7699 99.5942 30.9436 99.8365C31.1174 100.079 31.3588 100.264 31.6376 100.37C31.7305 100.389 31.8265 100.388 31.9187 100.365C32.0109 100.343 32.0969 100.3 32.1705 100.24C32.2593 100.151 32.2712 100.074 32.2593 100.068Z" fill="#AA6550"/>
<path d="M63.9731 236.039L66.555 232.421L56.6183 225.433L52.5085 231.017L53.1007 231.503C55.653 233.658 66.2175 242.274 68.3967 243.092C70.8009 243.998 63.9731 236.039 63.9731 236.039Z" fill="#8E6E00"/>
<g opacity="0.5">
<path d="M56.0535 233.581C56.5511 232.679 56.6947 231.623 56.4561 230.62C56.3421 230.108 56.117 229.626 55.7968 229.21C55.4765 228.793 55.0689 228.452 54.6026 228.21L52.6484 230.887L56.0535 233.581Z" fill="#B4B3B3"/>
</g>
<g opacity="0.5">
<path d="M67.2064 240.054C67.2064 240.054 69.4626 243.015 68.7579 243.222C68.0532 243.429 57.0446 235.103 52.5085 231.017L52.6803 230.816L65.4358 240.622C65.4358 240.622 66.6261 239.651 67.2064 240.054Z" fill="#B4B3B3"/>
</g>
<path d="M52.53 230.71L52.684 230.852L53.14 231.237L54.8336 232.634C56.2726 233.819 58.286 235.4 60.5422 237.105C62.7984 238.811 64.8769 240.321 66.3929 241.387L68.1695 242.642L68.6669 242.974C68.7213 243.017 68.781 243.053 68.8445 243.08C68.8445 243.08 68.7912 243.033 68.6847 242.95L68.205 242.595L66.4285 241.304C64.9302 240.214 62.8754 238.704 60.6073 236.993C58.3393 235.281 56.3792 233.671 54.8987 232.545L53.1755 231.183L52.7018 230.816C52.6499 230.773 52.5921 230.737 52.53 230.71Z" fill="#263238"/>
<path d="M65.321 240.776C65.609 240.54 65.9253 240.341 66.2626 240.184C66.6181 240.072 66.9861 240.004 67.3581 239.982C66.9803 239.861 66.571 239.884 66.2093 240.047C65.83 240.166 65.5116 240.427 65.321 240.776Z" fill="#263238"/>
<path d="M63.5444 237.223C63.5444 237.264 63.8169 237.223 64.1368 237.093C64.4567 236.962 64.6759 236.862 64.6641 236.826C64.6522 236.79 64.3916 236.826 64.0717 236.956C63.7518 237.087 63.5267 237.17 63.5444 237.223Z" fill="#263238"/>
<path d="M63.0714 236.21C63.0714 236.252 63.3024 236.27 63.5749 236.246C63.7473 236.255 63.9189 236.218 64.0726 236.139C64.0726 236.098 63.8415 236.08 63.5631 236.104C63.2847 236.127 63.0655 236.175 63.0714 236.21Z" fill="#263238"/>
<path d="M63.249 234.949C63.249 234.949 63.4267 235.18 63.7052 235.394C63.9836 235.607 64.2265 235.755 64.2502 235.72C64.2739 235.684 64.0665 235.494 63.794 235.281C63.5215 235.068 63.2727 234.92 63.249 234.949Z" fill="#263238"/>
<path d="M63.5585 234.191C63.5229 234.191 63.6888 234.505 63.9968 234.784C64.1679 234.967 64.3913 235.093 64.6366 235.145C64.6366 235.109 64.3819 234.932 64.0916 234.677C63.8013 234.422 63.5881 234.168 63.5585 234.191Z" fill="#263238"/>
<path d="M64.4919 236.631C64.6626 236.816 64.8627 236.972 65.0841 237.093C65.3283 237.236 65.5862 237.356 65.8539 237.448C66.0119 237.513 66.1768 237.558 66.3454 237.584C66.4495 237.597 66.5547 237.572 66.6415 237.513C66.6848 237.475 66.7162 237.425 66.7319 237.369C66.7477 237.314 66.7471 237.255 66.7303 237.199C66.6351 237.01 66.499 236.844 66.332 236.714C66.165 236.584 65.9711 236.492 65.7644 236.446C65.5577 236.399 65.3433 236.399 65.1365 236.446C64.9298 236.492 64.7359 236.584 64.5689 236.714C64.4682 236.797 64.4268 236.856 64.4327 236.868C64.638 236.727 64.8665 236.622 65.1078 236.56C65.3692 236.507 65.6404 236.529 65.8894 236.625C66.0394 236.672 66.1784 236.749 66.2984 236.851C66.4184 236.953 66.5169 237.077 66.5882 237.217C66.6356 237.365 66.5112 237.448 66.3513 237.43C66.1953 237.408 66.0423 237.369 65.8954 237.312C65.6328 237.225 65.3774 237.118 65.1315 236.992C64.7406 236.791 64.5037 236.631 64.4919 236.631Z" fill="#263238"/>
<path d="M64.6289 236.779C64.6289 236.779 64.8422 236.708 65.0199 236.412C65.1289 236.234 65.1863 236.029 65.1858 235.82C65.2025 235.689 65.1857 235.557 65.137 235.434C65.0883 235.312 65.0093 235.204 64.9074 235.121C64.8358 235.086 64.7534 235.08 64.6779 235.106C64.6025 235.132 64.5402 235.186 64.5045 235.257C64.4448 235.364 64.4103 235.484 64.4038 235.607C64.3791 235.803 64.3791 236.002 64.4038 236.199C64.4148 236.383 64.4741 236.561 64.5756 236.714C64.5756 236.714 64.5342 236.513 64.5105 236.193C64.4913 235.996 64.4913 235.798 64.5105 235.601C64.5105 235.411 64.6408 235.133 64.8185 235.227C64.9962 235.322 65.0259 235.601 65.0318 235.82C65.0262 236.002 64.9839 236.181 64.9074 236.347C64.8295 236.5 64.7362 236.645 64.6289 236.779Z" fill="#263238"/>
<path d="M54.6797 228.264C54.6797 228.264 54.9758 228.447 55.3725 228.826C55.8845 229.312 56.2584 229.925 56.4562 230.603C56.6323 231.287 56.6159 232.006 56.4089 232.681C56.249 233.196 56.0595 233.481 56.0832 233.493C56.1408 233.438 56.1888 233.374 56.2253 233.303C56.3408 233.117 56.4342 232.918 56.5036 232.711C56.7534 232.023 56.7844 231.274 56.5924 230.567C56.3992 229.854 55.9995 229.213 55.4436 228.726C55.2768 228.58 55.0964 228.451 54.9047 228.341C54.7685 228.287 54.6856 228.252 54.6797 228.264Z" fill="#263238"/>
<path d="M57.9678 233.575C58.3471 234.027 58.7852 234.425 59.2706 234.76C59.725 235.14 60.2266 235.46 60.7629 235.713C60.7629 235.677 60.1292 235.239 59.3594 234.647C58.5896 234.055 57.9974 233.546 57.9678 233.575Z" fill="#263238"/>
<path d="M56.0761 232.148C56.0346 232.148 56.0287 232.314 55.9872 232.503C55.9457 232.693 55.8865 232.847 55.922 232.87C55.9576 232.894 56.082 232.758 56.1294 232.539C56.1768 232.32 56.1175 232.142 56.0761 232.148Z" fill="#263238"/>
<path d="M56.0227 230.739C55.9812 230.739 55.9693 230.893 55.993 231.064C56.0167 231.236 56.07 231.378 56.1115 231.372C56.153 231.366 56.1648 231.224 56.1115 231.047C56.0582 230.869 56.0582 230.739 56.0227 230.739Z" fill="#263238"/>
<path d="M55.3018 229.572C55.3018 229.613 55.4143 229.708 55.5209 229.862C55.6276 230.016 55.669 230.17 55.7105 230.17C55.752 230.17 55.7698 229.975 55.6394 229.785C55.5091 229.595 55.3136 229.524 55.3018 229.572Z" fill="#263238"/>
<path d="M54.7199 228.838C54.6844 228.838 54.7199 228.951 54.7614 229.04C54.8028 229.128 54.8917 229.188 54.9272 229.17C54.9628 229.152 54.9272 229.057 54.8858 228.968C54.8443 228.88 54.7554 228.82 54.7199 228.838Z" fill="#263238"/>
<g opacity="0.3">
<path d="M54.9653 227.67L65.0087 234.593L65.3047 234.208L55.5397 226.865L54.9653 227.67Z" fill="black"/>
</g>
<path d="M112.2 247.469L111.27 243.229L99.7227 245.87L101.073 252.502L101.801 252.413C105.029 251.975 118.193 249.962 120.206 248.92C122.456 247.753 112.2 247.469 112.2 247.469Z" fill="#8E6E00"/>
<g opacity="0.5">
<path d="M105.259 251.608C104.924 250.662 104.254 249.871 103.375 249.387C102.929 249.134 102.432 248.983 101.92 248.945C101.408 248.907 100.894 248.983 100.415 249.168L101.072 252.336L105.259 251.608Z" fill="#B4B3B3"/>
</g>
<g opacity="0.5">
<path d="M117.245 247.777C117.245 247.777 120.881 248.09 120.555 248.73C120.23 249.37 107.006 251.892 101.073 252.502L101.043 252.248L116.499 249.435C116.499 249.435 116.576 247.931 117.245 247.777Z" fill="#B4B3B3"/>
</g>
<path d="M100.859 252.269H101.066L101.658 252.192L103.784 251.879C105.561 251.6 108.042 251.186 110.76 250.694C113.478 250.203 115.924 249.658 117.689 249.261L119.779 248.776L120.371 248.633L120.567 248.574C120.499 248.577 120.431 248.587 120.365 248.604L119.773 248.722L117.677 249.166C115.9 249.539 113.454 250.043 110.736 250.558C108.018 251.073 105.561 251.505 103.772 251.808L101.658 252.163L101.066 252.263L100.859 252.269Z" fill="#263238"/>
<path d="M116.528 249.613C116.554 249.252 116.623 248.896 116.736 248.552C116.9 248.222 117.098 247.911 117.328 247.622C116.998 247.823 116.751 248.133 116.629 248.499C116.456 248.844 116.42 249.242 116.528 249.613Z" fill="#263238"/>
<path d="M112.786 248.564C112.822 248.564 112.952 248.351 113.07 248.055C113.164 247.886 113.215 247.697 113.219 247.504C113.183 247.504 113.053 247.711 112.934 248.007C112.84 248.178 112.789 248.369 112.786 248.564Z" fill="#263238"/>
<path d="M111.755 248.257C111.785 248.257 111.945 248.126 112.111 247.913C112.276 247.7 112.389 247.504 112.359 247.481C112.33 247.457 112.164 247.611 111.998 247.824C111.832 248.038 111.726 248.233 111.755 248.257Z" fill="#263238"/>
<path d="M110.955 247.291C111.162 247.324 111.375 247.31 111.577 247.25C111.785 247.237 111.988 247.176 112.169 247.072C111.971 247.046 111.769 247.06 111.577 247.114C111.359 247.126 111.146 247.187 110.955 247.291Z" fill="#263238"/>
<path d="M110.612 246.578C110.836 246.672 111.084 246.695 111.322 246.643C111.565 246.639 111.801 246.561 111.998 246.418C111.765 246.426 111.533 246.454 111.305 246.501C111.072 246.506 110.84 246.532 110.612 246.578Z" fill="#263238"/>
<path d="M112.992 247.498C113.245 247.488 113.495 247.438 113.732 247.35C113.993 247.265 114.247 247.158 114.49 247.03C114.639 246.954 114.78 246.863 114.91 246.758C114.95 246.726 114.983 246.687 115.008 246.642C115.032 246.597 115.047 246.548 115.052 246.497C115.054 246.441 115.039 246.385 115.009 246.337C114.98 246.288 114.937 246.25 114.887 246.225C114.576 246.142 114.246 246.168 113.952 246.298C113.658 246.428 113.417 246.655 113.27 246.941C113.182 247.106 113.131 247.288 113.122 247.474C113.122 247.604 113.122 247.676 113.122 247.676C113.151 247.435 113.225 247.202 113.341 246.989C113.471 246.762 113.665 246.579 113.898 246.462C114.172 246.31 114.494 246.269 114.798 246.349C114.934 246.414 114.91 246.556 114.798 246.663C114.677 246.759 114.548 246.844 114.413 246.918C114.178 247.05 113.932 247.163 113.678 247.255C113.27 247.421 112.986 247.474 112.992 247.498Z" fill="#263238"/>
<path d="M113.188 247.497C113.256 247.33 113.256 247.143 113.188 246.976C113.131 246.787 113.027 246.616 112.886 246.478C112.801 246.381 112.693 246.307 112.572 246.262C112.451 246.218 112.321 246.204 112.193 246.223C112.122 246.254 112.066 246.31 112.035 246.38C112.004 246.451 112.001 246.53 112.027 246.603C112.067 246.716 112.132 246.82 112.217 246.905C112.346 247.05 112.493 247.177 112.655 247.284C112.796 247.391 112.961 247.464 113.135 247.497C113 247.391 112.86 247.292 112.714 247.201C112.569 247.089 112.436 246.962 112.318 246.822C112.187 246.686 112.063 246.425 112.246 246.354C112.43 246.283 112.655 246.449 112.797 246.573C112.927 246.693 113.028 246.841 113.094 247.005C113.145 247.165 113.176 247.33 113.188 247.497Z" fill="#263238"/>
<path d="M100.503 249.119C100.503 249.149 100.829 249.024 101.368 248.989C102.061 248.939 102.754 249.076 103.375 249.386C103.987 249.704 104.497 250.185 104.85 250.777C105.122 251.233 105.199 251.553 105.229 251.547C105.224 251.468 105.208 251.391 105.182 251.316C105.126 251.109 105.044 250.911 104.939 250.724C104.599 250.097 104.079 249.585 103.447 249.255C102.605 248.823 101.626 248.738 100.723 249.019C100.646 249.044 100.573 249.078 100.503 249.119Z" fill="#263238"/>
<path d="M106.502 250.252C107.659 250.253 108.807 250.052 109.895 249.659C109.895 249.618 109.137 249.808 108.202 249.979C107.266 250.151 106.502 250.186 106.502 250.252Z" fill="#263238"/>
<path d="M104.234 250.654C104.234 250.69 104.323 250.802 104.436 250.956C104.548 251.11 104.614 251.253 104.655 251.247C104.696 251.241 104.655 251.051 104.554 250.873C104.454 250.696 104.252 250.625 104.234 250.654Z" fill="#263238"/>
<path d="M103.163 249.778C103.163 249.808 103.234 249.908 103.376 250.009C103.519 250.11 103.655 250.157 103.678 250.122C103.702 250.086 103.601 249.985 103.459 249.89C103.317 249.796 103.199 249.742 103.163 249.778Z" fill="#263238"/>
<path d="M101.864 249.529C101.864 249.57 102.03 249.529 102.214 249.564C102.397 249.6 102.533 249.653 102.557 249.623C102.581 249.594 102.456 249.452 102.231 249.428C102.006 249.404 101.84 249.499 101.864 249.529Z" fill="#263238"/>
<path d="M100.948 249.476C100.948 249.511 101.019 249.558 101.12 249.576C101.22 249.594 101.315 249.576 101.321 249.541C101.327 249.505 101.25 249.458 101.149 249.434C101.048 249.41 100.954 249.434 100.948 249.476Z" fill="#263238"/>
<g opacity="0.3">
<path d="M100.266 248.529L111.855 245.793L111.766 245.325L100.059 247.587L100.266 248.529Z" fill="black"/>
</g>
<path d="M82.1396 144.648C82.8009 143.807 83.5785 143.066 84.4491 142.445C84.7748 142.338 90.5723 139.922 90.6789 140.189C90.7855 140.455 91.4842 141.782 90.2999 142.409L89.3879 142.711L92.716 142.984C92.716 142.984 96.423 145.72 96.3697 146.312C96.3164 146.904 95.8308 147.277 95.511 147.005C95.1913 146.732 96.3697 148.888 96.3697 148.888C96.3697 148.888 96.3697 149.8 95.8841 149.64C95.4138 149.375 94.9947 149.028 94.6465 148.615C94.6465 148.615 95.3452 149.746 95.132 149.96C94.9189 150.173 93.847 150.226 93.7345 149.96C93.622 149.693 93.468 149.207 93.468 149.207L92.8225 149.261V150.173L82.9983 150.475L82.1396 144.648Z" fill="#AA6550"/>
<path d="M44.0667 117.538L47.069 121.085L59.0665 142.084L82.4635 144.399L82.9728 151.168L56.0228 153.714L40.9814 126.486L44.0667 117.538Z" fill="#939393"/>
<path d="M46.4359 127.776L44.1145 119.018L44.0672 116.164L31.0393 110.242L28.5462 113.363L28.8482 113.523C27.8178 114.6 20.2557 122.79 20.688 128.854C21.0966 134.302 32.5671 168.613 32.5671 168.613L58.6999 160.974L46.4359 127.776Z" fill="#C8C4C4"/>
<path d="M43.8298 119.136L43.0955 122.724L45.0082 126.313V128.972L58.6994 160.95L62.7499 162.312L63.4368 159.57C63.4368 159.57 52.0373 140.105 50.0654 134.627C48.0934 129.15 45.1799 121.256 45.1799 121.256L43.8298 119.136Z" fill="#8E6E00"/>
<path d="M23.0454 135.25C23.0454 135.594 46.6496 158.398 46.6496 158.398L78.5385 152.157L77.514 145.353L55.7455 145.945C54.6496 146.043 53.5469 145.857 52.5439 145.405C51.5408 144.952 50.6713 144.249 50.0191 143.363C45.3469 137.299 35.2147 124.147 34.96 123.821C34.6225 123.336 23.0454 135.25 23.0454 135.25Z" fill="#C8C4C4"/>
<path d="M77.5135 145.352C77.5135 145.352 77.5431 145.488 77.5905 145.778C77.6378 146.069 77.7148 146.507 77.8036 147.069L78.6031 152.15V152.209H78.5439L53.0802 157.13L50.9839 157.533C50.2615 157.682 49.5243 157.748 48.7869 157.729C46.4438 157.652 44.2269 156.649 42.6224 154.939C42.0835 154.347 41.586 153.755 41.059 153.163C40.0089 151.978 38.9469 150.759 37.8731 149.503C33.5561 144.541 28.9904 139.276 24.253 133.828L24.1582 133.58C23.6799 132.413 23.419 131.169 23.3884 129.908C23.3531 128.648 23.6688 127.404 24.3004 126.314C24.9547 125.266 25.8553 124.393 26.9237 123.773C27.9556 123.136 29.117 122.737 30.3228 122.606C31.5167 122.49 32.7196 122.705 33.7989 123.228C34.8334 123.763 35.7545 124.493 36.5111 125.378C37.2474 126.229 37.9336 127.123 38.5659 128.055L40.4668 130.719C43.0073 134.213 45.5181 137.458 47.946 140.437L49.7226 142.616C50.2804 143.326 50.8858 143.996 51.5346 144.624C52.1961 145.17 53.0076 145.502 53.8619 145.577C54.6905 145.655 55.5234 145.676 56.355 145.642L71.8582 145.405L76.0567 145.352H77.5016H77.1226L76.0153 145.388L71.799 145.494L56.355 145.844C55.5157 145.882 54.6747 145.863 53.8382 145.784C52.9377 145.707 52.0814 145.36 51.3807 144.789C50.7178 144.157 50.1004 143.478 49.5331 142.758L47.7565 140.579C45.3168 137.618 42.7941 134.361 40.2477 130.867C39.6141 129.991 38.9805 129.091 38.335 128.203C37.7072 127.284 37.027 126.402 36.2979 125.561C35.557 124.719 34.6601 124.027 33.6568 123.524C32.6275 123.024 31.4795 122.819 30.3406 122.932C29.1683 123.047 28.0375 123.426 27.0332 124.042C26.029 124.657 25.1776 125.493 24.5432 126.485C23.9379 127.524 23.6363 128.712 23.6727 129.914C23.704 131.134 23.9568 132.338 24.4188 133.467C24.4543 133.55 24.4839 133.633 24.5135 133.71V133.668L38.1336 149.349L41.3136 153.021C41.8407 153.613 42.35 154.205 42.8711 154.797C43.6387 155.62 44.5611 156.283 45.5854 156.748C46.6097 157.214 47.7158 157.472 48.8402 157.509C49.5575 157.532 50.2749 157.47 50.978 157.326L53.0743 156.929L78.538 152.138L78.4847 152.209C78.1708 150.007 77.928 148.313 77.7622 147.158L77.5845 145.844C77.5312 145.506 77.5135 145.352 77.5135 145.352Z" fill="#455A64"/>
<path d="M44.0665 116.164C44.0961 116.164 43.9776 116.756 43.8592 117.769C43.7408 118.782 43.6638 120.256 43.267 121.991L43.2315 122.169L43.0716 122.074L38.4408 119.38C35.7582 117.816 33.3362 116.419 31.5893 115.347L29.5285 114.097C29.2695 113.954 29.0238 113.787 28.7942 113.6C29.0697 113.707 29.3353 113.837 29.5877 113.991L31.6959 115.175C33.4724 116.176 35.9122 117.544 38.5947 119.125L43.2374 121.843L43.0361 121.926C43.421 120.232 43.5217 118.758 43.7052 117.745C43.7881 117.236 43.8651 116.839 43.9362 116.561C43.9639 116.424 44.0076 116.291 44.0665 116.164Z" fill="#455A64"/>
<path d="M91.1954 145.363L85.5046 143.806L80.7671 146.175H78.0846L77.6582 146.346L78.4221 151.445L79.0972 151.54C79.791 151.965 80.5583 152.256 81.3593 152.398C82.8635 152.724 85.0604 151.753 85.0604 151.753L88.0687 150.089L90.2183 149.497L91.829 150.432C91.9021 150.715 91.9555 151.001 91.9889 151.291C91.9889 151.504 92.5811 151.771 92.9009 151.771C93.2207 151.771 93.3273 151.019 93.3273 151.019L92.9542 149.414L93.7062 150.107H95.5835V148.922L91.1954 145.363Z" fill="#B78876"/>
<path d="M78.5392 182.736L54.0171 226.391L67.122 235.28L88.7957 196.812L85.1419 182.736H78.5392Z" fill="#263238"/>
<path d="M32.5689 168.589C32.5689 168.589 29.7561 180.433 37.3952 182.861C45.0343 185.289 84.7694 186.526 84.7694 186.526L99.5383 247.521L112.181 245.744L101.279 180.373C100.886 178.14 99.8168 176.081 98.2154 174.476C96.614 172.87 94.558 171.795 92.3256 171.396C80.5413 169.288 59.1932 165.421 58.9031 164.989C58.5004 164.396 56.8897 160.968 56.8897 160.968L32.5689 168.589Z" fill="#263238"/>
<path d="M89.5408 205.175C89.486 205.075 89.4423 204.97 89.4105 204.861C89.3336 204.648 89.2329 204.34 89.1204 203.931C88.8835 203.126 88.5933 201.935 88.2854 200.467C87.9775 198.998 87.6222 197.228 87.2254 195.291C86.8474 193.179 86.2295 191.117 85.3837 189.144C84.8863 188.15 84.1994 187.184 83.2104 186.864C82.2305 186.552 81.2233 186.332 80.2022 186.207C78.2361 185.935 76.4537 185.804 74.9555 185.71C73.4573 185.615 72.2374 185.574 71.4024 185.538L70.4372 185.497C70.3252 185.513 70.2115 185.513 70.0996 185.497C70.2101 185.471 70.3238 185.461 70.4372 185.467C70.6563 185.467 70.9879 185.467 71.4083 185.467C72.2492 185.467 73.4691 185.467 74.9614 185.538C76.4537 185.609 78.2539 185.71 80.2318 185.97C81.2769 186.09 82.3081 186.31 83.3111 186.628C83.5792 186.727 83.8355 186.856 84.075 187.013C84.3104 187.184 84.5251 187.383 84.7146 187.605C85.0912 188.047 85.4078 188.537 85.6561 189.061C86.5125 191.056 87.1307 193.145 87.4978 195.285C87.8946 197.239 88.2025 198.998 88.4927 200.473C88.7828 201.947 89.0315 203.138 89.227 203.955C89.4224 204.772 89.5408 205.163 89.5408 205.175Z" fill="#455A64"/>
<path d="M209.993 154.051L52.1774 153.482L52.1597 158.172L61.5279 158.202L61.1963 249.469L64.5066 249.48L64.8323 158.214L195.236 158.682L194.91 249.954L198.22 249.96L198.546 158.693L209.975 158.735L209.993 154.051Z" fill="#455A64"/>
<path d="M155.785 128.154L164.543 153.736H204.178L203.888 152.422L187.858 151.924L180.473 128.142L155.785 128.154Z" fill="#939393"/>
<path d="M173.357 140.17C173.618 141.218 173.168 142.249 172.35 142.468C171.533 142.687 170.663 142.012 170.402 140.964C170.142 139.915 170.586 138.885 171.403 138.672C172.22 138.459 173.091 139.122 173.357 140.17Z" fill="#B4B3B3"/>
<path d="M130.412 127.438L121.654 153.021H82.0193L82.3095 151.706L98.3397 151.208L105.724 127.427L130.412 127.438Z" fill="#939393"/>
<path d="M112.844 139.454C112.583 140.502 113.033 141.532 113.851 141.745C114.668 141.959 115.538 141.295 115.799 140.247C116.059 139.199 115.609 138.169 114.798 137.95C113.987 137.73 113.11 138.406 112.844 139.454Z" fill="#B4B3B3"/>
<path d="M137.65 144.843C138.08 142.199 136.285 139.707 133.641 139.277C130.998 138.847 128.506 140.641 128.076 143.285C127.646 145.929 129.44 148.421 132.084 148.851C134.728 149.281 137.22 147.486 137.65 144.843Z" fill="#455A64"/>
<path d="M148.715 142.155H117.021V153.738H148.715V142.155Z" fill="#939393"/>
<path d="M129.204 145.351C127.485 145.503 125.759 145.555 124.034 145.505C122.309 145.555 120.583 145.503 118.865 145.351C120.583 145.195 122.309 145.144 124.034 145.197C125.759 145.144 127.485 145.195 129.204 145.351Z" fill="#263238"/>
<path d="M129.204 147.016C127.485 147.169 125.759 147.22 124.034 147.17C122.309 147.22 120.583 147.169 118.865 147.016C120.583 146.856 122.309 146.803 124.034 146.856C125.759 146.803 127.486 146.856 129.204 147.016Z" fill="#263238"/>
<path d="M129.204 148.675C127.485 148.831 125.759 148.882 124.034 148.829C122.309 148.882 120.583 148.831 118.865 148.675C120.583 148.523 122.309 148.471 124.034 148.521C125.759 148.471 127.485 148.523 129.204 148.675Z" fill="#263238"/>
<path d="M129.204 150.338C127.485 150.494 125.759 150.545 124.034 150.492C122.309 150.545 120.583 150.494 118.865 150.338C120.583 150.186 122.309 150.134 124.034 150.184C125.759 150.134 127.485 150.186 129.204 150.338Z" fill="#263238"/>
<path d="M134.977 153.465C134.821 151.616 134.77 149.76 134.823 147.905C134.77 146.048 134.821 144.189 134.977 142.338C135.13 144.19 135.181 146.048 135.131 147.905C135.181 149.76 135.13 151.616 134.977 153.465Z" fill="#263238"/>
</svg>
