<svg width="272" height="219" viewBox="0 0 272 219" fill="none" xmlns="http://www.w3.org/2000/svg">
<path d="M260.16 200.647H239.5V200.803H260.16V200.647Z" fill="#999999"/>
<path d="M186.127 202.344H180.707V202.5H186.127V202.344Z" fill="#999999"/>
<path d="M238.876 194.859H226.905V195.015H238.876V194.859Z" fill="#999999"/>
<path d="M39.1781 195.906H12.2361V196.062H39.1781V195.906Z" fill="#999999"/>
<path d="M48.6845 195.906H44.7358V196.062H48.6845V195.906Z" fill="#999999"/>
<path d="M119.96 198.539H61.522V198.695H119.96V198.539Z" fill="#999999"/>
<path d="M213.437 186.287L195.92 182.62V91.9498H190.306V182.62L172.79 186.287C171.797 186.496 170.905 187.041 170.266 187.829C169.626 188.617 169.278 189.602 169.278 190.617H216.924C216.925 189.605 216.58 188.624 215.945 187.836C215.311 187.048 214.425 186.501 213.437 186.287Z" fill="#565555"/>
<path d="M192.701 37.7476H202.682C207.139 37.7476 211.414 39.5181 214.565 42.6697C217.717 45.8213 219.488 50.0958 219.488 54.5528V77.5898C219.488 79.7967 219.053 81.982 218.208 84.0209C217.364 86.0598 216.126 87.9124 214.565 89.4729C213.005 91.0334 211.152 92.2713 209.113 93.1158C207.074 93.9604 204.889 94.3951 202.682 94.3951H192.701V37.7538V37.7476Z" fill="#A4A0A0"/>
<path d="M202.713 87.5521H192.701V94.4139H202.713C207.169 94.4122 211.442 92.641 214.593 89.4896C217.743 86.3381 219.512 82.0646 219.512 77.6087V70.7468C219.512 75.2028 217.743 79.4763 214.593 82.6277C211.442 85.7791 207.169 87.5504 202.713 87.5521Z" fill="#565555"/>
<path d="M193.887 37.7476H178.859C173.699 37.7476 169.515 41.9313 169.515 47.0921V85.0443C169.515 90.2051 173.699 94.3888 178.859 94.3888H193.887C199.048 94.3888 203.231 90.2051 203.231 85.0443V47.0921C203.231 41.9313 199.048 37.7476 193.887 37.7476Z" fill="#F4F4F4"/>
<path d="M186.376 63.4921C192.547 63.4921 197.549 58.4901 197.549 52.3198C197.549 46.1495 192.547 41.1475 186.376 41.1475C180.206 41.1475 175.204 46.1495 175.204 52.3198C175.204 58.4901 180.206 63.4921 186.376 63.4921Z" fill="#565555"/>
<path d="M186.376 90.2157C192.547 90.2157 197.549 85.2137 197.549 79.0434C197.549 72.8731 192.547 67.8711 186.376 67.8711C180.206 67.8711 175.204 72.8731 175.204 79.0434C175.204 85.2137 180.206 90.2157 186.376 90.2157Z" fill="#565555"/>
<path d="M186.376 61.6331C191.52 61.6331 195.689 57.4634 195.689 52.3197C195.689 47.1761 191.52 43.0063 186.376 43.0063C181.232 43.0063 177.063 47.1761 177.063 52.3197C177.063 57.4634 181.232 61.6331 186.376 61.6331Z" fill="#999999"/>
<path d="M190.1 52.3195C190.1 53.0597 189.881 53.7834 189.47 54.3989C189.058 55.0144 188.474 55.4941 187.79 55.7774C187.106 56.0607 186.353 56.1348 185.627 55.9904C184.901 55.846 184.234 55.4895 183.711 54.966C183.188 54.4426 182.831 53.7757 182.687 53.0497C182.542 52.3236 182.616 51.5711 182.9 50.8872C183.183 50.2032 183.663 49.6187 184.278 49.2074C184.894 48.7962 185.617 48.5767 186.358 48.5767C187.35 48.5767 188.302 48.971 189.004 49.6729C189.706 50.3748 190.1 51.3268 190.1 52.3195Z" fill="#565555"/>
<path d="M186.376 88.3568C191.52 88.3568 195.689 84.1871 195.689 79.0435C195.689 73.8998 191.52 69.7301 186.376 69.7301C181.232 69.7301 177.063 73.8998 177.063 79.0435C177.063 84.1871 181.232 88.3568 186.376 88.3568Z" fill="#999999"/>
<path d="M190.1 79.0434C190.1 79.7836 189.881 80.5072 189.47 81.1227C189.058 81.7382 188.474 82.218 187.79 82.5013C187.106 82.7845 186.353 82.8587 185.627 82.7142C184.901 82.5698 184.234 82.2134 183.711 81.6899C183.188 81.1665 182.831 80.4996 182.687 79.7735C182.542 79.0475 182.616 78.295 182.9 77.611C183.183 76.9271 183.663 76.3426 184.278 75.9313C184.894 75.5201 185.617 75.3005 186.358 75.3005C187.35 75.3005 188.302 75.6949 189.004 76.3968C189.706 77.0987 190.1 78.0507 190.1 79.0434Z" fill="#565555"/>
<path d="M248.096 3.56319H22.4163C22.1889 3.56401 21.9635 3.51992 21.7531 3.43345C21.5428 3.34699 21.3516 3.21984 21.1904 3.0593C21.0293 2.89877 20.9015 2.708 20.8143 2.49795C20.727 2.2879 20.6821 2.0627 20.6821 1.83526C20.6813 1.60729 20.7256 1.38141 20.8125 1.17064C20.8993 0.959871 21.027 0.76837 21.1882 0.607173C21.3494 0.445976 21.5409 0.318271 21.7517 0.231412C21.9625 0.144554 22.1883 0.100261 22.4163 0.101086H248.096C248.324 0.100261 248.549 0.144554 248.76 0.231412C248.971 0.318271 249.162 0.445976 249.324 0.607173C249.485 0.76837 249.613 0.959871 249.699 1.17064C249.786 1.38141 249.831 1.60729 249.83 1.83526C249.83 2.0627 249.785 2.2879 249.698 2.49795C249.61 2.708 249.483 2.89877 249.321 3.0593C249.16 3.21984 248.969 3.34699 248.759 3.43345C248.548 3.51992 248.323 3.56401 248.096 3.56319Z" fill="#A4A0A0"/>
<path d="M60.0877 24.4917C59.5229 25.0566 58.8524 25.5047 58.1144 25.8105C57.3764 26.1162 56.5854 26.2735 55.7866 26.2735C54.9878 26.2735 54.1968 26.1162 53.4588 25.8105C52.7208 25.5047 52.0503 25.0566 51.4855 24.4917L49.2336 22.2398C48.0946 21.0994 47.4548 19.5535 47.4548 17.9418C47.4548 16.33 48.0946 14.7842 49.2336 13.6438C49.7983 13.0789 50.4689 12.6308 51.2069 12.325C51.9449 12.0193 52.7359 11.8619 53.5347 11.8619C54.3335 11.8619 55.1245 12.0193 55.8625 12.325C56.6005 12.6308 57.271 13.0789 57.8358 13.6438L60.0877 15.8895C60.6526 16.4543 61.1007 17.1248 61.4065 17.8628C61.7122 18.6008 61.8696 19.3918 61.8696 20.1906C61.8696 20.9894 61.7122 21.7804 61.4065 22.5184C61.1007 23.2564 60.6526 23.9269 60.0877 24.4917Z" fill="#565555"/>
<path d="M53.8367 22.0528C53.5452 22.3385 53.3133 22.6791 53.1542 23.055C52.9952 23.4308 52.9123 23.8345 52.9102 24.2426C52.9081 24.6507 52.987 25.0552 53.1422 25.4326C53.2975 25.8101 53.526 26.153 53.8146 26.4416C54.1031 26.7302 54.4461 26.9587 54.8235 27.1139C55.201 27.2692 55.6055 27.348 56.0136 27.346C56.4217 27.3439 56.8254 27.261 57.2012 27.1019C57.5771 26.9429 57.9177 26.7109 58.2033 26.4195L62.021 22.6018C62.3125 22.3161 62.5445 21.9755 62.7035 21.5997C62.8625 21.2238 62.9455 20.8201 62.9475 20.412C62.9496 20.0039 62.8707 19.5994 62.7155 19.222C62.5603 18.8445 62.3318 18.5016 62.0432 18.213C61.7546 17.9244 61.4117 17.6959 61.0342 17.5407C60.6568 17.3854 60.2523 17.3066 59.8442 17.3086C59.436 17.3107 59.0324 17.3936 58.6565 17.5527C58.2807 17.7117 57.94 17.9437 57.6544 18.2352L53.8367 22.0528Z" fill="#F5F5F5"/>
<path d="M54.3111 14.4487C54.3111 15.1204 54.0443 15.7646 53.5693 16.2396C53.0944 16.7145 52.4502 16.9814 51.7785 16.9814C51.1068 16.9814 50.4626 16.7145 49.9876 16.2396C49.5127 15.7646 49.2458 15.1204 49.2458 14.4487V3.12671H54.3111V14.4487Z" fill="#F4F4F4"/>
<path d="M53.1699 14.4483C53.1699 14.7235 53.0883 14.9924 52.9354 15.2212C52.7826 15.4499 52.5653 15.6282 52.3111 15.7335C52.0569 15.8388 51.7772 15.8664 51.5074 15.8127C51.2375 15.759 50.9897 15.6265 50.7951 15.432C50.6006 15.2374 50.4681 14.9896 50.4144 14.7197C50.3608 14.4499 50.3883 14.1702 50.4936 13.916C50.5989 13.6618 50.7772 13.4445 51.0059 13.2917C51.2347 13.1388 51.5036 13.0573 51.7788 13.0573C51.9615 13.0573 52.1423 13.0932 52.3111 13.1631C52.4799 13.2331 52.6332 13.3355 52.7624 13.4647C52.8916 13.5939 52.9941 13.7472 53.064 13.916C53.1339 14.0848 53.1699 14.2657 53.1699 14.4483Z" fill="#565555"/>
<path d="M115.406 24.4917C114.841 25.0566 114.171 25.5047 113.433 25.8105C112.695 26.1162 111.904 26.2735 111.105 26.2735C110.306 26.2735 109.515 26.1162 108.777 25.8105C108.039 25.5047 107.369 25.0566 106.804 24.4917L104.552 22.2398C103.413 21.0994 102.773 19.5535 102.773 17.9418C102.773 16.33 103.413 14.7842 104.552 13.6438C105.117 13.0789 105.787 12.6308 106.525 12.325C107.263 12.0193 108.054 11.8619 108.853 11.8619C109.652 11.8619 110.443 12.0193 111.181 12.325C111.919 12.6308 112.589 13.0789 113.154 13.6438L115.406 15.8895C115.971 16.4543 116.419 17.1248 116.725 17.8628C117.031 18.6008 117.188 19.3918 117.188 20.1906C117.188 20.9894 117.031 21.7804 116.725 22.5184C116.419 23.2564 115.971 23.9269 115.406 24.4917Z" fill="#565555"/>
<path d="M109.156 22.0528C108.864 22.3385 108.632 22.6791 108.473 23.055C108.314 23.4308 108.231 23.8345 108.229 24.2426C108.227 24.6507 108.306 25.0552 108.461 25.4326C108.617 25.8101 108.845 26.153 109.134 26.4416C109.422 26.7302 109.765 26.9587 110.143 27.1139C110.52 27.2692 110.925 27.348 111.333 27.346C111.741 27.3439 112.144 27.261 112.52 27.1019C112.896 26.9429 113.237 26.7109 113.522 26.4195L117.34 22.6018C117.632 22.3161 117.864 21.9755 118.023 21.5997C118.182 21.2238 118.265 20.8201 118.267 20.412C118.269 20.0039 118.19 19.5994 118.035 19.222C117.879 18.8445 117.651 18.5016 117.362 18.213C117.074 17.9244 116.731 17.6959 116.353 17.5407C115.976 17.3854 115.571 17.3066 115.163 17.3086C114.755 17.3107 114.351 17.3936 113.976 17.5527C113.6 17.7117 113.259 17.9437 112.973 18.2352L109.156 22.0528Z" fill="#F5F5F5"/>
<path d="M109.63 14.4487C109.63 15.1204 109.364 15.7646 108.889 16.2396C108.414 16.7145 107.77 16.9814 107.098 16.9814C106.426 16.9814 105.782 16.7145 105.307 16.2396C104.832 15.7646 104.565 15.1204 104.565 14.4487V3.12671H109.63V14.4487Z" fill="#F4F4F4"/>
<path d="M108.488 14.4483C108.488 14.7235 108.406 14.9924 108.254 15.2212C108.101 15.4499 107.883 15.6282 107.629 15.7335C107.375 15.8388 107.095 15.8664 106.826 15.8127C106.556 15.759 106.308 15.6265 106.113 15.432C105.919 15.2374 105.786 14.9896 105.733 14.7197C105.679 14.4499 105.706 14.1702 105.812 13.916C105.917 13.6618 106.095 13.4445 106.324 13.2917C106.553 13.1388 106.822 13.0573 107.097 13.0573C107.466 13.0573 107.82 13.2038 108.081 13.4647C108.341 13.7256 108.488 14.0794 108.488 14.4483Z" fill="#565555"/>
<path d="M216.001 24.492C216.566 25.0569 217.236 25.505 217.974 25.8108C218.712 26.1165 219.503 26.2739 220.302 26.2739C221.101 26.2739 221.892 26.1165 222.63 25.8108C223.368 25.505 224.038 25.0569 224.603 24.492L226.849 22.2401C227.413 21.6758 227.861 21.0058 228.167 20.2684C228.473 19.5309 228.63 18.7404 228.63 17.9421C228.63 17.1438 228.473 16.3533 228.167 15.6158C227.861 14.8784 227.413 14.2084 226.849 13.6441C226.285 13.0794 225.614 12.6314 224.877 12.3258C224.14 12.0201 223.349 11.8628 222.551 11.8628C221.752 11.8628 220.962 12.0201 220.225 12.3258C219.487 12.6314 218.817 13.0794 218.253 13.6441L216.001 15.8898C215.436 16.4546 214.988 17.1251 214.682 17.8631C214.376 18.6011 214.219 19.3921 214.219 20.1909C214.219 20.9897 214.376 21.7807 214.682 22.5187C214.988 23.2567 215.436 23.9272 216.001 24.492Z" fill="#565555"/>
<path d="M222.251 22.0527C222.542 22.3383 222.774 22.6789 222.933 23.0548C223.092 23.4307 223.175 23.8343 223.177 24.2424C223.18 24.6506 223.101 25.055 222.945 25.4325C222.79 25.8099 222.562 26.1529 222.273 26.4415C221.985 26.73 221.642 26.9586 221.264 27.1138C220.887 27.269 220.482 27.3479 220.074 27.3458C219.666 27.3438 219.262 27.2608 218.886 27.1018C218.511 26.9428 218.17 26.7108 217.884 26.4193L214.092 22.558C213.8 22.2723 213.568 21.9317 213.409 21.5558C213.25 21.18 213.167 20.7763 213.165 20.3682C213.163 19.9601 213.242 19.5556 213.397 19.1781C213.552 18.8007 213.781 18.4578 214.069 18.1692C214.358 17.8806 214.701 17.6521 215.078 17.4968C215.456 17.3416 215.86 17.2627 216.268 17.2648C216.677 17.2669 217.08 17.3498 217.456 17.5088C217.832 17.6679 218.173 17.8999 218.458 18.1913L222.251 22.0527Z" fill="#F5F5F5"/>
<path d="M221.777 14.4487C221.777 15.1204 222.044 15.7646 222.519 16.2396C222.994 16.7145 223.638 16.9814 224.31 16.9814C224.981 16.9814 225.626 16.7145 226.101 16.2396C226.576 15.7646 226.842 15.1204 226.842 14.4487V3.12671H221.777V14.4487Z" fill="#F4F4F4"/>
<path d="M222.918 14.4483C222.918 14.7235 223 14.9924 223.153 15.2212C223.306 15.4499 223.523 15.6282 223.777 15.7335C224.031 15.8388 224.311 15.8664 224.581 15.8127C224.851 15.759 225.099 15.6265 225.293 15.432C225.488 15.2374 225.62 14.9896 225.674 14.7197C225.728 14.4499 225.7 14.1702 225.595 13.916C225.489 13.6618 225.311 13.4445 225.082 13.2917C224.854 13.1388 224.585 13.0573 224.31 13.0573C224.127 13.0573 223.946 13.0932 223.777 13.1631C223.608 13.2331 223.455 13.3355 223.326 13.4647C223.197 13.5939 223.094 13.7472 223.024 13.916C222.954 14.0848 222.918 14.2657 222.918 14.4483Z" fill="#565555"/>
<path d="M160.682 24.492C161.247 25.0569 161.917 25.505 162.655 25.8108C163.393 26.1165 164.184 26.2739 164.983 26.2739C165.782 26.2739 166.573 26.1165 167.311 25.8108C168.049 25.505 168.719 25.0569 169.284 24.492L171.53 22.2401C172.095 21.6758 172.543 21.0058 172.848 20.2684C173.154 19.5309 173.311 18.7404 173.311 17.9421C173.311 17.1438 173.154 16.3533 172.848 15.6158C172.543 14.8784 172.095 14.2084 171.53 13.6441C170.966 13.0794 170.296 12.6314 169.558 12.3258C168.821 12.0201 168.03 11.8628 167.232 11.8628C166.434 11.8628 165.643 12.0201 164.906 12.3258C164.168 12.6314 163.498 13.0794 162.934 13.6441L160.682 15.8898C160.117 16.4546 159.669 17.1251 159.363 17.8631C159.058 18.6011 158.9 19.3921 158.9 20.1909C158.9 20.9897 159.058 21.7807 159.363 22.5187C159.669 23.2567 160.117 23.9272 160.682 24.492Z" fill="#565555"/>
<path d="M166.933 22.0527C167.224 22.3383 167.456 22.6789 167.615 23.0548C167.774 23.4307 167.857 23.8343 167.859 24.2424C167.861 24.6506 167.783 25.055 167.627 25.4325C167.472 25.8099 167.244 26.1529 166.955 26.4415C166.666 26.73 166.323 26.9586 165.946 27.1138C165.569 27.269 165.164 27.3479 164.756 27.3458C164.348 27.3438 163.944 27.2608 163.568 27.1018C163.192 26.9428 162.852 26.7108 162.566 26.4193L158.773 22.558C158.482 22.2723 158.25 21.9317 158.091 21.5558C157.932 21.18 157.849 20.7763 157.847 20.3682C157.845 19.9601 157.924 19.5556 158.079 19.1781C158.234 18.8007 158.463 18.4578 158.751 18.1692C159.04 17.8806 159.383 17.6521 159.76 17.4968C160.138 17.3416 160.542 17.2627 160.95 17.2648C161.358 17.2669 161.762 17.3498 162.138 17.5088C162.514 17.6679 162.854 17.8999 163.14 18.1913L166.933 22.0527Z" fill="#F5F5F5"/>
<path d="M166.458 14.4487C166.458 15.1204 166.725 15.7646 167.2 16.2396C167.675 16.7145 168.319 16.9814 168.991 16.9814C169.663 16.9814 170.307 16.7145 170.782 16.2396C171.257 15.7646 171.524 15.1204 171.524 14.4487V3.12671H166.458V14.4487Z" fill="#F4F4F4"/>
<path d="M167.6 14.4483C167.6 14.7235 167.682 14.9924 167.835 15.2212C167.988 15.4499 168.205 15.6282 168.459 15.7335C168.713 15.8388 168.993 15.8664 169.263 15.8127C169.533 15.759 169.781 15.6265 169.975 15.432C170.17 15.2374 170.302 14.9896 170.356 14.7197C170.409 14.4499 170.382 14.1702 170.277 13.916C170.171 13.6618 169.993 13.4445 169.764 13.2917C169.536 13.1388 169.267 13.0573 168.991 13.0573C168.622 13.0573 168.269 13.2038 168.008 13.4647C167.747 13.7256 167.6 14.0794 167.6 14.4483Z" fill="#565555"/>
<path d="M135.966 218.438C210.665 218.438 271.219 215.277 271.219 211.377C271.219 207.477 210.665 204.316 135.966 204.316C61.2684 204.316 0.713623 207.477 0.713623 211.377C0.713623 215.277 61.2684 218.438 135.966 218.438Z" fill="#F5F5F5"/>
<path opacity="0.3" d="M244.908 139.384C252.887 139.384 258.569 145.329 258.152 153.251L257.235 170.568C257.168 171.849 256.614 173.056 255.686 173.942C254.758 174.828 253.527 175.326 252.244 175.334H220.181L226.805 153.251C229.145 145.329 236.924 139.384 244.908 139.384Z" fill="white"/>
<path d="M80.6794 204.066H6.88354V211.246H80.6794V204.066Z" fill="#8E6E00"/>
<path opacity="0.3" d="M80.6794 204.066H6.88354V211.246H80.6794V204.066Z" fill="white"/>
<path d="M194.099 204.066H74.4534V211.246H194.099V204.066Z" fill="#8E6E00"/>
<path opacity="0.7" d="M194.099 204.066H74.4534V211.246H194.099V204.066Z" fill="white"/>
<path d="M33.8814 203.91C33.7169 203.896 33.5647 203.817 33.4583 203.69C33.3519 203.564 33.2999 203.401 33.3137 203.236L45.8646 52.8561H47.1122V54.1037H47.0124L34.5364 203.342C34.5221 203.503 34.4458 203.652 34.3236 203.758C34.2014 203.864 34.0428 203.919 33.8814 203.91Z" fill="#2D2D2D"/>
<path d="M89.656 203.91C89.738 203.904 89.8179 203.881 89.8912 203.844C89.9646 203.806 90.0297 203.755 90.0831 203.692C90.1364 203.63 90.1769 203.557 90.202 203.479C90.2272 203.401 90.2367 203.318 90.2299 203.236L77.679 52.8561H76.4314V54.1037H76.5374L84.5595 150.269H44.1808L36.0713 52.8561H34.8237V54.1037H34.9235L47.3996 203.342C47.4139 203.507 47.4928 203.659 47.6191 203.765C47.7454 203.872 47.9087 203.924 48.0733 203.91C48.2378 203.896 48.39 203.817 48.4964 203.69C48.6028 203.564 48.6548 203.401 48.641 203.236L44.3242 151.517H84.703L89.0259 203.342C89.0401 203.499 89.1128 203.644 89.2297 203.75C89.3465 203.855 89.4987 203.912 89.656 203.91Z" fill="#2D2D2D"/>
<path d="M92.5436 130.407H32.9143L25.385 40.1929H85.0143L92.5436 130.407Z" fill="#8E6E00"/>
<path opacity="0.8" d="M92.5436 130.407H32.9143L25.385 40.1929H85.0143L92.5436 130.407Z" fill="white"/>
<path d="M84.9649 42.314H25.2919C24.7675 42.314 24.2645 42.1057 23.8936 41.7349C23.5228 41.364 23.3145 40.861 23.3145 40.3366C23.3145 39.8121 23.5228 39.3092 23.8936 38.9383C24.2645 38.5675 24.7675 38.3591 25.2919 38.3591H84.9649C85.4893 38.3591 85.9923 38.5675 86.3631 38.9383C86.734 39.3092 86.9423 39.8121 86.9423 40.3366C86.9423 40.861 86.734 41.364 86.3631 41.7349C85.9923 42.1057 85.4893 42.314 84.9649 42.314Z" fill="#8E6E00"/>
<path opacity="0.5" d="M84.9649 42.314H25.2919C24.7675 42.314 24.2645 42.1057 23.8936 41.7349C23.5228 41.364 23.3145 40.861 23.3145 40.3366C23.3145 39.8121 23.5228 39.3092 23.8936 38.9383C24.2645 38.5675 24.7675 38.3591 25.2919 38.3591H84.9649C85.4893 38.3591 85.9923 38.5675 86.3631 38.9383C86.734 39.3092 86.9423 39.8121 86.9423 40.3366C86.9423 40.861 86.734 41.364 86.3631 41.7349C85.9923 42.1057 85.4893 42.314 84.9649 42.314Z" fill="white"/>
<path d="M60.4246 96.4285L59.5388 85.8676C59.5319 85.7856 59.5414 85.7031 59.5666 85.6248C59.5918 85.5465 59.6322 85.4739 59.6856 85.4113C59.7389 85.3487 59.8041 85.2972 59.8774 85.2599C59.9507 85.2226 60.0307 85.2001 60.1127 85.1938C60.2772 85.18 60.4406 85.232 60.5669 85.3384C60.6932 85.4448 60.7721 85.597 60.7864 85.7615L61.6659 96.3225C61.6798 96.487 61.6278 96.6504 61.5214 96.7767C61.415 96.903 61.2628 96.9819 61.0983 96.9962C60.9337 97.01 60.7704 96.958 60.6441 96.8516C60.5178 96.7452 60.4389 96.5931 60.4246 96.4285Z" fill="#8E6E00"/>
<path d="M50.4247 86.1236C42.6709 86.1236 35.809 79.8108 35.1291 72.0569C34.9341 70.2669 35.1223 68.456 35.6811 66.7444C36.24 65.0327 37.1568 63.4597 38.3705 62.1297C39.5842 60.7997 41.0671 59.7433 42.7207 59.0306C44.3742 58.318 46.1604 57.9654 47.9607 57.9964C51.7871 58.069 55.4548 59.5388 58.2723 62.1288C61.0899 64.7189 62.8626 68.2501 63.2563 72.0569C63.4502 73.8469 63.2613 75.6578 62.7021 77.3692C62.1429 79.0807 61.2262 80.6537 60.0128 81.984C58.7993 83.3142 57.317 84.3712 55.6639 85.0849C54.0109 85.7986 52.225 86.1527 50.4247 86.1236ZM48.0168 58.6202C46.2967 58.5916 44.5901 58.9292 43.0103 59.6106C41.4306 60.2919 40.0138 61.3015 38.854 62.5722C37.6942 63.8429 36.8178 65.3457 36.2832 66.981C35.7486 68.6162 35.5678 70.3465 35.7529 72.0569C36.1257 75.6965 37.8184 79.0735 40.5112 81.5503C43.204 84.027 46.7106 85.432 50.3686 85.4998C52.0893 85.5285 53.7965 85.1908 55.3768 84.509C56.957 83.8273 58.3741 82.8172 59.534 81.5458C60.6939 80.2744 61.5701 78.7708 62.1043 77.1348C62.6385 75.4988 62.8186 73.7678 62.6325 72.0569C62.2582 68.4184 60.5649 65.0429 57.8723 62.5674C55.1796 60.092 51.6739 58.6879 48.0168 58.6202Z" fill="#8E6E00"/>
<path d="M69.9626 86.1235C62.2087 86.1235 55.3469 79.8106 54.6669 72.0568C54.4729 70.267 54.6618 68.4565 55.2211 66.7453C55.7804 65.0341 56.6972 63.4615 57.9107 62.1317C59.1242 60.802 60.6067 59.7456 62.2597 59.0326C63.9128 58.3196 65.6986 57.9663 67.4985 57.9963C71.325 58.0689 74.9926 59.5387 77.8102 62.1287C80.6277 64.7187 82.4004 68.25 82.7942 72.0568C82.9891 73.847 82.8009 75.6583 82.2421 77.3702C81.6833 79.0821 80.7666 80.6556 79.553 81.986C78.3393 83.3164 76.8565 84.3735 75.203 85.0868C73.5495 85.8002 71.7631 86.1536 69.9626 86.1235ZM67.5547 58.6201C65.8345 58.5915 64.1279 58.9291 62.5482 59.6105C60.9684 60.2918 59.5516 61.3013 58.3918 62.572C57.232 63.8428 56.3557 65.3456 55.821 66.9808C55.2864 68.6161 55.1056 70.3463 55.2907 72.0568C55.6636 75.6964 57.3563 79.0734 60.0491 81.5502C62.7419 84.0269 66.2484 85.4319 69.9064 85.4997C71.6272 85.5284 73.3344 85.1906 74.9146 84.5089C76.4949 83.8272 77.912 82.8171 79.0719 81.5457C80.2318 80.2743 81.1079 78.7706 81.6422 77.1346C82.1764 75.4986 82.3564 73.7677 82.1704 72.0568C81.7962 68.4194 80.1038 65.0447 77.4125 62.5693C74.7211 60.094 71.2169 58.6892 67.5609 58.6201H67.5547Z" fill="#8E6E00"/>
<path d="M54.9907 72.3188L60.8919 65.8562C60.7796 65.6629 60.6549 65.4695 60.5363 65.2823L54.9221 71.4268C54.9221 71.6389 54.9221 71.851 54.9595 72.0506C54.9907 72.1442 54.9907 72.2315 54.9907 72.3188Z" fill="#8E6E00"/>
<path d="M61.6597 67.2602C61.5599 67.0481 61.46 66.836 61.3478 66.6364L55.1721 73.4046C55.2158 73.6728 55.2719 73.9348 55.3343 74.1906L61.6597 67.2602Z" fill="#8E6E00"/>
<path d="M62.2645 68.8066C62.1896 68.5695 62.1085 68.3387 62.0212 68.1079L55.6147 75.1382C55.6896 75.3752 55.7707 75.606 55.8518 75.8368L62.2645 68.8066Z" fill="#8E6E00"/>
<path d="M60.0685 64.5715L59.6631 64.0475L55.0532 69.1003C55.0033 69.4559 54.9721 69.8114 54.9534 70.1732L60.0685 64.5715Z" fill="#8E6E00"/>
<path d="M59.114 63.3988C58.9706 63.2366 58.8209 63.0806 58.6649 62.9247L55.8703 65.9938C55.6693 66.4876 55.5005 66.994 55.365 67.5096L59.114 63.3988Z" fill="#8E6E00"/>
<path d="M62.2212 77.715C62.3917 77.2453 62.5354 76.7663 62.6516 76.2803L58.7341 80.572C58.8776 80.7342 59.0273 80.8964 59.177 81.0524L62.2212 77.715Z" fill="#8E6E00"/>
<path d="M60.661 80.6716L59.7502 81.6697L59.8126 81.7321C60.1142 81.3941 60.3974 81.0401 60.661 80.6716Z" fill="#8E6E00"/>
<path d="M62.7199 70.5221C62.67 70.2601 62.6076 70.0043 62.5452 69.7485L56.2012 76.7039C56.2968 76.916 56.3966 77.124 56.5006 77.3277L62.7199 70.5221Z" fill="#8E6E00"/>
<path d="M62.9137 74.739C62.9511 74.3959 62.9761 74.0466 62.9823 73.6973L57.7673 79.4113C57.8983 79.5922 58.0293 79.7669 58.1666 79.9415L62.9137 74.739Z" fill="#8E6E00"/>
<path d="M62.9701 72.4623C62.9701 72.3251 62.9701 72.1879 62.9701 72.0506L62.914 71.5765L56.9504 78.114C57.0627 78.3094 57.1812 78.5028 57.306 78.6941L62.9701 72.4623Z" fill="#8E6E00"/>
<path d="M81.341 102.717H42.0914C41.5352 102.706 41.0022 102.492 40.593 102.115C40.1839 101.738 39.9269 101.224 39.8706 100.671C39.8472 100.411 39.8782 100.15 39.9617 99.9027C40.0452 99.6559 40.1793 99.4292 40.3555 99.2371C40.5316 99.0451 40.746 98.892 40.9847 98.7876C41.2235 98.6832 41.4814 98.6298 41.742 98.6309H80.9917C81.5469 98.6416 82.0791 98.8548 82.4881 99.2305C82.8971 99.6062 83.1547 100.118 83.2124 100.671C83.2368 100.931 83.2065 101.193 83.1234 101.441C83.0404 101.688 82.9064 101.916 82.7301 102.108C82.5538 102.301 82.3392 102.455 82.0999 102.56C81.8607 102.664 81.6022 102.718 81.341 102.717Z" fill="#8E6E00"/>
<path d="M77.1858 110.994H49.7884C49.2322 110.984 48.6992 110.77 48.2901 110.393C47.8809 110.016 47.6239 109.502 47.5677 108.948C47.5442 108.689 47.5752 108.427 47.6587 108.18C47.7422 107.934 47.8763 107.707 48.0525 107.515C48.2286 107.323 48.443 107.17 48.6818 107.065C48.9205 106.961 49.1785 106.908 49.4391 106.909H76.824C77.3796 106.918 77.9126 107.131 78.3218 107.507C78.7311 107.883 78.9883 108.396 79.0447 108.948C79.069 109.207 79.039 109.469 78.9567 109.715C78.8744 109.962 78.7415 110.189 78.5666 110.382C78.3917 110.574 78.1785 110.728 77.9408 110.834C77.7031 110.939 77.4459 110.994 77.1858 110.994Z" fill="#8E6E00"/>
<path d="M81.341 102.717H42.0914C41.5352 102.706 41.0022 102.492 40.593 102.115C40.1839 101.738 39.9269 101.224 39.8706 100.671C39.8472 100.411 39.8782 100.15 39.9617 99.9027C40.0452 99.6559 40.1793 99.4292 40.3555 99.2371C40.5316 99.0451 40.746 98.892 40.9847 98.7876C41.2235 98.6832 41.4814 98.6298 41.742 98.6309H80.9917C81.5469 98.6416 82.0791 98.8548 82.4881 99.2305C82.8971 99.6062 83.1547 100.118 83.2124 100.671C83.2368 100.931 83.2065 101.193 83.1234 101.441C83.0404 101.688 82.9064 101.916 82.7301 102.108C82.5538 102.301 82.3392 102.455 82.0999 102.56C81.8607 102.664 81.6022 102.718 81.341 102.717Z" fill="#8E6E00"/>
<path d="M77.1858 110.994H49.7884C49.2322 110.984 48.6992 110.77 48.2901 110.393C47.8809 110.016 47.6239 109.502 47.5677 108.948C47.5442 108.689 47.5752 108.427 47.6587 108.18C47.7422 107.934 47.8763 107.707 48.0525 107.515C48.2286 107.323 48.443 107.17 48.6818 107.065C48.9205 106.961 49.1785 106.908 49.4391 106.909H76.824C77.3796 106.918 77.9126 107.131 78.3218 107.507C78.7311 107.883 78.9883 108.396 79.0447 108.948C79.069 109.207 79.039 109.469 78.9567 109.715C78.8744 109.962 78.7415 110.189 78.5666 110.382C78.3917 110.574 78.1785 110.728 77.9408 110.834C77.7031 110.939 77.4459 110.994 77.1858 110.994Z" fill="#8E6E00"/>
<path d="M125.868 198.052L129.761 196.823L128.189 187.884L124.29 189.113L125.868 198.052Z" fill="#CE7A63"/>
<path d="M129.847 196.318L125.481 197.697C125.407 197.72 125.344 197.768 125.303 197.833C125.262 197.898 125.245 197.976 125.256 198.052L125.842 201.483C125.86 201.573 125.897 201.658 125.951 201.732C126.005 201.807 126.075 201.868 126.155 201.912C126.235 201.956 126.324 201.982 126.416 201.988C126.508 201.993 126.599 201.979 126.684 201.945C128.2 201.44 128.911 201.121 130.839 200.516C132.024 200.142 137.077 198.645 138.724 198.152C140.371 197.659 139.971 196.081 139.21 196.156C135.954 196.499 131.887 196.83 130.589 196.337C130.351 196.246 130.089 196.239 129.847 196.318Z" fill="#2D2D2D"/>
<path opacity="0.2" d="M124.29 189.113L128.189 187.884L129 192.494L125.101 193.723L124.29 189.113Z" fill="black"/>
<path d="M122.986 98.6617C122.986 98.6617 125.531 131.099 126.136 142.415C126.797 154.81 130.503 191.072 130.503 191.072L123.298 193.018C123.298 193.018 116.317 157.898 114.527 145.852C112.581 132.753 108.757 98.6867 108.757 98.6867L122.986 98.6617Z" fill="#2D2D2D"/>
<path d="M123.073 193.099L130.789 191.022L130.914 187.953L122.175 190.891L123.073 193.099Z" fill="#2D2D2D"/>
<path d="M131.401 196.543C131.051 196.644 130.691 196.709 130.328 196.736C130.311 196.737 130.294 196.732 130.28 196.724C130.266 196.715 130.254 196.702 130.247 196.687C130.237 196.672 130.231 196.654 130.231 196.637C130.231 196.619 130.237 196.601 130.247 196.587C130.353 196.462 131.282 195.383 131.8 195.414C131.858 195.416 131.915 195.433 131.963 195.465C132.012 195.497 132.05 195.542 132.075 195.595C132.121 195.673 132.145 195.763 132.145 195.854C132.145 195.945 132.121 196.034 132.075 196.113C131.907 196.33 131.669 196.482 131.401 196.543ZM130.553 196.543C131.282 196.456 131.8 196.275 131.931 196.038C131.96 195.986 131.975 195.928 131.975 195.869C131.975 195.81 131.96 195.752 131.931 195.701C131.92 195.676 131.901 195.654 131.878 195.639C131.855 195.623 131.828 195.615 131.8 195.614C131.507 195.582 130.933 196.106 130.553 196.531V196.543Z" fill="#8E6E00"/>
<path d="M130.353 196.73H130.309C130.294 196.726 130.281 196.719 130.269 196.709C130.257 196.699 130.247 196.687 130.241 196.674C130.241 196.624 129.879 195.563 130.184 195.07C130.225 195.007 130.278 194.953 130.34 194.911C130.402 194.869 130.473 194.841 130.546 194.827C130.619 194.803 130.699 194.806 130.77 194.835C130.841 194.865 130.899 194.92 130.933 194.989C131.126 195.376 130.727 196.349 130.397 196.698L130.353 196.73ZM130.521 195.027C130.447 195.05 130.383 195.098 130.34 195.164C130.214 195.585 130.225 196.035 130.372 196.449C130.666 196.06 130.806 195.575 130.765 195.089C130.765 195.039 130.702 194.989 130.565 195.014L130.521 195.027Z" fill="#8E6E00"/>
<path opacity="0.6" d="M114.022 108.693C112.537 102.904 111.021 104.289 109.942 106.821C110.054 108.599 110.173 110.471 110.304 112.436C111.19 120.04 112.313 129.453 113.292 137.063C115.126 129.44 116.124 116.752 114.022 108.693Z" fill="black"/>
<path d="M96.4924 199.793H100.479L101.801 190.567H97.8211L96.4924 199.793Z" fill="#CE7A63"/>
<path d="M100.728 199.331H96.2495C96.1726 199.332 96.0983 199.36 96.04 199.41C95.9817 199.46 95.9432 199.53 95.9314 199.606L95.4074 203.149C95.3958 203.237 95.4033 203.327 95.4294 203.413C95.4555 203.498 95.4996 203.577 95.5588 203.643C95.6179 203.71 95.6907 203.764 95.7722 203.8C95.8537 203.836 95.942 203.855 96.0312 203.854C97.5907 203.854 98.3393 203.735 100.31 203.735C101.521 203.735 106.661 203.866 108.333 203.866C110.004 203.866 110.104 202.213 109.406 202.057C106.287 201.39 102.431 200.46 101.383 199.562C101.198 199.413 100.967 199.331 100.728 199.331Z" fill="#2D2D2D"/>
<path opacity="0.2" d="M97.8154 190.567H101.802L101.122 195.327H97.1355L97.8154 190.567Z" fill="black"/>
<path d="M115.824 98.4247C115.824 98.4247 113.541 128.879 111.894 140.288C110.098 152.764 102.93 194.178 102.93 194.178H95.6318C95.6318 194.178 99.3747 153.793 99.9985 141.423C100.697 127.999 102.045 98.4247 102.045 98.4247H115.824Z" fill="#2D2D2D"/>
<path d="M95.3389 194.178H103.224L103.904 191.409L95.158 191.839L95.3389 194.178Z" fill="#2D2D2D"/>
<path d="M102.082 200.03C101.729 200.022 101.377 199.974 101.034 199.887C101.017 199.883 101 199.874 100.988 199.86C100.976 199.847 100.968 199.83 100.966 199.812C100.966 199.793 100.971 199.775 100.98 199.759C100.988 199.743 101.001 199.729 101.016 199.718C101.147 199.631 102.344 198.857 102.812 199.051C102.866 199.071 102.913 199.107 102.948 199.153C102.982 199.2 103.002 199.255 103.006 199.313C103.024 199.403 103.02 199.497 102.993 199.585C102.965 199.674 102.916 199.754 102.85 199.818C102.627 199.976 102.355 200.052 102.082 200.03ZM101.296 199.749C101.765 199.913 102.279 199.891 102.731 199.687C102.773 199.644 102.803 199.591 102.82 199.533C102.836 199.476 102.838 199.415 102.825 199.356C102.824 199.328 102.815 199.3 102.798 199.277C102.781 199.253 102.758 199.235 102.731 199.225C102.482 199.094 101.777 199.456 101.296 199.749Z" fill="#8E6E00"/>
<path d="M101.053 199.886H101.009C100.997 199.878 100.986 199.867 100.978 199.854C100.971 199.841 100.967 199.827 100.966 199.811C100.966 199.762 100.966 198.614 101.415 198.227C101.468 198.176 101.533 198.138 101.603 198.115C101.673 198.093 101.747 198.086 101.82 198.096C101.897 198.098 101.971 198.128 102.028 198.179C102.085 198.231 102.122 198.301 102.132 198.377C102.182 198.813 101.509 199.624 101.103 199.88C101.088 199.887 101.07 199.89 101.053 199.886ZM101.739 198.271C101.663 198.272 101.59 198.301 101.533 198.352C101.286 198.721 101.156 199.155 101.159 199.599C101.533 199.306 101.983 198.676 101.945 198.389C101.945 198.339 101.914 198.271 101.783 198.258L101.739 198.271Z" fill="#8E6E00"/>
<path d="M124.633 66.0057C125.606 68.2577 126.71 70.6032 127.877 72.774C128.457 73.8719 129.08 74.9261 129.748 75.893C130.312 76.8029 130.984 77.6408 131.75 78.3882C131.881 78.5106 132.021 78.6232 132.168 78.7251C132.281 78.8062 132.355 78.8374 132.355 78.8436C132.355 78.8498 132.281 78.8748 132.355 78.881C132.454 78.8853 132.553 78.8661 132.642 78.8249C133.041 78.6617 133.41 78.4341 133.734 78.1512C134.174 77.8051 134.591 77.43 134.982 77.0283C136.645 75.1846 138.161 73.2136 139.517 71.1334L142.012 72.3061C141.159 74.9638 139.928 77.4849 138.356 79.7918C137.923 80.4132 137.443 81.0012 136.922 81.5509C136.31 82.1951 135.608 82.7477 134.838 83.1915C134.353 83.4765 133.827 83.6867 133.279 83.8153C132.629 83.95 131.958 83.95 131.307 83.8153C130.27 83.5868 129.3 83.119 128.475 82.4492C127.267 81.4631 126.199 80.3173 125.3 79.0432C124.473 77.9051 123.708 76.7223 123.011 75.5C122.331 74.2961 121.688 73.0921 121.108 71.8632C120.528 70.6344 119.967 69.4304 119.449 68.1204L124.633 66.0057Z" fill="#CE7A63"/>
<path d="M131.227 75.5811L124.932 80.2783C124.932 80.2783 124.689 80.0163 124.309 79.5547C124.015 79.2116 123.641 78.7625 123.205 78.2385C120.759 75.2567 117.185 69.8171 117.154 67.1535C117.11 63.1799 121.233 62.5935 125.887 66.6545C127.883 68.4073 128.931 71.3205 129.942 73.1233C130.278 73.7159 130.565 74.2399 130.784 74.6454C131.052 75.213 131.227 75.5811 131.227 75.5811Z" fill="#8E6E00"/>
<path opacity="0.6" d="M131.227 75.5811L124.932 80.2783C124.932 80.2783 124.689 80.0163 124.309 79.5547C124.015 79.2116 123.641 78.7625 123.205 78.2385C120.759 75.2567 117.185 69.8171 117.154 67.1535C117.11 63.1799 121.233 62.5935 125.887 66.6545C127.883 68.4073 128.931 71.3205 129.942 73.1233C130.278 73.7159 130.565 74.2399 130.784 74.6454C131.052 75.213 131.227 75.5811 131.227 75.5811Z" fill="white"/>
<path opacity="0.3" d="M117.091 67.5906C118.513 66.6487 119.555 69.0877 122.368 71.1401C123.616 72.057 126.367 78.0393 126.142 79.3555L124.926 80.26C124.926 80.26 117.059 71.5518 117.091 67.5906Z" fill="black"/>
<path d="M139.161 71.2959L140.534 66.9293L144.089 69.5431C144.089 69.5431 142.149 73.4481 140.833 73.0925L139.161 71.2959Z" fill="#CE7A63"/>
<path d="M131.226 74.9514L124.345 80.0978L125.2 80.9961L131.75 76.1616L131.226 74.9514Z" fill="#8E6E00"/>
<path opacity="0.8" d="M131.226 74.9514L124.345 80.0978L125.2 80.9961L131.75 76.1616L131.226 74.9514Z" fill="white"/>
<path d="M123.366 98.6618H102.05C101.901 96.7904 102.337 90.5524 102.013 82.68C101.808 76.8346 101.098 71.0179 99.8921 65.2946C99.7985 64.8642 99.6987 64.44 99.5989 64.0096C99.5989 64.0096 100.678 63.7912 102.225 63.5667C103.51 63.3795 105.126 63.1799 106.704 63.105C109.721 62.9365 112.745 62.9365 115.762 63.105C117.153 63.236 118.513 63.4669 119.598 63.6789C120.989 63.9597 121.806 64.1967 121.806 64.1967C121.806 64.1967 127.059 76.2049 123.366 98.6618Z" fill="#8E6E00"/>
<path opacity="0.6" d="M123.366 98.6618H102.05C101.901 96.7904 102.337 90.5524 102.013 82.68C101.808 76.8346 101.098 71.0179 99.8921 65.2946C99.7985 64.8642 99.6987 64.44 99.5989 64.0096C99.5989 64.0096 100.678 63.7912 102.225 63.5667C103.51 63.3795 105.126 63.1799 106.704 63.105C109.721 62.9365 112.745 62.9365 115.762 63.105C117.153 63.236 118.513 63.4669 119.598 63.6789C120.989 63.9597 121.806 64.1967 121.806 64.1967C121.806 64.1967 127.059 76.2049 123.366 98.6618Z" fill="white"/>
<path d="M144.283 65.2324L146.285 67.6902L144.089 69.5179L140.533 66.9105L144.283 65.2324Z" fill="#CE7A63"/>
<path d="M102.769 68.1396C102.557 69.4933 102.282 70.7346 101.989 72.0197C101.696 73.3047 101.365 74.5585 100.953 75.8311C100.555 77.1204 100.091 78.3884 99.5623 79.6301C98.9962 80.9887 98.2762 82.278 97.4165 83.4727C96.8623 84.2272 96.1829 84.8813 95.4078 85.4065C94.8878 85.7486 94.3112 85.9957 93.7048 86.1363C93.0254 86.2922 92.3195 86.2922 91.64 86.1363C90.5893 85.8442 89.6464 85.2525 88.9265 84.4333C88.3887 83.8392 87.9257 83.1814 87.5479 82.4746C86.8847 81.2486 86.3575 79.9538 85.9759 78.6132C85.7825 77.9894 85.6266 77.322 85.4894 76.6732C85.3521 76.0245 85.2211 75.4256 85.1338 74.702L87.8161 73.9659C88.7649 76.1106 89.9269 78.1544 91.2845 80.0667C91.566 80.4345 91.886 80.7711 92.2389 81.071C92.5321 81.3143 92.7878 81.3642 92.713 81.2956C92.6532 81.2645 92.587 81.2474 92.5196 81.2457C92.4697 81.2457 92.4697 81.2457 92.5196 81.1958C92.7579 80.9663 92.9674 80.7086 93.1434 80.4285C93.6971 79.5361 94.1531 78.5866 94.5033 77.5964C94.9088 76.536 95.2581 75.4069 95.5825 74.2591C96.2063 71.976 96.7802 69.5494 97.2293 67.2413L102.769 68.1396Z" fill="#CE7A63"/>
<path d="M88.1341 74.1902L86.768 69.8236L83.2061 72.4373C83.2061 72.4373 85.1523 76.3423 86.4685 75.9868L88.1341 74.1902Z" fill="#CE7A63"/>
<path d="M83.0124 68.1267L81.01 70.5845L83.2058 72.4185L86.7677 69.8047L83.0124 68.1267Z" fill="#CE7A63"/>
<path opacity="0.3" d="M102.014 82.6489C101.808 76.8035 101.099 70.9868 99.8928 65.2635C101.321 65.145 103.754 65.2635 104.16 67.584C104.59 70.0543 104.047 75.8744 102.014 82.6489Z" fill="black"/>
<path d="M104.684 70.8217C103.815 73.5335 102.786 76.1914 101.602 78.7814C101.347 79.3678 101.11 79.8855 100.916 80.3035L100.361 81.4887L92.3826 77.4527C92.3826 77.4527 92.4699 77.1221 92.6321 76.5607C92.7506 76.1365 92.9066 75.5875 93.1062 74.945C94.2789 71.2022 96.718 64.4651 99.3442 63.9973C103.199 63.2612 106.106 66.0808 104.684 70.8217Z" fill="#8E6E00"/>
<path opacity="0.6" d="M104.684 70.8217C103.815 73.5335 102.786 76.1914 101.602 78.7814C101.347 79.3678 101.11 79.8855 100.916 80.3035L100.361 81.4887L92.3826 77.4527C92.3826 77.4527 92.4699 77.1221 92.6321 76.5607C92.7506 76.1365 92.9066 75.5875 93.1062 74.945C94.2789 71.2022 96.718 64.4651 99.3442 63.9973C103.199 63.2612 106.106 66.0808 104.684 70.8217Z" fill="white"/>
<path d="M111.926 66.0683C106.662 65.9248 105.869 63.3548 105.838 63.2425V63.1302L106.736 63.074C109.753 62.9055 112.777 62.9055 115.794 63.074L116.306 63.1302C116.525 63.3141 116.695 63.5508 116.799 63.818C116.902 64.0853 116.937 64.3744 116.898 64.6585C116.667 65.5568 115.432 65.8562 114.353 65.981L111.926 66.0683Z" fill="white"/>
<path d="M92.5691 75.9868L101.29 80.447L100.304 81.6572L92.1948 77.4465L92.5691 75.9868Z" fill="#8E6E00"/>
<path opacity="0.8" d="M92.5691 75.9868L101.29 80.447L100.304 81.6572L92.1948 77.4465L92.5691 75.9868Z" fill="white"/>
<path d="M111.483 66.4615L115.014 66.0685L114.234 68.4389C114.234 68.4389 116.661 81.0772 117.135 85.3315C117.416 87.8829 117.665 95.5743 117.665 95.5743L115.825 97.6017L113.093 96.3042C113.093 96.3042 113.155 87.6458 113.143 84.7638C113.143 80.6779 112.937 68.4389 112.937 68.4389L111.352 66.9106L111.483 66.4615Z" fill="#2D2D2D"/>
<path d="M110.622 68.7881L113.192 66.4488L116.361 68.6321C116.361 68.6321 119.643 65.5131 117.204 63.2487C116.736 63.1801 116.255 63.1239 115.763 63.074C112.746 62.9055 109.722 62.9055 106.705 63.074C106.081 63.1052 105.457 63.1551 104.833 63.2175C105.039 64.0971 105.969 66.9853 110.622 68.7881Z" fill="#8E6E00"/>
<path opacity="0.8" d="M110.622 68.7881L113.192 66.4488L116.361 68.6321C116.361 68.6321 119.643 65.5131 117.204 63.2487C116.736 63.1801 116.255 63.1239 115.763 63.074C112.746 62.9055 109.722 62.9055 106.705 63.074C106.081 63.1052 105.457 63.1551 104.833 63.2175C105.039 64.0971 105.969 66.9853 110.622 68.7881Z" fill="white"/>
<path d="M112.094 65.5382C107.023 65.4509 106.355 63.0992 106.355 63.0992C108.327 61.1529 107.572 55.8381 106.898 52.9187L109.325 54.9273L112.625 57.6721C112.524 58.1097 112.453 58.5536 112.413 59.0008C112.238 60.7911 112.7 62.4192 115.332 63.043C115.332 63.043 118.451 65.114 113.822 65.4883L112.094 65.5382Z" fill="#CE7A63"/>
<path opacity="0.2" d="M112.624 57.6721C112.524 58.1097 112.453 58.5536 112.412 59.0008C111.165 58.7575 109.536 57.4413 109.368 56.1874C109.307 55.7745 109.292 55.356 109.324 54.9398L112.624 57.6721Z" fill="black"/>
<path d="M105.9 48.7203C106.742 52.5941 107.035 54.8959 109.324 56.6675C110.065 57.25 110.95 57.6189 111.885 57.734C112.82 57.8491 113.768 57.706 114.627 57.3204C115.487 56.9348 116.224 56.3213 116.759 55.5464C117.295 54.7715 117.608 53.8648 117.665 52.9247C117.97 49.3191 116.542 43.5676 112.462 42.4885C111.582 42.225 110.649 42.1986 109.755 42.4118C108.862 42.625 108.041 43.0703 107.375 43.7027C106.709 44.3351 106.222 45.1321 105.963 46.0132C105.704 46.8942 105.682 47.8281 105.9 48.7203Z" fill="#CE7A63"/>
<path d="M112.013 49.1011C112.063 49.4193 112.269 49.6563 112.481 49.6313C112.693 49.6064 112.818 49.3319 112.768 49.0075C112.718 48.6832 112.512 48.4524 112.3 48.4773C112.088 48.5023 111.963 48.758 112.013 49.1011Z" fill="#2D2D2D"/>
<path d="M115.619 48.6764C115.668 48.9945 115.88 49.2316 116.086 49.2066C116.292 49.1817 116.423 48.901 116.38 48.5828C116.336 48.2647 116.118 48.0276 115.912 48.0526C115.706 48.0775 115.575 48.3582 115.619 48.6764Z" fill="#2D2D2D"/>
<path d="M114.496 48.9698C115.03 49.8985 115.684 50.7522 116.443 51.5087C116.246 51.6903 116.011 51.8259 115.755 51.9058C115.5 51.9856 115.229 52.0076 114.964 51.9703L114.496 48.9698Z" fill="#BA4D3C"/>
<path d="M110.716 48.0774C110.687 48.0864 110.657 48.0864 110.628 48.0774C110.606 48.0656 110.587 48.0496 110.572 48.0304C110.556 48.0111 110.544 47.9889 110.537 47.9651C110.53 47.9413 110.528 47.9164 110.531 47.8918C110.534 47.8671 110.541 47.8433 110.553 47.8216C110.691 47.558 110.891 47.3327 111.138 47.1661C111.384 46.9995 111.667 46.8967 111.963 46.8672C111.988 46.8646 112.013 46.8672 112.037 46.8747C112.06 46.8822 112.082 46.8946 112.101 46.911C112.12 46.9274 112.135 46.9474 112.146 46.97C112.156 46.9925 112.162 47.017 112.163 47.0419C112.164 47.0669 112.161 47.0921 112.153 47.1159C112.145 47.1396 112.132 47.1615 112.115 47.1801C112.098 47.1987 112.077 47.2138 112.055 47.2243C112.032 47.2348 112.007 47.2407 111.982 47.2415C111.751 47.2703 111.531 47.3546 111.339 47.4871C111.148 47.6196 110.992 47.7965 110.884 48.0025C110.864 48.0276 110.838 48.0475 110.809 48.0605C110.78 48.0736 110.748 48.0793 110.716 48.0774Z" fill="#2D2D2D"/>
<path d="M116.978 47.2541C116.948 47.2529 116.918 47.245 116.891 47.231C116.864 47.217 116.841 47.1972 116.822 47.173C116.693 46.9689 116.518 46.7974 116.311 46.6719C116.105 46.5464 115.872 46.4702 115.631 46.4494C115.581 46.4494 115.534 46.4296 115.499 46.3945C115.464 46.3594 115.444 46.3118 115.444 46.2622C115.444 46.2126 115.464 46.165 115.499 46.1299C115.534 46.0948 115.581 46.0751 115.631 46.0751C115.933 46.095 116.225 46.1856 116.485 46.3395C116.745 46.4934 116.965 46.7062 117.128 46.9609C117.142 46.9813 117.152 47.0043 117.157 47.0286C117.162 47.0529 117.163 47.0779 117.158 47.1023C117.153 47.1267 117.144 47.1499 117.13 47.1706C117.117 47.1913 117.099 47.2091 117.078 47.2229C117.048 47.2414 117.014 47.2522 116.978 47.2541Z" fill="#2D2D2D"/>
<path d="M107.31 51.8768C107.31 51.8768 109.025 53.0059 108.869 51.6397C108.713 50.2736 108.09 45.6762 108.09 45.6762L109.998 44.1167C109.998 44.1167 118.108 44.1728 117.609 40.0495C117.11 35.9261 113.311 39.1886 113.311 39.1886C113.311 39.1886 114.084 36.8618 111.358 36.9055C110.621 36.8941 109.905 37.153 109.345 37.6333C108.785 38.1137 108.421 38.7823 108.32 39.513C108.32 39.513 105.75 37.9972 104.484 39.3571C104.102 39.8277 103.819 40.3713 103.654 40.9548C103.489 41.5383 103.444 42.1493 103.523 42.7505C103.523 42.7505 97.2854 43.6301 101.34 49.6124C105.395 55.5946 108.402 56.312 107.31 51.8768Z" fill="#2D2D2D"/>
<path d="M105.007 52.7628C105.634 53.5194 106.501 54.0371 107.465 54.2287C108.712 54.4346 108.962 53.2993 108.338 52.2076C107.783 51.222 106.467 49.9307 105.381 50.2177C104.296 50.5046 104.215 51.8084 105.007 52.7628Z" fill="#CE7A63"/>
<path d="M110.697 56.9671C110.142 55.5573 109.375 53.0746 110.192 50.9349C111.009 48.7953 114.016 52.4944 115.064 52.4944C116.112 52.4944 117.004 50.8538 117.634 51.9829C118.264 53.112 115.575 59.6058 115.008 57.9028C115.008 57.9028 114.247 59.0693 113.548 58.0026C113.548 58.0026 113.074 58.9009 112.338 58.0026C112.338 58.0026 111.29 58.4642 110.697 56.9671Z" fill="#2D2D2D"/>
<path opacity="0.3" d="M110.697 56.9671C110.142 55.5573 109.375 53.0746 110.192 50.9349C111.009 48.7953 114.016 52.4944 115.064 52.4944C116.112 52.4944 117.004 50.8538 117.634 51.9829C118.264 53.112 115.575 59.6058 115.008 57.9028C115.008 57.9028 114.247 59.0693 113.548 58.0026C113.548 58.0026 113.074 58.9009 112.338 58.0026C112.338 58.0026 111.29 58.4642 110.697 56.9671Z" fill="white"/>
<path d="M116.043 53.0244C114.553 52.7496 113.041 52.6181 111.527 52.6314C111.888 53.642 112.593 54.5028 114.303 54.5028C114.515 54.5279 114.731 54.5088 114.936 54.4469C115.141 54.3849 115.331 54.2813 115.495 54.1426C115.658 54.0039 115.791 53.833 115.885 53.6406C115.98 53.4482 116.033 53.2385 116.043 53.0244Z" fill="#2D2D2D"/>
<path d="M113.535 53.6984C114.2 53.6752 114.855 53.8629 115.407 54.2349C115.083 54.4337 114.707 54.5295 114.328 54.5093C113.662 54.5411 113.004 54.3526 112.456 53.9729C112.779 53.771 113.156 53.675 113.535 53.6984Z" fill="#A02724"/>
<path d="M115.887 52.9937C115.851 53.1159 115.782 53.2258 115.687 53.3107C115.592 53.3956 115.476 53.4522 115.35 53.474C114.352 53.442 113.359 53.3252 112.381 53.1247C112.225 53.1084 112.076 53.0529 111.947 52.9635C111.818 52.8741 111.714 52.7536 111.645 52.6132C113.067 52.6269 114.485 52.7541 115.887 52.9937Z" fill="white"/>
<path d="M234.023 100.278C233.786 100.221 233.492 100.434 233.399 100.789C233.305 101.145 233.361 101.513 233.599 101.569C233.836 101.625 234.129 101.413 234.222 101.057C234.316 100.702 234.229 100.334 234.023 100.278Z" fill="#2E353A"/>
<path d="M232.719 104.133C232.453 104.106 232.195 104.02 231.966 103.882C231.736 103.744 231.54 103.557 231.391 103.334C232.308 102.779 233.147 102.103 233.886 101.326L232.719 104.133Z" fill="#A02724"/>
<path d="M235.582 99.7288C235.535 99.4628 235.426 99.2115 235.265 98.9949C235.104 98.7783 234.894 98.6024 234.653 98.4812C234.626 98.4705 234.602 98.4547 234.581 98.4347C234.561 98.4147 234.544 98.3908 234.533 98.3644C234.51 98.3112 234.509 98.2511 234.531 98.1973C234.553 98.1436 234.594 98.1005 234.648 98.0777C234.701 98.0549 234.761 98.0542 234.815 98.0757C235.131 98.2227 235.405 98.4453 235.614 98.7239C235.823 99.0025 235.96 99.3284 236.013 99.6726C236.022 99.7288 236.009 99.7863 235.976 99.8329C235.943 99.8795 235.894 99.9115 235.838 99.9221H235.719C235.681 99.9053 235.648 99.8785 235.624 99.8444C235.6 99.8104 235.585 99.7704 235.582 99.7288Z" fill="#2E353A"/>
<path d="M244.396 117.052C244.64 118.131 244.802 118.643 243.835 119.11C241.84 120.157 239.561 120.536 237.335 120.19C235.033 119.797 234.621 118.973 234.715 118.318C234.795 118.065 234.932 117.833 235.116 117.642C235.3 117.45 235.525 117.304 235.775 117.214C236.286 116.993 236.721 116.625 237.024 116.158C237.327 115.691 237.485 115.145 237.478 114.588C237.572 113.996 237.56 113.391 237.441 112.804L241.558 110.078L244.677 106.616C243.9 110.042 243.804 113.588 244.396 117.052Z" fill="#B55B52"/>
<path d="M231.446 119.459C231.446 119.459 232.968 115.261 235.439 114.288C237.909 113.315 245.313 113.864 245.313 113.864C245.662 115.379 246.125 116.866 246.698 118.312L231.446 119.459Z" fill="#8E6E00"/>
<path d="M246.561 101.968C246.54 101.144 246.356 100.332 246.02 99.5796C245.683 98.827 245.201 98.1487 244.6 97.5837C244 97.0187 243.293 96.5783 242.522 96.288C241.75 95.9977 240.929 95.8632 240.105 95.8923C235.339 96.067 232.551 102.186 232.126 106.36C231.652 110.988 236.212 114.875 240.585 112.766C243.492 111.363 244.328 108.83 246.05 104.657C246.417 103.809 246.592 102.891 246.561 101.968Z" fill="#B55B52"/>
<path opacity="0.2" d="M245.8 115.692C246.062 116.578 246.361 117.451 246.698 118.312L232.606 119.372C232.955 118.54 233.392 117.747 233.91 117.008C237.316 115.629 243.267 115.623 245.8 115.692Z" fill="black"/>
<path d="M243.218 110.957C242.467 110.799 241.692 110.799 240.941 110.957C240.573 111.036 240.189 110.99 239.85 110.826C239.511 110.663 239.236 110.39 239.07 110.053L236.843 105.424C236.843 105.424 233.649 104.364 237.56 97.9821C237.56 97.9821 230.118 95.518 235.614 90.459C241.109 85.4 237.56 92.2431 237.56 92.2431C237.56 92.2431 244.509 88.5003 241.035 93.2412C241.035 93.2412 251.639 93.7776 249.026 99.5291C249.026 99.5291 253.392 99.6164 244.84 110.346C244.653 110.588 244.402 110.774 244.116 110.882C243.829 110.99 243.518 111.016 243.218 110.957Z" fill="#2D2D2D"/>
<path d="M238.514 102.443C237.316 102.268 236.019 103.472 235.607 104.545C235.139 105.792 235.75 107.165 237.011 106.828C237.983 106.548 238.82 105.923 239.362 105.069C240.036 104.002 239.712 102.617 238.514 102.443Z" fill="#B55B52"/>
<path d="M244.858 122.498C245.401 123.583 246.006 124.775 246.549 125.922C247.091 127.07 247.64 128.249 248.133 129.416C248.626 130.582 249.113 131.742 249.512 132.89C249.902 133.95 250.201 135.042 250.404 136.153C250.475 136.529 250.51 136.911 250.51 137.294C250.508 137.328 250.508 137.361 250.51 137.394L250.541 137.338C250.248 137.642 249.937 137.93 249.612 138.199C249.169 138.498 248.67 138.823 248.146 139.11C246.025 140.301 243.579 141.368 241.221 142.453L242.014 145.747C243.414 145.642 244.805 145.448 246.181 145.167C247.587 144.895 248.973 144.528 250.329 144.069C251.056 143.824 251.767 143.533 252.456 143.195C253.284 142.805 254.058 142.308 254.758 141.717C255.261 141.274 255.683 140.746 256.006 140.158C256.058 140.067 256.106 139.973 256.149 139.877L256.255 139.634C256.324 139.471 256.374 139.322 256.423 139.166C256.516 138.878 256.589 138.584 256.642 138.286C256.802 137.34 256.836 136.377 256.742 135.423C256.579 133.884 256.272 132.363 255.825 130.882C255.413 129.478 254.933 128.137 254.421 126.821C253.91 125.504 253.361 124.238 252.774 122.99C252.188 121.743 251.577 120.495 250.859 119.248L244.858 122.498Z" fill="#B55B52"/>
<path d="M242.756 142.584L237.684 141.28L237.266 145.84C237.266 145.84 240.685 147.25 242.793 145.042L242.756 142.584Z" fill="#B55B52"/>
<path d="M235.669 141.948L234.59 145.628L237.291 145.84L237.709 141.28L235.669 141.948Z" fill="#B55B52"/>
<path d="M255.625 127.868L246.986 132.154C246.986 132.154 246.53 132.035 243.112 126.571C239.151 120.214 241.322 116.64 246.1 116.465C250.984 116.284 252.737 122.329 255.625 127.868Z" fill="#8E6E00"/>
<path opacity="0.2" d="M252.936 129.197L248.8 131.249L246.698 128.767L249.031 122.535L249.68 121.824L251.302 121.587L252.936 129.197Z" fill="black"/>
<path d="M199.302 195.47L195.004 193.605L191.698 203.96L196.002 205.825L199.302 195.47Z" fill="#B55B52"/>
<path opacity="0.2" d="M199.301 195.47L195.003 193.605L193.356 198.783L197.698 200.486L199.301 195.47Z" fill="black"/>
<path d="M191.217 202.138C189.932 203.218 187.312 204.01 185.297 204.116C183.75 204.191 183.619 205.987 185.559 206.299C187.499 206.611 190.88 206.474 192.303 206.53C194.611 206.617 195.422 206.998 197.218 206.967C197.437 206.955 197.642 206.859 197.79 206.698C197.938 206.537 198.017 206.324 198.011 206.106L197.624 201.964C197.616 201.876 197.575 201.795 197.508 201.737C197.442 201.679 197.356 201.648 197.268 201.652L192.01 201.82C191.719 201.84 191.441 201.952 191.217 202.138Z" fill="#2D2D2D"/>
<path d="M238.57 152.746C238.57 152.746 242.175 157.025 239.268 163.8C235.981 171.479 218.546 168.104 209.026 170.549C207.667 184.111 199.757 197.996 199.757 197.996L193.138 195.401C193.138 195.401 196.008 184.603 198.16 165.459C199.214 156.046 223.112 155.01 223.112 155.01L238.57 152.746Z" fill="#2D2D2D"/>
<path d="M201.073 196.799L192.645 193.848L192.134 196.936L199.813 199.725L201.073 196.799Z" fill="#2D2D2D"/>
<path d="M219.656 199.905L215.015 199.68L215.776 210.634L220.417 210.859L219.656 199.905Z" fill="#B55B52"/>
<path d="M214.51 209.487C213.225 210.56 211.054 212.051 209.065 212.338C207.786 212.519 206.825 214.452 209.214 214.452C211.603 214.452 214.205 214.228 215.602 214.184C217.91 214.109 218.677 214.315 220.505 214.315C220.615 214.31 220.722 214.284 220.821 214.237C220.921 214.191 221.01 214.125 221.083 214.044C221.157 213.963 221.214 213.868 221.251 213.764C221.287 213.661 221.303 213.551 221.297 213.442L220.917 209.294C220.909 209.205 220.866 209.124 220.799 209.066C220.731 209.009 220.643 208.981 220.555 208.988L215.309 209.156C215.013 209.173 214.731 209.29 214.51 209.487Z" fill="#2D2D2D"/>
<path opacity="0.2" d="M220.08 205.944L215.458 205.95L215.015 199.687L219.656 199.911L220.08 205.944Z" fill="black"/>
<path d="M250.167 153.488C250.167 153.488 253.973 161.242 250.273 166.176C246.924 170.655 229.825 170.955 221.136 170.955C221.996 181.559 221.042 203.33 221.042 203.33L214.062 203.236C214.062 203.236 209.146 182.295 208.135 167.642C207.574 159.533 236.543 154.112 236.543 154.112L250.167 153.488Z" fill="#2D2D2D"/>
<path d="M221.989 201.889L212.432 201.608L212.844 204.465L221.627 204.59L221.989 201.889Z" fill="#2D2D2D"/>
<path d="M251.009 153.893L222.42 155.085L225.109 122.99C225.256 121.238 226.056 119.605 227.35 118.415C228.644 117.225 230.338 116.565 232.096 116.565H246.343C247.661 116.573 248.923 117.102 249.852 118.037C250.781 118.972 251.302 120.237 251.302 121.555L251.009 153.893Z" fill="#8E6E00"/>
<path d="M226.661 121.387L225.913 123.078C225.638 123.658 225.358 124.238 225.065 124.812C224.478 125.953 223.898 127.095 223.268 128.199C222.638 129.303 222.02 130.395 221.315 131.437C220.66 132.464 219.943 133.452 219.17 134.393C218.81 134.848 218.427 135.283 218.022 135.697C217.925 135.765 217.814 135.809 217.696 135.826C217.579 135.842 217.46 135.83 217.348 135.791C216.834 135.655 216.329 135.484 215.839 135.279C213.54 134.218 211.321 132.99 209.201 131.605L206.899 134.1C207.797 135.216 208.77 136.269 209.813 137.25C210.882 138.271 212.041 139.193 213.275 140.008C213.962 140.462 214.689 140.855 215.446 141.18C216.415 141.609 217.461 141.834 218.521 141.842C219.29 141.836 220.048 141.661 220.742 141.33C221.127 141.143 221.487 140.908 221.815 140.632L222.264 140.251C222.85 139.733 223.411 139.203 223.929 138.654C225.918 136.512 227.672 134.163 229.163 131.649C229.893 130.401 230.591 129.185 231.221 127.906C231.54 127.282 231.845 126.658 232.151 125.997C232.457 125.336 232.719 124.75 233.018 123.988L226.661 121.387Z" fill="#B55B52"/>
<path d="M209.912 132.759L207.654 128.031L203.911 130.644C203.911 130.644 205.028 134.169 208.072 134.387L209.912 132.759Z" fill="#B55B52"/>
<path d="M205.833 126.896L202.321 128.436L203.893 130.645L207.654 128.031L205.833 126.896Z" fill="#B55B52"/>
<path d="M229.725 133.595L221.653 128.318C221.653 128.318 221.522 127.856 224.503 122.154C227.972 115.517 232.151 115.573 234.721 119.597C237.36 123.726 233.031 128.299 229.725 133.595Z" fill="#8E6E00"/>
<path d="M264.589 214.284C264.655 214.249 264.714 214.201 264.762 214.142C264.809 214.084 264.845 214.017 264.866 213.945C264.888 213.874 264.895 213.798 264.887 213.723C264.879 213.649 264.856 213.576 264.82 213.511L242.775 172.963C242.739 172.898 242.691 172.84 242.632 172.793C242.574 172.746 242.507 172.711 242.435 172.69C242.363 172.669 242.288 172.663 242.213 172.671C242.139 172.68 242.067 172.702 242.001 172.739C241.935 172.773 241.877 172.821 241.829 172.879C241.782 172.936 241.746 173.003 241.725 173.074C241.703 173.145 241.696 173.22 241.704 173.295C241.712 173.369 241.735 173.441 241.771 173.506L263.822 214.053C263.857 214.119 263.904 214.178 263.962 214.225C264.019 214.273 264.086 214.308 264.157 214.33C264.229 214.351 264.304 214.358 264.378 214.35C264.452 214.342 264.524 214.32 264.589 214.284Z" fill="#8E6E00"/>
<g opacity="0.2">
<path d="M264.589 214.284C264.655 214.249 264.714 214.201 264.762 214.142C264.809 214.084 264.845 214.017 264.866 213.945C264.888 213.874 264.895 213.798 264.887 213.723C264.879 213.649 264.856 213.576 264.82 213.511L242.775 172.963C242.739 172.898 242.691 172.84 242.632 172.793C242.574 172.746 242.507 172.711 242.435 172.69C242.363 172.669 242.288 172.663 242.213 172.671C242.139 172.68 242.067 172.702 242.001 172.739C241.935 172.773 241.877 172.821 241.829 172.879C241.782 172.936 241.746 173.003 241.725 173.074C241.703 173.145 241.696 173.22 241.704 173.295C241.712 173.369 241.735 173.441 241.771 173.506L263.822 214.053C263.857 214.119 263.904 214.178 263.962 214.225C264.019 214.273 264.086 214.308 264.157 214.33C264.229 214.351 264.304 214.358 264.378 214.35C264.452 214.342 264.524 214.32 264.589 214.284Z" fill="black"/>
</g>
<path opacity="0.2" d="M253.922 195.888L251.982 192.307L252.631 191.109L254.571 194.69L253.922 195.888Z" fill="black"/>
<path d="M233.061 214.284C233.128 214.249 233.186 214.201 233.234 214.142C233.281 214.084 233.317 214.017 233.338 213.945C233.36 213.874 233.367 213.798 233.359 213.723C233.351 213.649 233.328 213.576 233.292 213.511L211.247 172.963C211.211 172.898 211.163 172.84 211.104 172.793C211.046 172.746 210.979 172.711 210.907 172.69C210.835 172.669 210.76 172.663 210.685 172.671C210.611 172.68 210.539 172.702 210.474 172.739C210.407 172.773 210.349 172.821 210.302 172.879C210.254 172.936 210.219 173.003 210.197 173.074C210.176 173.145 210.169 173.22 210.176 173.295C210.184 173.369 210.207 173.441 210.243 173.506L232.294 214.053C232.329 214.119 232.376 214.178 232.434 214.225C232.491 214.273 232.558 214.308 232.629 214.33C232.701 214.351 232.776 214.358 232.85 214.35C232.924 214.342 232.996 214.32 233.061 214.284Z" fill="#8E6E00"/>
<g opacity="0.2">
<path d="M233.061 214.284C233.128 214.249 233.186 214.201 233.234 214.142C233.281 214.084 233.317 214.017 233.338 213.945C233.36 213.874 233.367 213.798 233.359 213.723C233.351 213.649 233.328 213.576 233.292 213.511L211.247 172.963C211.211 172.898 211.163 172.84 211.104 172.793C211.046 172.746 210.979 172.711 210.907 172.69C210.835 172.669 210.76 172.663 210.685 172.671C210.611 172.68 210.539 172.702 210.474 172.739C210.407 172.773 210.349 172.821 210.302 172.879C210.254 172.936 210.219 173.003 210.197 173.074C210.176 173.145 210.169 173.22 210.176 173.295C210.184 173.369 210.207 173.441 210.243 173.506L232.294 214.053C232.329 214.119 232.376 214.178 232.434 214.225C232.491 214.273 232.558 214.308 232.629 214.33C232.701 214.351 232.776 214.358 232.85 214.35C232.924 214.342 232.996 214.32 233.061 214.284Z" fill="black"/>
</g>
<path opacity="0.2" d="M222.42 195.888L220.474 192.307L221.123 191.109L223.069 194.69L222.42 195.888Z" fill="black"/>
<path d="M211.247 214.066L233.292 173.518C233.328 173.453 233.351 173.381 233.358 173.307C233.366 173.233 233.359 173.158 233.338 173.086C233.316 173.015 233.281 172.948 233.233 172.891C233.186 172.833 233.127 172.786 233.061 172.751C232.996 172.715 232.925 172.692 232.851 172.684C232.777 172.676 232.702 172.682 232.631 172.703C232.559 172.724 232.493 172.759 232.435 172.805C232.377 172.852 232.329 172.91 232.294 172.976L210.243 213.523C210.207 213.589 210.184 213.661 210.176 213.736C210.168 213.81 210.175 213.886 210.197 213.958C210.218 214.03 210.254 214.097 210.301 214.155C210.349 214.213 210.407 214.261 210.473 214.296C210.539 214.332 210.612 214.355 210.686 214.363C210.761 214.371 210.836 214.364 210.908 214.342C210.98 214.321 211.047 214.285 211.105 214.238C211.163 214.19 211.212 214.132 211.247 214.066Z" fill="#8E6E00"/>
<g opacity="0.2">
<path d="M211.247 214.066L233.292 173.518C233.328 173.453 233.351 173.381 233.358 173.307C233.366 173.233 233.359 173.158 233.338 173.086C233.316 173.015 233.281 172.948 233.233 172.891C233.186 172.833 233.127 172.786 233.061 172.751C232.996 172.715 232.925 172.692 232.851 172.684C232.777 172.676 232.702 172.682 232.631 172.703C232.559 172.724 232.493 172.759 232.435 172.805C232.377 172.852 232.329 172.91 232.294 172.976L210.243 213.523C210.207 213.589 210.184 213.661 210.176 213.736C210.168 213.81 210.175 213.886 210.197 213.958C210.218 214.03 210.254 214.097 210.301 214.155C210.349 214.213 210.407 214.261 210.473 214.296C210.539 214.332 210.612 214.355 210.686 214.363C210.761 214.371 210.836 214.364 210.908 214.342C210.98 214.321 211.047 214.285 211.105 214.238C211.163 214.19 211.212 214.132 211.247 214.066Z" fill="black"/>
</g>
<path d="M242.756 214.066L264.801 173.518C264.837 173.453 264.859 173.381 264.867 173.307C264.875 173.233 264.868 173.158 264.846 173.086C264.825 173.015 264.789 172.948 264.742 172.891C264.695 172.833 264.636 172.786 264.57 172.751C264.505 172.715 264.434 172.692 264.36 172.684C264.286 172.676 264.211 172.682 264.139 172.703C264.068 172.724 264.002 172.759 263.944 172.805C263.886 172.852 263.838 172.91 263.803 172.976L241.751 213.523C241.715 213.589 241.693 213.661 241.685 213.736C241.677 213.81 241.684 213.886 241.705 213.958C241.727 214.03 241.762 214.097 241.81 214.155C241.857 214.213 241.916 214.261 241.982 214.296C242.048 214.332 242.12 214.355 242.195 214.363C242.27 214.371 242.345 214.364 242.417 214.342C242.489 214.321 242.556 214.285 242.614 214.238C242.672 214.19 242.72 214.132 242.756 214.066Z" fill="#8E6E00"/>
<g opacity="0.2">
<path d="M242.756 214.066L264.801 173.518C264.837 173.453 264.859 173.381 264.867 173.307C264.875 173.233 264.868 173.158 264.846 173.086C264.825 173.015 264.789 172.948 264.742 172.891C264.695 172.833 264.636 172.786 264.57 172.751C264.505 172.715 264.434 172.692 264.36 172.684C264.286 172.676 264.211 172.682 264.139 172.703C264.068 172.724 264.002 172.759 263.944 172.805C263.886 172.852 263.838 172.91 263.803 172.976L241.751 213.523C241.715 213.589 241.693 213.661 241.685 213.736C241.677 213.81 241.684 213.886 241.705 213.958C241.727 214.03 241.762 214.097 241.81 214.155C241.857 214.213 241.916 214.261 241.982 214.296C242.048 214.332 242.12 214.355 242.195 214.363C242.27 214.371 242.345 214.364 242.417 214.342C242.489 214.321 242.556 214.285 242.614 214.238C242.672 214.19 242.72 214.132 242.756 214.066Z" fill="black"/>
</g>
<path d="M238.09 170.911H212.514C211.735 170.911 210.987 171.22 210.436 171.771C209.885 172.322 209.576 173.07 209.576 173.849H238.121L238.09 170.911Z" fill="#8E6E00"/>
<path d="M256.262 133.302C265.263 133.302 271.67 140.008 271.233 148.94L270.204 168.472C270.127 169.924 269.496 171.291 268.441 172.291C267.386 173.292 265.987 173.849 264.533 173.849H228.353L235.838 148.94C238.49 140.008 247.26 133.302 256.262 133.302Z" fill="#8E6E00"/>
<path opacity="0.3" d="M256.262 133.302C265.263 133.302 271.67 140.008 271.233 148.94L270.204 168.472C270.127 169.924 269.496 171.291 268.441 172.291C267.386 173.292 265.987 173.849 264.533 173.849H228.353L235.838 148.94C238.49 140.008 247.26 133.302 256.262 133.302Z" fill="white"/>
<path d="M179.346 118.193C179.97 120.401 180.12 122.766 176.951 123.62C176.951 123.62 173.994 127.787 177.544 130.576C179.789 127.619 182.623 125.16 185.865 123.352C183.807 121.512 184.206 116.247 184.68 113.371L179.346 118.193Z" fill="#CE7A63"/>
<path d="M175.416 106.771C175.173 106.709 174.874 106.933 174.755 107.301C174.636 107.669 174.755 108.05 174.98 108.112C175.204 108.175 175.522 107.95 175.641 107.582C175.759 107.214 175.653 106.809 175.416 106.771Z" fill="#2E353A"/>
<path d="M174.711 106.26L175.515 106.802C174.941 107.108 174.711 106.26 174.711 106.26Z" fill="#2E353A"/>
<path d="M174.549 110.733C174.304 110.72 174.065 110.654 173.849 110.537C173.633 110.42 173.446 110.257 173.301 110.059C174.081 109.513 174.782 108.862 175.385 108.125L174.549 110.733Z" fill="#BA4D3C"/>
<path d="M176.29 104.326C176.527 104.489 176.722 104.707 176.858 104.961C176.994 105.215 177.066 105.498 177.07 105.786C177.069 105.815 177.074 105.844 177.084 105.871C177.095 105.899 177.111 105.923 177.131 105.944C177.152 105.965 177.176 105.982 177.203 105.993C177.23 106.005 177.259 106.01 177.288 106.01C177.346 106.01 177.403 105.988 177.445 105.947C177.487 105.906 177.511 105.851 177.513 105.792C177.517 105.425 177.431 105.062 177.262 104.736C177.094 104.41 176.848 104.13 176.546 103.921C176.497 103.885 176.437 103.87 176.378 103.878C176.318 103.886 176.264 103.917 176.228 103.964C176.209 103.999 176.199 104.037 176.199 104.077C176.199 104.116 176.209 104.154 176.228 104.189C176.228 104.215 176.234 104.24 176.244 104.264C176.255 104.288 176.271 104.309 176.29 104.326Z" fill="#2E353A"/>
<path d="M189.196 106.983C189.049 105.266 188.225 103.678 186.907 102.568C185.589 101.458 183.883 100.917 182.166 101.064C177.126 101.444 174.331 107.994 173.994 112.392C173.62 117.276 178.704 120.401 183.289 118.006C186.364 116.409 186.957 114.488 188.729 110.034C189.13 109.07 189.291 108.023 189.196 106.983Z" fill="#CE7A63"/>
<path d="M191.654 112.766C198.254 104.432 190.151 102.037 190.151 102.037C187.612 98.5121 183.42 97.7948 179.578 99.2669C175.735 100.739 176.883 103.309 178.28 103.565C175.66 107.027 177.163 108.749 178.024 108.998C176.671 117.707 185.055 121.119 191.654 112.766Z" fill="#2D2D2D"/>
<path d="M180.163 109.266C180.214 108.822 180.087 108.376 179.81 108.026C179.533 107.675 179.129 107.448 178.685 107.395C177.437 107.264 176.427 108.786 176.146 109.89C175.834 111.094 176.508 112.211 177.762 111.812C178.23 111.658 178.663 111.414 179.037 111.093C179.41 110.772 179.717 110.38 179.939 109.94C180.06 109.734 180.137 109.504 180.163 109.266Z" fill="#CE7A63"/>
<path d="M187.087 123.988C186.692 123.724 186.37 123.364 186.152 122.942C185.934 122.52 185.826 122.049 185.84 121.574C185.84 121.574 176.601 120.226 174.68 122.31C174.68 122.31 177.456 122.166 176.351 124.456L187.087 123.988Z" fill="#8E6E00"/>
<path opacity="0.6" d="M187.087 123.988C186.692 123.724 186.37 123.364 186.152 122.942C185.934 122.52 185.826 122.049 185.84 121.574C185.84 121.574 176.601 120.226 174.68 122.31C174.68 122.31 177.456 122.166 176.351 124.456L187.087 123.988Z" fill="white"/>
<path d="M177.524 151.198L177.468 153.581C180.365 153.933 183.284 154.074 186.201 154.005C187.742 153.985 189.277 153.82 190.786 153.513C191.233 153.413 191.67 153.279 192.096 153.113C192.36 153.014 192.614 152.893 192.857 152.752C193.202 152.563 193.513 152.321 193.781 152.034C193.974 151.822 194.137 151.585 194.267 151.329C194.341 151.177 194.405 151.021 194.461 150.861C194.497 150.693 194.524 150.522 194.542 150.35L194.623 149.801L194.791 148.709C195.116 145.802 195.284 142.945 195.415 140.082C195.546 137.219 195.615 134.368 195.602 131.492H190.73L190.593 139.957C190.524 142.777 190.468 145.572 190.325 148.354L190.262 149.271C190.087 149.356 189.906 149.429 189.72 149.489C188.462 149.847 187.18 150.112 185.883 150.281C183.139 150.699 180.313 150.943 177.524 151.198Z" fill="#CE7A63"/>
<path d="M186.539 129.952C186.539 132.896 188.31 138.41 188.31 138.41L195.621 133.913C195.946 130.139 195.166 125.286 191.542 124.107C189.109 123.308 186.564 126.814 186.539 129.952Z" fill="#2D2D2D"/>
<path opacity="0.6" d="M191.791 127.831L193.469 129.49L193.794 135.042L188.31 138.411C188.31 138.411 186.539 132.896 186.539 129.952C186.553 129.186 186.692 128.427 186.951 127.706L189.446 126.945L191.791 127.831Z" fill="black"/>
<path d="M170.806 152.527C170.755 152.413 170.728 152.289 170.725 152.164C170.723 152.039 170.745 151.914 170.792 151.798C170.838 151.681 170.908 151.575 170.996 151.486C171.084 151.397 171.189 151.327 171.305 151.279L173.376 150.4C173.821 150.215 174.314 150.18 174.78 150.3L179.303 151.548L179.858 153.07C179.153 154.823 176.165 154.492 176.165 154.492L174.013 155.147C173.743 155.231 173.454 155.232 173.184 155.149C172.913 155.067 172.674 154.905 172.497 154.685L170.931 152.745C170.88 152.679 170.838 152.605 170.806 152.527Z" fill="#CE7A63"/>
<path d="M174.1 124.032C175.042 123.876 176.021 123.726 176.982 123.608C179.926 123.309 182.889 123.22 185.846 123.339C187.299 123.37 188.728 123.477 189.982 123.608H190.082C190.62 123.679 191.14 123.856 191.61 124.128C192.08 124.4 192.492 124.763 192.823 125.194C193.153 125.626 193.395 126.118 193.535 126.644C193.674 127.169 193.709 127.716 193.637 128.255C191.866 140.899 191.092 146.283 191.61 153.513L172.035 154.105C169.771 142.328 168.822 135.298 168.523 131.162C168.397 129.492 168.899 127.835 169.93 126.517C170.962 125.198 172.449 124.311 174.1 124.032Z" fill="#2D2D2D"/>
<path d="M151.381 196.605L146.759 196.168L143.646 207.553L148.268 207.989L151.381 196.605Z" fill="#CE7A63"/>
<path d="M137.096 186.375L133.178 182.663L127.938 190.623L131.07 193.343L137.096 186.375Z" fill="#CE7A63"/>
<path d="M189.733 153.675C190.196 153.67 190.648 153.822 191.016 154.104C191.383 154.387 191.645 154.785 191.76 155.235C194.405 165.552 191.417 171.784 184.112 171.784C177.25 171.784 158.586 165.671 152.716 163.768C147.801 177.972 133.615 190.685 133.615 190.685L129.873 187.267C129.873 187.267 138.138 171.347 143.846 157.212C147.127 149.103 178.816 153.781 178.816 153.781C178.816 153.781 185.16 153.675 189.733 153.675Z" fill="#8E6E00"/>
<path opacity="0.6" d="M189.733 153.675C190.196 153.67 190.648 153.822 191.016 154.104C191.383 154.387 191.645 154.785 191.76 155.235C194.405 165.552 191.417 171.784 184.112 171.784C177.25 171.784 158.586 165.671 152.716 163.768C147.801 177.972 133.615 190.685 133.615 190.685L129.873 187.267C129.873 187.267 138.138 171.347 143.846 157.212C147.127 149.103 178.816 153.781 178.816 153.781C178.816 153.781 185.16 153.675 189.733 153.675Z" fill="white"/>
<path d="M184.972 153.513C192.408 163.338 191.834 171.759 184.136 171.759C177.275 171.759 168.753 172.158 159.484 171.572C157.444 186.481 149.678 203.854 149.678 203.854L144.556 203.373C144.556 203.373 149.228 181.578 149.59 166.332C149.809 157.118 175.821 157.923 175.821 157.923C175.821 157.923 180.406 153.556 184.972 153.513Z" fill="#8E6E00"/>
<path opacity="0.6" d="M184.972 153.513C192.408 163.338 191.834 171.759 184.136 171.759C177.275 171.759 168.753 172.158 159.484 171.572C157.444 186.481 149.678 203.854 149.678 203.854L144.556 203.373C144.556 203.373 149.228 181.578 149.59 166.332C149.809 157.118 175.821 157.923 175.821 157.923C175.821 157.923 180.406 153.556 184.972 153.513Z" fill="white"/>
<path d="M191.542 152.209L171.717 152.833C171.524 152.833 171.393 152.945 171.393 153.064L171.643 154.804C171.643 154.91 171.811 154.985 171.986 154.985L192.128 154.392C192.359 154.392 192.515 154.249 192.44 154.112L191.885 152.371C191.851 152.312 191.8 152.265 191.739 152.236C191.678 152.207 191.609 152.198 191.542 152.209Z" fill="#2D2D2D"/>
<path d="M155.854 144.518C157.754 145.743 159.744 146.825 161.805 147.755C162.882 148.25 163.993 148.666 165.129 149.003C165.801 149.202 166.494 149.321 167.194 149.358C167.724 149.389 168.255 149.321 168.76 149.159C169.189 149.012 169.58 148.774 169.908 148.46C170.008 148.364 170.099 148.259 170.182 148.148L170.307 147.974L170.394 147.843L170.513 147.63C171.737 145.501 172.595 143.182 173.052 140.769C173.289 139.621 173.464 138.461 173.576 137.294C173.626 136.67 173.669 136.128 173.7 135.541C173.732 134.955 173.738 134.4 173.7 133.745L168.847 133.813C168.847 134.237 168.816 134.793 168.791 135.292C168.766 135.791 168.729 136.315 168.679 136.826C168.585 137.849 168.461 138.866 168.305 139.883C168.137 140.867 167.918 141.841 167.65 142.802C167.43 143.579 167.153 144.338 166.82 145.073C166.544 145.068 166.268 145.04 165.997 144.992C164.999 144.817 164.011 144.586 163.04 144.299C161.012 143.719 158.935 143.052 156.889 142.353L155.854 144.518Z" fill="#CE7A63"/>
<path d="M176.358 129.927C177.811 132.166 174.43 137.924 174.43 137.924L168.336 137.238C168.336 137.238 167.088 129.571 170.07 126.421C171.673 124.73 174.842 127.594 176.358 129.927Z" fill="#2D2D2D"/>
<path d="M151.762 143.014C151.69 142.99 151.63 142.939 151.596 142.871C151.563 142.803 151.557 142.725 151.581 142.653L154.799 133.071C154.825 133 154.877 132.942 154.944 132.908C155.011 132.874 155.089 132.868 155.161 132.89C155.197 132.901 155.229 132.92 155.258 132.944C155.286 132.968 155.309 132.997 155.326 133.03C155.343 133.063 155.353 133.099 155.356 133.136C155.358 133.173 155.354 133.21 155.342 133.246L152.142 142.827C152.124 142.876 152.094 142.919 152.055 142.953C152.015 142.987 151.968 143.01 151.917 143.021C151.866 143.03 151.812 143.028 151.762 143.014Z" fill="#2E353A"/>
<path d="M152.734 137.606C152.602 137.595 152.469 137.61 152.342 137.65C152.216 137.691 152.098 137.756 151.997 137.841C151.896 137.927 151.812 138.032 151.751 138.15C151.69 138.268 151.653 138.397 151.642 138.529L151.368 141.187C151.348 141.387 151.387 141.588 151.482 141.766C151.576 141.944 151.721 142.089 151.898 142.185L154.138 143.364C154.138 143.364 157.974 146.982 159.621 146.071L158.436 143.488L156.115 139.49C155.856 139.033 155.452 138.675 154.967 138.473L153.046 137.681C152.946 137.641 152.841 137.615 152.734 137.606Z" fill="#CE7A63"/>
<path d="M127.876 188.864C126.317 188.739 124.052 187.548 122.636 186.312C121.551 185.352 120.303 186.456 121.389 187.941C122.474 189.425 124.832 191.527 125.755 192.501C127.24 194.06 127.514 194.827 128.749 196C128.899 196.142 129.098 196.218 129.304 196.214C129.509 196.209 129.705 196.123 129.847 195.975L132.293 192.956C132.345 192.892 132.371 192.81 132.364 192.727C132.357 192.644 132.318 192.567 132.255 192.513L128.6 189.169C128.398 188.992 128.144 188.885 127.876 188.864Z" fill="#8E6E00"/>
<path d="M143.259 207.266C142.161 208.383 140.289 209.967 138.462 210.423C137.289 210.71 136.59 212.593 138.799 212.375C141.007 212.157 143.39 211.701 144.7 211.527C146.839 211.246 147.575 211.365 149.272 211.196C149.373 211.182 149.47 211.149 149.557 211.097C149.645 211.046 149.721 210.977 149.782 210.896C149.843 210.815 149.887 210.722 149.912 210.624C149.937 210.526 149.942 210.423 149.927 210.323L149.185 206.511C149.168 206.431 149.122 206.36 149.054 206.312C148.987 206.265 148.905 206.244 148.823 206.256L143.964 206.879C143.691 206.923 143.442 207.06 143.259 207.266Z" fill="#8E6E00"/>
<path d="M204.286 214.383C204.351 214.347 204.409 214.299 204.456 214.24C204.503 214.182 204.538 214.115 204.559 214.043C204.58 213.971 204.586 213.896 204.578 213.821C204.57 213.747 204.547 213.675 204.51 213.61L182.465 173.062C182.392 172.931 182.269 172.834 182.124 172.792C181.98 172.75 181.824 172.766 181.692 172.838C181.559 172.91 181.46 173.032 181.417 173.177C181.374 173.322 181.39 173.478 181.461 173.611L203.512 214.159C203.586 214.29 203.708 214.387 203.853 214.429C203.998 214.471 204.153 214.455 204.286 214.383Z" fill="#8E6E00"/>
<g opacity="0.2">
<path d="M204.286 214.383C204.351 214.347 204.409 214.299 204.456 214.24C204.503 214.182 204.538 214.115 204.559 214.043C204.58 213.971 204.586 213.896 204.578 213.821C204.57 213.747 204.547 213.675 204.51 213.61L182.465 173.062C182.392 172.931 182.269 172.834 182.124 172.792C181.98 172.75 181.824 172.766 181.692 172.838C181.559 172.91 181.46 173.032 181.417 173.177C181.374 173.322 181.39 173.478 181.461 173.611L203.512 214.159C203.586 214.29 203.708 214.387 203.853 214.429C203.998 214.471 204.153 214.455 204.286 214.383Z" fill="black"/>
</g>
<path opacity="0.2" d="M193.637 195.988L191.691 192.407L192.34 191.209L194.286 194.79L193.637 195.988Z" fill="black"/>
<path d="M172.778 214.383C172.91 214.311 173.009 214.189 173.052 214.044C173.095 213.899 173.08 213.743 173.009 213.61L150.957 173.062C150.883 172.931 150.761 172.834 150.616 172.792C150.472 172.75 150.316 172.766 150.184 172.838C150.051 172.91 149.952 173.032 149.909 173.177C149.866 173.322 149.882 173.478 149.953 173.611L172.004 214.159C172.078 214.29 172.2 214.387 172.345 214.429C172.49 214.471 172.645 214.455 172.778 214.383Z" fill="#8E6E00"/>
<g opacity="0.2">
<path d="M172.778 214.383C172.91 214.311 173.009 214.189 173.052 214.044C173.095 213.899 173.08 213.743 173.009 213.61L150.957 173.062C150.883 172.931 150.761 172.834 150.616 172.792C150.472 172.75 150.316 172.766 150.184 172.838C150.051 172.91 149.952 173.032 149.909 173.177C149.866 173.322 149.882 173.478 149.953 173.611L172.004 214.159C172.078 214.29 172.2 214.387 172.345 214.429C172.49 214.471 172.645 214.455 172.778 214.383Z" fill="black"/>
</g>
<path opacity="0.2" d="M162.13 195.988L160.184 192.407L160.832 191.209L162.779 194.79L162.13 195.988Z" fill="black"/>
<path d="M150.957 214.159L173.009 173.611C173.08 173.478 173.095 173.322 173.052 173.177C173.009 173.032 172.91 172.91 172.778 172.838C172.645 172.766 172.49 172.75 172.345 172.792C172.2 172.834 172.078 172.931 172.004 173.062L149.953 213.61C149.882 213.743 149.866 213.899 149.909 214.044C149.952 214.189 150.051 214.311 150.184 214.383C150.316 214.455 150.472 214.471 150.616 214.429C150.761 214.387 150.883 214.29 150.957 214.159Z" fill="#8E6E00"/>
<g opacity="0.2">
<path d="M150.957 214.159L173.009 173.611C173.08 173.478 173.095 173.322 173.052 173.177C173.009 173.032 172.91 172.91 172.778 172.838C172.645 172.766 172.49 172.75 172.345 172.792C172.2 172.834 172.078 172.931 172.004 173.062L149.953 213.61C149.882 213.743 149.866 213.899 149.909 214.044C149.952 214.189 150.051 214.311 150.184 214.383C150.316 214.455 150.472 214.471 150.616 214.429C150.761 214.387 150.883 214.29 150.957 214.159Z" fill="black"/>
</g>
<path d="M182.465 214.159L204.51 173.611C204.547 173.546 204.57 173.474 204.578 173.4C204.586 173.325 204.58 173.25 204.559 173.178C204.538 173.106 204.503 173.039 204.456 172.981C204.409 172.922 204.351 172.874 204.286 172.838C204.153 172.766 203.998 172.75 203.853 172.792C203.708 172.834 203.586 172.931 203.512 173.062L181.461 213.61C181.39 213.743 181.374 213.899 181.417 214.044C181.46 214.189 181.559 214.311 181.692 214.383C181.824 214.455 181.98 214.471 182.124 214.429C182.269 214.387 182.392 214.29 182.465 214.159Z" fill="#8E6E00"/>
<g opacity="0.2">
<path d="M182.465 214.159L204.51 173.611C204.547 173.546 204.57 173.474 204.578 173.4C204.586 173.325 204.58 173.25 204.559 173.178C204.538 173.106 204.503 173.039 204.456 172.981C204.409 172.922 204.351 172.874 204.286 172.838C204.153 172.766 203.998 172.75 203.853 172.792C203.708 172.834 203.586 172.931 203.512 173.062L181.461 213.61C181.39 213.743 181.374 213.899 181.417 214.044C181.46 214.189 181.559 214.311 181.692 214.383C181.824 214.455 181.98 214.471 182.124 214.429C182.269 214.387 182.392 214.29 182.465 214.159Z" fill="black"/>
</g>
<path d="M177.8 171.023H152.224C151.837 171.022 151.455 171.098 151.097 171.245C150.74 171.392 150.416 171.608 150.142 171.881C149.869 172.154 149.652 172.478 149.504 172.835C149.356 173.192 149.279 173.575 149.279 173.961H177.825L177.8 171.023Z" fill="#8E6E00"/>
<path d="M195.97 133.401C204.972 133.401 211.378 140.107 210.91 149.04L209.881 168.577C209.804 170.029 209.173 171.395 208.118 172.395C207.063 173.394 205.664 173.95 204.211 173.948H168.03L175.516 149.04C178.198 140.107 186.975 133.401 195.97 133.401Z" fill="#8E6E00"/>
<path opacity="0.3" d="M195.97 133.401C204.972 133.401 211.378 140.107 210.91 149.04L209.881 168.577C209.804 170.029 209.173 171.395 208.118 172.395C207.063 173.394 205.664 173.95 204.211 173.948H168.03L175.516 149.04C178.198 140.107 186.975 133.401 195.97 133.401Z" fill="white"/>
</svg>
