<svg width="269" height="201" viewBox="0 0 269 201" fill="none" xmlns="http://www.w3.org/2000/svg">
<path d="M268.554 175.849H0V175.984H268.554V175.849Z" fill="#7D7D7D"/>
<path d="M241.645 184.491H223.856V184.626H241.645V184.491Z" fill="#7D7D7D"/>
<path d="M177.901 185.952H173.234V186.087H177.901V185.952Z" fill="#7D7D7D"/>
<path d="M223.319 179.507H213.012V179.641H223.319V179.507Z" fill="#7D7D7D"/>
<path d="M51.3745 180.409H28.1768V180.544H51.3745V180.409Z" fill="#7D7D7D"/>
<path d="M59.5601 180.409H56.1602V180.544H59.5601V180.409Z" fill="#7D7D7D"/>
<path d="M120.93 182.676H70.6138V182.81H120.93V182.676Z" fill="#7D7D7D"/>
<path d="M127.295 151.894H23.5845C22.772 151.893 21.9933 151.569 21.4193 150.994C20.8453 150.419 20.5229 149.64 20.5229 148.827V3.04003C20.53 2.23224 20.8555 1.45985 21.4288 0.890643C22.002 0.321437 22.7766 0.0013838 23.5845 0H127.295C128.108 0 128.888 0.323118 129.463 0.898271C130.039 1.47342 130.362 2.2535 130.362 3.06689V148.827C130.362 149.641 130.039 150.421 129.463 150.996C128.888 151.571 128.108 151.894 127.295 151.894ZM23.5845 0.107422C22.8076 0.108845 22.0631 0.418442 21.5143 0.96826C20.9655 1.51808 20.6572 2.26319 20.6572 3.04003V148.827C20.6572 149.604 20.9655 150.349 21.5143 150.899C22.0631 151.449 22.8076 151.759 23.5845 151.76H127.295C128.072 151.759 128.817 151.449 129.367 150.899C129.917 150.35 130.226 149.605 130.227 148.827V3.04003C130.226 2.26269 129.917 1.5176 129.367 0.967932C128.817 0.418268 128.072 0.108842 127.295 0.107422H23.5845Z" fill="#7D7D7D"/>
<path d="M243.477 151.894H139.761C138.948 151.893 138.169 151.569 137.594 150.994C137.019 150.42 136.696 149.64 136.694 148.827V3.04003C136.703 2.23175 137.029 1.45937 137.603 0.890307C138.177 0.321249 138.953 0.00136871 139.761 0H243.477C244.284 0.00279538 245.057 0.323473 245.629 0.892528C246.201 1.46158 246.526 2.23316 246.533 3.04003V148.827C246.533 149.639 246.211 150.417 245.638 150.992C245.065 151.567 244.288 151.891 243.477 151.894ZM139.761 0.107422C138.984 0.108842 138.239 0.418268 137.689 0.967932C137.139 1.5176 136.83 2.26269 136.828 3.04003V148.827C136.83 149.605 137.139 150.35 137.689 150.899C138.239 151.449 138.984 151.759 139.761 151.76H243.477C244.254 151.759 244.999 151.449 245.549 150.899C246.098 150.35 246.408 149.605 246.409 148.827V3.04003C246.408 2.26269 246.098 1.5176 245.549 0.967932C244.999 0.418268 244.254 0.108842 243.477 0.107422H139.761Z" fill="#7D7D7D"/>
<path d="M45.8691 98.1673H48.8931L48.8931 34.5199H45.8691L45.8691 98.1673Z" fill="white"/>
<path d="M105.161 34.5253H47.6147V98.1727H105.161V34.5253Z" fill="white"/>
<path d="M106.997 34.5253H47.3086V98.1727H106.997V34.5253Z" fill="#F0F0F0"/>
<path d="M104.473 36.5556H49.7417V95.2454H104.473V36.5556Z" fill="#A4A4A4"/>
<path d="M104.473 36.5556H102.888V95.2454H104.473V36.5556Z" fill="white"/>
<path d="M49.5967 78.7562V80.3407H103.055V78.7562H49.5967Z" fill="white"/>
<path d="M104.473 76.1029H48.8931V78.7616H104.473V76.1029Z" fill="#F0F0F0"/>
<path d="M147.012 174.856H226.187V74.5936L147.012 74.5936V174.856Z" fill="#F0F0F0"/>
<path d="M149.81 99.6819L223.389 99.6819V78.2406L149.81 78.2406V99.6819Z" fill="white"/>
<path d="M219.205 99.6819H223.383V81.7157H219.205V99.6819Z" fill="#7D7D7D"/>
<path d="M198.993 99.6819H203.172V81.7157H198.993V99.6819Z" fill="#7D7D7D"/>
<path d="M173.002 98.9712L177.12 99.681L180.172 81.9759L176.054 81.266L173.002 98.9712Z" fill="#7D7D7D"/>
<path d="M214.032 99.6819H218.211V84.0789H214.032V99.6819Z" fill="#7D7D7D"/>
<path d="M204.418 99.6819H208.597V84.0789H204.418V99.6819Z" fill="#7D7D7D"/>
<path d="M180.168 99.6819H184.346V84.0789H180.168V99.6819Z" fill="#7D7D7D"/>
<path d="M190.129 98.7747L194.208 99.6813L197.593 84.4499L193.514 83.5433L190.129 98.7747Z" fill="#7D7D7D"/>
<path d="M210.417 99.6819H212.507V80.8187H210.417V99.6819Z" fill="#7D7D7D"/>
<path d="M185.555 99.6819H187.644V80.8187H185.555V99.6819Z" fill="#7D7D7D"/>
<path d="M223.383 103.082H149.805V124.523H223.383V103.082Z" fill="white"/>
<path d="M153.984 106.552H149.805V124.518H153.984V106.552Z" fill="#7D7D7D"/>
<path d="M174.195 106.552H170.016V124.518H174.195V106.552Z" fill="#7D7D7D"/>
<path d="M197.142 106.097L193.024 106.807L196.076 124.512L200.194 123.802L197.142 106.097Z" fill="#7D7D7D"/>
<path d="M159.167 108.92H154.988V124.523H159.167V108.92Z" fill="#7D7D7D"/>
<path d="M168.77 108.92H164.592V124.523H168.77V108.92Z" fill="#7D7D7D"/>
<path d="M193.021 108.92H188.842V124.523H193.021V108.92Z" fill="#7D7D7D"/>
<path d="M179.692 108.377L175.613 109.283L178.998 124.515L183.077 123.608L179.692 108.377Z" fill="#7D7D7D"/>
<path d="M162.781 105.66H160.692V124.523H162.781V105.66Z" fill="#7D7D7D"/>
<path d="M187.639 105.66H185.55V124.523H187.639V105.66Z" fill="#7D7D7D"/>
<path d="M219.205 124.518H223.383V106.552H219.205V124.518Z" fill="#7D7D7D"/>
<path d="M214.032 124.518H218.211V108.915H214.032V124.518Z" fill="#7D7D7D"/>
<path d="M204.418 124.518H208.597V108.915H204.418V124.518Z" fill="#7D7D7D"/>
<path d="M210.417 124.518H212.507V105.655H210.417V124.518Z" fill="#7D7D7D"/>
<path d="M149.81 149.354H223.389V127.912L149.81 127.912V149.354Z" fill="white"/>
<path d="M176.972 149.354H181.151V131.387H176.972V149.354Z" fill="#7D7D7D"/>
<path d="M150.982 148.637L155.1 149.347L158.152 131.641L154.034 130.932L150.982 148.637Z" fill="#7D7D7D"/>
<path d="M192.011 149.354H196.19V133.751H192.011V149.354Z" fill="#7D7D7D"/>
<path d="M182.402 149.354H186.581V133.751H182.402V149.354Z" fill="#7D7D7D"/>
<path d="M158.146 149.354H162.325V133.751H158.146V149.354Z" fill="#7D7D7D"/>
<path d="M168.111 148.44L172.191 149.346L175.576 134.115L171.497 133.208L168.111 148.44Z" fill="#7D7D7D"/>
<path d="M188.396 149.354H190.486V130.491H188.396V149.354Z" fill="#7D7D7D"/>
<path d="M163.533 149.354H165.623V130.491H163.533V149.354Z" fill="#7D7D7D"/>
<path d="M199.071 148.638L203.188 149.348L206.24 131.642L202.122 130.933L199.071 148.638Z" fill="#7D7D7D"/>
<path d="M206.239 149.354H210.417V133.751H206.239V149.354Z" fill="#7D7D7D"/>
<path d="M216.2 148.438L220.279 149.344L223.664 134.113L219.585 133.207L216.2 148.438Z" fill="#7D7D7D"/>
<path d="M211.615 149.354H213.705V130.491H211.615V149.354Z" fill="#7D7D7D"/>
<path d="M94.746 113.212H48.791C47.6044 113.21 46.4291 113.441 45.3321 113.894C44.2352 114.346 43.2382 115.011 42.3982 115.849C41.5581 116.687 40.8915 117.682 40.4365 118.778C39.9814 119.874 39.7468 121.049 39.7461 122.235V158.125H103.775V122.235C103.775 121.05 103.541 119.876 103.087 118.781C102.634 117.686 101.968 116.691 101.13 115.853C100.292 115.015 99.2962 114.35 98.2008 113.897C97.1054 113.444 95.9314 113.211 94.746 113.212Z" fill="#E6E6E6"/>
<path d="M117.364 139.809H109.14C107.716 139.809 106.35 140.375 105.342 141.382C104.335 142.39 103.769 143.756 103.769 145.18V174.856H122.718V145.175C122.717 143.754 122.153 142.392 121.149 141.386C120.145 140.381 118.784 139.814 117.364 139.809Z" fill="white"/>
<path d="M117.364 139.809H117.186C115.762 139.809 114.396 140.375 113.388 141.382C112.381 142.39 111.815 143.756 111.815 145.18V174.856H122.713V145.175C122.712 143.755 122.148 142.394 121.146 141.388C120.143 140.383 118.783 139.815 117.364 139.809Z" fill="#7D7D7D"/>
<path d="M109.533 161.219H46.46V174.85H109.533V161.219Z" fill="#E6E6E6"/>
<path d="M109.619 148.752H48.791C45.7801 148.752 43.3394 151.193 43.3394 154.204V157.604C43.3394 160.615 45.7801 163.055 48.791 163.055H109.619C112.629 163.055 115.07 160.615 115.07 157.604V154.204C115.07 151.193 112.629 148.752 109.619 148.752Z" fill="#F5F5F5"/>
<path d="M56.4394 148.752H48.8931C45.8822 148.752 43.4414 151.193 43.4414 154.204V157.604C43.4414 160.615 45.8822 163.055 48.8931 163.055H56.4394C59.4503 163.055 61.8911 160.615 61.8911 157.604V154.204C61.8911 151.193 59.4503 148.752 56.4394 148.752Z" fill="white"/>
<path d="M48.0766 139.809H39.8535C38.429 139.809 37.0628 140.375 36.0556 141.382C35.0483 142.39 34.4824 143.756 34.4824 145.18V174.856H53.4424V145.175C53.4409 143.752 52.8752 142.388 51.8692 141.382C50.8632 140.377 49.4993 139.811 48.0766 139.809Z" fill="white"/>
<path d="M48.0767 139.809H47.9048C46.4803 139.809 45.1141 140.375 44.1068 141.382C43.0996 142.39 42.5337 143.756 42.5337 145.18V174.856H53.4424V145.175C53.4409 143.752 52.8752 142.388 51.8692 141.382C50.8633 140.377 49.4993 139.811 48.0767 139.809Z" fill="#F0F0F0"/>
<path d="M184.593 50.7729C190.633 50.7729 195.529 45.8768 195.529 39.8373C195.529 33.7978 190.633 28.9018 184.593 28.9018C178.554 28.9018 173.658 33.7978 173.658 39.8373C173.658 45.8768 178.554 50.7729 184.593 50.7729Z" fill="white"/>
<path d="M193.78 41.3305C194.603 36.2621 191.161 31.4864 186.093 30.6636C181.024 29.8409 176.248 33.2827 175.426 38.3512C174.603 43.4196 178.045 48.1954 183.113 49.0181C188.182 49.8408 192.957 46.399 193.78 41.3305Z" fill="#F0F0F0"/>
<path d="M184.158 33.4565V39.9555L179.851 37.517" fill="#F0F0F0"/>
<path d="M184.158 40.4228C184.077 40.4231 183.997 40.4007 183.927 40.3583L179.631 37.9252C179.53 37.8607 179.457 37.7599 179.429 37.6436C179.4 37.5272 179.417 37.4044 179.476 37.3003C179.536 37.1962 179.633 37.1188 179.747 37.0842C179.862 37.0495 179.986 37.0603 180.093 37.1142L183.702 39.1606V33.4565C183.714 33.3419 183.769 33.2359 183.854 33.1588C183.94 33.0818 184.051 33.0392 184.167 33.0392C184.282 33.0392 184.393 33.0818 184.479 33.1588C184.564 33.2359 184.619 33.3419 184.631 33.4565V39.9555C184.632 40.037 184.61 40.1173 184.57 40.188C184.529 40.2588 184.471 40.3175 184.4 40.3583C184.328 40.4027 184.244 40.4251 184.158 40.4228Z" fill="white"/>
<path d="M134.277 200.111C191.792 200.111 238.417 196.799 238.417 192.715C238.417 188.63 191.792 185.319 134.277 185.319C76.7623 185.319 30.1372 188.63 30.1372 192.715C30.1372 196.799 76.7623 200.111 134.277 200.111Z" fill="#F5F5F5"/>
<path d="M208.753 81.0067H194.251C192.93 81.0067 191.664 81.5313 190.73 82.465C189.796 83.3988 189.272 84.6652 189.272 85.9857V91.9906C189.272 93.3111 189.796 94.5775 190.73 95.5113C191.664 96.445 192.93 96.9696 194.251 96.9696H200.449L202.114 102.228L203.795 96.9696H208.726C210.046 96.9696 211.313 96.445 212.246 95.5113C213.18 94.5775 213.705 93.3111 213.705 91.9906V85.9857C213.705 84.6698 213.184 83.4075 212.256 82.4745C211.328 81.5415 210.068 81.0138 208.753 81.0067Z" fill="#9F7A00"/>
<path d="M195.873 88.6229C195.873 88.8216 195.814 89.0158 195.704 89.1809C195.593 89.3461 195.436 89.4748 195.253 89.5509C195.069 89.6269 194.867 89.6468 194.672 89.608C194.478 89.5693 194.299 89.4736 194.158 89.3331C194.018 89.1927 193.922 89.0137 193.883 88.8189C193.845 88.624 193.864 88.4221 193.94 88.2386C194.016 88.055 194.145 87.8982 194.31 87.7878C194.476 87.6774 194.67 87.6185 194.868 87.6185C195 87.6185 195.131 87.6445 195.253 87.695C195.375 87.7455 195.485 87.8194 195.579 87.9127C195.672 88.006 195.746 88.1167 195.796 88.2386C195.847 88.3604 195.873 88.491 195.873 88.6229ZM199.3 87.6185C199.101 87.6185 198.907 87.6774 198.742 87.7878C198.576 87.8982 198.448 88.055 198.372 88.2386C198.296 88.4221 198.276 88.624 198.314 88.8189C198.353 89.0137 198.449 89.1927 198.589 89.3331C198.73 89.4736 198.909 89.5693 199.104 89.608C199.298 89.6468 199.5 89.6269 199.684 89.5509C199.867 89.4748 200.024 89.3461 200.135 89.1809C200.245 89.0158 200.304 88.8216 200.304 88.6229C200.298 88.3603 200.19 88.1103 200.002 87.9266C199.815 87.7428 199.562 87.64 199.3 87.64V87.6185ZM203.731 87.6185C203.532 87.6185 203.338 87.6774 203.173 87.7878C203.008 87.8982 202.879 88.055 202.803 88.2386C202.727 88.4221 202.707 88.624 202.746 88.8189C202.784 89.0137 202.88 89.1927 203.02 89.3331C203.161 89.4736 203.34 89.5693 203.535 89.608C203.73 89.6468 203.932 89.6269 204.115 89.5509C204.299 89.4748 204.455 89.3461 204.566 89.1809C204.676 89.0158 204.735 88.8216 204.735 88.6229C204.729 88.3603 204.621 88.1103 204.433 87.9266C204.246 87.7428 203.993 87.64 203.731 87.64V87.6185ZM208.162 87.6185C207.963 87.6185 207.769 87.6774 207.604 87.7878C207.439 87.8982 207.31 88.055 207.234 88.2386C207.158 88.4221 207.138 88.624 207.177 88.8189C207.216 89.0137 207.311 89.1927 207.452 89.3331C207.592 89.4736 207.771 89.5693 207.966 89.608C208.161 89.6468 208.363 89.6269 208.546 89.5509C208.73 89.4748 208.887 89.3461 208.997 89.1809C209.107 89.0158 209.166 88.8216 209.166 88.6229C209.161 88.3603 209.052 88.1103 208.865 87.9266C208.677 87.7428 208.425 87.64 208.162 87.64V87.6185Z" fill="#A4A4A4"/>
<path d="M59.8877 98.7313H45.4126C44.7587 98.7313 44.1113 98.86 43.5072 99.1103C42.9031 99.3605 42.3542 99.7272 41.8919 100.19C41.4296 100.652 41.0628 101.201 40.8126 101.805C40.5624 102.409 40.4336 103.056 40.4336 103.71V109.715C40.4336 111.036 40.9582 112.302 41.8919 113.236C42.8256 114.17 44.0921 114.694 45.4126 114.694H51.6108L53.2759 119.947L54.957 114.694H59.8877C61.2082 114.694 62.4746 114.17 63.4083 113.236C64.3421 112.302 64.8667 111.036 64.8667 109.715V103.71C64.8667 103.056 64.7379 102.409 64.4877 101.805C64.2374 101.201 63.8707 100.652 63.4083 100.19C62.946 99.7272 62.3971 99.3605 61.793 99.1103C61.189 98.86 60.5415 98.7313 59.8877 98.7313Z" fill="#9F7A00"/>
<path d="M47.0078 106.347C47.0078 106.546 46.9489 106.74 46.8385 106.905C46.7282 107.071 46.5713 107.199 46.3878 107.275C46.2043 107.351 46.0023 107.371 45.8075 107.333C45.6126 107.294 45.4337 107.198 45.2932 107.058C45.1527 106.917 45.0571 106.738 45.0183 106.543C44.9796 106.349 44.9995 106.147 45.0755 105.963C45.1515 105.78 45.2802 105.623 45.4454 105.512C45.6106 105.402 45.8048 105.343 46.0034 105.343C46.2698 105.343 46.5253 105.449 46.7136 105.637C46.902 105.826 47.0078 106.081 47.0078 106.347ZM50.4346 105.343C50.2359 105.343 50.0417 105.402 49.8765 105.512C49.7114 105.623 49.5826 105.78 49.5066 105.963C49.4306 106.147 49.4107 106.349 49.4495 106.543C49.4882 106.738 49.5839 106.917 49.7243 107.058C49.8648 107.198 50.0438 107.294 50.2386 107.333C50.4334 107.371 50.6354 107.351 50.8189 107.275C51.0025 107.199 51.1593 107.071 51.2697 106.905C51.38 106.74 51.439 106.546 51.439 106.347C51.4347 106.084 51.3269 105.834 51.1388 105.65C50.9507 105.466 50.6977 105.363 50.4346 105.365V105.343ZM54.8657 105.343C54.6666 105.341 54.4714 105.398 54.3048 105.507C54.1382 105.616 54.0078 105.772 53.9301 105.956C53.8525 106.139 53.831 106.341 53.8686 106.537C53.9061 106.732 54.0009 106.912 54.1409 107.054C54.281 107.195 54.4599 107.292 54.655 107.332C54.8501 107.371 55.0526 107.352 55.2368 107.276C55.421 107.201 55.5785 107.072 55.6893 106.907C55.8002 106.741 55.8593 106.547 55.8594 106.347C55.8551 106.086 55.7488 105.837 55.563 105.653C55.3773 105.47 55.127 105.366 54.8657 105.365V105.343ZM59.2969 105.343C59.0982 105.343 58.904 105.402 58.7388 105.512C58.5737 105.623 58.4449 105.78 58.3689 105.963C58.2929 106.147 58.273 106.349 58.3118 106.543C58.3505 106.738 58.4462 106.917 58.5866 107.058C58.7271 107.198 58.9061 107.294 59.1009 107.333C59.2957 107.371 59.4977 107.351 59.6812 107.275C59.8647 107.199 60.0216 107.071 60.132 106.905C60.2423 106.74 60.3012 106.546 60.3012 106.347C60.297 106.084 60.1891 105.834 60.0011 105.65C59.813 105.466 59.56 105.363 59.2969 105.365V105.343Z" fill="#A4A4A4"/>
<path d="M221.826 193.466H153.656C140.921 193.466 140.105 178.47 150.573 171.413C152.487 170.14 154.605 169.206 156.836 168.652C177.563 163.2 206.685 126.553 227.197 141.888L227.256 141.931C247.688 157.373 233.406 193.466 221.826 193.466Z" fill="#263238"/>
<path opacity="0.5" d="M221.826 193.466H153.656C140.921 193.466 140.105 178.47 150.573 171.413C152.487 170.14 154.605 169.206 156.836 168.652C177.563 163.2 206.685 126.553 227.197 141.888L227.256 141.931C247.688 157.373 233.406 193.466 221.826 193.466Z" fill="#A4A4A4"/>
<path opacity="0.2" d="M227.143 141.861C225.424 141.748 223.34 142.232 221.095 144.112C215.268 148.999 224.13 172.53 210.192 182.316C202.415 187.778 168.861 190.185 157.663 183.487C149.397 178.54 149.289 175.43 150.573 171.413C152.487 170.14 154.605 169.206 156.836 168.652C177.536 163.174 206.658 126.527 227.143 141.861Z" fill="black"/>
<path d="M174.141 137.425L170.075 134.562L173.115 131.452C173.115 131.452 176.236 133.063 175.941 135.937L174.141 137.425Z" fill="#E4897B"/>
<path d="M168.48 131.404L171.3 129.631L173.115 131.452L170.075 134.562L168.48 131.404Z" fill="#E4897B"/>
<path d="M194.143 130.029C190.292 131.162 188.396 137.935 185.217 144.332L175.962 135.136L173.019 137.747C173.019 137.747 181.494 151.212 185.496 151.212C190.491 151.212 195.674 137.339 195.674 137.339L194.143 130.029Z" fill="#263238"/>
<path opacity="0.1" d="M195.674 137.339C195.674 137.339 194.852 139.535 193.526 142.173C192.263 144.74 190.545 147.732 188.692 149.542C187.644 150.557 186.543 151.201 185.469 151.201C181.468 151.201 172.992 137.736 172.992 137.736L175.935 135.126L185.19 144.321C188.369 137.924 190.26 131.151 194.122 130.018L195.674 137.339Z" fill="#A4A4A4"/>
<path opacity="0.2" d="M193.547 142.183C192.285 144.751 190.566 147.742 188.713 149.552C188.912 143.413 191.936 137.425 191.936 137.425C192.77 138.894 193.316 140.509 193.547 142.183Z" fill="black"/>
<path d="M190.459 167.444C190.459 167.444 157.776 162.749 156.046 169.92C154.225 177.504 180.469 182.617 196.152 183.154C211.836 183.691 216.337 179.931 213.818 160.595H192.333L190.459 167.444Z" fill="#9F7A00"/>
<path opacity="0.6" d="M190.459 167.444C190.459 167.444 157.776 162.749 156.046 169.92C154.225 177.504 180.469 182.617 196.152 183.154C211.836 183.691 216.337 179.931 213.818 160.595H192.333L190.459 167.444Z" fill="#A4A4A4"/>
<path d="M172.256 182.397L165.408 182.402L162.121 182.407L161.729 178.943L164.769 178.535L172.197 177.547L172.256 182.397Z" fill="#E4897B"/>
<path d="M162.47 178.508L163.302 182.461C163.314 182.513 163.315 182.567 163.305 182.619C163.296 182.671 163.275 182.721 163.246 182.766C163.216 182.81 163.178 182.847 163.133 182.876C163.088 182.905 163.038 182.925 162.986 182.934L161.014 183.288C161.014 183.288 158.399 183.954 157.663 183.487C155.514 182.112 153.452 173.422 154.327 172.777C154.644 172.541 155.198 172.901 155.477 173.185C156.358 174.082 158.232 176.59 158.979 177.332C159.843 178.202 161.385 178.229 162.062 178.191C162.156 178.187 162.25 178.216 162.324 178.274C162.399 178.332 162.451 178.415 162.47 178.508Z" fill="#263238"/>
<path opacity="0.2" d="M172.256 182.397L165.408 182.402L164.769 178.535L172.197 177.547L172.256 182.397Z" fill="black"/>
<path d="M182.268 176.284L188.767 178.449L191.887 179.486L191.162 182.891L188.149 182.316L180.791 180.909L182.268 176.284Z" fill="#E4897B"/>
<path d="M190.324 183.068L190.781 179.056C190.788 179.003 190.804 178.952 190.831 178.906C190.857 178.86 190.892 178.82 190.934 178.788C190.976 178.755 191.024 178.731 191.075 178.717C191.126 178.704 191.18 178.7 191.232 178.707L193.214 178.997C193.214 178.997 195.9 179.19 196.437 179.867C198.048 181.849 197.253 190.749 196.222 191.082C195.84 191.205 195.432 190.69 195.255 190.335C194.718 189.202 193.719 186.226 193.246 185.292C192.709 184.191 191.243 183.68 190.593 183.498C190.505 183.469 190.429 183.411 190.38 183.332C190.331 183.253 190.311 183.16 190.324 183.068Z" fill="#263238"/>
<path opacity="0.2" d="M182.268 176.284L188.767 178.449L188.149 182.316L180.791 180.909L182.268 176.284Z" fill="black"/>
<path d="M187.021 182.918L185.168 183.095L186.275 176.682L188.402 177.804L187.021 182.918Z" fill="#9F7A00"/>
<path opacity="0.6" d="M187.021 182.918L185.168 183.095L186.275 176.682L188.402 177.804L187.021 182.918Z" fill="#A4A4A4"/>
<path d="M193.225 185.243C193.273 185.534 193.23 185.832 193.101 186.097C193.049 186.177 192.977 186.241 192.892 186.283C192.807 186.326 192.713 186.345 192.618 186.339C192.561 186.341 192.504 186.329 192.453 186.303C192.402 186.276 192.359 186.237 192.328 186.189C192.049 185.716 192.704 184.26 192.784 184.099C192.789 184.081 192.801 184.066 192.817 184.056C192.833 184.046 192.852 184.042 192.87 184.046C192.891 184.047 192.91 184.056 192.926 184.069C192.941 184.083 192.952 184.101 192.956 184.121C193.084 184.485 193.174 184.861 193.225 185.243ZM192.451 185.942C192.455 185.989 192.47 186.035 192.494 186.076C192.504 186.096 192.521 186.113 192.541 186.124C192.561 186.134 192.585 186.138 192.607 186.135C192.672 186.143 192.738 186.131 192.797 186.103C192.856 186.074 192.906 186.03 192.94 185.974C193.097 185.463 193.068 184.913 192.86 184.422C192.633 184.9 192.495 185.414 192.451 185.942Z" fill="#9F7A00"/>
<path d="M192.972 184.132V184.174C192.795 184.642 191.99 185.566 191.533 185.501C191.458 185.488 191.39 185.45 191.339 185.394C191.289 185.337 191.259 185.265 191.254 185.19C191.233 185.114 191.229 185.035 191.242 184.958C191.255 184.881 191.285 184.808 191.329 184.744C191.662 184.207 192.817 184.035 192.881 184.04C192.899 184.037 192.917 184.039 192.934 184.047C192.95 184.055 192.964 184.067 192.972 184.083C192.977 184.099 192.977 184.116 192.972 184.132ZM191.426 185.114V185.157C191.458 185.292 191.512 185.297 191.538 185.308C191.807 185.345 192.425 184.744 192.693 184.282C192.235 184.338 191.808 184.543 191.479 184.867C191.433 184.941 191.413 185.028 191.42 185.114H191.426Z" fill="#9F7A00"/>
<path d="M166.031 178.035C166.031 178.035 196.437 166.219 205.75 168.195C215.064 170.172 215.107 175.044 210.385 179.588C205.664 184.131 198.612 182.381 198.612 182.381C198.612 182.381 204.155 179.061 203.768 177.009C203.382 174.958 199.858 179.647 199.858 179.647C199.858 179.647 181.484 184.142 166.31 182.955L166.031 178.035Z" fill="#9F7A00"/>
<path d="M159.188 177.396C159.012 177.162 158.914 176.878 158.909 176.585C158.917 176.491 158.951 176.4 159.005 176.323C159.06 176.246 159.134 176.184 159.22 176.145C159.271 176.117 159.327 176.102 159.384 176.102C159.442 176.102 159.498 176.117 159.548 176.145C160.01 176.44 160.085 178.035 160.085 178.218C160.087 178.236 160.083 178.255 160.074 178.27C160.064 178.286 160.049 178.298 160.032 178.304C160.015 178.315 159.995 178.321 159.975 178.321C159.955 178.321 159.935 178.315 159.919 178.304C159.644 178.028 159.399 177.723 159.188 177.396ZM159.553 176.419C159.526 176.38 159.492 176.347 159.451 176.322C159.433 176.309 159.412 176.302 159.39 176.302C159.368 176.302 159.346 176.309 159.328 176.322C159.266 176.344 159.212 176.384 159.172 176.437C159.132 176.489 159.108 176.552 159.102 176.617C159.198 177.143 159.478 177.617 159.892 177.955C159.871 177.427 159.756 176.907 159.553 176.419Z" fill="#9F7A00"/>
<path d="M159.919 178.266V178.218C159.865 177.724 160.15 176.531 160.59 176.376C160.663 176.353 160.741 176.355 160.812 176.383C160.883 176.41 160.943 176.46 160.982 176.526C161.083 176.645 161.133 176.8 161.122 176.956C161.068 177.584 160.123 178.266 160.048 178.298C160.032 178.309 160.015 178.314 159.996 178.314C159.978 178.314 159.961 178.309 159.945 178.298C159.934 178.29 159.925 178.279 159.919 178.266ZM160.842 176.682V176.644C160.756 176.542 160.703 176.564 160.676 176.569C160.418 176.655 160.139 177.471 160.139 178.008C160.402 177.788 160.912 177.326 160.944 176.934C160.95 176.847 160.927 176.761 160.88 176.687L160.842 176.682Z" fill="#9F7A00"/>
<path opacity="0.7" d="M166.031 178.035C166.031 178.035 196.437 166.219 205.75 168.195C215.064 170.172 215.107 175.044 210.385 179.588C205.664 184.131 198.612 182.381 198.612 182.381C198.612 182.381 204.155 179.061 203.768 177.009C203.382 174.958 199.858 179.647 199.858 179.647C199.858 179.647 181.484 184.142 166.31 182.955L166.031 178.035Z" fill="#A4A4A4"/>
<path d="M165.66 177.944L167.368 177.16L168.351 183.557L165.977 183.17L165.66 177.944Z" fill="#9F7A00"/>
<path opacity="0.6" d="M165.66 177.944L167.368 177.16L168.351 183.557L165.977 183.17L165.66 177.944Z" fill="#A4A4A4"/>
<path d="M215.977 131.054C212.695 149.316 213.887 161.133 213.887 161.133C213.887 161.133 198.617 160.923 192.344 160.569C188.998 138.434 194.143 130.023 194.143 130.023C195.784 129.694 197.443 129.467 199.112 129.341C199.461 129.314 199.821 129.298 200.186 129.282C203.145 129.28 206.102 129.447 209.043 129.782C209.58 129.841 210.165 129.916 210.713 129.996C213.511 130.421 215.977 131.054 215.977 131.054Z" fill="#263238"/>
<path opacity="0.1" d="M215.977 131.054C215.569 133.321 215.23 135.491 214.951 137.543C214.51 140.765 214.215 143.752 214.022 146.405C213.963 147.205 213.909 147.984 213.871 148.725C213.716 151.443 213.673 153.769 213.678 155.649C213.678 159.183 213.887 161.133 213.887 161.133C213.887 161.133 198.617 160.923 192.344 160.569C188.992 138.434 194.149 130.023 194.149 130.023C195.787 129.694 197.445 129.466 199.112 129.341C199.461 129.314 199.821 129.298 200.186 129.282C203.145 129.277 206.103 129.444 209.043 129.782C209.58 129.841 210.165 129.916 210.713 129.996C213.511 130.415 215.977 131.054 215.977 131.054Z" fill="#A4A4A4"/>
<path opacity="0.2" d="M202.34 151.212C206.253 150.747 210.113 149.917 213.871 148.731C213.716 151.448 213.673 153.774 213.678 155.654C206.389 156.325 203.414 154.924 203.414 154.924L202.34 151.212Z" fill="black"/>
<path opacity="0.2" d="M214.951 137.548C214.51 140.771 214.215 143.757 214.022 146.41C211.932 142.156 213.485 137.054 213.485 137.054L214.951 137.548Z" fill="black"/>
<path d="M203.167 158.71H192.059C191.843 158.707 191.637 158.623 191.48 158.475C191.323 158.327 191.227 158.125 191.211 157.91L189.664 143.166C189.653 143.067 189.664 142.967 189.694 142.873C189.725 142.778 189.776 142.691 189.843 142.617C189.91 142.544 189.992 142.485 190.083 142.446C190.174 142.406 190.273 142.386 190.373 142.387H201.48C201.692 142.392 201.894 142.473 202.05 142.617C202.205 142.76 202.302 142.956 202.323 143.166L203.876 157.91C203.89 158.011 203.882 158.113 203.852 158.21C203.823 158.307 203.773 158.397 203.705 158.473C203.638 158.549 203.555 158.61 203.462 158.651C203.369 158.692 203.268 158.712 203.167 158.71Z" fill="#263238"/>
<path opacity="0.6" d="M203.167 158.71H192.059C191.843 158.707 191.637 158.623 191.48 158.475C191.323 158.327 191.227 158.125 191.211 157.91L189.664 143.166C189.653 143.067 189.664 142.967 189.694 142.873C189.725 142.778 189.776 142.691 189.843 142.617C189.91 142.544 189.992 142.485 190.083 142.446C190.174 142.406 190.273 142.386 190.373 142.387H201.48C201.692 142.392 201.894 142.473 202.05 142.617C202.205 142.76 202.302 142.956 202.323 143.166L203.876 157.91C203.89 158.011 203.882 158.113 203.852 158.21C203.823 158.307 203.773 158.397 203.705 158.473C203.638 158.549 203.555 158.61 203.462 158.651C203.369 158.692 203.268 158.712 203.167 158.71Z" fill="#A4A4A4"/>
<path opacity="0.2" d="M202.705 158.71H192.059C191.843 158.707 191.637 158.623 191.48 158.475C191.323 158.327 191.227 158.125 191.211 157.91L189.664 143.166C189.653 143.067 189.664 142.967 189.694 142.873C189.725 142.778 189.776 142.691 189.843 142.617C189.91 142.544 189.992 142.485 190.083 142.446C190.174 142.406 190.273 142.386 190.373 142.387H201.018C201.23 142.392 201.432 142.473 201.588 142.617C201.743 142.76 201.84 142.956 201.861 143.166L203.414 157.91C203.428 158.011 203.42 158.113 203.39 158.21C203.361 158.307 203.311 158.397 203.243 158.473C203.176 158.549 203.093 158.61 203 158.651C202.907 158.692 202.806 158.712 202.705 158.71Z" fill="#A4A4A4"/>
<path d="M196.227 149.354C196.074 149.353 195.922 149.384 195.783 149.446C195.643 149.508 195.518 149.6 195.416 149.714C195.314 149.829 195.238 149.964 195.193 150.11C195.147 150.256 195.134 150.41 195.153 150.562C195.185 150.888 195.335 151.191 195.576 151.413C195.817 151.635 196.131 151.76 196.458 151.765C196.611 151.766 196.762 151.735 196.901 151.673C197.041 151.611 197.166 151.52 197.267 151.407C197.369 151.293 197.445 151.159 197.491 151.013C197.536 150.867 197.551 150.714 197.532 150.562C197.204 150.556 196.89 150.429 196.65 150.206C196.409 149.984 196.259 149.68 196.227 149.354Z" fill="#263238"/>
<path opacity="0.3" d="M198.634 143.58H192.763C192.619 143.578 192.478 143.536 192.356 143.458C192.235 143.38 192.138 143.27 192.075 143.139L191.726 142.409H199.471L199.267 143.139C199.227 143.274 199.143 143.391 199.028 143.471C198.912 143.551 198.773 143.589 198.634 143.58Z" fill="black"/>
<path d="M202.082 150.739L199.514 150.53L199.622 153.946L201.77 155.074L206.722 154.623L207.125 152.319C205.498 149.934 202.082 150.739 202.082 150.739Z" fill="#E4897B"/>
<path d="M215.977 131.054C218.614 131.849 222.352 147.168 221.756 150.551C221.16 153.935 214.656 155.385 206.389 155.197V151.201L215.977 148.403L214.365 142.495C214.365 142.495 213.033 138.15 213.63 135.11C213.957 133.541 214.78 132.12 215.977 131.054Z" fill="#263238"/>
<path opacity="0.1" d="M215.977 131.054C218.614 131.849 222.352 147.168 221.756 150.551C221.16 153.935 214.656 155.385 206.389 155.197V151.201L215.977 148.403L214.365 142.495C214.365 142.495 213.033 138.15 213.63 135.11C213.957 133.541 214.78 132.12 215.977 131.054Z" fill="#A4A4A4"/>
<path d="M207.764 129.61C206.427 131.006 204.327 132.177 200.959 132.053C198.376 131.951 198.016 130.329 198.467 129.438C200.035 129.115 200.744 128.433 200.964 127.563C201.185 126.693 200.879 125.522 200.427 124.437L204.783 120.769L205.519 120.146C205.519 120.355 205.492 120.575 205.482 120.806C205.431 121.658 205.431 122.512 205.482 123.363C205.627 125.764 206.196 128.369 207.764 129.61Z" fill="#E4897B"/>
<path opacity="0.2" d="M205.487 123.363C204.676 125.023 203.253 127.026 200.965 127.563C201.201 126.639 200.879 125.522 200.427 124.437L204.783 120.769C205.014 120.769 205.251 120.769 205.482 120.806C205.433 121.658 205.435 122.512 205.487 123.363Z" fill="black"/>
<path d="M195.507 113.475C194.868 114.936 194.788 118.073 197.011 117.294C199.235 116.515 196.582 110.967 195.507 113.475Z" fill="#263238"/>
<path d="M206.158 116.714C205.965 120.624 206.056 122.928 204.101 124.942C201.158 127.971 196.302 126.188 195.314 122.289C194.433 118.771 194.895 112.965 198.709 111.396C199.555 111.05 200.474 110.923 201.382 111.029C202.29 111.134 203.157 111.468 203.901 111.999C204.645 112.53 205.242 113.241 205.637 114.066C206.032 114.89 206.211 115.801 206.158 116.714Z" fill="#E4897B"/>
<path d="M200.229 117.82C200.229 118.137 200.068 118.4 199.858 118.4C199.649 118.4 199.477 118.142 199.471 117.82C199.466 117.498 199.638 117.245 199.842 117.245C200.046 117.245 200.223 117.503 200.229 117.82Z" fill="#263238"/>
<path d="M196.619 117.831C196.619 118.148 196.458 118.406 196.249 118.406C196.039 118.406 195.867 118.148 195.867 117.831C195.867 117.514 196.029 117.256 196.238 117.256C196.447 117.256 196.619 117.509 196.619 117.831Z" fill="#263238"/>
<path d="M197.769 117.987C197.389 118.93 196.879 119.816 196.254 120.618C196.476 120.764 196.726 120.862 196.987 120.906C197.249 120.949 197.517 120.937 197.774 120.871L197.769 117.987Z" fill="#DE5753"/>
<path d="M201.324 116.655C201.292 116.659 201.259 116.655 201.229 116.643C201.199 116.631 201.172 116.611 201.153 116.585C201.014 116.394 200.832 116.238 200.622 116.13C200.412 116.022 200.18 115.964 199.944 115.962C199.895 115.965 199.846 115.949 199.808 115.917C199.77 115.885 199.745 115.839 199.74 115.79C199.738 115.765 199.74 115.74 199.748 115.717C199.755 115.693 199.767 115.671 199.783 115.652C199.799 115.633 199.819 115.617 199.841 115.606C199.863 115.595 199.887 115.588 199.912 115.586C200.21 115.584 200.505 115.652 200.772 115.786C201.039 115.919 201.27 116.114 201.448 116.354C201.479 116.393 201.492 116.443 201.486 116.492C201.48 116.541 201.455 116.586 201.416 116.617C201.389 116.637 201.358 116.65 201.324 116.655Z" fill="#263238"/>
<path d="M195.051 116.595C195.016 116.606 194.979 116.606 194.944 116.595C194.921 116.585 194.901 116.569 194.885 116.551C194.869 116.532 194.856 116.511 194.848 116.487C194.84 116.464 194.837 116.439 194.839 116.414C194.84 116.389 194.847 116.365 194.858 116.343C194.977 116.07 195.16 115.829 195.392 115.642C195.624 115.455 195.898 115.327 196.19 115.269C196.214 115.266 196.239 115.268 196.263 115.275C196.287 115.281 196.31 115.293 196.329 115.308C196.349 115.324 196.365 115.343 196.377 115.365C196.389 115.387 196.397 115.411 196.399 115.435C196.403 115.459 196.402 115.484 196.396 115.507C196.39 115.531 196.38 115.553 196.365 115.573C196.351 115.592 196.333 115.609 196.312 115.621C196.291 115.633 196.268 115.642 196.243 115.645C196.013 115.688 195.797 115.788 195.614 115.935C195.431 116.082 195.288 116.272 195.196 116.488C195.182 116.516 195.162 116.541 195.136 116.559C195.111 116.578 195.082 116.59 195.051 116.595Z" fill="#263238"/>
<path d="M200.014 113.577C200.014 113.577 201.088 112.804 201.582 113.636C202.076 114.469 202.044 116.687 202.044 116.687L202.259 116.295C202.259 116.295 203.65 121.236 205.664 119.99C207.678 118.744 210.638 113.727 205.933 111.171C205.933 111.171 205.433 109.978 202.324 109.387C199.214 108.797 195.454 110.72 194.804 112.777C194.154 114.834 195.062 115.999 195.062 115.999C195.162 115.552 195.366 115.134 195.658 114.78C195.7 114.99 195.793 115.186 195.929 115.351C196.064 115.516 196.239 115.644 196.437 115.725C196.405 115.305 196.493 114.884 196.689 114.512C196.792 114.877 196.976 115.215 197.226 115.5C197.452 113.384 198.891 112.954 199.343 112.97C199.504 112.988 199.656 113.056 199.776 113.165C199.897 113.274 199.98 113.418 200.014 113.577Z" fill="#263238"/>
<path d="M207.711 119.952C207.567 120.418 207.332 120.85 207.021 121.224C206.709 121.598 206.327 121.907 205.895 122.133C204.735 122.729 203.886 121.746 203.983 120.522C204.069 119.41 204.773 117.761 206.046 117.68C206.324 117.668 206.601 117.724 206.853 117.845C207.104 117.965 207.322 118.146 207.487 118.37C207.651 118.595 207.758 118.857 207.797 119.133C207.836 119.409 207.806 119.691 207.711 119.952Z" fill="#E4897B"/>
<path d="M197.898 122.181C198.233 122.532 198.542 122.907 198.822 123.304L199.052 123.191C200.089 122.654 200.401 122.079 200.427 121.58C200.434 121.339 200.385 121.1 200.282 120.882C200.228 120.757 200.155 120.641 200.068 120.538C199.573 121.147 198.952 121.642 198.247 121.988C198.037 122.117 197.898 122.181 197.898 122.181Z" fill="#263238"/>
<path d="M198.247 121.999L198.531 122.321C199.504 121.827 200.143 121.343 200.282 120.892C200.228 120.768 200.155 120.652 200.068 120.549C199.573 121.158 198.952 121.653 198.247 121.999Z" fill="#A4A4A4"/>
<path d="M199.052 123.191C200.089 122.654 200.401 122.079 200.427 121.58C200.037 121.787 199.686 122.062 199.391 122.391C199.196 122.615 199.078 122.895 199.052 123.191Z" fill="#AE5444"/>
<path d="M104.419 134.911L104.699 137.892C104.699 137.892 122.144 140.545 124.937 143.263C127.73 145.981 137.64 188.965 137.64 188.965L133.643 189.503C133.643 189.503 119.775 157.813 119.034 153.226C119.034 153.226 106.82 153.683 98.4844 153.683C90.1484 153.683 89.1548 134.884 89.1548 134.884L104.419 134.911Z" fill="#9F7A00"/>
<path opacity="0.3" d="M137.64 188.971L133.643 189.508C133.643 189.508 127.972 176.548 123.691 166.004C121.268 160.058 119.297 154.881 119.034 153.226C119.034 153.226 110.58 153.538 102.921 153.645C101.374 153.645 99.8647 153.677 98.4629 153.677C90.127 153.677 89.1333 134.879 89.1333 134.879H104.398L104.677 137.86C104.677 137.86 122.128 140.508 124.915 143.231C127.703 145.954 137.64 188.971 137.64 188.971Z" fill="#A4A4A4"/>
<path d="M140.722 192.822C138.037 192.822 137.677 192.779 136.162 192.725C134.868 192.682 134.551 192.843 133.52 192.822C132.65 192.822 132.682 191.968 132.951 191.012C133.085 190.528 133.289 189.513 133.488 188.74L137.43 188.45C137.967 189.524 139.235 191.023 140.749 191.227C142.264 191.431 141.797 192.822 140.722 192.822Z" fill="#263238"/>
<path opacity="0.2" d="M123.691 166.026C121.268 160.08 119.297 154.902 119.034 153.248C119.034 153.248 110.58 153.559 102.921 153.667L102.094 139.063C102.094 139.063 112.879 140.61 120.13 146.856C121.048 147.63 122.837 159.591 123.691 166.026Z" fill="black"/>
<path d="M119.931 156.476H88.7195V154.558C88.7195 153.919 88.9736 153.305 89.4259 152.853C89.8781 152.401 90.4915 152.147 91.1311 152.147H117.519C118.159 152.147 118.772 152.401 119.225 152.853C119.677 153.305 119.931 153.919 119.931 154.558V156.476Z" fill="#263238"/>
<path opacity="0.2" d="M119.931 156.476H88.7195V154.558C88.7195 153.919 88.9736 153.305 89.4259 152.853C89.8781 152.401 90.4915 152.147 91.1311 152.147H117.519C118.159 152.147 118.772 152.401 119.225 152.853C119.677 153.305 119.931 153.919 119.931 154.558V156.476Z" fill="#A4A4A4"/>
<path d="M118.846 184.54L106.815 183.492V167.691H102.588V183.487L90.5137 184.561C90.0003 184.612 89.5242 184.852 89.1777 185.234C88.8313 185.616 88.6393 186.113 88.6392 186.629V188.24H120.726V186.629C120.731 186.109 120.541 185.605 120.193 185.219C119.845 184.832 119.364 184.589 118.846 184.54Z" fill="#263238"/>
<path d="M92.5278 190.201C92.5278 190.748 92.3656 191.283 92.0617 191.738C91.7577 192.192 91.3257 192.547 90.8203 192.756C90.3148 192.966 89.7586 193.02 89.2221 192.914C88.6855 192.807 88.1926 192.544 87.8058 192.157C87.4189 191.77 87.1555 191.277 87.0488 190.74C86.942 190.204 86.9968 189.648 87.2062 189.142C87.4155 188.637 87.7701 188.205 88.225 187.901C88.6798 187.597 89.2146 187.435 89.7617 187.435C90.4953 187.435 91.1989 187.726 91.7176 188.245C92.2364 188.764 92.5278 189.467 92.5278 190.201Z" fill="#263238"/>
<path d="M119.593 192.967C121.12 192.967 122.359 191.728 122.359 190.201C122.359 188.673 121.12 187.435 119.593 187.435C118.065 187.435 116.826 188.673 116.826 190.201C116.826 191.728 118.065 192.967 119.593 192.967Z" fill="#263238"/>
<path d="M101.857 155.445H107.545V168.921C107.545 169.449 107.335 169.956 106.962 170.33C106.588 170.703 106.081 170.913 105.552 170.913H103.855C103.327 170.913 102.82 170.703 102.446 170.33C102.072 169.956 101.863 169.449 101.863 168.921V155.445H101.857Z" fill="#263238"/>
<path opacity="0.2" d="M101.857 155.445H107.545V168.921C107.545 169.449 107.335 169.956 106.962 170.33C106.588 170.703 106.081 170.913 105.552 170.913H103.855C103.327 170.913 102.82 170.703 102.446 170.33C102.072 169.956 101.863 169.449 101.863 168.921V155.445H101.857Z" fill="#A4A4A4"/>
<path d="M88.4993 156.975H120.146C120.683 156.975 121.118 156.54 121.118 156.003V155.783C121.118 155.246 120.683 154.811 120.146 154.811H88.4993C87.9624 154.811 87.5272 155.246 87.5272 155.783V156.003C87.5272 156.54 87.9624 156.975 88.4993 156.975Z" fill="#263238"/>
<path opacity="0.2" d="M92.5278 190.201C92.5278 190.748 92.3656 191.283 92.0617 191.738C91.7577 192.192 91.3257 192.547 90.8203 192.756C90.3148 192.966 89.7586 193.02 89.2221 192.914C88.6855 192.807 88.1926 192.544 87.8058 192.157C87.4189 191.77 87.1555 191.277 87.0488 190.74C86.942 190.204 86.9968 189.648 87.2062 189.142C87.4155 188.637 87.7701 188.205 88.225 187.901C88.6798 187.597 89.2146 187.435 89.7617 187.435C90.4953 187.435 91.1989 187.726 91.7176 188.245C92.2364 188.764 92.5278 189.467 92.5278 190.201Z" fill="#A4A4A4"/>
<path opacity="0.2" d="M119.593 192.967C121.12 192.967 122.359 191.728 122.359 190.201C122.359 188.673 121.12 187.435 119.593 187.435C118.065 187.435 116.826 188.673 116.826 190.201C116.826 191.728 118.065 192.967 119.593 192.967Z" fill="#A4A4A4"/>
<path d="M122.584 129.905H112.943C110.118 129.905 108.077 127.365 108.389 124.239L108.797 120.06C109.108 116.929 111.643 114.388 114.469 114.388H124.11C126.935 114.388 128.976 116.929 128.67 120.06L128.256 124.239C127.95 127.365 125.41 129.905 122.584 129.905Z" fill="#263238"/>
<path opacity="0.2" d="M122.584 129.905H112.943C110.118 129.905 108.077 127.365 108.389 124.239L108.797 120.06C109.108 116.929 111.643 114.388 114.469 114.388H124.11C126.935 114.388 128.976 116.929 128.67 120.06L128.256 124.239C127.95 127.365 125.41 129.905 122.584 129.905Z" fill="#A4A4A4"/>
<path d="M121.698 127.869H116.015C114.345 127.869 113.137 126.371 113.33 124.518L113.577 122.052C113.754 120.199 115.258 118.701 116.929 118.701H122.622C124.292 118.701 125.501 120.199 125.307 122.052L125.06 124.518C124.867 126.371 123.368 127.869 121.698 127.869Z" fill="#263238"/>
<path d="M117.176 124.185C117.176 124.185 115.876 150.315 110.247 154.8H116.268C116.268 154.8 121.639 145.9 122.031 124.185H117.176Z" fill="#263238"/>
<path d="M122.02 113.298L123.057 112.761C123.252 112.661 123.467 112.609 123.685 112.609C123.904 112.609 124.119 112.661 124.314 112.761L126.172 113.674C126.538 113.854 126.856 114.119 127.098 114.447C127.34 114.775 127.499 115.156 127.563 115.559L127.649 116.069C125.99 117.111 123.433 117.014 123.433 117.014L122.697 117.074C122.547 117.089 122.395 117.075 122.251 117.031C122.107 116.987 121.972 116.916 121.856 116.82C121.739 116.724 121.643 116.606 121.573 116.472C121.502 116.339 121.459 116.193 121.446 116.042L121.317 114.592C121.292 114.331 121.346 114.068 121.471 113.838C121.597 113.607 121.788 113.419 122.02 113.298Z" fill="#E49A81"/>
<path opacity="0.2" d="M122.02 113.298L123.057 112.761C123.252 112.661 123.467 112.609 123.685 112.609C123.904 112.609 124.119 112.661 124.314 112.761L126.172 113.674C126.538 113.854 126.856 114.119 127.098 114.447C127.34 114.775 127.499 115.156 127.563 115.559L127.649 116.069C125.99 117.111 123.433 117.014 123.433 117.014L122.697 117.074C122.547 117.089 122.395 117.075 122.251 117.031C122.107 116.987 121.972 116.916 121.856 116.82C121.739 116.724 121.643 116.606 121.573 116.472C121.502 116.339 121.459 116.193 121.446 116.042L121.317 114.592C121.292 114.331 121.346 114.068 121.471 113.838C121.597 113.607 121.788 113.419 122.02 113.298Z" fill="black"/>
<path d="M114.404 114.576L110.644 119.329H107.067L107.534 112.696C110.241 113.217 114.404 114.576 114.404 114.576Z" fill="#9F7A00"/>
<path opacity="0.2" d="M110.327 119.329H107.234L109.156 114.576C109.156 114.576 110.258 116.246 110.327 119.329Z" fill="black"/>
<path d="M104.65 136.705L88.9077 135.244C89.4019 133.568 89.8369 131.925 90.2021 130.34C90.6641 128.401 91.0293 126.543 91.3193 124.808C91.6094 123.073 91.8564 121.462 92.0283 120.001L92.0767 119.587C92.0767 119.356 92.1304 119.131 92.1519 118.916C92.3076 117.503 92.4043 116.273 92.4687 115.258C92.603 113.276 92.603 112.132 92.603 112.132C97.9968 111.099 103.563 111.43 108.797 113.094C111.139 119.689 104.65 136.705 104.65 136.705Z" fill="#9F7A00"/>
<path d="M104.596 114.146C104.357 114.642 103.992 115.065 103.537 115.374C103.081 115.683 102.553 115.866 102.004 115.906C101.455 115.945 100.906 115.839 100.412 115.598C99.917 115.357 99.4949 114.989 99.1877 114.533L98.5056 113.518L97.6677 112.256C99.0749 111.423 99.6282 108.759 99.8162 106.471C99.8752 105.751 99.8967 105.075 99.8967 104.5L103.431 109.334C103.184 109.846 103.003 110.387 102.894 110.945C102.849 111.175 102.831 111.409 102.84 111.643C102.845 112.583 103.313 113.453 104.596 114.146Z" fill="#E49A81"/>
<path opacity="0.2" d="M103.42 109.361C103.173 109.873 102.992 110.414 102.883 110.972C101.954 112.164 100.509 113.427 98.5164 113.507L97.6677 112.256C99.0749 111.423 99.6282 108.759 99.8162 106.471C99.8752 105.751 99.8967 105.075 99.8967 104.5L103.42 109.361Z" fill="black"/>
<path d="M94.9285 101.288C94.9285 101.288 93.1829 100.633 93.6985 99.4241C94.2142 98.2156 94.8372 98.2264 94.8372 98.2264C94.5734 97.7323 94.43 97.1828 94.4188 96.6228C94.4076 96.0628 94.5289 95.508 94.7727 95.0037C95.6375 93.3924 97.5496 94.0477 97.5496 94.0477C97.5572 93.5415 97.7368 93.053 98.059 92.6625C98.3811 92.2721 98.8266 92.0029 99.3221 91.8992C99.8278 91.8156 100.347 91.8993 100.801 92.1378C101.254 92.3763 101.618 92.7565 101.836 93.2205C101.836 93.2205 103.039 91.6575 104.801 92.0872C106.562 92.5169 106.917 94.9715 106.917 94.9715C107.398 94.8146 107.921 94.8493 108.377 95.0684C108.834 95.2875 109.188 95.6741 109.366 96.1478C109.606 96.6422 109.706 97.1925 109.655 97.7396C109.605 98.2867 109.407 98.8097 109.081 99.2523C109.081 99.2523 110.204 98.7152 110.574 100.525C110.945 102.335 109.054 103.925 109.054 103.925C109.054 103.925 110.075 104.049 109.549 105.386C109.022 106.723 107.363 106.745 107.363 106.745C107.363 106.745 108.007 107.073 106.788 108.174C105.569 109.275 101.642 107.701 101.642 107.701L94.9285 101.288Z" fill="#263238"/>
<path d="M99.7304 98.4197C95.9706 98.6131 94.8964 100.686 94.8051 104.57C94.7138 109.404 95.9653 112.793 100.601 111.514C106.885 109.78 105.961 98.0921 99.7304 98.4197Z" fill="#E49A81"/>
<path d="M97.2168 104.231C96.9461 104.807 96.607 105.348 96.207 105.843C96.3256 105.992 96.4829 106.106 96.6619 106.173C96.841 106.239 97.0348 106.255 97.2222 106.219L97.2168 104.231Z" fill="#AE5444"/>
<path d="M99.4993 103.802C99.4993 104.113 99.6819 104.339 99.886 104.339C100.09 104.339 100.251 104.081 100.246 103.769C100.241 103.458 100.063 103.232 99.8538 103.232C99.6443 103.232 99.4886 103.495 99.4993 103.802Z" fill="#263238"/>
<path d="M99.9397 103.248L99.2629 103.001C99.2629 103.001 99.6121 103.56 99.9397 103.248Z" fill="#263238"/>
<path d="M95.6591 103.85C95.6591 104.161 95.8417 104.387 96.0512 104.387C96.2606 104.387 96.4164 104.129 96.4056 103.818C96.3949 103.506 96.223 103.281 96.0189 103.281C95.8148 103.281 95.6537 103.544 95.6591 103.85Z" fill="#263238"/>
<path d="M96.105 103.291L95.4229 103.05C95.4229 103.05 95.7773 103.603 96.105 103.291Z" fill="#263238"/>
<path d="M101.057 101.852C101.035 101.852 101.012 101.848 100.992 101.838C100.971 101.829 100.953 101.815 100.939 101.798C100.736 101.617 100.495 101.485 100.234 101.41C99.9721 101.336 99.6973 101.321 99.4296 101.368C99.4088 101.372 99.3874 101.372 99.3667 101.368C99.346 101.363 99.3263 101.355 99.3089 101.343C99.2914 101.331 99.2765 101.316 99.265 101.298C99.2534 101.28 99.2455 101.26 99.2416 101.24C99.2353 101.198 99.2452 101.156 99.2692 101.122C99.2933 101.088 99.3296 101.065 99.3705 101.057C99.6924 100.998 100.024 101.016 100.337 101.109C100.651 101.203 100.938 101.369 101.175 101.594C101.205 101.624 101.221 101.665 101.221 101.707C101.221 101.749 101.205 101.79 101.175 101.82C101.141 101.845 101.099 101.857 101.057 101.852Z" fill="#263238"/>
<path d="M95.1865 101.739C95.1621 101.739 95.1379 101.734 95.1157 101.723C95.0935 101.713 95.0737 101.698 95.0576 101.68C95.032 101.646 95.021 101.603 95.027 101.561C95.0331 101.518 95.0557 101.48 95.0898 101.454C95.3103 101.269 95.5696 101.136 95.8485 101.064C96.1274 100.993 96.4188 100.985 96.7012 101.041C96.7218 101.047 96.7409 101.057 96.7576 101.071C96.7742 101.084 96.7879 101.101 96.7979 101.12C96.8079 101.139 96.814 101.16 96.8158 101.182C96.8177 101.203 96.8152 101.224 96.8086 101.245C96.7951 101.284 96.7668 101.317 96.7298 101.336C96.6927 101.355 96.6497 101.359 96.6099 101.347C96.3738 101.304 96.1312 101.315 95.8999 101.378C95.6685 101.442 95.4541 101.556 95.2725 101.712C95.2468 101.729 95.2171 101.738 95.1865 101.739Z" fill="#263238"/>
<path d="M104.162 104.527C104.162 104.527 102.244 101.535 102.389 99.1556C102.389 99.1556 94.7944 96.5076 94.8213 104.07C94.8213 104.07 93.7471 97.41 100.192 96.9212C106.638 96.4324 107.1 105.869 103.915 108.856C103.909 108.845 105.349 106.396 104.162 104.527Z" fill="#263238"/>
<path d="M103.592 105.354C103.597 105.137 103.645 104.923 103.732 104.724C103.82 104.526 103.946 104.346 104.103 104.197C104.261 104.047 104.446 103.93 104.648 103.852C104.851 103.774 105.067 103.737 105.284 103.742C106.455 103.812 107.132 106.17 104.269 106.895C103.861 107.008 103.603 106.616 103.592 105.354Z" fill="#E49A81"/>
<path d="M98.1243 108.405C98.017 108.412 97.9093 108.412 97.8021 108.405C97.7812 108.401 97.7614 108.393 97.7437 108.381C97.7259 108.37 97.7106 108.355 97.6987 108.337C97.6867 108.32 97.6783 108.3 97.6739 108.28C97.6695 108.259 97.6693 108.237 97.6732 108.217C97.6764 108.196 97.6837 108.176 97.6947 108.159C97.7057 108.141 97.7202 108.126 97.7372 108.114C97.7542 108.102 97.7735 108.093 97.7939 108.089C97.8142 108.084 97.8353 108.084 97.8558 108.088C98.2603 108.159 98.6771 108.092 99.0386 107.897C99.4002 107.702 99.6855 107.391 99.8484 107.014C99.8562 106.994 99.8678 106.976 99.8825 106.96C99.8972 106.945 99.9148 106.933 99.9343 106.924C99.9537 106.916 99.9746 106.911 99.9959 106.911C100.017 106.911 100.038 106.914 100.058 106.922C100.078 106.93 100.096 106.942 100.111 106.956C100.126 106.971 100.138 106.989 100.147 107.008C100.155 107.027 100.16 107.048 100.16 107.07C100.161 107.091 100.157 107.112 100.149 107.132C99.9845 107.527 99.7014 107.862 99.3388 108.09C98.9763 108.318 98.552 108.428 98.1243 108.405Z" fill="#263238"/>
<path d="M105.542 103.157C104.645 98.5003 97.7593 94.5902 95.1758 100.004C95.6089 98.6473 96.4467 97.4554 97.5767 96.5882C97.5767 96.5882 104.559 94.5955 105.789 102.55L105.542 103.157Z" fill="#9F7A00"/>
<path d="M101.873 192.822C99.1878 192.822 98.8279 192.779 97.3133 192.725C96.0189 192.682 95.702 192.843 94.6707 192.822C93.8006 192.822 93.8328 191.968 94.1014 191.012C94.2357 190.528 94.4398 189.513 94.6385 188.74L98.5809 188.45C99.118 189.524 100.386 191.023 101.9 191.227C103.415 191.431 102.942 192.822 101.873 192.822Z" fill="#263238"/>
<path d="M89.16 134.911C89.16 134.911 83.789 142.898 86.7001 149.461C89.6112 156.025 104.333 153.06 104.333 153.06L94.6332 188.756L99.2738 189.524C99.2738 189.524 115.725 154.145 116.144 148.113C116.563 142.081 98.8011 138.209 98.8011 138.209L89.16 134.911Z" fill="#9F7A00"/>
<path opacity="0.3" d="M89.16 134.911C89.16 134.911 83.789 142.898 86.7001 149.461C89.6112 156.025 104.333 153.06 104.333 153.06L94.6332 188.756L99.2738 189.524C99.2738 189.524 115.725 154.145 116.144 148.113C116.563 142.081 98.8011 138.209 98.8011 138.209L89.16 134.911Z" fill="#A4A4A4"/>
<path opacity="0.2" d="M105.542 116.552C105.542 116.552 98.0225 121.848 92.0767 119.571C92.0767 119.34 92.1304 119.114 92.1519 118.9C92.3076 117.487 92.4043 116.257 92.4688 115.242C94.3957 114.362 96.396 113.652 98.4468 113.12C100.558 114.729 102.971 115.896 105.542 116.552Z" fill="black"/>
<path d="M95.0684 112.143C98.3769 113.754 101.793 115.758 105.397 116.493C107.47 116.359 109.79 115.516 111.874 114.947L118.121 113.056C118.389 112.972 118.678 112.99 118.933 113.108C119.187 113.225 119.389 113.434 119.498 113.692C119.608 113.95 119.617 114.24 119.524 114.505C119.431 114.77 119.243 114.99 118.997 115.124C117.047 116.198 115.081 117.186 113.045 118.089C110.532 119.12 108.211 120.323 105.375 120.581C104.358 120.569 103.346 120.421 102.368 120.14C99.0657 119.172 95.8865 117.825 92.8931 116.128C92.4168 115.817 92.0748 115.338 91.9348 114.786C91.7948 114.234 91.867 113.65 92.1371 113.149C92.4072 112.648 92.8555 112.266 93.3933 112.08C93.9312 111.894 94.5194 111.916 95.0415 112.143H95.0684Z" fill="#B97864"/>
<path d="M93.2903 111.547C90.3953 112.234 90.2987 117.202 92.9573 119.533L99.4026 114.093C99.4026 114.093 96.7225 110.73 93.2903 111.547Z" fill="#9F7A00"/>
<path d="M118.287 113.083L121.859 112.997L120.248 116.612C120.248 116.612 117.025 116.499 117.181 114.855L118.287 113.083Z" fill="#E49A81"/>
<path d="M124.926 114.764L122.477 117.401L120.237 116.612L121.859 112.997L124.926 114.764Z" fill="#E49A81"/>
<path d="M172.885 156.573C175.382 161.739 177.788 166.906 179.416 172.439C180.162 176.198 180.302 180.023 180.581 183.756C180.775 186.844 180.887 189.927 180.93 193.026L178.164 193.316C177.289 188.96 176.467 184.099 175.704 179.706C175.339 177.718 175.06 175.763 174.56 173.851C172.659 168.926 170.022 163.856 167.836 159.011L172.885 156.573Z" fill="#DC897C"/>
<path d="M177.009 163.335L172.632 165.429L169.914 166.745L168.265 162.781L166.541 158.63L167.997 151.062C172.466 153.017 177.009 163.335 177.009 163.335Z" fill="#9F7A00"/>
<path opacity="0.2" d="M172.632 165.429L169.914 166.745L168.265 162.781C168.604 160.536 168.888 158.63 168.888 158.63C168.888 158.63 172.068 161.482 172.632 165.429Z" fill="black"/>
<path d="M159.521 137.339C159.57 137.661 159.779 137.876 159.989 137.876C160.198 137.876 160.327 137.559 160.279 137.237C160.23 136.914 160.016 136.699 159.806 136.699C159.597 136.699 159.441 137.022 159.521 137.339Z" fill="#263238"/>
<path d="M159.72 137.897C160.252 138.817 160.908 139.659 161.67 140.4C161.477 140.592 161.244 140.74 160.988 140.833C160.732 140.925 160.459 140.961 160.187 140.937L159.72 137.897Z" fill="#DE5753"/>
<path d="M158.044 135.743C157.996 135.742 157.95 135.723 157.915 135.69C157.881 135.654 157.861 135.606 157.861 135.555C157.861 135.505 157.881 135.457 157.915 135.421C158.126 135.206 158.385 135.044 158.671 134.95C158.957 134.857 159.262 134.834 159.559 134.884C159.583 134.889 159.606 134.899 159.627 134.913C159.648 134.927 159.665 134.945 159.679 134.966C159.692 134.987 159.701 135.011 159.706 135.035C159.71 135.06 159.709 135.085 159.704 135.11C159.699 135.134 159.689 135.157 159.675 135.178C159.661 135.198 159.643 135.216 159.622 135.229C159.601 135.243 159.577 135.252 159.552 135.256C159.528 135.261 159.503 135.26 159.478 135.255C159.242 135.221 159.001 135.244 158.776 135.323C158.551 135.401 158.348 135.533 158.184 135.706C158.164 135.721 158.142 135.732 158.118 135.739C158.094 135.745 158.069 135.747 158.044 135.743Z" fill="#263238"/>
<path d="M160.52 142.194C160.417 143.491 159.865 144.71 158.957 145.642C158.358 146.258 157.622 146.723 156.809 147.001C156.031 147.271 155.198 147.344 154.385 147.211C153.572 147.079 152.805 146.747 152.152 146.244C149.853 144.536 149.553 142.21 148.704 138.316C148.495 137.413 148.52 136.472 148.778 135.582C149.035 134.692 149.515 133.882 150.173 133.23C150.832 132.578 151.646 132.105 152.538 131.855C153.431 131.606 154.372 131.589 155.273 131.806C159.376 132.779 160.816 138.531 160.52 142.194Z" fill="#E4897B"/>
<path d="M150.181 144.67C151.792 145.685 157.883 142.833 156.879 138.037C156.879 138.037 159.28 135.41 159.161 132.387C159.043 129.363 157.013 128.09 154.8 128.659C152.834 129.137 152.84 130.206 152.84 130.206C152.84 130.206 143.623 130.856 145.406 134.675C141.485 138.574 148.199 143.408 150.181 144.67Z" fill="#263238"/>
<path d="M155.225 138.783C155.442 139.751 155.973 140.619 156.734 141.254C157.738 142.081 158.555 141.351 158.539 140.18C158.539 139.106 158.001 137.403 156.836 137.032C155.67 136.662 154.999 137.618 155.225 138.783Z" fill="#E4897B"/>
<path opacity="0.2" d="M160.241 143.548C159.973 144.332 159.534 145.047 158.957 145.642C158.358 146.258 157.622 146.723 156.809 147.001C156.263 146.725 155.738 146.407 155.24 146.051L156.057 144.047C156.057 144.047 158.56 145.272 160.241 143.548Z" fill="black"/>
<path d="M151.491 149.585L150.804 144.874C150.804 144.874 153.871 142.726 157.083 144.171L161.917 149.998L151.491 149.585Z" fill="#E4897B"/>
<path d="M162.475 149.418L161.353 147.737C161.353 147.737 153.21 144.724 149.66 148.586C149.66 148.586 157.604 152.786 162.475 149.418Z" fill="#9F7A00"/>
<path opacity="0.2" d="M162.475 149.418L161.353 147.737C161.353 147.737 153.21 144.724 149.66 148.586C149.66 148.586 157.604 152.786 162.475 149.418Z" fill="black"/>
<path d="M131.21 195.089L128.144 193.112L129.32 191.356L132.516 186.586L135.588 188.563L132.054 193.832L131.21 195.089Z" fill="#E4897B"/>
<path d="M128.369 192.86L132.666 192.817C132.736 192.818 132.803 192.843 132.857 192.886C132.912 192.93 132.95 192.99 132.967 193.058L133.687 196.179C133.713 196.313 133.687 196.452 133.614 196.568C133.541 196.684 133.427 196.767 133.294 196.802H133.182C131.796 196.802 130.791 196.716 129.057 196.732C127.982 196.732 124.76 196.888 123.288 196.899C121.816 196.909 121.602 195.459 122.214 195.319C124.899 194.702 126.951 193.864 127.811 193.074C127.964 192.937 128.163 192.86 128.369 192.86Z" fill="#263238"/>
<path d="M129.196 190.169L134.814 191.683L165.311 168.545L149.665 165.118C148.548 164.879 147.384 164.986 146.329 165.424C145.273 165.863 144.376 166.612 143.757 167.572L129.196 190.169Z" fill="#263238"/>
<path opacity="0.2" d="M129.196 190.169L134.814 191.683L165.311 168.545L149.665 165.118C148.548 164.879 147.384 164.986 146.329 165.424C145.273 165.863 144.376 166.612 143.757 167.572L129.196 190.169Z" fill="black"/>
<path d="M112.524 195.201L109.355 193.391L110.44 191.576L113.378 186.645L116.547 188.455L113.298 193.902L112.524 195.201Z" fill="#E4897B"/>
<path d="M109.479 192.784H113.776C113.846 192.785 113.914 192.809 113.968 192.853C114.023 192.897 114.061 192.958 114.077 193.026L114.769 196.157C114.794 196.292 114.766 196.431 114.691 196.546C114.616 196.661 114.5 196.743 114.367 196.775H114.254C112.873 196.775 111.864 196.668 110.129 196.668C109.055 196.668 105.832 196.78 104.36 196.78C102.889 196.78 102.69 195.32 103.286 195.169C105.972 194.578 108.039 193.762 108.91 192.983C109.069 192.851 109.271 192.78 109.479 192.784Z" fill="#263238"/>
<path d="M172.67 180.694L151.346 180.748C150.809 178.857 150.133 172.278 148.049 164.14C147.485 161.933 146.813 159.613 146.024 157.233C145.368 155.081 144.571 152.975 143.639 150.927C145.568 149.761 147.688 148.945 149.902 148.516C159.339 146.905 167.997 151.062 167.997 151.062C167.997 151.062 171.74 161.482 172.67 180.694Z" fill="#9F7A00"/>
<path opacity="0.2" d="M148.049 164.14C147.485 161.933 146.813 159.613 146.024 157.233L147.511 156.632C147.511 156.632 149.853 161.911 148.049 164.14Z" fill="black"/>
<path d="M138.719 167.793L141.195 168.964L142.14 164.796C142.14 164.796 140.164 164.103 138.681 165.113L138.719 167.793Z" fill="#E4897B"/>
<path d="M144.745 170.376L144.858 166.579L142.14 164.796L141.195 168.964L144.745 170.376Z" fill="#E4897B"/>
<path d="M146.437 157.453C142.318 159.682 137.613 161.75 134.03 164.667C133.95 164.737 133.977 164.769 134.068 164.457C134.085 164.259 134.059 164.059 133.993 163.872C133.933 163.668 133.801 163.492 133.622 163.378C133.552 163.351 133.595 163.415 133.692 163.48C133.826 163.563 133.968 163.634 134.116 163.689C135.77 164.318 138.064 164.527 139.917 164.763L140.196 167.53C139.611 167.696 139.063 167.809 138.488 167.916C136.34 168.287 134.111 168.55 131.85 167.803C130.878 167.511 130.058 166.852 129.564 165.966C129.069 165.08 128.939 164.036 129.202 163.055C130.308 159.129 140.32 154.231 143.994 152.41L146.437 157.459V157.453Z" fill="#DC897C"/>
<path d="M150.342 176.209L149.386 178.658C149.386 178.658 137.962 164.543 131.662 163.738C125.361 162.932 110.714 189.755 110.714 189.755L116.268 191.436L131.898 177.257C138.343 188.504 146.051 196.754 155.214 196.754H164.162C174.168 196.754 174.281 185.592 172.305 176.129L150.342 176.209Z" fill="#263238"/>
<path d="M143.639 150.927C140.056 152.238 135.845 156.213 135.845 156.213C135.845 156.213 139.39 162.357 139.745 162.121C140.099 161.885 147.372 159.801 147.372 159.801C147.372 159.801 148.854 157.878 147.716 154.623C147.419 153.704 146.887 152.879 146.171 152.23C145.456 151.581 144.583 151.132 143.639 150.927Z" fill="#9F7A00"/>
<path d="M179.615 191.173L183.509 191.366L181.451 195.169C181.451 195.169 177.987 194.788 178.261 193.021L179.615 191.173Z" fill="#E4897B"/>
<path d="M186.699 193.536L183.825 196.206L181.451 195.169L183.509 191.366L186.699 193.536Z" fill="#E4897B"/>
<path d="M58.9315 152.657C61.5419 155.289 64.1146 158.238 67.2406 160.23C67.2406 160.23 67.434 160.332 67.4501 160.348C67.366 160.317 67.2766 160.303 67.1869 160.305C67.1063 160.305 67.2352 160.305 67.3749 160.305C70.9413 159.296 74.2552 156.97 77.537 155.181C77.791 155.028 78.0924 154.974 78.3839 155.029C78.6753 155.084 78.9364 155.244 79.1175 155.479C79.2986 155.713 79.3871 156.007 79.366 156.302C79.3449 156.598 79.2158 156.876 79.0033 157.083C76.4466 159.451 69.5555 165.784 65.9354 164.457C63.7225 163.646 61.8749 162.121 60.1347 160.655C58.4348 159.181 56.8326 157.599 55.3383 155.917C53.2919 153.484 56.7079 150.385 58.9315 152.662V152.657Z" fill="#E9B376"/>
<path d="M63.4219 156.374C62.9653 159.79 60.1992 163.141 60.1992 163.141L59.6191 162.744L56.7939 160.869C56.7939 160.869 56.7402 160.708 56.6597 160.424C56.5791 160.139 56.477 159.806 56.3535 159.349C55.7036 157.072 54.5327 152.813 54.3877 151.046C57.895 150.965 59.4741 152.635 63.4219 156.374Z" fill="#9F7A00"/>
<path opacity="0.7" d="M63.4219 156.374C62.9653 159.79 60.1992 163.141 60.1992 163.141L59.6191 162.744L56.7939 160.869C56.7939 160.869 56.7402 160.708 56.6597 160.424C56.5791 160.139 56.477 159.806 56.3535 159.349C55.7036 157.072 54.5327 152.813 54.3877 151.046C57.895 150.965 59.4741 152.635 63.4219 156.374Z" fill="#A4A4A4"/>
<path opacity="0.2" d="M59.6191 162.744L56.7939 160.869C56.7939 160.869 56.7402 160.708 56.6597 160.424C56.7644 159.559 56.9223 158.701 57.1323 157.856C57.8766 158.442 58.4846 159.182 58.9141 160.026C59.3435 160.87 59.5841 161.797 59.6191 162.744Z" fill="black"/>
<path d="M56.1816 173.217L58.5932 177.439C65.0385 175.935 85.7601 172.777 88.3007 179.883C91.4642 188.708 68.621 195.749 55.9828 196.179C43.3447 196.609 32.3178 193.601 40.31 175.173L56.1816 173.217Z" fill="#263238"/>
<path opacity="0.2" d="M56.1816 173.217L58.5932 177.439C65.0385 175.935 85.7601 172.777 88.3007 179.883C91.4642 188.708 68.621 195.749 55.9828 196.179C43.3447 196.609 32.3178 193.601 40.31 175.173L56.1816 173.217Z" fill="black"/>
<path d="M84.643 192.36C84.6285 192.369 84.6118 192.374 84.5947 192.374C84.5776 192.374 84.5609 192.369 84.5464 192.36C84.5387 192.348 84.5347 192.334 84.5347 192.32C84.5347 192.305 84.5387 192.291 84.5464 192.279C84.5893 192.14 85.0083 190.926 85.4326 190.797C85.4771 190.786 85.5237 190.787 85.5679 190.799C85.6121 190.811 85.6524 190.835 85.685 190.867C85.7433 190.916 85.7878 190.98 85.8142 191.051C85.8405 191.123 85.8478 191.2 85.8354 191.275C85.7661 191.503 85.6272 191.704 85.438 191.85C85.1913 192.047 84.9249 192.218 84.643 192.36ZM84.7505 192.129C85.1452 191.958 85.464 191.648 85.6474 191.259C85.6594 191.208 85.6561 191.155 85.6379 191.107C85.6198 191.058 85.5876 191.015 85.5454 190.985C85.5334 190.97 85.5174 190.959 85.4992 190.953C85.4811 190.948 85.4616 190.948 85.4433 190.953C85.4075 190.966 85.3747 190.986 85.3467 191.012C85.0817 191.345 84.8797 191.724 84.7505 192.129Z" fill="#263238"/>
<path d="M84.6161 192.376C84.6055 192.385 84.5922 192.39 84.5785 192.39C84.5648 192.39 84.5515 192.385 84.5409 192.376C84.4979 192.344 83.9179 191.608 84.0038 191.109C84.0141 191.047 84.037 190.987 84.0712 190.935C84.1054 190.882 84.1501 190.837 84.2025 190.802C84.248 190.761 84.3054 190.736 84.3664 190.73C84.4273 190.724 84.4885 190.738 84.5409 190.77C84.847 190.99 84.8095 191.973 84.6591 192.349V192.387L84.6161 192.376ZM84.2885 190.937C84.2348 190.98 84.1985 191.041 84.1864 191.109C84.2025 191.481 84.3403 191.837 84.5785 192.124C84.6698 191.705 84.643 191.012 84.4603 190.888C84.4603 190.888 84.4066 190.845 84.3153 190.888V190.915L84.2885 190.937Z" fill="#263238"/>
<path d="M62.4229 194.433C62.4311 194.42 62.4432 194.409 62.4575 194.402C62.4718 194.396 62.4878 194.393 62.5035 194.396C62.5179 194.397 62.5316 194.403 62.5423 194.412C62.553 194.422 62.5602 194.435 62.5625 194.449C62.5948 194.594 62.815 195.862 62.5088 196.179C62.4744 196.21 62.4324 196.231 62.3871 196.24C62.3419 196.25 62.2949 196.247 62.251 196.233C62.1754 196.22 62.1047 196.187 62.0469 196.137C61.989 196.086 61.9462 196.021 61.9234 195.948C61.8703 195.717 61.8948 195.476 61.9932 195.26C62.1073 194.97 62.2513 194.693 62.4229 194.433ZM62.4229 194.691C62.1614 195.032 62.03 195.455 62.0523 195.883C62.067 195.935 62.0969 195.981 62.1381 196.016C62.1793 196.05 62.2298 196.071 62.2832 196.077C62.2983 196.087 62.3161 196.092 62.3343 196.092C62.3524 196.092 62.3702 196.087 62.3853 196.077C62.4095 196.048 62.4277 196.016 62.439 195.98C62.5195 195.554 62.5195 195.117 62.439 194.691H62.4229Z" fill="#263238"/>
<path d="M70.6943 188.036L65.4951 189.889L62.9976 190.781L63.6367 193.515L66.0537 192.999L71.9619 191.737L70.6943 188.036Z" fill="#EBB376"/>
<path d="M64.3188 193.644L63.8784 190.421C63.8725 190.379 63.8582 190.338 63.8363 190.301C63.8143 190.264 63.7853 190.232 63.7507 190.206C63.7162 190.181 63.6769 190.162 63.6352 190.152C63.5935 190.142 63.5502 190.14 63.5078 190.147L61.8965 190.416C61.8965 190.416 59.748 190.614 59.3022 191.173C58.0454 192.784 58.8296 199.949 59.6675 200.202C59.9736 200.293 60.2959 199.874 60.4302 199.584C60.8545 198.66 61.6011 196.249 61.9663 195.486C62.3852 194.589 63.5776 194.154 64.0718 193.998C64.1495 193.98 64.2179 193.934 64.2635 193.868C64.3092 193.803 64.3289 193.723 64.3188 193.644Z" fill="#9F7A00"/>
<path d="M62.4336 194.433C62.4454 194.425 62.4595 194.42 62.4739 194.42C62.4883 194.42 62.5024 194.425 62.5142 194.433C62.5625 194.433 63.4326 194.809 63.5884 195.287C63.6073 195.347 63.6142 195.41 63.6087 195.473C63.6031 195.536 63.5853 195.597 63.5562 195.652C63.539 195.712 63.5019 195.764 63.451 195.799C63.4001 195.834 63.3386 195.851 63.2769 195.846C62.9062 195.803 62.4604 194.922 62.4121 194.525V194.433C62.4192 194.432 62.4265 194.432 62.4336 194.433ZM63.4219 195.534C63.4432 195.468 63.4432 195.397 63.4219 195.33C63.3198 195.024 62.8364 194.756 62.5894 194.632C62.7075 195.046 63.0674 195.636 63.2876 195.658C63.2876 195.658 63.3521 195.658 63.4004 195.567V195.534H63.4219Z" fill="#263238"/>
<path opacity="0.2" d="M70.6943 188.036L65.4951 189.889L66.0537 192.999L71.9619 191.737L70.6943 188.036Z" fill="black"/>
<path d="M66.9775 193.466L68.4707 193.574L67.4717 188.428L65.7744 189.363L66.9775 193.466Z" fill="#9F7A00"/>
<path opacity="0.6" d="M66.9775 193.466L68.4707 193.574L67.4717 188.428L65.7744 189.363L66.9775 193.466Z" fill="#A4A4A4"/>
<path opacity="0.2" d="M45.2837 173.486L53.0718 182.123C53.0718 182.123 61.6655 181.929 72.1391 187.043C72.1391 187.043 83.3593 182.407 84.3906 178.556C85.7441 173.513 58.6094 177.455 58.6094 177.455L45.2837 173.486Z" fill="black"/>
<path d="M56.101 176.94L40.2187 175.097C40.5229 173.457 40.7024 171.796 40.7558 170.129C40.8194 167.753 40.7261 165.376 40.4765 163.012C40.2563 160.751 39.9394 158.152 39.4023 155.101C39.2948 154.555 39.3108 153.993 39.449 153.454C39.5872 152.915 39.8442 152.414 40.2011 151.988C40.558 151.562 41.0057 151.221 41.5116 150.99C42.0174 150.759 42.5685 150.644 43.1244 150.654C43.7636 150.654 44.435 150.686 45.1225 150.729C47.5546 150.838 49.9759 151.119 52.3681 151.572C53.1415 151.728 53.9418 151.921 54.7099 152.109C57.4652 152.823 59.1733 156.293 58.9369 159.092C58.844 161.266 58.6035 163.432 58.2172 165.574C57.7284 168.733 57.1537 171.816 56.101 176.94Z" fill="#9F7A00"/>
<path opacity="0.7" d="M56.101 176.94L40.2187 175.097C40.5229 173.457 40.7024 171.796 40.7558 170.129C40.8194 167.753 40.7261 165.376 40.4765 163.012C40.2563 160.751 39.9394 158.152 39.4023 155.101C39.2948 154.555 39.3108 153.993 39.449 153.454C39.5872 152.915 39.8442 152.414 40.2011 151.988C40.558 151.562 41.0057 151.221 41.5116 150.99C42.0174 150.759 42.5685 150.644 43.1244 150.654C43.7636 150.654 44.435 150.686 45.1225 150.729C47.5546 150.838 49.9759 151.119 52.3681 151.572C53.1415 151.728 53.9418 151.921 54.7099 152.109C57.4652 152.823 59.1733 156.293 58.9369 159.092C58.844 161.266 58.6035 163.432 58.2172 165.574C57.7284 168.733 57.1537 171.816 56.101 176.94Z" fill="#A4A4A4"/>
<path opacity="0.2" d="M40.7666 170.134C40.8302 167.759 40.7369 165.381 40.4873 163.018C42.4746 160.671 44.3545 158.721 44.3545 158.721C44.3545 158.721 47.4697 166.74 40.7666 170.134Z" fill="black"/>
<path d="M43.2749 157.851C43.4575 161.251 43.4253 166.541 44.043 169.791L43.8818 169.393C43.7744 169.237 43.8389 169.393 43.9516 169.479C44.0969 169.623 44.2512 169.758 44.4136 169.882C46.562 171.493 49.1401 172.734 51.5625 174.018L54.6186 175.591C54.8836 175.724 55.0904 175.95 55.1999 176.225C55.3094 176.501 55.3138 176.807 55.2123 177.085C55.1109 177.364 54.9106 177.595 54.6497 177.736C54.3887 177.876 54.0852 177.916 53.7968 177.847C52.6313 177.568 51.5141 177.235 50.3808 176.891C47.1582 175.817 43.8496 174.786 41.0781 172.686C40.5368 172.265 40.1162 171.71 39.8589 171.074C38.6182 166.67 38.5215 162.416 38.4302 157.926C38.543 154.795 43.0762 154.736 43.2642 157.867L43.2749 157.851Z" fill="#E9B376"/>
<path d="M58.9048 175.398L57.938 174.694C57.7589 174.565 57.5512 174.48 57.3325 174.447C57.1138 174.415 56.8904 174.435 56.6811 174.506L54.6938 175.173C54.3021 175.305 53.9477 175.529 53.66 175.826C53.3722 176.123 53.1596 176.485 53.0395 176.881L52.8892 177.38C54.4145 178.648 56.998 178.9 56.998 178.9L57.7231 179.05C57.8716 179.086 58.0258 179.092 58.1766 179.068C58.3275 179.044 58.4721 178.99 58.6019 178.91C58.7318 178.829 58.8445 178.724 58.9333 178.6C59.0222 178.475 59.0855 178.335 59.1196 178.186L59.4419 176.746C59.4937 176.494 59.4704 176.231 59.375 175.992C59.2795 175.752 59.1161 175.546 58.9048 175.398Z" fill="#EBB376"/>
<path d="M41.8247 150.874C38.7202 151.986 37.8286 154.693 37.7642 160.338C39.3755 161.804 44.2685 161.884 44.2685 161.884C44.2685 161.884 45.1172 153.323 41.8247 150.874Z" fill="#9F7A00"/>
<path d="M79.4331 178.508V179.786C79.4331 180.114 79.0463 180.248 78.7187 180.248H53.1738C52.8408 180.248 52.4487 180.114 52.4487 179.786V178.508H79.4331Z" fill="#263238"/>
<path opacity="0.4" d="M79.4331 178.508V179.786C79.4331 180.114 79.0463 180.248 78.7187 180.248H53.1738C52.8408 180.248 52.4487 180.114 52.4487 179.786V178.508H79.4331Z" fill="#A4A4A4"/>
<path opacity="0.2" d="M79.4331 178.508V179.786C79.4331 180.114 79.0464 180.248 78.7187 180.248H61.8535C61.5259 180.248 61.1338 180.114 61.1338 179.786V178.508H79.4331Z" fill="black"/>
<path d="M83.7137 165.22L80.6683 179.029C80.612 179.25 80.4848 179.446 80.3063 179.588C80.1278 179.729 79.9078 179.808 79.68 179.813H63.0297C62.926 179.81 62.8245 179.784 62.7329 179.735C62.6414 179.686 62.5623 179.617 62.502 179.533C62.4416 179.449 62.4016 179.351 62.3851 179.249C62.3685 179.147 62.3759 179.042 62.4066 178.943L65.4467 165.241C65.5088 165.032 65.6409 164.851 65.8208 164.728C66.0008 164.605 66.2176 164.547 66.4349 164.565H83.0853C83.5311 164.565 83.7889 164.769 83.7137 165.22Z" fill="#263238"/>
<path opacity="0.4" d="M83.7138 165.22L80.6684 179.029C80.6121 179.25 80.4849 179.446 80.3064 179.588C80.1279 179.729 79.9079 179.808 79.6801 179.813H63.6098C63.5061 179.81 63.4046 179.783 63.3129 179.735C63.2212 179.686 63.142 179.617 63.0812 179.533C63.0205 179.449 62.9799 179.352 62.9626 179.25C62.9453 179.147 62.9517 179.042 62.9814 178.943L66.0268 165.241C66.0889 165.032 66.221 164.851 66.401 164.728C66.5809 164.605 66.7977 164.547 67.0151 164.565H83.0854C83.5312 164.565 83.789 164.769 83.7138 165.22Z" fill="#A4A4A4"/>
<path opacity="0.2" d="M75.512 172.235C75.4589 172.795 75.2091 173.318 74.8069 173.711C74.4048 174.104 73.8763 174.342 73.3152 174.383C72.386 174.383 71.8328 173.422 72.1014 172.235C72.3699 171.048 73.2884 170.129 74.1961 170.086C73.9329 171.268 74.5022 172.235 75.4261 172.235H75.512Z" fill="black"/>
<path d="M78.1492 157.523L81.7264 157.614L80.1151 153.994C80.1151 153.994 76.9246 154.107 77.0482 155.751L78.1492 157.523Z" fill="#EBB376"/>
<path d="M84.7934 155.853L82.3442 153.21L80.1045 153.994L81.7266 157.614L84.7934 155.853Z" fill="#EBB376"/>
<path d="M44.3384 150.691C43.9731 150.664 45.0903 155.149 50.5151 156.256C55.9399 157.362 55.521 152.372 55.0966 151.121C55.0966 151.121 47.9638 150.927 44.3384 150.691Z" fill="#EBB376"/>
<path d="M45.826 133.155C45.826 133.155 48.9359 129.706 54.6239 131.484C60.3118 133.262 60.0701 143.413 57.1805 147.098C52.655 146.939 48.1278 147.361 43.7098 148.355C43.7098 148.355 40.9706 140.991 42.3294 136.662C43.6883 132.333 45.826 133.155 45.826 133.155Z" fill="#263238"/>
<path d="M46.9702 143.279C47.3301 145.675 47.6094 150.014 45.896 151.389C45.896 151.389 48.1304 151.314 52.4648 154.741C54.0386 152.958 53.1094 152.222 53.1094 152.222C50.5474 151.303 50.6924 149.37 51.2134 147.603L46.9702 143.279Z" fill="#EBB376"/>
<path opacity="0.2" d="M48.7105 145.046L51.2403 147.603C51.1126 148.017 51.021 148.441 50.9664 148.87C49.9835 148.613 48.6675 147.361 48.6085 146.303C48.5667 145.881 48.6013 145.456 48.7105 145.046Z" fill="black"/>
<path d="M45.5254 138.391C45.794 142.221 45.8315 143.843 47.7598 145.911C50.6655 148.983 55.2793 148.059 56.1118 144.3C56.8906 140.905 56.3159 135.212 52.5991 133.53C51.8151 133.142 50.9417 132.971 50.0691 133.033C49.1965 133.095 48.3564 133.389 47.6354 133.884C46.9144 134.38 46.3387 135.059 45.9678 135.851C45.5969 136.643 45.4441 137.52 45.5254 138.391Z" fill="#EBB376"/>
<path d="M50.2412 139.568C50.2412 139.895 50.4185 140.158 50.6279 140.169C50.8374 140.18 50.9878 139.922 50.9824 139.6C50.9771 139.278 50.7998 139.009 50.5957 139.004C50.3916 138.998 50.2305 139.245 50.2412 139.568Z" fill="#263238"/>
<path d="M54.248 139.611C54.248 139.933 54.4307 140.201 54.6348 140.212C54.8389 140.223 54.9946 139.965 54.9893 139.643C54.9839 139.321 54.8066 139.052 54.6025 139.047C54.3984 139.041 54.248 139.288 54.248 139.611Z" fill="#263238"/>
<path d="M54.4951 139.057L55.2417 138.864C55.2417 138.864 54.8711 139.455 54.4951 139.057Z" fill="#263238"/>
<path d="M53.0342 140.271C53.3346 141.019 53.7279 141.727 54.2051 142.377C54.0442 142.486 53.8607 142.558 53.6682 142.587C53.4757 142.616 53.2792 142.601 53.0933 142.543L53.0342 140.271Z" fill="#D58745"/>
<path d="M49.5967 137.527C49.6209 137.531 49.6457 137.529 49.669 137.521C49.6923 137.514 49.7136 137.501 49.731 137.484C49.8986 137.328 50.1024 137.218 50.3238 137.161C50.5452 137.105 50.7772 137.105 50.9986 137.161C51.0211 137.169 51.0449 137.171 51.0685 137.169C51.0922 137.167 51.115 137.159 51.1357 137.148C51.1564 137.136 51.1744 137.12 51.1887 137.102C51.203 137.083 51.2133 137.061 51.2188 137.038C51.2322 136.988 51.2256 136.935 51.2006 136.89C51.1755 136.845 51.1339 136.811 51.0845 136.796C50.8042 136.721 50.5094 136.718 50.2277 136.788C49.9459 136.857 49.6864 136.997 49.4732 137.194C49.4387 137.229 49.4194 137.276 49.4194 137.325C49.4194 137.374 49.4387 137.422 49.4732 137.457C49.504 137.495 49.5482 137.52 49.5967 137.527Z" fill="#263238"/>
<path d="M55.8055 137.559C55.8487 137.575 55.8966 137.575 55.9398 137.559C55.9606 137.546 55.9786 137.529 55.9927 137.508C56.0067 137.488 56.0165 137.465 56.0215 137.441C56.0266 137.417 56.0267 137.392 56.0218 137.368C56.017 137.344 56.0074 137.321 55.9935 137.301C55.8459 137.036 55.6393 136.809 55.3897 136.636C55.1401 136.464 54.8541 136.351 54.554 136.307C54.5301 136.306 54.5062 136.309 54.4837 136.318C54.4612 136.326 54.4407 136.339 54.4235 136.356C54.4063 136.372 54.3928 136.392 54.3838 136.415C54.3749 136.437 54.3706 136.461 54.3714 136.485C54.3723 136.535 54.3912 136.583 54.4248 136.621C54.4583 136.658 54.5042 136.682 54.554 136.689C54.7914 136.725 55.0173 136.815 55.2139 136.953C55.4105 137.091 55.5725 137.273 55.6873 137.484C55.7011 137.503 55.7187 137.52 55.7389 137.533C55.7592 137.546 55.7818 137.555 55.8055 137.559Z" fill="#263238"/>
<path d="M50.4883 139.014L51.2349 138.826C51.2349 138.826 50.8804 139.412 50.4883 139.014Z" fill="#263238"/>
<path d="M46.3203 140.69C46.3203 140.69 49.2744 138.37 48.603 134.739C48.603 134.739 53.8881 132.65 55.9721 137.962C55.9721 137.962 56.4125 133.407 51.4443 132.515C46.476 131.624 40.5947 138.359 46.2236 143.467L46.3203 140.69Z" fill="#263238"/>
<path d="M44.3061 141.485C44.4977 141.84 44.7577 142.154 45.0711 142.409C45.3845 142.663 45.7451 142.853 46.1322 142.968C47.1366 143.241 47.5878 142.253 47.2655 141.233C46.9701 140.314 46.0946 139.084 45.1171 139.24C44.1396 139.396 43.8065 140.577 44.3061 141.485Z" fill="#EBB376"/>
<path d="M56.5521 140.218C56.5279 140.217 56.5044 140.209 56.485 140.195C56.4657 140.18 56.4515 140.16 56.4446 140.137C54.5486 133.461 48.2913 134.836 48.2269 134.846C48.2131 134.85 48.1989 134.85 48.185 134.848C48.171 134.845 48.1577 134.84 48.1457 134.833C48.1338 134.825 48.1234 134.816 48.1152 134.804C48.107 134.793 48.1011 134.78 48.098 134.766C48.0948 134.752 48.0944 134.738 48.0967 134.724C48.099 134.71 48.1041 134.697 48.1116 134.685C48.119 134.673 48.1288 134.662 48.1403 134.654C48.1518 134.646 48.1648 134.64 48.1785 134.637C48.243 134.637 54.7044 133.203 56.6541 140.078C56.6582 140.092 56.6595 140.106 56.6579 140.12C56.6563 140.135 56.6518 140.148 56.6448 140.161C56.6378 140.173 56.6284 140.184 56.6171 140.193C56.6057 140.202 56.5928 140.208 56.5789 140.212L56.5521 140.218Z" fill="#263238"/>
<path d="M53.2811 143.655C53.0937 144.094 52.9393 144.547 52.8192 145.009H52.5668C51.4335 144.885 50.9555 144.471 50.7514 144.015C50.6599 143.798 50.6212 143.562 50.6386 143.327C50.6468 143.194 50.6721 143.062 50.7138 142.935C51.382 143.322 52.1258 143.56 52.8944 143.634C53.1307 143.644 53.2811 143.655 53.2811 143.655Z" fill="#263238"/>
<path d="M52.8945 143.612L52.7495 144.004C51.6753 143.891 50.9395 143.666 50.6387 143.306C50.6469 143.173 50.6722 143.041 50.7139 142.914C51.3821 143.301 52.1259 143.539 52.8945 143.612Z" fill="#A4A4A4"/>
<path d="M52.5669 144.987C51.4336 144.864 50.9556 144.45 50.7515 143.993C51.182 144.049 51.5998 144.178 51.9868 144.375C52.2389 144.514 52.4416 144.728 52.5669 144.987Z" fill="#DE5753"/>
<path d="M52.3842 161.551C52.3672 161.553 52.3501 161.55 52.3342 161.543C52.3184 161.537 52.3043 161.527 52.2929 161.514C49.439 158.454 47.287 154.808 45.9873 150.831C45.9791 150.798 45.984 150.763 46.0011 150.734C46.0182 150.705 46.046 150.684 46.0786 150.675C46.0944 150.671 46.111 150.67 46.1271 150.673C46.1433 150.675 46.1589 150.681 46.1729 150.689C46.1869 150.698 46.199 150.709 46.2087 150.722C46.2183 150.735 46.2252 150.75 46.229 150.766C47.4941 154.634 49.5748 158.186 52.3305 161.181C52.6528 160.107 53.9902 155.004 51.976 151.094C51.9662 151.065 51.9671 151.033 51.9785 151.005C51.9899 150.976 52.0111 150.953 52.0383 150.938C52.0655 150.924 52.0969 150.92 52.1269 150.927C52.1568 150.934 52.1833 150.951 52.2016 150.976C54.5058 155.45 52.5239 161.406 52.5024 161.466C52.4953 161.486 52.4833 161.505 52.4674 161.52C52.4515 161.535 52.4321 161.546 52.4111 161.551H52.3842Z" fill="#263238"/>
<path d="M52.5507 161.326L52.9589 161.863C52.9955 161.909 53.0154 161.966 53.0154 162.024C53.0154 162.083 52.9955 162.139 52.9589 162.185L52.5453 162.722C52.5206 162.752 52.4898 162.775 52.455 162.792C52.4202 162.808 52.3823 162.816 52.3439 162.816C52.3055 162.816 52.2676 162.808 52.2328 162.792C52.198 162.775 52.1672 162.752 52.1425 162.722L51.7557 162.282C51.7218 162.237 51.7034 162.182 51.7034 162.126C51.7034 162.07 51.7218 162.015 51.7557 161.97L52.0995 161.347C52.122 161.308 52.1539 161.276 52.1923 161.252C52.2307 161.229 52.2743 161.216 52.3192 161.213C52.3641 161.211 52.4088 161.221 52.4493 161.24C52.4897 161.26 52.5246 161.289 52.5507 161.326Z" fill="#A4A4A4"/>
<path opacity="0.7" d="M41.8247 150.874C38.7202 151.986 37.8286 154.693 37.7642 160.338C39.3755 161.804 44.2685 161.884 44.2685 161.884C44.2685 161.884 45.1172 153.323 41.8247 150.874Z" fill="#A4A4A4"/>
<path d="M74.3037 193.955L79.75 194.852L82.3657 195.282L83.1284 192.58L80.7651 191.86L74.9858 190.104L74.3037 193.955Z" fill="#EBB376"/>
<path d="M82.5967 192.14L81.4204 195.169C81.405 195.21 81.3977 195.253 81.3991 195.296C81.4005 195.34 81.4104 195.382 81.4284 195.422C81.4464 195.461 81.4721 195.497 81.5039 195.526C81.5357 195.556 81.573 195.578 81.6138 195.593L83.1338 196.131C83.1338 196.131 85.1265 197.001 85.771 196.721C87.6562 195.91 90.4331 189.266 89.8208 188.665C89.5952 188.434 89.1118 188.665 88.854 188.837C88.0376 189.438 86.2168 191.184 85.5293 191.678C84.7236 192.258 83.4937 192.075 82.9619 191.963C82.8899 191.944 82.8135 191.951 82.7465 191.984C82.6795 192.016 82.6263 192.071 82.5967 192.14Z" fill="#9F7A00"/>
<path opacity="0.2" d="M74.3037 193.955L79.75 194.852L80.7651 191.86L74.9858 190.104L74.3037 193.955Z" fill="black"/>
<path d="M79.825 191.297C79.825 191.297 57.621 178.814 49.951 179.169C42.2811 179.523 41.1854 186.28 44.3436 190.507C47.5018 194.734 53.3456 195.765 53.3456 195.765C53.3456 195.765 49.3763 190.136 49.951 188.568C50.5258 187 52.7709 189.191 52.7709 189.191C52.7709 189.191 66.7357 193.703 78.9657 194.739L79.825 191.297Z" fill="#263238"/>
<path d="M80.185 190.953L78.9282 190.11L77.3115 195.067H79.2505L80.185 190.953Z" fill="#9F7A00"/>
<path opacity="0.6" d="M80.185 190.953L78.9282 190.11L77.3115 195.067H79.2505L80.185 190.953Z" fill="#A4A4A4"/>
</svg>
