<svg width="261" height="238" viewBox="0 0 261 238" fill="none" xmlns="http://www.w3.org/2000/svg">
<path d="M38.2218 217.421C89.1812 244.046 171.814 244.046 222.774 217.421C273.733 190.796 273.739 147.631 222.774 121.006C171.808 94.3804 89.1812 94.3804 38.2218 121.006C-12.7376 147.631 -12.7436 190.796 38.2218 217.421Z" fill="#F5F5F5"/>
<path d="M170.324 210.688C185.691 210.688 198.149 204.75 198.149 197.427C198.149 190.103 185.691 184.165 170.324 184.165C154.956 184.165 142.498 190.103 142.498 197.427C142.498 204.75 154.956 210.688 170.324 210.688Z" fill="#EBEBEB"/>
<path d="M219.616 180.444C231.472 180.444 241.084 175.864 241.084 170.213C241.084 164.563 231.472 159.983 219.616 159.983C207.76 159.983 198.149 164.563 198.149 170.213C198.149 175.864 207.76 180.444 219.616 180.444Z" fill="#EBEBEB"/>
<path d="M66.6105 167.347C65.3983 160.946 60.9618 151.825 55.5495 146.74C50.3433 141.855 42.6157 140.152 39.5368 142.406C36.4579 144.661 38.4762 149.534 44.4521 155.473C51.1978 162.171 64.1498 180.753 66.6105 191.281V167.347Z" fill="#8E6E00"/>
<g opacity="0.2">
<path d="M66.6105 167.347C65.3983 160.946 60.9618 151.825 55.5495 146.74C50.3433 141.855 42.6157 140.152 39.5368 142.406C36.4579 144.661 38.4762 149.534 44.4521 155.473C51.1978 162.171 64.1498 180.753 66.6105 191.281V167.347Z" fill="black"/>
</g>
<path d="M66.6106 182.747C66.5347 182.746 66.4618 182.717 66.4059 182.666C66.35 182.614 66.315 182.544 66.3076 182.468C64.7803 166.347 53.5072 148.225 42.6704 144.449C42.5948 144.421 42.5328 144.366 42.4977 144.293C42.4626 144.221 42.4572 144.137 42.4825 144.061C42.51 143.985 42.5659 143.923 42.6383 143.888C42.7108 143.853 42.794 143.848 42.8704 143.873C54.1072 147.782 65.35 165.795 66.9258 182.414C66.9326 182.494 66.908 182.574 66.8571 182.636C66.8061 182.698 66.733 182.738 66.6531 182.747H66.6106Z" fill="#E7D085"/>
<path d="M66.6108 199.02C66.6108 199.02 64.5138 200.693 57.5196 200.039C50.5254 199.384 46.9192 194.384 46.9192 192.238C46.9192 190.093 53.3497 189.723 54.7437 184.402C53.3258 185.922 51.4394 186.922 49.386 187.244C45.7495 187.929 42.8282 186.766 41.9978 180.141C43.7901 180.403 45.6186 180.252 47.3435 179.699C50.2224 178.771 50.9072 177.189 50.1557 176.85C49.4041 176.511 45.3919 176.85 42.8221 175.874C40.2523 174.898 42.216 161.516 43.9009 160.565C45.5858 159.613 53.5558 161.856 55.1074 163.056C56.4892 164.122 58.4287 165.971 57.5317 169.88C58.5943 168.887 59.4224 167.669 59.956 166.316C60.7076 164.498 61.253 164.922 62.3804 165.619C63.0573 166.001 63.6449 166.523 64.1037 167.15C64.5626 167.777 64.8822 168.495 65.0411 169.256C65.3138 170.953 64.8714 176.808 62.4834 178.711C62.4834 178.711 64.7744 179.002 66.6472 175.135C66.6472 175.135 70.2837 176.602 71.1079 178.977C71.9322 181.353 72.8292 192.984 66.6108 199.02Z" fill="#8E6E00"/>
<path d="M67.2288 200.342C67.1547 200.341 67.0833 200.314 67.0277 200.265C66.9721 200.216 66.9359 200.148 66.9257 200.075C65.3257 186.978 55.3677 169.771 45.6038 163.31C45.5363 163.265 45.4894 163.195 45.4735 163.116C45.4576 163.036 45.4739 162.953 45.5189 162.886C45.5639 162.818 45.6339 162.771 45.7135 162.756C45.793 162.74 45.8757 162.756 45.9432 162.801C55.8284 169.377 65.9439 186.759 67.5257 200.002C67.5361 200.082 67.5144 200.162 67.4656 200.226C67.4167 200.29 67.3446 200.331 67.2651 200.342H67.2288Z" fill="#E7D085"/>
<path d="M67.8411 202.172C67.4795 201.922 67.1815 201.59 66.971 201.204C66.7605 200.818 66.6434 200.387 66.6289 199.948V55.1488C66.6536 54.6931 66.7857 54.2497 67.0142 53.8548C67.2428 53.4598 67.5614 53.1244 67.9441 52.8759L158.856 0.377136C159.236 0.138793 159.674 0.00854495 160.122 0.000406271C160.571 -0.00773241 161.013 0.106545 161.401 0.330944C161.79 0.555343 162.11 0.881374 162.326 1.27396C162.543 1.66655 162.649 2.11084 162.632 2.55903L70.3866 202.124C69.996 202.331 69.562 202.444 69.1196 202.452C68.6773 202.461 68.2393 202.365 67.8411 202.172Z" fill="#E0E0E0"/>
<path d="M69.0713 57.9004L106 33.7359L103.539 32.3116L67.9258 52.8759C67.5431 53.1244 67.2245 53.4598 66.9959 53.8548C66.7674 54.2497 66.6353 54.6931 66.6106 55.1487V56.4761L69.0713 57.9004Z" fill="#37474F"/>
<path opacity="0.2" d="M69.0713 57.9004L106 33.7359L103.539 32.3116L67.9258 52.8759C67.5431 53.1244 67.2245 53.4598 66.9959 53.8548C66.7674 54.2497 66.6353 54.6931 66.6106 55.1487V56.4761L69.0713 57.9004Z" fill="#37474F"/>
<path d="M81.4049 62.1611L66.9922 53.8699C66.7574 54.2608 66.626 54.7051 66.6104 55.1609V199.936C66.5948 200.383 66.7013 200.827 66.9187 201.219C67.136 201.61 67.4559 201.935 67.844 202.159C68.2322 202.383 68.6739 202.496 69.1218 202.488C69.5696 202.48 70.0068 202.35 70.3863 202.111L81.4049 195.778V62.1611Z" fill="#263238"/>
<path opacity="0.4" d="M81.4049 62.1611L66.9922 53.8699C66.7574 54.2608 66.626 54.7051 66.6104 55.1609V199.936C66.5948 200.383 66.7013 200.827 66.9187 201.219C67.136 201.61 67.4559 201.935 67.844 202.159C68.2322 202.383 68.6739 202.496 69.1218 202.488C69.5696 202.48 70.0068 202.35 70.3863 202.111L81.4049 195.778V62.1611Z" fill="#263238"/>
<path d="M70.3865 202.124L161.299 149.625C161.681 149.376 162 149.041 162.229 148.646C162.457 148.251 162.589 147.808 162.614 147.352V2.55902C162.614 1.72263 162.008 1.38322 161.299 1.80142L70.3865 54.3002C70.0038 54.5487 69.6852 54.8841 69.4566 55.2791C69.2281 55.674 69.096 56.1174 69.0713 56.573V201.366C69.0713 202.202 69.6592 202.542 70.3865 202.124Z" fill="#455A64"/>
<path opacity="0.1" d="M70.3865 202.124L161.299 149.625C161.681 149.376 162 149.041 162.229 148.646C162.457 148.251 162.589 147.808 162.614 147.352V2.55902C162.614 1.72263 162.008 1.38322 161.299 1.80142L70.3865 54.3002C70.0038 54.5487 69.6852 54.8841 69.4566 55.2791C69.2281 55.674 69.096 56.1174 69.0713 56.573V201.366C69.0713 202.202 69.6592 202.542 70.3865 202.124Z" fill="#455A64"/>
<path d="M76.6229 90.0166L98.4418 77.4101C99.8904 76.5737 101.066 77.1677 101.066 78.7374C101.001 79.6188 100.73 80.4725 100.274 81.2296C99.8183 81.9866 99.1905 82.6257 98.4418 83.0952L76.6229 95.7017C75.1683 96.5381 73.9985 95.9441 73.9985 94.3743C74.0619 93.4926 74.3326 92.6383 74.7886 91.8811C75.2447 91.1238 75.8732 90.485 76.6229 90.0166Z" fill="#8E6E00"/>
<path d="M76.6229 98.9624L91.0658 90.6227C92.5143 89.7863 93.6901 90.3803 93.6901 91.95C93.6254 92.8314 93.3541 93.6851 92.8982 94.4421C92.4422 95.1992 91.8145 95.8383 91.0658 96.3077L76.6229 104.647C75.1683 105.484 73.9985 104.89 73.9985 103.32C74.0619 102.438 74.3326 101.584 74.7886 100.827C75.2447 100.07 75.8732 99.4307 76.6229 98.9624Z" fill="#8E6E00"/>
<path d="M75.0471 114.272L77.8714 112.642C78.4775 112.308 78.9199 112.581 78.9199 113.248V116.509C78.9002 116.873 78.7951 117.227 78.6129 117.543C78.4307 117.859 78.1767 118.127 77.8714 118.327L75.0471 119.933C74.441 120.272 73.9985 120 73.9985 119.327V116.066C74.0224 115.706 74.1295 115.357 74.3115 115.046C74.4934 114.734 74.7452 114.469 75.0471 114.272Z" fill="#8E6E00"/>
<path opacity="0.2" d="M75.0471 114.272L77.8714 112.642C78.4775 112.308 78.9199 112.581 78.9199 113.248V116.509C78.9002 116.873 78.7951 117.227 78.6129 117.543C78.4307 117.859 78.1767 118.127 77.8714 118.327L75.0471 119.933C74.441 120.272 73.9985 120 73.9985 119.327V116.066C74.0224 115.706 74.1295 115.357 74.3115 115.046C74.4934 114.734 74.7452 114.469 75.0471 114.272Z" fill="black"/>
<path d="M75.0471 125.648L77.8714 124.018C78.4775 123.678 78.9199 123.951 78.9199 124.624V127.885C78.8988 128.248 78.7931 128.602 78.611 128.918C78.429 129.234 78.1757 129.502 77.8714 129.703L75.0471 131.333C74.441 131.667 73.9985 131.394 73.9985 130.727V127.466C74.0172 127.102 74.122 126.747 74.3043 126.431C74.4865 126.115 74.7411 125.847 75.0471 125.648Z" fill="#8E6E00"/>
<g opacity="0.2">
<path d="M75.0471 125.648L77.8714 124.018C78.4775 123.678 78.9199 123.951 78.9199 124.624V127.885C78.8988 128.248 78.7931 128.602 78.611 128.918C78.429 129.234 78.1757 129.502 77.8714 129.703L75.0471 131.333C74.441 131.667 73.9985 131.394 73.9985 130.727V127.466C74.0172 127.102 74.122 126.747 74.3043 126.431C74.4865 126.115 74.7411 125.847 75.0471 125.648Z" fill="black"/>
</g>
<path d="M82.6961 122.654L99.7633 112.793C100.491 112.375 101.079 112.672 101.079 113.46C101.046 113.9 100.909 114.327 100.681 114.705C100.452 115.083 100.138 115.402 99.7633 115.636L82.6961 125.497C81.9688 125.915 81.3809 125.618 81.3809 124.83C81.4138 124.389 81.55 123.963 81.7785 123.585C82.007 123.207 82.3214 122.888 82.6961 122.654Z" fill="#8E6E00"/>
<path opacity="0.2" d="M82.6961 122.654L99.7633 112.793C100.491 112.375 101.079 112.672 101.079 113.46C101.046 113.9 100.909 114.327 100.681 114.705C100.452 115.083 100.138 115.402 99.7633 115.636L82.6961 125.497C81.9688 125.915 81.3809 125.618 81.3809 124.83C81.4138 124.389 81.55 123.963 81.7785 123.585C82.007 123.207 82.3214 122.888 82.6961 122.654Z" fill="black"/>
<path d="M75.0471 137.018L77.8714 135.388C78.4775 135.048 78.9199 135.321 78.9199 135.994V139.255C78.8993 139.619 78.7937 139.973 78.6116 140.288C78.4296 140.604 78.176 140.873 77.8714 141.073L75.0471 142.703C74.441 143.037 73.9985 142.764 73.9985 142.097V138.837C74.0172 138.472 74.122 138.117 74.3043 137.801C74.4865 137.485 74.7411 137.217 75.0471 137.018Z" fill="#E0E0E0"/>
<path d="M82.6961 134.024L99.7633 124.175C100.491 123.757 101.079 124.054 101.079 124.842C101.047 125.283 100.911 125.71 100.682 126.088C100.454 126.466 100.139 126.785 99.7633 127.018L82.6961 136.879C81.9688 137.297 81.3809 137 81.3809 136.212C81.4119 135.77 81.5473 135.341 81.7759 134.96C82.0045 134.58 82.3198 134.259 82.6961 134.024Z" fill="#F0F0F0"/>
<path d="M75.0471 148.419L77.8714 146.788C78.4775 146.449 78.9199 146.722 78.9199 147.394V150.655C78.8993 151.019 78.7937 151.373 78.6116 151.689C78.4296 152.005 78.176 152.273 77.8714 152.473L75.0471 154.104C74.441 154.437 73.9985 154.164 73.9985 153.498V150.237C74.0172 149.873 74.122 149.518 74.3043 149.202C74.4865 148.886 74.7411 148.617 75.0471 148.419Z" fill="#E0E0E0"/>
<path d="M82.6961 145.425L99.7633 135.57C100.491 135.145 101.079 135.449 101.079 136.23C101.047 136.672 100.911 137.1 100.682 137.479C100.454 137.858 100.139 138.178 99.7633 138.412L82.6961 148.267C81.9688 148.685 81.3809 148.388 81.3809 147.6C81.4138 147.16 81.55 146.733 81.7785 146.355C82.007 145.977 82.3214 145.659 82.6961 145.425Z" fill="#F0F0F0"/>
<path d="M75.0471 159.789L77.8714 158.158C78.4775 157.819 78.9199 158.092 78.9199 158.765V162.025C78.8993 162.389 78.7937 162.743 78.6116 163.059C78.4296 163.375 78.176 163.643 77.8714 163.844L75.0471 165.474C74.441 165.807 73.9985 165.534 73.9985 164.868V161.607C74.0172 161.243 74.122 160.888 74.3043 160.572C74.4865 160.256 74.7411 159.988 75.0471 159.789Z" fill="#E0E0E0"/>
<path d="M82.6961 156.795L99.7633 146.94C100.491 146.516 101.079 146.819 101.079 147.6C101.047 148.042 100.911 148.47 100.682 148.849C100.454 149.228 100.139 149.548 99.7633 149.782L82.6961 159.637C81.9688 160.055 81.3809 159.758 81.3809 158.971C81.4138 158.53 81.55 158.104 81.7785 157.726C82.007 157.348 82.3214 157.029 82.6961 156.795Z" fill="#F0F0F0"/>
<path d="M75.3077 170.977L87.4293 163.965C88.1566 163.546 88.7445 163.843 88.7445 164.631C88.7116 165.072 88.5753 165.498 88.3468 165.876C88.1183 166.254 87.804 166.573 87.4293 166.807L75.3077 173.82C74.5864 174.238 73.9985 173.941 73.9985 173.159C74.0304 172.718 74.1654 172.291 74.3928 171.912C74.6203 171.533 74.9336 171.213 75.3077 170.977Z" fill="#8E6E00"/>
<path d="M75.3077 176.662L99.7631 162.546C100.49 162.128 101.078 162.425 101.078 163.207C101.046 163.649 100.91 164.076 100.682 164.456C100.453 164.835 100.139 165.155 99.7631 165.389L75.3077 179.505C74.5864 179.923 73.9985 179.626 73.9985 178.844C74.0304 178.403 74.1654 177.976 74.3928 177.597C74.6203 177.218 74.9336 176.898 75.3077 176.662Z" fill="#8E6E00"/>
<path opacity="0.8" d="M75.3077 176.662L99.7631 162.546C100.49 162.128 101.078 162.425 101.078 163.207C101.046 163.649 100.91 164.076 100.682 164.456C100.453 164.835 100.139 165.155 99.7631 165.389L75.3077 179.505C74.5864 179.923 73.9985 179.626 73.9985 178.844C74.0304 178.403 74.1654 177.976 74.3928 177.597C74.6203 177.218 74.9336 176.898 75.3077 176.662Z" fill="#E7D085"/>
<path d="M75.3077 176.662L92.381 166.807C93.1022 166.389 93.6901 166.686 93.6901 167.474C93.6574 167.914 93.5219 168.34 93.2945 168.718C93.0671 169.096 92.7542 169.415 92.381 169.65L75.3077 179.505C74.5864 179.923 73.9985 179.626 73.9985 178.844C74.0304 178.403 74.1654 177.976 74.3928 177.597C74.6203 177.218 74.9336 176.898 75.3077 176.662Z" fill="#8E6E00"/>
<path d="M75.3077 182.359L87.4293 175.347C88.1566 174.929 88.7445 175.226 88.7445 176.014C88.7116 176.454 88.5753 176.881 88.3468 177.259C88.1183 177.637 87.804 177.955 87.4293 178.189L75.3077 185.202C74.5864 185.62 73.9985 185.323 73.9985 184.541C74.0304 184.1 74.1654 183.673 74.3928 183.294C74.6203 182.915 74.9336 182.595 75.3077 182.359Z" fill="#8E6E00"/>
<path d="M82.6961 111.278L99.7633 101.423C100.491 101.005 101.079 101.302 101.079 102.09C101.046 102.53 100.909 102.957 100.681 103.335C100.452 103.713 100.138 104.032 99.7633 104.266L82.6961 114.121C81.9688 114.539 81.3809 114.242 81.3809 113.46C81.4129 113.018 81.5487 112.591 81.7772 112.211C82.0058 111.832 82.3206 111.513 82.6961 111.278Z" fill="#8E6E00"/>
<path opacity="0.2" d="M82.6961 111.278L99.7633 101.423C100.491 101.005 101.079 101.302 101.079 102.09C101.046 102.53 100.909 102.957 100.681 103.335C100.452 103.713 100.138 104.032 99.7633 104.266L82.6961 114.121C81.9688 114.539 81.3809 114.242 81.3809 113.46C81.4129 113.018 81.5487 112.591 81.7772 112.211C82.0058 111.832 82.3206 111.513 82.6961 111.278Z" fill="black"/>
<path d="M75.3077 182.359L87.4293 175.347C88.1566 174.929 88.7445 175.226 88.7445 176.014C88.7116 176.454 88.5753 176.881 88.3468 177.259C88.1183 177.637 87.804 177.955 87.4293 178.189L75.3077 185.202C74.5864 185.62 73.9985 185.323 73.9985 184.541C74.0304 184.1 74.1654 183.673 74.3928 183.294C74.6203 182.915 74.9336 182.595 75.3077 182.359Z" fill="#8E6E00"/>
<path d="M75.3077 188.026L99.7631 173.91C100.49 173.492 101.078 173.789 101.078 174.571C101.046 175.013 100.91 175.44 100.682 175.819C100.453 176.199 100.139 176.518 99.7631 176.753L75.3077 190.844C74.5864 191.269 73.9985 190.966 73.9985 190.184C74.034 189.747 74.1708 189.325 74.3981 188.95C74.6253 188.576 74.9368 188.259 75.3077 188.026Z" fill="#8E6E00"/>
<path opacity="0.8" d="M75.3077 188.026L99.7631 173.91C100.49 173.492 101.078 173.789 101.078 174.571C101.046 175.013 100.91 175.44 100.682 175.819C100.453 176.199 100.139 176.518 99.7631 176.753L75.3077 190.844C74.5864 191.269 73.9985 190.966 73.9985 190.184C74.034 189.747 74.1708 189.325 74.3981 188.95C74.6253 188.576 74.9368 188.259 75.3077 188.026Z" fill="#E7D085"/>
<path d="M75.3077 188.026L97.3024 175.298C98.0297 174.88 98.6176 175.177 98.6176 175.965C98.5846 176.406 98.4484 176.832 98.2199 177.21C97.9914 177.588 97.6771 177.907 97.3024 178.141L75.3077 190.869C74.5864 191.293 73.9985 190.99 73.9985 190.208C74.0304 189.767 74.1654 189.34 74.3928 188.961C74.6203 188.582 74.9336 188.262 75.3077 188.026Z" fill="#8E6E00"/>
<path d="M161.311 1.80144L106 33.7359V181.559L161.311 149.631C161.694 149.382 162.012 149.047 162.241 148.652C162.469 148.257 162.601 147.814 162.626 147.358V2.55904C162.62 1.74689 162.014 1.38324 161.311 1.80144Z" fill="#EBEBEB"/>
<path opacity="0.6" d="M161.311 1.80144L106 33.7359V181.559L161.311 149.631C161.694 149.382 162.012 149.047 162.241 148.652C162.469 148.257 162.601 147.814 162.626 147.358V2.55904C162.62 1.74689 162.014 1.38324 161.311 1.80144Z" fill="#FAFAFA"/>
<path d="M106 39.4209V50.791L101.078 56.4761H106V67.8462L157.699 37.9966V9.57141L106 39.4209Z" fill="#8E6E00"/>
<g opacity="0.6">
<path d="M112.764 39.8149L133.71 27.6933C134.722 27.0872 135.528 27.5842 135.528 28.7539C135.495 29.3895 135.313 30.0084 134.997 30.5609C134.681 31.1135 134.241 31.5844 133.71 31.9358L112.764 44.0272C111.746 44.6333 110.946 44.1363 110.946 42.9665C110.982 42.3359 111.166 41.7225 111.481 41.1753C111.797 40.6281 112.236 40.1623 112.764 39.8149Z" fill="#E7D085"/>
</g>
<path d="M111.582 49.0212L152.123 25.6143C152.487 25.4083 152.777 25.5537 152.777 25.9477C152.762 26.1682 152.694 26.3819 152.581 26.5714C152.467 26.761 152.31 26.921 152.123 27.0386L111.582 50.4152C111.218 50.6213 110.927 50.4758 110.927 50.0819C110.948 49.8667 111.017 49.659 111.131 49.4751C111.244 49.2911 111.399 49.1358 111.582 49.0212Z" fill="#8E6E00"/>
<path d="M111.582 49.0212L152.123 25.6143C152.487 25.4083 152.777 25.5537 152.777 25.9477C152.762 26.1682 152.694 26.3819 152.581 26.5714C152.467 26.761 152.31 26.921 152.123 27.0386L111.582 50.4152C111.218 50.6213 110.927 50.4758 110.927 50.0819C110.948 49.8667 111.017 49.659 111.131 49.4751C111.244 49.2911 111.399 49.1358 111.582 49.0212Z" fill="#8E6E00"/>
<path opacity="0.6" d="M111.582 49.0212L152.123 25.6143C152.487 25.4083 152.777 25.5537 152.777 25.9477C152.762 26.1682 152.694 26.3819 152.581 26.5714C152.467 26.761 152.31 26.921 152.123 27.0386L111.582 50.4152C111.218 50.6213 110.927 50.4758 110.927 50.0819C110.948 49.8667 111.017 49.659 111.131 49.4751C111.244 49.2911 111.399 49.1358 111.582 49.0212Z" fill="#E7D085"/>
<path d="M111.582 53.2639L152.123 29.857C152.487 29.6449 152.777 29.7964 152.777 30.1903C152.762 30.41 152.694 30.6229 152.581 30.8114C152.467 31 152.31 31.1589 152.123 31.2752L111.582 54.6821C111.218 54.8942 110.927 54.7427 110.927 54.3487C110.943 54.1291 111.011 53.9162 111.124 53.7276C111.238 53.5391 111.395 53.3801 111.582 53.2639Z" fill="#8E6E00"/>
<path opacity="0.6" d="M111.582 53.2639L152.123 29.857C152.487 29.6449 152.777 29.7964 152.777 30.1903C152.762 30.41 152.694 30.6229 152.581 30.8114C152.467 31 152.31 31.1589 152.123 31.2752L111.582 54.6821C111.218 54.8942 110.927 54.7427 110.927 54.3487C110.943 54.1291 111.011 53.9162 111.124 53.7276C111.238 53.5391 111.395 53.3801 111.582 53.2639Z" fill="#E7D085"/>
<path opacity="0.6" d="M111.582 57.5064L152.123 34.0995C152.487 33.8934 152.777 34.0389 152.777 34.4329C152.762 34.6534 152.694 34.867 152.581 35.0566C152.467 35.2461 152.31 35.4062 152.123 35.5238L111.582 58.9307C111.218 59.1368 110.927 58.9913 110.927 58.5973C110.943 58.3768 111.011 58.1632 111.124 57.9736C111.238 57.7841 111.395 57.624 111.582 57.5064Z" fill="#E7D085"/>
<path d="M113.109 69.4463L115.952 67.8098C116.558 67.4704 117 67.7432 117 68.4159V71.6766C116.98 72.0407 116.875 72.3948 116.693 72.7107C116.51 73.0265 116.257 73.2951 115.952 73.4949L113.127 75.1253C112.521 75.4586 112.079 75.1859 112.079 74.5192V71.2645C112.096 70.9018 112.198 70.5481 112.377 70.2321C112.556 69.9162 112.807 69.647 113.109 69.4463Z" fill="#8E6E00"/>
<path opacity="0.2" d="M113.109 69.4463L115.952 67.8098C116.558 67.4704 117 67.7432 117 68.4159V71.6766C116.98 72.0407 116.875 72.3948 116.693 72.7107C116.51 73.0265 116.257 73.2951 115.952 73.4949L113.127 75.1253C112.521 75.4586 112.079 75.1859 112.079 74.5192V71.2645C112.096 70.9018 112.198 70.5481 112.377 70.2321C112.556 69.9162 112.807 69.647 113.109 69.4463Z" fill="#E7D085"/>
<path d="M120.758 66.4522L137.825 56.5912C138.552 56.173 139.14 56.47 139.14 57.2579C139.107 57.6984 138.971 58.1249 138.743 58.5029C138.514 58.881 138.2 59.1998 137.825 59.4337L120.758 69.2947C120.031 69.7129 119.443 69.4159 119.443 68.628C119.476 68.1875 119.612 67.761 119.84 67.383C120.069 67.005 120.383 66.6861 120.758 66.4522Z" fill="#8E6E00"/>
<path opacity="0.8" d="M120.758 66.4522L137.825 56.5912C138.552 56.173 139.14 56.47 139.14 57.2579C139.107 57.6984 138.971 58.1249 138.743 58.5029C138.514 58.881 138.2 59.1998 137.825 59.4337L120.758 69.2947C120.031 69.7129 119.443 69.4159 119.443 68.628C119.476 68.1875 119.612 67.761 119.84 67.383C120.069 67.005 120.383 66.6861 120.758 66.4522Z" fill="#E7D085"/>
<path d="M112.715 79.6284L155.747 54.7791C156.111 54.5669 156.402 54.7185 156.402 55.1063C156.387 55.327 156.319 55.5408 156.206 55.7305C156.092 55.9201 155.935 56.0801 155.747 56.1973L112.715 81.0467C112.352 81.2588 112.061 81.1073 112.061 80.7133C112.076 80.4936 112.144 80.2808 112.258 80.0922C112.371 79.9036 112.528 79.7447 112.715 79.6284Z" fill="#8E6E00"/>
<path d="M112.715 83.8892L155.747 59.0398C156.111 58.8337 156.402 58.9792 156.402 59.3732C156.386 59.5937 156.319 59.8074 156.205 59.9969C156.091 60.1865 155.934 60.3465 155.747 60.4641L112.715 85.3135C112.352 85.5195 112.061 85.3741 112.061 84.9801C112.076 84.7596 112.144 84.5459 112.258 84.3564C112.371 84.1668 112.528 84.0068 112.715 83.8892Z" fill="#8E6E00"/>
<path d="M112.715 88.156L155.747 63.3067C156.111 63.0945 156.402 63.246 156.402 63.6339C156.387 63.8545 156.319 64.0684 156.206 64.258C156.092 64.4477 155.935 64.6077 155.747 64.7249L112.715 89.5742C112.352 89.7864 112.061 89.6348 112.061 89.247C112.076 89.0263 112.143 88.8125 112.257 88.6228C112.371 88.4332 112.528 88.2732 112.715 88.156Z" fill="#8E6E00"/>
<path d="M112.715 92.4288L155.747 67.5795C156.111 67.3734 156.402 67.5189 156.402 67.9128C156.386 68.1333 156.319 68.347 156.205 68.5365C156.091 68.7261 155.934 68.8862 155.747 69.0038L112.715 93.8531C112.352 94.0592 112.061 93.9137 112.061 93.5198C112.076 93.2993 112.144 93.0856 112.258 92.896C112.371 92.7065 112.528 92.5464 112.715 92.4288Z" fill="#8E6E00"/>
<path d="M112.715 79.6284L155.747 54.7791C156.111 54.5669 156.402 54.7185 156.402 55.1063C156.387 55.327 156.319 55.5408 156.206 55.7305C156.092 55.9201 155.935 56.0801 155.747 56.1973L112.715 81.0467C112.352 81.2588 112.061 81.1073 112.061 80.7133C112.076 80.4936 112.144 80.2808 112.258 80.0922C112.371 79.9036 112.528 79.7447 112.715 79.6284Z" fill="#E0E0E0"/>
<path d="M112.715 83.8892L155.747 59.0398C156.111 58.8337 156.402 58.9792 156.402 59.3732C156.386 59.5937 156.319 59.8074 156.205 59.9969C156.091 60.1865 155.934 60.3465 155.747 60.4641L112.715 85.3135C112.352 85.5195 112.061 85.3741 112.061 84.9801C112.076 84.7596 112.144 84.5459 112.258 84.3564C112.371 84.1668 112.528 84.0068 112.715 83.8892Z" fill="#E0E0E0"/>
<path d="M112.715 88.156L155.747 63.3067C156.111 63.0945 156.402 63.246 156.402 63.6339C156.387 63.8545 156.319 64.0684 156.206 64.258C156.092 64.4477 155.935 64.6077 155.747 64.7249L112.715 89.5742C112.352 89.7864 112.061 89.6348 112.061 89.247C112.076 89.0263 112.143 88.8125 112.257 88.6228C112.371 88.4332 112.528 88.2732 112.715 88.156Z" fill="#E0E0E0"/>
<path d="M112.715 92.4288L155.747 67.5795C156.111 67.3734 156.402 67.5189 156.402 67.9128C156.386 68.1333 156.319 68.347 156.205 68.5365C156.091 68.7261 155.934 68.8862 155.747 69.0038L112.715 93.8531C112.352 94.0592 112.061 93.9137 112.061 93.5198C112.076 93.2993 112.144 93.0856 112.258 92.896C112.371 92.7065 112.528 92.5464 112.715 92.4288Z" fill="#E0E0E0"/>
<path opacity="0.8" d="M112.715 79.6284L155.747 54.7791C156.111 54.5669 156.402 54.7185 156.402 55.1063C156.387 55.327 156.319 55.5408 156.206 55.7305C156.092 55.9201 155.935 56.0801 155.747 56.1973L112.715 81.0467C112.352 81.2588 112.061 81.1073 112.061 80.7133C112.076 80.4936 112.144 80.2808 112.258 80.0922C112.371 79.9036 112.528 79.7447 112.715 79.6284Z" fill="#E0E0E0"/>
<path opacity="0.8" d="M112.715 83.8892L155.747 59.0398C156.111 58.8337 156.402 58.9792 156.402 59.3732C156.386 59.5937 156.319 59.8074 156.205 59.9969C156.091 60.1865 155.934 60.3465 155.747 60.4641L112.715 85.3135C112.352 85.5195 112.061 85.3741 112.061 84.9801C112.076 84.7596 112.144 84.5459 112.258 84.3564C112.371 84.1668 112.528 84.0068 112.715 83.8892Z" fill="#E0E0E0"/>
<path opacity="0.8" d="M112.715 88.156L155.747 63.3067C156.111 63.0945 156.402 63.246 156.402 63.6339C156.387 63.8545 156.319 64.0684 156.206 64.258C156.092 64.4477 155.935 64.6077 155.747 64.7249L112.715 89.5742C112.352 89.7864 112.061 89.6348 112.061 89.247C112.076 89.0263 112.143 88.8125 112.257 88.6228C112.371 88.4332 112.528 88.2732 112.715 88.156Z" fill="#E0E0E0"/>
<path opacity="0.8" d="M112.715 92.4288L155.747 67.5795C156.111 67.3734 156.402 67.5189 156.402 67.9128C156.386 68.1333 156.319 68.347 156.205 68.5365C156.091 68.7261 155.934 68.8862 155.747 69.0038L112.715 93.8531C112.352 94.0592 112.061 93.9137 112.061 93.5198C112.076 93.2993 112.144 93.0856 112.258 92.896C112.371 92.7065 112.528 92.5464 112.715 92.4288Z" fill="#E0E0E0"/>
<path d="M112.715 110.539L155.747 85.6893C156.111 85.4771 156.402 85.6286 156.402 86.0165C156.387 86.2371 156.319 86.451 156.206 86.6407C156.092 86.8303 155.935 86.9903 155.747 87.1075L112.715 111.957C112.352 112.169 112.061 112.017 112.061 111.623C112.076 111.404 112.144 111.191 112.258 111.002C112.371 110.814 112.528 110.655 112.715 110.539Z" fill="#E0E0E0"/>
<path d="M112.715 114.799L155.747 89.9499C156.111 89.7439 156.402 89.8893 156.402 90.2833C156.386 90.5038 156.319 90.7175 156.205 90.907C156.091 91.0966 155.934 91.2566 155.747 91.3742L112.715 116.224C112.352 116.43 112.061 116.284 112.061 115.89C112.076 115.67 112.144 115.456 112.258 115.267C112.371 115.077 112.528 114.917 112.715 114.799Z" fill="#E0E0E0"/>
<path d="M112.715 119.066L155.747 94.2168C156.111 94.0047 156.402 94.1562 156.402 94.5441C156.387 94.7647 156.319 94.9786 156.206 95.1682C156.092 95.3578 155.935 95.5178 155.747 95.635L112.715 120.484C112.352 120.696 112.061 120.545 112.061 120.157C112.076 119.936 112.143 119.723 112.257 119.533C112.371 119.343 112.528 119.183 112.715 119.066Z" fill="#E0E0E0"/>
<path d="M112.715 123.339L155.747 98.4897C156.111 98.2836 156.402 98.4291 156.402 98.823C156.386 99.0435 156.319 99.2572 156.205 99.4468C156.091 99.6363 155.934 99.7964 155.747 99.914L112.715 124.763C112.352 124.969 112.061 124.824 112.061 124.43C112.076 124.209 112.144 123.996 112.258 123.806C112.371 123.617 112.528 123.457 112.715 123.339Z" fill="#E0E0E0"/>
<path opacity="0.8" d="M112.715 110.539L155.747 85.6893C156.111 85.4771 156.402 85.6286 156.402 86.0165C156.387 86.2371 156.319 86.451 156.206 86.6407C156.092 86.8303 155.935 86.9903 155.747 87.1075L112.715 111.957C112.352 112.169 112.061 112.017 112.061 111.623C112.076 111.404 112.144 111.191 112.258 111.002C112.371 110.814 112.528 110.655 112.715 110.539Z" fill="#E0E0E0"/>
<path opacity="0.8" d="M112.715 114.799L155.747 89.9499C156.111 89.7439 156.402 89.8893 156.402 90.2833C156.386 90.5038 156.319 90.7175 156.205 90.907C156.091 91.0966 155.934 91.2566 155.747 91.3742L112.715 116.224C112.352 116.43 112.061 116.284 112.061 115.89C112.076 115.67 112.144 115.456 112.258 115.267C112.371 115.077 112.528 114.917 112.715 114.799Z" fill="#E0E0E0"/>
<path opacity="0.8" d="M112.715 119.066L155.747 94.2168C156.111 94.0047 156.402 94.1562 156.402 94.5441C156.387 94.7647 156.319 94.9786 156.206 95.1682C156.092 95.3578 155.935 95.5178 155.747 95.635L112.715 120.484C112.352 120.696 112.061 120.545 112.061 120.157C112.076 119.936 112.143 119.723 112.257 119.533C112.371 119.343 112.528 119.183 112.715 119.066Z" fill="#E0E0E0"/>
<path opacity="0.8" d="M112.715 123.339L155.747 98.4897C156.111 98.2836 156.402 98.4291 156.402 98.823C156.386 99.0435 156.319 99.2572 156.205 99.4468C156.091 99.6363 155.934 99.7964 155.747 99.914L112.715 124.763C112.352 124.969 112.061 124.824 112.061 124.43C112.076 124.209 112.144 123.996 112.258 123.806C112.371 123.617 112.528 123.457 112.715 123.339Z" fill="#E0E0E0"/>
<path d="M112.715 142.055L155.747 117.205C156.111 116.993 156.402 117.145 156.402 117.533C156.387 117.753 156.319 117.967 156.206 118.157C156.092 118.347 155.935 118.506 155.747 118.624L112.715 143.473C112.352 143.685 112.061 143.534 112.061 143.14C112.076 142.92 112.144 142.707 112.258 142.519C112.371 142.33 112.528 142.171 112.715 142.055Z" fill="#E0E0E0"/>
<path d="M112.715 146.316L155.747 121.466C156.111 121.26 156.402 121.406 156.402 121.8C156.386 122.02 156.319 122.234 156.205 122.423C156.091 122.613 155.934 122.773 155.747 122.891L112.715 147.74C112.352 147.946 112.061 147.8 112.061 147.407C112.076 147.186 112.144 146.972 112.258 146.783C112.371 146.593 112.528 146.433 112.715 146.316Z" fill="#E0E0E0"/>
<path d="M112.715 150.582L155.747 125.733C156.111 125.521 156.402 125.672 156.402 126.06C156.387 126.281 156.319 126.495 156.206 126.684C156.092 126.874 155.935 127.034 155.747 127.151L112.715 152.001C112.352 152.213 112.061 152.061 112.061 151.673C112.076 151.453 112.143 151.239 112.257 151.049C112.371 150.86 112.528 150.7 112.715 150.582Z" fill="#E0E0E0"/>
<path d="M112.715 154.855L155.747 130.006C156.111 129.8 156.402 129.945 156.402 130.339C156.386 130.56 156.319 130.773 156.205 130.963C156.091 131.153 155.934 131.313 155.747 131.43L112.715 156.28C112.352 156.486 112.061 156.34 112.061 155.946C112.076 155.726 112.144 155.512 112.258 155.322C112.371 155.133 112.528 154.973 112.715 154.855Z" fill="#E0E0E0"/>
<path opacity="0.8" d="M112.715 142.055L155.747 117.205C156.111 116.993 156.402 117.145 156.402 117.533C156.387 117.753 156.319 117.967 156.206 118.157C156.092 118.347 155.935 118.506 155.747 118.624L112.715 143.473C112.352 143.685 112.061 143.534 112.061 143.14C112.076 142.92 112.144 142.707 112.258 142.519C112.371 142.33 112.528 142.171 112.715 142.055Z" fill="#E0E0E0"/>
<path opacity="0.8" d="M112.715 146.316L155.747 121.466C156.111 121.26 156.402 121.406 156.402 121.8C156.386 122.02 156.319 122.234 156.205 122.423C156.091 122.613 155.934 122.773 155.747 122.891L112.715 147.74C112.352 147.946 112.061 147.8 112.061 147.407C112.076 147.186 112.144 146.972 112.258 146.783C112.371 146.593 112.528 146.433 112.715 146.316Z" fill="#E0E0E0"/>
<path opacity="0.8" d="M112.715 150.582L155.747 125.733C156.111 125.521 156.402 125.672 156.402 126.06C156.387 126.281 156.319 126.495 156.206 126.684C156.092 126.874 155.935 127.034 155.747 127.151L112.715 152.001C112.352 152.213 112.061 152.061 112.061 151.673C112.076 151.453 112.143 151.239 112.257 151.049C112.371 150.86 112.528 150.7 112.715 150.582Z" fill="#E0E0E0"/>
<path opacity="0.8" d="M112.715 154.855L155.747 130.006C156.111 129.8 156.402 129.945 156.402 130.339C156.386 130.56 156.319 130.773 156.205 130.963C156.091 131.153 155.934 131.313 155.747 131.43L112.715 156.28C112.352 156.486 112.061 156.34 112.061 155.946C112.076 155.726 112.144 155.512 112.258 155.322C112.371 155.133 112.528 154.973 112.715 154.855Z" fill="#E0E0E0"/>
<path d="M113.109 100.714L115.952 99.0836C116.558 98.7502 117 99.0229 117 99.6896V102.962C116.982 103.327 116.877 103.682 116.694 103.998C116.512 104.314 116.258 104.582 115.952 104.781L113.127 106.411C112.521 106.744 112.079 106.478 112.079 105.805V102.544C112.094 102.18 112.195 101.824 112.375 101.506C112.554 101.187 112.805 100.916 113.109 100.714Z" fill="#8E6E00"/>
<path opacity="0.2" d="M113.109 100.714L115.952 99.0836C116.558 98.7502 117 99.0229 117 99.6896V102.962C116.982 103.327 116.877 103.682 116.694 103.998C116.512 104.314 116.258 104.582 115.952 104.781L113.127 106.411C112.521 106.744 112.079 106.478 112.079 105.805V102.544C112.094 102.18 112.195 101.824 112.375 101.506C112.554 101.187 112.805 100.916 113.109 100.714Z" fill="#E7D085"/>
<path d="M120.758 97.7199L137.825 87.865C138.552 87.4468 139.14 87.7438 139.14 88.5257C139.108 88.9672 138.972 89.3949 138.744 89.7741C138.515 90.1532 138.201 90.4731 137.825 90.7076L120.758 100.538C120.031 100.956 119.443 100.659 119.443 99.8776C119.478 99.4403 119.616 99.0174 119.844 98.6427C120.073 98.268 120.385 97.952 120.758 97.7199Z" fill="#8E6E00"/>
<path opacity="0.8" d="M120.758 97.7199L137.825 87.865C138.552 87.4468 139.14 87.7438 139.14 88.5257C139.108 88.9672 138.972 89.3949 138.744 89.7741C138.515 90.1532 138.201 90.4731 137.825 90.7076L120.758 100.538C120.031 100.956 119.443 100.659 119.443 99.8776C119.478 99.4403 119.616 99.0174 119.844 98.6427C120.073 98.268 120.385 97.952 120.758 97.7199Z" fill="#E7D085"/>
<path d="M113.109 131.988L115.952 130.357C116.558 130.018 117 130.291 117 130.964V134.224C116.981 134.588 116.876 134.943 116.694 135.259C116.512 135.575 116.257 135.843 115.952 136.042L113.127 137.673C112.521 138.006 112.079 137.733 112.079 137.067V133.806C112.096 133.443 112.198 133.09 112.377 132.774C112.556 132.458 112.807 132.189 113.109 131.988Z" fill="#8E6E00"/>
<path opacity="0.2" d="M113.109 131.988L115.952 130.357C116.558 130.018 117 130.291 117 130.964V134.224C116.981 134.588 116.876 134.943 116.694 135.259C116.512 135.575 116.257 135.843 115.952 136.042L113.127 137.673C112.521 138.006 112.079 137.733 112.079 137.067V133.806C112.096 133.443 112.198 133.09 112.377 132.774C112.556 132.458 112.807 132.189 113.109 131.988Z" fill="#E7D085"/>
<path d="M120.758 129.024L137.825 119.163C138.552 118.745 139.14 119.042 139.14 119.83C139.108 120.271 138.972 120.699 138.743 121.078C138.515 121.457 138.2 121.777 137.825 122.012L120.758 131.867C120.031 132.285 119.443 131.988 119.443 131.2C119.476 130.759 119.612 130.333 119.84 129.955C120.069 129.577 120.383 129.258 120.758 129.024Z" fill="#8E6E00"/>
<path opacity="0.8" d="M120.758 129.024L137.825 119.163C138.552 118.745 139.14 119.042 139.14 119.83C139.108 120.271 138.972 120.699 138.743 121.078C138.515 121.457 138.2 121.777 137.825 122.012L120.758 131.867C120.031 132.285 119.443 131.988 119.443 131.2C119.476 130.759 119.612 130.333 119.84 129.955C120.069 129.577 120.383 129.258 120.758 129.024Z" fill="#E7D085"/>
<path d="M117.128 159.516L119.952 157.886C120.558 157.552 121.007 157.825 121.007 158.492V161.752C120.987 162.117 120.881 162.472 120.697 162.788C120.514 163.104 120.259 163.372 119.952 163.571L117.128 165.201C116.552 165.54 116.079 165.268 116.079 164.595V161.334C116.1 160.97 116.206 160.617 116.388 160.301C116.57 159.985 116.823 159.716 117.128 159.516Z" fill="#8E6E00"/>
<path d="M112.715 170.595L124.37 163.868C124.734 163.662 125.025 163.807 125.025 164.201C125.009 164.422 124.942 164.635 124.828 164.825C124.714 165.014 124.557 165.174 124.37 165.292L112.715 172.02C112.352 172.226 112.061 172.08 112.061 171.686C112.076 171.466 112.144 171.252 112.258 171.062C112.371 170.873 112.528 170.713 112.715 170.595Z" fill="#E0E0E0"/>
<path d="M132.807 150.461L135.631 148.831C136.207 148.497 136.68 148.77 136.68 149.437V152.698C136.66 153.062 136.555 153.416 136.373 153.732C136.19 154.048 135.936 154.316 135.631 154.516L132.807 156.146C132.201 156.48 131.752 156.213 131.752 155.54V152.279C131.773 151.915 131.879 151.56 132.062 151.244C132.245 150.928 132.5 150.66 132.807 150.461Z" fill="#8E6E00"/>
<path d="M128.388 161.54L140.043 154.813C140.407 154.601 140.698 154.752 140.698 155.146C140.682 155.366 140.615 155.579 140.501 155.767C140.387 155.956 140.23 156.115 140.043 156.231L128.388 162.965C128.025 163.177 127.734 163.025 127.734 162.637C127.748 162.416 127.815 162.201 127.929 162.01C128.043 161.819 128.2 161.658 128.388 161.54Z" fill="#E0E0E0"/>
<path d="M148.48 141.406L151.304 139.776C151.88 139.436 152.353 139.709 152.353 140.382V143.643C152.332 144.007 152.227 144.361 152.045 144.676C151.862 144.992 151.609 145.261 151.304 145.461L148.48 147.091C147.874 147.425 147.431 147.152 147.431 146.485V143.225C147.45 142.86 147.555 142.505 147.737 142.189C147.919 141.873 148.174 141.605 148.48 141.406Z" fill="#8E6E00"/>
<path opacity="0.2" d="M117.128 159.516L119.952 157.886C120.558 157.552 121.007 157.825 121.007 158.492V161.752C120.987 162.117 120.881 162.472 120.697 162.788C120.514 163.104 120.259 163.372 119.952 163.571L117.128 165.201C116.552 165.54 116.079 165.268 116.079 164.595V161.334C116.1 160.97 116.206 160.617 116.388 160.301C116.57 159.985 116.823 159.716 117.128 159.516Z" fill="#E7D085"/>
<path opacity="0.2" d="M132.807 150.461L135.631 148.831C136.207 148.497 136.68 148.77 136.68 149.437V152.698C136.66 153.062 136.555 153.416 136.373 153.732C136.19 154.048 135.936 154.316 135.631 154.516L132.807 156.146C132.201 156.48 131.752 156.213 131.752 155.54V152.279C131.773 151.915 131.879 151.56 132.062 151.244C132.245 150.928 132.5 150.66 132.807 150.461Z" fill="#E7D085"/>
<path opacity="0.2" d="M148.48 141.406L151.304 139.776C151.88 139.436 152.353 139.709 152.353 140.382V143.643C152.332 144.007 152.227 144.361 152.045 144.676C151.862 144.992 151.609 145.261 151.304 145.461L148.48 147.091C147.874 147.425 147.431 147.152 147.431 146.485V143.225C147.45 142.86 147.555 142.505 147.737 142.189C147.919 141.873 148.174 141.605 148.48 141.406Z" fill="#E7D085"/>
<path d="M144.062 152.485L155.717 145.758C156.08 145.546 156.371 145.697 156.371 146.085C156.356 146.306 156.289 146.52 156.175 146.709C156.061 146.899 155.904 147.059 155.717 147.176L144.062 153.904C143.704 154.116 143.407 153.964 143.407 153.57C143.424 153.351 143.492 153.139 143.606 152.95C143.719 152.762 143.875 152.603 144.062 152.485Z" fill="#E0E0E0"/>
<path d="M86.3081 51.3607C79.5078 55.1912 73.9985 64.737 73.9985 72.6766C73.9985 80.6163 79.5078 83.877 86.3081 79.9496C93.1083 76.0222 98.6176 66.4825 98.6176 58.6277C98.6176 50.7728 93.1022 47.5242 86.3081 51.3607Z" fill="#FAFAFA"/>
<path d="M92.2718 75.8283L82.4169 78.4708C82.2472 78.5261 82.0664 78.5383 81.8908 78.5061C81.7152 78.4739 81.5505 78.3984 81.4114 78.2865C81.2724 78.1745 81.1635 78.0297 81.0946 77.865C81.0257 77.7003 80.999 77.5211 81.0169 77.3435V60.5671C81.0517 59.1785 81.5154 57.8347 82.3445 56.7202C83.1736 55.6057 84.3273 54.7752 85.6473 54.3427L89.0171 53.4396C91.5809 52.7547 93.6597 54.4275 93.6597 57.1731V73.9555C93.6487 74.3724 93.5096 74.7758 93.2613 75.1109C93.013 75.446 92.6675 75.6964 92.2718 75.8283Z" fill="#37474F"/>
<path d="M92.7449 80.1678L91.7085 75.5919C91.7085 75.5919 91.7085 69.4159 90.8297 68.8462C89.9508 68.2764 89.6963 68.1673 89.6963 68.1673C90.8236 67.7795 93.1994 67.4885 93.9389 69.6583C94.648 71.7069 95.7086 76.7555 96.2117 79.2405L92.7449 80.1678Z" fill="#C0504F"/>
<path d="M92.6601 80.1921L89.1448 68.2219C90.7024 67.6159 92.7025 67.1128 93.6722 68.7189C94.545 70.1614 95.9389 77.7193 96.2117 79.2405L92.6601 80.1921Z" fill="#8E6E00"/>
<g opacity="0.4">
<path d="M92.6601 80.1921L89.1448 68.2219C90.7024 67.6159 92.7025 67.1128 93.6722 68.7189C94.545 70.1614 95.9389 77.7193 96.2117 79.2405L92.6601 80.1921Z" fill="black"/>
</g>
<path d="M93.1327 80.0648L89.678 80.9921C89.8171 80 90.1442 79.0435 90.6417 78.1739C91.3331 77.1775 92.328 76.4313 93.4781 76.0465C93.2292 77.3711 93.1134 78.7172 93.1327 80.0648Z" fill="#8E6E00"/>
<path d="M93.1327 80.0648L89.678 80.9921C89.8171 80 90.1442 79.0435 90.6417 78.1739C91.3331 77.1775 92.328 76.4313 93.4781 76.0465C93.2292 77.3711 93.1134 78.7172 93.1327 80.0648Z" fill="#8E6E00"/>
<g opacity="0.7">
<path d="M93.1327 80.0648L89.678 80.9921C89.8171 80 90.1442 79.0435 90.6417 78.1739C91.3331 77.1775 92.328 76.4313 93.4781 76.0465C93.2292 77.3711 93.1134 78.7172 93.1327 80.0648Z" fill="black"/>
</g>
<path d="M92.3934 80.2648L82.696 82.8528L81.6293 79.5496C81.6293 79.5496 84.4597 72.9252 80.9626 71.2221C81.4051 70.8887 85.1325 69.4341 85.1325 69.4341L89.1387 68.222C89.9023 68.0159 92.9873 69.3856 93.7691 72.4221C94.0479 73.4949 93.951 74.4586 92.3812 80.0466C92.3994 80.1194 92.3934 80.1921 92.3934 80.2648Z" fill="#8E6E00"/>
<path d="M91.5934 55.5003C92.2601 55.7427 93.0843 57.3185 93.0056 61.1187C92.9389 64.343 91.9692 65.3612 91.4843 65.7491C90.7581 66.1127 89.957 66.3016 89.1448 66.3006V68.2219C89.1448 68.2219 90.4055 69.4341 90.3267 70.3553C90.2479 71.2766 88.5084 71.9311 87.3326 71.3857C86.4738 70.9015 85.7312 70.2354 85.1568 69.4341V65.0097C85.0683 65.1117 84.9603 65.1951 84.8392 65.255C84.7182 65.3149 84.5864 65.3501 84.4516 65.3585C84.3168 65.367 84.1816 65.3486 84.054 65.3043C83.9264 65.26 83.8089 65.1908 83.7083 65.1006C83.519 64.971 83.3576 64.8048 83.2337 64.6118C83.1098 64.4188 83.0259 64.2028 82.9869 63.9768C82.9479 63.7508 82.9546 63.5192 83.0067 63.2958C83.0588 63.0724 83.1551 62.8618 83.2901 62.6763C83.8961 61.8823 84.9568 61.7672 85.3689 62.5611C85.882 61.3159 86.8002 60.2801 87.9751 59.6216C89.8903 58.458 90.9328 57.4216 91.5934 55.5003Z" fill="#DE6D6B"/>
<path d="M89.6721 61.2096C89.6748 61.3245 89.6418 61.4374 89.5778 61.5329C89.5138 61.6284 89.4219 61.7017 89.3145 61.7429C89.269 61.7587 89.2203 61.7631 89.1726 61.7559C89.1249 61.7486 89.0798 61.7298 89.041 61.7012C89.0022 61.6725 88.971 61.6349 88.95 61.5915C88.929 61.5481 88.9189 61.5002 88.9206 61.452C88.9179 61.3371 88.9509 61.2242 89.0149 61.1287C89.0789 61.0332 89.1709 60.9599 89.2782 60.9187C89.3237 60.9029 89.3725 60.8984 89.4201 60.9057C89.4678 60.913 89.513 60.9318 89.5518 60.9604C89.5905 60.989 89.6218 61.0267 89.6427 61.0701C89.6637 61.1135 89.6738 61.1614 89.6721 61.2096Z" fill="#37474F"/>
<path d="M89.769 63.9006L90.6418 63.9612C90.6162 64.0942 90.5468 64.2149 90.4447 64.3039C90.3425 64.3929 90.2135 64.4451 90.0781 64.4521C89.8357 64.4339 89.6963 64.1733 89.769 63.9006Z" fill="#C0504F"/>
<path d="M92.751 59.1489L91.9934 58.7913C92.0385 58.6741 92.1254 58.5777 92.2372 58.5206C92.3491 58.4636 92.4781 58.4499 92.5995 58.4822C92.6537 58.5156 92.7007 58.5595 92.7377 58.6112C92.7748 58.663 92.8011 58.7216 92.8152 58.7837C92.8293 58.8458 92.8309 58.9101 92.8199 58.9728C92.8089 59.0355 92.7855 59.0953 92.751 59.1489Z" fill="#37474F"/>
<path d="M88.5811 60.5671L89.3387 59.7974C89.2985 59.7565 89.2501 59.7246 89.1967 59.7038C89.1433 59.6829 89.0861 59.6736 89.0289 59.6765C88.9716 59.6794 88.9156 59.6943 88.8646 59.7204C88.8135 59.7464 88.7685 59.783 88.7326 59.8277C88.6275 59.9156 88.5552 60.0366 88.5277 60.1709C88.5002 60.3052 88.519 60.4449 88.5811 60.5671Z" fill="#37474F"/>
<path d="M92.575 60.1428C92.5785 60.2579 92.546 60.3713 92.4818 60.4669C92.4177 60.5626 92.3252 60.6357 92.2174 60.6762C92.1713 60.6922 92.1221 60.6966 92.0739 60.689C92.0257 60.6814 91.9801 60.6621 91.9412 60.6328C91.9023 60.6034 91.8712 60.5649 91.8506 60.5207C91.8301 60.4765 91.8208 60.4279 91.8235 60.3792C91.8217 60.2645 91.855 60.1519 91.9189 60.0566C91.9828 59.9613 92.0742 59.8878 92.181 59.8458C92.2271 59.8298 92.2764 59.8254 92.3246 59.833C92.3727 59.8406 92.4183 59.8599 92.4572 59.8892C92.4962 59.9186 92.5273 59.9571 92.5478 60.0013C92.5684 60.0455 92.5777 60.0941 92.575 60.1428Z" fill="#37474F"/>
<path d="M90.8052 60.3853L90.8597 62.7915L92.0537 62.0763L90.8052 60.3853Z" fill="#C0504F"/>
<path d="M89.1446 66.3007C88.187 66.4219 86.2112 66.3431 85.9021 65.5916C86.0142 65.9607 86.2607 66.2744 86.593 66.4704C87.1991 66.8583 89.1446 66.9431 89.1446 66.9431V66.3007Z" fill="#C0504F"/>
<path d="M82.7503 82.8468L82.3442 81.4043L83.4109 82.671L82.7503 82.8468Z" fill="#8E6E00"/>
<path d="M81.9566 83.0588C81.5213 80.9853 80.9318 78.9473 80.1929 76.9616C79.1747 74.1676 80.3141 71.7554 80.999 71.222C81.6838 70.6887 85.1688 69.4341 85.1688 69.4341C86.4295 73.0221 86.7749 77.8283 86.8052 81.7618L81.9566 83.0588Z" fill="#8E6E00"/>
<path opacity="0.4" d="M81.9566 83.0588C81.5213 80.9853 80.9318 78.9473 80.1929 76.9616C79.1747 74.1676 80.3141 71.7554 80.999 71.222C81.6838 70.6887 85.1688 69.4341 85.1688 69.4341C86.4295 73.0221 86.7749 77.8283 86.8052 81.7618L81.9566 83.0588Z" fill="black"/>
<path d="M80.2354 83.5194L76.7747 84.4467C76.6779 84.3816 76.5867 84.3086 76.502 84.2286C76.502 84.2286 78.1384 77.9132 78.6596 75.8161C79.1808 73.7191 79.5808 72.2766 80.987 71.222C83.5143 72.8645 82.3446 77.4283 82.3446 77.4283L80.2354 83.5194Z" fill="#8E6E00"/>
<path opacity="0.4" d="M80.2354 83.5194L76.7747 84.4467C76.6779 84.3816 76.5867 84.3086 76.502 84.2286C76.502 84.2286 78.1384 77.9132 78.6596 75.8161C79.1808 73.7191 79.5808 72.2766 80.987 71.222C83.5143 72.8645 82.3446 77.4283 82.3446 77.4283L80.2354 83.5194Z" fill="black"/>
<path d="M29.8456 43.1604V31.154C29.8092 28.8266 31.3245 26.4932 34.3973 24.7234C40.4581 21.2142 50.313 21.2142 56.3859 24.7234C59.4588 26.4932 60.974 28.8266 60.9376 31.154V43.118C60.9376 45.4332 59.4466 49.5728 56.3859 51.3365C50.3251 54.8457 40.4702 54.8457 34.3973 51.3365C31.3669 49.591 29.8517 45.4817 29.8456 43.1847V43.1604Z" fill="#EBEBEB"/>
<path d="M45.3918 16.2565L71.0472 31.0691L45.3918 45.8818L19.7363 31.0691L45.3918 16.2565Z" fill="#F5F5F5"/>
<path d="M32.5549 38.4694L45.1917 31.257C45.2439 31.2271 45.3014 31.2079 45.361 31.2002C45.4205 31.1926 45.481 31.1968 45.539 31.2126C45.597 31.2283 45.6513 31.2553 45.6988 31.2921C45.7463 31.3288 45.7862 31.3746 45.816 31.4267C45.8458 31.4788 45.8651 31.5363 45.8728 31.5959C45.8804 31.6555 45.8762 31.716 45.8604 31.774C45.8447 31.8319 45.8177 31.8862 45.7809 31.9338C45.7442 31.9813 45.6984 32.0211 45.6463 32.051L33.458 38.9906L32.5549 38.4694Z" fill="#E0E0E0"/>
<path d="M71.0473 31.0691V32.1297L45.3918 46.9363V45.8817L71.0473 31.0691Z" fill="#E6E6E6"/>
<path d="M19.7363 31.0691V32.1297L45.3918 46.9363V45.8817L19.7363 31.0691Z" fill="#F0F0F0"/>
<path d="M31.9185 39.1603L32.7003 39.6088C32.8185 39.4158 32.9831 39.2553 33.1791 39.1421L33.4518 38.9845L32.5609 38.4754C32.2977 38.6522 32.0781 38.8864 31.9185 39.1603Z" fill="#E0E0E0"/>
<path d="M60.9678 37.9482L45.3915 48.5243L29.8577 37.9724L45.3915 46.9363L60.9678 37.9482Z" fill="#E0E0E0"/>
<path d="M30.9185 51.6335C31.1359 51.7456 31.3769 51.8042 31.6216 51.8042C31.8662 51.8042 32.1072 51.7456 32.3246 51.6335L33.4822 59.1065C33.4822 60.5186 29.8154 60.5186 29.8154 59.1065L30.9185 51.6335Z" fill="#F5F5F5"/>
<path d="M30.8518 55.9003L30.6215 59.9974C30.5459 59.9745 30.4728 59.9441 30.4033 59.9065L30.8518 55.9003Z" fill="#EBEBEB"/>
<path d="M32.585 60.0277L32.1001 53.3608L32.8213 59.9308C32.7445 59.9678 32.6656 60.0001 32.585 60.0277Z" fill="#EBEBEB"/>
<path d="M31.7611 60.161H31.5308L31.652 54.8699L31.7611 60.161Z" fill="#EBEBEB"/>
<path d="M31.6157 52.2577C31.8843 52.251 32.1445 52.1622 32.3611 52.0032C32.4533 51.9352 32.5159 51.8345 32.5361 51.7218C32.5564 51.6091 32.5328 51.4929 32.4702 51.3971C32.4041 51.3028 32.3038 51.238 32.1906 51.2165C32.0774 51.1949 31.9603 51.2184 31.8642 51.2819C31.8065 51.3378 31.7293 51.3691 31.649 51.3691C31.5687 51.3691 31.4915 51.3378 31.4338 51.2819C31.3867 51.24 31.3313 51.2083 31.2713 51.1889C31.2112 51.1695 31.1478 51.1628 31.085 51.1693C31.0222 51.1757 30.9615 51.1952 30.9066 51.2264C30.8518 51.2576 30.8041 51.3 30.7665 51.3506C30.7289 51.4013 30.7022 51.4593 30.6883 51.5208C30.6743 51.5824 30.6733 51.6462 30.6853 51.7081C30.6974 51.7701 30.7222 51.8288 30.7582 51.8807C30.7942 51.9325 30.8406 51.9763 30.8944 52.0092C31.103 52.1653 31.3552 52.2522 31.6157 52.2577Z" fill="#E0E0E0"/>
<path d="M31.6456 51.094C31.705 51.0948 31.764 51.0838 31.8191 51.0617C31.8743 51.0395 31.9244 51.0066 31.9667 50.9648C32.009 50.9231 32.0426 50.8734 32.0655 50.8186C32.0884 50.7638 32.1002 50.7049 32.1002 50.6455V40.0512C32.1008 39.813 32.1638 39.5791 32.2829 39.3729C32.402 39.1666 32.573 38.9951 32.779 38.8754L45.6461 31.5418C45.7483 31.4833 45.8234 31.387 45.8551 31.2736C45.8869 31.1602 45.8728 31.0388 45.8158 30.9358C45.7874 30.8846 45.7492 30.8395 45.7032 30.8032C45.6573 30.7669 45.6046 30.7401 45.5482 30.7243C45.4919 30.7085 45.4329 30.7041 45.3748 30.7113C45.3167 30.7184 45.2606 30.7371 45.2098 30.7661L32.3123 38.1118C31.9685 38.3103 31.6829 38.5956 31.484 38.9391C31.2851 39.2827 31.1799 39.6724 31.179 40.0694V50.6637C31.1813 50.7226 31.1952 50.7805 31.22 50.834C31.2447 50.8876 31.2797 50.9357 31.3231 50.9756C31.3664 51.0156 31.4172 51.0466 31.4726 51.067C31.5279 51.0873 31.5867 51.0965 31.6456 51.094Z" fill="#FAFAFA"/>
<path d="M32.6398 50.6455C32.641 50.4487 32.5837 50.2559 32.4752 50.0917C32.3667 49.9274 32.2119 49.7991 32.0304 49.7229C31.8489 49.6468 31.6488 49.6262 31.4556 49.6639C31.2624 49.7015 31.0848 49.7957 30.9451 49.9345C30.8055 50.0733 30.7102 50.2504 30.6714 50.4433C30.6326 50.6363 30.6519 50.8365 30.7269 51.0184C30.802 51.2004 30.9294 51.356 31.093 51.4655C31.2565 51.575 31.449 51.6335 31.6458 51.6335C31.7761 51.6343 31.9052 51.6093 32.0257 51.56C32.1463 51.5107 32.2559 51.4381 32.3483 51.3463C32.4407 51.2544 32.514 51.1453 32.564 51.025C32.614 50.9047 32.6398 50.7758 32.6398 50.6455Z" fill="#F5F5F5"/>
<path d="M30.6639 50.7001C30.7053 50.8027 30.7684 50.8951 30.8487 50.9711C30.929 51.0471 31.0248 51.1049 31.1295 51.1405C31.2341 51.1762 31.3453 51.1889 31.4553 51.1777C31.5653 51.1666 31.6716 51.1318 31.767 51.0759C31.8887 51.0026 31.9894 50.899 32.0593 50.7753C32.1293 50.6516 32.166 50.5119 32.166 50.3698C32.166 50.2277 32.1293 50.088 32.0593 49.9643C31.9894 49.8406 31.8887 49.737 31.767 49.6637C31.9524 49.6893 32.1267 49.767 32.2697 49.8879C32.4126 50.0087 32.5183 50.1676 32.5744 50.3462C32.6306 50.5247 32.6348 50.7156 32.5867 50.8964C32.5385 51.0773 32.44 51.2408 32.3025 51.3678C32.1651 51.4949 31.9944 51.5803 31.8103 51.6141C31.6262 51.6478 31.4363 51.6286 31.2627 51.5587C31.0891 51.4887 30.9389 51.3709 30.8297 51.2189C30.7205 51.0669 30.6567 50.887 30.6458 50.7001H30.6639Z" fill="#EBEBEB"/>
<path d="M207.234 44.7968L202.549 42.0998L205.124 41.5543L207.688 43.3422L207.234 44.7968Z" fill="#E0E0E0"/>
<path d="M199.033 20.6566C199.033 13.3837 194.579 10.0078 189.106 13.1655L181.021 17.8323C175.566 20.99 171.099 29.4994 171.099 36.7966C171.099 37.0936 171.099 37.4027 171.099 37.6633C171.099 37.8269 171.099 37.9663 171.099 38.1239C171.099 38.2815 171.129 38.4088 171.142 38.5482C171.154 38.6876 171.178 38.8694 171.202 39.027C171.324 39.8883 171.54 40.7337 171.845 41.5483C171.972 41.8513 172.105 42.1544 172.251 42.4089C172.318 42.5495 172.395 42.6852 172.481 42.815L172.56 42.9423C172.695 43.1594 172.851 43.3624 173.026 43.5483C173.123 43.6574 173.214 43.7726 173.317 43.8756L173.633 44.1787C173.742 44.2635 173.845 44.3666 173.96 44.4514C174.069 44.5391 174.184 44.6181 174.305 44.6878L174.663 44.8939C175.126 45.1439 175.628 45.3139 176.148 45.3969C176.188 45.3871 176.229 45.3871 176.269 45.3969C176.408 45.3969 176.536 45.4272 176.675 45.4272C176.822 45.4393 176.97 45.4393 177.118 45.4272C177.507 45.4314 177.896 45.3887 178.275 45.2999C178.502 45.2548 178.727 45.1982 178.948 45.1302C179.656 44.9133 180.336 44.6121 180.972 44.2332L189.057 39.5664C189.611 39.2446 190.142 38.8841 190.645 38.4876C190.645 38.3906 190.645 38.3057 190.645 38.2148C190.645 38.1239 190.645 37.93 190.645 37.8209C190.645 37.5784 190.645 37.33 190.645 37.0815C190.627 30.8812 194.361 23.5658 199.033 20.6566Z" fill="#E0E0E0"/>
<path d="M200.397 15.4139L195.7 12.7108C195.73 12.7108 196.179 15.9776 196.179 15.9776L199.664 16.3897L200.397 15.4139Z" fill="#E0E0E0"/>
<path d="M178.693 47.1787L174.354 44.7181L176.966 43.5968L178.693 47.1787Z" fill="#E0E0E0"/>
<path d="M181.021 44.3059C180.99 46.102 180.413 47.8461 179.366 49.3061C179.172 49.5606 179.469 49.7849 179.687 49.6697C180.678 49.1557 181.556 48.4489 182.269 47.5908C183.64 45.9708 184.599 44.0432 185.063 41.9725L181.021 44.3059Z" fill="#E0E0E0"/>
<path d="M179.415 49.6576L184.112 52.3607C184.112 52.3607 186.748 50.1364 186.748 45.6332L181.651 45.2877C181.651 45.2877 181.53 48.2212 179.415 49.6576Z" fill="#E0E0E0"/>
<path d="M191.924 36.4087C191.924 36.635 191.924 36.8532 191.924 37.0633C191.924 37.1845 191.924 37.2875 191.924 37.4027C191.924 37.5178 191.924 37.6148 191.96 37.7239C191.997 37.833 191.96 37.9663 192.003 38.0876C192.073 38.6244 192.199 39.1526 192.379 39.6634C192.405 39.7564 192.437 39.8476 192.476 39.9361C192.52 40.0579 192.57 40.1772 192.627 40.2937C192.674 40.4063 192.729 40.5156 192.791 40.621C192.839 40.7266 192.895 40.8279 192.96 40.924L193.021 41.021C193.128 41.188 193.245 41.3479 193.373 41.4998C193.439 41.5881 193.512 41.6712 193.591 41.7483L193.821 41.9725C193.9 42.0462 193.983 42.1151 194.07 42.1786C194.153 42.2428 194.24 42.3015 194.33 42.3544C194.421 42.4089 194.506 42.4635 194.603 42.512L194.882 42.6453L195.173 42.7483C195.35 42.802 195.53 42.8465 195.712 42.8817H195.803C195.904 42.8909 196.005 42.8909 196.106 42.8817C196.215 42.894 196.325 42.894 196.433 42.8817C196.694 42.8816 196.954 42.8552 197.209 42.8029C197.414 42.7682 197.616 42.7216 197.815 42.6635C198.347 42.5004 198.858 42.2746 199.336 41.9907L205.397 38.4876C205.938 38.1756 206.447 37.8123 206.919 37.4027C207.088 37.2572 207.258 37.0996 207.428 36.9421C207.733 36.6574 208.023 36.356 208.294 36.039L208.682 35.6875C208.785 35.5663 208.882 35.439 208.985 35.3117C209.01 35.2676 209.041 35.2269 209.076 35.1905C209.48 34.6569 209.852 34.1004 210.191 33.5238C210.282 33.3722 210.367 33.2147 210.458 33.0571C210.549 32.8995 210.634 32.7419 210.719 32.5783C210.804 32.4146 210.882 32.251 210.967 32.0934L211.197 31.5964C211.276 31.4328 211.349 31.257 211.422 31.0994C211.549 30.8085 211.664 30.4934 211.767 30.2146C211.767 30.16 211.81 30.1055 211.828 30.0509C211.894 29.8812 211.949 29.7115 212.004 29.5418C212.113 29.2145 212.21 28.8872 212.307 28.5478C212.52 27.7512 212.68 26.9413 212.785 26.1235C212.785 25.9841 212.816 25.8508 212.834 25.7114C212.852 25.572 212.834 25.475 212.864 25.3538C212.894 25.2326 212.864 25.1113 212.864 24.9901C212.864 24.7639 212.864 24.5396 212.864 24.3174C212.864 18.8626 209.525 16.311 205.415 18.6808L199.355 22.19C195.264 24.5477 191.924 30.9297 191.924 36.4087Z" fill="#E0E0E0"/>
<path d="M215.052 21.0081L210.391 18.3293L208.634 19.5717L214.07 22.8627L215.052 21.0081Z" fill="#E0E0E0"/>
<path d="M199.051 45.0514L194.366 42.3543L198.039 41.2573L199.051 45.0514Z" fill="#E0E0E0"/>
<path d="M204.518 39.0754C204.518 40.0452 205.73 41.3664 207.118 41.6149C207.306 41.6513 207.258 42.0634 207.033 42.221C206.206 42.6703 205.252 42.8283 204.324 42.6695C203.722 42.6515 203.135 42.4737 202.624 42.1542C202.112 41.8347 201.695 41.385 201.415 40.8513L204.518 39.0754Z" fill="#8E6E00"/>
<path d="M193.797 15.8625L185.706 20.5354C180.251 23.6931 175.791 32.2025 175.791 39.4936C175.791 39.7967 175.791 40.0997 175.791 40.3664C175.791 40.53 175.791 40.6694 175.791 40.827C175.791 40.9846 175.821 41.1058 175.839 41.2452C175.857 41.3846 175.875 41.5785 175.9 41.7301C176.009 42.5881 176.212 43.4316 176.506 44.2453C176.633 44.5544 176.766 44.8514 176.912 45.112C176.979 45.2508 177.056 45.3845 177.142 45.512C177.168 45.5563 177.196 45.5988 177.227 45.6393C177.359 45.8683 177.513 46.0835 177.688 46.2817C177.785 46.3908 177.882 46.512 177.985 46.609L178.294 46.9121C178.403 46.9969 178.512 47.0999 178.621 47.1848C178.731 47.2711 178.846 47.3501 178.966 47.4212L179.33 47.6272C179.791 47.8763 180.291 48.0463 180.809 48.1303C180.848 48.1169 180.891 48.1169 180.93 48.1303C181.069 48.1303 181.203 48.1303 181.336 48.1303C181.484 48.1393 181.631 48.1393 181.779 48.1303C182.168 48.132 182.556 48.0893 182.936 48.003C183.163 47.9579 183.388 47.9012 183.609 47.8333C184.316 47.6145 184.995 47.3156 185.633 46.9424C185.603 48.7377 185.024 50.4807 183.973 51.9365C183.779 52.1971 184.076 52.4213 184.3 52.3062C185.292 51.7916 186.17 51.0825 186.882 50.2213C188.249 48.6011 189.207 46.6764 189.676 44.6089L189.07 44.9423L193.694 42.2755C194.142 42.0176 194.573 41.7322 194.985 41.421C194.95 41.2671 194.923 41.1113 194.906 40.9543C194.906 40.8512 194.87 40.6997 194.858 40.5421C194.836 40.4077 194.822 40.2721 194.815 40.1361V40.0633C194.809 39.9624 194.809 39.8612 194.815 39.7603C194.815 39.53 194.815 39.2875 194.815 39.0451C194.815 32.9116 198.452 25.9962 203.131 23.287L203.646 22.9839C203.598 15.9716 199.191 12.7472 193.797 15.8625Z" fill="#F0F0F0"/>
<path d="M210.131 21.3657L204.07 24.8688C199.967 27.2447 196.621 33.6267 196.621 39.1057C196.621 39.33 196.621 39.5481 196.621 39.7603C196.621 39.9724 196.621 39.9845 196.621 40.0997C196.621 40.2148 196.621 40.3118 196.652 40.4209C196.661 40.5409 196.678 40.6602 196.7 40.7785C196.767 41.318 196.893 41.8485 197.076 42.3604C197.099 42.4543 197.132 42.5456 197.173 42.6331C197.214 42.7532 197.263 42.8706 197.318 42.9846C197.367 43.0986 197.421 43.2099 197.482 43.318C197.532 43.4237 197.591 43.5251 197.658 43.621C197.672 43.6554 197.69 43.688 197.712 43.718C197.827 43.8877 197.943 44.0453 198.064 44.1968C198.134 44.2838 198.209 44.3667 198.288 44.4453L198.518 44.6695C198.597 44.7432 198.68 44.8121 198.767 44.8756C198.847 44.941 198.932 44.9998 199.021 45.0514C199.112 45.1059 199.197 45.1605 199.294 45.209L199.573 45.3423L199.864 45.4453C200.041 45.499 200.221 45.5435 200.403 45.5787H200.494C200.595 45.5879 200.696 45.5879 200.797 45.5787C200.908 45.594 201.02 45.594 201.131 45.5787C201.391 45.5802 201.651 45.5558 201.906 45.5059C202.111 45.4707 202.313 45.4242 202.512 45.3665C203.045 45.2058 203.556 44.9798 204.034 44.6938L206.082 43.518C206.366 44.0461 206.785 44.4896 207.296 44.8036C207.807 45.1176 208.392 45.2909 208.991 45.3059C209.92 45.4624 210.874 45.3023 211.701 44.8514C211.919 44.712 211.973 44.2998 211.779 44.2453C210.392 43.9968 209.185 42.6755 209.185 41.7058L210.107 41.1724C210.646 40.859 211.156 40.4958 211.628 40.0876C211.798 39.9421 211.967 39.7845 212.131 39.6269C212.438 39.3424 212.73 39.0409 213.004 38.7239C213.113 38.5966 213.222 38.4754 213.331 38.3299C213.44 38.1845 213.531 38.0875 213.634 37.9602L213.725 37.839C214.129 37.3054 214.501 36.7489 214.84 36.1723L215.113 35.7056C215.204 35.548 215.289 35.3904 215.374 35.2268C215.458 35.0631 215.531 34.8995 215.616 34.7419L215.852 34.2449C215.931 34.0752 215.998 33.9055 216.071 33.7479C216.198 33.457 216.319 33.1419 216.422 32.8631L216.477 32.6994C216.543 32.5297 216.604 32.36 216.652 32.1903C216.767 31.857 216.858 31.5357 216.961 31.1963C217.175 30.3998 217.335 29.5899 217.44 28.772C217.44 28.6326 217.471 28.4993 217.483 28.3599C217.495 28.2205 217.483 28.1174 217.513 28.0023C217.543 27.8871 217.513 27.7599 217.513 27.6386C217.513 27.4144 217.513 27.1841 217.513 26.9598C217.58 21.5233 214.234 18.9959 210.131 21.3657Z" fill="#F0F0F0"/>
<path d="M161.438 101.538C159.147 100.823 156.796 102.678 155.256 106.423C153.717 110.169 150.486 119.697 150.008 122.236C149.529 124.775 160.366 130.303 160.062 130.157C159.759 130.012 161.438 101.538 161.438 101.538Z" fill="#263238"/>
<path d="M156.402 189.699C156.075 189.82 155.996 190.438 155.947 191.663C155.911 192.59 155.711 194.208 156.796 194.529C157.881 194.851 159.475 194.687 160.172 193.814C161.038 192.723 161.626 191.766 162.863 190.432C163.941 189.281 165.099 188.202 165.535 186.584C165.929 185.117 165.602 184.487 164.602 184.062C163.232 183.456 161.075 185.384 160.002 185.687C159.075 185.947 156.723 189.578 156.402 189.699Z" fill="#263238"/>
<path d="M156.402 188.566V190.069C156.966 190.43 157.618 190.63 158.288 190.648C158.957 190.666 159.619 190.502 160.202 190.172C160.269 190.026 160.596 188.02 160.596 188.02L156.402 188.566Z" fill="#DE6D6B"/>
<path d="M168.578 198.366C168.578 198.366 168.147 199.675 167.917 200.79C167.729 201.699 167.469 203.215 167.784 203.906C168.099 204.596 169.347 205.033 171.269 205.015C172.517 205.015 174.463 205.857 175.79 206.597C177.117 207.336 180.033 207.669 181.481 207.5C183.19 207.3 184.966 206.287 185.245 205.597C185.524 204.906 185.154 204.148 181.118 202.427C181.081 202.427 175.505 200.608 173.548 198.445L168.578 198.366Z" fill="#263238"/>
<path d="M168.578 196.742C168.578 196.742 168.578 197.857 168.578 198.493C168.578 199.13 169.329 200.081 171.281 200.015C172.651 199.966 173.602 199.596 173.548 198.469V196.839L168.578 196.742Z" fill="#DE6D6B"/>
<path d="M155.42 168.607C155.755 165.943 156.35 163.319 157.196 160.771C157.196 160.771 156.662 154.013 156.402 147.607C156.123 140.685 156.402 131.982 156.287 130.261C156.287 130.261 178.621 125.739 179.021 133.739C179.421 141.74 178.136 162.104 177.875 165.619C177.615 169.135 177.003 172.244 176.275 177.941C175.548 183.638 173.548 196.839 173.548 196.839C172.775 197.232 171.918 197.429 171.051 197.413C170.184 197.396 169.335 197.165 168.578 196.742C168.578 196.742 167.008 180.741 167.172 176.686C167.3 173.675 167.817 170.692 168.711 167.813L167.917 155.48C167.542 149.74 167.148 146.994 167.057 144.491L166.578 144.249C166.578 144.249 166.087 154.152 165.826 157.668C165.566 161.183 165.002 164.553 164.008 171.08C163.123 176.741 160.499 188.723 160.499 188.723C157.947 190.105 156.426 188.547 156.426 188.547C156.426 188.547 154.741 173.517 155.42 168.607Z" fill="#455A64"/>
<path d="M167.057 144.509C167.057 144.509 161.638 141.837 158.929 139.431C158.929 139.431 161.444 142.976 164.754 144.552C164.754 144.552 165.929 156.849 165.923 156.607L166.602 144.485L167.057 144.509Z" fill="#37474F"/>
<path d="M171.881 99.0048L170.56 106.278L163.99 105.799L165.366 97.5502L171.881 99.0048Z" fill="#DE6D6B"/>
<path d="M157.05 105.266C157.699 103.29 160.208 101.138 162.717 101.629C166.449 102.261 170.127 103.178 173.717 104.375C176.015 105.193 178.106 107.181 178.299 114.745L179.463 137.267L176.681 137.873L175.712 132.77L175.263 137.873C172.354 138.6 167.305 138 163.99 137.267C157.081 135.758 156.25 132.891 156.25 132.891C156.25 132.891 156.159 120.218 156.365 114.745C156.559 110.066 156.602 106.599 157.05 105.266Z" fill="#37474F"/>
<path d="M176.742 90.3864C176.742 90.3864 178.336 92.7441 178.13 92.9926C177.761 93.2409 177.35 93.4196 176.917 93.5199L176.742 90.3864Z" fill="#DE6D6B"/>
<path d="M171.881 82.9194C173.415 83.6952 176.063 85.1256 176.79 90.7318C177.542 96.4896 176.554 98.3442 175.778 99.1079C175.251 99.623 172.39 99.6533 170.96 99.223C169.142 98.6836 165.129 97.1502 163.287 94.1925C161.117 90.7136 160.632 86.0528 163.081 84.1982C166.517 81.5921 170.584 82.2648 171.881 82.9194Z" fill="#DE6D6B"/>
<path d="M177.111 84.8468C176.608 86.2287 175.76 89.6106 172.232 91.0228C172.232 91.0228 171.729 88.8651 169.917 89.0954C168.105 89.3258 167.796 91.6349 168.911 93.0713C170.026 94.5078 171.105 93.9865 171.105 93.9865C171.105 93.9865 171.348 97.0775 169.287 98.4776C169.287 98.4776 166.796 100.053 164.159 98.8412C162.947 98.2958 161.293 95.4532 160.311 93.1198C158.226 88.1863 157.929 84.2286 161.074 82.9801C161.462 80.7376 162.475 79.8951 164.505 79.4769C168.875 78.5739 172.178 81.4467 175.851 80.9436C177.772 80.677 177.687 83.271 177.111 84.8468Z" fill="#37474F"/>
<path d="M161.002 83.7316L158.941 82.4588C159.021 82.316 159.129 82.1909 159.258 82.0909C159.388 81.991 159.536 81.9183 159.695 81.8772C159.853 81.8361 160.018 81.8275 160.18 81.8519C160.342 81.8764 160.497 81.9333 160.636 82.0192C160.775 82.1052 160.896 82.2185 160.99 82.3522C161.084 82.4859 161.15 82.6373 161.185 82.7973C161.219 82.9573 161.22 83.1226 161.189 83.2831C161.157 83.4437 161.094 83.5963 161.002 83.7316Z" fill="#37474F"/>
<path d="M171.396 101.653L172.148 103.829C172.148 103.829 171.596 104.799 169.251 104.847C166.905 104.896 164.402 104.15 163.626 103.15C163.45 102.955 163.319 102.722 163.243 102.469C163.168 102.217 163.15 101.95 163.19 101.69C163.19 101.69 164.123 99.6291 165.008 99.72L164.863 100.617C164.863 100.617 165.063 101.35 167.19 101.914C170.499 102.793 171.396 101.653 171.396 101.653Z" fill="#455A64"/>
<path d="M190.245 116.115C191.191 115.03 191.555 112.624 192.815 110.975C194.076 109.326 194.542 108.12 195.039 108.842C195.7 109.793 194.209 111.702 194.542 111.872C194.876 112.042 196.106 114.575 196.233 115.969C196.361 117.363 192.664 120.878 192.664 120.878L190.245 116.115Z" fill="#DE6D6B"/>
<path d="M171.396 101.653C171.548 101.65 171.699 101.689 171.831 101.765C171.964 101.84 172.073 101.951 172.148 102.084C172.518 102.753 172.85 103.443 173.141 104.15L172.148 103.829L171.396 101.653Z" fill="#455A64"/>
<path d="M194.439 111.678C194.439 111.678 198.906 111.29 199.555 111.678C200.203 112.066 200.009 113.999 199.555 115.187C199.1 116.375 196.821 117.145 194.706 118.575C194.706 118.357 194.439 111.678 194.439 111.678Z" fill="#DE6D6B"/>
<path d="M173.142 104.175C175.063 104.847 176.742 105.617 178.536 108.987C180.839 113.314 185.203 120.236 185.203 120.236L190.227 115.805C190.227 115.805 190.985 115.072 192.397 117.406C192.811 118.034 193.073 118.749 193.162 119.496C193.251 120.243 193.166 121.001 192.912 121.709C192.912 121.709 187.112 128.515 186.003 129.551C184.894 130.588 183.057 129.782 181.863 128.151C180.669 126.521 173.123 117.096 173.123 117.096C173.123 117.096 169.026 111.654 173.142 104.175Z" fill="#37474F"/>
<path d="M224.968 92.8591H210.658C210.118 92.8591 209.6 92.6446 209.218 92.2627C208.836 91.8808 208.622 91.3628 208.622 90.8227V68.0886C208.622 66.2995 209.332 64.5837 210.597 63.3186C211.863 62.0536 213.578 61.3429 215.367 61.3429H220.277C222.063 61.3477 223.774 62.0605 225.035 63.3251C226.296 64.5896 227.004 66.3026 227.004 68.0886V90.8227C227.004 91.3628 226.79 91.8808 226.408 92.2627C226.026 92.6446 225.508 92.8591 224.968 92.8591Z" fill="#37474F"/>
<path d="M208.246 85.1013C206.858 89.1924 204.531 100.962 204.531 100.962C204.531 100.962 199.682 106.89 198.1 108.326C197.233 109.126 195.282 110.563 195.282 110.563L198.827 113.169C202.029 110.707 205.035 108.002 207.822 105.078C208.441 104.418 208.876 103.607 209.082 102.726L211.507 92.3258C211.507 92.3258 211.507 83.9619 212.785 82.8649C214.064 81.7679 214.434 81.5376 214.434 81.5376C212.791 81.4163 209.337 81.883 208.246 85.1013Z" fill="#C0504F"/>
<path d="M215.191 81.4163C212.931 81.1557 210.034 81.2042 208.621 83.7316C207.209 86.2589 204.858 99.3261 204.858 99.3261C204.858 99.3261 207.082 101.053 209.482 101.023L215.191 81.4163Z" fill="#8E6E00"/>
<path d="M208.907 93.5926C209.314 95.5405 209.471 97.5324 209.374 99.5201C209.198 102.138 207.392 106.708 207.392 106.708C207.392 106.708 208.804 108.26 212.786 107.636C216.028 107.132 214.883 97.3321 213.022 95.4533C211.937 94.3322 210.465 93.6668 208.907 93.5926Z" fill="#8E6E00"/>
<path opacity="0.3" d="M208.907 93.5926C209.314 95.5405 209.471 97.5324 209.374 99.5201C209.198 102.138 207.392 106.708 207.392 106.708C207.392 106.708 208.804 108.26 212.786 107.636C216.028 107.132 214.883 97.3321 213.022 95.4533C211.937 94.3322 210.465 93.6668 208.907 93.5926Z" fill="black"/>
<path d="M216.398 162.807C216.423 163.254 216.311 163.698 216.077 164.08C215.477 165.07 214.772 165.993 213.973 166.831C212.852 168.044 211.173 169.468 209.967 170.516C209.301 171.123 209.276 171.983 210.234 172.292C212.019 172.727 213.902 172.465 215.501 171.559C216.713 170.916 218.398 167.922 219.392 167.498C220.537 166.983 221.174 166.728 221.562 166.201C221.855 165.901 222.038 165.511 222.081 165.094C222.124 164.677 222.024 164.257 221.798 163.904C221.259 162.898 220.446 161.352 220.113 161.528L220.216 161.843C219.955 162.662 217.725 163.613 216.58 163.389L216.398 162.807Z" fill="#37474F"/>
<path d="M228.077 128.612C228.592 123.157 230.071 114.381 228.556 107.884L208.434 108.951C207.876 115.357 207.222 135.358 207.925 137.649C208.737 140.352 215.992 159.062 216.41 162.825C216.439 163.267 216.326 163.706 216.089 164.08C215.49 165.073 214.785 165.997 213.985 166.838C213.44 167.444 212.773 168.05 212.07 168.656C212.011 168.742 211.976 168.842 211.967 168.947C211.967 169.553 213.495 169.741 214.392 169.48C215.51 169.085 216.474 168.344 217.143 167.365C217.658 166.68 218.816 165.365 219.567 164.377C219.818 164.072 220.032 163.738 220.204 163.383C220.405 162.939 220.439 162.438 220.301 161.971L220.252 161.819C219.859 160.592 219.615 159.323 219.525 158.037C219.246 153.91 218.537 144.376 217.883 141.837C217.428 139.986 216.738 138.202 215.828 136.527L218.125 118.654C218.125 118.654 218.367 134.412 219.083 138.43C219.646 141.649 219.864 145.673 220.525 151.195C221.131 156.48 221.834 165.789 221.834 165.789C221.852 165.792 221.871 165.792 221.889 165.789V170.238H225.653V167.656C225.653 166.49 225.75 165.326 225.943 164.177C226.55 160.662 227.81 152.619 228.071 149.898C228.483 145.582 226.925 140.158 226.925 140.158C226.925 140.158 227.574 133.933 228.077 128.612Z" fill="#DE6D6B"/>
<path d="M220.986 81.6042C220.986 81.6042 226.398 82.2103 227.047 82.5194C221.968 86.0892 226.083 94.0349 226.083 94.0349L224.137 100.138C226.301 102.908 228.168 104.556 229.325 107.593C230.61 110.987 231.75 116.036 231.447 126.382C226.598 130.018 211.846 129.624 206.1 126.382C206.1 126.382 207.07 117.248 208.216 110.151C208.973 105.466 210.761 100.362 210.458 98.6351C208.179 91.6288 208.034 90.3681 208.446 88.8044C209.579 84.4043 214.064 81.4284 215.167 81.4284L220.986 81.6042Z" fill="#8E6E00"/>
<path opacity="0.6" d="M220.986 81.6042C220.986 81.6042 226.398 82.2103 227.047 82.5194C221.968 86.0892 226.083 94.0349 226.083 94.0349L224.137 100.138C226.301 102.908 228.168 104.556 229.325 107.593C230.61 110.987 231.75 116.036 231.447 126.382C226.598 130.018 211.846 129.624 206.1 126.382C206.1 126.382 207.07 117.248 208.216 110.151C208.973 105.466 210.761 100.362 210.458 98.6351C208.179 91.6288 208.034 90.3681 208.446 88.8044C209.579 84.4043 214.064 81.4284 215.167 81.4284L220.986 81.6042Z" fill="#E7D085"/>
<path d="M221.852 168.353V167.813C221.38 169.626 220.434 171.28 219.113 172.607C217.901 173.704 216.264 174.977 215.84 176.208C215.416 177.438 217.786 177.989 219.349 177.832C220.864 177.647 222.26 176.916 223.277 175.777C224.271 174.638 224.252 173.862 224.713 173.232C225.174 172.601 226.246 171.91 226.495 171.183C226.573 170.504 226.498 169.817 226.277 169.171C226.101 168.498 225.907 167.753 225.671 167.813V168.231C225.125 168.661 224.449 168.889 223.755 168.88C223.228 168.892 221.846 168.777 221.852 168.353Z" fill="#37474F"/>
<path d="M225.653 168.219C225.107 168.649 224.431 168.877 223.737 168.868C223.18 168.868 221.822 168.777 221.828 168.353V167.813C221.355 169.626 220.41 171.28 219.089 172.607L218.174 173.426C217.531 174.141 217.713 174.765 219.222 174.892C220.731 175.02 222.059 174.111 223.198 172.71C224.169 171.302 224.992 169.797 225.653 168.219Z" fill="#DE6D6B"/>
<path d="M211.64 65.0582C210.67 65.634 209.47 68.0886 209.586 73.1918C209.689 77.5314 211.095 78.6042 211.804 78.9133C212.513 79.2224 213.871 79.0345 215.192 78.8163V81.4164C215.192 81.4164 213.374 83.5437 213.477 84.7377C213.58 85.9317 216.119 86.2105 217.834 85.0468C219.073 84.0865 220.139 82.9224 220.986 81.6043L220.956 75.6222C220.956 75.6222 221.738 76.3738 223.059 75.2222C224.15 74.2707 224.513 72.6585 223.665 71.7979C223.445 71.5907 223.178 71.4393 222.887 71.3561C222.596 71.2729 222.29 71.2605 221.993 71.3198C221.697 71.3791 221.419 71.5085 221.182 71.697C220.946 71.8856 220.758 72.128 220.634 72.4039C220.634 72.4039 219.901 70.3614 216.853 69.3735C214.101 68.4583 212.604 67.4219 211.64 65.0582Z" fill="#DE6D6B"/>
<path d="M214.434 72.1069C214.434 72.2138 214.466 72.3182 214.525 72.4073C214.584 72.4964 214.667 72.5663 214.766 72.6082C214.864 72.6501 214.972 72.6622 215.077 72.643C215.182 72.6239 215.28 72.5743 215.357 72.5004C215.434 72.4265 215.488 72.3316 215.511 72.2274C215.535 72.1233 215.528 72.0145 215.49 71.9145C215.453 71.8145 215.386 71.7277 215.3 71.665C215.214 71.6022 215.111 71.5662 215.004 71.5615C214.931 71.5599 214.858 71.5727 214.789 71.5992C214.721 71.6258 214.659 71.6655 214.606 71.7162C214.553 71.7668 214.511 71.8274 214.481 71.8945C214.452 71.9615 214.436 72.0337 214.434 72.1069Z" fill="#37474F"/>
<path d="M214.288 75.7797L213.022 76.1858C213.044 76.2704 213.083 76.3495 213.137 76.4186C213.19 76.4876 213.257 76.5451 213.334 76.5875C213.41 76.63 213.495 76.6566 213.582 76.6657C213.668 76.6747 213.756 76.6661 213.84 76.6404C214.011 76.582 214.153 76.4601 214.237 76.2998C214.32 76.1396 214.339 75.9533 214.288 75.7797Z" fill="#C0504F"/>
<path d="M209.961 70.4281L211.064 69.6644C211.018 69.5898 210.956 69.5255 210.884 69.4754C210.812 69.4253 210.73 69.3903 210.644 69.3728C210.558 69.3552 210.469 69.3553 210.383 69.3732C210.297 69.391 210.215 69.4262 210.143 69.4765C209.995 69.5806 209.894 69.738 209.86 69.9156C209.826 70.0931 209.862 70.2769 209.961 70.4281Z" fill="#37474F"/>
<path d="M216.022 70.8403L214.913 70.0766C214.959 70.0022 215.021 69.938 215.093 69.8877C215.165 69.8375 215.246 69.8023 215.332 69.7842C215.418 69.7661 215.507 69.7655 215.593 69.7824C215.679 69.7993 215.761 69.8334 215.834 69.8826C215.981 69.9888 216.082 70.1467 216.116 70.3244C216.151 70.5022 216.117 70.6865 216.022 70.8403Z" fill="#37474F"/>
<path d="M210.216 71.7069C210.215 71.814 210.245 71.919 210.303 72.0089C210.362 72.0988 210.445 72.1696 210.543 72.2124C210.641 72.2552 210.75 72.2682 210.855 72.2497C210.961 72.2313 211.059 72.1822 211.136 72.1085C211.214 72.0349 211.268 71.94 211.293 71.8357C211.317 71.7314 211.31 71.6223 211.272 71.5219C211.235 71.4216 211.169 71.3345 211.082 71.2714C210.996 71.2084 210.893 71.1723 210.786 71.1675C210.639 71.1642 210.496 71.219 210.39 71.3201C210.283 71.4211 210.221 71.5601 210.216 71.7069Z" fill="#37474F"/>
<path d="M212.786 71.3979L212.701 74.6829L210.973 74.1495L212.786 71.3979Z" fill="#C0504F"/>
<path d="M215.192 78.8163C216.586 78.6284 219.434 77.8041 219.907 76.6707C219.727 77.2448 219.376 77.7502 218.901 78.1193C218.04 78.8526 215.192 79.6829 215.192 79.6829V78.8163Z" fill="#C0504F"/>
<path d="M225.077 96.8109L221.252 101.987L224.137 100.138L225.077 96.8109Z" fill="#8E6E00"/>
<path d="M194.949 110.563C194.13 111.617 193.627 113.666 193.197 114.357C192.767 115.048 192.251 115.648 193.197 115.775C194.142 115.902 195.524 114.054 196.039 112.933C196.3 112.3 196.792 111.791 197.415 111.508C196.973 111.357 197.203 109.581 196.894 109.333C196.894 109.333 195.282 109.993 194.949 110.563Z" fill="#C0504F"/>
<path d="M194.706 118.563C195.561 117.927 195.591 117.145 195.755 115.902C195.918 114.66 199.343 113.314 199.452 114.242C199.561 115.169 199.87 115.945 198.846 117.072C197.822 118.199 196.27 119.399 194.706 118.563Z" fill="#C0504F"/>
<path d="M220.986 81.6042C220.986 81.6042 226.052 82.0467 227.046 82.5194C228.04 82.9922 229.695 85.8529 228.216 90.0045C226.737 94.1562 225.392 99.0412 225.543 100.023C225.695 101.005 229.228 106.084 229.228 106.084C228.253 106.803 227.151 107.332 225.98 107.642L224.162 103.69L224.586 107.89C222.759 108.334 220.883 108.538 219.004 108.496C219.004 108.496 217.289 92.3622 220.986 81.6042Z" fill="#8E6E00"/>
<path d="M233.471 101.393C233.877 99.0049 233.471 98.223 232.635 95.8835L228.392 98.6291C228.74 99.5122 228.945 100.445 228.998 101.393C228.962 102.084 228.023 108.932 227.144 111.32C226.985 111.745 226.674 112.095 226.271 112.302C225.397 112.836 224.605 113.493 223.919 114.254C223.271 114.86 222.75 114.969 222.816 115.175C222.916 115.399 223.096 115.577 223.319 115.677C223.543 115.776 223.795 115.79 224.028 115.715C224.556 115.543 225.063 115.311 225.538 115.024C225.117 115.915 224.556 116.733 223.877 117.448C222.319 119.109 222.18 120.187 225.089 120.412C226.907 120.551 228.429 119.533 230.071 115.624C230.58 114.191 230.999 112.727 231.326 111.242C232.211 107.854 233.071 103.799 233.471 101.393Z" fill="#DE6D6B"/>
<path d="M227.047 82.5194C229.089 83.4346 229.671 85.2407 230.429 87.8954C231.186 90.55 233.562 98.5139 233.562 98.5139C233.562 98.5139 231.526 100.938 228.713 100.259L225.077 91.4288C225.077 91.4288 223.38 85.665 227.047 82.5194Z" fill="#8E6E00"/>
</svg>
