<svg width="265" height="233" viewBox="0 0 265 233" fill="none" xmlns="http://www.w3.org/2000/svg">
<path d="M173.333 208.783H157.428V208.939H173.333V208.783Z" fill="#B5AFAF"/>
<path d="M260.648 212.163H222.959V212.319H260.648V212.163Z" fill="#B5AFAF"/>
<path d="M154.039 208.858H115.101V209.014H154.039V208.858Z" fill="#B5AFAF"/>
<path d="M89.8534 213.531H81.7073V213.687H89.8534V213.531Z" fill="#B5AFAF"/>
<path d="M134.861 213.531H97.7661V213.687H134.861V213.531Z" fill="#B5AFAF"/>
<path d="M32.9223 210.894H8.90234V211.051H32.9223V210.894Z" fill="#B5AFAF"/>
<path d="M124.185 176.667H3.56083C2.61586 176.665 1.71017 176.289 1.04256 175.62C0.374957 174.951 -1.44915e-06 174.045 0 173.1V3.53583C0.0082261 2.59629 0.386814 1.69794 1.05353 1.0359C1.72025 0.37386 2.62125 0.00160948 3.56083 0H124.185C125.131 0 126.039 0.375815 126.708 1.04477C127.377 1.71373 127.752 2.62102 127.752 3.56707V173.1C127.752 174.046 127.377 174.953 126.708 175.622C126.039 176.291 125.131 176.667 124.185 176.667ZM3.56083 0.124942C2.65728 0.126596 1.79131 0.486686 1.153 1.12617C0.514679 1.76566 0.156175 2.63229 0.156177 3.53583V173.1C0.156175 174.003 0.514679 174.87 1.153 175.509C1.79131 176.149 2.65728 176.509 3.56083 176.511H124.185C125.089 176.509 125.956 176.149 126.595 175.51C127.235 174.87 127.595 174.004 127.596 173.1V3.53583C127.595 2.63172 127.235 1.7651 126.595 1.12579C125.956 0.486483 125.089 0.126593 124.185 0.124942H3.56083Z" fill="#B5AFAF"/>
<path d="M259.317 176.667H138.687C137.741 176.665 136.835 176.289 136.166 175.62C135.498 174.952 135.121 174.045 135.12 173.1V3.53583C135.129 2.59572 135.509 1.69737 136.177 1.03551C136.845 0.373642 137.747 0.00159193 138.687 0H259.317C260.256 0.00325128 261.155 0.376228 261.821 1.03809C262.486 1.69995 262.864 2.59737 262.872 3.53583V173.1C262.872 174.044 262.498 174.949 261.832 175.618C261.165 176.286 260.261 176.663 259.317 176.667ZM138.687 0.124942C137.783 0.126593 136.916 0.486483 136.277 1.12579C135.637 1.7651 135.277 2.63172 135.276 3.53583V173.1C135.277 174.004 135.637 174.87 136.277 175.51C136.916 176.149 137.783 176.509 138.687 176.511H259.317C260.222 176.509 261.088 176.149 261.728 175.51C262.367 174.87 262.727 174.004 262.728 173.1V3.53583C262.727 2.63172 262.367 1.7651 261.728 1.12579C261.088 0.486483 260.222 0.126593 259.317 0.124942H138.687Z" fill="#B5AFAF"/>
<path d="M51.4819 125.922C51.4819 125.922 51.207 134.043 40.4746 134.043C29.7422 134.043 29.4673 125.922 29.4673 125.922H51.4819Z" fill="#6C5300"/>
<path d="M77.5012 125.922C77.5012 125.922 77.2201 134.043 66.4939 134.043C55.7677 134.043 55.4866 125.922 55.4866 125.922H77.5012Z" fill="#6C5300"/>
<path d="M45.3306 139.403H20.6985V198.994H45.3306V139.403Z" fill="#6C5300"/>
<path d="M105.082 198.994H25.426V204.528H105.082V198.994Z" fill="#6C5300"/>
<path d="M45.3293 199H109.812L109.812 139.41H45.3293L45.3293 199Z" fill="white"/>
<path d="M55.0191 164.991H100.129V146.656H55.0191V164.991Z" fill="#6C5300"/>
<path d="M55.0191 188.549H100.129V170.214H55.0191V188.549Z" fill="#6C5300"/>
<path d="M113.092 134.062H45.3306V139.403H113.092V134.062Z" fill="#6C5300"/>
<path d="M17.2563 139.409H45.3306V134.068H17.2563V139.409Z" fill="#6A7073"/>
<path d="M221.078 13.0939H95.5435V103.214H221.078V13.0939Z" fill="#E1D5D5"/>
<path d="M102.684 103.214L134.619 13.0939H158.583L126.648 103.214H102.684Z" fill="#DDD7D7"/>
<path d="M167.122 103.214L199.05 13.0939H207.79L175.861 103.214H167.122Z" fill="#DDD7D7"/>
<path d="M227.064 9.99524H89.56C89.412 9.99523 89.2699 10.0536 89.1647 10.1577C89.0594 10.2618 88.9994 10.4032 88.9978 10.5512C88.9978 10.6251 89.0123 10.6982 89.0406 10.7664C89.0689 10.8346 89.1103 10.8966 89.1625 10.9488C89.2147 11.001 89.2767 11.0424 89.3449 11.0707C89.4131 11.0989 89.4862 11.1135 89.56 11.1135H227.064C227.138 11.1135 227.211 11.0989 227.279 11.0707C227.347 11.0424 227.409 11.001 227.462 10.9488C227.514 10.8966 227.555 10.8346 227.583 10.7664C227.612 10.6982 227.626 10.6251 227.626 10.5512C227.625 10.4032 227.565 10.2618 227.459 10.1577C227.354 10.0536 227.212 9.99523 227.064 9.99524Z" fill="#6A7073"/>
<path d="M157.572 103.407H159.058V12.8998H157.572V103.407Z" fill="#6C5300"/>
<path d="M159.051 103.407H159.794V12.8998H159.051V103.407Z" fill="#6A7073"/>
<path d="M94.6743 57.4164V58.9032L221.946 58.9032V57.4164L94.6743 57.4164Z" fill="#6C5300"/>
<path d="M221.946 102.595V12.2255H94.6743V102.595V104.082H221.946V102.595ZM96.1611 102.595V13.7435H220.478V102.595H96.1611Z" fill="#6C5300"/>
<path d="M221.946 104.082H222.689V12.2251H221.946V104.082Z" fill="#6A7073"/>
<path opacity="0.5" d="M203.492 8.63361V114.465H230.361L225.432 8.63361H203.492Z" fill="#B5AFAF"/>
<path opacity="0.5" d="M113.872 8.63361V114.465H87.0034L91.9323 8.63361H113.872Z" fill="#B5AFAF"/>
<path d="M262.901 128.483H130.989V150.229H262.901V128.483Z" fill="#B5AFAF"/>
<path d="M261.31 129.776H212.783V148.936H261.31V129.776Z" fill="white"/>
<path d="M211.058 129.776H162.531V148.936H211.058V129.776Z" fill="white"/>
<path d="M157.759 204.529H154.848L161.076 150.229H163.987L157.759 204.529Z" fill="white"/>
<path d="M132.1 204.529H129.183L135.411 150.229H138.328L132.1 204.529Z" fill="white"/>
<path d="M236.126 204.529H239.044L232.815 150.229H229.898L236.126 204.529Z" fill="white"/>
<path d="M261.784 204.529H264.701L258.473 150.229H255.555L261.784 204.529Z" fill="white"/>
<path d="M194.634 104.532H184.432L180.184 128.484H190.386L194.634 104.532Z" fill="#6A7073"/>
<path d="M217.323 83.7104H160.269L162.005 118.419H219.06L217.323 83.7104Z" fill="#6A7073"/>
<path d="M216.01 84.5352H161.661L163.316 117.595H217.666L216.01 84.5352Z" fill="#E1D5D5"/>
<path d="M231.723 125.585H232.828C233.077 125.585 233.278 125.383 233.278 125.135V125.11C233.278 124.861 233.077 124.66 232.828 124.66H231.723C231.474 124.66 231.273 124.861 231.273 125.11V125.135C231.273 125.383 231.474 125.585 231.723 125.585Z" fill="#6A7073"/>
<path d="M253.432 85.4223L241.062 97.7915C239.422 96.1512 238.501 93.9265 238.501 91.6069C238.501 89.2872 239.422 87.0625 241.062 85.4223C242.703 83.782 244.927 82.8605 247.247 82.8605C249.567 82.8605 251.791 83.782 253.432 85.4223Z" fill="#6A7073"/>
<path d="M236.253 86.8338L241.075 91.6565L247.322 85.4094L242.5 80.5929C242.09 80.1819 241.603 79.8558 241.067 79.6333C240.531 79.4108 239.956 79.2963 239.376 79.2963C238.796 79.2963 238.221 79.4108 237.685 79.6333C237.149 79.8558 236.662 80.1819 236.253 80.5929C235.842 81.0025 235.517 81.489 235.295 82.0244C235.073 82.5598 234.959 83.1337 234.959 83.7134C234.959 84.293 235.073 84.8669 235.295 85.4023C235.517 85.9377 235.842 86.4241 236.253 86.8338Z" fill="#6A7073"/>
<path d="M214.932 100.361L215.67 101.099L236.255 80.5141L235.517 79.7764L214.932 100.361Z" fill="#6A7073"/>
<path d="M229.612 126.138L230.51 125.605L215.66 100.566L214.763 101.098L229.612 126.138Z" fill="#6A7073"/>
<path d="M236.253 82.4173C237.246 82.4173 238.052 81.6118 238.052 80.6181C238.052 79.6245 237.246 78.819 236.253 78.819C235.259 78.819 234.454 79.6245 234.454 80.6181C234.454 81.6118 235.259 82.4173 236.253 82.4173Z" fill="#6A7073"/>
<path d="M215.279 101.902C215.914 101.902 216.429 101.387 216.429 100.752C216.429 100.118 215.914 99.603 215.279 99.603C214.644 99.603 214.13 100.118 214.13 100.752C214.13 101.387 214.644 101.902 215.279 101.902Z" fill="#6A7073"/>
<path d="M225.543 125.116H234.021L234.689 128.483H224.881L225.543 125.116Z" fill="#6A7073"/>
<path d="M132.306 232.74C199.201 232.74 253.43 229.574 253.43 225.668C253.43 221.763 199.201 218.597 132.306 218.597C65.4111 218.597 11.1819 221.763 11.1819 225.668C11.1819 229.574 65.4111 232.74 132.306 232.74Z" fill="white"/>
<path d="M190.598 122.936H41.5742C39.5744 122.921 37.6581 122.132 36.2278 120.734C34.7974 119.336 33.9641 117.439 33.9028 115.44L31.9475 31.0293C31.9224 30.0527 32.0934 29.0811 32.4503 28.1717C32.8071 27.2624 33.3427 26.4338 34.0252 25.7349C34.7077 25.0361 35.5235 24.4811 36.4241 24.1029C37.3248 23.7247 38.2922 23.5308 39.269 23.5328H188.293C190.293 23.548 192.209 24.3374 193.639 25.7351C195.069 27.1328 195.903 29.0303 195.964 31.0293L197.901 115.44C197.926 116.415 197.755 117.385 197.4 118.293C197.044 119.201 196.51 120.029 195.829 120.727C195.149 121.426 194.335 121.981 193.437 122.36C192.538 122.74 191.573 122.936 190.598 122.936Z" fill="#A57E00"/>
<path d="M190.598 123.248H41.574C39.4947 123.233 37.5022 122.412 36.0157 120.958C34.5291 119.504 33.6642 117.53 33.6028 115.452L31.6349 31.0355C31.6082 30.0172 31.786 29.0039 32.1579 28.0555C32.5298 27.1071 33.0882 26.243 33.8 25.5143C34.5118 24.7856 35.3626 24.2072 36.3019 23.8131C37.2413 23.4191 38.2502 23.2176 39.2689 23.2204H188.292C190.375 23.2325 192.372 24.0529 193.861 25.5085C195.35 26.9641 196.216 28.9413 196.276 31.023L198.232 115.433C198.258 116.452 198.08 117.465 197.709 118.413C197.337 119.362 196.778 120.226 196.067 120.954C195.355 121.683 194.504 122.262 193.565 122.656C192.625 123.05 191.616 123.251 190.598 123.248ZM39.2689 23.8451C38.3333 23.8423 37.4067 24.0273 36.5439 24.3891C35.6812 24.751 34.8998 25.2823 34.2462 25.9517C33.5926 26.621 33.0799 27.4148 32.7387 28.2859C32.3975 29.157 32.2346 30.0878 32.2597 31.023L34.2275 115.433C34.2825 117.352 35.0807 119.174 36.4537 120.516C37.8266 121.857 39.667 122.613 41.5865 122.624H190.598C191.532 122.626 192.458 122.44 193.32 122.078C194.182 121.717 194.963 121.186 195.616 120.517C196.269 119.849 196.782 119.056 197.124 118.186C197.466 117.316 197.63 116.386 197.607 115.452L195.652 31.0355C195.596 29.1167 194.798 27.2944 193.425 25.9529C192.052 24.6114 190.212 23.8557 188.292 23.8451H39.2689Z" fill="#A57E00"/>
<path d="M191.847 122.936H42.8232C40.8234 122.921 38.9072 122.132 37.4768 120.734C36.0465 119.336 35.2132 117.439 35.1518 115.44L33.1965 31.0293C33.1714 30.0527 33.3424 29.0811 33.6993 28.1717C34.0561 27.2624 34.5917 26.4338 35.2742 25.7349C35.9568 25.0361 36.7725 24.4811 37.6732 24.1029C38.5738 23.7247 39.5412 23.5308 40.5181 23.5328H189.542C191.542 23.548 193.458 24.3374 194.888 25.7351C196.318 27.1328 197.152 29.0303 197.213 31.0293L199.15 115.44C199.175 116.415 199.004 117.385 198.649 118.293C198.293 119.201 197.759 120.029 197.079 120.727C196.398 121.426 195.584 121.981 194.686 122.36C193.788 122.74 192.822 122.936 191.847 122.936Z" fill="white"/>
<path d="M191.847 123.248H42.823C40.7437 123.233 38.7513 122.412 37.2647 120.958C35.7781 119.504 34.9132 117.53 34.8518 115.452L32.884 31.0355C32.8572 30.0172 33.0351 29.0039 33.4069 28.0555C33.7788 27.1071 34.3372 26.243 35.049 25.5143C35.7608 24.7856 36.6116 24.2072 37.551 23.8131C38.4903 23.4191 39.4992 23.2176 40.5179 23.2204H189.542C191.624 23.2325 193.621 24.0529 195.11 25.5085C196.599 26.9641 197.465 28.9413 197.525 31.023L199.481 115.433C199.507 116.452 199.329 117.465 198.958 118.413C198.586 119.362 198.027 120.226 197.316 120.954C196.604 121.683 195.753 122.262 194.814 122.656C193.874 123.05 192.865 123.251 191.847 123.248ZM40.5179 23.8451C39.5823 23.8423 38.6557 24.0273 37.7929 24.3891C36.9302 24.751 36.1488 25.2823 35.4952 25.9517C34.8416 26.621 34.329 27.4148 33.9877 28.2859C33.6465 29.157 33.4836 30.0878 33.5087 31.023L35.4765 115.433C35.5316 117.352 36.3297 119.174 37.7027 120.516C39.0757 121.857 40.916 122.613 42.8355 122.624H191.847C192.781 122.626 193.707 122.44 194.569 122.078C195.431 121.717 196.212 121.186 196.865 120.517C197.519 119.849 198.031 119.056 198.373 118.186C198.715 117.316 198.879 116.386 198.856 115.452L196.901 31.0355C196.846 29.1167 196.047 27.2944 194.674 25.9529C193.301 24.6114 191.461 23.8557 189.542 23.8451H40.5179Z" fill="#A57E00"/>
<path d="M62.4832 47.1528L52.4067 37.7823C57.1732 32.6347 65.6443 32.6347 71.1479 37.7823C72.9075 39.4167 74.2377 41.4592 75.0211 43.7295L62.4832 47.1528Z" fill="#6A7073"/>
<path opacity="0.2" d="M60.3848 47.359L47.266 48.5147C46.9527 46.6149 47.0636 44.6693 47.5909 42.8174C48.1126 41.0135 49.0473 39.3559 50.3208 37.9759L60.3848 47.359Z" fill="#A57E00"/>
<path d="M62.4829 48.1025L55.2113 55.9613C54.231 55.0471 53.4061 53.9794 52.7687 52.8003C52.1425 51.6308 51.72 50.3633 51.5193 49.052L62.4829 48.1025Z" fill="#DDD7D7"/>
<path opacity="0.6" d="M63.1901 49.1707L75.7529 45.7349C76.5343 47.8979 76.7145 50.2322 76.2745 52.4896C75.8345 54.7469 74.7907 56.8426 73.2541 58.5538C68.4876 63.7014 60.0166 63.7014 54.5129 58.5538L63.1901 49.1707Z" fill="#A57E00"/>
<path opacity="0.2" d="M97.0003 47.1528L86.9238 37.7823C91.6903 32.6347 100.161 32.6347 105.665 37.7823C107.426 39.4165 108.759 41.4589 109.544 43.7295L97.0003 47.1528Z" fill="#A57E00"/>
<path d="M94.8923 47.359L81.7735 48.5147C81.459 46.6146 81.5721 44.6683 82.1046 42.8174C82.6215 41.0128 83.5544 39.3546 84.8283 37.9759L94.8923 47.359Z" fill="#6A7073"/>
<path opacity="0.6" d="M96.9986 48.1025L89.7208 55.9613C88.7406 55.0471 87.9156 53.9794 87.2782 52.8003C86.6521 51.6308 86.2296 50.3633 86.0288 49.052L96.9986 48.1025Z" fill="#A57E00"/>
<path d="M97.6977 49.1707L110.261 45.7349C111.044 47.8976 111.225 50.2324 110.785 52.4902C110.345 54.7479 109.3 56.8437 107.762 58.5538C102.995 63.7014 94.5242 63.7014 89.0205 58.5538L97.6977 49.1707Z" fill="#DDD7D7"/>
<g opacity="0.3">
<path d="M42.9305 110.804H42.8993C42.8176 110.793 42.7431 110.752 42.6909 110.688C42.6387 110.624 42.6127 110.543 42.6182 110.461C43.3303 103.102 47.8907 96.0486 54.8187 91.6007C60.8221 87.7462 68.4498 85.7971 76.927 85.9783C79.101 86.022 81.3 86.2032 83.4427 86.3844C86.6936 86.7284 89.9649 86.8411 93.2318 86.7217C96.8864 86.5031 103.596 85.3848 107.444 80.3247C108.739 78.4508 109.789 76.4185 110.567 74.2775C111.604 71.7787 112.673 69.1487 114.591 67.1372C117.139 64.4572 121.056 62.9329 126.241 62.6018C128.916 62.4797 131.596 62.5047 134.269 62.6768C136.574 62.783 138.96 62.8954 141.303 62.8017C145.439 62.6393 151.155 61.646 154.884 57.804C156.596 56.0549 157.783 53.8184 158.932 51.6569C159.557 50.5325 160.15 49.3643 160.844 48.2648C163.217 44.5234 166.513 41.4556 170.414 39.3565C170.45 39.3368 170.489 39.3245 170.529 39.3201C170.57 39.3158 170.611 39.3195 170.65 39.3311C170.689 39.3428 170.725 39.3621 170.756 39.3879C170.788 39.4137 170.814 39.4455 170.833 39.4814C170.871 39.5546 170.88 39.6398 170.856 39.7191C170.833 39.7983 170.78 39.8654 170.708 39.9062C166.883 41.9654 163.655 44.9781 161.337 48.6521C160.656 49.7328 160.038 50.8886 159.463 52.0068C158.295 54.2057 157.089 56.4797 155.309 58.2976C152.242 61.4211 147.4 63.2265 141.303 63.4639C138.942 63.5576 136.543 63.4639 134.225 63.3389C131.573 63.1702 128.914 63.1452 126.26 63.264C121.262 63.5826 117.458 65.0444 115.015 67.6369C113.179 69.561 112.135 72.1161 111.117 74.5837C110.324 76.7763 109.252 78.8572 107.925 80.7745C103.921 86.0283 97.0113 87.1902 93.2443 87.4151C89.9502 87.5359 86.6517 87.4211 83.374 87.0715C81.25 86.8966 79.051 86.7155 76.8958 86.6717C68.5684 86.4968 61.0345 88.4146 55.1373 92.2004C48.3717 96.5733 43.8926 103.445 43.2241 110.598C43.2008 110.657 43.1606 110.709 43.1083 110.745C43.0561 110.782 42.9943 110.802 42.9305 110.804Z" fill="#A57E00"/>
<path d="M171.721 42.4425H171.665C171.585 42.4206 171.518 42.3682 171.477 42.2969C171.436 42.2256 171.425 42.1409 171.446 42.0614L172.127 39.4064C172.203 39.1039 172.301 38.8074 172.421 38.5193C172.427 38.5089 172.43 38.497 172.43 38.485C172.43 38.4729 172.427 38.4611 172.421 38.4506C170.446 38.5021 168.482 38.7448 166.555 39.1753C166.515 39.1844 166.474 39.1855 166.433 39.1785C166.393 39.1715 166.355 39.1564 166.32 39.1343C166.286 39.1122 166.256 39.0834 166.233 39.0497C166.21 39.0159 166.194 38.9779 166.186 38.9379C166.177 38.8981 166.176 38.8568 166.183 38.8166C166.19 38.7763 166.205 38.7379 166.227 38.7036C166.249 38.6692 166.278 38.6396 166.312 38.6166C166.345 38.5935 166.383 38.5775 166.423 38.5693C168.374 38.1321 170.361 37.877 172.358 37.8072C172.47 37.8041 172.581 37.8287 172.682 37.8788C172.782 37.9289 172.868 38.003 172.933 38.0945C173 38.191 173.042 38.303 173.054 38.4199C173.066 38.5368 173.048 38.6549 173.002 38.763C172.896 39.0233 172.809 39.2905 172.739 39.5626L172.052 42.2176C172.033 42.2886 171.989 42.3504 171.928 42.3917C171.868 42.433 171.794 42.451 171.721 42.4425Z" fill="#A57E00"/>
</g>
<path d="M197.552 35.5395C197.552 35.5395 188.806 31.7038 186.239 42.5174C184.158 51.2258 179.785 54.4868 179.785 54.4868C179.785 54.4868 195.247 60.459 203.868 53.456L197.552 35.5395Z" fill="#2D2D2D"/>
<path d="M186.485 71.2425C185.83 71.887 185.239 72.4238 184.605 72.9813C183.97 73.5388 183.337 74.0626 182.695 74.5895C181.407 75.6406 180.056 76.6065 178.703 77.5446C175.953 79.4645 173.03 81.1245 169.972 82.503L169.392 82.7545C169.184 82.8434 169.071 82.9076 168.653 83.063C167.879 83.3445 167.047 83.428 166.233 83.3058C165.494 83.1823 164.791 82.8988 164.173 82.4751C163.679 82.1402 163.23 81.7434 162.837 81.2945C162.201 80.5556 161.656 79.7431 161.213 78.8744C160.808 78.0877 160.446 77.2791 160.129 76.4525C158.993 73.3119 158.224 70.05 157.838 66.7322L160.558 66.1609C161.516 69.0893 162.683 71.9452 164.05 74.7064C164.629 75.9159 165.391 77.0287 166.309 78.0054C166.69 78.3707 167.033 78.4491 166.964 78.3892C166.896 78.3294 166.891 78.3547 166.908 78.3627C166.925 78.3706 167.109 78.2572 167.258 78.1754L167.76 77.9145C170.454 76.4803 173.041 74.8546 175.501 73.0498C176.743 72.1424 177.952 71.1854 179.147 70.2149C179.742 69.7282 180.331 69.239 180.911 68.7387C181.492 68.2385 182.085 67.71 182.58 67.2453L186.485 71.2425Z" fill="#D77C72"/>
<path d="M188.073 63.685C185.996 62.6116 178.661 68.5509 178.661 68.5509L181.027 77.8026C181.027 77.8026 191.221 72.7725 191.567 69.76C191.902 66.6108 191.098 65.2385 188.073 63.685Z" fill="#2D2D2D"/>
<path opacity="0.2" d="M186.851 65.3742L179.777 72.9895L180.89 77.3166L186.851 65.3742Z" fill="black"/>
<path d="M158.96 68.385L153.805 64.1525L159.233 62.8871C159.233 62.8871 161.59 65.5074 160.809 67.6529L158.96 68.385Z" fill="#D77C72"/>
<path d="M152.245 60.3539L156.344 59.5202L159.211 62.8772L153.778 64.14L152.245 60.3539Z" fill="#D77C72"/>
<path d="M202.106 216.916H196.621L196.889 204.21H202.374L202.106 216.916Z" fill="#D77C72"/>
<path d="M196.091 216.28H202.275C202.381 216.279 202.484 216.316 202.564 216.385C202.645 216.454 202.697 216.55 202.713 216.654L203.412 221.533C203.425 221.657 203.412 221.781 203.374 221.899C203.336 222.017 203.273 222.126 203.19 222.218C203.107 222.31 203.005 222.383 202.892 222.433C202.778 222.483 202.655 222.509 202.531 222.508C200.382 222.47 199.345 222.346 196.634 222.346C194.966 222.346 190.181 222.52 187.888 222.52C185.596 222.52 185.464 220.24 186.42 220.022C190.718 219.097 193.754 217.823 195.204 216.604C195.454 216.399 195.767 216.285 196.091 216.28Z" fill="#2D2D2D"/>
<g opacity="0.2">
<path d="M196.89 204.21L196.753 210.763H202.238L202.381 204.21H196.89Z" fill="black"/>
</g>
<path d="M183.403 67.1497C183.284 70.6231 183.884 78.7255 187.532 97.5854L209.809 96.9232C209.184 87.8712 208.991 82.2801 212.77 63.5452C209.632 62.9949 206.459 62.6713 203.275 62.5769C199.898 62.4374 196.516 62.5397 193.154 62.883C190.581 63.1953 187.801 63.7263 185.977 64.1324C185.273 64.2775 184.638 64.653 184.172 65.1995C183.706 65.7459 183.435 66.4322 183.403 67.1497Z" fill="#2D2D2D"/>
<path d="M201.932 51.2259C201.388 54.4994 200.932 60.4841 203.275 62.5831C201.514 65.3553 198.742 67.3319 195.547 68.093C190.412 65.488 193.154 62.8829 193.154 62.8829C196.759 61.9084 196.584 59.2159 195.878 56.7046L201.932 51.2259Z" fill="#D77C72"/>
<path d="M195.546 68.093L196.208 66.7936L199.775 67.5995L195.546 68.093Z" fill="#6A7073"/>
<path d="M196.208 66.7939C197.357 66.2691 202.655 62.8207 202.861 61.74C203.28 62.196 205.522 62.3335 205.522 62.3335C205.522 62.3335 204.179 68.4993 201.58 73.0097C199.806 68.9866 198.12 68.0433 196.208 66.7939Z" fill="#DDD7D7"/>
<path d="M195.546 68.093L195.247 66.7936L193.06 66.9498L195.546 68.093Z" fill="#6A7073"/>
<path d="M195.246 66.7935C193.478 65.6191 193.909 63.164 194.084 62.0895C193.665 62.5393 191.422 62.6767 191.422 62.6767C191.422 62.6767 188.249 68.499 190.854 73.0093C192.085 69.7734 193.334 68.0429 195.246 66.7935Z" fill="#DDD7D7"/>
<path opacity="0.2" d="M199.464 53.456L195.884 56.7045C196.055 57.2888 196.176 57.8864 196.247 58.4911C197.627 58.2475 199.489 56.667 199.589 55.2114C199.654 54.6236 199.612 54.0287 199.464 53.456Z" fill="black"/>
<path d="M203.711 43.7295C203.642 49.1769 203.711 51.4821 201.125 54.3995C197.202 58.7724 190.505 57.523 188.968 52.163C187.569 47.3466 187.912 39.2504 193.122 36.8265C194.268 36.2871 195.533 36.0497 196.797 36.1369C198.061 36.2241 199.281 36.633 200.342 37.3247C201.403 38.0165 202.27 38.968 202.859 40.0891C203.449 41.2101 203.742 42.4632 203.711 43.7295Z" fill="#D77C72"/>
<path d="M203.267 46.3467L196.426 46.0094C196.406 46.0086 196.386 46.0038 196.367 45.9952C196.348 45.9866 196.332 45.9744 196.318 45.9593C196.304 45.9442 196.293 45.9265 196.286 45.9072C196.279 45.888 196.276 45.8675 196.276 45.847C196.277 45.8259 196.282 45.8052 196.291 45.7861C196.3 45.7671 196.313 45.75 196.329 45.736C196.345 45.722 196.363 45.7113 196.383 45.7046C196.403 45.6979 196.424 45.6953 196.445 45.697L203.286 46.0344C203.306 46.036 203.326 46.0416 203.345 46.0509C203.363 46.0603 203.379 46.0732 203.393 46.0888C203.406 46.1045 203.416 46.1227 203.422 46.1423C203.429 46.1619 203.431 46.1825 203.429 46.2031C203.429 46.2233 203.424 46.2432 203.415 46.2615C203.406 46.2798 203.394 46.2962 203.379 46.3096C203.364 46.3231 203.346 46.3333 203.327 46.3397C203.307 46.346 203.287 46.3484 203.267 46.3467Z" fill="#DDD7D7"/>
<path d="M187.531 97.585C187.531 97.585 190.349 138.347 191.904 155.008C193.535 172.344 195.653 209.495 195.653 209.495H203.068C203.068 209.495 204.617 171.713 204.03 154.614C203.405 135.979 203.799 97.104 203.799 97.104L187.531 97.585Z" fill="#2D2D2D"/>
<path d="M203.754 209.758H195.051L194.408 206.984L204.16 206.64L203.754 209.758Z" fill="#A57E00"/>
<path opacity="0.2" d="M203.742 111.66C202.843 110.66 201.868 111.179 200.756 114.027C197.052 123.748 201 139.259 203.88 148.192C203.686 137.073 203.692 122.442 203.742 111.66Z" fill="black"/>
<path d="M194.777 46.0782C194.777 46.5217 194.577 46.8903 194.289 46.9028C194.002 46.9153 193.752 46.5717 193.727 46.1281C193.702 45.6846 193.921 45.316 194.214 45.3035C194.508 45.291 194.777 45.6346 194.777 46.0782Z" fill="#2D2D2D"/>
<path d="M189.781 46.2283C189.781 46.6719 189.581 47.0405 189.294 47.053C189.007 47.0654 188.757 46.7219 188.732 46.2783C188.707 45.8348 188.925 45.4662 189.219 45.4537C189.513 45.4412 189.781 45.7536 189.781 46.2283Z" fill="#2D2D2D"/>
<path d="M189.337 45.4412L188.262 45.1851C188.262 45.1851 188.849 45.991 189.337 45.4412Z" fill="#2D2D2D"/>
<path d="M191.704 46.5592C191.361 47.587 190.877 48.5625 190.267 49.4578C190.5 49.6102 190.763 49.7088 191.039 49.7467C191.314 49.7845 191.595 49.7605 191.86 49.6765L191.704 46.5592Z" fill="#DE7D77"/>
<path d="M194.352 51.2884C194.146 51.3314 193.937 51.3586 193.727 51.3696C193.71 51.3704 193.693 51.3679 193.676 51.362C193.66 51.3562 193.645 51.3472 193.632 51.3356C193.62 51.324 193.609 51.31 193.602 51.2944C193.595 51.2788 193.59 51.2619 193.59 51.2447C193.591 51.2114 193.604 51.1797 193.627 51.1556C193.65 51.1314 193.681 51.1165 193.715 51.1135C194.265 51.0996 194.805 50.9554 195.289 50.6926C195.774 50.4298 196.189 50.0559 196.501 49.6017C196.51 49.5868 196.522 49.574 196.535 49.5637C196.549 49.5535 196.565 49.5461 196.582 49.5421C196.599 49.538 196.617 49.5373 196.634 49.54C196.651 49.5428 196.667 49.5488 196.682 49.558C196.696 49.5663 196.709 49.5776 196.719 49.591C196.73 49.6044 196.737 49.6197 196.741 49.6361C196.745 49.6524 196.746 49.6694 196.743 49.6861C196.741 49.7027 196.735 49.7186 196.726 49.7329C196.455 50.1386 196.105 50.4854 195.697 50.7527C195.289 51.02 194.832 51.2022 194.352 51.2884Z" fill="#2D2D2D"/>
<path d="M205.397 48.6394C205.239 49.1358 204.984 49.596 204.647 49.9937C204.311 50.3914 203.899 50.7188 203.436 50.9571C202.186 51.5818 201.299 50.5385 201.418 49.2204C201.524 48.0397 202.299 46.278 203.661 46.1968C203.958 46.1842 204.254 46.2462 204.522 46.3772C204.789 46.5081 205.02 46.7039 205.192 46.9466C205.365 47.1893 205.474 47.4713 205.51 47.7669C205.545 48.0626 205.507 48.3625 205.397 48.6394Z" fill="#D77C72"/>
<path d="M196.733 44.5539C196.68 44.5659 196.625 44.5602 196.575 44.5376C196.525 44.5151 196.484 44.4769 196.458 44.429C195.865 43.3857 194.322 43.2233 194.31 43.217C194.276 43.2137 194.243 43.2039 194.213 43.188C194.184 43.1721 194.157 43.1504 194.136 43.1243C194.114 43.0982 194.098 43.0682 194.088 43.0358C194.078 43.0035 194.075 42.9695 194.078 42.9359C194.082 42.9023 194.092 42.8696 194.107 42.8398C194.123 42.81 194.145 42.7836 194.171 42.7621C194.197 42.7407 194.227 42.7245 194.26 42.7147C194.292 42.7049 194.326 42.7015 194.359 42.7048C194.434 42.7048 196.184 42.8922 196.908 44.1728C196.926 44.2022 196.938 44.2349 196.943 44.2689C196.948 44.3029 196.946 44.3375 196.937 44.3707C196.928 44.404 196.913 44.4351 196.892 44.4623C196.871 44.4894 196.845 44.5121 196.815 44.5289L196.733 44.5539Z" fill="#2D2D2D"/>
<path d="M188.167 43.6795C188.123 43.6899 188.077 43.6879 188.034 43.6736C187.991 43.6592 187.953 43.6331 187.924 43.5982C187.899 43.5744 187.879 43.5457 187.866 43.5141C187.852 43.4824 187.845 43.4484 187.845 43.414C187.845 43.3796 187.852 43.3455 187.866 43.3138C187.879 43.2822 187.899 43.2536 187.924 43.2297C188.223 42.9462 188.585 42.7382 188.98 42.623C189.376 42.5078 189.793 42.4888 190.198 42.5675C190.265 42.5851 190.322 42.6285 190.357 42.6882C190.392 42.7479 190.402 42.819 190.385 42.8861C190.366 42.9522 190.322 43.0084 190.263 43.0433C190.204 43.0782 190.133 43.089 190.066 43.0735C189.746 43.0129 189.416 43.0307 189.103 43.1253C188.791 43.2199 188.506 43.3886 188.274 43.617C188.244 43.6459 188.207 43.6674 188.167 43.6795Z" fill="#2D2D2D"/>
<path d="M215.519 69.8422C216.25 72.7596 217.012 75.7332 217.793 78.6568C218.574 81.5805 219.429 84.4978 220.373 87.3215C221.316 90.1452 222.484 92.9439 223.565 95.8175C224.646 98.6912 225.745 101.59 226.738 104.52L224.24 105.7C222.615 103.052 221.116 100.359 219.636 97.6229C218.907 96.2569 218.195 94.8742 217.499 93.4749C216.793 92.0943 216.125 90.6075 215.531 89.1019C214.338 86.1408 213.345 83.161 212.458 80.1624C211.571 77.1638 210.758 74.1652 210.071 71.0791L215.519 69.8422Z" fill="#D77C72"/>
<path d="M212.771 63.5448C215.019 64.1695 217.931 71.7597 217.931 71.7597L209.453 78.2067C209.453 78.2067 206.105 71.8909 206.954 68.9735C207.848 65.9437 210.197 62.8452 212.771 63.5448Z" fill="#2D2D2D"/>
<path d="M194.029 217.242C193.56 217.282 193.091 217.164 192.698 216.904C192.612 216.826 192.546 216.729 192.505 216.62C192.463 216.512 192.448 216.395 192.461 216.28C192.466 216.208 192.49 216.139 192.529 216.079C192.568 216.019 192.622 215.97 192.686 215.936C193.354 215.567 195.541 216.686 195.809 216.811C195.833 216.824 195.852 216.844 195.865 216.869C195.877 216.893 195.881 216.921 195.878 216.948C195.875 216.975 195.863 217.001 195.844 217.02C195.824 217.039 195.799 217.051 195.772 217.054C195.198 217.172 194.614 217.235 194.029 217.242ZM193.048 216.105C192.967 216.1 192.885 216.115 192.811 216.148C192.784 216.162 192.762 216.183 192.747 216.208C192.731 216.233 192.723 216.262 192.723 216.292C192.711 216.369 192.718 216.447 192.745 216.52C192.771 216.594 192.815 216.659 192.873 216.711C193.204 217.01 194.122 217.06 195.322 216.861C194.613 216.48 193.844 216.224 193.048 216.105Z" fill="#A57E00"/>
<path d="M195.726 217.047H195.676C195.02 216.748 193.727 215.567 193.802 214.948C193.802 214.799 193.933 214.617 194.289 214.58C194.419 214.565 194.551 214.577 194.675 214.616C194.8 214.654 194.915 214.719 195.014 214.805C195.701 215.38 195.826 216.854 195.832 216.916C195.834 216.939 195.83 216.962 195.82 216.983C195.81 217.004 195.795 217.022 195.776 217.035C195.76 217.042 195.743 217.047 195.726 217.047ZM194.42 214.824H194.345C194.108 214.824 194.089 214.942 194.083 214.973C194.027 215.348 194.901 216.279 195.57 216.685C195.518 216.062 195.273 215.47 194.87 214.992C194.747 214.882 194.586 214.821 194.42 214.824Z" fill="#A57E00"/>
<path d="M234.302 216.916H228.817L225.494 204.21H230.985L234.302 216.916Z" fill="#D77C72"/>
<path d="M234.354 216.279H228.188C228.139 216.275 228.089 216.282 228.043 216.3C227.996 216.317 227.954 216.345 227.92 216.381C227.886 216.417 227.86 216.46 227.845 216.508C227.83 216.555 227.825 216.605 227.832 216.654L228.207 221.533C228.247 221.797 228.379 222.039 228.578 222.217C228.778 222.395 229.033 222.498 229.3 222.508C231.443 222.47 232.424 222.345 235.16 222.345C236.828 222.345 238.49 222.52 240.782 222.52C243.075 222.52 242.706 220.24 241.701 220.021C237.196 219.097 237.047 217.822 235.329 216.604C235.044 216.401 234.704 216.287 234.354 216.279Z" fill="#2D2D2D"/>
<g opacity="0.2">
<path d="M225.5 204.21L227.205 210.763H232.696L230.984 204.21H225.5Z" fill="black"/>
</g>
<path d="M209.808 96.9232C216.148 105.419 220.009 136.617 222.814 153.297C225.731 170.645 232.903 209.52 232.903 209.52H225.488C225.488 209.52 215.399 169.976 210.114 153.234C204.273 134.749 195.546 96.9482 195.546 96.9482L209.808 96.9232Z" fill="#2D2D2D"/>
<path d="M233.436 209.758H224.728L224.09 206.984L233.842 206.64L233.436 209.758Z" fill="#A57E00"/>
<path d="M235.082 216.436C235.524 216.271 235.897 215.96 236.138 215.555C236.183 215.446 236.201 215.327 236.191 215.21C236.18 215.092 236.14 214.979 236.076 214.88C236.041 214.819 235.991 214.767 235.931 214.73C235.871 214.693 235.803 214.671 235.732 214.668C234.964 214.624 233.471 216.573 233.302 216.798C233.287 216.82 233.278 216.846 233.278 216.873C233.278 216.9 233.287 216.926 233.302 216.948C233.316 216.97 233.337 216.988 233.362 216.997C233.387 217.006 233.414 217.006 233.439 216.998C234.004 216.863 234.554 216.675 235.082 216.436ZM235.476 214.986C235.549 214.948 235.63 214.927 235.713 214.924C235.743 214.925 235.771 214.934 235.795 214.951C235.82 214.967 235.839 214.991 235.851 215.018C235.895 215.081 235.922 215.154 235.931 215.23C235.94 215.306 235.929 215.384 235.901 215.455C235.726 215.867 234.932 216.304 233.752 216.648C234.229 216.001 234.812 215.439 235.476 214.986Z" fill="#A57E00"/>
<path d="M233.464 216.992C233.481 216.985 233.496 216.974 233.508 216.96C233.97 216.411 234.626 214.786 234.27 214.268C234.183 214.143 234.008 214.024 233.645 214.149C233.523 214.192 233.41 214.26 233.315 214.348C233.219 214.436 233.142 214.543 233.089 214.662C232.715 215.474 233.239 216.86 233.258 216.923C233.266 216.944 233.28 216.962 233.297 216.977C233.315 216.991 233.336 217 233.358 217.004C233.376 217.011 233.394 217.013 233.413 217.011C233.431 217.008 233.449 217.002 233.464 216.992ZM233.683 214.424L233.758 214.393C233.983 214.312 234.039 214.393 234.052 214.393C234.27 214.699 233.877 215.917 233.427 216.573C233.204 215.988 233.169 215.348 233.327 214.743C233.402 214.596 233.529 214.482 233.683 214.424Z" fill="#A57E00"/>
<path d="M194.334 45.3222L193.259 45.0661C193.259 45.0661 193.846 45.8719 194.334 45.3222Z" fill="#2D2D2D"/>
<path d="M210.1 95.5797L210.725 97.56C210.806 97.7099 210.625 97.8724 210.368 97.8848L187.442 98.5658C187.242 98.5658 187.073 98.4783 187.054 98.3534L186.798 96.3606C186.798 96.2231 186.948 96.1044 187.167 96.0982L209.725 95.4235C209.796 95.4156 209.867 95.4258 209.933 95.4531C209.998 95.4804 210.056 95.524 210.1 95.5797Z" fill="#A57E00"/>
<path d="M207.147 98.2224H207.771C207.89 98.2224 207.978 98.1536 207.971 98.0787L207.609 95.4924C207.609 95.4174 207.49 95.3612 207.372 95.3612H206.747C206.628 95.3612 206.541 95.4299 206.547 95.5049L206.909 98.0912C206.922 98.1661 207.028 98.2224 207.147 98.2224Z" fill="#2D2D2D"/>
<path d="M189.154 98.7535H189.779C189.898 98.7535 189.985 98.6848 189.979 98.6099L189.617 96.0298C189.617 95.9549 189.498 95.8924 189.379 95.8986H188.754C188.636 95.8986 188.548 95.9673 188.555 96.0423L188.917 98.6223C188.929 98.7036 189.036 98.7598 189.154 98.7535Z" fill="#2D2D2D"/>
<path d="M198.15 98.4849H198.774C198.893 98.4849 198.98 98.4162 198.974 98.335L198.612 95.755C198.612 95.68 198.493 95.6238 198.374 95.6238H197.75C197.631 95.6238 197.544 95.6925 197.55 95.7675L197.912 98.3475C197.9 98.4349 198.031 98.4912 198.15 98.4849Z" fill="#2D2D2D"/>
<path d="M226.106 103.533L230.479 107.537L224.944 108.249C224.944 108.249 222.87 105.407 223.857 103.352L226.106 103.533Z" fill="#D77C72"/>
<path d="M231.222 112.091L226.556 112.435L224.931 108.249L230.466 107.543L231.222 112.091Z" fill="#D77C72"/>
<path d="M198.214 36.1078C198.214 36.1078 193.61 33.9963 188.531 40.3996C194.647 42.2175 198.758 40.9556 198.758 40.9556L198.214 36.1078Z" fill="#2D2D2D"/>
<path d="M197.55 35.5396C197.55 35.5396 198.662 51.6383 197.55 59.6595C204.01 57.6105 210.188 51.2198 210.188 51.2198C210.188 51.2198 209.282 33.5968 197.55 35.5396Z" fill="#2D2D2D"/>
<path d="M194.271 49.8079C192.821 49.8079 191.491 48.015 191.297 45.8098C191.215 45.2179 191.252 44.6155 191.407 44.0383C191.561 43.461 191.83 42.9206 192.197 42.4489C192.37 42.2444 192.585 42.0795 192.828 41.9652C193.07 41.851 193.334 41.7901 193.602 41.7867C195.052 41.7867 196.388 43.5796 196.582 45.7848C196.665 46.3771 196.627 46.9801 196.472 47.5575C196.316 48.135 196.046 48.6752 195.676 49.1457C195.503 49.3502 195.288 49.5151 195.045 49.6293C194.803 49.7436 194.539 49.8045 194.271 49.8079ZM193.602 42.099C193.379 42.1044 193.158 42.1566 192.956 42.2524C192.754 42.3481 192.574 42.4853 192.428 42.655C192.091 43.0952 191.845 43.5981 191.704 44.1344C191.564 44.6707 191.532 45.2297 191.609 45.7786C191.784 47.8213 192.984 49.4893 194.271 49.4893C194.495 49.4856 194.717 49.4334 194.919 49.3364C195.122 49.2394 195.301 49.0998 195.445 48.9271C195.784 48.4877 196.031 47.985 196.173 47.4486C196.315 46.9122 196.348 46.3529 196.27 45.8035C196.089 43.7608 194.895 42.099 193.602 42.099Z" fill="#DDD7D7"/>
<path d="M188.831 49.8079C187.656 49.8079 186.582 48.0525 186.388 45.8098C186.257 44.3042 186.569 42.9361 187.2 42.249C187.319 42.1082 187.466 41.9942 187.631 41.9145C187.797 41.8348 187.978 41.7912 188.162 41.7867C189.337 41.7867 190.405 43.5421 190.605 45.7848C190.73 47.2903 190.417 48.6522 189.786 49.3456C189.669 49.4856 189.522 49.5992 189.358 49.6788C189.193 49.7585 189.013 49.8025 188.831 49.8079ZM188.162 42.099C188.021 42.1022 187.883 42.1363 187.756 42.1989C187.63 42.2615 187.519 42.3511 187.431 42.4614C186.863 43.0861 186.575 44.3855 186.7 45.7848C186.869 47.7963 187.85 49.4955 188.831 49.4955C188.97 49.4903 189.107 49.4552 189.232 49.3927C189.357 49.3302 189.467 49.2417 189.555 49.1332C190.124 48.5085 190.411 47.2091 190.292 45.8098C190.117 43.7982 189.155 42.099 188.162 42.099Z" fill="#DDD7D7"/>
<path d="M191.455 45.9533H191.386C191.254 45.8833 191.107 45.8466 190.958 45.8466C190.809 45.8466 190.662 45.8833 190.53 45.9533C190.495 45.9743 190.453 45.9809 190.414 45.9715C190.374 45.9622 190.34 45.9377 190.318 45.9033C190.306 45.8866 190.298 45.8678 190.294 45.8479C190.29 45.8281 190.29 45.8076 190.294 45.7877C190.298 45.7679 190.306 45.7491 190.318 45.7324C190.329 45.7158 190.344 45.7016 190.361 45.6909C190.54 45.5978 190.738 45.5492 190.939 45.5492C191.14 45.5492 191.339 45.5978 191.517 45.6909C191.554 45.7086 191.583 45.7397 191.598 45.778C191.613 45.8162 191.613 45.8588 191.598 45.897C191.58 45.9168 191.558 45.9321 191.533 45.9418C191.508 45.9516 191.481 45.9555 191.455 45.9533Z" fill="#DDD7D7"/>
<path d="M217.679 141.084H46.9277V146.912H217.679V141.084Z" fill="#A57E00"/>
<path opacity="0.8" d="M217.679 141.084H46.9277V146.912H217.679V141.084Z" fill="#DDD7D7"/>
<path opacity="0.3" d="M217.686 141.084H167.709V146.912H217.686V141.084Z" fill="#A57E00"/>
<path d="M179.892 224.688H176.562L172.133 146.912H179.892V224.688Z" fill="#A57E00"/>
<path d="M214.351 224.688H217.687L213.258 146.912H205.499L214.351 224.688Z" fill="#A57E00"/>
<path d="M50.2637 224.688H46.9277L51.3569 146.912H59.1157L50.2637 224.688Z" fill="#A57E00"/>
<path d="M84.7249 224.688H88.0545L92.4837 146.912H84.7249V224.688Z" fill="#A57E00"/>
<path d="M165.073 113.159H128.64C128.215 113.173 127.807 113.33 127.484 113.606C127.16 113.882 126.94 114.26 126.86 114.677L122.874 137.498C122.834 137.682 122.837 137.873 122.882 138.057C122.927 138.24 123.012 138.411 123.133 138.556C123.253 138.702 123.404 138.818 123.576 138.897C123.748 138.975 123.935 139.014 124.124 139.01H160.55C160.974 138.996 161.381 138.84 161.705 138.565C162.028 138.29 162.249 137.914 162.331 137.498L166.316 114.677C166.357 114.493 166.355 114.302 166.311 114.118C166.267 113.934 166.182 113.763 166.063 113.617C165.943 113.471 165.792 113.354 165.62 113.274C165.449 113.195 165.262 113.156 165.073 113.159Z" fill="#A57E00"/>
<path opacity="0.2" d="M165.073 113.159H128.64C128.215 113.173 127.807 113.33 127.484 113.606C127.16 113.882 126.94 114.26 126.86 114.677L122.874 137.498C122.834 137.682 122.837 137.873 122.882 138.057C122.927 138.24 123.012 138.411 123.133 138.556C123.253 138.702 123.404 138.818 123.576 138.897C123.748 138.975 123.935 139.014 124.124 139.01H160.55C160.974 138.996 161.381 138.84 161.705 138.565C162.028 138.29 162.249 137.914 162.331 137.498L166.316 114.677C166.357 114.493 166.355 114.302 166.311 114.118C166.267 113.934 166.182 113.763 166.063 113.617C165.943 113.471 165.792 113.354 165.62 113.274C165.449 113.195 165.262 113.156 165.073 113.159Z" fill="#DDD7D7"/>
<path d="M164.375 113.159H127.936C127.511 113.173 127.103 113.33 126.779 113.606C126.456 113.882 126.236 114.26 126.155 114.677L122.17 137.498C122.13 137.682 122.132 137.873 122.177 138.057C122.222 138.24 122.308 138.411 122.428 138.556C122.548 138.702 122.7 138.818 122.871 138.897C123.043 138.975 123.23 139.014 123.419 139.009H159.846C160.277 139.006 160.694 138.854 161.027 138.578C161.359 138.303 161.586 137.921 161.67 137.498L165.655 114.677C165.697 114.49 165.695 114.295 165.649 114.108C165.603 113.922 165.514 113.748 165.39 113.601C165.266 113.455 165.11 113.338 164.934 113.261C164.758 113.185 164.567 113.15 164.375 113.159Z" fill="#A57E00"/>
<path opacity="0.4" d="M164.375 113.159H127.936C127.511 113.173 127.103 113.33 126.779 113.606C126.456 113.882 126.236 114.26 126.155 114.677L122.17 137.498C122.13 137.682 122.132 137.873 122.177 138.057C122.222 138.24 122.308 138.411 122.428 138.556C122.548 138.702 122.7 138.818 122.871 138.897C123.043 138.975 123.23 139.014 123.419 139.009H159.846C160.277 139.006 160.694 138.854 161.027 138.578C161.359 138.303 161.586 137.921 161.67 137.498L165.655 114.677C165.697 114.49 165.695 114.295 165.649 114.108C165.603 113.922 165.514 113.748 165.39 113.601C165.266 113.455 165.11 113.338 164.934 113.261C164.758 113.185 164.567 113.15 164.375 113.159Z" fill="#DDD7D7"/>
<path d="M123.437 138.385C123.341 138.389 123.245 138.372 123.157 138.336C123.068 138.299 122.989 138.243 122.924 138.173C122.864 138.092 122.822 138 122.8 137.902C122.778 137.804 122.778 137.702 122.799 137.604L126.785 114.784C126.84 114.512 126.984 114.266 127.195 114.085C127.405 113.904 127.67 113.798 127.947 113.784H164.374C164.47 113.781 164.565 113.799 164.654 113.837C164.742 113.875 164.822 113.931 164.886 114.003C164.947 114.083 164.989 114.175 165.011 114.273C165.032 114.371 165.032 114.473 165.011 114.571L161.044 137.386C160.989 137.658 160.845 137.903 160.634 138.084C160.424 138.265 160.159 138.371 159.882 138.385H123.437Z" fill="#DDD7D7"/>
<path d="M160.044 139.01H114.228C113.691 139.013 113.176 139.228 112.796 139.608C112.416 139.988 112.201 140.502 112.198 141.04H162.075C162.071 140.502 161.856 139.988 161.476 139.608C161.096 139.228 160.582 139.013 160.044 139.01Z" fill="#A57E00"/>
<path opacity="0.4" d="M160.044 139.01H114.228C113.691 139.013 113.176 139.228 112.796 139.608C112.416 139.988 112.201 140.502 112.198 141.04H162.075C162.071 140.502 161.856 139.988 161.476 139.608C161.096 139.228 160.582 139.013 160.044 139.01Z" fill="#DDD7D7"/>
<path opacity="0.8" d="M160.046 139.01H149.838C149.3 139.013 148.786 139.228 148.406 139.608C148.026 139.988 147.811 140.502 147.808 141.04H162.076C162.073 140.502 161.858 139.988 161.478 139.608C161.098 139.228 160.583 139.013 160.046 139.01Z" fill="#A57E00"/>
<path d="M184.039 130.889H177.348C176.938 130.889 176.605 131.221 176.605 131.632V140.34C176.605 140.751 176.938 141.084 177.348 141.084H184.039C184.45 141.084 184.782 140.751 184.782 140.34V131.632C184.782 131.221 184.45 130.889 184.039 130.889Z" fill="#A57E00"/>
<path d="M177.679 135.854L177.798 135.267H177.236V134.643H177.91L178.073 133.818H178.697L178.529 134.643H179.035L179.203 133.818H179.859L179.691 134.643H180.009V135.267H179.566L179.447 135.854H180.009V136.479H179.316L179.153 137.291H178.535L178.697 136.485H178.191L178.029 137.298H177.404L177.567 136.485H177.248V135.861L177.679 135.854ZM178.335 135.854H178.841L178.96 135.267H178.454L178.335 135.854Z" fill="#DDD7D7"/>
<path d="M182.534 133.812V137.248H181.585V134.993C181.446 135.102 181.298 135.199 181.141 135.28C180.965 135.361 180.784 135.43 180.598 135.486V134.718C180.868 134.638 181.122 134.511 181.348 134.343C181.523 134.2 181.664 134.018 181.76 133.812H182.534Z" fill="#DDD7D7"/>
<path d="M185.551 139.965C183.933 139.965 182.665 138.216 182.665 135.986C182.665 133.756 183.958 132 185.551 132C187.144 132 188.437 133.787 188.437 135.986C188.437 138.185 187.169 139.965 185.551 139.965ZM185.551 132.919C184.483 132.919 183.583 134.318 183.583 135.986C183.583 137.654 184.483 139.047 185.551 139.047C186.619 139.047 187.519 137.648 187.519 135.986C187.519 134.324 186.613 132.919 185.551 132.919Z" fill="#A57E00"/>
<path d="M89.5453 111.891L88.9643 112.79L88.3396 113.778C87.9335 114.44 87.54 115.114 87.1464 115.795C86.3718 117.157 85.6221 118.538 84.9287 119.937C83.5348 122.693 82.367 125.557 81.4366 128.502C81.2117 129.227 81.0118 129.951 80.8119 130.676L80.5557 131.769L80.4495 132.313L80.3933 132.587C80.3933 132.675 80.3558 132.794 80.3558 132.769C80.3558 132.744 80.3059 132.769 80.2434 132.606C80.1763 132.462 80.073 132.337 79.9435 132.244C79.8373 132.181 79.8186 132.244 79.8748 132.3C80.0041 132.418 80.1492 132.516 80.3059 132.594C80.8393 132.856 81.404 133.049 81.9863 133.168C82.6933 133.333 83.4086 133.46 84.1291 133.549C85.6159 133.743 87.2526 133.837 88.7894 133.918H88.9455C89.4516 133.944 89.9329 134.145 90.3076 134.486C90.6823 134.828 90.9273 135.288 91.0009 135.789C91.0745 136.291 90.9722 136.802 90.7114 137.236C90.4506 137.671 90.0473 138.002 89.5702 138.172C87.8453 138.791 86.062 139.233 84.2478 139.49C82.2194 139.821 80.1469 139.768 78.1381 139.334C77.4892 139.175 76.8604 138.942 76.264 138.641C75.5102 138.258 74.8293 137.747 74.2525 137.129C73.5783 136.396 73.0786 135.521 72.7907 134.568C72.5461 133.708 72.4593 132.81 72.5345 131.919C72.5345 131.682 72.5345 131.594 72.572 131.475L72.6157 131.132L72.6969 130.432C72.7657 129.976 72.8281 129.514 72.9031 129.058C73.0593 128.146 73.2342 127.24 73.4528 126.353C74.308 122.842 75.5091 119.425 77.0387 116.151C77.7945 114.54 78.6004 112.953 79.4813 111.41C79.9185 110.635 80.3808 109.873 80.8556 109.117C81.093 108.736 81.3366 108.361 81.5928 107.98C81.8489 107.599 82.0863 107.256 82.4111 106.806C83.0839 105.901 84.0801 105.291 85.1919 105.103C86.3037 104.915 87.445 105.164 88.3777 105.798C89.3104 106.431 89.9623 107.401 90.1973 108.503C90.4323 109.606 90.2323 110.757 89.639 111.716L89.5453 111.891Z" fill="#A57E00"/>
<path d="M106.251 86.678C106.313 87.1028 106.588 87.409 106.875 87.3715C107.163 87.334 107.325 86.9529 107.263 86.5344C107.2 86.1158 106.925 85.8035 106.638 85.8409C106.351 85.8784 106.188 86.2595 106.251 86.678Z" fill="#2D2D2D"/>
<path d="M106.55 87.4147C107.244 88.6278 108.102 89.7398 109.099 90.7194C108.842 90.9677 108.533 91.1567 108.196 91.2733C107.858 91.3898 107.499 91.4311 107.143 91.3941L106.55 87.4147Z" fill="#734544"/>
<path d="M104.408 84.5662C104.461 84.5619 104.51 84.5372 104.545 84.4975C104.763 84.2709 105.033 84.0999 105.331 83.9988C105.628 83.8977 105.946 83.8695 106.257 83.9165C106.322 83.9296 106.39 83.9167 106.446 83.8805C106.502 83.8444 106.542 83.7878 106.557 83.7228C106.57 83.6583 106.557 83.5912 106.52 83.5362C106.484 83.4812 106.428 83.4428 106.363 83.4292C105.971 83.3642 105.569 83.3949 105.192 83.519C104.814 83.643 104.473 83.8565 104.196 84.1414C104.149 84.1892 104.124 84.253 104.124 84.3194C104.124 84.3859 104.149 84.4497 104.196 84.4975C104.224 84.5238 104.257 84.5437 104.294 84.5556C104.331 84.5674 104.37 84.5711 104.408 84.5662Z" fill="#2D2D2D"/>
<path d="M93.8759 91.3321C94.0571 95.2677 93.7572 102.377 90.7024 104.532C90.7024 104.532 91.1709 108.561 98.2738 109.623C106.076 110.785 102.584 106.3 102.584 106.3C98.4737 104.651 99.0547 101.502 100.242 98.6474L93.8759 91.3321Z" fill="#C56E66"/>
<path d="M89.4768 106.106C89.1707 104.326 88.8521 102.295 90.1952 101.983C91.6695 101.639 99.3034 102.658 101.715 104.482C104.126 106.306 102.889 109.48 102.889 109.48L89.4768 106.106Z" fill="#6A7073"/>
<path d="M110.061 112.741C110.349 119.038 110.061 131.526 105.788 150.429H77.5392C77.3643 146.5 81.4186 129.558 81.0688 110.942C81.0514 110.009 81.2198 109.081 81.5644 108.214C81.9089 107.347 82.4226 106.556 83.0755 105.889C83.7285 105.223 84.5076 104.692 85.3675 104.33C86.2274 103.967 87.1509 103.779 88.0842 103.776C88.6402 103.776 89.2274 103.776 89.8334 103.845C93.8298 104.123 97.8059 104.64 101.74 105.394C102.915 105.663 104.058 105.975 105.095 106.294C106.486 106.726 107.71 107.577 108.599 108.731C109.487 109.885 109.998 111.286 110.061 112.741Z" fill="#A57E00"/>
<path opacity="0.2" d="M105.796 124.073C105.346 127.272 104.309 132.819 108.051 138.954C108.476 136.411 108.819 134.031 109.1 131.807L105.796 124.073Z" fill="black"/>
<path d="M127.81 131.813L132.564 130.176L130.628 125.178C129.547 125.335 128.53 125.782 127.684 126.472C126.838 127.162 126.195 128.069 125.824 129.095L127.81 131.813Z" fill="#C56E66"/>
<path d="M135.08 128.752L135.586 124.716L130.625 125.129L132.562 130.145L135.08 128.752Z" fill="#C56E66"/>
<path d="M110.029 112.16C110.292 113.078 110.616 114.146 110.929 115.146C111.241 116.145 111.553 117.17 111.916 118.176C112.591 120.187 113.334 122.167 114.115 124.104C114.896 126.041 115.77 127.921 116.714 129.676C117.575 131.337 118.623 132.894 119.837 134.318L115.258 133.612C116.139 133.231 117.045 132.837 117.957 132.363C118.869 131.888 119.8 131.463 120.718 130.963L123.529 129.483C124.466 128.989 125.403 128.452 126.359 127.99L126.459 127.94C126.905 127.716 127.414 127.65 127.903 127.752C128.391 127.854 128.831 128.118 129.15 128.502C129.469 128.886 129.649 129.366 129.661 129.865C129.673 130.364 129.515 130.853 129.214 131.251C128.515 132.174 127.768 133.06 126.977 133.906C126.197 134.749 125.378 135.549 124.529 136.336C123.679 137.123 122.779 137.866 121.842 138.578C120.905 139.291 119.912 139.978 118.856 140.615C118.18 141.019 117.39 141.19 116.608 141.103C115.825 141.016 115.092 140.676 114.521 140.134L114.277 139.903C112.426 138.108 110.819 136.077 109.498 133.862C108.244 131.825 107.128 129.707 106.156 127.521C105.175 125.378 104.332 123.204 103.564 121.018C103.182 119.925 102.814 118.825 102.483 117.72C102.152 116.614 101.858 115.527 101.539 114.302C101.24 113.182 101.399 111.988 101.98 110.984C102.561 109.98 103.517 109.248 104.638 108.949C105.759 108.65 106.953 108.808 107.957 109.389C108.961 109.97 109.693 110.926 109.992 112.047L110.029 112.16Z" fill="#A57E00"/>
<path d="M92.0646 87.8897C93.1578 93.0123 93.5326 96.0671 96.5437 98.3348C101.073 101.746 107.107 98.4222 107.57 93.0685C107.982 88.252 106.133 80.6806 100.76 79.375C99.5767 79.0821 98.3377 79.0968 97.1612 79.4176C95.9847 79.7383 94.9098 80.3546 94.0384 81.2077C93.1671 82.0609 92.5284 83.1226 92.1829 84.2921C91.8375 85.4616 91.7967 86.7 92.0646 87.8897Z" fill="#C56E66"/>
<path d="M103.101 88.4273C105.55 88.2399 105.407 87.1092 104.857 86.2783C104.307 85.4475 103.639 82.4614 103.639 82.4614C103.639 82.4614 107.043 83.361 106.344 80.1C105.644 76.839 101.046 72.7097 97.0292 75.2398C89.0268 73.9217 86.4092 77.1514 87.6587 80.1375C81.3054 82.9487 85.8907 88.6397 88.4208 88.6397C86.1656 90.6513 89.5328 93.5499 94.9927 96.8046C98.9908 91.9882 104.888 93.2813 103.101 88.4273Z" fill="#2D2D2D"/>
<path d="M98.154 76.876C98.0709 76.8748 97.9889 76.8571 97.9127 76.8239C97.8365 76.7906 97.7678 76.7425 97.7104 76.6823C96.7795 75.7461 95.6191 75.0704 94.3453 74.7229C93.0715 74.3754 91.7288 74.3682 90.4514 74.702C90.2907 74.7396 90.1217 74.7121 89.9812 74.6255C89.8408 74.5388 89.7403 74.4002 89.7017 74.2397C89.6641 74.0791 89.6917 73.91 89.7783 73.7696C89.8649 73.6291 90.0036 73.5287 90.164 73.4901C91.6543 73.1098 93.218 73.1241 94.7011 73.5315C96.1842 73.939 97.5357 74.7256 98.6225 75.814C98.7389 75.931 98.8042 76.0894 98.8042 76.2544C98.8042 76.4195 98.7389 76.5778 98.6225 76.6948C98.5612 76.7558 98.4879 76.8034 98.4073 76.8346C98.3266 76.8658 98.2404 76.8799 98.154 76.876Z" fill="#2D2D2D"/>
<path d="M89.8779 94.3304C89.7957 94.3308 89.7142 94.3151 89.6381 94.284C89.562 94.2529 89.4927 94.2071 89.4344 94.1492C87.6727 92.375 86.9355 90.9882 87.1604 89.7763C87.2654 89.3183 87.4824 88.8937 87.7921 88.5404C88.1018 88.1871 88.4944 87.9163 88.9346 87.7522C89.0845 87.681 89.2566 87.6722 89.413 87.7279C89.5694 87.7835 89.6973 87.899 89.7686 88.049C89.8398 88.1989 89.8486 88.371 89.7929 88.5274C89.7373 88.6838 89.6218 88.8117 89.4718 88.8829C88.8159 89.1953 88.4661 89.5576 88.3911 89.9887C88.3161 90.4197 88.566 91.5005 90.3214 93.2621C90.38 93.3202 90.4265 93.3893 90.4582 93.4654C90.4899 93.5415 90.5062 93.6232 90.5062 93.7057C90.5062 93.7881 90.4899 93.8698 90.4582 93.9459C90.4265 94.022 90.38 94.0911 90.3214 94.1492C90.2631 94.2071 90.1938 94.2529 90.1177 94.284C90.0416 94.3151 89.9601 94.3308 89.8779 94.3304Z" fill="#2D2D2D"/>
<path d="M100.091 88.0275C100.51 89.2609 101.322 90.323 102.402 91.0511C103.833 91.9944 104.801 90.9262 104.614 89.3832C104.445 87.9901 103.496 85.8223 101.959 85.4912C100.422 85.1601 99.61 86.5345 100.091 88.0275Z" fill="#C56E66"/>
<path d="M148.937 220.115C149.611 220.115 150.267 220.021 150.486 219.722C150.542 219.641 150.572 219.545 150.572 219.447C150.572 219.348 150.542 219.252 150.486 219.172C150.444 219.099 150.387 219.035 150.319 218.985C150.252 218.934 150.174 218.898 150.092 218.878C149.212 218.641 147.369 219.69 147.288 219.74C147.266 219.752 147.248 219.771 147.238 219.793C147.228 219.816 147.226 219.841 147.231 219.865C147.234 219.89 147.245 219.914 147.262 219.933C147.278 219.952 147.3 219.965 147.325 219.971C147.857 220.063 148.396 220.111 148.937 220.115ZM149.774 219.091C149.854 219.09 149.934 219.101 150.011 219.122C150.063 219.132 150.112 219.153 150.155 219.183C150.198 219.213 150.234 219.252 150.261 219.297C150.349 219.453 150.317 219.528 150.261 219.572C150.011 219.915 148.674 219.921 147.694 219.784C148.343 219.418 149.059 219.182 149.799 219.091H149.774Z" fill="#A57E00"/>
<path d="M147.336 219.972H147.386C148.011 219.69 149.292 218.547 149.192 217.948C149.192 217.81 149.073 217.635 148.729 217.598C148.605 217.585 148.48 217.597 148.361 217.634C148.242 217.67 148.131 217.73 148.036 217.81C147.361 218.366 147.218 219.79 147.211 219.847C147.21 219.869 147.215 219.89 147.225 219.91C147.235 219.93 147.249 219.947 147.268 219.959C147.288 219.972 147.313 219.976 147.336 219.972ZM148.629 217.829H148.704C148.929 217.829 148.942 217.941 148.948 217.966C149.004 218.329 148.148 219.216 147.492 219.615C147.552 219.013 147.797 218.444 148.192 217.985C148.315 217.883 148.47 217.828 148.629 217.829Z" fill="#A57E00"/>
<path d="M141.336 219.847H146.621L145.615 207.615H140.33L141.336 219.847Z" fill="#C56E66"/>
<path d="M146.624 219.234H140.858C140.758 219.231 140.659 219.267 140.585 219.334C140.51 219.402 140.465 219.496 140.458 219.597L140.115 224.269C140.111 224.391 140.131 224.512 140.174 224.625C140.217 224.739 140.282 224.842 140.366 224.93C140.45 225.018 140.551 225.088 140.662 225.137C140.773 225.185 140.893 225.211 141.014 225.213C143.088 225.175 146.074 225.057 148.692 225.057C151.747 225.057 152.065 225.219 155.651 225.219C157.819 225.219 158.094 223.026 157.157 222.833C152.896 221.927 151.853 221.827 147.955 219.628C147.552 219.386 147.094 219.25 146.624 219.234Z" fill="#2D2D2D"/>
<path opacity="0.2" d="M145.609 207.621L146.133 213.924H140.848L140.33 207.621H145.609Z" fill="black"/>
<path d="M116.065 220.115C116.511 220.167 116.959 220.043 117.315 219.771C117.381 219.681 117.416 219.571 117.416 219.459C117.416 219.347 117.381 219.238 117.315 219.147C117.274 219.073 117.217 219.01 117.149 218.96C117.081 218.911 117.004 218.876 116.921 218.859C116.153 218.678 114.691 219.678 114.629 219.721C114.61 219.736 114.595 219.755 114.586 219.777C114.577 219.799 114.575 219.823 114.579 219.846C114.582 219.87 114.593 219.892 114.61 219.909C114.627 219.925 114.649 219.936 114.672 219.94C115.129 220.05 115.596 220.108 116.065 220.115ZM116.728 219.109C116.779 219.103 116.832 219.103 116.884 219.109C116.932 219.119 116.978 219.139 117.018 219.168C117.058 219.198 117.091 219.235 117.115 219.278C117.227 219.484 117.159 219.572 117.115 219.597C116.89 219.896 115.809 219.896 115.022 219.765C115.522 219.425 116.092 219.201 116.69 219.109H116.728Z" fill="#A57E00"/>
<path d="M114.704 219.972H114.761C115.31 219.672 116.366 218.516 116.254 217.929C116.235 217.836 116.185 217.753 116.112 217.693C116.04 217.632 115.948 217.599 115.854 217.598C115.759 217.586 115.662 217.594 115.571 217.622C115.479 217.65 115.395 217.697 115.323 217.76C114.698 218.26 114.579 219.784 114.579 219.847C114.577 219.87 114.581 219.893 114.591 219.914C114.601 219.935 114.616 219.953 114.636 219.965C114.657 219.974 114.681 219.976 114.704 219.972ZM115.766 217.829H115.823C115.985 217.829 116.004 217.923 116.01 217.954C116.072 218.304 115.385 219.203 114.854 219.591C114.892 218.989 115.11 218.412 115.479 217.935C115.559 217.867 115.661 217.83 115.766 217.829Z" fill="#A57E00"/>
<path d="M109.868 219.847H115.147L117.802 207.615H112.523L109.868 219.847Z" fill="#C56E66"/>
<path d="M115.521 219.234H109.593C109.488 219.233 109.385 219.269 109.303 219.335C109.221 219.401 109.165 219.494 109.143 219.597L108.1 224.269C108.074 224.384 108.075 224.502 108.102 224.616C108.129 224.73 108.181 224.837 108.255 224.927C108.329 225.018 108.423 225.091 108.529 225.14C108.635 225.19 108.751 225.215 108.868 225.213C110.942 225.175 111.948 225.057 114.559 225.057C116.165 225.057 118.22 225.219 120.438 225.219C122.656 225.219 122.937 223.026 122.037 222.833C117.97 221.939 117.664 220.715 116.384 219.54C116.143 219.336 115.837 219.227 115.521 219.234Z" fill="#2D2D2D"/>
<path d="M97.3239 150.429C97.3239 150.429 126.623 159.319 127.347 171.088C128.678 192.766 118.045 211.238 118.045 211.238H110.124C110.124 211.238 113.135 202.08 114.216 182.446C115.572 157.77 68.9122 183.02 77.5394 150.429H97.3239Z" fill="black"/>
<g opacity="0.2">
<path d="M112.515 207.621H117.8L116.432 213.924H111.147L112.515 207.621Z" fill="black"/>
</g>
<path d="M105.787 150.429C105.787 150.429 143.676 152.928 145.175 173.037C146.893 196.152 147.393 211.238 147.393 211.238H139.546C139.546 211.238 135.511 197.064 132.05 176.686C131.007 170.582 118.063 169.533 105.812 168.808C95.2548 168.183 87.1461 167.559 86.259 155.864L86.3965 150.429H105.787Z" fill="#2D2D2D"/>
<path d="M149.312 209.139C149.356 209.139 148.806 212.887 148.806 212.887H137.93L137.637 209.57L149.312 209.139Z" fill="#A57E00"/>
<path d="M120.437 209.139C120.48 209.139 119.437 212.887 119.437 212.887H108.567L108.767 209.57L120.437 209.139Z" fill="#A57E00"/>
<path d="M104.083 167.146L98.779 131.12C98.6365 130.144 98.1478 129.253 97.4022 128.608C96.6567 127.964 95.704 127.609 94.7184 127.609H63.4269C62.8372 127.609 62.2544 127.736 61.7182 127.981C61.182 128.227 60.705 128.585 60.3197 129.031C59.9344 129.477 59.6497 130.002 59.4852 130.568C59.3207 131.134 59.2802 131.729 59.3663 132.313L64.4889 167.146C64.4889 167.547 64.568 167.944 64.7216 168.314C64.8752 168.685 65.1003 169.021 65.384 169.304C65.6678 169.587 66.0046 169.812 66.3752 169.965C66.7457 170.117 67.1429 170.196 67.5437 170.195H124.586C124.586 169.794 124.507 169.397 124.353 169.027C124.199 168.656 123.974 168.32 123.691 168.037C123.407 167.754 123.07 167.529 122.699 167.377C122.329 167.224 121.932 167.145 121.531 167.146H104.083Z" fill="#A57E00"/>
<path opacity="0.5" d="M104.083 167.146L98.779 131.12C98.6365 130.144 98.1478 129.253 97.4022 128.608C96.6567 127.964 95.704 127.609 94.7184 127.609H63.4269C62.8372 127.609 62.2544 127.736 61.7182 127.981C61.182 128.227 60.705 128.585 60.3197 129.031C59.9344 129.477 59.6497 130.002 59.4852 130.568C59.3207 131.134 59.2802 131.729 59.3663 132.313L64.4889 167.146C64.4889 167.547 64.568 167.944 64.7216 168.314C64.8752 168.685 65.1003 169.021 65.384 169.304C65.6678 169.587 66.0046 169.812 66.3752 169.965C66.7457 170.117 67.1429 170.196 67.5437 170.195H124.586C124.586 169.794 124.507 169.397 124.353 169.027C124.199 168.656 123.974 168.32 123.691 168.037C123.407 167.754 123.07 167.529 122.699 167.377C122.329 167.224 121.932 167.145 121.531 167.146H104.083Z" fill="#DDD7D7"/>
<path opacity="0.3" d="M94.7184 127.609H63.4269C62.8372 127.609 62.2544 127.736 61.7182 127.981C61.182 128.227 60.705 128.585 60.3197 129.031C59.9344 129.477 59.6497 130.002 59.4852 130.568C59.3207 131.134 59.2802 131.729 59.3663 132.313L64.4889 167.146C64.4889 167.547 64.568 167.944 64.7216 168.314C64.8752 168.685 65.1003 169.021 65.384 169.304C65.6678 169.587 66.0046 169.812 66.3752 169.965C66.7457 170.117 67.1428 170.196 67.5437 170.195H100.722L94.7184 127.609Z" fill="#A57E00"/>
<path d="M64.8893 225.669H63.1213L67.5443 170.195H69.3184L64.8893 225.669Z" fill="#A57E00"/>
<path opacity="0.6" d="M64.8893 225.669H63.1213L67.5443 170.195H69.3184L64.8893 225.669Z" fill="#DDD7D7"/>
<path d="M94.9696 225.669H93.2017L97.6308 170.195H99.3988L94.9696 225.669Z" fill="#A57E00"/>
<path opacity="0.6" d="M94.9696 225.669H93.2017L97.6308 170.195H99.3988L94.9696 225.669Z" fill="#DDD7D7"/>
<path d="M97.6924 225.669H95.9183L91.4954 170.195H93.2633L97.6924 225.669Z" fill="#A57E00"/>
<path opacity="0.7" d="M97.6924 225.669H95.9183L91.4954 170.195H93.2633L97.6924 225.669Z" fill="#DDD7D7"/>
<path d="M127.771 225.669H126.003L121.573 170.195H123.341L127.771 225.669Z" fill="#A57E00"/>
<path opacity="0.7" d="M127.771 225.669H126.003L121.573 170.195H123.341L127.771 225.669Z" fill="#DDD7D7"/>
</svg>
