<svg width="38" height="36" viewBox="0 0 38 36" fill="none" xmlns="http://www.w3.org/2000/svg">
<path d="M34.2857 29.1429V30.8571H3.42857V29.1429L6.85714 25.7143V15.4286C6.85714 10.1143 10.3371 5.43429 15.4286 3.92571C15.4286 3.75429 15.4286 3.6 15.4286 3.42857C15.4286 2.51926 15.7898 1.64719 16.4328 1.00421C17.0758 0.361223 17.9478 0 18.8571 0C19.7665 0 20.6385 0.361223 21.2815 1.00421C21.9245 1.64719 22.2857 2.51926 22.2857 3.42857V3.92571C27.3771 5.43429 30.8571 10.1143 30.8571 15.4286V25.7143L34.2857 29.1429ZM22.2857 32.5714C22.2857 33.4807 21.9245 34.3528 21.2815 34.9958C20.6385 35.6388 19.7665 36 18.8571 36C17.9478 36 17.0758 35.6388 16.4328 34.9958C15.7898 34.3528 15.4286 33.4807 15.4286 32.5714M32.1429 2.04L29.7086 4.47429C32.64 7.37143 34.2857 11.3143 34.2857 15.4286H37.7143C37.7143 10.4057 35.7257 5.57143 32.1429 2.04ZM0 15.4286H3.42857C3.42857 11.3143 5.07429 7.37143 8.00571 4.47429L5.57143 2.04C1.98857 5.57143 0 10.4057 0 15.4286Z" fill="#FFBB18"/>
</svg>
