<svg width="273" height="50" viewBox="0 0 273 50" fill="none" xmlns="http://www.w3.org/2000/svg">
<path d="M12.818 26.34C9.23667 26.34 6.392 25.2407 4.284 23.042C2.19867 20.8207 1.156 17.67 1.156 13.59C1.156 9.55533 2.16467 6.42733 4.182 4.206C6.222 1.962 9.06667 0.84 12.716 0.84C14.3933 0.84 15.7987 0.942 16.932 1.146C17.476 1.23667 17.9293 1.50867 18.292 1.962C18.6547 2.41533 18.836 2.92533 18.836 3.492V3.764C18.836 4.24 18.632 4.614 18.224 4.886C17.8387 5.158 17.4193 5.23733 16.966 5.124C15.8553 4.82933 14.6087 4.682 13.226 4.682C10.982 4.682 9.214 5.45267 7.922 6.994C6.65267 8.53533 6.018 10.734 6.018 13.59C6.018 16.4233 6.67533 18.622 7.99 20.186C9.32733 21.7273 11.1067 22.498 13.328 22.498C14.824 22.498 16.1047 22.362 17.17 22.09C17.6233 21.9767 18.0427 22.056 18.428 22.328C18.836 22.6 19.04 22.974 19.04 23.45V23.688C19.04 24.2547 18.8587 24.7647 18.496 25.218C18.156 25.6487 17.7027 25.9093 17.136 26C15.844 26.2267 14.4047 26.34 12.818 26.34ZM31.8928 17.5C28.6515 17.5 27.0308 18.4973 27.0308 20.492C27.0308 21.2173 27.2348 21.8067 27.6428 22.26C28.0735 22.7133 28.6175 22.94 29.2748 22.94C30.5668 22.94 31.6095 22.5433 32.4028 21.75C33.1961 20.934 33.5928 19.8233 33.5928 18.418V17.806C33.5928 17.602 33.4908 17.5 33.2868 17.5H31.8928ZM28.0508 26.34C26.5095 26.34 25.2288 25.8413 24.2088 24.844C23.2115 23.824 22.7128 22.5093 22.7128 20.9C22.7128 18.928 23.4608 17.398 24.9568 16.31C26.4755 15.222 28.7875 14.678 31.8928 14.678H33.2868C33.4908 14.678 33.5928 14.576 33.5928 14.372V14.1C33.5928 13.0573 33.3435 12.332 32.8448 11.924C32.3461 11.4933 31.4621 11.278 30.1928 11.278C28.8781 11.278 27.2688 11.516 25.3648 11.992C24.9568 12.1053 24.5828 12.0373 24.2428 11.788C23.9028 11.516 23.7328 11.1647 23.7328 10.734C23.7328 10.2127 23.8915 9.748 24.2088 9.34C24.5261 8.90933 24.9341 8.64867 25.4328 8.558C27.1555 8.17267 28.7761 7.98 30.2948 7.98C33.1961 7.98 35.2248 8.50133 36.3808 9.544C37.5368 10.5867 38.1148 12.4113 38.1148 15.018V24.062C38.1148 24.5833 37.9221 25.0367 37.5368 25.422C37.1741 25.8073 36.7321 26 36.2108 26H35.8368C35.2928 26 34.8281 25.8187 34.4428 25.456C34.0575 25.0707 33.8535 24.606 33.8308 24.062V23.586C33.8308 23.5633 33.8195 23.552 33.7968 23.552C33.7515 23.552 33.7288 23.5633 33.7288 23.586C32.3461 25.422 30.4535 26.34 28.0508 26.34ZM48.3754 18.86C45.9954 18.3387 44.2954 17.6247 43.2754 16.718C42.278 15.8113 41.7794 14.6327 41.7794 13.182C41.7794 11.55 42.38 10.2807 43.5814 9.374C44.8054 8.44467 46.6074 7.98 48.9874 7.98C50.4834 7.98 51.968 8.116 53.4414 8.388C53.94 8.47867 54.3367 8.728 54.6314 9.136C54.9487 9.52133 55.1074 9.97467 55.1074 10.496C55.1074 10.9267 54.9374 11.278 54.5974 11.55C54.2574 11.7993 53.872 11.8673 53.4414 11.754C52.172 11.4367 50.8347 11.278 49.4294 11.278C47.3894 11.278 46.3694 11.8447 46.3694 12.978C46.3694 13.522 46.562 13.9753 46.9474 14.338C47.3327 14.7007 47.99 14.984 48.9194 15.188C51.526 15.7093 53.3054 16.412 54.2574 17.296C55.232 18.18 55.7194 19.472 55.7194 21.172C55.7194 22.804 55.1074 24.0733 53.8834 24.98C52.6594 25.8867 50.88 26.34 48.5454 26.34C47.0267 26.34 45.474 26.1587 43.8874 25.796C43.3887 25.6827 42.9807 25.422 42.6634 25.014C42.346 24.5833 42.1874 24.096 42.1874 23.552C42.1874 23.1213 42.3574 22.7927 42.6974 22.566C43.06 22.3393 43.4454 22.2827 43.8534 22.396C45.3267 22.804 46.7207 23.008 48.0354 23.008C50.098 23.008 51.1294 22.396 51.1294 21.172C51.1294 20.5827 50.9254 20.118 50.5174 19.778C50.132 19.438 49.418 19.132 48.3754 18.86ZM60.005 12.298C59.5516 12.298 59.1663 12.1393 58.849 11.822C58.5316 11.482 58.373 11.0853 58.373 10.632C58.373 10.1787 58.5316 9.79333 58.849 9.476C59.1663 9.15867 59.5516 9 60.005 9H61.637C61.841 9 61.943 8.898 61.943 8.694V4.478C61.943 3.95667 62.1243 3.50333 62.487 3.118C62.8723 2.73266 63.3256 2.54 63.847 2.54H64.527C65.0483 2.54 65.5016 2.73266 65.887 3.118C66.2723 3.50333 66.465 3.95667 66.465 4.478V8.694C66.465 8.898 66.567 9 66.771 9H70.647C71.1003 9 71.4856 9.15867 71.803 9.476C72.143 9.79333 72.313 10.1787 72.313 10.632C72.313 11.0853 72.143 11.482 71.803 11.822C71.4856 12.1393 71.1003 12.298 70.647 12.298H66.771C66.567 12.298 66.465 12.3887 66.465 12.57V19.438C66.465 20.9113 66.6236 21.8633 66.941 22.294C67.2583 22.7247 67.9156 22.94 68.913 22.94C69.457 22.94 69.865 22.9173 70.137 22.872C70.5903 22.8267 70.987 22.9287 71.327 23.178C71.667 23.4273 71.837 23.7673 71.837 24.198C71.837 24.6967 71.667 25.15 71.327 25.558C71.0096 25.9433 70.613 26.1587 70.137 26.204C69.1396 26.2947 68.3916 26.34 67.893 26.34C65.6943 26.34 64.153 25.8753 63.269 24.946C62.385 23.994 61.943 22.3053 61.943 19.88V12.57C61.943 12.3887 61.841 12.298 61.637 12.298H60.005ZM79.9778 26C79.4565 26 79.0032 25.8073 78.6178 25.422C78.2325 25.0367 78.0398 24.5833 78.0398 24.062V2.438C78.0398 1.91667 78.2325 1.46333 78.6178 1.078C79.0032 0.692665 79.4565 0.499998 79.9778 0.499998H80.8618C81.3832 0.499998 81.8365 0.692665 82.2218 1.078C82.6072 1.46333 82.7998 1.91667 82.7998 2.438V24.062C82.7998 24.5833 82.6072 25.0367 82.2218 25.422C81.8365 25.8073 81.3832 26 80.8618 26H79.9778ZM95.7161 11.142C94.5601 11.142 93.6648 11.4707 93.0301 12.128C92.4181 12.7627 92.0328 13.794 91.8741 15.222C91.8741 15.4033 91.9648 15.494 92.1461 15.494H98.8101C98.9914 15.494 99.0821 15.4033 99.0821 15.222C98.9914 12.502 97.8694 11.142 95.7161 11.142ZM96.5661 26.34C93.5968 26.34 91.3074 25.5693 89.6981 24.028C88.1114 22.464 87.3181 20.1747 87.3181 17.16C87.3181 14.168 88.0321 11.89 89.4601 10.326C90.8881 8.762 92.9508 7.98 95.6481 7.98C100.68 7.98 103.264 10.836 103.4 16.548C103.423 17.092 103.23 17.5453 102.822 17.908C102.414 18.2707 101.938 18.452 101.394 18.452H92.1121C91.9081 18.452 91.8288 18.554 91.8741 18.758C92.0328 20.2767 92.5314 21.3873 93.3701 22.09C94.2314 22.77 95.4781 23.11 97.1101 23.11C98.1301 23.11 99.2634 22.94 100.51 22.6C100.918 22.4867 101.292 22.5547 101.632 22.804C101.995 23.0533 102.176 23.3933 102.176 23.824C102.176 24.3453 102.017 24.81 101.7 25.218C101.405 25.6033 101.009 25.8413 100.51 25.932C99.2408 26.204 97.9261 26.34 96.5661 26.34Z" fill="#FDD03B"/>
<path d="M125.605 5.396L122.613 16.072C122.59 16.14 122.601 16.208 122.647 16.276C122.692 16.344 122.749 16.378 122.817 16.378H128.461C128.529 16.378 128.585 16.344 128.631 16.276C128.676 16.208 128.687 16.14 128.665 16.072L125.673 5.396C125.673 5.37333 125.661 5.362 125.639 5.362C125.616 5.362 125.605 5.37333 125.605 5.396ZM116.799 26C116.323 26 115.949 25.8073 115.677 25.422C115.405 25.0367 115.348 24.6173 115.507 24.164L122.545 3.016C122.749 2.472 123.077 2.03 123.531 1.69C124.007 1.35 124.528 1.18 125.095 1.18H126.319C126.908 1.18 127.429 1.35 127.883 1.69C128.359 2.03 128.687 2.472 128.869 3.016L135.907 24.164C136.065 24.6173 136.009 25.0367 135.737 25.422C135.465 25.8073 135.091 26 134.615 26H133.391C132.847 26 132.337 25.83 131.861 25.49C131.407 25.1273 131.101 24.674 130.943 24.13L129.855 20.288C129.832 20.1067 129.707 20.016 129.481 20.016H121.797C121.593 20.016 121.468 20.1067 121.423 20.288L120.335 24.13C120.199 24.674 119.893 25.1273 119.417 25.49C118.963 25.83 118.453 26 117.887 26H116.799ZM146.194 26.34C143.383 26.34 141.218 25.5693 139.7 24.028C138.181 22.464 137.422 20.1747 137.422 17.16C137.422 14.1907 138.147 11.924 139.598 10.36C141.071 8.77333 143.156 7.98 145.854 7.98C147.055 7.98 148.211 8.05933 149.322 8.218C149.843 8.286 150.274 8.524 150.614 8.932C150.954 9.34 151.124 9.816 151.124 10.36C151.124 10.8133 150.942 11.176 150.58 11.448C150.24 11.72 149.843 11.8107 149.39 11.72C148.506 11.5387 147.52 11.448 146.432 11.448C145.004 11.448 143.938 11.9013 143.236 12.808C142.533 13.7147 142.182 15.1653 142.182 17.16C142.182 19.2 142.556 20.662 143.304 21.546C144.052 22.43 145.208 22.872 146.772 22.872C147.882 22.872 148.846 22.77 149.662 22.566C150.092 22.4527 150.478 22.532 150.818 22.804C151.18 23.076 151.362 23.4273 151.362 23.858C151.362 24.402 151.192 24.878 150.852 25.286C150.534 25.694 150.115 25.9433 149.594 26.034C148.438 26.238 147.304 26.34 146.194 26.34ZM164.207 17.5C160.966 17.5 159.345 18.4973 159.345 20.492C159.345 21.2173 159.549 21.8067 159.957 22.26C160.388 22.7133 160.932 22.94 161.589 22.94C162.881 22.94 163.924 22.5433 164.717 21.75C165.511 20.934 165.907 19.8233 165.907 18.418V17.806C165.907 17.602 165.805 17.5 165.601 17.5H164.207ZM160.365 26.34C158.824 26.34 157.543 25.8413 156.523 24.844C155.526 23.824 155.027 22.5093 155.027 20.9C155.027 18.928 155.775 17.398 157.271 16.31C158.79 15.222 161.102 14.678 164.207 14.678H165.601C165.805 14.678 165.907 14.576 165.907 14.372V14.1C165.907 13.0573 165.658 12.332 165.159 11.924C164.661 11.4933 163.777 11.278 162.507 11.278C161.193 11.278 159.583 11.516 157.679 11.992C157.271 12.1053 156.897 12.0373 156.557 11.788C156.217 11.516 156.047 11.1647 156.047 10.734C156.047 10.2127 156.206 9.748 156.523 9.34C156.841 8.90933 157.249 8.64867 157.747 8.558C159.47 8.17267 161.091 7.98 162.609 7.98C165.511 7.98 167.539 8.50133 168.695 9.544C169.851 10.5867 170.429 12.4113 170.429 15.018V24.062C170.429 24.5833 170.237 25.0367 169.851 25.422C169.489 25.8073 169.047 26 168.525 26H168.151C167.607 26 167.143 25.8187 166.757 25.456C166.372 25.0707 166.168 24.606 166.145 24.062V23.586C166.145 23.5633 166.134 23.552 166.111 23.552C166.066 23.552 166.043 23.5633 166.043 23.586C164.661 25.422 162.768 26.34 160.365 26.34ZM182.314 11.38C179.707 11.38 178.404 13.3067 178.404 17.16C178.404 19.0867 178.755 20.5373 179.458 21.512C180.161 22.464 181.113 22.94 182.314 22.94C183.379 22.94 184.297 22.5887 185.068 21.886C185.839 21.1833 186.224 20.3787 186.224 19.472V14.848C186.224 13.9413 185.839 13.1367 185.068 12.434C184.297 11.7313 183.379 11.38 182.314 11.38ZM180.954 26.34C178.937 26.34 177.259 25.524 175.922 23.892C174.585 22.2373 173.916 19.9933 173.916 17.16C173.916 14.236 174.551 11.9807 175.82 10.394C177.112 8.78467 178.823 7.98 180.954 7.98C182.881 7.98 184.581 8.68267 186.054 10.088C186.077 10.1107 186.099 10.122 186.122 10.122C186.145 10.122 186.156 10.1107 186.156 10.088V2.438C186.156 1.91667 186.349 1.46333 186.734 1.078C187.119 0.692665 187.573 0.499998 188.094 0.499998H188.774C189.295 0.499998 189.749 0.692665 190.134 1.078C190.519 1.46333 190.712 1.91667 190.712 2.438V24.062C190.712 24.5833 190.519 25.0367 190.134 25.422C189.749 25.8073 189.295 26 188.774 26H188.4C187.856 26 187.391 25.8187 187.006 25.456C186.643 25.0707 186.451 24.606 186.428 24.062L186.394 23.824C186.394 23.8013 186.383 23.79 186.36 23.79C186.337 23.79 186.315 23.8013 186.292 23.824C184.796 25.5013 183.017 26.34 180.954 26.34ZM202.796 11.142C201.64 11.142 200.745 11.4707 200.11 12.128C199.498 12.7627 199.113 13.794 198.954 15.222C198.954 15.4033 199.045 15.494 199.226 15.494H205.89C206.072 15.494 206.162 15.4033 206.162 15.222C206.072 12.502 204.95 11.142 202.796 11.142ZM203.646 26.34C200.677 26.34 198.388 25.5693 196.778 24.028C195.192 22.464 194.398 20.1747 194.398 17.16C194.398 14.168 195.112 11.89 196.54 10.326C197.968 8.762 200.031 7.98 202.728 7.98C207.76 7.98 210.344 10.836 210.48 16.548C210.503 17.092 210.31 17.5453 209.902 17.908C209.494 18.2707 209.018 18.452 208.474 18.452H199.192C198.988 18.452 198.909 18.554 198.954 18.758C199.113 20.2767 199.612 21.3873 200.45 22.09C201.312 22.77 202.558 23.11 204.19 23.11C205.21 23.11 206.344 22.94 207.59 22.6C207.998 22.4867 208.372 22.5547 208.712 22.804C209.075 23.0533 209.256 23.3933 209.256 23.824C209.256 24.3453 209.098 24.81 208.78 25.218C208.486 25.6033 208.089 25.8413 207.59 25.932C206.321 26.204 205.006 26.34 203.646 26.34ZM216.053 26C215.531 26 215.078 25.8073 214.693 25.422C214.33 25.0367 214.149 24.5833 214.149 24.062V10.258C214.149 9.73667 214.33 9.28333 214.693 8.898C215.078 8.51267 215.531 8.32 216.053 8.32H216.529C217.05 8.32 217.492 8.50133 217.855 8.864C218.24 9.22667 218.444 9.66867 218.467 10.19V10.428C218.467 10.4507 218.478 10.462 218.501 10.462C218.546 10.462 218.569 10.4507 218.569 10.428C219.906 8.796 221.413 7.98 223.091 7.98C224.111 7.98 224.927 8.17267 225.539 8.558C226.173 8.94333 226.729 9.62333 227.205 10.598C227.205 10.6207 227.227 10.632 227.273 10.632C227.295 10.632 227.318 10.6207 227.341 10.598C228.769 8.85267 230.378 7.98 232.169 7.98C234.05 7.98 235.399 8.49 236.215 9.51C237.053 10.53 237.473 12.2867 237.473 14.78V24.062C237.473 24.5833 237.28 25.0367 236.895 25.422C236.532 25.8073 236.09 26 235.569 26H234.991C234.469 26 234.016 25.8073 233.631 25.422C233.245 25.0367 233.053 24.5833 233.053 24.062V15.46C233.053 13.8053 232.894 12.7173 232.577 12.196C232.259 11.6747 231.647 11.414 230.741 11.414C230.151 11.414 229.562 11.686 228.973 12.23C228.383 12.774 228.089 13.318 228.089 13.862V24.062C228.089 24.5833 227.896 25.0367 227.511 25.422C227.125 25.8073 226.672 26 226.151 26H225.573C225.051 26 224.598 25.8073 224.213 25.422C223.85 25.0367 223.669 24.5833 223.669 24.062V15.46C223.669 13.828 223.499 12.7513 223.159 12.23C222.841 11.686 222.229 11.414 221.323 11.414C220.733 11.414 220.144 11.686 219.555 12.23C218.965 12.774 218.671 13.318 218.671 13.862V24.062C218.671 24.5833 218.478 25.0367 218.093 25.422C217.707 25.8073 217.254 26 216.733 26H216.053ZM244.964 26C244.443 26 243.989 25.8073 243.604 25.422C243.219 25.0367 243.026 24.5833 243.026 24.062V10.258C243.026 9.73667 243.219 9.28333 243.604 8.898C243.989 8.51267 244.443 8.32 244.964 8.32H245.848C246.369 8.32 246.823 8.51267 247.208 8.898C247.593 9.28333 247.786 9.73667 247.786 10.258V24.062C247.786 24.5833 247.593 25.0367 247.208 25.422C246.823 25.8073 246.369 26 245.848 26H244.964ZM244.964 4.58C244.443 4.58 243.989 4.38733 243.604 4.002C243.219 3.61667 243.026 3.16333 243.026 2.642V2.438C243.026 1.91667 243.219 1.46333 243.604 1.078C243.989 0.692665 244.443 0.499998 244.964 0.499998H245.848C246.369 0.499998 246.823 0.692665 247.208 1.078C247.593 1.46333 247.786 1.91667 247.786 2.438V2.642C247.786 3.16333 247.593 3.61667 247.208 4.002C246.823 4.38733 246.369 4.58 245.848 4.58H244.964ZM261.824 17.5C258.583 17.5 256.962 18.4973 256.962 20.492C256.962 21.2173 257.166 21.8067 257.574 22.26C258.005 22.7133 258.549 22.94 259.206 22.94C260.498 22.94 261.541 22.5433 262.334 21.75C263.128 20.934 263.524 19.8233 263.524 18.418V17.806C263.524 17.602 263.422 17.5 263.218 17.5H261.824ZM257.982 26.34C256.441 26.34 255.16 25.8413 254.14 24.844C253.143 23.824 252.644 22.5093 252.644 20.9C252.644 18.928 253.392 17.398 254.888 16.31C256.407 15.222 258.719 14.678 261.824 14.678H263.218C263.422 14.678 263.524 14.576 263.524 14.372V14.1C263.524 13.0573 263.275 12.332 262.776 11.924C262.278 11.4933 261.394 11.278 260.124 11.278C258.81 11.278 257.2 11.516 255.296 11.992C254.888 12.1053 254.514 12.0373 254.174 11.788C253.834 11.516 253.664 11.1647 253.664 10.734C253.664 10.2127 253.823 9.748 254.14 9.34C254.458 8.90933 254.866 8.64867 255.364 8.558C257.087 8.17267 258.708 7.98 260.226 7.98C263.128 7.98 265.156 8.50133 266.312 9.544C267.468 10.5867 268.046 12.4113 268.046 15.018V24.062C268.046 24.5833 267.854 25.0367 267.468 25.422C267.106 25.8073 266.664 26 266.142 26H265.768C265.224 26 264.76 25.8187 264.374 25.456C263.989 25.0707 263.785 24.606 263.762 24.062V23.586C263.762 23.5633 263.751 23.552 263.728 23.552C263.683 23.552 263.66 23.5633 263.66 23.586C262.278 25.422 260.385 26.34 257.982 26.34ZM5.61 35.698L4.114 41.036C4.10267 41.07 4.10833 41.104 4.131 41.138C4.15367 41.172 4.182 41.189 4.216 41.189H7.038C7.072 41.189 7.10033 41.172 7.123 41.138C7.14567 41.104 7.15133 41.07 7.14 41.036L5.644 35.698C5.644 35.6867 5.63833 35.681 5.627 35.681C5.61567 35.681 5.61 35.6867 5.61 35.698ZM1.207 46C0.969 46 0.782 45.9037 0.646 45.711C0.51 45.5183 0.481667 45.3087 0.561 45.082L4.08 34.508C4.182 34.236 4.34633 34.015 4.573 33.845C4.811 33.675 5.07167 33.59 5.355 33.59H5.967C6.26167 33.59 6.52233 33.675 6.749 33.845C6.987 34.015 7.15133 34.236 7.242 34.508L10.761 45.082C10.8403 45.3087 10.812 45.5183 10.676 45.711C10.54 45.9037 10.353 46 10.115 46H9.503C9.231 46 8.976 45.915 8.738 45.745C8.51133 45.5637 8.35833 45.337 8.279 45.065L7.735 43.144C7.72367 43.0533 7.66133 43.008 7.548 43.008H3.706C3.604 43.008 3.54167 43.0533 3.519 43.144L2.975 45.065C2.907 45.337 2.754 45.5637 2.516 45.745C2.28933 45.915 2.03433 46 1.751 46H1.207ZM20.1475 46C19.8868 46 19.6602 45.9037 19.4675 45.711C19.2862 45.5183 19.1955 45.2917 19.1955 45.031V34.219C19.1955 33.9583 19.2862 33.7317 19.4675 33.539C19.6602 33.3463 19.8868 33.25 20.1475 33.25H20.4875C20.7482 33.25 20.9748 33.3463 21.1675 33.539C21.3602 33.7317 21.4565 33.9583 21.4565 34.219V38.163C21.4565 38.1743 21.4622 38.18 21.4735 38.18C21.4848 38.18 21.4962 38.1743 21.5075 38.163C22.3008 37.381 23.1735 36.99 24.1255 36.99C25.1568 36.99 25.9048 37.2847 26.3695 37.874C26.8342 38.4633 27.0665 39.472 27.0665 40.9V45.031C27.0665 45.2917 26.9702 45.5183 26.7775 45.711C26.5848 45.9037 26.3582 46 26.0975 46H25.8255C25.5648 46 25.3382 45.9037 25.1455 45.711C24.9528 45.5183 24.8565 45.2917 24.8565 45.031V41.24C24.8565 40.254 24.7488 39.6023 24.5335 39.285C24.3295 38.9677 23.9385 38.809 23.3605 38.809C22.9072 38.809 22.4765 39.013 22.0685 39.421C21.6605 39.829 21.4565 40.2653 21.4565 40.73V45.031C21.4565 45.2917 21.3602 45.5183 21.1675 45.711C20.9748 45.9037 20.7482 46 20.4875 46H20.1475ZM35.5225 39.353C35.1938 38.877 34.6951 38.639 34.0265 38.639C33.3578 38.639 32.8535 38.877 32.5135 39.353C32.1848 39.8177 32.0205 40.56 32.0205 41.58C32.0205 42.6 32.1848 43.348 32.5135 43.824C32.8535 44.2887 33.3578 44.521 34.0265 44.521C34.6951 44.521 35.1938 44.2887 35.5225 43.824C35.8625 43.348 36.0325 42.6 36.0325 41.58C36.0325 40.56 35.8625 39.8177 35.5225 39.353ZM37.1885 44.98C36.4405 45.7733 35.3865 46.17 34.0265 46.17C32.6665 46.17 31.6068 45.7733 30.8475 44.98C30.0995 44.1753 29.7255 43.042 29.7255 41.58C29.7255 40.118 30.0995 38.9903 30.8475 38.197C31.6068 37.3923 32.6665 36.99 34.0265 36.99C35.3865 36.99 36.4405 37.3923 37.1885 38.197C37.9478 38.9903 38.3275 40.118 38.3275 41.58C38.3275 43.042 37.9478 44.1753 37.1885 44.98ZM42.0342 46C41.7735 46 41.5468 45.9037 41.3542 45.711C41.1728 45.5183 41.0822 45.2917 41.0822 45.031V38.129C41.0822 37.8683 41.1728 37.6417 41.3542 37.449C41.5468 37.2563 41.7735 37.16 42.0342 37.16H42.2722C42.5328 37.16 42.7538 37.2507 42.9352 37.432C43.1278 37.6133 43.2298 37.8343 43.2412 38.095V38.214C43.2412 38.2253 43.2468 38.231 43.2582 38.231C43.2808 38.231 43.2922 38.2253 43.2922 38.214C43.9608 37.398 44.7145 36.99 45.5532 36.99C46.0632 36.99 46.4712 37.0863 46.7772 37.279C47.0945 37.4717 47.3722 37.8117 47.6102 38.299C47.6102 38.3103 47.6215 38.316 47.6442 38.316C47.6555 38.316 47.6668 38.3103 47.6782 38.299C48.3922 37.4263 49.1968 36.99 50.0922 36.99C51.0328 36.99 51.7072 37.245 52.1152 37.755C52.5345 38.265 52.7442 39.1433 52.7442 40.39V45.031C52.7442 45.2917 52.6478 45.5183 52.4552 45.711C52.2738 45.9037 52.0528 46 51.7922 46H51.5032C51.2425 46 51.0158 45.9037 50.8232 45.711C50.6305 45.5183 50.5342 45.2917 50.5342 45.031V40.73C50.5342 39.9027 50.4548 39.3587 50.2962 39.098C50.1375 38.8373 49.8315 38.707 49.3782 38.707C49.0835 38.707 48.7888 38.843 48.4942 39.115C48.1995 39.387 48.0522 39.659 48.0522 39.931V45.031C48.0522 45.2917 47.9558 45.5183 47.7632 45.711C47.5705 45.9037 47.3438 46 47.0832 46H46.7942C46.5335 46 46.3068 45.9037 46.1142 45.711C45.9328 45.5183 45.8422 45.2917 45.8422 45.031V40.73C45.8422 39.914 45.7572 39.3757 45.5872 39.115C45.4285 38.843 45.1225 38.707 44.6692 38.707C44.3745 38.707 44.0798 38.843 43.7852 39.115C43.4905 39.387 43.3432 39.659 43.3432 39.931V45.031C43.3432 45.2917 43.2468 45.5183 43.0542 45.711C42.8615 45.9037 42.6348 46 42.3742 46H42.0342ZM59.6149 38.571C59.0369 38.571 58.5892 38.7353 58.2719 39.064C57.9659 39.3813 57.7732 39.897 57.6939 40.611C57.6939 40.7017 57.7392 40.747 57.8299 40.747H61.1619C61.2526 40.747 61.2979 40.7017 61.2979 40.611C61.2526 39.251 60.6916 38.571 59.6149 38.571ZM60.0399 46.17C58.5552 46.17 57.4106 45.7847 56.6059 45.014C55.8126 44.232 55.4159 43.0873 55.4159 41.58C55.4159 40.084 55.7729 38.945 56.4869 38.163C57.2009 37.381 58.2322 36.99 59.5809 36.99C62.0969 36.99 63.3889 38.418 63.4569 41.274C63.4682 41.546 63.3719 41.7727 63.1679 41.954C62.9639 42.1353 62.7259 42.226 62.4539 42.226H57.8129C57.7109 42.226 57.6712 42.277 57.6939 42.379C57.7732 43.1383 58.0226 43.6937 58.4419 44.045C58.8726 44.385 59.4959 44.555 60.3119 44.555C60.8219 44.555 61.3886 44.47 62.0119 44.3C62.2159 44.2433 62.4029 44.2773 62.5729 44.402C62.7542 44.5267 62.8449 44.6967 62.8449 44.912C62.8449 45.1727 62.7656 45.405 62.6069 45.609C62.4596 45.8017 62.2612 45.9207 62.0119 45.966C61.3772 46.102 60.7199 46.17 60.0399 46.17ZM72.5982 39.149C72.3716 39.149 72.1789 39.0697 72.0202 38.911C71.8616 38.741 71.7822 38.5427 71.7822 38.316C71.7822 38.0893 71.8616 37.8967 72.0202 37.738C72.1789 37.5793 72.3716 37.5 72.5982 37.5H73.4992C73.6012 37.5 73.6522 37.449 73.6522 37.347V36.939C73.6522 35.715 73.9186 34.8253 74.4512 34.27C74.9839 33.7033 75.8282 33.42 76.9842 33.42C77.3696 33.42 77.7039 33.4427 77.9872 33.488C78.2252 33.522 78.4179 33.641 78.5652 33.845C78.7239 34.0377 78.8032 34.2587 78.8032 34.508C78.8032 34.712 78.7182 34.8763 78.5482 35.001C78.3782 35.1143 78.1912 35.154 77.9872 35.12C77.7606 35.0973 77.5962 35.086 77.4942 35.086C76.9162 35.086 76.5196 35.2107 76.3042 35.46C76.1002 35.698 75.9982 36.1683 75.9982 36.871V37.347C75.9982 37.449 76.0492 37.5 76.1512 37.5H77.8172C78.0439 37.5 78.2366 37.5793 78.3952 37.738C78.5539 37.8967 78.6332 38.0893 78.6332 38.316C78.6332 38.5427 78.5539 38.741 78.3952 38.911C78.2366 39.0697 78.0439 39.149 77.8172 39.149H76.1512C76.0492 39.149 75.9982 39.1943 75.9982 39.285V45.031C75.9982 45.2917 75.9019 45.5183 75.7092 45.711C75.5166 45.9037 75.2899 46 75.0292 46H74.6042C74.3436 46 74.1169 45.9037 73.9242 45.711C73.7429 45.5183 73.6522 45.2917 73.6522 45.031V39.285C73.6522 39.1943 73.6012 39.149 73.4992 39.149H72.5982ZM86.5918 39.353C86.2631 38.877 85.7645 38.639 85.0958 38.639C84.4271 38.639 83.9228 38.877 83.5828 39.353C83.2541 39.8177 83.0898 40.56 83.0898 41.58C83.0898 42.6 83.2541 43.348 83.5828 43.824C83.9228 44.2887 84.4271 44.521 85.0958 44.521C85.7645 44.521 86.2631 44.2887 86.5918 43.824C86.9318 43.348 87.1018 42.6 87.1018 41.58C87.1018 40.56 86.9318 39.8177 86.5918 39.353ZM88.2578 44.98C87.5098 45.7733 86.4558 46.17 85.0958 46.17C83.7358 46.17 82.6761 45.7733 81.9168 44.98C81.1688 44.1753 80.7948 43.042 80.7948 41.58C80.7948 40.118 81.1688 38.9903 81.9168 38.197C82.6761 37.3923 83.7358 36.99 85.0958 36.99C86.4558 36.99 87.5098 37.3923 88.2578 38.197C89.0171 38.9903 89.3968 40.118 89.3968 41.58C89.3968 43.042 89.0171 44.1753 88.2578 44.98ZM93.1205 46C92.8598 46 92.6332 45.9037 92.4405 45.711C92.2478 45.5183 92.1515 45.2917 92.1515 45.031V38.129C92.1515 37.8683 92.2478 37.6417 92.4405 37.449C92.6332 37.2563 92.8598 37.16 93.1205 37.16H93.4605C93.7212 37.16 93.9478 37.2563 94.1405 37.449C94.3332 37.6417 94.4295 37.8683 94.4295 38.129V38.843C94.4295 38.8543 94.4352 38.86 94.4465 38.86C94.4692 38.86 94.4805 38.8543 94.4805 38.843C94.8092 38.3897 95.2398 38.0213 95.7725 37.738C96.3052 37.4433 96.8888 37.262 97.5235 37.194C97.7615 37.1713 97.9655 37.2507 98.1355 37.432C98.3055 37.602 98.3905 37.806 98.3905 38.044C98.3905 38.282 98.3055 38.486 98.1355 38.656C97.9655 38.826 97.7615 38.9223 97.5235 38.945C95.5175 39.1037 94.5145 40.1237 94.5145 42.005V45.031C94.5145 45.2917 94.4182 45.5183 94.2255 45.711C94.0328 45.9037 93.8062 46 93.5455 46H93.1205ZM109.512 45.864L106.69 38.061C106.622 37.8343 106.65 37.6303 106.775 37.449C106.899 37.2563 107.081 37.16 107.319 37.16H107.829C108.112 37.16 108.373 37.2507 108.611 37.432C108.849 37.602 109.002 37.823 109.07 38.095L110.651 43.654C110.651 43.6653 110.656 43.671 110.668 43.671C110.679 43.671 110.685 43.6653 110.685 43.654L112.504 38.078C112.594 37.806 112.759 37.585 112.997 37.415C113.235 37.245 113.495 37.16 113.779 37.16H114.187C114.425 37.16 114.606 37.2563 114.731 37.449C114.867 37.6417 114.889 37.8457 114.799 38.061L110.651 48.839C110.549 49.111 110.379 49.3263 110.141 49.485C109.903 49.655 109.636 49.74 109.342 49.74H108.934C108.707 49.74 108.526 49.6437 108.39 49.451C108.265 49.2697 108.248 49.0713 108.339 48.856L109.512 46.136C109.534 46.0907 109.546 46.0453 109.546 46C109.546 45.9547 109.534 45.9093 109.512 45.864ZM122.185 39.353C121.856 38.877 121.357 38.639 120.689 38.639C120.02 38.639 119.516 38.877 119.176 39.353C118.847 39.8177 118.683 40.56 118.683 41.58C118.683 42.6 118.847 43.348 119.176 43.824C119.516 44.2887 120.02 44.521 120.689 44.521C121.357 44.521 121.856 44.2887 122.185 43.824C122.525 43.348 122.695 42.6 122.695 41.58C122.695 40.56 122.525 39.8177 122.185 39.353ZM123.851 44.98C123.103 45.7733 122.049 46.17 120.689 46.17C119.329 46.17 118.269 45.7733 117.51 44.98C116.762 44.1753 116.388 43.042 116.388 41.58C116.388 40.118 116.762 38.9903 117.51 38.197C118.269 37.3923 119.329 36.99 120.689 36.99C122.049 36.99 123.103 37.3923 123.851 38.197C124.61 38.9903 124.99 40.118 124.99 41.58C124.99 43.042 124.61 44.1753 123.851 44.98ZM130.515 46.17C129.518 46.17 128.793 45.898 128.339 45.354C127.886 44.7987 127.659 43.8637 127.659 42.549V38.129C127.659 37.8683 127.756 37.6417 127.948 37.449C128.141 37.2563 128.368 37.16 128.628 37.16H128.9C129.161 37.16 129.388 37.2563 129.58 37.449C129.773 37.6417 129.869 37.8683 129.869 38.129V42.311C129.869 43.1043 129.977 43.654 130.192 43.96C130.408 44.266 130.77 44.419 131.28 44.419C131.745 44.419 132.176 44.2207 132.572 43.824C132.98 43.4273 133.184 43.0023 133.184 42.549V38.129C133.184 37.8683 133.281 37.6417 133.473 37.449C133.666 37.2563 133.893 37.16 134.153 37.16H134.493C134.754 37.16 134.975 37.2563 135.156 37.449C135.349 37.6417 135.445 37.8683 135.445 38.129V45.031C135.445 45.2917 135.349 45.5183 135.156 45.711C134.975 45.9037 134.754 46 134.493 46H134.272C134 46 133.768 45.9093 133.575 45.728C133.394 45.5353 133.298 45.303 133.286 45.031L133.269 44.912C133.269 44.9007 133.264 44.895 133.252 44.895C133.241 44.895 133.23 44.9007 133.218 44.912C132.448 45.7507 131.547 46.17 130.515 46.17ZM139.757 46C139.497 46 139.27 45.9037 139.077 45.711C138.885 45.5183 138.788 45.2917 138.788 45.031V38.129C138.788 37.8683 138.885 37.6417 139.077 37.449C139.27 37.2563 139.497 37.16 139.757 37.16H140.097C140.358 37.16 140.585 37.2563 140.777 37.449C140.97 37.6417 141.066 37.8683 141.066 38.129V38.843C141.066 38.8543 141.072 38.86 141.083 38.86C141.106 38.86 141.117 38.8543 141.117 38.843C141.446 38.3897 141.877 38.0213 142.409 37.738C142.942 37.4433 143.526 37.262 144.16 37.194C144.398 37.1713 144.602 37.2507 144.772 37.432C144.942 37.602 145.027 37.806 145.027 38.044C145.027 38.282 144.942 38.486 144.772 38.656C144.602 38.826 144.398 38.9223 144.16 38.945C142.154 39.1037 141.151 40.1237 141.151 42.005V45.031C141.151 45.2917 141.055 45.5183 140.862 45.711C140.67 45.9037 140.443 46 140.182 46H139.757ZM157.559 38.69C156.256 38.69 155.604 39.6533 155.604 41.58C155.604 42.5433 155.78 43.2687 156.131 43.756C156.483 44.232 156.959 44.47 157.559 44.47C158.092 44.47 158.551 44.2943 158.936 43.943C159.322 43.5917 159.514 43.1893 159.514 42.736V40.424C159.514 39.9707 159.322 39.5683 158.936 39.217C158.551 38.8657 158.092 38.69 157.559 38.69ZM156.879 46.17C155.871 46.17 155.032 45.762 154.363 44.946C153.695 44.1187 153.36 42.9967 153.36 41.58C153.36 40.118 153.678 38.9903 154.312 38.197C154.958 37.3923 155.814 36.99 156.879 36.99C157.843 36.99 158.693 37.3413 159.429 38.044C159.441 38.0553 159.452 38.061 159.463 38.061C159.475 38.061 159.48 38.0553 159.48 38.044V34.219C159.48 33.9583 159.577 33.7317 159.769 33.539C159.962 33.3463 160.189 33.25 160.449 33.25H160.789C161.05 33.25 161.277 33.3463 161.469 33.539C161.662 33.7317 161.758 33.9583 161.758 34.219V45.031C161.758 45.2917 161.662 45.5183 161.469 45.711C161.277 45.9037 161.05 46 160.789 46H160.602C160.33 46 160.098 45.9093 159.905 45.728C159.724 45.5353 159.628 45.303 159.616 45.031L159.599 44.912C159.599 44.9007 159.594 44.895 159.582 44.895C159.571 44.895 159.56 44.9007 159.548 44.912C158.8 45.7507 157.911 46.17 156.879 46.17ZM166.165 46C165.905 46 165.678 45.9037 165.485 45.711C165.293 45.5183 165.196 45.2917 165.196 45.031V38.129C165.196 37.8683 165.293 37.6417 165.485 37.449C165.678 37.2563 165.905 37.16 166.165 37.16H166.505C166.766 37.16 166.993 37.2563 167.185 37.449C167.378 37.6417 167.474 37.8683 167.474 38.129V38.843C167.474 38.8543 167.48 38.86 167.491 38.86C167.514 38.86 167.525 38.8543 167.525 38.843C167.854 38.3897 168.285 38.0213 168.817 37.738C169.35 37.4433 169.934 37.262 170.568 37.194C170.806 37.1713 171.01 37.2507 171.18 37.432C171.35 37.602 171.435 37.806 171.435 38.044C171.435 38.282 171.35 38.486 171.18 38.656C171.01 38.826 170.806 38.9223 170.568 38.945C168.562 39.1037 167.559 40.1237 167.559 42.005V45.031C167.559 45.2917 167.463 45.5183 167.27 45.711C167.078 45.9037 166.851 46 166.59 46H166.165ZM177.719 38.571C177.141 38.571 176.694 38.7353 176.376 39.064C176.07 39.3813 175.878 39.897 175.798 40.611C175.798 40.7017 175.844 40.747 175.934 40.747H179.266C179.357 40.747 179.402 40.7017 179.402 40.611C179.357 39.251 178.796 38.571 177.719 38.571ZM178.144 46.17C176.66 46.17 175.515 45.7847 174.71 45.014C173.917 44.232 173.52 43.0873 173.52 41.58C173.52 40.084 173.877 38.945 174.591 38.163C175.305 37.381 176.337 36.99 177.685 36.99C180.201 36.99 181.493 38.418 181.561 41.274C181.573 41.546 181.476 41.7727 181.272 41.954C181.068 42.1353 180.83 42.226 180.558 42.226H175.917C175.815 42.226 175.776 42.277 175.798 42.379C175.878 43.1383 176.127 43.6937 176.546 44.045C176.977 44.385 177.6 44.555 178.416 44.555C178.926 44.555 179.493 44.47 180.116 44.3C180.32 44.2433 180.507 44.2773 180.677 44.402C180.859 44.5267 180.949 44.6967 180.949 44.912C180.949 45.1727 180.87 45.405 180.711 45.609C180.564 45.8017 180.366 45.9207 180.116 45.966C179.482 46.102 178.824 46.17 178.144 46.17ZM188.561 41.75C186.94 41.75 186.13 42.2487 186.13 43.246C186.13 43.6087 186.232 43.9033 186.436 44.13C186.651 44.3567 186.923 44.47 187.252 44.47C187.898 44.47 188.419 44.2717 188.816 43.875C189.212 43.467 189.411 42.9117 189.411 42.209V41.903C189.411 41.801 189.36 41.75 189.258 41.75H188.561ZM186.64 46.17C185.869 46.17 185.229 45.9207 184.719 45.422C184.22 44.912 183.971 44.2547 183.971 43.45C183.971 42.464 184.345 41.699 185.093 41.155C185.852 40.611 187.008 40.339 188.561 40.339H189.258C189.36 40.339 189.411 40.288 189.411 40.186V40.05C189.411 39.5287 189.286 39.166 189.037 38.962C188.787 38.7467 188.345 38.639 187.711 38.639C187.053 38.639 186.249 38.758 185.297 38.996C185.093 39.0527 184.906 39.0187 184.736 38.894C184.566 38.758 184.481 38.5823 184.481 38.367C184.481 38.1063 184.56 37.874 184.719 37.67C184.877 37.4547 185.081 37.3243 185.331 37.279C186.192 37.0863 187.002 36.99 187.762 36.99C189.212 36.99 190.227 37.2507 190.805 37.772C191.383 38.2933 191.672 39.2057 191.672 40.509V45.031C191.672 45.2917 191.575 45.5183 191.383 45.711C191.201 45.9037 190.98 46 190.72 46H190.533C190.261 46 190.028 45.9093 189.836 45.728C189.643 45.5353 189.541 45.303 189.53 45.031V44.793C189.53 44.7817 189.524 44.776 189.513 44.776C189.49 44.776 189.479 44.7817 189.479 44.793C188.787 45.711 187.841 46.17 186.64 46.17ZM195.877 46C195.616 46 195.39 45.9037 195.197 45.711C195.016 45.5183 194.925 45.2917 194.925 45.031V38.129C194.925 37.8683 195.016 37.6417 195.197 37.449C195.39 37.2563 195.616 37.16 195.877 37.16H196.115C196.376 37.16 196.597 37.2507 196.778 37.432C196.971 37.6133 197.073 37.8343 197.084 38.095V38.214C197.084 38.2253 197.09 38.231 197.101 38.231C197.124 38.231 197.135 38.2253 197.135 38.214C197.804 37.398 198.557 36.99 199.396 36.99C199.906 36.99 200.314 37.0863 200.62 37.279C200.937 37.4717 201.215 37.8117 201.453 38.299C201.453 38.3103 201.464 38.316 201.487 38.316C201.498 38.316 201.51 38.3103 201.521 38.299C202.235 37.4263 203.04 36.99 203.935 36.99C204.876 36.99 205.55 37.245 205.958 37.755C206.377 38.265 206.587 39.1433 206.587 40.39V45.031C206.587 45.2917 206.491 45.5183 206.298 45.711C206.117 45.9037 205.896 46 205.635 46H205.346C205.085 46 204.859 45.9037 204.666 45.711C204.473 45.5183 204.377 45.2917 204.377 45.031V40.73C204.377 39.9027 204.298 39.3587 204.139 39.098C203.98 38.8373 203.674 38.707 203.221 38.707C202.926 38.707 202.632 38.843 202.337 39.115C202.042 39.387 201.895 39.659 201.895 39.931V45.031C201.895 45.2917 201.799 45.5183 201.606 45.711C201.413 45.9037 201.187 46 200.926 46H200.637C200.376 46 200.15 45.9037 199.957 45.711C199.776 45.5183 199.685 45.2917 199.685 45.031V40.73C199.685 39.914 199.6 39.3757 199.43 39.115C199.271 38.843 198.965 38.707 198.512 38.707C198.217 38.707 197.923 38.843 197.628 39.115C197.333 39.387 197.186 39.659 197.186 39.931V45.031C197.186 45.2917 197.09 45.5183 196.897 45.711C196.704 45.9037 196.478 46 196.217 46H195.877ZM219.476 46.17C218.07 46.17 216.988 45.7847 216.229 45.014C215.469 44.232 215.09 43.0873 215.09 41.58C215.09 40.0953 215.452 38.962 216.178 38.18C216.914 37.3867 217.957 36.99 219.306 36.99C219.906 36.99 220.484 37.0297 221.04 37.109C221.3 37.143 221.516 37.262 221.686 37.466C221.856 37.67 221.941 37.908 221.941 38.18C221.941 38.4067 221.85 38.588 221.669 38.724C221.499 38.86 221.3 38.9053 221.074 38.86C220.632 38.7693 220.139 38.724 219.595 38.724C218.881 38.724 218.348 38.9507 217.997 39.404C217.645 39.8573 217.47 40.5827 217.47 41.58C217.47 42.6 217.657 43.331 218.031 43.773C218.405 44.215 218.983 44.436 219.765 44.436C220.32 44.436 220.802 44.385 221.21 44.283C221.425 44.2263 221.618 44.266 221.788 44.402C221.969 44.538 222.06 44.7137 222.06 44.929C222.06 45.201 221.975 45.439 221.805 45.643C221.646 45.847 221.436 45.9717 221.176 46.017C220.598 46.119 220.031 46.17 219.476 46.17ZM229.483 41.75C227.862 41.75 227.052 42.2487 227.052 43.246C227.052 43.6087 227.154 43.9033 227.358 44.13C227.573 44.3567 227.845 44.47 228.174 44.47C228.82 44.47 229.341 44.2717 229.738 43.875C230.134 43.467 230.333 42.9117 230.333 42.209V41.903C230.333 41.801 230.282 41.75 230.18 41.75H229.483ZM227.562 46.17C226.791 46.17 226.151 45.9207 225.641 45.422C225.142 44.912 224.893 44.2547 224.893 43.45C224.893 42.464 225.267 41.699 226.015 41.155C226.774 40.611 227.93 40.339 229.483 40.339H230.18C230.282 40.339 230.333 40.288 230.333 40.186V40.05C230.333 39.5287 230.208 39.166 229.959 38.962C229.709 38.7467 229.267 38.639 228.633 38.639C227.975 38.639 227.171 38.758 226.219 38.996C226.015 39.0527 225.828 39.0187 225.658 38.894C225.488 38.758 225.403 38.5823 225.403 38.367C225.403 38.1063 225.482 37.874 225.641 37.67C225.799 37.4547 226.003 37.3243 226.253 37.279C227.114 37.0863 227.924 36.99 228.684 36.99C230.134 36.99 231.149 37.2507 231.727 37.772C232.305 38.2933 232.594 39.2057 232.594 40.509V45.031C232.594 45.2917 232.497 45.5183 232.305 45.711C232.123 45.9037 231.902 46 231.642 46H231.455C231.183 46 230.95 45.9093 230.758 45.728C230.565 45.5353 230.463 45.303 230.452 45.031V44.793C230.452 44.7817 230.446 44.776 230.435 44.776C230.412 44.776 230.401 44.7817 230.401 44.793C229.709 45.711 228.763 46.17 227.562 46.17ZM236.816 46C236.555 46 236.328 45.9037 236.136 45.711C235.943 45.5183 235.847 45.2917 235.847 45.031V38.129C235.847 37.8683 235.943 37.6417 236.136 37.449C236.328 37.2563 236.555 37.16 236.816 37.16H237.156C237.416 37.16 237.643 37.2563 237.836 37.449C238.028 37.6417 238.125 37.8683 238.125 38.129V38.843C238.125 38.8543 238.13 38.86 238.142 38.86C238.164 38.86 238.176 38.8543 238.176 38.843C238.504 38.3897 238.935 38.0213 239.468 37.738C240 37.4433 240.584 37.262 241.219 37.194C241.457 37.1713 241.661 37.2507 241.831 37.432C242.001 37.602 242.086 37.806 242.086 38.044C242.086 38.282 242.001 38.486 241.831 38.656C241.661 38.826 241.457 38.9223 241.219 38.945C239.213 39.1037 238.21 40.1237 238.21 42.005V45.031C238.21 45.2917 238.113 45.5183 237.921 45.711C237.728 45.9037 237.501 46 237.241 46H236.816ZM248.37 38.571C247.792 38.571 247.344 38.7353 247.027 39.064C246.721 39.3813 246.528 39.897 246.449 40.611C246.449 40.7017 246.494 40.747 246.585 40.747H249.917C250.007 40.747 250.053 40.7017 250.053 40.611C250.007 39.251 249.446 38.571 248.37 38.571ZM248.795 46.17C247.31 46.17 246.165 45.7847 245.361 45.014C244.567 44.232 244.171 43.0873 244.171 41.58C244.171 40.084 244.528 38.945 245.242 38.163C245.956 37.381 246.987 36.99 248.336 36.99C250.852 36.99 252.144 38.418 252.212 41.274C252.223 41.546 252.127 41.7727 251.923 41.954C251.719 42.1353 251.481 42.226 251.209 42.226H246.568C246.466 42.226 246.426 42.277 246.449 42.379C246.528 43.1383 246.777 43.6937 247.197 44.045C247.627 44.385 248.251 44.555 249.067 44.555C249.577 44.555 250.143 44.47 250.767 44.3C250.971 44.2433 251.158 44.2773 251.328 44.402C251.509 44.5267 251.6 44.6967 251.6 44.912C251.6 45.1727 251.52 45.405 251.362 45.609C251.214 45.8017 251.016 45.9207 250.767 45.966C250.132 46.102 249.475 46.17 248.795 46.17ZM258.816 38.571C258.238 38.571 257.79 38.7353 257.473 39.064C257.167 39.3813 256.974 39.897 256.895 40.611C256.895 40.7017 256.94 40.747 257.031 40.747H260.363C260.454 40.747 260.499 40.7017 260.499 40.611C260.454 39.251 259.893 38.571 258.816 38.571ZM259.241 46.17C257.756 46.17 256.612 45.7847 255.807 45.014C255.014 44.232 254.617 43.0873 254.617 41.58C254.617 40.084 254.974 38.945 255.688 38.163C256.402 37.381 257.433 36.99 258.782 36.99C261.298 36.99 262.59 38.418 262.658 41.274C262.669 41.546 262.573 41.7727 262.369 41.954C262.165 42.1353 261.927 42.226 261.655 42.226H257.014C256.912 42.226 256.872 42.277 256.895 42.379C256.974 43.1383 257.224 43.6937 257.643 44.045C258.074 44.385 258.697 44.555 259.513 44.555C260.023 44.555 260.59 44.47 261.213 44.3C261.417 44.2433 261.604 44.2773 261.774 44.402C261.955 44.5267 262.046 44.6967 262.046 44.912C262.046 45.1727 261.967 45.405 261.808 45.609C261.661 45.8017 261.462 45.9207 261.213 45.966C260.578 46.102 259.921 46.17 259.241 46.17ZM266.461 46C266.201 46 265.974 45.9037 265.781 45.711C265.589 45.5183 265.492 45.2917 265.492 45.031V38.129C265.492 37.8683 265.589 37.6417 265.781 37.449C265.974 37.2563 266.201 37.16 266.461 37.16H266.801C267.062 37.16 267.289 37.2563 267.481 37.449C267.674 37.6417 267.77 37.8683 267.77 38.129V38.843C267.77 38.8543 267.776 38.86 267.787 38.86C267.81 38.86 267.821 38.8543 267.821 38.843C268.15 38.3897 268.581 38.0213 269.113 37.738C269.646 37.4433 270.23 37.262 270.864 37.194C271.102 37.1713 271.306 37.2507 271.476 37.432C271.646 37.602 271.731 37.806 271.731 38.044C271.731 38.282 271.646 38.486 271.476 38.656C271.306 38.826 271.102 38.9223 270.864 38.945C268.858 39.1037 267.855 40.1237 267.855 42.005V45.031C267.855 45.2917 267.759 45.5183 267.566 45.711C267.374 45.9037 267.147 46 266.886 46H266.461Z" fill="white"/>
</svg>
