<svg width="187" height="135" viewBox="0 0 187 135" fill="none" xmlns="http://www.w3.org/2000/svg">
<g filter="url(#filter0_d_2_2535)">
<path d="M108.191 11.6951L87.7055 11.6451L68.7267 30.5314C68.6746 51.8874 68.1236 52.7001 70.2389 54.8258L132.885 117.778C133.887 118.785 135.247 119.353 136.668 119.356C138.088 119.36 139.451 118.799 140.458 117.797L174.62 83.8014C175.626 82.7996 176.194 81.439 176.197 80.0187C176.201 78.5985 175.64 77.2351 174.638 76.2284C106.496 7.75295 111.371 11.7029 108.191 11.6951ZM85.7707 28.6798C86.8968 27.5592 88.3299 26.7976 89.8888 26.4915C91.4477 26.1854 93.0623 26.3484 94.5286 26.9599C95.9948 27.5715 97.2468 28.6041 98.1262 29.9271C99.0056 31.2502 99.4729 32.8044 99.469 34.393C99.4651 35.9817 98.9902 37.5335 98.1044 38.8523C97.2186 40.171 95.9616 41.1975 94.4923 41.8019C93.0231 42.4063 91.4077 42.5614 89.8503 42.2476C88.2929 41.9339 86.8636 41.1654 85.7429 40.0393C84.2403 38.5293 83.399 36.4841 83.4042 34.3538C83.4094 32.2235 84.2606 30.1825 85.7707 28.6798Z" fill="#D8523C"/>
<path d="M108.191 11.6951L87.7055 11.6451L70.6246 28.6429C70.5915 42.1986 70.0777 43.2765 72.1552 45.3641L102.694 76.0528C112.232 85.5773 125.151 90.9416 138.63 90.9745C152.109 91.0074 165.054 85.7063 174.638 76.2284C106.496 7.753 111.371 11.7029 108.191 11.6951ZM97.1025 40.0671C95.9764 41.1877 94.5433 41.9492 92.9844 42.2553C91.4255 42.5615 89.8108 42.3985 88.3446 41.7869C86.8783 41.1754 85.6263 40.1428 84.747 38.8197C83.8676 37.4966 83.4003 35.9425 83.4041 34.3538C83.408 32.7652 83.8829 31.2134 84.7687 29.8946C85.6546 28.5758 86.9116 27.5494 88.3808 26.945C89.85 26.3406 91.4654 26.1855 93.0228 26.4992C94.5802 26.813 96.0096 27.5815 97.1302 28.7076C98.6329 30.2176 99.4742 32.2627 99.469 34.3931C99.4638 36.5234 98.6125 38.5644 97.1025 40.0671Z" fill="#EF6B56"/>
<path d="M90.3243 11C75.2233 26.101 74.2595 26.2884 74.2595 29.2872V59L85 69.9045L74.2595 69.9045H18.0324C15.9021 69.9045 13.859 69.0582 12.3526 67.5519C10.8463 66.0455 10 64.0024 10 61.8721V19.0324C10 16.9021 10.8463 14.859 12.3526 13.3526C13.859 11.8463 15.9021 11 18.0324 11H90.3243Z" fill="#FBB034"/>
<path d="M84.9693 10.7099C69.8683 25.8109 68.9044 25.9983 68.9044 28.9971V59.2594C55.4123 59.2594 42.4728 58.8997 32.9325 49.3594C23.3921 39.819 18.0324 26.8795 18.0324 13.3874C18.0266 12.4728 18.19 11.565 18.5143 10.7099H84.9693Z" fill="#FDD03B"/>
<path d="M89.5387 36.2621L70.6523 17.2834C70.1514 16.78 69.871 16.0983 69.8727 15.3882C69.8744 14.6781 70.1582 13.9977 70.6615 13.4968C71.1649 12.9959 71.8466 12.7155 72.5567 12.7172C73.2668 12.719 73.9472 13.0027 74.4481 13.5061L93.3344 32.4849C93.8353 32.9882 94.1157 33.6699 94.114 34.38C94.1123 35.0901 93.8285 35.7705 93.3252 36.2714C92.8218 36.7723 92.1401 37.0527 91.43 37.051C90.7199 37.0492 90.0396 36.7655 89.5387 36.2621Z" fill="#FBB034"/>
<path d="M112.606 54.5789C112.822 54.364 112.983 54.1379 113.088 53.9006C113.205 53.6633 113.25 53.3872 113.223 53.0723C113.202 52.7518 113.109 52.3649 112.944 51.9115C112.78 51.4581 112.53 50.9078 112.194 50.2606C111.826 49.5361 111.507 48.8171 111.238 48.1038C110.975 47.3961 110.802 46.7079 110.721 46.0393C110.651 45.3706 110.705 44.7327 110.883 44.1255C111.067 43.5238 111.419 42.9639 111.94 42.4459C112.444 41.9444 113.011 41.6006 113.641 41.4143C114.277 41.2225 114.94 41.1799 115.63 41.2865C116.326 41.3877 117.024 41.6297 117.725 42.0126C118.431 42.401 119.109 42.9219 119.759 43.5754C120.647 44.467 121.26 45.4048 121.6 46.389C121.94 47.3731 122.013 48.3263 121.817 49.2483C121.627 50.1759 121.172 50.998 120.452 51.7144L117.989 49.239C118.343 48.8863 118.579 48.5029 118.696 48.0889C118.824 47.6749 118.817 47.2412 118.674 46.7879C118.537 46.3401 118.246 45.8919 117.799 45.4433C117.369 45.0114 116.945 44.7176 116.525 44.5619C116.111 44.4007 115.722 44.3583 115.357 44.4347C114.998 44.5057 114.683 44.6761 114.411 44.9462C114.206 45.1501 114.07 45.3845 114.004 45.6495C113.942 45.9201 113.941 46.2294 114.001 46.5776C114.061 46.9258 114.176 47.3128 114.346 47.7385C114.517 48.1643 114.736 48.6344 115.006 49.1488C115.462 50.0062 115.814 50.8081 116.061 51.5545C116.313 52.3064 116.452 53.0056 116.478 53.652C116.504 54.2984 116.406 54.903 116.184 55.466C115.961 56.0289 115.601 56.5584 115.103 57.0543C114.577 57.5779 114.004 57.9438 113.385 58.1522C112.765 58.3606 112.119 58.4143 111.445 58.3132C110.772 58.2121 110.093 57.9674 109.409 57.5791C108.725 57.1907 108.052 56.6642 107.391 55.9997C106.795 55.4016 106.286 54.7347 105.862 53.9989C105.444 53.2577 105.159 52.4891 105.006 51.6932C104.859 50.9029 104.894 50.1185 105.111 49.3401C105.329 48.5617 105.778 47.8336 106.459 47.1558L108.947 49.6561C108.571 50.0308 108.31 50.4058 108.166 50.7811C108.021 51.1564 107.973 51.5292 108.022 51.8995C108.076 52.2752 108.214 52.6457 108.434 53.0108C108.659 53.3815 108.948 53.7441 109.301 54.0985C109.731 54.5304 110.145 54.8242 110.542 54.9799C110.945 55.1411 111.32 55.1807 111.669 55.0986C112.022 55.0222 112.335 54.8489 112.606 54.5789ZM129.938 58.2727L116.638 64.9606L114.002 62.3108L130.568 54.7691L132.246 56.4554L129.938 58.2727ZM122.631 70.9829L129.376 57.7079L131.18 55.3838L132.874 57.0867L125.277 73.641L122.631 70.9829ZM126.985 66.3531L125.033 68.2956L118.676 61.9079L120.628 59.9653L126.985 66.3531ZM137.484 82.0207L135.54 83.955L129.481 77.8663L131.425 75.932L137.484 82.0207ZM142.378 66.6365L130.283 78.672L127.803 76.18L139.898 64.1445L142.378 66.6365ZM148.393 92.9827L146.449 94.917L140.043 88.4794L141.986 86.5451L148.393 92.9827ZM152.947 77.2579L140.853 89.2934L138.373 86.8014L150.467 74.7659L152.947 77.2579ZM152.783 86.9443L150.889 88.829L145.317 83.2303L147.211 81.3457L152.783 86.9443ZM158.535 82.8731L156.583 84.8157L150.185 78.3864L152.137 76.4438L158.535 82.8731Z" fill="white"/>
<rect x="94.0918" y="57.898" width="4" height="64" transform="rotate(-44.8601 94.0918 57.898)" fill="white"/>
<path d="M24.9766 28.0039H26.7812C27.3594 28.0039 27.8359 27.9062 28.2109 27.7109C28.5859 27.5078 28.8633 27.2266 29.043 26.8672C29.2305 26.5 29.3242 26.0742 29.3242 25.5898C29.3242 25.1523 29.2383 24.7656 29.0664 24.4297C28.9023 24.0859 28.6484 23.8203 28.3047 23.6328C27.9609 23.4375 27.5273 23.3398 27.0039 23.3398C26.5898 23.3398 26.207 23.4219 25.8555 23.5859C25.5039 23.75 25.2227 23.9805 25.0117 24.2773C24.8008 24.5742 24.6953 24.9336 24.6953 25.3555H21.3086C21.3086 24.418 21.5586 23.6016 22.0586 22.9062C22.5664 22.2109 23.2461 21.668 24.0977 21.2773C24.9492 20.8867 25.8867 20.6914 26.9102 20.6914C28.0664 20.6914 29.0781 20.8789 29.9453 21.2539C30.8125 21.6211 31.4883 22.1641 31.9727 22.8828C32.457 23.6016 32.6992 24.4922 32.6992 25.5547C32.6992 26.0937 32.5742 26.6172 32.3242 27.125C32.0742 27.625 31.7148 28.0781 31.2461 28.4844C30.7852 28.8828 30.2227 29.2031 29.5586 29.4453C28.8945 29.6797 28.1484 29.7969 27.3203 29.7969H24.9766V28.0039ZM24.9766 30.5703V28.8242H27.3203C28.25 28.8242 29.0664 28.9297 29.7695 29.1406C30.4727 29.3516 31.0625 29.6562 31.5391 30.0547C32.0156 30.4453 32.375 30.9102 32.6172 31.4492C32.8594 31.9805 32.9805 32.5703 32.9805 33.2187C32.9805 34.0156 32.8281 34.7266 32.5234 35.3516C32.2188 35.9687 31.7891 36.4922 31.2344 36.9219C30.6875 37.3516 30.0469 37.6797 29.3125 37.9062C28.5781 38.125 27.7773 38.2344 26.9102 38.2344C26.1914 38.2344 25.4844 38.1367 24.7891 37.9414C24.1016 37.7383 23.4766 37.4375 22.9141 37.0391C22.3594 36.6328 21.9141 36.125 21.5781 35.5156C21.25 34.8984 21.0859 34.168 21.0859 33.3242H24.4727C24.4727 33.7617 24.582 34.1523 24.8008 34.4961C25.0195 34.8398 25.3203 35.1094 25.7031 35.3047C26.0938 35.5 26.5273 35.5977 27.0039 35.5977C27.543 35.5977 28.0039 35.5 28.3867 35.3047C28.7773 35.1016 29.0742 34.8203 29.2773 34.4609C29.4883 34.0937 29.5938 33.668 29.5938 33.1836C29.5938 32.5586 29.4805 32.0586 29.2539 31.6836C29.0273 31.3008 28.7031 31.0195 28.2812 30.8398C27.8594 30.6602 27.3594 30.5703 26.7812 30.5703H24.9766ZM46.7852 27.9687V30.9219C46.7852 32.2031 46.6484 33.3086 46.375 34.2383C46.1016 35.1602 45.707 35.918 45.1914 36.5117C44.6836 37.0977 44.0781 37.5312 43.375 37.8125C42.6719 38.0937 41.8906 38.2344 41.0312 38.2344C40.3438 38.2344 39.7031 38.1484 39.1094 37.9766C38.5156 37.7969 37.9805 37.5195 37.5039 37.1445C37.0352 36.7695 36.6289 36.2969 36.2852 35.7266C35.9492 35.1484 35.6914 34.4609 35.5117 33.6641C35.332 32.8672 35.2422 31.9531 35.2422 30.9219V27.9687C35.2422 26.6875 35.3789 25.5898 35.6523 24.6758C35.9336 23.7539 36.3281 23 36.8359 22.4141C37.3516 21.8281 37.9609 21.3984 38.6641 21.125C39.3672 20.8437 40.1484 20.7031 41.0078 20.7031C41.6953 20.7031 42.332 20.793 42.918 20.9727C43.5117 21.1445 44.0469 21.4141 44.5234 21.7812C45 22.1484 45.4062 22.6211 45.7422 23.1992C46.0781 23.7695 46.3359 24.4531 46.5156 25.25C46.6953 26.0391 46.7852 26.9453 46.7852 27.9687ZM43.3984 31.3672V27.5117C43.3984 26.8945 43.3633 26.3555 43.293 25.8945C43.2305 25.4336 43.1328 25.043 43 24.7227C42.8672 24.3945 42.7031 24.1289 42.5078 23.9258C42.3125 23.7227 42.0898 23.5742 41.8398 23.4805C41.5898 23.3867 41.3125 23.3398 41.0078 23.3398C40.625 23.3398 40.2852 23.4141 39.9883 23.5625C39.6992 23.7109 39.4531 23.9492 39.25 24.2773C39.0469 24.5977 38.8906 25.0273 38.7812 25.5664C38.6797 26.0977 38.6289 26.7461 38.6289 27.5117V31.3672C38.6289 31.9844 38.6602 32.5273 38.7227 32.9961C38.793 33.4648 38.8945 33.8672 39.0273 34.2031C39.168 34.5312 39.332 34.8008 39.5195 35.0117C39.7148 35.2148 39.9375 35.3633 40.1875 35.457C40.4453 35.5508 40.7266 35.5977 41.0312 35.5977C41.4062 35.5977 41.7383 35.5234 42.0273 35.375C42.3242 35.2187 42.5742 34.9766 42.7773 34.6484C42.9883 34.3125 43.1445 33.875 43.2461 33.3359C43.3477 32.7969 43.3984 32.1406 43.3984 31.3672ZM49.0352 25.1211V24.2187C49.0352 23.5703 49.1758 22.9805 49.457 22.4492C49.7383 21.918 50.1523 21.4922 50.6992 21.1719C51.2461 20.8516 51.918 20.6914 52.7148 20.6914C53.5352 20.6914 54.2188 20.8516 54.7656 21.1719C55.3203 21.4922 55.7344 21.918 56.0078 22.4492C56.2891 22.9805 56.4297 23.5703 56.4297 24.2187V25.1211C56.4297 25.7539 56.2891 26.3359 56.0078 26.8672C55.7344 27.3984 55.3242 27.8242 54.7773 28.1445C54.2305 28.4648 53.5547 28.625 52.75 28.625C51.9375 28.625 51.2539 28.4648 50.6992 28.1445C50.1523 27.8242 49.7383 27.3984 49.457 26.8672C49.1758 26.3359 49.0352 25.7539 49.0352 25.1211ZM51.2734 24.2187V25.1211C51.2734 25.3945 51.3242 25.6562 51.4258 25.9062C51.5352 26.1484 51.6992 26.3477 51.918 26.5039C52.1445 26.6523 52.418 26.7266 52.7383 26.7266C53.0742 26.7266 53.3477 26.6523 53.5586 26.5039C53.7695 26.3477 53.9258 26.1484 54.0273 25.9062C54.1289 25.6562 54.1797 25.3945 54.1797 25.1211V24.2187C54.1797 23.9297 54.125 23.6641 54.0156 23.4219C53.9141 23.1719 53.7539 22.9727 53.5352 22.8242C53.3242 22.668 53.0508 22.5898 52.7148 22.5898C52.4023 22.5898 52.1367 22.668 51.918 22.8242C51.6992 22.9727 51.5352 23.1719 51.4258 23.4219C51.3242 23.6641 51.2734 23.9297 51.2734 24.2187ZM57.1914 34.7187V33.8164C57.1914 33.1758 57.332 32.5898 57.6133 32.0586C57.9023 31.5273 58.3203 31.1016 58.8672 30.7812C59.4219 30.4609 60.1016 30.3008 60.9062 30.3008C61.7188 30.3008 62.3984 30.4609 62.9453 30.7812C63.4922 31.1016 63.9062 31.5273 64.1875 32.0586C64.4688 32.5898 64.6094 33.1758 64.6094 33.8164V34.7187C64.6094 35.3594 64.4688 35.9453 64.1875 36.4766C63.9141 37.0078 63.5039 37.4336 62.957 37.7539C62.4102 38.0742 61.7344 38.2344 60.9297 38.2344C60.1172 38.2344 59.4336 38.0742 58.8789 37.7539C58.3242 37.4336 57.9023 37.0078 57.6133 36.4766C57.332 35.9453 57.1914 35.3594 57.1914 34.7187ZM59.4414 33.8164V34.7187C59.4414 35 59.5039 35.2656 59.6289 35.5156C59.7539 35.7656 59.9258 35.9648 60.1445 36.1133C60.3711 36.2617 60.6328 36.3359 60.9297 36.3359C61.3047 36.3359 61.5977 36.2617 61.8086 36.1133C62.0195 35.9648 62.1641 35.7656 62.2422 35.5156C62.3281 35.2656 62.3711 35 62.3711 34.7187V33.8164C62.3711 33.5352 62.3164 33.2734 62.207 33.0312C62.0977 32.7812 61.9336 32.582 61.7148 32.4336C61.5039 32.2773 61.2344 32.1992 60.9062 32.1992C60.5781 32.1992 60.3047 32.2773 60.0859 32.4336C59.875 32.582 59.7148 32.7812 59.6055 33.0312C59.4961 33.2734 59.4414 33.5352 59.4414 33.8164ZM61.7383 23.375L53.4062 36.7109L51.7656 35.8437L60.0977 22.5078L61.7383 23.375Z" fill="white"/>
<path d="M35.5625 52.0469V52.5859C35.5625 53.4505 35.4453 54.2266 35.2109 54.9141C34.9766 55.6016 34.6458 56.1875 34.2188 56.6719C33.7917 57.151 33.2812 57.5182 32.6875 57.7734C32.099 58.0286 31.4453 58.1562 30.7266 58.1562C30.013 58.1562 29.3594 58.0286 28.7656 57.7734C28.1771 57.5182 27.6667 57.151 27.2344 56.6719C26.8021 56.1875 26.4661 55.6016 26.2266 54.9141C25.9922 54.2266 25.875 53.4505 25.875 52.5859V52.0469C25.875 51.1771 25.9922 50.401 26.2266 49.7188C26.4609 49.0312 26.7917 48.4453 27.2188 47.9609C27.651 47.4766 28.1615 47.1068 28.75 46.8516C29.3438 46.5964 29.9974 46.4688 30.7109 46.4688C31.4297 46.4688 32.0833 46.5964 32.6719 46.8516C33.2656 47.1068 33.776 47.4766 34.2031 47.9609C34.6354 48.4453 34.9688 49.0312 35.2031 49.7188C35.4427 50.401 35.5625 51.1771 35.5625 52.0469ZM33.1953 52.5859V52.0312C33.1953 51.4271 33.1406 50.8958 33.0312 50.4375C32.9219 49.9792 32.7604 49.5938 32.5469 49.2812C32.3333 48.9688 32.0729 48.7344 31.7656 48.5781C31.4583 48.4167 31.1068 48.3359 30.7109 48.3359C30.3151 48.3359 29.9635 48.4167 29.6562 48.5781C29.3542 48.7344 29.0964 48.9688 28.8828 49.2812C28.6745 49.5938 28.5156 49.9792 28.4062 50.4375C28.2969 50.8958 28.2422 51.4271 28.2422 52.0312V52.5859C28.2422 53.1849 28.2969 53.7161 28.4062 54.1797C28.5156 54.638 28.6771 55.026 28.8906 55.3438C29.1042 55.6562 29.3646 55.8932 29.6719 56.0547C29.9792 56.2161 30.3307 56.2969 30.7266 56.2969C31.1224 56.2969 31.474 56.2161 31.7812 56.0547C32.0885 55.8932 32.3464 55.6562 32.5547 55.3438C32.763 55.026 32.9219 54.638 33.0312 54.1797C33.1406 53.7161 33.1953 53.1849 33.1953 52.5859ZM43.5938 46.625V58H41.25V46.625H43.5938ZM48.125 51.4844V53.3125H42.9531V51.4844H48.125ZM48.6719 46.625V48.4609H42.9531V46.625H48.6719ZM56.375 46.625V58H54.0312V46.625H56.375ZM60.9062 51.4844V53.3125H55.7344V51.4844H60.9062ZM61.4531 46.625V48.4609H55.7344V46.625H61.4531Z" fill="white"/>
</g>
<defs>
<filter id="filter0_d_2_2535" x="0" y="5.7099" width="186.197" height="128.646" filterUnits="userSpaceOnUse" color-interpolation-filters="sRGB">
<feFlood flood-opacity="0" result="BackgroundImageFix"/>
<feColorMatrix in="SourceAlpha" type="matrix" values="0 0 0 0 0 0 0 0 0 0 0 0 0 0 0 0 0 0 127 0" result="hardAlpha"/>
<feOffset dy="5"/>
<feGaussianBlur stdDeviation="5"/>
<feComposite in2="hardAlpha" operator="out"/>
<feColorMatrix type="matrix" values="0 0 0 0 0 0 0 0 0 0 0 0 0 0 0 0 0 0 0.15 0"/>
<feBlend mode="normal" in2="BackgroundImageFix" result="effect1_dropShadow_2_2535"/>
<feBlend mode="normal" in="SourceGraphic" in2="effect1_dropShadow_2_2535" result="shape"/>
</filter>
</defs>
</svg>
