<svg width="22" height="16" viewBox="0 0 22 16" fill="none" xmlns="http://www.w3.org/2000/svg">
<path d="M17.5299 15.6718H14.1017C13.8323 15.6718 13.6119 15.4514 13.6119 15.182V13.5496C13.6119 13.2802 13.8323 13.0598 14.1017 13.0598H17.5299C18.2522 13.0598 18.8359 12.4762 18.8359 11.7538V3.91794C18.8359 3.19557 18.2522 2.61196 17.5299 2.61196H14.1017C13.8323 2.61196 13.6119 2.39158 13.6119 2.12222V0.489743C13.6119 0.220384 13.8323 0 14.1017 0H17.5299C19.6929 0 21.4478 1.75491 21.4478 3.91794V11.7538C21.4478 13.9169 19.6929 15.6718 17.5299 15.6718ZM15.6117 7.46858L8.75532 0.612179C8.14314 0 7.08203 0.428525 7.08203 1.30598V5.22392H1.53161C0.988811 5.22392 0.552124 5.66061 0.552124 6.20341V10.1214C0.552124 10.6641 0.988811 11.1008 1.53161 11.1008H7.08203V15.0188C7.08203 15.8962 8.14314 16.3248 8.75532 15.7126L15.6117 8.85618C15.9913 8.47255 15.9913 7.85221 15.6117 7.46858Z" fill="#2D2D2D"/>
</svg>
