<svg width="251" height="244" viewBox="0 0 251 244" fill="none" xmlns="http://www.w3.org/2000/svg">
<path d="M145.379 83.6604C148.447 83.6604 224.97 83.1259 246.553 83.1259C248.063 83.1259 246.152 80.5116 245.321 80.3257C242.666 79.7447 239.895 79.7157 237.188 79.4368C234.528 79.1901 231.922 78.5437 229.455 77.5197C227.329 76.625 225.208 75.5851 222.902 75.1959C218.452 74.4987 214.548 76.9387 210.371 77.9786C209.103 78.3451 207.772 78.4419 206.464 78.2628C205.156 78.0837 203.901 77.6326 202.778 76.9387C200.849 75.7768 199.094 74.3941 197.079 73.3717C193.219 71.4694 189.008 70.3843 184.709 70.1844C180.411 69.9845 176.117 70.674 172.098 72.2097C170.182 72.9466 168.35 73.8832 166.631 75.0041C164.592 76.3461 162.831 78.0541 160.786 79.3787C156.255 82.2835 150.655 81.354 145.711 83.0329C145.42 83.1491 145.112 83.6604 145.379 83.6604Z" fill="#E9E8E8"/>
<path d="M140.981 15.1021C145.048 15.1021 213.241 15.5495 217.528 15.4159C217.836 15.4159 217.999 14.9511 217.696 14.8C214.989 13.4639 211.928 13.7311 209.122 12.7841C207.466 12.2032 206.449 11.1458 205.305 9.87936C204.357 8.79404 203.129 7.99015 201.755 7.55555C200.5 7.17858 199.168 7.13652 197.892 7.43355C196.509 7.76469 195.307 8.55479 193.988 9.05441C190.711 10.2918 187.528 9.11831 185.186 6.69573C183.258 4.69725 181.358 2.80915 178.738 1.73438C177.667 1.24977 176.507 0.991394 175.331 0.9754C174.156 0.959406 172.99 1.18614 171.906 1.64143C169.402 2.77429 167.688 5.05163 165.335 6.42268C162.552 8.04936 159.218 7.66593 156.144 8.16555C153.071 8.66517 150.707 11.2504 148.011 12.7435C147.132 13.3078 146.116 13.6231 145.071 13.6556C144.49 13.6556 143.875 13.4755 143.282 13.3999C142.353 13.2838 141.469 13.3128 140.842 14.0855C140.685 14.3004 140.72 15.1021 140.981 15.1021Z" fill="#E9E8E8"/>
<path d="M4.48635 50.5456C7.44341 50.5456 57.237 50.8768 60.3684 50.7722C60.5891 50.7722 60.7111 50.4352 60.4904 50.3249C58.5151 49.3489 56.2784 49.5464 54.2277 48.8551C53.0193 48.4484 52.2815 47.6583 51.4449 46.7578C50.7506 45.9683 49.8551 45.382 48.8538 45.0614C47.9365 44.7861 46.963 44.756 46.0304 44.9743C45.0561 45.3011 44.1033 45.6892 43.1779 46.1362C40.7902 47.0367 38.4664 46.1827 36.7584 44.3933C35.3466 42.9351 33.964 41.5583 32.0468 40.774C31.2656 40.4197 30.4196 40.2306 29.5618 40.2186C28.7041 40.2066 27.8531 40.372 27.0622 40.7043C25.2322 41.5292 23.9774 43.1966 22.2636 44.19C20.2302 45.3809 17.796 45.0963 15.5535 45.4565C13.3111 45.8167 11.5798 47.7048 9.61037 48.797C8.96802 49.2104 8.22448 49.4395 7.46084 49.4592C7.02512 49.4592 6.58941 49.3314 6.15369 49.2791C5.84004 49.1916 5.50836 49.1919 5.19487 49.28C4.88138 49.3681 4.59811 49.5407 4.37597 49.7788C4.29464 49.9647 4.29464 50.5456 4.48635 50.5456Z" fill="#E9E8E8"/>
<path d="M189.532 51.8413C192.495 51.8413 242.288 52.1724 245.414 52.0678C245.641 52.0678 245.763 51.7309 245.536 51.6205C243.567 50.6445 241.33 50.842 239.279 50.1507C238.071 49.744 237.333 48.9539 236.496 48.0534C235.802 47.2639 234.907 46.6776 233.905 46.357C232.988 46.0817 232.014 46.0516 231.082 46.2699C230.107 46.5967 229.155 46.9848 228.229 47.4318C225.836 48.3323 223.512 47.4783 221.804 45.6889C220.398 44.2307 219.01 42.8539 217.098 42.0696C216.316 41.7152 215.469 41.526 214.61 41.514C213.752 41.502 212.9 41.6674 212.108 41.9999C210.284 42.8248 209.029 44.4922 207.315 45.4856C205.282 46.6475 202.847 46.3919 200.599 46.7521C198.351 47.1123 196.631 49.0004 194.662 50.0926C194.027 50.5175 193.287 50.7606 192.524 50.7955C192.085 50.7568 191.649 50.6947 191.217 50.6096C190.902 50.5235 190.571 50.525 190.257 50.6141C189.944 50.7032 189.661 50.8765 189.439 51.1151C189.317 51.2545 189.34 51.8413 189.532 51.8413Z" fill="#E9E8E8"/>
<path d="M53.2571 100.305C56.22 100.305 106.014 100.636 109.145 100.532C109.366 100.532 109.488 100.195 109.267 100.084C107.292 99.1084 105.055 99.3059 103.004 98.6145C101.796 98.2079 101.058 97.4178 100.221 96.5173C99.5272 95.7278 98.6317 95.1415 97.6304 94.8209C96.7131 94.5456 95.7395 94.5155 94.807 94.7338C93.8326 95.0606 92.8799 95.4487 91.9545 95.8957C89.5668 96.7962 87.2371 95.9422 85.564 94.1528C84.1523 92.6946 82.7696 91.3177 80.8524 90.5335C80.0702 90.179 79.2232 89.9899 78.3645 89.9779C77.5058 89.9659 76.6539 90.1313 75.862 90.4637C74.0378 91.2887 72.783 92.956 71.0692 93.9495C69.0358 95.1114 66.6016 94.8558 64.3591 95.216C62.1167 95.5762 60.3854 97.4643 58.416 98.5565C57.7736 98.9699 57.0301 99.199 56.2664 99.2187C55.8278 99.1796 55.3915 99.1175 54.9593 99.0328C54.645 98.9473 54.3134 98.9492 54.0001 99.0383C53.6869 99.1273 53.4038 99.3002 53.1816 99.5383C53.0421 99.7242 53.0944 100.305 53.2571 100.305Z" fill="#E9E8E8"/>
<path d="M31.3436 72.3201C31.4017 72.4886 109.831 72.3201 108.837 72.3201C108.39 72.3201 109.523 71.6462 109.081 71.4255C106.531 70.159 103.736 70.1241 100.948 69.8685C99.3026 69.7981 97.6876 69.4032 96.1956 68.7066C94.72 67.9339 93.7962 66.5861 92.7505 65.3487C91.1342 63.4338 89.0563 61.9626 86.7132 61.0741C84.3701 60.1857 81.8392 59.9093 79.3595 60.2711C73.7824 61.1484 69.3845 65.3952 63.8016 66.1736C60.4436 66.6442 57.2716 65.3487 53.9892 64.8897C51.4528 64.5406 48.8712 65.013 46.6227 66.2376C44.8799 67.1148 43.2184 67.8526 41.2199 67.9804C39.6861 68.085 38.1466 67.9107 36.6071 67.8933C34.0983 67.9559 31.6983 68.9308 29.8564 70.6354C29.5775 70.8503 28.7874 72.3201 31.3436 72.3201Z" fill="#E9E8E8"/>
<path d="M166.334 78.0947H85.0933V191.451H166.334V78.0947Z" fill="#C98A00"/>
<path opacity="0.7" d="M166.334 78.0947H85.0933V191.451H166.334V78.0947Z" fill="white"/>
<path d="M154.716 153.068H96.7131V155.99H154.716V153.068Z" fill="#C98A00"/>
<path d="M143.468 155.99H107.995V189.133H143.468V155.99Z" fill="#455A64"/>
<path d="M141.08 158.436H110.383V189.133H141.08V158.436Z" fill="#2C2C2C"/>
<g opacity="0.5">
<path d="M141.081 171.245V176.944L128.899 189.132H123.199L141.081 171.245Z" fill="#455A64"/>
<path d="M118.4 158.436L110.389 166.447V160.748L112.695 158.436H118.4Z" fill="#455A64"/>
<path d="M135.527 158.436L110.389 183.579V180.733L132.68 158.436H135.527Z" fill="#455A64"/>
<path d="M141.08 179.907V182.76L134.707 189.133H131.854L141.08 179.907Z" fill="#455A64"/>
<path d="M141.08 161.288V161.805L113.764 189.133H113.229L141.08 161.288Z" fill="#455A64"/>
<path d="M121.723 158.436L110.389 169.77V169.242L121.194 158.436H121.723Z" fill="#455A64"/>
<path d="M131.39 158.436L110.389 179.437V178.903L130.856 158.436H131.39Z" fill="#455A64"/>
</g>
<path d="M126.725 158.436H124.75V189.133H126.725V158.436Z" fill="#455A64"/>
<path d="M110.435 90.4575H97.7705V110.088H110.435V90.4575Z" fill="#455A64"/>
<path d="M109.134 91.8987H99.0774V108.653H109.134V91.8987Z" fill="#2C2C2C"/>
<path d="M112.247 110.089H95.9565V112.912H112.247V110.089Z" fill="#C98A00"/>
<g opacity="0.5">
<path d="M109.134 91.8987V93.9669L99.0718 104.029V100.201L107.379 91.8987H109.134Z" fill="#455A64"/>
<path d="M109.132 104.319V106.231L106.71 108.653H104.798L109.132 104.319Z" fill="#455A64"/>
<path d="M102.459 91.8987L99.0718 95.2856V93.3685L100.542 91.8987H102.459Z" fill="#455A64"/>
<path d="M109.134 101.322V101.938L102.412 108.654H101.796L109.134 101.322Z" fill="#455A64"/>
</g>
<path d="M110.435 101.751H97.7705V103.186H110.435V101.751Z" fill="#455A64"/>
<path d="M132.045 90.4575H119.381V110.088H132.045V90.4575Z" fill="#455A64"/>
<path d="M130.744 91.8987H120.688V108.653H130.744V91.8987Z" fill="#2C2C2C"/>
<path d="M133.859 110.089H117.569V112.912H133.859V110.089Z" fill="#C98A00"/>
<g opacity="0.5">
<path d="M130.744 91.8987V93.9669L120.682 104.029V100.201L128.99 91.8987H130.744Z" fill="#455A64"/>
<path d="M130.745 104.319V106.231L128.322 108.653H126.405L130.745 104.319Z" fill="#455A64"/>
<path d="M124.069 91.8987L120.682 95.2856V93.3685L122.152 91.8987H124.069Z" fill="#455A64"/>
<path d="M130.744 101.322V101.938L124.023 108.654H123.407L130.744 101.322Z" fill="#455A64"/>
</g>
<path d="M132.045 101.751H119.381V103.186H132.045V101.751Z" fill="#455A64"/>
<path d="M153.658 90.4575H140.993V110.088H153.658V90.4575Z" fill="#455A64"/>
<path d="M152.356 91.8987H142.3V108.653H152.356V91.8987Z" fill="#2C2C2C"/>
<path d="M155.469 110.089H139.179V112.912H155.469V110.089Z" fill="#C98A00"/>
<g opacity="0.5">
<path d="M152.357 91.8987V93.9669L142.294 104.029V100.201L150.602 91.8987H152.357Z" fill="#455A64"/>
<path d="M152.357 104.319V106.231L149.934 108.653H148.023L152.357 104.319Z" fill="#455A64"/>
<path d="M145.681 91.8987L142.294 95.2856V93.3685L143.764 91.8987H145.681Z" fill="#455A64"/>
<path d="M152.356 101.322V101.938L145.635 108.654H145.019L152.356 101.322Z" fill="#455A64"/>
</g>
<path d="M153.658 101.751H140.993V103.186H153.658V101.751Z" fill="#455A64"/>
<path d="M110.435 120.104H97.7705V139.734H110.435V120.104Z" fill="#455A64"/>
<path d="M109.134 121.539H99.0774V138.293H109.134V121.539Z" fill="#2C2C2C"/>
<path d="M112.247 139.735H95.9565V142.559H112.247V139.735Z" fill="#C98A00"/>
<g opacity="0.5">
<path d="M109.134 121.539V123.613L99.0718 133.669V129.846L107.379 121.539H109.134Z" fill="#455A64"/>
<path d="M109.132 133.96V135.877L106.71 138.3H104.798L109.132 133.96Z" fill="#455A64"/>
<path d="M102.459 121.539L99.0718 124.926V123.014L100.542 121.539H102.459Z" fill="#455A64"/>
<path d="M109.134 130.961V131.577L102.412 138.299H101.796L109.134 130.961Z" fill="#455A64"/>
</g>
<path d="M110.435 131.398H97.7705V132.833H110.435V131.398Z" fill="#455A64"/>
<path d="M132.045 120.104H119.381V139.734H132.045V120.104Z" fill="#455A64"/>
<path d="M130.744 121.539H120.688V138.293H130.744V121.539Z" fill="#2C2C2C"/>
<path d="M133.859 139.735H117.569V142.559H133.859V139.735Z" fill="#C98A00"/>
<g opacity="0.5">
<path d="M130.744 121.539V123.613L120.682 133.669V129.846L128.99 121.539H130.744Z" fill="#455A64"/>
<path d="M130.745 133.96V135.877L128.322 138.3H126.405L130.745 133.96Z" fill="#455A64"/>
<path d="M124.069 121.539L120.682 124.926V123.014L122.152 121.539H124.069Z" fill="#455A64"/>
<path d="M130.744 130.961V131.577L124.023 138.299H123.407L130.744 130.961Z" fill="#455A64"/>
</g>
<path d="M132.045 131.398H119.381V132.833H132.045V131.398Z" fill="#455A64"/>
<path d="M153.658 120.104H140.993V139.734H153.658V120.104Z" fill="#455A64"/>
<path d="M152.356 121.539H142.3V138.293H152.356V121.539Z" fill="#2C2C2C"/>
<path d="M155.469 139.735H139.179V142.559H155.469V139.735Z" fill="#C98A00"/>
<g opacity="0.5">
<path d="M152.357 121.539V123.613L142.294 133.669V129.846L150.602 121.539H152.357Z" fill="#455A64"/>
<path d="M152.357 133.96V135.877L149.934 138.3H148.023L152.357 133.96Z" fill="#455A64"/>
<path d="M145.681 121.539L142.294 124.926V123.014L143.764 121.539H145.681Z" fill="#455A64"/>
<path d="M152.356 130.961V131.577L145.635 138.299H145.019L152.356 130.961Z" fill="#455A64"/>
</g>
<path d="M153.658 131.398H140.993V132.833H153.658V131.398Z" fill="#455A64"/>
<path opacity="0.5" d="M166.334 147.188H85.0933V148.182L166.334 147.682V147.188Z" fill="#C98A00"/>
<path d="M166.334 145.805H85.0933V147.187H166.334V145.805Z" fill="white"/>
<path opacity="0.5" d="M166.334 116.643H85.0933V117.642L166.334 117.142V116.643Z" fill="#C98A00"/>
<path d="M166.334 115.259H85.0933V116.642H166.334V115.259Z" fill="white"/>
<path opacity="0.5" d="M166.334 86.1003H85.0933V87.0996L166.334 86.6V86.1003Z" fill="#C98A00"/>
<path d="M166.334 84.7178H85.0933V86.1004H166.334V84.7178Z" fill="white"/>
<path d="M85.0929 78.0947H81.6072V191.451H85.0929V78.0947Z" fill="#C98A00"/>
<path opacity="0.8" d="M85.0929 78.0947H81.6072V191.451H85.0929V78.0947Z" fill="white"/>
<path d="M169.82 78.0947H166.334V191.451H169.82V78.0947Z" fill="#C98A00"/>
<path opacity="0.8" d="M169.82 78.0947H166.334V191.451H169.82V78.0947Z" fill="white"/>
<path d="M152.257 155.99H149.26V189.133H152.257V155.99Z" fill="#C98A00"/>
<path opacity="0.9" d="M152.257 155.99H149.26V189.133H152.257V155.99Z" fill="white"/>
<path d="M102.168 155.99H99.1704V189.133H102.168V155.99Z" fill="#C98A00"/>
<path opacity="0.9" d="M102.168 155.99H99.1704V189.133H102.168V155.99Z" fill="white"/>
<path d="M158.091 190.3H93.3315V191.468H158.091V190.3Z" fill="#E9E8E8"/>
<path d="M154.936 189.132H96.4922V190.3H154.936V189.132Z" fill="#E9E8E8"/>
<path d="M154.936 190.004L96.4922 189.713V190.3H154.936V190.004Z" fill="#DBDBDB"/>
<path d="M81.6127 109.502H9.30713V191.457H81.6127V109.502Z" fill="#C98A00"/>
<path opacity="0.7" d="M81.6127 109.502H9.30713V191.457H81.6127V109.502Z" fill="white"/>
<path opacity="0.5" d="M81.6127 179.065H9.30713V191.457H81.6127V179.065Z" fill="#C98A00"/>
<path d="M30.1755 119.965H17.5107V139.596H30.1755V119.965Z" fill="#455A64"/>
<path d="M28.8742 121.4H18.8179V138.154H28.8742V121.4Z" fill="#2C2C2C"/>
<path d="M31.9887 139.596H15.6987V142.419H31.9887V139.596Z" fill="#C98A00"/>
<g opacity="0.5">
<path d="M28.8742 121.405V123.473L18.8179 133.536V129.707L27.1197 121.405H28.8742Z" fill="#455A64"/>
<path d="M28.8749 133.826V135.738L26.4524 138.16H24.541L28.8749 133.826Z" fill="#455A64"/>
<path d="M22.2048 121.405L18.8179 124.792V122.875L20.2819 121.405H22.2048Z" fill="#455A64"/>
<path d="M28.8739 130.828V131.438L22.158 138.16H21.5422L28.8739 130.828Z" fill="#455A64"/>
</g>
<path d="M30.1755 131.259H17.5107V132.694H30.1755V131.259Z" fill="#455A64"/>
<path d="M51.7874 119.965H39.1226V139.596H51.7874V119.965Z" fill="#455A64"/>
<path d="M50.487 121.4H40.4307V138.154H50.487V121.4Z" fill="#2C2C2C"/>
<path d="M53.5993 139.596H37.3093V142.419H53.5993V139.596Z" fill="#C98A00"/>
<g opacity="0.5">
<path d="M50.487 121.405V123.473L40.4307 133.536V129.707L48.7325 121.405H50.487Z" fill="#455A64"/>
<path d="M50.4855 133.826V135.738L48.0629 138.16H46.1516L50.4855 133.826Z" fill="#455A64"/>
<path d="M43.8176 121.405L40.4307 124.792V122.875L41.8947 121.405H43.8176Z" fill="#455A64"/>
<path d="M50.4862 130.828V131.438L43.7645 138.16H43.1545L50.4862 130.828Z" fill="#455A64"/>
</g>
<path d="M51.7874 131.259H39.1226V132.694H51.7874V131.259Z" fill="#455A64"/>
<path d="M73.3984 119.965H60.7336V139.596H73.3984V119.965Z" fill="#455A64"/>
<path d="M72.0969 121.4H62.0405V138.154H72.0969V121.4Z" fill="#2C2C2C"/>
<path d="M75.2121 139.596H58.9221V142.419H75.2121V139.596Z" fill="#C98A00"/>
<g opacity="0.5">
<path d="M72.0969 121.405V123.473L62.0405 133.536V129.707L70.3424 121.405H72.0969Z" fill="#455A64"/>
<path d="M72.0976 133.826V135.738L69.675 138.16H67.7637L72.0976 133.826Z" fill="#455A64"/>
<path d="M65.4275 121.405L62.0405 124.792V122.875L63.5103 121.405H65.4275Z" fill="#455A64"/>
<path d="M72.0968 130.828V131.438L65.3809 138.16H64.7651L72.0968 130.828Z" fill="#455A64"/>
</g>
<path d="M73.3984 131.259H60.7336V132.694H73.3984V131.259Z" fill="#455A64"/>
<path d="M30.1755 149.605H17.5107V169.236H30.1755V149.605Z" fill="#455A64"/>
<path d="M28.8742 151.046H18.8179V167.801H28.8742V151.046Z" fill="#2C2C2C"/>
<path d="M31.9887 169.241H15.6987V172.064H31.9887V169.241Z" fill="#C98A00"/>
<g opacity="0.5">
<path d="M28.8742 151.046V153.12L18.8179 163.176V159.354L27.1197 151.046H28.8742Z" fill="#455A64"/>
<path d="M28.8749 163.466V165.383L26.4524 167.8H24.541L28.8749 163.466Z" fill="#455A64"/>
<path d="M22.2048 151.046L18.8179 154.433V152.522L20.2819 151.046H22.2048Z" fill="#455A64"/>
<path d="M28.8739 160.469V161.085L22.158 167.801H21.5422L28.8739 160.469Z" fill="#455A64"/>
</g>
<path d="M30.1755 160.899H17.5107V162.334H30.1755V160.899Z" fill="#455A64"/>
<path d="M51.7874 149.605H39.1226V169.236H51.7874V149.605Z" fill="#455A64"/>
<path d="M50.487 151.046H40.4307V167.801H50.487V151.046Z" fill="#2C2C2C"/>
<path d="M53.5993 169.241H37.3093V172.064H53.5993V169.241Z" fill="#C98A00"/>
<g opacity="0.5">
<path d="M50.487 151.046V153.12L40.4307 163.176V159.354L48.7325 151.046H50.487Z" fill="#455A64"/>
<path d="M50.4855 163.466V165.383L48.0629 167.8H46.1516L50.4855 163.466Z" fill="#455A64"/>
<path d="M43.8176 151.046L40.4307 154.433V152.522L41.8947 151.046H43.8176Z" fill="#455A64"/>
<path d="M50.4862 160.469V161.085L43.7645 167.801H43.1545L50.4862 160.469Z" fill="#455A64"/>
</g>
<path d="M51.7874 160.899H39.1226V162.334H51.7874V160.899Z" fill="#455A64"/>
<path d="M73.3984 149.605H60.7336V169.236H73.3984V149.605Z" fill="#455A64"/>
<path d="M72.0969 151.046H62.0405V167.801H72.0969V151.046Z" fill="#2C2C2C"/>
<path d="M75.2121 169.241H58.9221V172.064H75.2121V169.241Z" fill="#C98A00"/>
<g opacity="0.5">
<path d="M72.0969 151.046V153.12L62.0405 163.176V159.354L70.3424 151.046H72.0969Z" fill="#455A64"/>
<path d="M72.0976 163.466V165.383L69.675 167.8H67.7637L72.0976 163.466Z" fill="#455A64"/>
<path d="M65.4275 151.046L62.0405 154.433V152.522L63.5103 151.046H65.4275Z" fill="#455A64"/>
<path d="M72.0968 160.469V161.085L65.3809 167.801H64.7651L72.0968 160.469Z" fill="#455A64"/>
</g>
<path d="M73.3984 160.899H60.7336V162.334H73.3984V160.899Z" fill="#455A64"/>
<path d="M81.607 105.417H6.83813V109.501H81.607V105.417Z" fill="#C98A00"/>
<path opacity="0.5" d="M81.6069 146.264H9.30713V147.257L81.6069 146.758V146.264Z" fill="#C98A00"/>
<path d="M81.6127 144.882H9.30713V146.264H81.6127V144.882Z" fill="white"/>
<path opacity="0.5" d="M76.3027 109.502H81.6069V191.457H79.9047L76.3027 109.502Z" fill="#C98A00"/>
<path d="M169.815 191.457H242.12V109.502L169.815 109.502V191.457Z" fill="#C98A00"/>
<path opacity="0.7" d="M169.815 191.457H242.12V109.502L169.815 109.502V191.457Z" fill="white"/>
<path d="M190.687 119.965H178.022V139.596H190.687V119.965Z" fill="#455A64"/>
<path d="M189.386 121.4H179.329V138.154H189.386V121.4Z" fill="#2C2C2C"/>
<path d="M192.5 139.596H176.21V142.419H192.5V139.596Z" fill="#C98A00"/>
<g opacity="0.5">
<path d="M189.386 121.405V123.473L179.329 133.536V129.707L187.631 121.405H189.386Z" fill="#455A64"/>
<path d="M189.386 133.826V135.738L186.964 138.16H185.052L189.386 133.826Z" fill="#455A64"/>
<path d="M182.716 121.405L179.329 124.792V122.875L180.799 121.405H182.716Z" fill="#455A64"/>
<path d="M189.387 130.828V131.438L182.671 138.16H182.055L189.387 130.828Z" fill="#455A64"/>
</g>
<path d="M190.687 131.259H178.022V132.694H190.687V131.259Z" fill="#455A64"/>
<path d="M212.299 119.965H199.635V139.596H212.299V119.965Z" fill="#455A64"/>
<path d="M210.998 121.4H200.941V138.154H210.998V121.4Z" fill="#2C2C2C"/>
<path d="M214.112 139.596H197.822V142.419H214.112V139.596Z" fill="#C98A00"/>
<g opacity="0.5">
<path d="M210.998 121.405V123.473L200.941 133.536V129.707L209.243 121.405H210.998Z" fill="#455A64"/>
<path d="M210.998 133.826V135.738L208.576 138.16H206.664L210.998 133.826Z" fill="#455A64"/>
<path d="M204.328 121.405L200.941 124.792V122.875L202.411 121.405H204.328Z" fill="#455A64"/>
<path d="M210.997 130.828V131.438L204.282 138.16H203.666L210.997 130.828Z" fill="#455A64"/>
</g>
<path d="M212.299 131.259H199.635V132.694H212.299V131.259Z" fill="#455A64"/>
<path d="M233.91 119.965H221.245V139.596H233.91V119.965Z" fill="#455A64"/>
<path d="M232.61 121.4H222.553V138.154H232.61V121.4Z" fill="#2C2C2C"/>
<path d="M235.723 139.596H219.433V142.419H235.723V139.596Z" fill="#C98A00"/>
<g opacity="0.5">
<path d="M232.61 121.405V123.473L222.553 133.536V129.707L230.855 121.405H232.61Z" fill="#455A64"/>
<path d="M232.609 133.826V135.738L230.186 138.16H228.275L232.609 133.826Z" fill="#455A64"/>
<path d="M225.94 121.405L222.553 124.792V122.875L224.023 121.405H225.94Z" fill="#455A64"/>
<path d="M232.61 130.828V131.438L225.895 138.16H225.279L232.61 130.828Z" fill="#455A64"/>
</g>
<path d="M233.91 131.259H221.245V132.694H233.91V131.259Z" fill="#455A64"/>
<path d="M190.687 149.605H178.022V169.236H190.687V149.605Z" fill="#455A64"/>
<path d="M189.386 151.046H179.329V167.801H189.386V151.046Z" fill="#2C2C2C"/>
<path d="M192.5 169.241H176.21V172.064H192.5V169.241Z" fill="#C98A00"/>
<g opacity="0.5">
<path d="M189.386 151.046V153.12L179.329 163.176V159.354L187.631 151.046H189.386Z" fill="#455A64"/>
<path d="M189.386 163.466V165.383L186.964 167.8H185.052L189.386 163.466Z" fill="#455A64"/>
<path d="M182.716 151.046L179.329 154.433V152.522L180.799 151.046H182.716Z" fill="#455A64"/>
<path d="M189.387 160.469V161.085L182.671 167.801H182.055L189.387 160.469Z" fill="#455A64"/>
</g>
<path d="M190.687 160.899H178.022V162.334H190.687V160.899Z" fill="#455A64"/>
<path d="M212.299 149.605H199.635V169.236H212.299V149.605Z" fill="#455A64"/>
<path d="M210.998 151.046H200.941V167.801H210.998V151.046Z" fill="#2C2C2C"/>
<path d="M214.112 169.241H197.822V172.064H214.112V169.241Z" fill="#C98A00"/>
<g opacity="0.5">
<path d="M210.998 151.046V153.12L200.941 163.176V159.354L209.243 151.046H210.998Z" fill="#455A64"/>
<path d="M210.998 163.466V165.383L208.576 167.8H206.664L210.998 163.466Z" fill="#455A64"/>
<path d="M204.328 151.046L200.941 154.433V152.522L202.411 151.046H204.328Z" fill="#455A64"/>
<path d="M210.997 160.469V161.085L204.282 167.801H203.666L210.997 160.469Z" fill="#455A64"/>
</g>
<path d="M212.299 160.899H199.635V162.334H212.299V160.899Z" fill="#455A64"/>
<path d="M233.91 149.605H221.245V169.236H233.91V149.605Z" fill="#455A64"/>
<path d="M232.61 151.046H222.553V167.801H232.61V151.046Z" fill="#2C2C2C"/>
<path d="M235.723 169.241H219.433V172.064H235.723V169.241Z" fill="#C98A00"/>
<g opacity="0.5">
<path d="M232.61 151.046V153.12L222.553 163.176V159.354L230.855 151.046H232.61Z" fill="#455A64"/>
<path d="M232.609 163.466V165.383L230.186 167.8H228.275L232.609 163.466Z" fill="#455A64"/>
<path d="M225.94 151.046L222.553 154.433V152.522L224.023 151.046H225.94Z" fill="#455A64"/>
<path d="M232.61 160.469V161.085L225.895 167.801H225.279L232.61 160.469Z" fill="#455A64"/>
</g>
<path d="M233.91 160.899H221.245V162.334H233.91V160.899Z" fill="#455A64"/>
<path d="M169.821 109.502L244.589 109.502V105.418L169.821 105.418V109.502Z" fill="#C98A00"/>
<path opacity="0.5" d="M242.126 179.065H169.821V191.457H242.126V179.065Z" fill="#C98A00"/>
<path opacity="0.5" d="M242.12 146.264H169.821V147.257L242.12 146.758V146.264Z" fill="#C98A00"/>
<path d="M242.126 144.882H169.821V146.264H242.126V144.882Z" fill="white"/>
<path opacity="0.5" d="M175.125 109.502H169.821V191.457H171.523L175.125 109.502Z" fill="#C98A00"/>
<path d="M159.612 66.738H91.8203V79.9431H159.612V66.738Z" fill="#C98A00"/>
<path d="M159.606 78.3562H91.8147V78.6467H159.606V78.3562Z" fill="white"/>
<path d="M159.792 68.0334H92V68.3239H159.792V68.0334Z" fill="white"/>
<path d="M102.009 69.8909H103.352V74.6125C103.352 75.1562 103.234 75.6135 103 75.9846C102.766 76.3525 102.447 76.6308 102.043 76.8196C101.639 77.0051 101.18 77.0979 100.666 77.0979C100.145 77.0979 99.6813 77.0051 99.2744 76.8196C98.8675 76.6308 98.5485 76.3525 98.3174 75.9846C98.0863 75.6135 97.9707 75.1562 97.9707 74.6125V69.8909H99.3135V74.6125C99.3135 74.9446 99.3688 75.2164 99.4795 75.428C99.5902 75.6363 99.7464 75.7909 99.9482 75.8918C100.15 75.9928 100.389 76.0432 100.666 76.0432C100.946 76.0432 101.185 75.9928 101.384 75.8918C101.586 75.7909 101.74 75.6363 101.848 75.428C101.955 75.2164 102.009 74.9446 102.009 74.6125V69.8909Z" fill="#E9E8E8"/>
<path d="M110.339 69.8909V77.0002H108.991L105.969 72.0686V77.0002H104.626V69.8909H105.969L109.001 74.8274V69.8909H110.339Z" fill="#E9E8E8"/>
<path d="M113.137 69.8909V77.0002H111.794V69.8909H113.137Z" fill="#E9E8E8"/>
<path d="M117.087 75.6086L118.859 69.8909H120.349L117.839 77.0002H116.848L117.087 75.6086ZM115.451 69.8909L117.214 75.6086L117.468 77.0002H116.467L113.967 69.8909H115.451Z" fill="#E9E8E8"/>
<path d="M125.793 75.9456V77.0002H122.014V75.9456H125.793ZM122.424 69.8909V77.0002H121.081V69.8909H122.424ZM125.3 72.8254V73.8557H122.014V72.8254H125.3ZM125.778 69.8909V70.9504H122.014V69.8909H125.778Z" fill="#E9E8E8"/>
<path d="M126.726 69.8909H129.309C129.849 69.8909 130.313 69.9722 130.7 70.135C131.088 70.2978 131.385 70.5387 131.594 70.8577C131.802 71.1767 131.906 71.5689 131.906 72.0344C131.906 72.4023 131.841 72.7213 131.711 72.9915C131.581 73.2616 131.397 73.4879 131.159 73.6702C130.925 73.8525 130.648 73.9957 130.329 74.0999L129.909 74.3147H127.629L127.619 73.2551H129.323C129.6 73.2551 129.829 73.2063 130.012 73.1086C130.194 73.011 130.331 72.8759 130.422 72.7034C130.516 72.5308 130.563 72.3339 130.563 72.1125C130.563 71.8749 130.518 71.6698 130.427 71.4973C130.336 71.3215 130.197 71.1864 130.012 71.092C129.826 70.9976 129.592 70.9504 129.309 70.9504H128.068V77.0002H126.726V69.8909ZM130.739 77.0002L129.094 73.8167L130.515 73.8118L132.18 76.9319V77.0002H130.739Z" fill="#E9E8E8"/>
<path d="M136.804 75.1545C136.804 75.0178 136.783 74.8958 136.74 74.7883C136.701 74.6777 136.628 74.5784 136.521 74.4905C136.416 74.3993 136.268 74.3114 136.076 74.2268C135.887 74.1389 135.643 74.0478 135.344 73.9534C135.012 73.8492 134.702 73.732 134.416 73.6018C134.13 73.4716 133.877 73.3202 133.659 73.1477C133.444 72.9752 133.277 72.7766 133.156 72.552C133.036 72.3241 132.976 72.0605 132.976 71.761C132.976 71.468 133.037 71.2011 133.161 70.9602C133.288 70.7193 133.467 70.5126 133.698 70.3401C133.929 70.1643 134.201 70.0292 134.514 69.9348C134.829 69.8404 135.178 69.7932 135.559 69.7932C136.086 69.7932 136.542 69.8892 136.926 70.0813C137.313 70.2734 137.613 70.5338 137.824 70.8625C138.036 71.1913 138.142 71.5608 138.142 71.9709H136.804C136.804 71.7496 136.757 71.5543 136.662 71.385C136.571 71.2157 136.431 71.0823 136.242 70.9846C136.057 70.887 135.822 70.8381 135.539 70.8381C135.266 70.8381 135.038 70.8788 134.855 70.9602C134.676 71.0416 134.541 71.1523 134.45 71.2922C134.362 71.4322 134.318 71.5885 134.318 71.761C134.318 71.8912 134.349 72.0084 134.411 72.1125C134.473 72.2135 134.566 72.3095 134.689 72.4006C134.813 72.4885 134.966 72.5715 135.148 72.6497C135.334 72.7245 135.549 72.7994 135.793 72.8743C136.184 72.9915 136.525 73.1217 136.818 73.2649C137.115 73.4081 137.36 73.5709 137.556 73.7532C137.754 73.9355 137.902 74.1405 138 74.3684C138.101 74.5963 138.151 74.8551 138.151 75.1448C138.151 75.4508 138.091 75.7242 137.971 75.9651C137.85 76.206 137.678 76.4111 137.453 76.5803C137.229 76.7496 136.958 76.8782 136.643 76.9661C136.33 77.054 135.98 77.0979 135.593 77.0979C135.248 77.0979 134.906 77.0523 134.567 76.9612C134.232 76.8668 133.928 76.7268 133.654 76.5413C133.381 76.3525 133.163 76.1148 133 75.8284C132.837 75.5387 132.756 75.2001 132.756 74.8127H134.104C134.104 75.0374 134.139 75.2294 134.211 75.3889C134.286 75.5452 134.39 75.6737 134.523 75.7747C134.66 75.8723 134.82 75.9439 135.002 75.9895C135.184 76.0351 135.381 76.0579 135.593 76.0579C135.866 76.0579 136.091 76.0204 136.267 75.9456C136.446 75.8674 136.579 75.76 136.667 75.6233C136.758 75.4866 136.804 75.3303 136.804 75.1545Z" fill="#E9E8E8"/>
<path d="M140.617 69.8909V77.0002H139.274V69.8909H140.617Z" fill="#E9E8E8"/>
<path d="M144.973 69.8909V77.0002H143.635V69.8909H144.973ZM147.18 69.8909V70.9504H141.452V69.8909H147.18Z" fill="#E9E8E8"/>
<path d="M148.981 69.8909L150.544 73.2063L152.116 69.8909H153.591L151.228 74.3977V77.0002H149.865V74.3977L147.497 69.8909H148.981Z" fill="#E9E8E8"/>
<g opacity="0.5">
<path d="M19.2427 174.215H14.5254V175.841H19.2427V174.215Z" fill="#C98A00"/>
<path d="M16.6108 177.898C15.2165 177.898 13.2819 177.962 11.8992 177.962H11.8469V176.219H11.9224C13.3109 176.219 15.2687 176.219 16.634 176.254H16.6747V176.283L16.634 177.915L16.6108 177.898ZM16.6108 177.898L16.5759 176.283L16.6108 176.324C15.8265 176.324 15.0422 176.324 14.2579 176.324H11.8992L11.9689 176.248V177.881L11.905 177.811C13.2586 177.811 15.2397 177.851 16.6166 177.881L16.6108 177.898Z" fill="#C98A00"/>
<path d="M96.4285 128.935C95.0284 128.935 93.0938 128.999 91.7111 128.999H91.6472V127.256H91.7227C93.1112 127.256 95.069 127.256 96.4401 127.291H96.4749V127.326L96.4401 128.958L96.4285 128.935ZM96.4285 128.935L96.3878 127.303L96.4285 127.343C95.6384 127.343 94.8541 127.343 94.0698 127.343H91.7111L91.7808 127.268V128.9L91.7169 128.831C93.0706 128.831 95.0574 128.877 96.4343 128.9L96.4285 128.935Z" fill="#C98A00"/>
<path d="M93.7967 129.36H89.0793V130.987H93.7967V129.36Z" fill="#C98A00"/>
<path d="M91.1763 128.935C89.7762 128.935 87.8416 128.999 86.4589 128.999H86.395V128.935V127.302V127.233H86.4705C87.859 127.233 89.8168 127.233 91.1879 127.268H91.2227V127.302L91.1879 128.935H91.1763ZM91.1763 128.935L91.1356 127.302L91.1763 127.343C90.3862 127.343 89.6019 127.343 88.8176 127.343H86.4589L86.5286 127.268V128.9L86.4647 128.83C87.8184 128.83 89.8052 128.877 91.1821 128.9L91.1763 128.935Z" fill="#C98A00"/>
<path d="M237.187 117.142C235.787 117.142 233.853 117.211 232.47 117.206H232.406V115.463H232.482C233.87 115.463 235.828 115.463 237.199 115.503H237.234V115.538L237.199 117.165L237.187 117.142ZM237.187 117.142L237.147 115.515L237.187 115.55H234.829H232.47L232.54 115.48V117.107L232.476 117.043C233.829 117.043 235.816 117.084 237.193 117.107L237.187 117.142Z" fill="#C98A00"/>
<path d="M237.187 150.424C235.787 150.424 233.853 150.494 232.47 150.494H232.406V148.722H232.482C233.87 148.722 235.828 148.722 237.199 148.763H237.234V148.797L237.199 150.424H237.187ZM237.187 150.424L237.147 148.797L237.187 148.832L234.829 148.861H232.47L232.54 148.792V150.418L232.476 150.354C233.829 150.354 235.816 150.395 237.193 150.418L237.187 150.424Z" fill="#C98A00"/>
<path d="M239.785 113.452H235.067V115.079H239.785V113.452Z" fill="#C98A00"/>
<path d="M180.069 116.827H175.352V118.454H180.069V116.827Z" fill="#C98A00"/>
<path d="M180.085 177.474C178.685 177.474 176.75 177.543 175.368 177.538H175.304V177.474V175.847V175.771H175.379C176.768 175.771 178.726 175.771 180.097 175.806H180.131V175.847L180.097 177.474H180.085ZM180.085 177.474L180.044 175.847L180.085 175.882C179.295 175.882 178.511 175.882 177.726 175.882H175.368L175.437 175.812V177.439L175.373 177.369C176.727 177.369 178.714 177.416 180.091 177.439L180.085 177.474Z" fill="#C98A00"/>
<path d="M182.683 173.784H177.965V175.411H182.683V173.784Z" fill="#C98A00"/>
<path d="M234.544 115.084C233.15 115.084 231.216 115.154 229.833 115.148H229.763V113.406H229.839C231.227 113.406 233.185 113.406 234.55 113.44H234.591V113.475L234.55 115.102L234.544 115.084ZM234.544 115.084L234.51 113.458L234.544 113.493L232.192 113.522H229.833L229.903 113.452V115.079L229.839 115.015C231.192 115.015 233.173 115.055 234.55 115.079L234.544 115.084Z" fill="#C98A00"/>
<path d="M40.2202 132.212C38.8201 132.212 36.8855 132.282 35.5029 132.282H35.439V130.539H35.5145C36.903 130.539 38.8608 130.539 40.2318 130.574H40.2667V130.609L40.2318 132.236L40.2202 132.212ZM40.2202 132.212L40.1854 130.586L40.2202 130.621L37.8615 130.65H35.5029L35.5784 130.574V132.201L35.5145 132.137C36.8681 132.137 38.855 132.178 40.2318 132.201L40.2202 132.212Z" fill="#C98A00"/>
<path d="M93.8135 176.909C92.4134 176.909 90.4788 176.979 89.0961 176.973H89.0322V175.23H89.1136C90.502 175.23 92.4599 175.23 93.8309 175.265H93.8658V175.306L93.8309 176.933L93.8135 176.909ZM93.8135 176.909L93.7786 175.283L93.8135 175.318L91.4548 175.347H89.1136L89.1891 175.277V176.904L89.1136 176.863C90.4672 176.863 92.454 176.904 93.8309 176.927L93.8135 176.909Z" fill="#C98A00"/>
<path d="M34.9692 132.212C33.5691 132.212 31.6346 132.282 30.2519 132.282H30.188V130.539H30.2577C31.6462 130.539 33.604 130.539 34.9751 130.574H35.0099V130.609L34.9751 132.236L34.9692 132.212ZM34.9692 132.212L34.9344 130.586L34.9692 130.621L32.6106 130.65H30.2519L30.3274 130.574V132.201L30.2635 132.137C31.6171 132.137 33.604 132.178 34.9809 132.201L34.9692 132.212Z" fill="#C98A00"/>
<path d="M160.914 160.243C159.519 160.243 157.579 160.307 156.202 160.307H156.132V158.564H156.208C157.596 158.564 159.548 158.564 160.919 158.599H160.96V158.634L160.919 160.266L160.914 160.243ZM160.914 160.243L160.879 158.61L160.914 158.651C160.129 158.651 159.345 158.651 158.555 158.651H156.231L156.301 158.576V160.208L156.237 160.138C157.591 160.138 159.572 160.185 160.948 160.208L160.914 160.243Z" fill="#C98A00"/>
<path d="M160.914 93.415C159.519 93.415 157.579 93.4848 156.202 93.4789H156.132V91.7361H156.208C157.596 91.7361 159.548 91.7361 160.919 91.7709H160.96V91.8058L160.919 93.4325L160.914 93.415ZM160.914 93.415L160.879 91.7884L160.914 91.8232H158.555H156.231L156.301 91.7535V93.3802L156.237 93.3163C157.591 93.3163 159.572 93.3569 160.948 93.3802L160.914 93.415Z" fill="#C98A00"/>
<path d="M163.545 93.8394H158.828V95.466H163.545V93.8394Z" fill="#C98A00"/>
<path d="M58.3238 112.099H53.6064V113.725H58.3238V112.099Z" fill="#C98A00"/>
</g>
<path d="M0.558838 195.821C80.7305 195.466 170.686 195.466 250.869 195.821C170.697 196.181 80.7422 196.181 0.558838 195.821Z" fill="#263238"/>
<path d="M246.919 191.462H4.50391V195.686H246.919V191.462Z" fill="#C7C7C7"/>
<path d="M21.5024 191.462C21.8818 192.844 21.8818 194.303 21.5024 195.686C21.2981 195.002 21.2002 194.291 21.2119 193.577C21.2026 192.861 21.3005 192.149 21.5024 191.462Z" fill="#263238"/>
<path d="M40.4467 191.462C40.6485 192.149 40.7465 192.861 40.7372 193.577C40.7489 194.291 40.6509 195.002 40.4467 195.686C40.0672 194.303 40.0672 192.844 40.4467 191.462Z" fill="#263238"/>
<path d="M59.3979 191.462C59.7774 192.844 59.7774 194.303 59.3979 195.686C59.1936 195.002 59.0957 194.291 59.1074 193.577C59.0981 192.861 59.196 192.149 59.3979 191.462Z" fill="#263238"/>
<path d="M78.3422 191.462C78.544 192.149 78.642 192.861 78.6327 193.577C78.6444 194.291 78.5465 195.002 78.3422 195.686C77.9627 194.303 77.9627 192.844 78.3422 191.462Z" fill="#263238"/>
<path d="M97.2929 191.462C97.6724 192.844 97.6724 194.303 97.2929 195.686C97.0887 195.002 96.9907 194.291 97.0024 193.577C96.9932 192.861 97.0911 192.149 97.2929 191.462Z" fill="#263238"/>
<path d="M116.238 191.462C116.44 192.149 116.538 192.861 116.529 193.577C116.54 194.291 116.442 195.002 116.238 195.686C115.859 194.303 115.859 192.844 116.238 191.462Z" fill="#263238"/>
<path d="M135.189 191.462C135.568 192.844 135.568 194.303 135.189 195.686C134.985 195.002 134.887 194.291 134.898 193.577C134.889 192.861 134.987 192.149 135.189 191.462Z" fill="#263238"/>
<path d="M154.134 191.462C154.336 192.149 154.434 192.861 154.425 193.577C154.436 194.291 154.338 195.002 154.134 195.686C153.755 194.303 153.755 192.844 154.134 191.462Z" fill="#263238"/>
<path d="M173.085 191.462C173.464 192.844 173.464 194.303 173.085 195.686C172.881 195.002 172.783 194.291 172.794 193.577C172.785 192.861 172.883 192.149 173.085 191.462Z" fill="#263238"/>
<path d="M192.03 191.462C192.232 192.149 192.33 192.861 192.32 193.577C192.332 194.291 192.234 195.002 192.03 195.686C191.65 194.303 191.65 192.844 192.03 191.462Z" fill="#263238"/>
<path d="M210.981 191.462C211.36 192.844 211.36 194.303 210.981 195.686C210.776 195.002 210.678 194.291 210.69 193.577C210.681 192.861 210.779 192.149 210.981 191.462Z" fill="#263238"/>
<path d="M229.926 191.462C230.128 192.149 230.226 192.861 230.216 193.577C230.228 194.291 230.13 195.002 229.926 195.686C229.546 194.303 229.546 192.844 229.926 191.462Z" fill="#263238"/>
<path d="M108.361 195.819H143.067L208.639 243.922H42.8291L108.361 195.819Z" fill="#E9E8E8"/>
<path d="M31.8436 191.463C31.8436 191.463 31.3556 189.185 30.3796 188.831C29.4036 188.476 28.8052 189.505 28.8052 189.505C28.8052 189.505 28.5787 187.32 27.1902 186.67C25.8017 186.019 24.7676 187.355 24.7676 187.355C24.7676 187.355 23.7044 184.59 21.8047 184.59C19.905 184.59 18.9522 188.657 18.9522 188.657C18.9522 188.657 17.831 187.454 16.6807 188.134C15.5304 188.813 15.5188 191.486 15.5188 191.486L31.8436 191.463Z" fill="#2C2C2C"/>
<path d="M193.837 191.463C193.837 191.463 193.349 189.185 192.373 188.831C191.397 188.476 190.804 189.505 190.804 189.505C190.804 189.505 190.572 187.32 189.189 186.67C187.807 186.019 186.767 187.355 186.767 187.355C186.767 187.355 185.703 184.59 183.804 184.59C181.904 184.59 180.945 188.657 180.945 188.657C180.945 188.657 179.83 187.454 178.68 188.134C177.529 188.813 177.518 191.486 177.518 191.486L193.837 191.463Z" fill="#455A64"/>
<path d="M74.9963 191.463H57.8291C57.8291 191.463 58.4101 189.046 59.5313 188.872C59.874 188.841 60.2178 188.916 60.5168 189.087C60.8157 189.257 61.0556 189.514 61.2045 189.824C61.2045 189.824 61.1522 186.449 63.2785 185.874C65.4048 185.299 67.1825 188.279 67.1825 188.279C67.1825 188.279 68.5187 186.583 70.3312 186.687C72.1438 186.792 72.6144 189.592 72.6144 189.592C72.6144 189.592 74.2643 188.634 74.9963 191.463Z" fill="#2C2C2C"/>
<path d="M16.5871 191.463H7.55322C7.55322 191.463 7.55322 190.121 8.45951 189.761C8.70104 189.657 8.96983 189.634 9.22547 189.696C9.4811 189.758 9.70976 189.901 9.87704 190.104C9.87704 190.104 10.2372 187.629 11.893 187.629C13.5487 187.629 14.3446 189.761 14.3446 189.761C14.485 189.557 14.682 189.399 14.9112 189.307C15.1404 189.214 15.3918 189.19 15.6343 189.238C16.5522 189.36 16.5871 191.463 16.5871 191.463Z" fill="#455A64"/>
<path d="M82.0849 191.463H73.051C73.051 191.463 73.051 190.121 73.9573 189.761C74.1988 189.657 74.4676 189.634 74.7233 189.696C74.9789 189.758 75.2076 189.901 75.3748 190.104C75.3748 190.104 75.7408 187.629 77.3966 187.629C79.0523 187.629 79.8191 189.761 79.8191 189.761C79.9596 189.557 80.1566 189.399 80.3857 189.307C80.6149 189.214 80.8663 189.19 81.1089 189.238C82.05 189.36 82.0849 191.463 82.0849 191.463Z" fill="#455A64"/>
<path d="M230.693 191.463H221.659C221.659 191.463 221.659 190.121 222.565 189.761C222.807 189.657 223.075 189.634 223.331 189.696C223.587 189.758 223.815 189.901 223.983 190.104C223.983 190.104 224.343 187.629 225.998 187.629C227.654 187.629 228.45 189.761 228.45 189.761C228.59 189.557 228.787 189.398 229.016 189.305C229.246 189.213 229.497 189.189 229.74 189.238C230.658 189.36 230.693 191.463 230.693 191.463Z" fill="#455A64"/>
<path d="M243.874 191.463H228.979C228.979 191.463 229.014 189.249 230.478 188.657C230.876 188.489 231.317 188.456 231.736 188.56C232.155 188.665 232.529 188.903 232.801 189.238C232.801 189.238 233.382 185.171 236.13 185.171C238.878 185.171 240.162 188.657 240.162 188.657C240.394 188.321 240.718 188.06 241.096 187.906C241.474 187.752 241.888 187.712 242.288 187.791C243.816 187.989 243.874 191.463 243.874 191.463Z" fill="#2C2C2C"/>
<path d="M204.816 99.2655C205.107 99.7128 232.644 103.547 233.998 103.292C234.064 103.277 234.128 103.256 234.189 103.228C235.886 102.618 244.066 96.4014 244.699 95.8727C245.861 94.8967 239.546 76.2946 234.015 65.0531C232.168 61.3059 228.996 57.9887 228.101 56.9197C227.206 55.8508 210.091 53.8755 206.89 54.9852C205.525 55.4615 202.028 58.4186 201.883 58.9937C201.72 59.8536 204.526 98.8123 204.816 99.2655Z" fill="#455A64"/>
<path d="M204.816 99.2638C205.107 99.7111 232.644 103.545 233.998 103.29C234.064 103.276 234.128 103.254 234.189 103.226C232.208 95.8129 222.901 61.0254 222.57 60.7756C222.239 60.5258 205.839 59.0908 201.888 59.0327C201.72 59.8519 204.526 98.8107 204.816 99.2638Z" fill="#263238"/>
<path d="M218.981 57.4472C219.277 57.2148 219.812 53.4734 219.376 52.6775C218.888 51.7828 212.271 51.5853 211.823 52.265C211.376 52.9448 210.836 56.6803 211.022 56.8313C211.208 56.9824 212.288 57.2206 212.463 56.994C212.637 56.7674 212.91 53.6593 213.043 53.5083C213.177 53.3572 217.807 53.5083 217.947 53.7349C218.086 53.9614 217.401 57.0928 217.575 57.2206C217.749 57.3484 218.667 57.6737 218.981 57.4472Z" fill="#2C2C2C"/>
<path d="M219.695 86.4491C219.695 86.4491 206.263 153.909 205.305 158.888C205.102 160.015 205.886 220.435 205.886 220.435H180.905C180.905 220.435 178.511 167.661 179.743 157.691C180.975 147.722 196.161 86.4316 196.161 86.4316L219.695 86.4491Z" fill="#E7948A"/>
<path opacity="0.1" d="M219.701 86.4487C219.701 86.4487 213.165 119.284 208.884 140.826L196.103 86.4487H219.701Z" fill="black"/>
<path d="M187.661 120.179L214.204 123.368L219.694 86.4487H196.131L187.661 120.179Z" fill="#2C2C2C"/>
<path d="M213.211 118.274C210.376 117.693 207.494 117.356 204.624 117.031C201.754 116.706 198.931 116.404 196.084 116.107C194.458 115.945 192.819 115.782 191.187 115.695C191.167 115.695 191.148 115.703 191.133 115.717C191.119 115.731 191.111 115.75 191.111 115.77C191.111 115.79 191.119 115.81 191.133 115.824C191.148 115.838 191.167 115.846 191.187 115.846C194.028 116.375 196.915 116.706 199.779 117.083C202.643 117.461 205.455 117.815 208.302 118.117C209.934 118.292 211.567 118.431 213.205 118.495C213.22 118.495 213.234 118.493 213.247 118.488C213.261 118.483 213.273 118.475 213.284 118.465C213.294 118.455 213.303 118.443 213.309 118.43C213.315 118.416 213.318 118.402 213.318 118.388C213.319 118.373 213.316 118.359 213.311 118.345C213.306 118.332 213.298 118.319 213.288 118.309C213.278 118.298 213.266 118.29 213.253 118.284C213.24 118.278 213.225 118.275 213.211 118.274Z" fill="#263238"/>
<path d="M216.023 88.6047C214.055 95.6691 212.175 102.763 210.382 109.885C210.126 110.879 209.888 111.884 209.644 112.883C209.369 113.903 209.147 114.936 208.981 115.979C208.981 115.992 208.986 116.003 208.995 116.012C209.004 116.021 209.016 116.026 209.028 116.026C209.04 116.026 209.052 116.021 209.061 116.012C209.07 116.003 209.074 115.992 209.074 115.979C209.685 114.226 210.203 112.442 210.626 110.635C211.102 108.892 211.555 107.102 212.014 105.33C212.926 101.792 213.838 98.2486 214.698 94.6931C215.186 92.6714 215.672 90.6439 216.156 88.6105C216.179 88.5582 216.052 88.5176 216.023 88.6047Z" fill="#263238"/>
<path d="M162.447 243.615C163.824 244.074 203.19 243.958 204.689 243.034C205.27 242.68 205.577 236.94 205.763 230.003C205.804 228.504 205.833 226.959 205.856 225.385C205.885 223.52 205.914 221.637 205.926 219.807C205.973 211.587 205.676 204.348 205.676 204.348H180.23V219.807V225.385L180.364 230.003C180.364 230.003 165.312 236.789 163.784 238.014C162.256 239.24 161.076 243.162 162.447 243.615Z" fill="#E7948A"/>
<path d="M162.448 243.615C163.825 244.074 203.191 243.958 204.689 243.034C205.27 242.68 205.578 236.94 205.764 230.003C205.805 228.504 205.834 226.959 205.857 225.385C205.886 223.52 205.915 221.637 205.927 219.807H180.243V225.385L180.376 230.003C180.376 230.003 165.324 236.789 163.796 238.014C162.268 239.24 161.077 243.162 162.448 243.615Z" fill="#DBDBDB"/>
<path d="M162.313 243.673C163.213 243.969 179.98 244.027 192.186 243.778C195.015 243.714 197.594 243.638 199.68 243.545C202.55 243.417 204.479 243.261 204.792 243.057C205.484 242.616 205.815 234.192 205.954 225.309H180.23L180.363 229.957C180.363 229.957 165.229 236.777 163.69 238.009C162.15 239.24 160.948 243.208 162.313 243.673Z" fill="#C98A00"/>
<path d="M162.896 242.086C169.536 241.906 196.312 241.796 202.883 242.121C202.935 242.121 202.935 242.162 202.883 242.162C196.312 242.487 169.536 242.377 162.896 242.197C162.751 242.191 162.751 242.092 162.896 242.086Z" fill="#263238"/>
<path d="M179.423 228.486C182.032 227.987 185.233 228.382 187.231 230.229C187.307 230.299 187.202 230.409 187.121 230.386C184.622 229.587 182.046 229.058 179.435 228.806C179.397 228.8 179.363 228.782 179.338 228.753C179.312 228.725 179.298 228.689 179.296 228.651C179.295 228.613 179.307 228.576 179.33 228.546C179.353 228.516 179.386 228.495 179.423 228.486Z" fill="#263238"/>
<path d="M177.541 229.624C180.156 229.13 183.351 229.52 185.349 231.367C185.425 231.443 185.349 231.553 185.239 231.524C182.74 230.727 180.164 230.199 177.553 229.95C177.517 229.941 177.484 229.921 177.461 229.893C177.437 229.864 177.424 229.828 177.422 229.791C177.421 229.754 177.432 229.718 177.453 229.688C177.475 229.657 177.506 229.635 177.541 229.624Z" fill="#263238"/>
<path d="M175.676 230.764C178.285 230.27 181.486 230.665 183.479 232.507C183.554 232.577 183.479 232.687 183.368 232.658C180.867 231.864 178.289 231.34 175.676 231.095C175.638 231.088 175.603 231.068 175.578 231.037C175.553 231.007 175.539 230.969 175.539 230.93C175.539 230.891 175.553 230.852 175.578 230.822C175.603 230.792 175.638 230.771 175.676 230.764Z" fill="#263238"/>
<path d="M173.783 231.909C176.391 231.415 179.592 231.805 181.585 233.652C181.66 233.728 181.585 233.832 181.474 233.809C178.978 233.009 176.403 232.481 173.794 232.234C173.758 232.226 173.726 232.206 173.702 232.178C173.678 232.149 173.665 232.113 173.663 232.076C173.662 232.039 173.673 232.003 173.695 231.972C173.716 231.942 173.747 231.92 173.783 231.909Z" fill="#263238"/>
<path d="M175.763 226.174C177.616 227.604 180.022 228.184 182.183 228.975C182.403 229.062 182.584 228.847 182.589 228.649C182.6 228.648 182.61 228.645 182.619 228.639C182.628 228.633 182.635 228.626 182.641 228.617C182.647 228.608 182.65 228.598 182.651 228.587C182.652 228.577 182.651 228.566 182.647 228.556C181.848 226.246 180.456 224.186 178.61 222.584C177.518 221.672 175.606 221.045 174.584 222.462C173.561 223.88 174.683 225.338 175.763 226.174ZM175.095 224.077C174.624 221.213 177.704 222.706 178.482 223.415C178.98 223.876 179.444 224.373 179.87 224.902C180.741 226.005 181.555 227.151 182.311 228.336C181.271 227.882 180.207 227.522 179.156 227.11C177.901 226.61 175.351 225.663 175.095 224.077Z" fill="#263238"/>
<path d="M191.362 224.554C190.723 222.927 188.719 223.061 187.429 223.671C185.243 224.761 183.382 226.406 182.032 228.441C181.997 228.487 182.032 228.528 182.067 228.551C182.051 228.6 182.047 228.652 182.055 228.702C182.064 228.753 182.084 228.801 182.115 228.842C182.146 228.883 182.186 228.916 182.232 228.938C182.278 228.96 182.329 228.971 182.381 228.969C184.67 228.737 187.139 228.778 189.288 227.854C190.537 227.314 191.943 226.094 191.362 224.554ZM185.779 227.912C184.652 228.051 183.531 228.133 182.415 228.319C183.44 227.359 184.513 226.452 185.628 225.6C186.183 225.194 186.765 224.827 187.371 224.502C188.301 224.014 191.658 223.34 190.485 225.989C189.817 227.453 187.11 227.744 185.773 227.912H185.779Z" fill="#263238"/>
<path opacity="0.1" d="M205.938 227.796C205.77 235.708 205.439 242.657 204.806 243.058C204.492 243.261 202.569 243.412 199.693 243.546C197.608 243.639 195.046 243.72 192.205 243.772C189.927 243.819 187.493 243.859 185.036 243.883L205.938 227.796Z" fill="black"/>
<path d="M212.567 217.297L238.222 216.972C238.222 216.972 233.191 129.416 230.989 111.215C230.989 111.215 235.154 101.339 227.358 86.4429H196.108C196.108 86.4429 198.2 100.624 201.784 109.617C201.784 109.617 204.108 110.239 208.326 112.568L212.567 217.297Z" fill="#E7948A"/>
<path d="M208.791 123.566H233.342L231.448 111.215C231.448 111.215 235.178 98.6603 227.892 86.4429H196.108C196.108 86.4429 197.427 99.7467 201.337 109.751L205.305 111.505L208.791 123.566Z" fill="#2C2C2C"/>
<path d="M205.305 111.506C205.27 111.349 204.951 111.355 204.98 111.506C206.275 118.802 208.314 122.335 208.465 122.666C208.465 122.712 208.547 122.712 208.558 122.666C208.686 122.323 205.886 114.538 205.305 111.506Z" fill="#263238"/>
<path d="M200.598 109.24C203.413 110.266 206.135 111.533 208.731 113.028C208.751 113.039 208.766 113.058 208.772 113.08C208.779 113.101 208.778 113.125 208.769 113.146C208.759 113.166 208.743 113.183 208.722 113.192C208.701 113.202 208.678 113.203 208.656 113.196C205.914 112.034 203.119 110.872 200.447 109.565C200.408 109.543 200.379 109.507 200.366 109.464C200.352 109.421 200.355 109.374 200.374 109.334C200.393 109.293 200.427 109.261 200.468 109.243C200.509 109.226 200.556 109.225 200.598 109.24Z" fill="#263238"/>
<path d="M199.728 90.4348C199.728 90.3418 199.902 90.3244 199.902 90.4348C199.902 93.4925 200.055 96.5483 200.361 99.5906C200.489 101.002 201.628 108.805 204.073 108.235C204.486 108.142 204.695 107.736 204.759 107.12C204.748 106.312 204.639 105.508 204.434 104.726C204.16 103.094 203.94 101.455 203.8 99.8056C203.516 96.7352 203.55 93.6437 203.899 90.58C203.899 90.5585 203.908 90.5378 203.923 90.5225C203.938 90.5073 203.959 90.4987 203.98 90.4987C204.002 90.4987 204.023 90.5073 204.038 90.5225C204.053 90.5378 204.062 90.5585 204.062 90.58C203.987 94.8395 204.235 99.0985 204.805 103.32C205.113 105.348 206.13 108.404 204.009 108.717C201.889 109.031 200.448 103.919 200.187 102.519C199.511 98.5276 199.357 94.4656 199.728 90.4348Z" fill="#263238"/>
<path d="M204.009 108.432C204.234 108.958 204.428 109.498 204.59 110.047C204.744 110.473 204.821 110.924 204.816 111.378C204.813 111.396 204.804 111.412 204.791 111.426C204.778 111.439 204.762 111.448 204.744 111.451C204.726 111.455 204.707 111.453 204.69 111.447C204.673 111.44 204.658 111.428 204.648 111.412C204.386 111.016 204.19 110.581 204.067 110.123C203.881 109.623 203.683 109.123 203.486 108.618C203.461 108.549 203.465 108.472 203.497 108.406C203.528 108.339 203.585 108.288 203.654 108.264C203.724 108.239 203.8 108.243 203.866 108.274C203.933 108.306 203.984 108.363 204.009 108.432Z" fill="#263238"/>
<path d="M226.8 99.9797C224.476 99.7474 222.106 99.7764 219.962 98.7423C217.818 97.7082 216.395 95.6284 215.314 93.5544C214.629 92.2703 214.112 90.9036 213.775 89.4877C213.775 89.4238 213.658 89.4412 213.664 89.4877C213.752 90.8128 214.07 92.1124 214.605 93.3278C215.088 94.5276 215.704 95.6695 216.441 96.7322C217.13 97.7425 218.033 98.5893 219.085 99.2129C220.164 99.7925 221.35 100.148 222.57 100.259C223.993 100.415 225.429 100.415 226.852 100.259C226.889 100.252 226.922 100.23 226.943 100.199C226.964 100.168 226.972 100.13 226.965 100.093C226.958 100.056 226.937 100.023 226.906 100.002C226.875 99.9808 226.837 99.9728 226.8 99.9797Z" fill="#263238"/>
<path d="M229.973 113.8C229.65 112.67 229.419 111.516 229.281 110.349C229.217 109.188 229.862 108.194 230.182 107.125C231.541 102.966 230.989 98.4108 229.508 94.379C228.624 92.0792 227.555 89.8547 226.313 87.7271C226.284 87.669 226.202 87.7271 226.231 87.7794C228.259 91.7299 230.048 95.9534 230.443 100.421C230.656 102.569 230.459 104.737 229.862 106.811C229.566 107.793 228.997 108.74 228.915 109.774C228.918 110.869 229.089 111.956 229.421 112.999C229.717 114.288 230.623 118.227 231.018 119.511C231.053 119.621 231.251 119.598 231.233 119.476C231.042 118.326 230.234 114.997 229.973 113.8Z" fill="#263238"/>
<path d="M231.737 120.359C228.833 120.15 225.928 120.15 223.058 120.179C220.188 120.208 217.335 120.249 214.477 120.313C212.839 120.348 211.195 120.382 209.562 120.499C209.452 120.499 209.458 120.644 209.562 120.65C212.467 120.83 215.372 120.807 218.236 120.83C221.1 120.853 223.958 120.83 226.822 120.83C228.467 120.801 230.099 120.737 231.737 120.603C231.77 120.603 231.801 120.59 231.824 120.568C231.847 120.545 231.859 120.514 231.859 120.481C231.859 120.449 231.847 120.418 231.824 120.395C231.801 120.372 231.77 120.359 231.737 120.359Z" fill="#263238"/>
<path d="M194.511 243.429C195.887 243.899 235.247 244.172 236.758 243.237C237.338 242.888 237.704 237.154 237.96 230.218C238.018 228.719 238.065 227.174 238.1 225.599C238.152 223.74 238.192 221.852 238.222 220.022C238.253 214.617 237.864 209.217 237.06 203.872L212.66 204.307L212.52 219.767L212.474 225.344L212.561 229.962C212.561 229.962 197.456 236.603 195.899 237.811C194.342 239.019 193.145 242.964 194.511 243.429Z" fill="#E7948A"/>
<path d="M194.51 243.429C195.887 243.899 235.246 244.172 236.757 243.237C237.338 242.889 237.704 237.155 237.96 230.218C238.018 228.719 238.064 227.174 238.099 225.599C238.151 223.74 238.192 221.852 238.221 220.022L212.543 219.767L212.496 225.344L212.583 229.962C212.583 229.962 197.479 236.603 195.922 237.811C194.365 239.019 193.145 242.964 194.51 243.429Z" fill="#DBDBDB"/>
<path d="M194.395 243.487C195.289 243.789 212.05 244.016 224.261 243.882C227.085 243.853 229.67 243.801 231.756 243.731C234.66 243.627 236.56 243.487 236.874 243.295C237.571 242.854 237.984 234.436 238.233 225.559L212.48 225.303L212.567 229.951C212.567 229.951 197.363 236.62 195.812 237.863C194.261 239.107 193.018 243.011 194.395 243.487Z" fill="#C98A00"/>
<path d="M194.969 241.93C201.609 241.814 228.385 241.971 234.956 242.36C235.008 242.36 235.008 242.401 234.956 242.401C228.379 242.662 201.603 242.285 194.969 242.041C194.847 242.012 194.847 241.93 194.969 241.93Z" fill="#263238"/>
<path d="M211.636 228.464C214.251 227.999 217.446 228.423 219.427 230.294C219.503 230.369 219.398 230.474 219.311 230.451C216.823 229.627 214.254 229.072 211.648 228.795C211.609 228.789 211.573 228.77 211.547 228.741C211.521 228.711 211.506 228.674 211.504 228.634C211.503 228.595 211.516 228.556 211.54 228.525C211.564 228.494 211.598 228.472 211.636 228.464Z" fill="#263238"/>
<path d="M209.742 229.591C212.357 229.12 215.552 229.544 217.533 231.415C217.609 231.49 217.504 231.601 217.423 231.572C214.933 230.748 212.362 230.193 209.754 229.916C209.711 229.918 209.669 229.902 209.637 229.873C209.606 229.843 209.587 229.802 209.586 229.759C209.584 229.716 209.6 229.674 209.629 229.642C209.659 229.611 209.699 229.592 209.742 229.591Z" fill="#263238"/>
<path d="M207.856 230.711C210.47 230.241 213.665 230.665 215.641 232.541C215.716 232.611 215.612 232.721 215.53 232.692C213.04 231.87 210.469 231.317 207.862 231.042C207.823 231.036 207.788 231.016 207.762 230.986C207.736 230.956 207.722 230.919 207.721 230.879C207.721 230.84 207.734 230.802 207.758 230.771C207.783 230.74 207.817 230.719 207.856 230.711Z" fill="#263238"/>
<path d="M205.962 231.833C208.576 231.362 211.771 231.786 213.747 233.663C213.822 233.733 213.747 233.843 213.636 233.814C211.146 232.992 208.575 232.439 205.968 232.164C205.929 232.157 205.894 232.138 205.868 232.108C205.842 232.078 205.828 232.04 205.827 232.001C205.826 231.962 205.84 231.923 205.864 231.893C205.889 231.862 205.923 231.841 205.962 231.833Z" fill="#263238"/>
<path d="M208 226.122C209.836 227.568 212.241 228.172 214.39 228.986C214.611 229.073 214.791 228.864 214.803 228.66C214.814 228.661 214.825 228.658 214.834 228.653C214.844 228.647 214.852 228.64 214.858 228.63C214.864 228.621 214.867 228.61 214.868 228.599C214.868 228.588 214.866 228.577 214.861 228.567C214.084 226.251 212.711 224.179 210.881 222.56C209.801 221.637 207.895 220.986 206.855 222.392C205.815 223.798 206.931 225.273 208 226.122ZM207.349 224.013C206.913 221.149 209.975 222.671 210.748 223.385C211.239 223.854 211.697 224.357 212.119 224.89C212.979 226.001 213.782 227.154 214.524 228.347C213.49 227.882 212.427 227.51 211.381 227.086C210.132 226.581 207.593 225.593 207.349 224.013Z" fill="#263238"/>
<path d="M223.61 224.652C222.988 223.019 220.978 223.13 219.683 223.728C217.484 224.796 215.607 226.425 214.239 228.451C214.204 228.498 214.239 228.538 214.274 228.556C214.259 228.604 214.255 228.656 214.263 228.706C214.271 228.757 214.291 228.804 214.321 228.846C214.351 228.887 214.39 228.921 214.435 228.944C214.481 228.967 214.531 228.98 214.582 228.98C216.871 228.771 219.346 228.835 221.501 227.934C222.762 227.405 224.191 226.197 223.61 224.652ZM217.992 227.986C216.865 228.114 215.744 228.184 214.623 228.358C215.692 227.44 216.708 226.482 217.864 225.668C218.42 225.269 219.003 224.908 219.607 224.588C220.537 224.111 223.901 223.467 222.71 226.11C222.036 227.539 219.328 227.8 217.992 227.986Z" fill="#263238"/>
<path d="M199 41.6393C198.774 43.8935 198.541 46.1534 198.419 48.4133C198.338 49.796 198.35 51.1612 198.419 52.5322C198.899 53.0405 199.435 53.4926 200.017 53.8801C200.017 53.5315 199.988 53.1829 199.976 52.846C199.912 51.2077 199.976 49.5868 200.081 47.9543C200.081 47.8962 200.162 47.9137 200.162 47.9543C200.122 49.6391 200.209 51.3355 200.313 53.0202C200.313 53.3862 200.371 53.7523 200.406 54.1124C200.964 54.4521 201.547 54.7493 202.149 55.0013C202.114 54.6004 202.091 54.1996 202.062 53.8045C201.992 52.8808 201.946 51.9513 201.923 51.0218C201.88 49.1897 201.942 47.3567 202.108 45.5317C202.108 45.4562 202.219 45.4795 202.213 45.5317C202.167 47.414 202.178 49.3079 202.254 51.1902C202.294 52.0791 202.341 52.9738 202.411 53.8626C202.445 54.2867 202.498 54.7166 202.538 55.1407C203.637 55.5664 204.77 55.8987 205.925 56.1342C209.219 56.8255 212.734 56.3665 215.97 55.5184C218.814 54.8019 221.441 53.4065 223.627 51.4517C222.725 50.0853 222.025 48.5964 221.547 47.0306C221.55 47.0231 221.555 47.0166 221.562 47.012C221.569 47.0075 221.577 47.005 221.585 47.005C221.593 47.005 221.601 47.0075 221.608 47.012C221.615 47.0166 221.62 47.0231 221.623 47.0306C222.087 48.0105 222.589 48.9787 223.127 49.9354C223.383 50.3769 223.662 50.7952 223.935 51.2251C223.964 51.1902 223.999 51.1612 224.028 51.1321C224.243 50.923 224.464 50.708 224.679 50.4699C224.155 49.5814 223.681 48.664 223.261 47.7219C222.626 46.4029 222.109 45.0304 221.716 43.6204C221.716 43.5275 221.809 43.4752 221.849 43.5623C222.43 44.8636 223.011 46.1766 223.592 47.4663C224.022 48.3726 224.504 49.2499 224.957 50.1445C225.302 49.7948 225.572 49.3785 225.751 48.9211C225.93 48.4636 226.014 47.9746 225.997 47.4838C225.851 46.6506 225.554 45.8511 225.12 45.1251C224.708 44.2887 224.34 43.4316 224.016 42.5573C223.342 40.7563 221.303 26.7669 216.464 27.1387C216.464 27.0981 208.911 21.0039 204.467 24.5651C197.391 30.2236 196.235 46.5194 196.444 48.3494C196.59 49.6959 197.111 50.9743 197.949 52.0384C197.908 50.8765 197.949 49.7146 198.024 48.5934C198.197 46.2564 198.488 43.9296 198.896 41.6219C198.897 41.6151 198.899 41.6085 198.903 41.6026C198.907 41.5967 198.912 41.5916 198.917 41.5875C198.923 41.5835 198.929 41.5806 198.936 41.579C198.943 41.5774 198.95 41.5772 198.957 41.5784C198.964 41.5795 198.97 41.582 198.976 41.5857C198.982 41.5893 198.987 41.5942 198.991 41.5998C198.995 41.6055 198.998 41.6119 199 41.6187C199.001 41.6255 199.002 41.6325 199 41.6393Z" fill="#263238"/>
<path d="M202.168 55.0783C196.858 59.8537 177.658 79.3273 179.273 85.7643C180.772 91.7481 186.355 92.7358 190.003 89.5115C195.29 84.8057 203.661 66.4882 205.77 60.8588C207.774 55.5024 207.391 50.3842 202.168 55.0783Z" fill="#E7948A"/>
<path d="M200.535 74.8764L184.321 69.0668C184.321 69.0668 198.264 56.2393 203.429 53.6192C209.238 50.6796 209.471 54.2931 207.594 60.1956C205.718 66.0981 200.535 74.8764 200.535 74.8764Z" fill="#C98A00"/>
<path d="M187.637 66.9986C188.218 67.1148 193.308 68.8461 194.406 69.2469C195.504 69.6478 200 71.2396 201.092 71.7508C201.103 71.7508 201.114 71.7551 201.121 71.7628C201.129 71.7704 201.133 71.7807 201.133 71.7915C201.133 71.8023 201.129 71.8126 201.121 71.8203C201.114 71.8279 201.103 71.8322 201.092 71.8322C199.931 71.5417 195.387 69.9441 194.26 69.5606C193.133 69.1772 188.143 67.3472 187.626 67.0742C187.556 67.0625 187.597 66.9928 187.637 66.9986Z" fill="#263238"/>
<path opacity="0.1" d="M207.593 60.1901C205.716 66.0926 200.534 74.8766 200.534 74.8766L189.92 71.0713L207.628 52.748C209.144 53.4626 208.79 56.3383 207.593 60.1901Z" fill="black"/>
<path d="M230.628 91.3578L194.115 91.2474L197.601 77.7403C197.601 77.7403 194.557 73.9292 195.556 70.0949C196.98 64.7385 204.974 54.2813 205.653 53.7003C208.39 51.3765 212.753 51.2545 214.693 53.2472C226.266 65.1277 230.628 91.3578 230.628 91.3578Z" fill="#C98A00"/>
<path d="M208.274 74.6155C206.566 74.7741 204.873 75.0615 203.208 75.4753C202.383 75.6902 201.575 75.9458 200.768 76.2189C200.367 76.3525 199.96 76.4745 199.554 76.5907C199.13 76.7304 198.691 76.8163 198.247 76.8463C198.206 76.8463 198.212 76.9102 198.247 76.9102C198.667 76.9277 199.088 76.9161 199.507 76.8754C199.911 76.8265 200.311 76.7489 200.704 76.643C201.541 76.4339 202.371 76.184 203.208 75.9633C204.893 75.5218 206.583 75.0744 208.297 74.7549C208.316 74.7518 208.332 74.7415 208.343 74.7263C208.354 74.711 208.358 74.6921 208.355 74.6736C208.352 74.6551 208.342 74.6386 208.327 74.6277C208.311 74.6168 208.292 74.6124 208.274 74.6155Z" fill="#263238"/>
<path d="M212.509 76.0959C211.099 75.9576 209.684 75.8975 208.268 75.9158C207.559 75.9158 206.856 75.9797 206.153 76.0552L205.148 76.1714C204.776 76.2237 204.416 76.3225 204.044 76.3631C204.009 76.3631 204.009 76.4329 204.044 76.427C204.393 76.398 204.747 76.427 205.096 76.427L206.153 76.3922C206.862 76.3922 207.565 76.3573 208.274 76.3283C209.685 76.2702 211.091 76.2295 212.503 76.2237C212.584 76.2121 212.578 76.1017 212.509 76.0959Z" fill="#263238"/>
<path d="M214.13 58.0059C216.117 64.8669 226.858 91.3526 232.813 92.6424C238.768 93.9321 243.526 92.7179 243.421 87.8321C243.311 82.5163 225.052 61.6252 220.904 57.2797C216.953 53.12 212.178 51.2668 214.13 58.0059Z" fill="#E7948A"/>
<path d="M218.208 75.1551L234.963 71.164C234.963 71.164 222.519 56.8783 217.679 53.7005C212.224 50.1334 211.591 53.7005 212.811 59.7773C214.031 65.8541 218.208 75.1551 218.208 75.1551Z" fill="#C98A00"/>
<path d="M231.883 68.6257C231.302 68.6722 226.044 69.8399 224.911 70.113C223.778 70.386 219.136 71.4782 217.986 71.8558C217.975 71.8558 217.965 71.8601 217.957 71.8678C217.95 71.8754 217.946 71.8857 217.946 71.8965C217.946 71.9073 217.95 71.9176 217.957 71.9253C217.965 71.9329 217.975 71.9372 217.986 71.9372C219.148 71.7745 223.865 70.6939 225.027 70.4325C226.189 70.1711 231.348 68.9104 231.9 68.6896C231.958 68.6838 231.923 68.6257 231.883 68.6257Z" fill="#263238"/>
<path d="M219.712 74.7954C219.195 74.9813 218.666 75.1381 218.143 75.3066L218.085 75.1962C216.137 71.5345 214.693 67.6261 213.792 63.5771L216.087 69.3228C216.749 71.025 217.696 73.3895 218.318 75.0917L218.172 75.022C218.684 74.9406 219.189 74.8477 219.706 74.7838L219.712 74.7954Z" fill="#263238"/>
<path d="M213.368 64.8669C214.059 65.491 214.603 66.261 214.96 67.121C214.551 66.8781 214.198 66.5518 213.924 66.1635C213.65 65.7751 213.46 65.3333 213.368 64.8669Z" fill="#263238"/>
<path d="M213.868 53.4629C213.63 54.131 209.906 58.1918 206.816 57.7038C205.805 57.547 206.432 52.0105 206.432 52.0105L206.386 51.5922L205.723 45.7245L212.927 42.1401L213.961 41.6753C213.961 41.6753 214.031 43.2903 214.107 45.3063C214.107 45.3992 214.107 45.4922 214.107 45.5909C214.107 45.6897 214.107 45.8117 214.107 45.9221C214.107 46.2184 214.136 46.503 214.147 46.8342C214.159 47.1653 214.147 47.2931 214.147 47.5371C214.147 47.7811 214.147 48.0251 214.147 48.2691C214.172 50.0047 214.078 51.7399 213.868 53.4629Z" fill="#E7948A"/>
<path d="M214.107 45.3063C213.353 46.8518 212.272 48.2147 210.939 49.3002C209.606 50.3858 208.052 51.1679 206.386 51.5922L205.723 45.7245L212.927 42.1401L213.961 41.6753C213.961 41.6753 214.019 43.2903 214.107 45.3063Z" fill="#263238"/>
<path d="M198.856 35.8184C196.927 46.0025 202.807 48.3031 205.003 48.7214C207.001 49.0932 213.833 50.1215 216.808 40.193C219.782 30.2645 215.646 26.1455 211.138 25.0475C206.629 23.9495 200.785 25.6343 198.856 35.8184Z" fill="#E7948A"/>
<path d="M202.277 34.2037C202.521 34.2037 202.748 34.1688 202.992 34.1456C203.245 34.1595 203.496 34.0901 203.706 33.948C203.764 33.8901 203.801 33.815 203.811 33.7342C203.822 33.6534 203.805 33.5713 203.764 33.5007C203.663 33.3738 203.529 33.2766 203.376 33.2193C203.224 33.1621 203.059 33.1469 202.899 33.1754C202.565 33.1786 202.245 33.3095 202.004 33.5414C201.951 33.5958 201.914 33.6647 201.9 33.7397C201.885 33.8146 201.893 33.8922 201.922 33.9628C201.951 34.0334 202 34.0939 202.063 34.1367C202.126 34.1795 202.201 34.2028 202.277 34.2037Z" fill="#263238"/>
<path d="M209.476 35.4819C209.248 35.4098 209.025 35.3245 208.808 35.2263C208.559 35.1678 208.336 35.029 208.175 34.8312C208.137 34.76 208.123 34.6785 208.136 34.5988C208.148 34.5192 208.186 34.4458 208.244 34.3897C208.378 34.2961 208.534 34.2402 208.697 34.2279C208.859 34.2156 209.022 34.2475 209.168 34.32C209.483 34.4168 209.753 34.6228 209.929 34.9009C209.97 34.9693 209.989 35.0485 209.984 35.1281C209.979 35.2076 209.95 35.2838 209.901 35.3466C209.852 35.4095 209.786 35.456 209.71 35.4802C209.634 35.5043 209.552 35.5049 209.476 35.4819Z" fill="#263238"/>
<path d="M207.577 37.7007C207.577 37.7007 207.629 37.7472 207.623 37.7704C207.495 38.4675 207.466 39.2867 208.059 39.612C208.059 39.612 208.059 39.6585 208.059 39.6469C207.298 39.4261 207.344 38.3397 207.577 37.7007Z" fill="#263238"/>
<path d="M208.307 37.0677C209.469 37.1549 209.19 39.3915 208.139 39.3393C207.087 39.287 207.36 36.998 208.307 37.0677Z" fill="#263238"/>
<path d="M208.744 37.2367C208.924 37.3877 209.092 37.6375 209.325 37.6898C209.557 37.7421 209.83 37.533 210.039 37.3238H210.074C210.034 37.7595 209.813 38.1836 209.342 38.2011C208.872 38.2185 208.651 37.7944 208.593 37.3412C208.587 37.2889 208.668 37.1786 208.744 37.2367Z" fill="#263238"/>
<path d="M203.306 36.9405C203.306 36.9114 203.248 36.9405 203.248 36.9927C203.196 37.7015 203.022 38.4974 202.359 38.6659V38.7066C203.149 38.6775 203.376 37.6144 203.306 36.9405Z" fill="#263238"/>
<path d="M202.76 36.1384C201.639 35.9351 201.313 38.195 202.353 38.3809C203.393 38.5668 203.695 36.3127 202.76 36.1384Z" fill="#263238"/>
<path d="M202.266 36.2191C202.068 36.312 201.865 36.5038 201.65 36.4921C201.435 36.4805 201.249 36.2017 201.127 35.946C201.127 35.946 201.092 35.946 201.087 35.946C201.017 36.376 201.087 36.8465 201.493 36.986C201.9 37.1254 202.19 36.7884 202.359 36.3701C202.4 36.312 202.347 36.1842 202.266 36.2191Z" fill="#263238"/>
<path d="M206.426 43.3542C206.246 43.5053 206.066 43.7202 205.81 43.7261C205.547 43.7032 205.292 43.6261 205.061 43.4995C205.061 43.4995 205.02 43.4995 205.032 43.5343C205.123 43.6788 205.252 43.7961 205.404 43.8737C205.556 43.9514 205.727 43.9867 205.897 43.9759C206.04 43.9454 206.171 43.8744 206.274 43.7713C206.377 43.6682 206.448 43.5375 206.478 43.3949C206.507 43.3484 206.467 43.331 206.426 43.3542Z" fill="#263238"/>
<path d="M203.829 40.2047C203.829 40.2047 203.527 41.3666 203.463 41.8895C203.934 41.9957 204.424 41.9933 204.894 41.8826C205.364 41.7719 205.802 41.5557 206.176 41.2504C206.217 41.2097 206.176 41.1458 206.113 41.1691C205.441 41.5424 204.665 41.6833 203.905 41.5699C203.905 41.4305 204.422 39.7748 204.346 39.7574C203.956 39.7471 203.565 39.7861 203.185 39.8735C203.696 37.7182 204.544 35.6558 205.02 33.483C205.022 33.4674 205.019 33.4515 205.011 33.4379C205.002 33.4244 204.99 33.4141 204.975 33.4087C204.96 33.4033 204.944 33.4031 204.929 33.4082C204.914 33.4133 204.901 33.4233 204.893 33.4366C203.915 35.6161 203.156 37.8871 202.627 40.2163C202.557 40.5126 203.62 40.2628 203.829 40.2047Z" fill="#263238"/>
<path d="M203.887 41.7968C204.141 42.2251 204.499 42.5828 204.927 42.8367C205.163 42.9643 205.433 43.0151 205.7 42.9819C206.281 42.9064 206.368 42.401 206.321 41.9304C206.296 41.686 206.239 41.4459 206.153 41.2158C205.479 41.6466 204.685 41.8502 203.887 41.7968Z" fill="#263238"/>
<path d="M204.927 42.8364C205.164 42.964 205.434 43.0148 205.7 42.9816C206.281 42.9061 206.368 42.4006 206.322 41.9301C206.021 41.9003 205.719 41.9738 205.466 42.1385C205.212 42.3032 205.022 42.5494 204.927 42.8364Z" fill="#A86077"/>
<path d="M216.105 39.5784C215.024 39.3809 212.55 36.0288 213.107 30.7421C213.107 30.7421 212.933 35.5234 213.206 36.2612C213.479 36.999 211.823 34.3731 212.213 30.1089C210.755 30.9108 209.19 31.4978 207.565 31.8517C205.485 32.1655 204.259 31.997 204.132 31.8517C204.004 31.7065 207.077 31.1197 207.989 30.3006C207.989 30.3006 202.342 32.1248 199.856 32.0086C199.571 32.0086 199.949 26.1003 204.062 24.0786C208.175 22.0568 213.874 25.4903 215.303 27.2506C215.303 27.2506 217.174 27.756 218.894 30.8293C220.613 33.9025 217.273 39.7934 216.105 39.5784Z" fill="#263238"/>
<path d="M212.171 29.5445C212.205 29.4341 212.386 29.4573 212.357 29.5793C211.983 31.4832 212.01 33.444 212.438 35.3366C212.438 35.3366 212.397 35.3714 212.391 35.3366C211.828 33.3671 211.561 31.5255 212.171 29.5445Z" fill="#263238"/>
<path d="M204.868 32.2049C207.773 32.2049 210.341 31.624 212.531 29.6197C212.578 29.579 212.653 29.6197 212.607 29.6894C210.736 31.9319 207.663 32.5942 204.862 32.3153C204.804 32.3328 204.804 32.2049 204.868 32.2049Z" fill="#263238"/>
<path d="M214.454 40.3386C214.454 40.3386 217.028 37.3467 218.41 38.2936C219.793 39.2406 217.626 43.7372 215.843 44.2019C215.619 44.279 215.383 44.3099 215.147 44.2927C214.912 44.2755 214.682 44.2106 214.472 44.1019C214.262 43.9933 214.077 43.8431 213.927 43.6605C213.777 43.478 213.666 43.2669 213.6 43.04L214.454 40.3386Z" fill="#E7948A"/>
<path d="M217.755 39.5831V39.6295C216.506 39.9955 215.756 41.0471 215.198 42.1567C215.281 42.0443 215.386 41.9511 215.508 41.8832C215.63 41.8154 215.765 41.7746 215.904 41.7635C216.043 41.7525 216.182 41.7716 216.313 41.8193C216.444 41.8671 216.563 41.9426 216.662 42.0405C216.691 42.0405 216.662 42.1102 216.628 42.1044C216.423 42.0141 216.195 41.9901 215.976 42.036C215.758 42.0818 215.559 42.1952 215.408 42.36C215.157 42.6354 214.936 42.9351 214.745 43.2547C214.681 43.3593 214.49 43.2547 214.542 43.1617C214.687 41.599 216.093 39.5714 217.755 39.5831Z" fill="#263238"/>
<path d="M214.106 52.2887C211.062 54.874 215.959 77.8507 218.975 83.6138C220.514 86.5186 231.756 97.0629 231.936 96.9757C232.116 96.8886 232.046 93.8502 231.552 93.1124C231.058 92.3746 223.93 83.2013 222.437 80.3314C219.829 75.3352 215.669 57.7671 216.459 52.7477C216.5 52.4978 214.437 52.004 214.106 52.2887Z" fill="#263238"/>
<path d="M242.485 88.1278C244.356 92.6186 238.511 94.5532 235.264 93.5191C227.636 91.1081 215.552 83.7881 210.573 78.5943C208.97 76.9212 220.124 65.1859 222.343 66.2955C224.656 67.4633 238.68 79.0242 242.485 88.1278Z" fill="#E7948A"/>
<path d="M211.062 54.8628C210.572 55.1075 210.169 55.4964 209.906 55.9772C209.643 56.4581 209.534 57.0078 209.593 57.5526C208.671 57.4325 207.736 57.6379 206.949 58.1335C205.607 59.0747 206.49 61.5902 206.49 61.5902C205.508 61.6641 204.57 62.0325 203.801 62.6476C202.61 63.6758 203.138 66.3482 203.138 66.3482C202.265 66.924 201.632 67.7973 201.355 68.8057C200.704 71.4897 203.626 74.6152 205.689 76.3232C208.152 78.3798 215.17 82.4697 216.442 83.3237L228.265 71.1295C228.265 71.1295 222.409 60.0914 219.905 58.1045C217.79 56.472 212.968 54.0088 211.062 54.8628Z" fill="#E7948A"/>
<path d="M209.691 57.5463C212.357 58.7721 214.518 60.7183 216.784 62.5367C216.792 62.5397 216.799 62.5446 216.804 62.5508C216.81 62.557 216.814 62.5645 216.816 62.5726C216.818 62.5806 216.818 62.5891 216.816 62.5972C216.814 62.6053 216.81 62.6128 216.805 62.6192C216.8 62.6255 216.793 62.6305 216.785 62.6337C216.777 62.6369 216.769 62.6382 216.761 62.6375C216.753 62.6368 216.745 62.6342 216.737 62.6298C216.73 62.6254 216.724 62.6194 216.72 62.6122C214.489 60.7764 211.922 59.4112 209.615 57.6683C209.605 57.6561 209.599 57.641 209.598 57.6252C209.596 57.6093 209.6 57.5935 209.609 57.58C209.617 57.5664 209.63 57.5559 209.644 57.5499C209.659 57.5438 209.675 57.5426 209.691 57.5463Z" fill="#263238"/>
<path d="M206.693 61.4853C207.273 61.8233 207.806 62.2354 208.279 62.7112C208.808 63.1817 209.331 63.6639 209.842 64.1519C210.876 65.1279 211.881 66.1291 212.857 67.1555C212.904 67.2019 212.857 67.2833 212.793 67.2368C211.765 66.2608 210.725 65.308 209.656 64.3785C209.122 63.9137 208.581 63.4548 208.041 62.9958C207.504 62.5969 207.011 62.1411 206.571 61.6364C206.561 61.6182 206.556 61.5973 206.558 61.5765C206.56 61.5556 206.568 61.5358 206.581 61.5196C206.594 61.5033 206.612 61.4914 206.632 61.4853C206.652 61.4792 206.673 61.4792 206.693 61.4853Z" fill="#263238"/>
<path d="M203.178 66.3942C203.697 66.7023 204.16 67.095 204.549 67.5561L205.938 68.9155C206.867 69.816 207.797 70.7106 208.755 71.5763C208.802 71.6227 208.755 71.6983 208.692 71.6576C207.71 70.7804 206.722 69.9147 205.746 69.0375C205.27 68.6018 204.793 68.1661 204.323 67.7245C203.853 67.3636 203.45 66.9231 203.132 66.4232C203.132 66.418 203.134 66.4129 203.137 66.4084C203.14 66.404 203.144 66.4002 203.148 66.3974C203.152 66.3946 203.158 66.3928 203.163 66.3923C203.168 66.3917 203.173 66.3924 203.178 66.3942Z" fill="#263238"/>
<path d="M239.988 83.7307C237.205 80.2043 234.394 76.4455 231.042 73.4536C234.824 76.0389 237.67 79.8441 239.988 83.7307Z" fill="#263238"/>
<path d="M215.106 55.4428C212.828 54.368 209.389 54.2809 209.679 57.662C208.669 57.6039 207.396 57.7259 206.775 58.5799C206.153 59.4339 206.473 60.805 206.775 61.8042H206.496C203.486 62.0134 203.01 63.8956 203.481 66.5332C203.046 66.7579 202.661 67.0684 202.35 67.4458C202.038 67.8232 201.806 68.2598 201.668 68.7292C200.576 74.2134 211.225 79.9474 215.204 82.5501C211.672 80.7931 208.328 78.6811 205.223 76.2467C202.348 73.9229 198.566 68.9267 203.068 66.1439L202.917 66.4402C202.669 65.2467 202.793 64.0058 203.271 62.8848C203.963 61.7752 205.282 61.4498 206.49 61.3859L206.292 61.6648C206.131 61.1273 206.043 60.5703 206.031 60.0091C205.915 57.906 207.826 57.2437 209.604 57.4761L209.517 57.5632C209.372 54.1066 212.793 54.2692 215.106 55.4253V55.4428Z" fill="#263238"/>
<path d="M226.532 88.2208L222.483 61.2239L218.387 61.7293L222.431 88.7263L226.532 88.2208Z" fill="#2C2C2C"/>
<path d="M222.43 88.7257L218.387 61.7288L207.692 63.0533L211.741 90.0503L222.43 88.7257Z" fill="#455A64"/>
<path d="M226.103 85.3571L225.726 82.8416L221.624 83.347L222.002 85.8625L226.103 85.3571Z" fill="#455A64"/>
<path d="M225.48 81.185L225.329 80.2148L221.234 80.7203L221.379 81.6963L225.48 81.185Z" fill="#455A64"/>
<path d="M220.404 89.6274L216.053 60.6204L210.929 61.2536L215.28 90.2665L220.404 89.6274Z" fill="#C7C7C7"/>
<path d="M216.749 65.2436L216.325 62.426L211.201 63.0593L211.625 65.8827L216.749 65.2436Z" fill="#C98A00"/>
<path d="M217.08 67.4691L216.906 66.2898L211.782 66.9288L211.956 68.1024L217.08 67.4691Z" fill="#C98A00"/>
<path d="M219.876 86.1001L219.452 83.2766L214.328 83.9157L214.752 86.7333L219.876 86.1001Z" fill="#C98A00"/>
<path d="M205.595 91.4911L215.28 90.2885L210.928 61.2524L201.244 62.455L205.595 91.4911Z" fill="#E9E8E8"/>
<path d="M214.234 89.9641L210.22 63.1821L205.962 63.7108L209.976 90.4928L214.234 89.9641Z" fill="#455A64"/>
<path d="M209.976 90.4922L205.961 63.7102L195.161 65.0464L199.176 91.8284L209.976 90.4922Z" fill="#2C2C2C"/>
<path d="M213.792 90.0159L209.777 63.2339L206.402 63.6522L210.416 90.4342L213.792 90.0159Z" fill="white"/>
<path d="M207.355 65.3203C208.755 73.3723 210.085 82.2609 211.108 90.3653C209.708 82.319 208.377 73.4304 207.355 65.3203Z" fill="#DBDBDB"/>
<path d="M208.017 65.2212C209.417 73.2732 210.748 82.1618 211.77 90.2661C210.37 82.2199 209.04 73.3255 208.017 65.2212Z" fill="#DBDBDB"/>
<path d="M208.681 65.1394C210.081 73.1914 211.411 82.08 212.434 90.1844C211.034 82.1323 209.703 73.2437 208.681 65.1394Z" fill="#DBDBDB"/>
<path d="M209.372 65.0581C210.772 73.1043 212.102 81.9987 213.125 90.1031C211.724 82.051 210.394 73.1624 209.372 65.0581Z" fill="#DBDBDB"/>
<path d="M181.868 90.0041C177.738 87.2794 181.566 81.7545 184.895 80.8308C192.709 78.6522 205.658 78.9136 212.816 80.5229C215.139 81.0399 215.174 96.0634 212.67 96.3597C210.044 96.6908 190.246 95.5289 181.868 90.0041Z" fill="#E7948A"/>
<path d="M227.183 77.5903C227.409 78.0662 227.483 78.6 227.396 79.1194C227.308 79.6389 227.064 80.119 226.695 80.4951C227.464 80.9496 228.049 81.6586 228.351 82.4994C228.815 84.0099 226.648 85.4042 226.648 85.4042C227.348 86.0428 227.84 86.8766 228.06 87.7977C228.351 89.2907 226.37 90.9929 226.37 90.9929C226.693 91.9398 226.662 92.972 226.282 93.8977C225.179 96.3203 221.124 96.9419 218.544 97.0174C215.453 97.1162 207.721 96.053 206.245 95.9369L204.502 79.734C204.502 79.734 215.494 74.8366 218.556 74.8366C221.141 74.8017 226.253 75.7777 227.183 77.5903Z" fill="#E7948A"/>
<path d="M226.631 80.4244C223.889 79.7679 221.095 79.9596 218.3 79.9944C218.242 79.9944 218.242 80.0874 218.3 80.0874C221.077 80.0235 223.837 80.5115 226.614 80.558C226.629 80.556 226.643 80.549 226.654 80.5381C226.665 80.5273 226.672 80.5131 226.674 80.4979C226.676 80.4826 226.673 80.4672 226.665 80.4539C226.657 80.4406 226.646 80.4302 226.631 80.4244Z" fill="#263238"/>
<path d="M226.561 85.1831C225.923 85.0988 225.277 85.0988 224.638 85.1831C223.959 85.2238 223.279 85.2819 222.599 85.3458C221.24 85.4736 219.886 85.6304 218.533 85.8338C218.474 85.8338 218.474 85.9325 218.533 85.9267C219.886 85.8047 221.24 85.6943 222.599 85.6304C223.279 85.5956 223.959 85.5665 224.644 85.5433C225.287 85.5611 225.93 85.5085 226.561 85.3864C226.588 85.3864 226.614 85.3757 226.633 85.3566C226.652 85.3376 226.663 85.3117 226.663 85.2848C226.663 85.2578 226.652 85.2319 226.633 85.2129C226.614 85.1938 226.588 85.1831 226.561 85.1831Z" fill="#263238"/>
<path d="M226.312 90.9858C225.73 90.9129 225.141 90.9404 224.569 91.0672L222.71 91.2705C221.472 91.3983 220.235 91.5261 218.998 91.6133C218.987 91.6168 218.978 91.6235 218.972 91.6324C218.966 91.6412 218.962 91.6518 218.962 91.6626C218.962 91.6735 218.966 91.6841 218.972 91.6929C218.978 91.7018 218.987 91.7085 218.998 91.712C220.258 91.6307 221.519 91.5668 222.78 91.4738L224.639 91.3286C225.207 91.3348 225.772 91.2384 226.306 91.0439C226.314 91.0447 226.321 91.0424 226.327 91.0375C226.333 91.0326 226.337 91.0255 226.338 91.0178C226.339 91.0101 226.336 91.0024 226.331 90.9964C226.326 90.9904 226.319 90.9866 226.312 90.9858Z" fill="#263238"/>
<path d="M182.995 81.8069C186.219 79.7968 190.17 79.6515 193.853 79.3378C197.536 79.0241 201.336 79.0648 205.077 79.1868C208.563 77.5717 213.309 75.3931 217.539 74.5856C218.679 74.5158 219.823 74.6097 220.937 74.8645C223.116 75.3234 225.585 75.6836 227.194 77.3509C227.568 77.8441 227.736 78.4633 227.662 79.0778C227.588 79.6923 227.279 80.2542 226.799 80.645V80.3254C228.298 81.0226 229.28 83.1547 227.961 84.4734C227.603 84.879 227.178 85.2208 226.706 85.4843V85.3158C228.094 86.7566 228.745 88.4472 227.206 90.0738C228.67 88.3833 227.914 86.7392 226.462 85.3739C226.947 85.0945 227.379 84.7327 227.74 84.305C228.948 82.9688 227.781 81.069 226.328 80.5288L226.578 80.337C229.849 76.4388 220.769 75.2595 218.381 75.0678C215.941 75.213 213.623 76.2878 211.299 77.1011C209.19 77.8912 207.116 78.844 205.042 79.7038C201.318 79.5818 197.577 79.5411 193.853 79.7038C190.129 79.8665 186.301 79.9652 182.978 81.8127L182.995 81.8069Z" fill="#263238"/>
</svg>
