<svg width="24" height="24" viewBox="0 0 24 24" fill="none" xmlns="http://www.w3.org/2000/svg">
<path d="M22.8 0H4.8C3.4752 0 2.4 1.0752 2.4 2.4V6H0V8.4H2.4V10.8H0V13.2H2.4V15.6H0V18H2.4V21.6C2.4 22.9248 3.4752 24 4.8 24H22.8C23.4636 24 24 23.4636 24 22.8V1.2C24 0.5364 23.4636 0 22.8 0ZM13.2 3.5988C15.1776 3.5988 16.8 5.22 16.8 7.1988C16.8 9.1764 15.1776 10.8 13.2 10.8C11.2236 10.8 9.6 9.1764 9.6 7.1988C9.6 5.22 11.2236 3.5988 13.2 3.5988ZM20.4 19.2H6V18.3C6 15.6372 9.246 12.9 13.2 12.9C17.154 12.9 20.4 15.6372 20.4 18.3V19.2Z" fill="#2D2D2D"/>
</svg>
