<svg width="24" height="18" viewBox="0 0 24 18" fill="none" xmlns="http://www.w3.org/2000/svg">
<path d="M0.086401 8.65608C0.134403 8.60808 0.354813 8.56768 0.57642 8.56608C0.798227 8.56434 1.21904 8.45447 1.51185 8.32139C2.03047 8.0859 2.30308 7.84279 3.78593 6.29422C4.39735 5.65552 4.84117 5.37635 6.85223 4.36517C9.50353 3.03211 10.1425 2.64388 11.4142 1.59434C12.6382 0.584025 13.1344 0.627147 13.4781 1.77375C13.6081 2.20704 13.5941 2.38305 13.3941 2.9102C13.1122 3.64765 12.114 4.68921 11.1754 5.22506C10.8158 5.43023 10.3894 5.71804 10.2278 5.86462C9.88714 6.17318 9.83974 6.67515 10.1397 6.79048C10.2538 6.83408 12.7172 6.86988 15.6149 6.86988C21.6761 6.86988 21.4187 6.82088 21.5317 7.99794C21.5857 8.56004 21.5517 8.70576 21.2645 9.03529L20.9345 9.41868H18.3068C16.5242 9.41868 15.7361 9.46069 15.8563 9.54929C16.3438 9.9089 16.468 10.6826 16.1402 11.3165C15.8871 11.8058 15.5771 11.9664 14.8757 11.9715C14.3851 11.9755 14.3407 11.9977 14.5353 12.1455C15.4555 12.8447 14.8109 14.5815 13.6311 14.5815H13.1817L13.4525 14.9259C13.7717 15.3316 13.7899 15.6072 13.5385 16.2109C13.2073 17.0039 13.0212 17.0383 8.8089 17.0848L5.01437 17.1268L3.80573 16.4989C2.46808 15.804 1.74566 15.5538 0.699623 15.4231L0 15.3357V12.0395C0 10.2266 0.039999 8.7041 0.0880013 8.65618L0.086401 8.65608ZM17.582 5.70554C18.3166 4.89213 19.1781 4.51956 20.3243 4.51956C24.131 4.51956 25.4125 9.49107 22.0888 11.3658C21.4491 11.7266 21.2547 11.771 20.3243 11.7688C19.4451 11.7668 19.1715 11.7102 18.6056 11.4138C18.0052 11.0995 17.122 10.244 17.122 9.97694C17.122 9.71932 17.765 9.91654 18.1104 10.2801C19.0195 11.237 20.5309 11.5253 21.6401 10.9534C22.3182 10.6038 23.0568 9.78818 23.2642 9.16036C23.6922 7.86295 23.1002 6.24304 21.9342 5.52215C20.7183 4.77051 19.2899 4.92965 18.1326 5.94561C17.8264 6.21442 17.5468 6.35096 17.3576 6.3239C17.0762 6.2835 17.087 6.2537 17.582 5.70554ZM19.3305 5.97553C22.107 4.77119 24.1276 8.74118 21.4965 10.2313C20.8701 10.5861 19.9077 10.6233 19.2633 10.3175C18.4746 9.94324 18.5716 9.82812 19.6033 9.9146C20.7247 10.0086 21.2119 9.8522 21.7353 9.23018C22.365 8.48185 22.1204 7.06395 21.2787 6.58395C21.1127 6.48955 20.4483 6.3828 19.8013 6.34686L18.6248 6.28146L19.3305 5.97553Z" fill="#fff"/>
</svg>
